<svg width="620" height="354" viewBox="0 0 620 354" fill="none" xmlns="http://www.w3.org/2000/svg">
<rect width="31" height="89" transform="matrix(-1 0 0 1 620 59)" fill="#CC8A4C"/>
<rect width="146" height="59" transform="matrix(-1 0 0 1 589 30)" fill="#CC8A4C"/>
<rect width="89" height="59" transform="matrix(-1 0 0 1 561 0)" fill="#CC8A4C"/>
<rect width="89" height="89" transform="matrix(-1 0 0 1 502 59)" fill="#CC8A4C"/>
<rect width="95" height="176" transform="matrix(-1 0 0 1 478 89)" fill="#CC8A4C"/>
<rect width="90" height="156" transform="matrix(-1 0 0 1 443 139)" fill="#CC8A4C"/>
<rect width="30" height="30" transform="matrix(-1 0 0 1 413 295)" fill="#89531F"/>
<rect width="30" height="30" transform="matrix(-1 0 0 1 383 295)" fill="#89531F"/>
<rect width="117" height="88" transform="matrix(-1 0 0 1 353 266)" fill="#CC8A4C"/>
<rect width="117" height="88" transform="matrix(-1 0 0 1 325 210)" fill="#CC8A4C"/>
<rect width="87" height="85" transform="matrix(-1 0 0 1 295 180)" fill="#CC8A4C"/>
<rect width="87" height="33" transform="matrix(-1 0 0 1 267 148)" fill="#CC8A4C"/>
<rect width="87" height="92" transform="matrix(-1 0 0 1 236 89)" fill="#CC8A4C"/>
<rect width="87" height="62" transform="matrix(-1 0 0 1 204 119)" fill="#CC8A4C"/>
<rect width="87" height="62" transform="matrix(-1 0 0 1 236 211)" fill="#CC8A4C"/>
<rect width="30" height="30" transform="matrix(-1 0 0 1 208 181)" fill="#FFD5AE"/>
<rect width="30" height="87" transform="matrix(-1 0 0 1 208 238)" fill="#FFD5AE"/>
<rect width="74" height="59" transform="matrix(-1 0 0 1 282 266)" fill="#FFD5AE"/>
<rect width="29" height="60" transform="matrix(4.37114e-08 1 1 -4.37114e-08 176 296)" fill="#89531F"/>
<rect width="58" height="28" transform="matrix(4.37114e-08 1 1 -4.37114e-08 208 296)" fill="#89531F"/>
<rect width="33" height="90" transform="matrix(4.37114e-08 1 1 -4.37114e-08 59 236)" fill="#43290C"/>
<rect width="33" height="31" transform="matrix(4.37114e-08 1 1 -4.37114e-08 59 207)" fill="#43290C"/>
<rect width="33" height="31" transform="matrix(4.37114e-08 1 1 -4.37114e-08 236 56)" fill="#693A00"/>
<rect width="33" height="31" transform="matrix(4.37114e-08 1 1 -4.37114e-08 86 148)" fill="#693A00"/>
<rect width="31" height="31" transform="matrix(4.37114e-08 1 1 -4.37114e-08 149 119)" fill="#3B2100"/>
<rect width="33" height="87" transform="matrix(4.37114e-08 1 1 -4.37114e-08 502 89)" fill="#89531F"/>
<rect width="56" height="28" transform="matrix(4.37114e-08 1 1 -4.37114e-08 561 122)" fill="#89531F"/>
<rect width="29" height="29" transform="matrix(4.37114e-08 1 1 -4.37114e-08 532 178)" fill="#89531F"/>
<rect width="33" height="59" transform="matrix(4.37114e-08 1 1 -4.37114e-08 0 236)" fill="#744F23"/>
<rect width="56" height="59" transform="matrix(4.37114e-08 1 1 -4.37114e-08 90 269)" fill="#6B5439"/>
<rect width="46" height="27" transform="matrix(4.37114e-08 1 1 -4.37114e-08 90 308)" fill="#6B5439"/>
<rect width="56" height="90" transform="matrix(4.37114e-08 1 1 -4.37114e-08 0 269)" fill="#D0B18D"/>
<rect width="56" height="60" transform="matrix(4.37114e-08 1 1 -4.37114e-08 30 298)" fill="#D0B18D"/>
<rect width="30" height="28" transform="matrix(-1 0 0 1 238 238)" fill="#89531F"/>
</svg>
