<svg width="24" height="24" viewBox="0 0 24 24" fill="none" xmlns="http://www.w3.org/2000/svg">
<g clip-path="url(#clip0_8366_23893)">
<path fill-rule="evenodd" clip-rule="evenodd" d="M1.43349 0.014845C0.797233 0.0985018 0.217265 0.620297 0.0430636 1.26585C0.00290855 1.41458 6.48585e-05 1.6856 6.48585e-05 5.34697C6.48585e-05 9.63535 -0.00768177 9.40303 0.146148 9.73447C0.354106 10.1826 0.718443 10.5017 1.21354 10.6693C1.34249 10.7129 1.51926 10.7152 5.27055 10.7215C9.67466 10.7289 9.41836 10.7385 9.79368 10.551C10.0918 10.4021 10.4058 10.0885 10.55 9.79575C10.7351 9.41987 10.7243 9.69151 10.7248 5.37976C10.7253 1.1929 10.7291 1.3197 10.5928 1.01147C10.396 0.566666 9.96766 0.193899 9.48724 0.0494304C9.34839 0.00766328 9.12239 0.00496704 5.45458 0.00111878C3.31751 -0.00113625 1.50801 0.00506507 1.43349 0.014845ZM14.7211 0.0154088C14.1567 0.0923005 13.6408 0.483352 13.4072 1.01147C13.2709 1.3197 13.2747 1.1929 13.2752 5.37976C13.2757 9.69151 13.2649 9.41987 13.45 9.79575C13.5942 10.0885 13.9082 10.4021 14.2063 10.551C14.5816 10.7385 14.3253 10.7289 18.7295 10.7215C22.4807 10.7152 22.6575 10.7129 22.7865 10.6693C23.383 10.4673 23.7954 10.0383 23.9562 9.45259C23.9973 9.30278 23.9999 9.0584 23.9999 5.35922V1.42517L23.9435 1.228C23.7903 0.693315 23.3693 0.258462 22.8232 0.0708777L22.6271 0.00352088L18.7415 0.000285393C16.6045 -0.00150393 14.7953 0.00531018 14.7211 0.0154088ZM1.61558 1.55422C1.53297 1.60937 1.53223 1.643 1.53223 5.37667C1.53223 8.68338 1.53625 9.07978 1.5704 9.12848L1.60855 9.18297H5.35412C8.95162 9.18297 9.10126 9.18121 9.14024 9.13814C9.17762 9.09684 9.18081 8.79898 9.18081 5.35255V1.61178L9.12632 1.57364C9.07758 1.53949 8.67995 1.53552 5.35718 1.53584C3.31413 1.53606 1.63041 1.54432 1.61558 1.55422ZM14.8737 1.57364L14.8192 1.61178V5.35682C14.8192 8.95382 14.821 9.10343 14.864 9.14241C14.9053 9.17979 15.2032 9.18297 18.6501 9.18297H22.3915L22.4296 9.12848C22.4637 9.07978 22.4678 8.68338 22.4678 5.37667C22.4678 1.643 22.467 1.60937 22.3844 1.55422C22.3696 1.54432 20.6859 1.53606 18.6428 1.53584C15.32 1.53552 14.9224 1.53949 14.8737 1.57364ZM1.32153 13.3125C0.807725 13.4251 0.373963 13.7781 0.146148 14.269C-0.00768177 14.6005 6.48585e-05 14.3682 6.48585e-05 18.6566C6.48585e-05 22.3179 0.00290855 22.5889 0.0430636 22.7377C0.199198 23.3163 0.683877 23.8009 1.26257 23.957C1.41135 23.9972 1.68351 24 5.36878 24C9.12421 24 9.32336 23.9978 9.47499 23.955C10.0861 23.7824 10.577 23.2628 10.6908 22.6683C10.7433 22.394 10.7411 14.8393 10.6885 14.5877C10.5749 14.0451 10.105 13.5345 9.54054 13.3406L9.38919 13.2886L5.43007 13.2842C2.20423 13.2806 1.44327 13.2858 1.32153 13.3125ZM14.6353 13.3024C14.3154 13.3567 14.041 13.5099 13.7626 13.7897C13.5207 14.0329 13.3729 14.2943 13.3115 14.5877C13.2589 14.8393 13.2567 22.394 13.3092 22.6683C13.423 23.2628 13.9139 23.7824 14.525 23.955C14.6766 23.9978 14.8758 24 18.6312 24C22.3165 24 22.5886 23.9972 22.7374 23.957C23.3065 23.8035 23.7826 23.3371 23.9435 22.7755L23.9999 22.5784V18.6566C23.9999 14.3682 24.0077 14.6005 23.8539 14.269C23.6459 13.821 23.2816 13.5019 22.7865 13.3342C22.6573 13.2905 22.4847 13.2885 18.7048 13.2851C16.534 13.2832 14.7027 13.291 14.6353 13.3024ZM1.5704 14.875C1.53625 14.9237 1.53223 15.3201 1.53223 18.6268C1.53223 22.3605 1.53297 22.3941 1.61558 22.4493C1.63041 22.4592 3.31413 22.4675 5.35718 22.4677C8.67995 22.468 9.07758 22.464 9.12632 22.4299L9.18081 22.3917V18.6467C9.18081 15.0497 9.17905 14.9001 9.13597 14.8611C9.09467 14.8237 8.79676 14.8206 5.34985 14.8206H1.60855L1.5704 14.875ZM14.8598 14.8654C14.8224 14.9067 14.8192 15.2045 14.8192 18.651V22.3917L14.8737 22.4299C14.9224 22.464 15.3209 22.468 18.6472 22.468H22.3662L22.4169 22.4035L22.4678 22.3389V18.6342C22.4678 15.3208 22.4637 14.9237 22.4296 14.875L22.3915 14.8206H18.6459C15.0484 14.8206 14.8987 14.8223 14.8598 14.8654Z" fill="#4E50D1"/>
</g>
<defs>
<clipPath id="clip0_8366_23893">
<rect width="24" height="24" fill="white"/>
</clipPath>
</defs>
</svg>
