<svg width="24" height="24" viewBox="0 0 24 24" fill="none" xmlns="http://www.w3.org/2000/svg">
<g clip-path="url(#clip0_8366_23874)">
<path fill-rule="evenodd" clip-rule="evenodd" d="M11.6617 0.071329C11.5409 0.131884 11.2873 0.375855 9.94613 1.7214C8.84579 2.82531 8.3558 3.33289 8.31756 3.40839C8.27845 3.4856 8.2598 3.57215 8.25213 3.71196C8.24278 3.88268 8.24894 3.92396 8.30065 4.03708C8.38445 4.2203 8.49161 4.33193 8.66642 4.41807C8.79254 4.48021 8.84612 4.49267 8.98728 4.49267C9.30478 4.49267 9.31564 4.48441 10.3392 3.4616L11.2444 2.55707L11.2383 6.90091L11.2323 11.2447L6.89313 11.2508L2.55399 11.2569L3.46649 10.3388C4.04551 9.7562 4.39418 9.3874 4.42053 9.32965C4.59409 8.94924 4.44568 8.51734 4.07521 8.3247C3.9841 8.27735 3.93188 8.26866 3.73954 8.26893C3.54758 8.26919 3.49479 8.27807 3.40387 8.32554C3.24629 8.40777 0.170582 11.4841 0.0807413 11.6494C-0.0129837 11.8217 -0.0264826 12.0758 0.0474376 12.2768C0.0983162 12.4151 0.164108 12.4845 1.69819 14.0194C2.96502 15.2869 3.32081 15.6299 3.41585 15.6755C3.5149 15.723 3.57326 15.733 3.75153 15.733C3.94593 15.733 3.98005 15.7259 4.09581 15.6617C4.23399 15.5851 4.36015 15.4538 4.42295 15.3214C4.5195 15.1177 4.50888 14.8162 4.39859 14.6289C4.36749 14.5761 3.94754 14.1387 3.46534 13.657C2.98317 13.1752 2.58866 12.7729 2.58866 12.7629C2.58866 12.7529 4.53348 12.7474 6.91046 12.7507L11.2323 12.7568L11.2383 17.083C11.2417 19.4624 11.2365 21.4092 11.2267 21.4092C11.2171 21.4092 10.8043 21.0047 10.3096 20.5103C9.29741 19.4988 9.30799 19.5068 8.99044 19.5068C8.69452 19.5068 8.44929 19.6553 8.31869 19.9135C8.23419 20.0806 8.22465 20.3393 8.29586 20.5332C8.34667 20.6715 8.4126 20.7411 9.95836 22.2886C11.4864 23.8184 11.575 23.9025 11.7067 23.9507C11.8868 24.0164 12.0882 24.0164 12.2683 23.9507C12.4001 23.9026 12.4882 23.8189 14.0166 22.2886C15.5421 20.7612 15.6287 20.6699 15.677 20.5383C15.7884 20.2343 15.7135 19.8993 15.4888 19.6964C15.3344 19.5571 15.2007 19.5068 14.9846 19.5068C14.6671 19.5068 14.6776 19.4988 13.6655 20.5103C13.1707 21.0047 12.758 21.4092 12.7483 21.4092C12.7386 21.4092 12.7334 19.4624 12.7367 17.083L12.7428 12.7568L17.0646 12.7507C19.4416 12.7474 21.3864 12.7529 21.3864 12.7629C21.3864 12.7729 20.9919 13.1752 20.5097 13.657C20.0275 14.1387 19.6075 14.5761 19.5764 14.6289C19.4986 14.7608 19.4674 14.9541 19.4952 15.1326C19.536 15.3946 19.7694 15.6535 20.0274 15.723C20.1763 15.7631 20.4193 15.7411 20.5592 15.6748C20.655 15.6294 21.0005 15.2964 22.2767 14.0194C23.7109 12.5843 23.8786 12.4085 23.9171 12.3008C23.9406 12.2348 23.9688 12.1705 23.9798 12.158C24.0091 12.1246 24.0054 11.8025 23.9759 11.8208C23.9627 11.8289 23.9518 11.8161 23.9517 11.7922C23.951 11.6636 23.7603 11.4571 22.2456 9.94531C21.1824 8.88419 20.6444 8.36375 20.5712 8.32554C20.4803 8.27807 20.4275 8.26919 20.2355 8.26893C20.0432 8.26866 19.991 8.27735 19.8998 8.3247C19.5922 8.48469 19.4405 8.78761 19.4959 9.13174C19.5086 9.21082 19.5416 9.31357 19.5692 9.36009C19.5968 9.4066 20.0249 9.85242 20.5205 10.3508L21.4216 11.2569L17.0822 11.2508L12.7428 11.2447L12.7367 6.90091L12.7307 2.55707L13.6359 3.4616C14.6594 4.48441 14.6703 4.49267 14.9878 4.49267C15.2913 4.49267 15.5422 4.32624 15.6744 4.03708C15.7261 3.92396 15.7323 3.88268 15.7229 3.71196C15.7153 3.57215 15.6966 3.4856 15.6575 3.40839C15.6193 3.33289 15.1293 2.82531 14.0289 1.7214C12.2537 -0.0596449 12.3247 0.000237729 11.9875 0.000237729C11.8313 0.000237729 11.7819 0.0110142 11.6617 0.071329ZM0.00722868 12.0008C0.00722868 12.0998 0.0114726 12.1403 0.0166276 12.0908C0.0218065 12.0413 0.0218065 11.9603 0.0166276 11.9108C0.0114726 11.8613 0.00722868 11.9018 0.00722868 12.0008Z" fill="#4E50D1"/>
</g>
<defs>
<clipPath id="clip0_8366_23874">
<rect width="24" height="24" fill="white"/>
</clipPath>
</defs>
</svg>
