<svg width="24" height="24" viewBox="0 0 24 24" fill="none" xmlns="http://www.w3.org/2000/svg">
<path fill-rule="evenodd" clip-rule="evenodd" d="M10.2851 1.51347C9.79117 1.58043 9.37706 1.87976 9.14263 2.33926C8.97918 2.65965 8.99119 1.90302 8.99074 11.9051L8.99033 20.9884H8.24761H7.50491L7.4982 16.3538C7.49177 11.9267 7.48949 11.7133 7.44734 11.5873C7.27653 11.0768 6.88922 10.6937 6.38879 10.5402C6.25471 10.4991 6.12598 10.4961 4.49459 10.4961C2.8632 10.4961 2.73447 10.4991 2.60039 10.5402C2.09996 10.6937 1.71265 11.0768 1.54184 11.5873C1.49969 11.7133 1.49741 11.9267 1.49098 16.3524L1.48427 20.9857L1.01132 20.9931C0.567429 21 0.531439 21.004 0.426059 21.0579C-0.00555546 21.2785 -0.133738 21.8168 0.155212 22.1953C0.266083 22.3406 0.441692 22.4444 0.627588 22.4746C0.836718 22.5085 23.1383 22.5085 23.3474 22.4746C23.6087 22.4321 23.8562 22.2305 23.9298 21.9999C23.9453 21.9514 23.9674 21.9015 23.979 21.889C24.0028 21.8633 24.0086 21.5236 23.9849 21.5473C23.9765 21.5557 23.94 21.5008 23.9038 21.4254C23.8228 21.2566 23.6939 21.1304 23.5205 21.0501C23.3941 20.9914 23.3702 20.9889 22.9395 20.9887L22.4902 20.9884L22.4834 14.1115C22.4768 7.54865 22.4745 7.22789 22.433 7.09056C22.2767 6.57376 21.819 6.14016 21.3174 6.03382C21.0848 5.98451 17.8759 5.98451 17.6434 6.03382C17.1418 6.14016 16.684 6.57381 16.5278 7.09056C16.4863 7.22789 16.484 7.54865 16.4774 14.1115L16.4705 20.9884H15.7276H14.9846L14.9842 11.9051C14.9838 1.90359 14.9958 2.65979 14.8324 2.33926C14.638 1.95775 14.2913 1.66557 13.8937 1.54827C13.7629 1.50971 13.5981 1.50537 12.0834 1.50071C11.1669 1.49791 10.3576 1.50364 10.2851 1.51347ZM10.5009 11.995V20.9884H11.9875H13.4741V11.995V3.00154H11.9875H10.5009V11.995ZM17.9818 14.2494V20.9884H19.4804H20.979V14.2494V7.51026H19.4804H17.9818V14.2494ZM2.99601 16.4917V20.9884H4.49459H5.99317V16.4917V11.995H4.49459H2.99601V16.4917ZM0.0069127 21.7319C0.0069127 21.8308 0.0111567 21.8713 0.0163118 21.8218C0.0214909 21.7724 0.0214909 21.6914 0.0163118 21.642C0.0111567 21.5925 0.0069127 21.633 0.0069127 21.7319Z" fill="#4E50D1"/>
</svg>
