<svg width="24" height="24" viewBox="0 0 24 24" fill="none" xmlns="http://www.w3.org/2000/svg">
<path d="M16.75 15.43V10.5C16.7388 9.69841 16.5271 8.91238 16.134 8.21367C15.741 7.51496 15.1792 6.92581 14.5 6.5V4.5C14.5 3.42 13 0 12 0C11 0 9.5 3.42 9.5 4.5V6.5C8.81759 6.92237 8.25331 7.51075 7.85986 8.21023C7.4664 8.90971 7.25658 9.69748 7.25 10.5V15.43C6.76792 15.6795 6.35552 16.045 6.05 16.4937C5.74449 16.9424 5.55547 17.46 5.5 18V23.5C5.50256 23.6318 5.55606 23.7575 5.64928 23.8507C5.7425 23.9439 5.86819 23.9974 6 24H8C8.13181 23.9974 8.2575 23.9439 8.35072 23.8507C8.44394 23.7575 8.49744 23.6318 8.5 23.5V20.75C8.5 20.6837 8.52634 20.6201 8.57322 20.5732C8.62011 20.5263 8.6837 20.5 8.75 20.5H10.25C10.3163 20.5 10.3799 20.5263 10.4268 20.5732C10.4737 20.6201 10.5 20.6837 10.5 20.75V23.5C10.5026 23.6318 10.5561 23.7575 10.6493 23.8507C10.7425 23.9439 10.8682 23.9974 11 24H13C13.1318 23.9974 13.2575 23.9439 13.3507 23.8507C13.4439 23.7575 13.4974 23.6318 13.5 23.5V20.75C13.5 20.6837 13.5263 20.6201 13.5732 20.5732C13.6201 20.5263 13.6837 20.5 13.75 20.5H15.25C15.3163 20.5 15.3799 20.5263 15.4268 20.5732C15.4737 20.6201 15.5 20.6837 15.5 20.75V23.5C15.5026 23.6318 15.5561 23.7575 15.6493 23.8507C15.7425 23.9439 15.8682 23.9974 16 24H18C18.1318 23.9974 18.2575 23.9439 18.3507 23.8507C18.4439 23.7575 18.4974 23.6318 18.5 23.5V18C18.4445 17.46 18.2555 16.9424 17.95 16.4937C17.6445 16.045 17.2321 15.6795 16.75 15.43V15.43ZM14.75 18.25C14.75 18.3163 14.7237 18.3799 14.6768 18.4268C14.6299 18.4737 14.5663 18.5 14.5 18.5H13.75C13.6837 18.5 13.6201 18.4737 13.5732 18.4268C13.5263 18.3799 13.5 18.3163 13.5 18.25V14.5C13.5 13.67 12.5 12.5 12 12.5C11.5 12.5 10.5 13.67 10.5 14.5V18.25C10.5 18.3163 10.4737 18.3799 10.4268 18.4268C10.3799 18.4737 10.3163 18.5 10.25 18.5H9.5C9.4337 18.5 9.37011 18.4737 9.32322 18.4268C9.27634 18.3799 9.25 18.3163 9.25 18.25V10.5C9.2591 10.1216 9.34539 9.74896 9.50359 9.40505C9.66179 9.06114 9.88856 8.75317 10.17 8.5H13.83C14.1105 8.75391 14.3367 9.06204 14.4948 9.40579C14.6529 9.74954 14.7397 10.1218 14.75 10.5V18.25Z" fill="#4E50D1"/>
</svg>
