<svg width="24" height="24" viewBox="0 0 24 24" fill="none" xmlns="http://www.w3.org/2000/svg"><g transform="translate(2,2) scale(0.833333)">

<path d="M7.20973 23.7483L19.6797 12.7483C19.7844 12.6492 19.8678 12.5298 19.9248 12.3974C19.9818 12.2651 20.0112 12.1224 20.0112 11.9783C20.0112 11.8341 19.9818 11.6915 19.9248 11.5591C19.8678 11.4267 19.7844 11.3073 19.6797 11.2083L7.20973 0.24828C7.11067 0.160337 6.99513 0.0929511 6.86981 0.0500343C6.7445 0.00711755 6.6119 -0.0104744 6.47973 -0.00171977C6.34649 0.00912227 6.21679 0.046567 6.09827 0.108401C5.97976 0.170235 5.87484 0.255202 5.78973 0.35828L4.23973 2.20828C4.14579 2.31528 4.07578 2.44111 4.03439 2.57735C3.993 2.7136 3.98118 2.8571 3.99973 2.99828C4.00931 3.13077 4.0452 3.26003 4.1053 3.3785C4.16539 3.49697 4.24848 3.60228 4.34973 3.68828L13.7997 11.8583C13.8498 11.9088 13.8779 11.9771 13.8779 12.0483C13.8779 12.1194 13.8498 12.1877 13.7997 12.2383L4.34973 20.3583C4.24848 20.4443 4.16539 20.5496 4.1053 20.6681C4.0452 20.7865 4.00931 20.9158 3.99973 21.0483C3.9869 21.1807 4.00064 21.3144 4.04014 21.4415C4.07963 21.5685 4.14409 21.6864 4.22973 21.7883L5.78973 23.6383C5.87484 23.7414 5.97976 23.8263 6.09827 23.8882C6.21679 23.95 6.34649 23.9874 6.47973 23.9983C6.6119 24.007 6.7445 23.9894 6.86981 23.9465C6.99513 23.9036 7.11067 23.8362 7.20973 23.7483Z" fill="#4E50D1"/>


</g></svg>
