<svg width="24" height="24" viewBox="0 0 24 24" fill="none" xmlns="http://www.w3.org/2000/svg">
<g clip-path="url(#clip0_8366_23728)">
<path fill-rule="evenodd" clip-rule="evenodd" d="M11.031 0.0328757C8.64928 0.234765 6.43293 1.10156 4.59425 2.55022C0.101095 6.09033 -1.2856 12.2957 1.27869 17.3872C3.32627 21.4526 7.45238 24 11.9899 24C13.8769 24 15.689 23.5699 17.3718 22.7226C19.4891 21.6566 21.2474 19.983 22.4227 17.9152C23.2816 16.404 23.8435 14.5475 23.943 12.8919C23.952 12.743 23.9686 12.6154 23.9798 12.6084C23.9911 12.6014 24.0002 12.3128 24 11.9671C23.9998 11.6213 23.9906 11.3526 23.9796 11.37C23.9679 11.3885 23.9529 11.2847 23.9434 11.1179C23.8487 9.46684 23.2843 7.59755 22.4227 6.08174C20.5688 2.81999 17.3011 0.60374 13.6081 0.103565C12.8381 -0.00072852 11.7723 -0.0299642 11.031 0.0328757ZM11.2467 1.52421C9.78953 1.65404 8.64724 1.9607 7.42296 2.55082C5.31912 3.56487 3.56687 5.31933 2.55408 7.42581C2.02912 8.51766 1.72001 9.58313 1.56872 10.8223C1.50814 11.3185 1.50814 12.6784 1.56872 13.1746C1.81411 15.1846 2.56209 16.9956 3.77497 18.5164C5.39727 20.5506 7.65284 21.8949 10.1919 22.3409C10.8329 22.4535 11.1244 22.4753 11.9899 22.4753C12.8555 22.4753 13.1469 22.4535 13.7879 22.3409C16.0461 21.9443 18.1333 20.8082 19.6692 19.1398C21.2161 17.4595 22.1266 15.4783 22.4107 13.1746C22.472 12.6774 22.472 11.3196 22.4107 10.8223C22.1623 8.80834 21.4109 6.98766 20.2064 5.48166C18.4403 3.27331 16.0147 1.92038 13.1886 1.5672C12.9022 1.53141 11.5115 1.50064 11.2467 1.52421ZM5.45728 9.01527C5.06419 9.06968 4.64126 9.28357 4.34438 9.57809C4.0917 9.82873 3.93502 10.0916 3.8217 10.4549L3.75577 10.6663L3.74858 12.6389C3.74072 14.7921 3.73985 14.7759 3.87851 15.0595C4.01583 15.3403 4.32297 15.6019 4.62501 15.6953C4.77215 15.7408 4.85076 15.743 6.36643 15.743C8.08828 15.743 8.05741 15.7451 8.32706 15.6083C8.48171 15.53 8.72429 15.2965 8.82485 15.1292C8.99384 14.8483 8.99036 14.898 8.9919 12.7356C8.9931 11.0584 8.98816 10.7713 8.95541 10.6113C8.79151 9.8108 8.18161 9.20014 7.38211 9.03603C7.23216 9.00526 7.04016 8.99878 6.36326 9.0017C5.90452 9.00367 5.49683 9.00977 5.45728 9.01527ZM11.4505 9.01527C11.0574 9.06968 10.6345 9.28357 10.3376 9.57809C10.0849 9.82873 9.92826 10.0916 9.81494 10.4549L9.74901 10.6663L9.74182 12.6389C9.73396 14.7921 9.73309 14.7759 9.87175 15.0595C10.0091 15.3403 10.3162 15.6019 10.6182 15.6953C10.7654 15.7408 10.844 15.743 12.3597 15.743C14.0815 15.743 14.0506 15.7451 14.3203 15.6083C14.4749 15.53 14.7175 15.2965 14.8181 15.1292C14.9871 14.8483 14.9836 14.898 14.9851 12.7356C14.9863 11.0584 14.9814 10.7713 14.9486 10.6113C14.7847 9.8108 14.1749 9.20014 13.3754 9.03603C13.2254 9.00526 13.0334 8.99878 12.3565 9.0017C11.8978 9.00367 11.4901 9.00977 11.4505 9.01527ZM17.4438 9.01527C17.0507 9.06968 16.6277 9.28357 16.3309 9.57809C16.0782 9.82873 15.9215 10.0916 15.8082 10.4549L15.7423 10.6663L15.7351 12.6389C15.7272 14.7921 15.7263 14.7759 15.865 15.0595C16.0023 15.3403 16.3095 15.6019 16.6115 15.6953C16.7586 15.7408 16.8372 15.743 18.3529 15.743C20.0748 15.743 20.0439 15.7451 20.3135 15.6083C20.4682 15.53 20.7108 15.2965 20.8113 15.1292C20.9803 14.8483 20.9768 14.898 20.9784 12.7356C20.9796 11.0584 20.9746 10.7713 20.9419 10.6113C20.778 9.8108 20.1681 9.20014 19.3686 9.03603C19.2186 9.00526 19.0266 8.99878 18.3497 9.0017C17.891 9.00367 17.4833 9.00977 17.4438 9.01527ZM5.51498 10.5662C5.45687 10.5969 5.37697 10.668 5.33741 10.7242L5.26549 10.8264L5.25904 12.5406L5.25257 14.2548H6.36779H7.48299L7.48246 12.5686C7.48196 10.9805 7.47937 10.8767 7.43768 10.7863C7.38413 10.6701 7.30823 10.597 7.18975 10.5475C7.11611 10.5166 6.97464 10.5103 6.36079 10.5103C5.63225 10.5103 5.61897 10.5112 5.51498 10.5662ZM11.5082 10.5662C11.4501 10.5969 11.3702 10.668 11.3307 10.7242L11.2587 10.8264L11.2523 12.5406L11.2458 14.2548H12.361H13.4762L13.4757 12.5686C13.4752 10.9805 13.4726 10.8767 13.4309 10.7863C13.3774 10.6701 13.3015 10.597 13.183 10.5475C13.1093 10.5166 12.9679 10.5103 12.354 10.5103C11.6255 10.5103 11.6122 10.5112 11.5082 10.5662ZM17.5015 10.5662C17.4433 10.5969 17.3634 10.668 17.3239 10.7242L17.252 10.8264L17.2455 12.5406L17.239 14.2548H18.3543H19.4695L19.4689 12.5686C19.4684 10.9805 19.4659 10.8767 19.4242 10.7863C19.3706 10.6701 19.2947 10.597 19.1762 10.5475C19.1026 10.5166 18.9611 10.5103 18.3473 10.5103C17.6187 10.5103 17.6055 10.5112 17.5015 10.5662ZM0.0139053 11.9985C0.0139053 12.3483 0.0172615 12.4915 0.0213369 12.3165C0.0254363 12.1416 0.0254363 11.8554 0.0213369 11.6804C0.0172615 11.5055 0.0139053 11.6486 0.0139053 11.9985Z" fill="#4E50D1"/>
</g>
<defs>
<clipPath id="clip0_8366_23728">
<rect width="24" height="24" fill="white"/>
</clipPath>
</defs>
</svg>
