<svg width="24" height="24" viewBox="0 0 24 24" fill="none" xmlns="http://www.w3.org/2000/svg"><g transform="translate(3.4992,3.4992) scale(0.708400)">
<path d="M19 3.75C19 2.50736 17.9927 1.5 16.75 1.5H7.25C6.00736 1.5 5 2.50736 5 3.75V20.25C5 21.4927 6.00736 22.5 7.25 22.5H16.75C17.9927 22.5 19 21.4927 19 20.25V3.75ZM15.748 18C15.748 17.8619 15.6361 17.75 15.498 17.75H8.49805C8.35997 17.75 8.24805 17.8619 8.24805 18V19C8.24805 19.1381 8.35997 19.25 8.49805 19.25H15.498C15.6361 19.25 15.748 19.1381 15.748 19V18ZM17.248 19C17.248 19.9665 16.4645 20.75 15.498 20.75H8.49805C7.53155 20.75 6.74805 19.9665 6.74805 19V18C6.74805 17.0335 7.53155 16.25 8.49805 16.25H15.498C16.4645 16.25 17.248 17.0335 17.248 18V19ZM20.5 20.25C20.5 22.3211 18.8211 24 16.75 24H7.25C5.17894 24 3.5 22.3211 3.5 20.25V3.75C3.5 1.67894 5.17894 0 7.25 0H16.75C18.8211 0 20.5 1.67894 20.5 3.75V20.25Z" fill="#4E50D1"/>
</g></svg>
