<svg width="24" height="24" viewBox="0 0 24 24" fill="none" xmlns="http://www.w3.org/2000/svg">
<g clip-path="url(#clip0_8366_23670)">
<path d="M16.2514 18.4629C15.7398 17.938 15.3633 17.2968 15.1543 16.5943C15.131 16.5038 15.0775 16.4239 15.0027 16.3678C14.9279 16.3117 14.8363 16.2828 14.7429 16.2857H9C7.86336 16.2857 6.77327 15.8342 5.96954 15.0305C5.16581 14.2267 4.71429 13.1366 4.71429 12C4.71429 10.8634 5.16581 9.77327 5.96954 8.96954C6.77327 8.16582 7.86336 7.71429 9 7.71429H14.7429C14.8363 7.71724 14.9279 7.68829 15.0027 7.63221C15.0775 7.57612 15.131 7.49624 15.1543 7.40571C15.3633 6.7032 15.7398 6.06197 16.2514 5.53714C16.4702 5.3301 16.7053 5.14093 16.9543 4.97143C17.0142 4.93288 17.0631 4.87944 17.0961 4.81634C17.1292 4.75323 17.1453 4.68263 17.1429 4.61143V1.71429C17.1429 1.25963 16.9622 0.823594 16.6408 0.502103C16.3193 0.180612 15.8832 0 15.4286 0H1.71429C1.25963 0 0.823594 0.180612 0.502103 0.502103C0.180612 0.823594 0 1.25963 0 1.71429V22.2857C0 22.7404 0.180612 23.1764 0.502103 23.4979C0.823594 23.8194 1.25963 24 1.71429 24H15.4286C15.8832 24 16.3193 23.8194 16.6408 23.4979C16.9622 23.1764 17.1429 22.7404 17.1429 22.2857V19.3886C17.1453 19.3174 17.1292 19.2468 17.0961 19.1837C17.0631 19.1206 17.0142 19.0671 16.9543 19.0286C16.7053 18.8591 16.4702 18.6699 16.2514 18.4629Z" fill="#4E50D1"/>
<path d="M23.6227 12.9084C23.8635 12.6673 23.9987 12.3406 23.9987 11.9998C23.9987 11.6591 23.8635 11.3323 23.6227 11.0913L20.1941 7.6627C19.9504 7.43559 19.628 7.31195 19.2949 7.31783C18.9618 7.3237 18.644 7.45864 18.4085 7.6942C18.1729 7.92977 18.038 8.24757 18.0321 8.58066C18.0262 8.91375 18.1499 9.23611 18.377 9.47984L18.8741 9.97698C18.9364 10.0381 18.9793 10.1162 18.9976 10.2015C19.0159 10.2869 19.0087 10.3757 18.977 10.457C18.9435 10.5336 18.8884 10.5988 18.8183 10.6445C18.7482 10.6902 18.6663 10.7144 18.5827 10.7141H8.99983C8.65883 10.7141 8.33181 10.8496 8.09069 11.0907C7.84957 11.3318 7.71411 11.6588 7.71411 11.9998C7.71411 12.3408 7.84957 12.6679 8.09069 12.909C8.33181 13.1501 8.65883 13.2856 8.99983 13.2856H18.5827C18.6663 13.2853 18.7482 13.3095 18.8183 13.3551C18.8884 13.4008 18.9435 13.466 18.977 13.5427C19.0087 13.624 19.0159 13.7128 18.9976 13.7981C18.9793 13.8835 18.9364 13.9615 18.8741 14.0227L18.377 14.5198C18.1362 14.7609 18.001 15.0877 18.001 15.4284C18.001 15.7691 18.1362 16.0959 18.377 16.337C18.618 16.5778 18.9448 16.713 19.2855 16.713C19.6263 16.713 19.953 16.5778 20.1941 16.337L23.6227 12.9084Z" fill="#4E50D1"/>
</g>
<defs>
<clipPath id="clip0_8366_23670">
<rect width="24" height="24" fill="white"/>
</clipPath>
</defs>
</svg>
