<svg width="24" height="24" viewBox="0 0 24 24" fill="none" xmlns="http://www.w3.org/2000/svg">
<path d="M0 12V9.16309C0 7.92638 0.491729 6.74069 1.36621 5.86621C2.24069 4.99173 3.42638 4.5 4.66309 4.5H6.62109L6.84961 4.50586C7.38234 4.53285 7.90708 4.65153 8.40039 4.85742C8.96412 5.09274 9.4761 5.43735 9.90625 5.87109C10.3364 6.30494 10.6766 6.81996 10.9072 7.38574C11.1371 7.94992 11.2537 8.55391 11.25 9.16309V14.832L11.2549 14.9893C11.2993 15.7747 11.6331 16.5186 12.1943 17.0752C12.793 17.6686 13.6024 18.0011 14.4453 18H16.3984C16.8096 17.9989 17.2167 17.9162 17.5957 17.7568C17.9746 17.5974 18.3182 17.3644 18.6064 17.0713C18.8948 16.7781 19.1223 16.4305 19.2754 16.0488C19.4284 15.6672 19.5039 15.2588 19.498 14.8477V10.8125L17.7803 12.5303C17.4874 12.8232 17.0126 12.8232 16.7197 12.5303C16.4268 12.2374 16.4268 11.7626 16.7197 11.4697L19.708 8.48047C19.7173 8.47083 19.7275 8.46226 19.7373 8.45312C19.7613 8.43064 19.7865 8.41035 19.8125 8.3916C19.8601 8.35745 19.9108 8.32705 19.9658 8.30469C19.9772 8.30006 19.9895 8.298 20.001 8.29395C20.0341 8.28236 20.0675 8.27056 20.1025 8.26367C20.1057 8.26304 20.1091 8.26329 20.1123 8.2627C20.1563 8.25464 20.2017 8.25 20.248 8.25C20.2917 8.25 20.3344 8.25456 20.376 8.26172C20.524 8.28684 20.666 8.35549 20.7803 8.46973L23.7803 11.4697C24.0732 11.7626 24.0732 12.2374 23.7803 12.5303C23.4874 12.8232 23.0126 12.8232 22.7197 12.5303L20.998 10.8086V14.8262L20.9951 15.0547C20.9763 15.5867 20.8655 16.1123 20.667 16.6074C20.4401 17.1732 20.1032 17.6884 19.6758 18.123C19.2483 18.5577 18.7387 18.9033 18.1768 19.1396C17.6149 19.3759 17.0118 19.4984 16.4023 19.5H14.4463V19.499C13.2071 19.5004 12.0176 19.0122 11.1377 18.1396C10.2579 17.2671 9.75892 16.0819 9.75 14.8428V9.15723C9.75293 8.74422 9.67438 8.33464 9.51855 7.95215C9.36259 7.56944 9.1318 7.22119 8.84082 6.92773C8.55 6.63448 8.20435 6.40135 7.82324 6.24219C7.48944 6.10284 7.13393 6.02214 6.77344 6.00391L6.61914 6H4.66309C3.82421 6 3.01994 6.33358 2.42676 6.92676C1.83358 7.51994 1.5 8.32421 1.5 9.16309V12C1.5 12.4142 1.16421 12.75 0.75 12.75C0.335786 12.75 0 12.4142 0 12Z" fill="#4E50D1"/>
</svg>
