<svg width="24" height="24" viewBox="0 0 24 24" fill="none" xmlns="http://www.w3.org/2000/svg">
<g clip-path="url(#clip0_8366_23704)">
<path fill-rule="evenodd" clip-rule="evenodd" d="M3.21939 0.0152332C2.95518 0.043314 2.67116 0.105913 2.40379 0.194984C1.19322 0.598253 0.397184 1.55713 0.0753589 2.99973L0.0097802 3.29368L0.00198464 9.63529C-0.00341229 14.0303 0.00208058 16.0543 0.0199024 16.2291C0.118606 17.1965 0.4944 17.965 1.15378 18.5477C1.73608 19.0622 2.58846 19.4086 3.48679 19.4956C3.62083 19.5086 4.69261 19.5191 5.91587 19.5194L8.10508 19.52L8.09268 19.5741C8.08584 19.6038 7.97768 20.2497 7.85231 21.0094C7.72693 21.769 7.61878 22.4149 7.61194 22.4446L7.59954 22.4987L6.81444 22.4989C5.96492 22.4991 5.77775 22.5164 5.61896 22.6096C5.10218 22.9129 5.13487 23.6771 5.67605 23.9441L5.78948 24H11.99H18.1904L18.3039 23.9441C18.845 23.6771 18.8777 22.9129 18.3609 22.6096C18.2022 22.5164 18.015 22.4991 17.1655 22.4989L16.3804 22.4987L16.368 22.4446C16.3611 22.4149 16.253 21.769 16.1276 21.0094C16.0022 20.2497 15.8943 19.6045 15.8877 19.5757L15.8756 19.5233L18.2803 19.5138C20.9259 19.5033 20.876 19.5059 21.4335 19.3497C21.8955 19.2202 22.4498 18.9129 22.7754 18.6055C23.2242 18.1821 23.5442 17.6713 23.7527 17.0458C23.839 16.787 23.9578 16.2505 23.9608 16.106C23.9622 16.0388 23.966 16.0332 23.9832 16.073C24.0156 16.1484 23.9967 3.45642 23.964 3.21955C23.9209 2.90686 23.8655 2.66182 23.7791 2.40126C23.3773 1.18961 22.4197 0.392271 20.9785 0.0693531L20.685 0.00358287L12.0379 0.000291958C7.28203 -0.00150964 3.31368 0.00521632 3.21939 0.0152332ZM3.23494 1.53859C2.30587 1.71207 1.74152 2.31791 1.54563 3.35215C1.51207 3.5293 1.50792 4.12565 1.50792 8.77317V13.9951H11.99H22.472L22.472 8.71648C22.4719 3.10432 22.4755 3.29349 22.3627 2.9214C22.149 2.21642 21.5514 1.73141 20.6765 1.55286C20.439 1.50436 20.3899 1.50412 11.9142 1.50678C5.34974 1.50885 3.35501 1.51618 3.23494 1.53859ZM0.00860487 9.79143C0.00860487 13.2859 0.0113633 14.7155 0.0147694 12.9682C0.0181754 11.221 0.0181754 8.36187 0.0147694 6.61462C0.0113633 4.86738 0.00860487 6.29694 0.00860487 9.79143ZM1.50794 15.7787C1.50799 16.0495 1.54685 16.3412 1.61173 16.5578C1.82797 17.2798 2.40191 17.7511 3.3069 17.9499C3.5037 17.9931 3.80658 17.9947 12.0379 17.9947C21.0879 17.9947 20.6801 17.9996 21.0529 17.8854C21.609 17.715 22.0445 17.2923 22.2765 16.6975C22.3933 16.3985 22.4503 16.1279 22.4651 15.8027L22.4785 15.5085H11.9932H1.50792L1.50794 15.7787ZM9.39084 20.9433C9.26105 21.7261 9.14918 22.3963 9.14222 22.4326L9.12958 22.4987H11.99H14.8503L14.8377 22.4326C14.8307 22.3963 14.7189 21.7261 14.5891 20.9433L14.3531 19.52H11.99H9.62679L9.39084 20.9433Z" fill="#4E50D1"/>
</g>
<defs>
<clipPath id="clip0_8366_23704">
<rect width="24" height="24" fill="white"/>
</clipPath>
</defs>
</svg>
