<svg width="24" height="24" viewBox="0 0 24 24" fill="none" xmlns="http://www.w3.org/2000/svg">
<path fill-rule="evenodd" clip-rule="evenodd" d="M11.4618 3.01106C8.23192 3.21271 5.3882 5.09404 3.93909 7.98785C3.31059 9.24294 2.99311 10.603 2.99311 12.0404V12.4388L2.08682 11.5348C1.47133 10.9209 1.14586 10.6133 1.07249 10.5763C0.913105 10.4959 0.646595 10.4851 0.46985 10.5518C0.309646 10.6123 0.140223 10.7698 0.0600613 10.9327C-0.0206288 11.0966 -0.0199086 11.4044 0.0615738 11.5748C0.107069 11.67 0.448387 12.0251 1.70611 13.2856C3.49008 15.0735 3.41119 15.0071 3.74907 15.0049C4.07092 15.0028 3.98252 15.078 5.77065 13.2857C6.6567 12.3976 7.39864 11.637 7.41936 11.5955C7.523 11.3881 7.50634 11.0529 7.38282 10.8603C7.23831 10.6349 7.05345 10.5268 6.78634 10.5114C6.64098 10.5031 6.57853 10.5114 6.46224 10.5549C6.32719 10.6054 6.2616 10.6651 5.4119 11.5109L4.5056 12.4131L4.50563 11.9699C4.50575 10.3616 5.029 8.7978 5.99653 7.51428C6.89649 6.32045 8.08024 5.44581 9.47521 4.94401C10.8814 4.43819 12.3762 4.37005 13.8566 4.74435C14.3754 4.87552 14.8043 5.0361 15.3211 5.29263C16.2302 5.74387 16.8647 6.22424 17.5778 7.00103C17.9584 7.41562 18.0437 7.47352 18.3047 7.49471C18.5912 7.51796 18.8507 7.38066 19.0083 7.12245C19.0745 7.01413 19.0882 6.96548 19.0974 6.8062C19.1153 6.49619 19.0515 6.3746 18.6287 5.91298C17.1433 4.29145 15.0939 3.26545 12.906 3.04805C12.4515 3.00289 11.8425 2.98727 11.4618 3.01106ZM20.0803 9.76311C20.0305 9.77484 19.9495 9.80542 19.9002 9.8311C19.792 9.88744 16.6261 13.0569 16.5742 13.1609C16.5164 13.2767 16.4879 13.4832 16.5104 13.623C16.5538 13.8934 16.7567 14.1321 17.0164 14.2184C17.1674 14.2686 17.4146 14.2571 17.5547 14.1933C17.618 14.1644 17.9571 13.8439 18.5682 13.2352C19.3692 12.4372 19.4865 12.3289 19.4865 12.3872C19.4865 12.4239 19.4697 12.6021 19.4492 12.7832C19.2438 14.596 18.4724 16.1682 17.1779 17.4127C16.2495 18.3052 15.1815 18.908 13.9287 19.2467C12.1214 19.7353 10.1151 19.5049 8.47795 18.6208C7.77465 18.241 7.34287 17.9224 6.72582 17.328C6.38813 17.0026 6.27531 16.9372 6.0301 16.9246C5.79953 16.9127 5.63207 16.977 5.46935 17.1398C5.30237 17.3069 5.24163 17.4698 5.25525 17.7139C5.26994 17.9779 5.33625 18.0831 5.7287 18.465C7.23097 19.9269 9.14796 20.797 11.2749 20.9824C11.6772 21.0175 12.718 20.9972 13.0923 20.947C14.1906 20.7997 15.1506 20.5031 16.1014 20.0174C17.7443 19.1779 19.0924 17.8447 19.9621 16.1995C20.5332 15.119 20.8786 13.9196 20.9748 12.6825C20.9881 12.5121 20.9989 12.3612 20.9989 12.3471C20.9989 12.333 21.4122 12.7332 21.9172 13.2363C22.7798 14.0954 22.8443 14.1542 22.9796 14.2046C23.5851 14.4301 24.1757 13.8391 23.9513 13.2325C23.9003 13.0945 23.8307 13.0208 22.3344 11.5188C21.4745 10.6555 20.7259 9.9178 20.6708 9.87937C20.5683 9.80773 20.3404 9.73508 20.2317 9.73938C20.1981 9.74072 20.13 9.75139 20.0803 9.76311Z" fill="#4E50D1"/>
</svg>
