<svg width="24" height="24" viewBox="0 0 24 24" fill="none" xmlns="http://www.w3.org/2000/svg">
<path fill-rule="evenodd" clip-rule="evenodd" d="M2.8641 0.00768194C2.1163 0.112781 1.53278 0.554264 1.22174 1.25035C1.12994 1.45582 1.08398 1.61601 1.03614 1.89733C1.00397 2.08646 0.999885 2.89281 1 9.01841C1.00014 16.4588 0.995406 16.1577 1.11835 16.5381C1.33817 17.2182 1.87732 17.7131 2.62982 17.9255L2.8641 17.9917L6.54503 17.9982L10.226 18.0047L7.86756 20.4239C5.20676 23.1533 5.39384 22.9343 5.41338 23.2983C5.42543 23.5234 5.47303 23.6362 5.61882 23.7856C5.77408 23.9446 5.90026 23.996 6.13532 23.996C6.29721 23.996 6.35666 23.9852 6.45189 23.9385C6.54592 23.8924 7.03437 23.4053 8.91948 21.4776L11.2698 19.0742L11.2762 21.2829L11.2825 23.4916L11.3334 23.5889C11.403 23.7221 11.556 23.8737 11.6883 23.9404C11.8458 24.0199 12.1496 24.0199 12.3071 23.9404C12.4394 23.8737 12.5924 23.7221 12.6621 23.5889L12.7129 23.4916L12.7193 21.2829L12.7256 19.0742L15.0759 21.4776C16.961 23.4053 17.4495 23.8924 17.5435 23.9385C17.6388 23.9852 17.6982 23.996 17.8601 23.996C18.0952 23.996 18.2213 23.9446 18.3766 23.7856C18.5224 23.6362 18.57 23.5234 18.582 23.2983C18.6016 22.9342 18.7887 23.1534 16.1274 20.4234L13.7685 18.0037L17.3913 18.0036C21.3686 18.0035 21.2583 18.0072 21.6314 17.8597C22.3464 17.5768 22.8179 16.9513 22.9601 16.0972C23.0125 15.782 23.0137 2.1918 22.9613 1.84014C22.8863 1.33679 22.6982 0.957464 22.3586 0.62437C22.0959 0.366786 21.7638 0.181902 21.3569 0.0666921L21.1313 0.00283047L12.0329 0.00030867C7.02875 -0.00106031 2.90279 0.00225406 2.8641 0.00768194ZM2.92216 1.53577C2.7296 1.60141 2.61516 1.72263 2.53276 1.94822C2.49243 2.05867 2.48837 2.165 2.48223 3.27517L2.47554 4.48203H11.9977H21.5199L21.5132 3.23914L21.5065 1.99625L21.4413 1.86416C21.3612 1.70197 21.281 1.63532 21.0775 1.56176L20.9203 1.50491L11.9625 1.50626C5.17492 1.50726 2.98477 1.51442 2.92216 1.53577ZM2.48284 10.9967L2.48891 15.9983L2.55361 16.1303C2.63251 16.2915 2.74238 16.3801 2.94118 16.443C3.0903 16.4901 3.18163 16.4906 12.0295 16.4905C18.3688 16.4904 20.9937 16.4828 21.0586 16.4644C21.249 16.4102 21.3788 16.2759 21.4627 16.0463C21.5049 15.9306 21.5067 15.7443 21.5126 10.9607L21.5187 5.99511H11.9977H2.47674L2.48284 10.9967Z" fill="#4E50D1"/>
</svg>
