<svg width="24" height="24" viewBox="0 0 24 24" fill="none" xmlns="http://www.w3.org/2000/svg">
<path fill-rule="evenodd" clip-rule="evenodd" d="M11.5762 0.028124C11.3641 0.0684147 11.1169 0.156968 10.9448 0.254309C10.7664 0.355204 4.08796 4.61567 3.91574 4.73842C3.58538 4.97389 3.27817 5.3932 3.13626 5.80228C3.00933 6.16823 3.01384 6.07224 3.00348 8.62412C2.99322 11.1561 3.00007 11.3634 3.10238 11.6171C3.33739 12.1997 3.82439 12.5609 4.41701 12.5921C4.7004 12.607 4.89159 12.573 5.11866 12.4675C5.21097 12.4245 6.79159 11.4299 8.63115 10.2571C10.4707 9.08429 11.9866 8.12461 11.9998 8.12447C12.013 8.12433 13.5288 9.08388 15.3684 10.2568C17.208 11.4297 18.7803 12.421 18.8625 12.4597C19.0808 12.5625 19.2376 12.5974 19.4803 12.5973C19.861 12.5972 20.1799 12.4821 20.4705 12.2399C20.6435 12.0957 20.8354 11.8166 20.9041 11.6093C21.0014 11.3158 21.0058 11.1747 20.9969 8.64813C20.9883 6.22713 20.9882 6.22267 20.9346 6.01891C20.7986 5.502 20.4778 5.01925 20.0833 4.73808C19.755 4.50407 13.1599 0.310135 12.9708 0.215123C12.8587 0.158793 12.6807 0.0900968 12.5752 0.06246C12.3219 -0.00388287 11.8332 -0.0206907 11.5762 0.028124ZM11.7958 1.52584C11.7628 1.53667 11.7008 1.56361 11.6582 1.5857C11.4512 1.69291 4.81894 5.93948 4.73987 6.01545C4.68978 6.06357 4.61965 6.16237 4.58402 6.23501L4.51926 6.36707L4.51269 8.72616C4.5091 10.0237 4.51116 11.0853 4.5173 11.0853C4.52344 11.0853 6.13369 10.0629 8.09562 8.81325C10.0576 7.56367 11.7049 6.52638 11.7564 6.50818C11.8779 6.46525 12.1235 6.4659 12.2467 6.50943C12.3001 6.5283 13.9472 7.56559 15.9069 8.8145C17.8666 10.0634 19.4752 11.0853 19.4816 11.0853C19.488 11.0853 19.4903 10.0237 19.4867 8.72616L19.4803 6.36707L19.4249 6.24464C19.3945 6.17731 19.3244 6.07845 19.2691 6.02498C19.1759 5.93484 12.5635 1.69959 12.3234 1.57629C12.2072 1.5166 11.9105 1.48822 11.7958 1.52584ZM11.5589 11.4332C11.3446 11.4816 11.1831 11.5369 11.0242 11.6165C10.8512 11.7031 4.06274 16.0273 3.88014 16.1672C3.50649 16.4534 3.20778 16.9101 3.08061 17.3897C3.00413 17.678 2.99434 18.06 3.00345 20.4016C3.01031 22.1622 3.01973 22.7475 3.04273 22.8387C3.05937 22.9048 3.11561 23.0482 3.16771 23.1574C3.44655 23.7422 4.09697 24.0826 4.74027 23.9805C4.84289 23.9642 4.99699 23.9212 5.0827 23.8851C5.16841 23.8489 6.72745 22.8704 8.54723 21.7106C10.367 20.5508 11.8895 19.5817 11.9306 19.557L12.0053 19.5122L15.3472 21.6427C17.1852 22.8144 18.7603 23.809 18.8472 23.8527C19.2778 24.0693 19.8394 24.0452 20.2569 23.7924C20.6516 23.5534 20.9177 23.144 20.9785 22.6826C20.9974 22.5393 21.0026 21.757 20.9961 20.0534C20.986 17.3879 20.9935 17.5251 20.8363 17.1199C20.6729 16.6983 20.3722 16.3267 19.9807 16.0623C19.5157 15.7483 13.1195 11.6834 12.9761 11.6107C12.6868 11.4642 12.4606 11.4136 12.0597 11.4056C11.8213 11.4009 11.664 11.4096 11.5589 11.4332ZM11.8706 12.9127C11.8127 12.9237 11.723 12.9548 11.6714 12.9818C11.4498 13.0974 4.82215 17.3384 4.73706 17.4189C4.68542 17.4678 4.61529 17.5674 4.58122 17.6401L4.51926 17.7724L4.51281 20.1337L4.50636 22.4951L4.59673 22.4394C4.64643 22.4088 6.24613 21.3906 8.15163 20.1766C10.0571 18.9626 11.6647 17.9473 11.724 17.9203C11.8721 17.8529 12.1274 17.8531 12.2774 17.9206C12.3378 17.9479 13.9723 18.9799 15.9098 20.2141C17.8472 21.4483 19.4461 22.4662 19.4629 22.4761C19.4875 22.4906 19.4921 22.0378 19.4868 20.1212L19.4803 17.7484L19.4247 17.6364C19.3941 17.5748 19.3347 17.4859 19.2928 17.4389C19.2125 17.3489 12.6286 13.1333 12.3474 12.9918C12.1766 12.9059 12.0322 12.882 11.8706 12.9127Z" fill="#4E50D1"/>
</svg>
