<svg width="24" height="24" viewBox="0 0 24 24" fill="none" xmlns="http://www.w3.org/2000/svg">
<g clip-path="url(#clip0_8366_23647)">
<path d="M17.9346 13.5C17.9346 12.9509 18.1339 12.4204 18.4951 12.0068L18.499 12.002L22.499 7.50195L22.501 7.5H15V15.75C15 15.9489 14.9209 16.1396 14.7803 16.2803L11.5605 19.5H22.501L22.499 19.498L18.499 14.998L18.4951 14.9932C18.1339 14.5796 17.9346 14.0491 17.9346 13.5ZM7.75 18.75C7.75 18.9489 7.82907 19.1396 7.96973 19.2803C8.11038 19.4209 8.30109 19.5 8.5 19.5H9.43945L12.4395 16.5H7.75V18.75ZM13.5 3.75C13.5 3.55109 13.4209 3.36038 13.2803 3.21973C13.1396 3.07907 12.9489 3 12.75 3H1.5V15H13.5V3.75ZM15 6H22.5C22.7893 5.99981 23.0725 6.08318 23.3154 6.24023C23.5587 6.39759 23.7517 6.62231 23.8701 6.88672C23.9885 7.15109 24.0279 7.44422 23.9834 7.73047C23.9389 8.01673 23.8123 8.28406 23.6191 8.5L23.6182 8.49902L19.624 12.9922L19.625 12.9932C19.5024 13.1335 19.4346 13.3137 19.4346 13.5C19.4346 13.6863 19.5024 13.8665 19.625 14.0068H19.624L23.6182 18.5C23.8113 18.716 23.9389 18.9832 23.9834 19.2695C24.0279 19.5558 23.9885 19.8489 23.8701 20.1133C23.7517 20.3777 23.5587 20.6024 23.3154 20.7598C23.0725 20.9168 22.7893 20.9992 22.5 20.999V21H8.5C7.90326 21 7.33114 20.7628 6.90918 20.3408C6.48722 19.9189 6.25 19.3467 6.25 18.75V16.5H1.5V23.25C1.5 23.6642 1.16421 24 0.75 24C0.335786 24 0 23.6642 0 23.25V0.75C0 0.335786 0.335786 0 0.75 0C1.16421 0 1.5 0.335786 1.5 0.75V1.5H12.75C13.3467 1.5 13.9189 1.73722 14.3408 2.15918C14.7628 2.58114 15 3.15326 15 3.75V6Z" fill="#4E50D1"/>
</g>
<defs>
<clipPath id="clip0_8366_23647">
<rect width="24" height="24" fill="white"/>
</clipPath>
</defs>
</svg>
