<svg width="24" height="24" viewBox="0 0 24 24" fill="none" xmlns="http://www.w3.org/2000/svg">
<g clip-path="url(#clip0_8366_23285)">
<path d="M15.1818 2.45029C16.3746 2.8426 17.4838 3.45354 18.4529 4.25187C18.6339 4.40192 18.8618 4.48382 19.097 4.48336C19.3043 4.48376 19.5066 4.42018 19.6763 4.3013C19.8461 4.18241 19.975 4.01402 20.0455 3.81913C20.1159 3.62423 20.1245 3.41233 20.0701 3.21237C20.0156 3.01241 19.9007 2.83414 19.7411 2.70191C18.5757 1.7393 17.2412 1.00209 15.8059 0.527939C15.6796 0.48728 15.5466 0.47196 15.4145 0.482861C15.2823 0.493762 15.1537 0.530669 15.0358 0.591461C14.918 0.652252 14.8133 0.735731 14.7278 0.837099C14.6423 0.938468 14.5777 1.05573 14.5377 1.18214C14.4552 1.43573 14.4766 1.71172 14.5974 1.94949C14.7182 2.18726 14.9284 2.36738 15.1818 2.45029Z" fill="#4E50D1"/>
<path d="M22.8005 6.55644C22.7428 6.43476 22.6612 6.32591 22.5607 6.23633C22.4601 6.14675 22.3426 6.07826 22.2151 6.03493C22.0876 5.99159 21.9526 5.97429 21.8183 5.98405C21.684 5.9938 21.553 6.03042 21.4331 6.09172C21.3132 6.15303 21.2068 6.23778 21.1202 6.34095C21.0336 6.44412 20.9687 6.56361 20.9291 6.69235C20.8896 6.82109 20.8763 6.95646 20.89 7.09044C20.9037 7.22441 20.9442 7.35427 21.009 7.47232C21.5687 8.5956 21.9102 9.81485 22.0155 11.0654C22.0405 11.3145 22.1575 11.5454 22.3436 11.7129C22.5297 11.8804 22.7716 11.9725 23.0219 11.9712H23.1025C23.368 11.9458 23.6126 11.8159 23.7824 11.6102C23.9523 11.4045 24.0335 11.1398 24.0083 10.8742C23.8808 9.37178 23.4711 7.90692 22.8005 6.55644Z" fill="#4E50D1"/>
<path d="M22.8518 14.5077C22.5982 14.4251 22.3222 14.4466 22.0844 14.5673C21.8467 14.6881 21.6666 14.8983 21.5836 15.1518C21.1913 16.3445 20.5804 17.4537 19.7821 18.4228C19.6973 18.5245 19.6335 18.6419 19.5942 18.7684C19.5549 18.8948 19.5409 19.0277 19.5531 19.1595C19.5652 19.2913 19.6033 19.4195 19.665 19.5366C19.7268 19.6537 19.811 19.7574 19.9129 19.8419C20.094 19.992 20.3219 20.0739 20.557 20.0734C20.7057 20.0724 20.8523 20.0385 20.9863 19.9741C21.1203 19.9098 21.2384 19.8165 21.332 19.701C22.2955 18.5399 23.0329 17.2085 23.506 15.7758C23.5467 15.6496 23.562 15.5166 23.5511 15.3844C23.5402 15.2523 23.5033 15.1236 23.4425 15.0058C23.3817 14.8879 23.2982 14.7832 23.1968 14.6978C23.0955 14.6123 22.9782 14.5477 22.8518 14.5077Z" fill="#4E50D1"/>
<path d="M16.5612 20.9793C15.4379 21.539 14.2187 21.8805 12.9681 21.9858C12.7012 21.9991 12.4505 22.118 12.2712 22.3161C12.0919 22.5143 11.9986 22.7756 12.012 23.0426C12.0253 23.3095 12.1442 23.5602 12.3424 23.7395C12.5405 23.9188 12.8018 24.012 13.0688 23.9987H13.1594C14.6644 23.8587 16.1294 23.4352 17.4771 22.7507C17.5988 22.693 17.7076 22.6114 17.7972 22.5108C17.8868 22.4103 17.9553 22.2927 17.9986 22.1652C18.042 22.0377 18.0593 21.9028 18.0495 21.7685C18.0397 21.6341 18.0031 21.5031 17.9418 21.3832C17.8805 21.2633 17.7958 21.1569 17.6926 21.0704C17.5894 20.9838 17.4699 20.9188 17.3412 20.8793C17.2124 20.8397 17.0771 20.8264 16.9431 20.8401C16.8091 20.8539 16.6793 20.8943 16.5612 20.9592V20.9793Z" fill="#4E50D1"/>
<path d="M8.88187 21.5531C7.68917 21.1608 6.57993 20.5499 5.61085 19.7516C5.40531 19.5807 5.14033 19.4985 4.87419 19.5231C4.60806 19.5476 4.36257 19.6769 4.19173 19.8824C4.0209 20.0879 3.93871 20.3529 3.96324 20.619C3.98778 20.8852 4.11704 21.1307 4.32257 21.3015C5.48805 22.2641 6.82255 23.0013 8.25786 23.4755C8.35916 23.5061 8.46409 23.523 8.56987 23.5258C8.8368 23.5672 9.10923 23.5008 9.32724 23.3413C9.54524 23.1818 9.69096 22.9423 9.73234 22.6753C9.77371 22.4084 9.70735 22.136 9.54786 21.918C9.38837 21.7 9.1488 21.5542 8.88187 21.5129V21.5531Z" fill="#4E50D1"/>
<path d="M2.01747 12.9376C1.99211 12.6706 1.86175 12.4247 1.65507 12.2539C1.44839 12.0831 1.18232 12.0014 0.915388 12.0267C0.648456 12.0521 0.402531 12.1824 0.231712 12.3891C0.0608943 12.5958 -0.0208241 12.8619 0.00453446 13.1288C0.147733 14.6345 0.574606 16.0996 1.26262 17.4466C1.34763 17.6107 1.47619 17.7482 1.6342 17.844C1.79221 17.9399 1.97356 17.9904 2.15838 17.99C2.31512 17.9922 2.47021 17.9578 2.61129 17.8894C2.72996 17.8297 2.83562 17.747 2.9222 17.6463C3.00878 17.5455 3.07455 17.4286 3.11571 17.3023C3.15688 17.176 3.17264 17.0427 3.16207 16.9103C3.1515 16.7779 3.11481 16.6489 3.05413 16.5307C2.48847 15.4077 2.13693 14.1893 2.01747 12.9376Z" fill="#4E50D1"/>
<path d="M1.21245 9.49551C1.31218 9.53248 1.41817 9.54957 1.52446 9.54583C1.7367 9.54568 1.94346 9.47843 2.11518 9.3537C2.28691 9.22898 2.41481 9.05315 2.4806 8.85137C2.87291 7.65867 3.48385 6.54943 4.28218 5.58035C4.45302 5.37481 4.53521 5.10983 4.51067 4.84369C4.48613 4.57756 4.35688 4.33207 4.15134 4.16123C3.9458 3.99039 3.68082 3.9082 3.41468 3.93274C3.14855 3.95728 2.90306 4.08653 2.73222 4.29207C1.76961 5.45755 1.0324 6.79204 0.55825 8.22736C0.517591 8.35357 0.502271 8.48657 0.513172 8.61872C0.524073 8.75087 0.56098 8.87957 0.621772 8.99741C0.682563 9.11525 0.766042 9.21992 0.86741 9.3054C0.968779 9.39088 1.08604 9.45549 1.21245 9.49551Z" fill="#4E50D1"/>
<path d="M7.04981 3.13465C7.2071 3.13159 7.36176 3.09378 7.50272 3.02393C8.62601 2.46427 9.84525 2.12274 11.0958 2.01747C11.228 2.00491 11.3564 1.96644 11.4737 1.90426C11.591 1.84208 11.6949 1.75741 11.7795 1.65507C11.8641 1.55273 11.9277 1.43474 11.9666 1.30782C12.0056 1.18091 12.0192 1.04756 12.0067 0.915385C11.9941 0.783214 11.9556 0.65481 11.8935 0.537505C11.8313 0.420199 11.7466 0.31629 11.6443 0.23171C11.5419 0.147129 11.4239 0.0835336 11.297 0.0445543C11.1701 0.00557502 11.0368 -0.00802472 10.9046 0.00453155C9.40086 0.138285 7.93593 0.554885 6.58684 1.23242C6.35155 1.35484 6.1741 1.56519 6.09305 1.81774C6.01201 2.07029 6.03394 2.34462 6.15406 2.58109C6.2377 2.74707 6.36566 2.88665 6.52377 2.98436C6.68188 3.08206 6.86395 3.13408 7.04981 3.13465Z" fill="#4E50D1"/>
<path d="M20.084 12.0014C20.084 10.4089 19.6117 8.85221 18.727 7.5281C17.8423 6.204 16.5847 5.17199 15.1135 4.56257C13.6422 3.95316 12.0233 3.7937 10.4614 4.10438C8.89951 4.41506 7.46482 5.18191 6.33877 6.30797C5.21271 7.43403 4.44586 8.86871 4.13518 10.4306C3.8245 11.9925 3.98395 13.6114 4.59337 15.0827C5.20279 16.5539 6.2348 17.8115 7.5589 18.6962C8.883 19.5809 10.4397 20.0532 12.0322 20.0532C14.1677 20.0532 16.2157 19.2048 17.7257 17.6949C19.2356 16.1849 20.084 14.1369 20.084 12.0014ZM15.6052 15.2825C15.4636 15.4239 15.2718 15.5033 15.0717 15.5033C14.8717 15.5033 14.6798 15.4239 14.5383 15.2825L11.5189 12.5147C11.4432 12.4437 11.3827 12.358 11.3412 12.2628C11.2997 12.1676 11.2779 12.065 11.2774 11.9612V7.97554C11.2774 7.77534 11.3569 7.58334 11.4984 7.44178C11.64 7.30022 11.832 7.22069 12.0322 7.22069C12.2324 7.22069 12.4244 7.30022 12.566 7.44178C12.7075 7.58334 12.7871 7.77534 12.7871 7.97554V11.6693L15.5649 14.2156C15.6376 14.283 15.6963 14.3641 15.7377 14.4542C15.7791 14.5443 15.8023 14.6417 15.806 14.7407C15.8098 14.8398 15.7939 14.9386 15.7595 15.0316C15.725 15.1245 15.6726 15.2098 15.6052 15.2825Z" fill="#4E50D1"/>
</g>
<defs>
<clipPath id="clip0_8366_23285">
<rect width="24" height="24" fill="white"/>
</clipPath>
</defs>
</svg>
