<svg width="24" height="24" viewBox="0 0 24 24" fill="none" xmlns="http://www.w3.org/2000/svg">
<g clip-path="url(#clip0_8366_23852)">
<path fill-rule="evenodd" clip-rule="evenodd" d="M4.46442 0.0448832C4.39632 0.0711536 4.29745 0.132747 4.24471 0.181782C4.16965 0.251564 0.707741 4.1457 0.205374 4.72545C0.0483023 4.9067 -0.0117687 5.07328 0.00187619 5.28966C0.00928615 5.4069 0.0310844 5.49409 0.0739614 5.57782C0.115016 5.65803 1.25075 6.93329 3.49571 9.41993C6.3683 12.6018 6.854 13.1501 6.84232 13.1977C6.7412 13.6104 6.71535 14.5113 6.79052 15.003C6.98577 16.2799 7.6349 17.4573 8.58074 18.2502C9.3595 18.9031 10.257 19.3086 11.2548 19.4583C11.6119 19.5119 12.3606 19.5119 12.7176 19.4583C13.7154 19.3086 14.6129 18.9031 15.3917 18.2502C16.3375 17.4573 16.9867 16.2799 17.1819 15.003C17.2571 14.5112 17.2312 13.6088 17.1301 13.1977C17.1184 13.15 17.6028 12.6033 20.477 9.41993C23.1653 6.44258 23.8498 5.67147 23.8983 5.56582C23.9317 5.49318 23.9683 5.41499 23.9797 5.39206C24.0057 5.33985 24.0072 5.05448 23.9815 5.07042C23.9711 5.07688 23.9446 5.0316 23.9226 4.96979C23.8755 4.83743 24.0211 5.00605 21.5802 2.25664C19.8642 0.323772 19.6879 0.132531 19.5659 0.0725223L19.4322 0.00677437L12.0102 0.00197174C4.65454 -0.00280688 4.58715 -0.00242267 4.46442 0.0448832ZM6.20372 2.04189C6.34557 2.33576 7.20989 4.12899 8.12446 6.02687L9.78731 9.47756L9.87359 9.44036C10.2713 9.26891 10.7299 9.13419 11.1829 9.05577C11.364 9.02441 11.5606 9.01425 11.9862 9.01425C12.4119 9.01425 12.6084 9.02441 12.7896 9.05577C13.2425 9.13417 13.7012 9.26891 14.0987 9.44029L14.1848 9.47741L15.8478 6.0268C16.7624 4.12897 17.6268 2.33576 17.7687 2.04189L18.0266 1.5076H11.9862H5.94581L6.20372 2.04189ZM3.15281 3.66933C2.39057 4.52809 1.77043 5.24022 1.77473 5.25182C1.77902 5.26342 3.02893 6.65342 4.55229 8.34068C6.07564 10.028 7.35507 11.4464 7.39546 11.4927L7.46891 11.5771L7.5485 11.447C7.70269 11.1951 7.97216 10.8577 8.24007 10.581L8.5109 10.3013L6.5376 6.2049C5.45227 3.95187 4.55852 2.10836 4.55149 2.10821C4.54444 2.10804 3.91505 2.81055 3.15281 3.66933ZM17.4348 6.20483L15.4614 10.3012L15.7323 10.581C16.0003 10.8577 16.2697 11.1951 16.4239 11.447L16.5035 11.5771L16.577 11.4926C16.6174 11.4462 17.8968 10.0278 19.4202 8.34058C20.9435 6.65335 22.1934 5.26342 22.1977 5.25182C22.2053 5.23124 19.4463 2.10768 19.421 2.10819C19.4139 2.10831 18.5202 3.95182 17.4348 6.20483ZM10.5711 4.51779C10.3506 4.56536 10.1746 4.70403 10.0639 4.91746C10.0166 5.00871 10.0079 5.06101 10.0081 5.25365C10.0084 5.4408 10.0177 5.49925 10.0602 5.57905C10.1308 5.71198 10.2874 5.8637 10.4228 5.9305L10.5354 5.98605H11.9862H13.437L13.5496 5.9305C13.6851 5.8637 13.8416 5.71198 13.9123 5.57905C13.9547 5.49925 13.9641 5.4408 13.9643 5.25365C13.9646 5.06101 13.9559 5.00871 13.9086 4.91746C13.7932 4.69505 13.6059 4.55457 13.3667 4.51109C13.1625 4.47399 10.7473 4.47975 10.5711 4.51779ZM0.00386657 5.24164C0.00398647 5.33409 0.00830295 5.36896 0.0135067 5.31915C0.0186865 5.26933 0.0186145 5.19368 0.0133149 5.15106C0.00801519 5.10841 0.00377065 5.14919 0.00386657 5.24164ZM11.4227 10.5486C10.6536 10.6712 9.95213 11.0205 9.39933 11.5561C8.93653 12.0046 8.64522 12.4606 8.45196 13.039C7.85545 14.8244 8.62378 16.7332 10.2806 17.5818C11.1881 18.0466 12.2069 18.1229 13.181 17.7989C14.7477 17.278 15.7946 15.7491 15.7203 14.0905C15.6857 13.3168 15.4129 12.5674 14.9466 11.9653C14.4427 11.3145 13.6907 10.8205 12.8975 10.6192C12.4799 10.5132 11.8376 10.4825 11.4227 10.5486ZM11.701 13.168C11.5075 13.2201 11.3424 13.3178 11.1921 13.4692C10.7553 13.9092 10.7566 14.6121 11.1949 15.051C11.9021 15.7593 13.1133 15.259 13.1133 14.2586C13.1133 13.9309 12.9929 13.6571 12.7488 13.43C12.4636 13.1646 12.0746 13.0674 11.701 13.168ZM2.76234 14.2848C2.5609 14.3432 2.3286 14.5848 2.27184 14.795C2.23237 14.9412 2.25609 15.2106 2.3193 15.3341C2.38589 15.4642 2.52973 15.6092 2.66284 15.6804C2.7643 15.7346 2.77881 15.7355 3.69757 15.7424C4.77214 15.7506 4.77904 15.7496 4.99305 15.5537C5.16621 15.3953 5.23287 15.2422 5.23287 15.003C5.23287 14.7641 5.16619 14.6107 4.99362 14.4527C4.78267 14.2597 4.77331 14.2583 3.73868 14.2607C3.24312 14.2619 2.80378 14.2727 2.76234 14.2848ZM19.2099 14.2981C19.0632 14.3509 18.8624 14.5437 18.7953 14.6963C18.7532 14.792 18.7396 14.8669 18.7396 15.003C18.7396 15.2422 18.8062 15.3953 18.9794 15.5537C19.1934 15.7496 19.2003 15.7506 20.2749 15.7424C21.1936 15.7355 21.2081 15.7346 21.3096 15.6804C21.4411 15.61 21.5852 15.4657 21.6553 15.3341C21.7014 15.2476 21.7102 15.1947 21.7102 15.003C21.7102 14.8113 21.7014 14.7584 21.6553 14.6718C21.5852 14.5402 21.4411 14.3959 21.3096 14.3256C21.2078 14.2712 21.1966 14.2705 20.2595 14.2659C19.4608 14.262 19.2962 14.2671 19.2099 14.2981ZM6.52221 18.8219C6.46477 18.8337 6.37305 18.87 6.31837 18.9025C6.26367 18.935 5.94711 19.2353 5.61486 19.5697C4.9295 20.2597 4.88866 20.3177 4.88825 20.6031C4.8878 20.9073 5.04659 21.1666 5.31417 21.2985C5.47812 21.3794 5.78519 21.3785 5.95514 21.2968C6.10823 21.2231 7.27747 20.0638 7.35536 19.9085C7.42191 19.7757 7.44855 19.5855 7.42356 19.4214C7.36191 19.0166 6.93963 18.7357 6.52221 18.8219ZM17.1117 18.822C16.9702 18.8573 16.8508 18.9282 16.743 19.0412C16.5834 19.2083 16.5377 19.3306 16.5396 19.5854C16.5417 19.8682 16.587 19.9317 17.2813 20.6244C17.9957 21.3371 18.0208 21.3545 18.341 21.3545C18.5857 21.3545 18.7132 21.302 18.8797 21.1329C19.018 20.9925 19.0844 20.8197 19.0844 20.601C19.0844 20.3157 19.0341 20.2453 18.324 19.5367C17.8693 19.083 17.677 18.907 17.5976 18.872C17.4679 18.8149 17.2359 18.791 17.1117 18.822ZM11.7383 21.0423C11.5632 21.1088 11.3968 21.2593 11.3002 21.4385C11.2583 21.5161 11.2543 21.5941 11.2478 22.4614C11.2411 23.3598 11.2429 23.4059 11.2901 23.5324C11.3491 23.6902 11.507 23.8601 11.669 23.94C11.8313 24.02 12.1412 24.02 12.3035 23.94C12.4641 23.8607 12.6234 23.6901 12.6813 23.5352C12.7266 23.4139 12.7296 23.3494 12.7296 22.5071C12.7296 21.6648 12.7266 21.6003 12.6813 21.479C12.6233 21.3238 12.4638 21.1531 12.3035 21.0746C12.1625 21.0055 11.8777 20.9892 11.7383 21.0423Z" fill="#4E50D1"/>
</g>
<defs>
<clipPath id="clip0_8366_23852">
<rect width="24" height="24" fill="white"/>
</clipPath>
</defs>
</svg>
