<svg width="24" height="24" viewBox="0 0 24 24" fill="none" xmlns="http://www.w3.org/2000/svg">
<path fill-rule="evenodd" clip-rule="evenodd" d="M7.1035 2.51512C6.14718 2.6389 5.26213 3.26887 4.86292 4.1099C4.81215 4.21685 4.47613 5.07299 4.11621 6.01243C3.75629 6.95187 3.45826 7.72486 3.45397 7.73019C3.44965 7.7355 3.27611 7.57703 3.06831 7.37798C2.81579 7.13611 2.65073 6.99713 2.57058 6.95885L2.45066 6.90157H1.47932C0.531528 6.90157 0.505649 6.90278 0.412041 6.9518C0.282864 7.01947 0.132462 7.17172 0.0620939 7.30605C0.0143183 7.39723 0.00436504 7.45077 0.00465285 7.61521C0.00494065 7.78494 0.0143183 7.83125 0.0685455 7.93109C0.145102 8.07206 0.2779 8.20022 0.424032 8.27422C0.528817 8.32727 0.552154 8.32905 1.22749 8.33548L1.92302 8.34213L2.30026 8.7091L2.67752 9.07611L1.59274 10.1415C0.648112 11.0692 0.491355 11.2333 0.379375 11.4113C0.228637 11.651 0.155774 11.8188 0.0681618 12.128L0.00431707 12.3534V14.5411V16.7288L0.0595756 16.9261C0.124859 17.1592 0.239981 17.4104 0.367863 17.599C0.584652 17.9187 1.0101 18.2685 1.34141 18.3995L1.47932 18.454L1.47994 18.8666C1.48104 19.5993 1.54335 19.941 1.74506 20.3205C2.00305 20.8058 2.49251 21.2151 3.02627 21.3918C3.52312 21.5563 4.13046 21.5319 4.62219 21.3277C5.16046 21.1043 5.64215 20.6201 5.83392 20.1097C5.95574 19.7855 5.96953 19.6942 5.98162 19.133L5.99332 18.589H11.9842H17.9751L17.9868 19.133C17.9989 19.6942 18.0126 19.7855 18.1345 20.1097C18.3262 20.6201 18.8079 21.1043 19.3462 21.3277C19.8383 21.532 20.4477 21.5563 20.9421 21.3914C21.6708 21.1484 22.2119 20.5755 22.4071 19.8406C22.463 19.6299 22.4705 19.5496 22.4825 19.0293L22.4959 18.4518L22.6386 18.3914C23.2915 18.1152 23.8005 17.4916 23.9286 16.8107C23.9444 16.7271 23.9669 16.6404 23.9787 16.618C24.0059 16.5663 24.0064 12.4126 23.9792 12.4545C23.9663 12.4744 23.9536 12.4401 23.9438 12.3583C23.9243 12.1962 23.8229 11.8526 23.7463 11.6882C23.5867 11.3462 23.454 11.1966 22.3536 10.1183L21.2904 9.0765L21.6679 8.70931L22.0454 8.34213L22.7409 8.33548C23.4161 8.32905 23.4396 8.32727 23.5444 8.27425C23.6981 8.19642 23.841 8.05234 23.9036 7.91179C23.9333 7.84519 23.9671 7.77243 23.9788 7.75008C24.0087 7.69301 24.0063 7.4449 23.9761 7.46312C23.9629 7.47108 23.9521 7.45837 23.9521 7.43491C23.9521 7.31225 23.7323 7.04362 23.5571 6.95208C23.4626 6.90271 23.4385 6.90157 22.4891 6.90157H21.5177L21.3978 6.95885C21.3177 6.99713 21.1526 7.13611 20.9001 7.37798C20.6923 7.57703 20.5187 7.7355 20.5144 7.73019C20.5101 7.72486 20.2124 6.95187 19.8529 6.01243C19.4933 5.07299 19.1465 4.19757 19.0821 4.06706C18.7095 3.31116 17.9791 2.75947 17.0687 2.54641C16.8989 2.50668 16.619 2.5041 12.0681 2.50041C9.41673 2.49825 7.18265 2.50488 7.1035 2.51512ZM7.12142 4.01015C6.71655 4.12342 6.3785 4.39873 6.21421 4.74893C6.16334 4.8574 4.86942 8.20843 4.8432 8.29961C4.83203 8.33855 5.18356 8.34056 11.9842 8.34056C18.7848 8.34056 19.1364 8.33855 19.1252 8.29961C19.0662 8.09385 17.7443 4.71912 17.6856 4.62436C17.5214 4.35949 17.2445 4.14366 16.9248 4.03149L16.7689 3.97679L12.0202 3.97248C7.51813 3.96841 7.26359 3.97038 7.12142 4.01015ZM0 7.61521C0 7.69886 0.00436504 7.73309 0.00966545 7.69126C0.0149898 7.64942 0.0149898 7.581 0.00966545 7.53917C0.00436504 7.49733 0 7.53156 0 7.61521ZM3.29009 10.54L2.54688 11.2653H3.36434C4.27611 11.2653 4.37682 11.2779 4.70796 11.4325C4.93588 11.539 5.23073 11.8239 5.34753 12.0506C5.48021 12.3081 5.51743 12.4594 5.517 12.7394C5.51655 13.0297 5.46196 13.2123 5.26215 13.5925C5.05539 13.9858 4.82889 14.2931 4.53715 14.5762C4.22553 14.8785 3.99233 15.0461 3.61387 15.2398C3.04733 15.5298 2.46548 15.661 1.73537 15.6634L1.49977 15.6642L1.50752 16.138C1.51476 16.5792 1.51908 16.6188 1.57024 16.7122C1.642 16.8433 1.78974 16.9815 1.93038 17.0491L2.04293 17.1032H11.9842H21.9255L22.0381 17.0491C22.1733 16.9841 22.3298 16.8364 22.4011 16.7066C22.4486 16.62 22.4538 16.5711 22.4609 16.138L22.4686 15.6642L22.233 15.6634C21.5029 15.661 20.9211 15.5298 20.3545 15.2398C19.9761 15.0461 19.7429 14.8785 19.4312 14.5762C19.115 14.2693 18.8829 13.9442 18.6635 13.5007C18.4827 13.1351 18.4482 13.0083 18.4504 12.716C18.4534 12.3099 18.5927 11.9947 18.9007 11.6975C19.1188 11.487 19.3027 11.3861 19.606 11.3104C19.7669 11.2703 19.8757 11.2653 20.604 11.2653H21.4215L20.6783 10.54L19.9351 9.81465H11.9842H4.0333L3.29009 10.54ZM9.27403 11.3017C8.7332 11.415 8.27261 11.8496 8.13478 12.3768C8.09017 12.5474 8.08492 12.8976 8.12461 13.056C8.17934 13.2744 8.28885 13.4671 8.90207 14.4237C9.58906 15.4955 9.6247 15.5381 9.90329 15.6207C10.1805 15.7029 10.4284 15.6389 10.6437 15.4296C10.8579 15.2213 10.9196 14.8671 10.7859 14.6126C10.7559 14.5554 10.479 14.1162 10.1706 13.6365C9.86214 13.1569 9.6098 12.7588 9.6098 12.752C9.6098 12.7451 10.6783 12.7394 11.9842 12.7394C13.2901 12.7394 14.3586 12.7447 14.3586 12.7512C14.3586 12.7577 14.098 13.1696 13.7796 13.6665C13.4612 14.1633 13.1794 14.6239 13.1535 14.69C13.0587 14.9319 13.1455 15.2845 13.3411 15.4521C13.5039 15.5915 13.6557 15.65 13.8549 15.6498C14.0836 15.6497 14.2445 15.5845 14.3886 15.4335C14.4938 15.3234 15.5889 13.6354 15.7218 13.3786C15.8723 13.0877 15.917 12.6889 15.8342 12.3768C15.7261 11.9696 15.4309 11.6122 15.0541 11.4321C14.6928 11.2594 14.8154 11.266 11.9722 11.2676C9.89128 11.2688 9.40163 11.275 9.27403 11.3017ZM0.00431707 14.5411C0.00431707 15.6929 0.00673943 16.164 0.010313 15.5882C0.0138866 15.0123 0.0138866 14.0699 0.010313 13.494C0.00673943 12.9181 0.00431707 13.3893 0.00431707 14.5411ZM1.5033 13.4681V14.1968L1.88104 14.1837C2.1476 14.1744 2.31314 14.1566 2.44342 14.1231C2.83248 14.0231 3.22982 13.7937 3.50261 13.5116C3.6851 13.3228 3.76202 13.2164 3.91266 12.9442L4.02593 12.7394H2.76463H1.5033V13.4681ZM20.0557 12.9442C20.2064 13.2164 20.2833 13.3228 20.4658 13.5116C20.7386 13.7937 21.1359 14.0231 21.525 14.1231C21.6553 14.1566 21.8208 14.1744 22.0873 14.1837L22.4651 14.1968V13.4681V12.7394H21.2038H19.9425L20.0557 12.9442ZM2.99449 19.0394C3.0043 19.5513 3.02325 19.6211 3.20456 19.813C3.34636 19.9631 3.50683 20.0266 3.74578 20.0274C3.97315 20.0281 4.10556 19.9757 4.26205 19.823C4.45383 19.6359 4.46429 19.5982 4.47306 19.0628L4.48081 18.589H3.73336H2.98588L2.99449 19.0394ZM19.4953 19.0628C19.5041 19.5983 19.5178 19.6473 19.7093 19.8286C19.8658 19.9768 19.9983 20.0281 20.2226 20.0274C20.4616 20.0266 20.622 19.9631 20.7638 19.813C20.9451 19.6211 20.9641 19.5513 20.9739 19.0394L20.9825 18.589H20.235H19.4876L19.4953 19.0628Z" fill="#4E50D1"/>
</svg>
