<svg width="24" height="24" viewBox="0 0 24 24" fill="none" xmlns="http://www.w3.org/2000/svg">
<path fill-rule="evenodd" clip-rule="evenodd" d="M11.2626 0.0259204C7.82684 0.307392 4.85588 2.52562 3.59943 5.74754C3.28248 6.56028 3.0901 7.41912 3.01616 8.35154C2.98589 8.73314 3.00022 9.66214 3.04188 10.0195C3.28292 12.087 4.10117 13.8793 5.50714 15.4195C6.34575 16.3383 7.50778 17.1559 8.68258 17.654L8.98258 17.7812L8.99676 19.6004C9.00576 20.7532 9.02045 21.4646 9.03684 21.5425C9.21264 22.3776 9.66968 23.0585 10.3593 23.5126C11.3467 24.1628 12.6387 24.1604 13.6413 23.5064C13.9219 23.3234 14.3187 22.9262 14.5035 22.6435C14.7088 22.3294 14.8698 21.9346 14.9523 21.5425C14.9687 21.4646 14.9834 20.7532 14.9924 19.6004L15.0066 17.7812L15.3066 17.654C18.1616 16.4436 20.2735 13.8047 20.8374 10.7429C21.0211 9.7453 21.0419 8.67175 20.8969 7.66754C20.371 4.02492 17.6 1.04191 13.9759 0.217056C13.1514 0.0293764 12.1131 -0.0437516 11.2626 0.0259204ZM11.3706 1.52647C9.84843 1.66193 8.39165 2.25557 7.23058 3.21348C5.79552 4.39745 4.86608 6.04464 4.57512 7.91954C4.52804 8.223 4.52098 8.36275 4.52 9.01154C4.5188 9.80688 4.53533 9.99115 4.66503 10.6264C4.91799 11.8656 5.50071 13.0729 6.33137 14.0789C6.57821 14.3778 7.11046 14.9014 7.42258 15.1522C7.81208 15.4652 8.3318 15.8021 8.77025 16.0258C9.11556 16.202 9.65914 16.4395 9.71696 16.4395C9.72968 16.4395 9.73858 15.221 9.73858 13.479V10.5185L9.21658 10.5042C8.53752 10.4855 8.32222 10.4387 7.9188 10.222C7.34974 9.91637 6.93639 9.3684 6.79292 8.72945C6.70704 8.34706 6.7495 7.80974 6.89489 7.43873C7.01278 7.13796 7.15853 6.9145 7.39313 6.67495C7.67249 6.38971 8.04027 6.17434 8.43058 6.06746C8.7079 5.9915 9.28126 5.9915 9.55858 6.06746C10.1619 6.23268 10.6765 6.63653 10.9704 7.17554C11.182 7.56341 11.2285 7.78111 11.2438 8.45354L11.2562 8.99954H11.9946H12.7329L12.7453 8.45354C12.7581 7.8913 12.7773 7.75543 12.8849 7.46354C13.0835 6.92522 13.5018 6.47225 14.0363 6.21674C14.3757 6.05446 14.5637 6.01488 14.9946 6.01488C15.303 6.01488 15.3994 6.02386 15.5586 6.06746C15.9489 6.17434 16.3167 6.38971 16.596 6.67495C16.7737 6.85642 16.8418 6.94579 16.9533 7.14386C17.3673 7.87932 17.3366 8.78966 16.8743 9.48586C16.6603 9.80798 16.4037 10.043 16.0704 10.222C15.6669 10.4387 15.4516 10.4855 14.7726 10.5042L14.2506 10.5185V13.479C14.2506 15.221 14.2595 16.4395 14.2722 16.4395C14.33 16.4395 14.8736 16.202 15.2189 16.0258C16.6977 15.2714 17.9049 14.0474 18.6635 12.5336C18.9514 11.9589 19.1966 11.2512 19.3241 10.6264C19.4527 9.99643 19.4698 9.80659 19.469 9.01154C19.4682 8.19415 19.4375 7.89643 19.2907 7.28083C18.6313 4.5156 16.4783 2.36261 13.7133 1.70342C13.1577 1.57097 12.8112 1.53211 12.1146 1.52414C11.7648 1.52014 11.43 1.52119 11.3706 1.52647ZM8.77844 7.53396C8.66655 7.56799 8.57213 7.62766 8.47265 7.72711C8.10773 8.09203 8.21141 8.69134 8.67917 8.92106C8.81057 8.98558 8.82826 8.98778 9.278 8.99578L9.74141 9.00401L9.734 8.52778C9.72711 8.08584 9.72255 8.04338 9.67068 7.93805C9.59148 7.77725 9.42096 7.61786 9.26612 7.55993C9.13368 7.51039 8.89733 7.49779 8.77844 7.53396ZM14.7784 7.53396C14.5966 7.58928 14.409 7.75426 14.3181 7.93886C14.2667 8.04319 14.262 8.08685 14.2552 8.52778L14.2477 9.00401L14.7112 8.99578C15.1609 8.98778 15.1786 8.98558 15.31 8.92106C15.4843 8.83543 15.6223 8.68442 15.6895 8.5056C15.8716 8.02114 15.5074 7.50641 14.9877 7.51361C14.9057 7.51474 14.8115 7.5239 14.7784 7.53396ZM11.2506 13.4995V16.4875H11.9946H12.7386V13.4995V10.5115H11.9946H11.2506V13.4995ZM10.5066 18.7435V19.4875H11.9946H13.4826V18.7435V17.9995H11.9946H10.5066V18.7435ZM10.5136 21.1615C10.5624 21.727 10.9718 22.2388 11.5187 22.4179C11.6664 22.4663 11.7427 22.4755 11.9946 22.4755C12.2464 22.4755 12.3228 22.4663 12.4705 22.4179C13.0129 22.2402 13.429 21.7217 13.4756 21.1654L13.4895 20.9995H11.9946H10.4996L10.5136 21.1615Z" fill="#4E50D1"/>
</svg>
