<svg width="24" height="24" viewBox="0 0 24 24" fill="none" xmlns="http://www.w3.org/2000/svg">
<path d="M12.25 6.5C14.0449 6.5 15.5 5.04493 15.5 3.25C15.5 1.45507 14.0449 0 12.25 0C10.4551 0 9 1.45507 9 3.25C9 5.04493 10.4551 6.5 12.25 6.5Z" fill="#4E50D1"/>
<path d="M12.25 15.25C14.0449 15.25 15.5 13.7949 15.5 12C15.5 10.2051 14.0449 8.75 12.25 8.75C10.4551 8.75 9 10.2051 9 12C9 13.7949 10.4551 15.25 12.25 15.25Z" fill="#4E50D1"/>
<path d="M15.5 20.75C15.5 22.5449 14.0449 24 12.25 24C10.4551 24 9 22.5449 9 20.75C9 18.9551 10.4551 17.5 12.25 17.5C14.0449 17.5 15.5 18.9551 15.5 20.75Z" fill="#4E50D1"/>
</svg>
