<svg width="24" height="24" viewBox="0 0 24 24" fill="none" xmlns="http://www.w3.org/2000/svg">
<path d="M0.173478 17.4535C0.0698633 17.5775 0.00933089 17.7318 0.000993586 17.8932C-0.00734372 18.0545 0.0369653 18.2142 0.12725 18.3482L1.63039 20.6119C1.71924 20.7442 1.84812 20.8445 1.99813 20.8981C2.14814 20.9518 2.3114 20.956 2.46398 20.9102V20.9102L5.82965 19.9036C5.90603 19.8802 5.9879 19.8821 6.06312 19.909C6.13834 19.9358 6.20289 19.9862 6.24719 20.0527L7.14192 21.4097C7.71344 22.2848 8.58543 22.9205 9.5934 23.1969C10.6014 23.4733 11.6756 23.3713 12.6136 22.9101C13.5515 22.4489 14.2883 21.6605 14.6849 20.6935C15.0815 19.7265 15.1105 18.6477 14.7665 17.6608C14.7495 17.6113 14.7432 17.5588 14.7479 17.5067C14.7526 17.4546 14.7683 17.404 14.794 17.3584C14.8196 17.3128 14.8546 17.2731 14.8966 17.242C14.9386 17.2108 14.9868 17.1889 15.0379 17.1776L21.4412 15.7401C21.514 15.7225 21.5904 15.7274 21.6603 15.754C21.7303 15.7806 21.7906 15.8277 21.8334 15.8892L21.9497 16.0637C22.0521 16.2174 22.1909 16.3434 22.3538 16.4306C22.5166 16.5177 22.6985 16.5633 22.8832 16.5633C23.1029 16.5637 23.3178 16.4988 23.5005 16.3769C23.7475 16.2125 23.9191 15.9569 23.9778 15.6662C24.0365 15.3754 23.9775 15.0733 23.8137 14.826L14.3012 0.499909C14.1371 0.252724 13.8815 0.0808655 13.5907 0.0221375C13.2998 -0.0365904 12.9976 0.0226234 12.7504 0.186754C12.5032 0.350884 12.3313 0.606485 12.2726 0.897328C12.2139 1.18817 12.2731 1.49043 12.4372 1.73762L12.5431 1.89568C12.5886 1.96252 12.611 2.04238 12.607 2.12312C12.6029 2.20386 12.5726 2.28108 12.5207 2.34305L0.173478 17.4535ZM11.8586 20.7446C11.4056 21.0454 10.8516 21.1539 10.3186 21.0462C9.78558 20.9385 9.31716 20.6235 9.01637 20.1705L8.61673 19.574C8.58478 19.5254 8.56461 19.4699 8.55783 19.4121C8.55106 19.3543 8.55785 19.2957 8.57769 19.241C8.59752 19.1863 8.62984 19.1369 8.67208 19.0969C8.71433 19.0569 8.76532 19.0272 8.82103 19.0103L12.1509 18.0112C12.2379 17.9857 12.3313 17.9927 12.4135 18.0308C12.4958 18.0689 12.5615 18.1356 12.5983 18.2185C12.791 18.6594 12.8225 19.1541 12.6873 19.6159C12.5521 20.0777 12.2587 20.4773 11.8586 20.7446Z" fill="#4E50D1"/>
</svg>
