<svg width="24" height="24" viewBox="0 0 24 24" fill="none" xmlns="http://www.w3.org/2000/svg">
<path fill-rule="evenodd" clip-rule="evenodd" d="M8.78563 0.0491712C8.66196 0.0953311 8.46826 0.282713 5.921 2.82016C2.86935 5.86005 3.05802 5.65059 3.05802 5.99865C3.05802 6.33661 3.00641 6.27441 4.6065 7.86568C6.19171 9.44212 6.09944 9.36693 6.44635 9.36546C6.71062 9.36435 6.80617 9.30973 7.17679 8.94781L7.48518 8.64665L8.40671 9.56564L9.32825 10.4846L9.33334 10.8197C9.33789 11.1208 9.35369 11.2504 9.45486 11.8166C9.46641 11.8811 9.21408 12.1382 5.52419 15.8216C3.00817 18.3332 1.54093 19.8151 1.46998 19.9164C0.914538 20.7092 0.846313 21.7392 1.29258 22.5948C1.93444 23.8253 3.43739 24.3429 4.68131 23.7618C5.12109 23.5563 4.99807 23.6725 8.97883 19.7059L12.7292 15.9689L13.0392 16.2789C13.4279 16.6674 13.4916 16.7028 13.8018 16.7025C14.0645 16.7023 14.1082 16.6853 14.3565 16.4876C14.7927 16.1404 15.2214 15.9303 15.7311 15.8142C16.4485 15.6509 17.3228 15.7716 17.9498 16.1205C18.3341 16.3343 18.4153 16.4061 19.5785 17.5601C20.8046 18.7766 20.8162 18.7864 21.0748 18.8205C21.3812 18.8609 21.6174 18.7321 21.9403 18.3483C22.4951 17.6887 22.846 16.9143 22.9693 16.0773C23.0103 15.7988 23.0103 15.1051 22.9693 14.8265C22.8549 14.0499 22.5572 13.3531 22.0544 12.6857C21.9241 12.5127 16.9317 7.51678 16.6692 7.29673C15.884 6.63844 14.9081 6.27876 13.8749 6.26685L13.5608 6.26325L12.6393 5.34409L11.7178 4.42493L12.0249 4.113C12.3929 3.73912 12.4384 3.6583 12.4389 3.37675C12.4395 3.03924 12.491 3.1014 10.8907 1.50938C9.55185 0.177548 9.46518 0.0962211 9.33336 0.0480888C9.15668 -0.0164004 8.96026 -0.0160155 8.78563 0.0491712ZM6.97074 3.9121L4.8787 5.99884L5.65659 6.77444L6.43449 7.55005L8.52652 5.4633L10.6186 3.37656L9.84067 2.60095L9.06277 1.82535L6.97074 3.9121ZM9.59357 6.53982L8.55681 7.57412L9.15774 8.17387L9.7587 8.77363L9.89826 8.5327C10.126 8.13949 10.2984 7.91745 10.6426 7.5742C10.9867 7.23094 11.2093 7.05896 11.6036 6.83179L11.8451 6.69259L11.2497 6.09905C10.9222 5.77264 10.6489 5.50554 10.6423 5.50554C10.6357 5.50554 10.1638 5.97096 9.59357 6.53982ZM13.3218 7.8054C13.2104 7.82402 13.0055 7.87721 12.8667 7.92353C12.38 8.086 12.0175 8.31677 11.6552 8.69497C11.3381 9.02594 11.1393 9.35521 10.993 9.7917C10.7462 10.5283 10.8008 11.3159 11.1482 12.0272C11.3438 12.4277 11.4175 12.512 12.6718 13.7681C13.84 14.938 13.8743 14.9699 13.9277 14.936C14.3141 14.6912 14.8813 14.4608 15.3814 14.3457C16.0296 14.1965 16.8537 14.2003 17.519 14.3556C18.1538 14.5037 18.8191 14.8265 19.3727 15.2548C19.4589 15.3215 19.8837 15.7273 20.3167 16.1566L21.1039 16.9372L21.2003 16.735C21.4223 16.2688 21.5066 15.8606 21.4874 15.3437C21.4655 14.7517 21.3235 14.3085 20.9943 13.8042C20.8806 13.63 20.48 13.2191 18.2899 11.0303C16.5051 9.24656 15.6631 8.42133 15.5362 8.33142C14.8831 7.86905 14.081 7.67849 13.3218 7.8054ZM6.41387 17.0621C2.12718 21.3581 2.52746 20.9108 2.52746 21.4053C2.52746 21.6667 2.53173 21.6909 2.60465 21.8445C2.69155 22.0275 2.8846 22.2454 3.04046 22.3365C3.3641 22.5257 3.76952 22.5355 4.11913 22.3626C4.18268 22.3312 5.48498 21.0496 7.9349 18.6075L11.6542 14.9001L11.0203 14.262C10.6717 13.911 10.3349 13.5562 10.2719 13.4735C10.2089 13.3908 10.1546 13.3231 10.151 13.3231C10.1475 13.3231 8.4658 15.0057 6.41387 17.0621Z" fill="#4E50D1"/>
</svg>
