<svg width="24" height="24" viewBox="0 0 24 24" fill="none" xmlns="http://www.w3.org/2000/svg">
<g clip-path="url(#clip0_8366_23563)">
<path fill-rule="evenodd" clip-rule="evenodd" d="M1.93393 0.00673372C0.994859 0.157133 0.277429 0.807976 0.0457658 1.71966C0.00165766 1.89326 0 2.04704 0 5.99347C0 9.94217 0.00163363 10.0936 0.0458378 10.2673C0.254799 11.0883 0.853766 11.6973 1.68168 11.9304C1.8202 11.9694 1.95046 11.9798 2.42042 11.9894L2.99099 12.001V13.9431C2.99099 15.7903 2.9932 15.891 3.03647 16.0047C3.13268 16.2578 3.3532 16.4419 3.60894 16.4828C3.76692 16.508 3.95704 16.4846 4.07577 16.4254C4.18758 16.3696 7.35431 13.208 7.41489 13.0918C7.48154 12.9638 7.50683 12.7791 7.48038 12.6136C7.43841 12.3512 7.23563 12.1172 6.97533 12.0308C6.82498 11.9809 6.5736 11.9922 6.43844 12.0549C6.37511 12.0843 6.02945 12.4108 5.42467 13.0125L4.50698 13.9255L4.49975 12.4986L4.49249 11.0716L4.43731 10.9516C4.36504 10.7943 4.19109 10.6198 4.03825 10.5511C3.9193 10.4977 3.88997 10.4958 2.97898 10.4838C2.08077 10.4719 2.03736 10.4692 1.92865 10.419C1.77112 10.3463 1.61122 10.1744 1.55073 10.0128C1.501 9.87999 1.50095 9.87461 1.50722 5.94979L1.51351 2.01979L1.56855 1.91676C1.63889 1.78514 1.78323 1.64089 1.91493 1.57059L2.01802 1.51558L7.45201 1.50936L12.886 1.50317L13.0205 1.55347C13.1998 1.62053 13.3724 1.79282 13.4394 1.97175C13.4883 2.10246 13.4895 2.1428 13.4895 3.67299C13.4895 4.68225 13.4986 5.28976 13.5151 5.37912C13.6037 5.85793 14.127 6.13133 14.5586 5.92427C14.736 5.83911 14.8609 5.71185 14.9427 5.53291L15.005 5.39646L14.9967 3.6241C14.9887 1.92195 14.9864 1.84507 14.9392 1.68365C14.6974 0.857749 14.1401 0.300474 13.3093 0.0540097C13.1413 0.00416464 13.1358 0.00409261 7.56757 0.000611136C4.5021 -0.00130967 1.96697 0.00145149 1.93393 0.00673372ZM5.62546 3.01578C4.73396 3.17746 4.02515 3.83733 3.80163 4.7137C3.74823 4.92317 3.74775 4.94043 3.74775 6.67776V8.4305L3.81453 8.56642C3.88793 8.71579 4.01425 8.84299 4.17309 8.92751C4.32243 9.00693 4.66256 9.00693 4.81189 8.92751C4.97074 8.84299 5.09706 8.71579 5.17045 8.56642C5.23529 8.43444 5.23748 8.41708 5.24545 7.9683L5.25367 7.50611H5.99399H6.73432L6.74253 7.9683C6.75051 8.41708 6.7527 8.43444 6.81754 8.56642C6.89093 8.71579 7.01725 8.84299 7.1761 8.92751C7.32543 9.00693 7.66556 9.00693 7.81489 8.92751C7.97374 8.84299 8.10006 8.71579 8.17345 8.56642L8.24024 8.4305V6.67776C8.24024 4.94043 8.23976 4.92317 8.18635 4.7137C8.08343 4.31024 7.87443 3.9419 7.58751 3.65843C7.3857 3.45905 7.23844 3.35216 6.99776 3.23033C6.68637 3.07273 6.44134 3.01299 6.06607 3.00317C5.88769 2.99849 5.68942 3.00418 5.62546 3.01578ZM5.71534 4.55444C5.56749 4.61128 5.39409 4.77551 5.31721 4.93152C5.26537 5.03671 5.26068 5.07993 5.25345 5.51927L5.24564 5.99347H5.99399H6.74234L6.73453 5.51927C6.72557 4.97467 6.70686 4.90867 6.50506 4.70981C6.30546 4.51317 5.98611 4.45034 5.71534 4.55444ZM11.0118 7.50764C10.0789 7.60791 9.30645 8.27364 9.06335 9.18682L9.00901 9.3909V13.4966V17.6024L9.06138 17.7984C9.28322 18.6287 9.9341 19.2575 10.7748 19.4537C10.9381 19.4918 11.1648 19.4966 13.2012 19.5044L15.4474 19.5131L17.6456 21.7063C19.7418 23.7976 19.8503 23.9017 19.9829 23.9502C20.3704 24.0919 20.7719 23.9232 20.9473 23.5449L21.0085 23.4128L21.0088 21.4655L21.009 19.5182L21.5315 19.5038C21.8708 19.4944 22.1172 19.4757 22.2342 19.4505C23.0581 19.2729 23.7256 18.6294 23.9476 17.7984L24 17.6024V13.4966V9.3909L23.9476 9.19486C23.7258 8.36473 23.079 7.73956 22.2342 7.53878C22.0644 7.49842 21.7428 7.49573 16.6246 7.49194C13.6384 7.48973 11.1127 7.49679 11.0118 7.50764ZM11.0807 9.02074C10.9307 9.05627 10.8113 9.12989 10.6962 9.25779C10.4947 9.48173 10.5105 9.12194 10.5105 13.4966C10.5105 17.0085 10.5143 17.4008 10.5491 17.5029C10.6016 17.6569 10.7895 17.8575 10.9485 17.9293L11.0751 17.9865L13.5135 17.9985L15.9519 18.0105L16.0721 18.0657C16.1698 18.1105 16.5003 18.4284 17.8438 19.77L19.4955 21.4192V20.0854C19.4955 19.2419 19.5049 18.7007 19.5212 18.6129C19.5661 18.37 19.7356 18.1572 19.9679 18.0522C20.0487 18.0157 20.1758 18.0091 20.997 17.9985C21.9199 17.9867 21.9358 17.9857 22.0605 17.9293C22.2195 17.8575 22.4074 17.6569 22.4599 17.5029C22.4947 17.4008 22.4985 17.0085 22.4985 13.4966C22.4985 9.98479 22.4947 9.59247 22.4599 9.49038C22.4074 9.33635 22.2195 9.13575 22.0605 9.06393L21.9339 9.00674L16.5526 9.00302C13.4653 9.00088 11.1326 9.00842 11.0807 9.02074ZM16.3002 9.77C16.0589 9.8384 15.8273 10.0781 15.7735 10.3153C15.76 10.3747 15.7487 10.6093 15.7483 10.8367L15.7477 11.25L14.5045 11.2569L13.2613 11.2637L13.1532 11.3278C12.8906 11.4833 12.7599 11.7048 12.7587 11.996C12.7577 12.2337 12.8248 12.3867 12.9999 12.5467C13.2211 12.7488 13.1218 12.7396 15.1051 12.7411C16.2507 12.742 16.8529 12.7507 16.8529 12.7664C16.8529 12.7951 16.5742 13.3088 16.4381 13.531C15.8781 14.4455 15.2403 15.1195 14.6252 15.447C14.3585 15.589 14.0426 15.6884 13.7634 15.7181C13.2789 15.7697 13.2272 15.7815 13.0907 15.8721C12.6413 16.1703 12.6397 16.8245 13.0876 17.1217C13.2729 17.2446 13.4244 17.2681 13.8105 17.234C14.7151 17.154 15.5847 16.7499 16.3152 16.0701L16.4862 15.911L16.5314 15.9611C16.6219 16.0615 16.9475 16.3198 17.1796 16.4753C17.8088 16.8969 18.5377 17.1571 19.3033 17.2335C19.6463 17.2678 19.7893 17.2352 19.9795 17.0795C20.3058 16.8125 20.3522 16.3468 20.0852 16.0209C19.9409 15.8448 19.7855 15.7749 19.4414 15.7309C19.2862 15.7111 19.0916 15.6778 19.009 15.657C18.5076 15.5304 17.9901 15.2503 17.6272 14.9093L17.4525 14.7452L17.5931 14.5291C17.88 14.0881 18.1874 13.5136 18.4442 12.9384L18.5327 12.7403H19.0939C19.75 12.7403 19.8114 12.7273 20.0097 12.5462C20.1826 12.3883 20.2494 12.2349 20.2494 11.996C20.2494 11.7568 20.1826 11.6038 20.0091 11.4453C19.7938 11.2486 19.8209 11.252 18.4586 11.2503L17.2656 11.2488L17.2574 10.776C17.2497 10.3317 17.2457 10.2961 17.1904 10.1839C17.1167 10.034 16.9686 9.88455 16.8254 9.81521C16.6887 9.74911 16.4472 9.72832 16.3002 9.77Z" fill="#4E50D1"/>
</g>
<defs>
<clipPath id="clip0_8366_23563">
<rect width="24" height="24" fill="white"/>
</clipPath>
</defs>
</svg>
