<svg width="24" height="24" viewBox="0 0 24 24" fill="none" xmlns="http://www.w3.org/2000/svg">
<g clip-path="url(#clip0_8366_23732)">
<path fill-rule="evenodd" clip-rule="evenodd" d="M1.35187 0.0356603C0.841725 0.147548 0.369549 0.540956 0.141381 1.04421C-0.0088346 1.37548 0.0007894 0.848637 0.0007894 8.74636C0.0007894 16.8153 -0.0148106 16.1327 0.178557 16.5245C0.402141 16.9776 0.807357 17.3088 1.31525 17.4537L1.49995 17.5064L8.56795 17.5132C13.1549 17.5176 15.721 17.5115 15.8782 17.496C16.3512 17.4491 16.6957 17.286 17.0075 16.9613C17.3119 16.6443 17.4523 16.3336 17.4976 15.8766C17.5131 15.7194 17.5192 13.1533 17.5147 8.56636L17.5079 1.49836L17.4553 1.31366C17.3104 0.805772 16.9792 0.400556 16.5261 0.176972C16.1341 -0.0164917 16.8193 -0.0010357 8.73595 0.0011963C2.74716 0.0028523 1.47444 0.0087803 1.35187 0.0356603ZM1.5858 1.58421L1.51195 1.65806V8.75006V15.8421L1.5821 15.9122L1.65225 15.9824H8.74795H15.8436L15.9138 15.9122L15.9839 15.8421V8.74636V1.65067L15.9138 1.58052L15.8436 1.51036H8.75165H1.65965L1.5858 1.58421ZM19.3855 6.50325C18.9466 6.5771 18.6518 7.03128 18.7726 7.44758C18.8276 7.63684 18.985 7.83184 19.1527 7.91829C19.3221 8.00563 19.4842 8.01436 20.9342 8.01436H22.3476L22.4178 8.08452L22.4879 8.15467V15.2467V22.3387L22.4141 22.4125L22.3403 22.4864H15.2483H8.15625L8.0861 22.4162L8.01595 22.3461V20.9326C8.01595 20.0143 8.00678 19.4696 7.98977 19.3775C7.95801 19.2057 7.90236 19.093 7.79606 18.985C7.47883 18.6627 7.03272 18.6609 6.71789 18.9804C6.4848 19.217 6.49473 19.1415 6.48547 20.7455C6.47657 22.2842 6.48929 22.525 6.59589 22.8343C6.78206 23.3744 7.31311 23.8484 7.85995 23.9625C8.11565 24.0158 22.3764 24.0161 22.63 23.9628C23.1535 23.8526 23.6262 23.4648 23.8568 22.9563C24.0101 22.6183 24 23.1639 23.9995 15.2428C23.9991 7.1807 24.0148 7.86417 23.8208 7.47117C23.5535 6.9294 23.0278 6.56764 22.414 6.50301C22.1478 6.47496 19.5524 6.4752 19.3855 6.50325Z" fill="#4E50D1"/>
</g>
<defs>
<clipPath id="clip0_8366_23732">
<rect width="24" height="24" fill="white"/>
</clipPath>
</defs>
</svg>
