<svg width="24" height="24" viewBox="0 0 24 24" fill="none" xmlns="http://www.w3.org/2000/svg">
<path fill-rule="evenodd" clip-rule="evenodd" d="M14.9651 0.0331412C14.2613 0.164984 13.6789 0.615208 13.3478 1.28345C13.2389 1.5033 13.203 1.63105 13.0936 2.18729C13.0374 2.47277 12.9868 2.71115 12.981 2.71703C12.9753 2.72289 12.8953 2.71532 12.8034 2.70022C12.7102 2.68491 12.3545 2.67261 12 2.67242C11.4608 2.67212 11.3112 2.68035 11.0191 2.72633C8.9534 3.05142 7.20209 4.26068 6.15474 6.0851C5.73629 6.81402 5.43373 7.69387 5.31945 8.51419L5.28714 8.74605L4.42405 8.75825C3.5873 8.77009 3.55729 8.77217 3.44092 8.82657C2.89671 9.08098 2.84478 9.84168 3.3493 10.1683C3.52348 10.2811 3.66338 10.2959 4.55576 10.2959H5.36166L6.43749 16.8673C7.43096 22.9355 7.51881 23.4503 7.58507 23.5906C7.65787 23.7447 7.77328 23.8621 7.94254 23.9542C8.02381 23.9985 8.16942 24 12.3721 24H16.7177L16.8191 23.9449C17.0431 23.8233 17.1872 23.6381 17.2326 23.4137C17.2461 23.3469 17.5708 20.4147 17.9542 16.8978C18.3376 13.3808 18.6577 10.4566 18.6655 10.3996L18.6799 10.2959H19.465C20.3355 10.2959 20.4772 10.2806 20.6507 10.1683C21.1552 9.84168 21.1033 9.08098 20.5591 8.82657C20.4427 8.77217 20.4127 8.77009 19.5759 8.75825L18.7129 8.74605L18.6805 8.51419C18.3633 6.23732 16.852 4.20713 14.7669 3.257C14.6314 3.1953 14.5105 3.1448 14.4982 3.1448C14.4858 3.1448 14.4697 3.13487 14.4623 3.12276C14.4405 3.08688 14.6617 2.02662 14.7113 1.9288C14.8247 1.70568 15.0677 1.55117 15.3252 1.53855C15.4837 1.53076 15.6035 1.56234 17.438 2.0955C19.3001 2.63669 19.3898 2.66024 19.5507 2.65033C19.8285 2.63324 20.0564 2.47785 20.1801 2.22129C20.2363 2.10487 20.2467 2.0524 20.2463 1.88788C20.2459 1.71769 20.2367 1.67559 20.1744 1.55995C20.0872 1.39809 19.975 1.28375 19.8368 1.2157C19.7093 1.15298 15.9202 0.0553021 15.7133 0.0211821C15.5166 -0.0112783 15.1728 -0.00576247 14.9651 0.0331412ZM11.4958 4.20923C10.7525 4.30095 10.16 4.483 9.55582 4.80533C8.4134 5.41483 7.52061 6.45137 7.07612 7.68438C6.9717 7.97398 6.85442 8.4184 6.82652 8.63012L6.80962 8.75825H9.32078C10.7019 8.75825 11.8319 8.75396 11.8319 8.74874C11.8319 8.74349 12.026 7.73048 12.2633 6.49762C12.5257 5.1334 12.6859 4.24721 12.6725 4.23357C12.6501 4.21082 11.6505 4.19015 11.4958 4.20923ZM14.1497 4.68728C14.1439 4.70473 13.971 5.59764 13.7654 6.67151C13.5599 7.74539 13.3856 8.65423 13.3782 8.69114L13.3647 8.75825H15.2753C17.0071 8.75825 17.1859 8.75462 17.1859 8.71937C17.1859 8.69799 17.1638 8.56893 17.1368 8.4326C17.0333 7.9096 16.7566 7.20447 16.4626 6.71491C16.0969 6.10582 15.4971 5.47892 14.892 5.07336C14.5658 4.85476 14.1635 4.64552 14.1497 4.68728ZM6.89485 10.3386C6.90143 10.362 7.07139 11.389 7.27255 12.6206L7.63833 14.8598H9.14432H10.6503L10.6634 14.8049C10.6935 14.679 11.5198 10.361 11.5198 10.3298C11.5198 10.301 11.1669 10.2959 9.20138 10.2959C7.00479 10.2959 6.88354 10.2981 6.89485 10.3386ZM12.6381 12.5351C12.4016 13.7667 12.2033 14.7936 12.1973 14.8171C12.1871 14.8576 12.3047 14.8598 14.421 14.8598H16.6555L16.6686 14.7805C16.6758 14.7369 16.7844 13.7512 16.91 12.59C17.0355 11.4289 17.1445 10.4377 17.1522 10.3874L17.1661 10.2959H15.1171H13.0682L12.6381 12.5351ZM7.90112 16.4645C7.90806 16.5015 8.13266 17.8688 8.40026 19.5031L8.8868 22.4746H12.3583H15.8298L16.1512 19.5275C16.3279 17.9066 16.4779 16.5393 16.4843 16.489L16.4959 16.3974H12.1922H7.88852L7.90112 16.4645Z" fill="#4E50D1"/>
</svg>
