<svg width="24" height="24" viewBox="0 0 24 24" fill="none" xmlns="http://www.w3.org/2000/svg">
<path fill-rule="evenodd" clip-rule="evenodd" d="M9.99953 2.50644C9.7934 2.54491 9.48956 2.67704 8.46745 3.17269C7.24239 3.76676 7.12504 3.83781 6.8858 4.13015C6.73908 4.30944 6.57766 4.61643 6.51848 4.82869C6.41823 5.1884 6.44748 5.68491 6.58911 6.0275C6.77755 6.48323 6.93311 6.63668 8.02079 7.43955C8.50862 7.79965 8.90838 8.09991 8.90917 8.10681C8.90998 8.11374 8.20692 8.46568 7.34687 8.88894L5.78313 9.65851L4.93479 9.02966C4.4682 8.68378 4.04086 8.37739 3.98515 8.34876C3.85866 8.2838 3.56493 8.26072 3.42517 8.30478C3.30483 8.3427 1.25855 9.21946 1.04973 9.32252C0.729305 9.48073 0.45158 9.73995 0.260057 10.0596C0.0603034 10.3929 -0.017643 10.7148 0.00329971 11.1198C0.0260657 11.5604 0.193861 11.9624 0.486223 12.277C0.627706 12.4292 4.83486 15.9414 5.11 16.1369C5.6296 16.5063 6.23352 16.6909 6.9227 16.6911C7.61523 16.6912 7.77434 16.6358 9.524 15.7841L10.9604 15.0849L10.9684 17.5146C10.9773 20.2362 10.9638 20.0372 11.1665 20.4412C11.5898 21.2848 12.6022 21.7015 13.5073 21.4046C13.7561 21.3231 15.8448 20.3024 16.0396 20.1672C16.3289 19.9664 16.5839 19.6336 16.7091 19.2931C16.7475 19.1887 17.2043 17.3592 17.7243 15.2276L18.6696 11.352L20.4059 10.51C21.4647 9.99659 22.2361 9.60715 22.3828 9.512C22.6923 9.31127 23.1553 8.86316 23.362 8.56431C23.6716 8.11661 23.8836 7.59597 23.9663 7.07996C24.0203 6.74366 24.0075 6.0941 23.9413 5.80589C23.7761 5.08714 23.4441 4.49085 22.9281 3.98657C22.4332 3.50277 21.9041 3.20676 21.2265 3.03467C20.8418 2.93693 20.3643 2.89829 20.0064 2.93587C19.2891 3.01122 19.1709 3.05704 17.2511 4.00322C16.3437 4.45043 15.5888 4.81632 15.5735 4.81632C15.5581 4.81632 14.5558 4.32638 13.3461 3.72757C12.1364 3.12876 11.0623 2.60978 10.9592 2.57433C10.7982 2.51889 10.7222 2.50877 10.4174 2.50224C10.2224 2.49803 10.0344 2.49994 9.99953 2.50644ZM9.25248 4.52088C8.68143 4.79559 8.19309 5.03843 8.16731 5.06052C8.09098 5.12591 8.04961 5.22694 8.04961 5.34794C8.04961 5.44522 8.0632 5.47547 8.14457 5.55939C8.19681 5.61324 8.74664 6.03455 9.36644 6.49564L10.4933 7.33396L12.1267 6.53025C13.0251 6.08821 13.7682 5.7192 13.7782 5.71022C13.8053 5.68571 10.482 4.04525 10.3794 4.03248C10.3039 4.02308 10.1369 4.09549 9.25248 4.52088ZM19.9138 4.51096C19.8163 4.53127 19.6681 4.57459 19.5846 4.6072C19.501 4.63981 16.5324 6.09888 12.9877 7.84957C9.44304 9.60025 6.4004 11.1005 6.2263 11.1834C5.91965 11.3294 5.90337 11.3341 5.70617 11.3346C5.53564 11.335 5.48221 11.3247 5.37697 11.271C5.30786 11.2357 4.86958 10.9251 4.40299 10.5808C3.9364 10.2365 3.54325 9.95483 3.52932 9.95486C3.51539 9.95491 3.11085 10.1239 2.63033 10.3305C1.61986 10.7648 1.59206 10.7832 1.59206 11.015C1.59206 11.1465 1.59793 11.1591 1.71235 11.274C1.77852 11.3404 2.77847 12.1806 3.9345 13.1411C5.74327 14.644 6.06463 14.9013 6.23896 14.9863C6.59491 15.1597 6.9817 15.1925 7.3532 15.0805C7.43677 15.0553 8.39654 14.6011 9.48599 14.0712C10.8504 13.4076 11.5114 13.0987 11.6099 13.0788C11.7924 13.0417 11.9334 13.063 12.1244 13.1562C12.2991 13.2415 12.3861 13.3319 12.479 13.5245L12.5446 13.6606L12.5572 16.7116L12.5699 19.7626L12.6628 19.8458C12.8382 20.0029 12.8694 19.9974 13.503 19.6983C14.5314 19.2129 15.1229 18.909 15.1739 18.8398C15.2064 18.7957 15.5491 17.435 16.2205 14.6836C16.9411 11.7306 17.2376 10.556 17.2866 10.4604C17.3239 10.3874 17.4004 10.2892 17.4566 10.242C17.5184 10.1901 18.3377 9.7778 19.5339 9.19655C21.2994 8.33872 21.5283 8.22084 21.6894 8.08667C22.0159 7.81479 22.2402 7.45788 22.3611 7.01811C22.4357 6.74657 22.4411 6.29711 22.3728 6.05328C22.2626 5.66018 22.0563 5.30947 21.7787 5.04323C21.3099 4.59374 20.553 4.37772 19.9138 4.51096Z" fill="#4E50D1"/>
</svg>
