<svg width="24" height="24" viewBox="0 0 24 24" fill="none" xmlns="http://www.w3.org/2000/svg">
<g clip-path="url(#clip0_8366_23428)">
<path fill-rule="evenodd" clip-rule="evenodd" d="M11.04 0.0367778C8.65562 0.238642 6.43677 1.10533 4.59601 2.5538C0.0977912 6.09347 -1.29046 12.2981 1.27672 17.3889C3.32661 21.4538 7.45737 24.0009 12 24.0009C13.8891 24.0009 15.7033 23.5708 17.388 22.7237C19.5077 21.6578 21.268 19.9844 22.4446 17.9169C23.3045 16.4059 23.867 14.5496 23.9666 12.8942C23.9756 12.7453 23.9922 12.6177 24.0035 12.6107C24.0148 12.6038 24.0238 12.3152 24.0237 11.9695C24.0234 11.6237 24.0143 11.3551 24.0033 11.3724C23.9915 11.391 23.9765 11.2872 23.967 11.1204C23.8722 9.46955 23.3071 7.6005 22.4446 6.08487C20.5886 2.82354 17.3172 0.60757 13.62 0.107458C12.8491 0.00317782 11.7821 -0.0260542 11.04 0.0367778ZM11.256 1.52792C9.79715 1.65774 8.65357 1.96436 7.42792 2.5544C5.3217 3.56833 3.56747 5.32256 2.55354 7.42878C2.02799 8.52049 1.71853 9.58583 1.56707 10.8249C1.50642 11.321 1.50642 12.6807 1.56707 13.1769C1.81273 15.1866 2.56156 16.9974 3.77582 18.518C5.39994 20.552 7.65806 21.8961 10.2 22.342C10.8418 22.4546 11.1335 22.4764 12 22.4764C12.8665 22.4764 13.1583 22.4546 13.8 22.342C16.0608 21.9454 18.1504 20.8095 19.688 19.1413C21.2366 17.4612 22.1481 15.4803 22.4325 13.1769C22.4939 12.6797 22.4939 11.322 22.4325 10.8249C22.1839 8.81113 21.4316 6.99068 20.2258 5.48487C18.4577 3.2768 16.0294 1.92404 13.2 1.57091C12.9133 1.53512 11.5211 1.50435 11.256 1.52792ZM11.8256 6.76959C11.678 6.80667 11.5602 6.87798 11.4511 6.9963C11.2554 7.2086 11.2695 7.04523 11.256 9.26487L11.244 11.2449L9.26402 11.2569C7.03574 11.2704 7.20647 11.2551 6.98711 11.4603C6.82525 11.6117 6.75887 11.7689 6.75887 12.0009C6.75887 12.2328 6.82525 12.3901 6.98711 12.5414C7.20647 12.7466 7.03574 12.7314 9.26402 12.7449L11.244 12.7569L11.256 14.7369C11.2695 16.9652 11.2543 16.7944 11.4594 17.0138C11.6108 17.1756 11.7681 17.242 12 17.242C12.232 17.242 12.3892 17.1756 12.5406 17.0138C12.7458 16.7944 12.7305 16.9652 12.744 14.7369L12.756 12.7569L14.736 12.7449C16.9643 12.7314 16.7936 12.7466 17.0129 12.5414C17.1748 12.3901 17.2412 12.2328 17.2412 12.0009C17.2412 11.7689 17.1748 11.6117 17.0129 11.4603C16.7936 11.2551 16.9643 11.2704 14.736 11.2569L12.756 11.2449L12.744 9.26487C12.7305 7.03659 12.7458 7.20733 12.5406 6.98797C12.4777 6.92072 12.3795 6.84819 12.3121 6.81918C12.1739 6.75975 11.9541 6.73734 11.8256 6.76959ZM0.010503 12.0009C0.010503 12.3507 0.013863 12.4938 0.017943 12.3189C0.022047 12.144 0.022047 11.8578 0.017943 11.6829C0.013863 11.508 0.010503 11.6511 0.010503 12.0009Z" fill="#4E50D1"/>
</g>
<defs>
<clipPath id="clip0_8366_23428">
<rect width="24" height="24" fill="white"/>
</clipPath>
</defs>
</svg>
