<svg width="24" height="24" viewBox="0 0 24 24" fill="none" xmlns="http://www.w3.org/2000/svg">
<path fill-rule="evenodd" clip-rule="evenodd" d="M1.81649 3.04978C1.45396 3.12929 1.23982 3.22969 0.928692 3.46611C0.469669 3.81492 0.157539 4.3813 0.0392779 5.07996C0.00445456 5.28563 -0.000125386 6.09812 2.5466e-06 12.0289C0.000130479 17.7623 0.00558039 18.7813 0.0372309 18.994C0.121513 19.5599 0.330683 19.972 0.724051 20.3469C1.02513 20.6339 1.36157 20.8159 1.82573 20.943L2.03398 21H12.0383H22.0427L22.2601 20.9417C23.0196 20.7381 23.6051 20.1629 23.8559 19.3742C24.0082 18.8952 24.0001 19.3122 23.9999 11.9827C23.9997 4.75667 24.0042 5.01488 23.8712 4.59797C23.6139 3.79103 22.9332 3.21155 22.0363 3.03568C21.874 3.00387 20.3991 2.99868 11.9401 3.00025C2.46404 3.00203 2.02454 3.00418 1.81649 3.04978ZM2.82788 4.67402C2.90218 4.74741 10.3244 10.5936 10.494 10.7123C10.7064 10.861 11.0473 11.0168 11.3294 11.094C11.5491 11.1541 11.6265 11.162 11.9999 11.162C12.3734 11.162 12.4508 11.1541 12.6705 11.094C12.9526 11.0168 13.2935 10.861 13.5059 10.7123C13.6755 10.5936 21.0977 4.74741 21.172 4.67402C21.2216 4.62506 21.062 4.62419 11.9999 4.62419C2.9379 4.62419 2.77829 4.62506 2.82788 4.67402ZM1.61794 12.3236L1.62459 18.8498L1.69097 18.9809C1.76924 19.1355 1.91774 19.2492 2.13827 19.3233C2.28726 19.3734 2.4569 19.3742 12.0511 19.3742C21.329 19.3742 21.818 19.3719 21.9258 19.3278C22.1683 19.2286 22.2942 19.0562 22.361 18.7318C22.3832 18.6239 22.3888 16.9751 22.383 12.1979L22.3753 5.80824L18.4861 8.87509C16.3471 10.5619 14.4933 12.0133 14.3667 12.1005C13.2924 12.8404 11.8775 13.0258 10.6055 12.5933C10.3145 12.4944 9.92226 12.2984 9.66171 12.1218C9.52071 12.0262 2.05923 6.16551 1.64353 5.82384C1.61764 5.80254 1.61259 7.07831 1.61794 12.3236Z" fill="#4E50D1"/>
</svg>
