<svg width="24" height="24" viewBox="0 0 24 24" fill="none" xmlns="http://www.w3.org/2000/svg">
<g clip-path="url(#clip0_8366_23241)">
<path fill-rule="evenodd" clip-rule="evenodd" d="M11.031 0.0328757C8.64928 0.234765 6.43293 1.10156 4.59425 2.55022C0.101095 6.09033 -1.2856 12.2957 1.27869 17.3872C3.32627 21.4526 7.45238 24 11.9899 24C13.8769 24 15.689 23.5699 17.3718 22.7226C19.4891 21.6566 21.2474 19.983 22.4227 17.9152C23.2816 16.404 23.8435 14.5475 23.943 12.8919C23.952 12.743 23.9686 12.6154 23.9798 12.6084C23.9911 12.6014 24.0002 12.3128 24 11.9671C23.9998 11.6213 23.9906 11.3526 23.9796 11.37C23.9679 11.3885 23.9529 11.2847 23.9434 11.1179C23.8487 9.46684 23.2843 7.59755 22.4227 6.08174C20.5688 2.81999 17.3011 0.60374 13.6081 0.103565C12.8381 -0.00072852 11.7723 -0.0299642 11.031 0.0328757ZM11.2467 1.52421C9.78953 1.65404 8.64724 1.9607 7.42296 2.55082C5.31912 3.56487 3.56687 5.31933 2.55408 7.42581C2.02912 8.51766 1.72001 9.58313 1.56872 10.8223C1.50814 11.3185 1.50814 12.6784 1.56872 13.1746C1.81411 15.1846 2.56209 16.9956 3.77497 18.5164C5.39727 20.5506 7.65284 21.8949 10.1919 22.3409C10.8329 22.4535 11.1244 22.4753 11.9899 22.4753C12.8555 22.4753 13.1469 22.4535 13.7879 22.3409C16.0461 21.9443 18.1333 20.8082 19.6692 19.1398C21.2161 17.4595 22.1266 15.4783 22.4107 13.1746C22.472 12.6774 22.472 11.3196 22.4107 10.8223C22.1623 8.80834 21.4109 6.98766 20.2064 5.48166C18.4403 3.27331 16.0147 1.92038 13.1886 1.5672C12.9022 1.53141 11.5115 1.50064 11.2467 1.52421ZM8.49724 5.73038C7.97446 5.88453 7.57665 6.3949 7.50735 7.0004C7.47465 7.28614 7.47465 16.7108 7.50735 16.9966C7.57685 17.6037 7.93934 18.0729 8.47787 18.2527C8.65035 18.3103 8.69499 18.3156 8.92137 18.3054C9.09465 18.2976 9.2119 18.2789 9.29765 18.2455C9.36616 18.2187 11.3715 17.0912 13.754 15.7397C17.7782 13.4571 18.0971 13.2716 18.2463 13.1266C18.4294 12.9489 18.5779 12.7111 18.6588 12.4665C18.7049 12.3269 18.7143 12.2479 18.7143 11.9985C18.7143 11.7491 18.7049 11.6701 18.6588 11.5304C18.5779 11.2858 18.4293 11.0481 18.2462 10.8703C18.0971 10.7255 17.7761 10.5386 13.7751 8.26757C11.4043 6.92187 9.39903 5.79368 9.31884 5.76046C9.12231 5.67906 8.72112 5.66437 8.49724 5.73038ZM8.99329 11.9991C8.99329 14.5878 9.00137 16.7014 9.01127 16.6959C9.02117 16.6903 10.8713 15.6408 13.1226 14.3636C16.172 12.6337 17.216 12.0305 17.216 11.9986C17.216 11.9666 16.1803 11.3676 13.1586 9.65199C10.927 8.38499 9.07691 7.3357 9.04723 7.32027L8.99329 7.29221V11.9991ZM0.0139053 11.9985C0.0139053 12.3483 0.0172615 12.4915 0.0213369 12.3165C0.0254363 12.1416 0.0254363 11.8554 0.0213369 11.6804C0.0172615 11.5055 0.0139053 11.6486 0.0139053 11.9985Z" fill="#4E50D1"/>
</g>
<defs>
<clipPath id="clip0_8366_23241">
<rect width="24" height="24" fill="white"/>
</clipPath>
</defs>
</svg>
