<svg width="24" height="24" viewBox="0 0 24 24" fill="none" xmlns="http://www.w3.org/2000/svg">
<g clip-path="url(#clip0_8366_23541)">
<path fill-rule="evenodd" clip-rule="evenodd" d="M3.23833 0.0340379C2.4272 0.145543 1.69817 0.507688 1.11405 1.08924C0.84464 1.35748 0.663786 1.59124 0.487512 1.89897C0.257955 2.29974 0.084702 2.82937 0.025952 3.30988C-0.00865065 3.59293 -0.00865065 20.408 0.025952 20.691C0.182611 21.9724 0.950486 23.0502 2.12645 23.6392C2.32505 23.7388 2.7945 23.8937 3.05856 23.9469C3.26282 23.9881 3.59724 23.9908 9.34115 23.9981C13.5349 24.0034 15.4866 23.9978 15.6624 23.98C16.286 23.917 16.9412 23.6597 17.4809 23.2658C17.73 23.084 23.064 17.744 23.2425 17.4977C23.6194 16.9777 23.8936 16.299 23.9502 15.7461C23.9605 15.6451 23.9741 16.667 23.9809 18.0618C23.9876 19.4349 23.9956 16.6986 23.9989 11.981C24.0027 6.26744 23.9967 3.40864 23.9807 3.41853C23.9668 3.42713 23.9567 3.40382 23.9567 3.36308C23.9567 3.32443 23.9409 3.2021 23.9216 3.09129C23.6729 1.66364 22.5717 0.474753 21.165 0.1152C20.6896 -0.00629116 21.0786 -0.00144208 11.9669 0.000718409C5.11759 0.00232677 3.42187 0.00880822 3.23833 0.0340379ZM3.37406 1.53514C3.18575 1.56697 2.92866 1.6525 2.74778 1.74351C2.18203 2.02819 1.78872 2.50105 1.5899 3.13556L1.52379 3.34652V12.0005V20.6544L1.5899 20.8654C1.83222 21.6387 2.36301 22.17 3.13551 22.4126L3.34624 22.4788L9.1673 22.4851L14.9884 22.4914V20.504C14.9884 18.4229 14.9936 18.2968 15.0976 17.8599C15.2575 17.1888 15.592 16.5997 16.1013 16.0926C16.6934 15.5031 17.4182 15.1464 18.2491 15.0357C18.4478 15.0092 18.9224 15.002 20.486 15.0016L22.4706 15.0011L22.4643 9.17382L22.458 3.34652L22.3919 3.13556C22.1475 2.3556 21.6094 1.82434 20.8138 1.57742L20.6356 1.52211L12.0628 1.51882C7.34784 1.51699 3.43789 1.52434 3.37406 1.53514ZM0.012931 12.0005C0.012931 16.7205 0.0156887 18.6515 0.0190698 16.2914C0.0224509 13.9314 0.0224509 10.0695 0.0190698 7.70949C0.0156887 5.34948 0.012931 7.2804 0.012931 12.0005ZM6.73411 4.2918C6.48582 4.39217 6.30739 4.60572 6.26169 4.85727C6.24624 4.94223 6.23579 5.35106 6.23579 5.87047V6.74121L5.01882 6.74825L3.80186 6.75528L3.68488 6.81508C3.10765 7.1102 3.10765 7.88869 3.68488 8.18382L3.80186 8.24361L5.01882 8.25065L6.23579 8.25768V9.75636V11.255L5.00683 11.2617L3.77788 11.2683L3.66237 11.3274C3.40456 11.4592 3.25407 11.7073 3.25407 12.0005C3.25407 12.2936 3.40456 12.5417 3.66237 12.6735L3.77788 12.7326L5.00683 12.7392L6.23579 12.7459V14.2446V15.7432L5.01882 15.7503L3.80186 15.7573L3.68488 15.8171C3.10765 16.1122 3.10765 16.8907 3.68488 17.1858L3.80186 17.2456L5.01882 17.2527L6.23579 17.2597V18.1304C6.23579 19.0912 6.24902 19.2255 6.36111 19.4017C6.67627 19.8971 7.39067 19.8602 7.67063 19.3341L7.73451 19.2141L7.74152 18.2365L7.74852 17.2588L9.95963 17.2522L12.1707 17.2456L12.2971 17.1885C12.4558 17.1167 12.6433 16.9161 12.6958 16.7621C12.745 16.6173 12.745 16.3856 12.6958 16.2408C12.6433 16.0868 12.4558 15.8863 12.2971 15.8145L12.1707 15.7573L9.95862 15.7507L7.7465 15.7441V14.2444V12.7446L12.9561 12.7444L18.1657 12.7441L18.2895 12.6864C18.3576 12.6547 18.4583 12.5836 18.5134 12.5286C18.6639 12.3779 18.7287 12.2189 18.7287 12.0005C18.7287 11.8607 18.7158 11.7927 18.671 11.6965C18.5975 11.5383 18.4475 11.3881 18.2895 11.3145L18.1657 11.2568L12.9561 11.2565L7.7465 11.2563V9.75622V8.25614L12.9561 8.24988L18.1657 8.24361L18.292 8.18643C18.4507 8.11463 18.6382 7.91407 18.6907 7.76007C18.7399 7.61532 18.7399 7.38357 18.6907 7.23882C18.6382 7.08483 18.4507 6.88426 18.292 6.81246L18.1657 6.75528L12.9571 6.74901L7.74852 6.74275L7.74152 5.76479C7.73454 4.79066 7.7343 4.78641 7.67802 4.67881C7.60032 4.53024 7.46949 4.39834 7.32686 4.32474C7.16433 4.24086 6.89688 4.226 6.73411 4.2918ZM18.3613 16.5386C18.1735 16.5702 17.9162 16.6557 17.735 16.7469C17.1692 17.0316 16.7754 17.5052 16.5774 18.1389L16.5114 18.3499L16.5044 20.2296L16.4974 22.1093L16.5522 22.0814C16.6233 22.0453 22.0246 16.6386 22.0606 16.5675L22.088 16.5135L20.2827 16.5163C19.2898 16.5178 18.4252 16.5279 18.3613 16.5386Z" fill="#4E50D1"/>
</g>
<defs>
<clipPath id="clip0_8366_23541">
<rect width="24" height="24" fill="white"/>
</clipPath>
</defs>
</svg>
