<svg width="24" height="24" viewBox="0 0 24 24" fill="none" xmlns="http://www.w3.org/2000/svg">
<path d="M22.5 2.25C22.5 2.05109 22.4209 1.86038 22.2803 1.71973C22.1396 1.57907 21.9489 1.5 21.75 1.5H2.25C2.05109 1.5 1.86038 1.57907 1.71973 1.71973C1.57907 1.86038 1.5 2.05109 1.5 2.25V17.25C1.5 17.4489 1.57907 17.6396 1.71973 17.7803C1.86038 17.9209 2.05109 18 2.25 18H12.75C12.9123 18 13.0704 18.053 13.2002 18.1504L18 21.75V18.75C18 18.3358 18.3358 18 18.75 18H21.75C21.9489 18 22.1396 17.9209 22.2803 17.7803C22.4209 17.6396 22.5 17.4489 22.5 17.25V2.25ZM15.75 11.25C16.1642 11.25 16.5 11.5858 16.5 12C16.5 12.4142 16.1642 12.75 15.75 12.75H5.25C4.83579 12.75 4.5 12.4142 4.5 12C4.5 11.5858 4.83579 11.25 5.25 11.25H15.75ZM18.75 6.75C19.1642 6.75 19.5 7.08579 19.5 7.5C19.5 7.91421 19.1642 8.25 18.75 8.25H5.25C4.83579 8.25 4.5 7.91421 4.5 7.5C4.5 7.08579 4.83579 6.75 5.25 6.75H18.75ZM24 17.25C24 17.8467 23.7628 18.4189 23.3408 18.8408C22.9189 19.2628 22.3467 19.5 21.75 19.5H19.5V23.25C19.5 23.5341 19.339 23.7939 19.085 23.9209C18.831 24.0477 18.527 24.02 18.2998 23.8496L12.5 19.5H2.25C1.65326 19.5 1.08114 19.2628 0.65918 18.8408C0.237224 18.4189 0 17.8467 0 17.25V2.25C0 1.65326 0.237224 1.08114 0.65918 0.65918C1.08114 0.237223 1.65326 0 2.25 0H21.75C22.3467 0 22.9189 0.237223 23.3408 0.65918C23.7628 1.08114 24 1.65326 24 2.25V17.25Z" fill="#4E50D1"/>
</svg>
