<svg width="24" height="24" viewBox="0 0 24 24" fill="none" xmlns="http://www.w3.org/2000/svg">
<g clip-path="url(#clip0_8366_23373)">
<path fill-rule="evenodd" clip-rule="evenodd" d="M17.0604 0.0335968C16.6969 0.100698 16.3296 0.265504 16.0121 0.503912C15.7427 0.706286 0.523587 15.9276 0.390518 16.1278C0.0186692 16.6872 -0.0864073 17.262 0.0700746 17.8808C0.136926 18.1451 0.321352 18.5216 0.499443 18.7573C0.697147 19.0189 5.14015 23.4473 5.35413 23.596C5.89915 23.9748 6.50703 24.0898 7.12043 23.9301C7.38771 23.8605 7.76373 23.6757 7.99749 23.4992C8.26621 23.2962 23.4578 8.10216 23.6079 7.88623C23.7592 7.66856 23.8578 7.46446 23.9337 7.21174C23.9882 7.0302 23.9983 6.9493 23.9999 6.68104C24.0022 6.30643 23.9477 6.0477 23.8006 5.73398C23.5922 5.28948 23.6162 5.3157 21.1922 2.88728C19.8563 1.54904 18.8324 0.542672 18.7199 0.457287C18.2159 0.0749626 17.6371 -0.0728249 17.0604 0.0335968ZM17.2101 1.56798C17.1584 1.58775 17.0762 1.62753 17.0274 1.65641C16.9785 1.68529 16.4373 2.20836 15.8245 2.81877L14.7104 3.92864L15.5573 4.78137C16.5263 5.75711 16.5246 5.75487 16.5241 6.08453C16.5238 6.26144 16.5143 6.30953 16.4584 6.41585C16.3725 6.57959 16.1784 6.75187 16.0211 6.80407C15.8541 6.8595 15.5903 6.84292 15.4403 6.76759C15.3661 6.73034 15.0549 6.43786 14.4777 5.86307L13.6247 5.0136L12.5537 6.08419L11.4826 7.15481L12.3128 7.98919C12.816 8.49495 13.1701 8.87041 13.2117 8.94248C13.2663 9.0369 13.2827 9.10018 13.2914 9.24991C13.3059 9.50139 13.2568 9.64731 13.0999 9.81891C12.9439 9.98951 12.7839 10.0611 12.5533 10.0635C12.2292 10.0669 12.2424 10.0767 11.268 9.10687L10.3968 8.23975L9.31919 9.31665L8.2416 10.3936L9.10928 11.2642C10.0797 12.2379 10.0699 12.2248 10.0665 12.5487C10.0641 12.7792 9.99248 12.939 9.82177 13.095C9.65006 13.2518 9.50406 13.3008 9.25241 13.2863C9.10258 13.2776 9.03926 13.2613 8.94479 13.2067C8.87267 13.1651 8.49697 12.8112 7.99089 12.3083L7.15598 11.4787L6.08467 12.5491L5.0134 13.6194L5.86341 14.4719C6.43857 15.0487 6.73124 15.3597 6.76851 15.4339C6.84389 15.5838 6.86048 15.8474 6.80501 16.0143C6.75277 16.1715 6.58038 16.3654 6.41654 16.4514C6.31015 16.5072 6.26203 16.5167 6.08501 16.517C5.75512 16.5175 5.75741 16.5192 4.78078 15.5505L3.92728 14.7039L2.76793 15.8663C1.78017 16.8566 1.60225 17.0456 1.5658 17.1436C1.50636 17.3036 1.52497 17.4761 1.62317 17.6753C1.69507 17.8212 1.90062 18.0334 3.98483 20.1131C5.96761 22.0916 6.28286 22.3966 6.38282 22.4337C6.54272 22.4929 6.71562 22.4744 6.9142 22.3766C7.06152 22.3041 7.64542 21.7264 14.7262 14.6479C18.9352 10.4402 22.3988 6.95921 22.4231 6.91234C22.453 6.85459 22.4675 6.7722 22.4681 6.65669C22.4698 6.31763 22.5989 6.46389 20.048 3.91396C18.7934 2.65988 17.7291 1.61487 17.6828 1.5917C17.5689 1.53465 17.3287 1.52262 17.2101 1.56798Z" fill="#4E50D1"/>
</g>
<defs>
<clipPath id="clip0_8366_23373">
<rect width="24" height="24" fill="white"/>
</clipPath>
</defs>
</svg>
