<svg width="24" height="24" viewBox="0 0 24 24" fill="none" xmlns="http://www.w3.org/2000/svg">
<g clip-path="url(#clip0_8366_23601)">
<path fill-rule="evenodd" clip-rule="evenodd" d="M11.0291 0.036782C9.43765 0.171655 8.00492 0.573754 6.60549 1.27824C2.54938 3.32013 0 7.45912 0 12.0024C0 14.2818 0.628229 16.4615 1.84374 18.3992C2.78558 19.9007 4.09867 21.2152 5.59848 22.1581C7.53407 23.375 9.7113 24.0039 11.9882 24.0039C13.8754 24.0039 15.6878 23.5738 17.3709 22.7265C19.4885 21.6605 21.2471 19.987 22.4225 17.9191C23.2815 16.4079 23.8435 14.5514 23.943 12.8958C23.952 12.7469 23.9686 12.6193 23.9798 12.6123C23.9911 12.6053 24.0002 12.3167 24 11.971C23.9998 11.6252 23.9906 11.3565 23.9796 11.3739C23.9679 11.3924 23.9529 11.2886 23.9434 11.1218C23.8487 9.47074 23.2842 7.60146 22.4225 6.08564C21.4457 4.36731 20.0341 2.88786 18.3779 1.84666C16.9111 0.924534 15.2979 0.336508 13.6066 0.107471C12.8365 0.00317773 11.7705 -0.026058 11.0291 0.036782ZM11.2449 1.52819C9.79291 1.65658 8.64468 1.96478 7.42059 2.55472C5.31645 3.56878 3.56395 5.32323 2.55101 7.42972C2.02598 8.52157 1.71683 9.58704 1.56551 10.8262C1.50493 11.3225 1.50493 12.6823 1.56551 13.1785C1.84553 15.4718 2.76148 17.4643 4.30776 19.1437C5.84388 20.8121 7.93143 21.9482 10.19 22.3448C10.8311 22.4574 11.1225 22.4792 11.9882 22.4792C12.8539 22.4792 13.1453 22.4574 13.7864 22.3448C16.0449 21.9482 18.1325 20.8121 19.6686 19.1437C21.2157 17.4634 22.1263 15.4823 22.4104 13.1785C22.4718 12.6813 22.4718 11.3235 22.4104 10.8262C22.2766 9.74114 22.0342 8.82849 21.624 7.86583C20.5868 5.43146 18.6093 3.43856 16.1837 2.38303C15.2171 1.96245 14.2542 1.70161 13.187 1.57132C12.8787 1.53366 11.5233 1.50358 11.2449 1.52819ZM11.3768 5.303C10.486 5.46852 9.80042 5.84261 9.22247 6.47855C8.5864 7.17843 8.21524 8.14025 8.25236 8.99253C8.26418 9.26403 8.30719 9.37343 8.46366 9.53008C8.62778 9.69438 8.73021 9.73396 8.99114 9.73396C9.25208 9.73396 9.3545 9.69438 9.51862 9.53008C9.67548 9.37305 9.71115 9.2749 9.74899 8.8963C9.76759 8.71021 9.80485 8.47742 9.8318 8.37901C9.96926 7.87716 10.3365 7.39083 10.8046 7.09075C11.4036 6.70672 12.2594 6.65319 12.9112 6.95899C13.6058 7.28488 14.0374 7.83767 14.1969 8.60596C14.2455 8.84009 14.2347 9.26751 14.1739 9.51512C14.0503 10.0183 13.7412 10.4956 13.3467 10.7925C13.1771 10.9202 13.0098 11.0084 12.6715 11.1486C12.0182 11.4194 11.5506 11.9151 11.3454 12.5545C11.2583 12.8258 11.2449 12.978 11.2449 13.6981C11.2449 14.5116 11.2567 14.5734 11.4496 14.7693C11.6161 14.9384 11.7436 14.9908 11.9882 14.9908C12.2288 14.9908 12.357 14.9396 12.518 14.7792C12.7103 14.5878 12.7176 14.5538 12.7335 13.7786C12.75 12.9806 12.76 12.9336 12.957 12.7339C13.0562 12.6333 13.1264 12.5905 13.3309 12.506C14.4255 12.0536 15.1859 11.2525 15.5458 10.1723C15.6848 9.7553 15.7143 9.55394 15.7155 9.01401C15.7165 8.52413 15.7006 8.38331 15.6033 8.02017C15.2739 6.79049 14.2983 5.78359 13.0791 5.41488C12.7047 5.30166 12.544 5.27823 12.0721 5.26817C11.7 5.26023 11.5727 5.26661 11.3768 5.303ZM0.0104777 12.0024C0.0104777 12.3522 0.0138344 12.4954 0.0179104 12.3204C0.0220103 12.1455 0.0220103 11.8593 0.0179104 11.6843C0.0138344 11.5094 0.0104777 11.6525 0.0104777 12.0024ZM11.8084 16.5151C11.5554 16.5559 11.372 16.6532 11.1803 16.8482C10.6365 17.4013 10.8148 18.3184 11.5326 18.6609C11.6811 18.7317 11.7026 18.7352 11.9882 18.7352C12.2738 18.7352 12.2953 18.7317 12.4437 18.6609C13.1616 18.3184 13.3399 17.4013 12.7961 16.8482C12.6543 16.7041 12.5269 16.6205 12.3624 16.5639C12.2093 16.5112 11.9653 16.4897 11.8084 16.5151Z" fill="#4E50D1"/>
</g>
<defs>
<clipPath id="clip0_8366_23601">
<rect width="24" height="24" fill="white"/>
</clipPath>
</defs>
</svg>
