<svg width="24" height="24" viewBox="0 0 24 24" fill="none" xmlns="http://www.w3.org/2000/svg">
<g clip-path="url(#clip0_8366_23643)">
<path fill-rule="evenodd" clip-rule="evenodd" d="M15.196 0.0462321C15.0722 0.0927814 14.9328 0.220138 13.6603 1.44986L12.2607 2.80229L11.468 2.0394C11.0321 1.61981 10.6021 1.22636 10.5126 1.16509C9.80957 0.683853 8.90802 0.608904 8.15506 0.969103C8.06316 1.01308 7.92383 1.08928 7.84543 1.13842C7.75286 1.1965 6.6246 2.27131 4.62658 4.20486L1.55023 7.18193L1.37176 7.01875C1.27359 6.92901 1.14756 6.83599 1.09165 6.81205C0.847956 6.70769 0.570623 6.7318 0.342955 6.87709C0.0286896 7.07764 -0.0868161 7.47104 0.0688182 7.81078C0.129457 7.94316 0.741863 8.54174 8.35256 15.9077C14.7279 22.078 16.5986 23.8756 16.6947 23.9235C16.8585 24.0053 17.0982 24.0237 17.2718 23.9679C17.7262 23.8216 17.9414 23.3135 17.7239 22.9003C17.6925 22.8407 16.3268 21.5025 14.0313 19.2819L10.3885 15.7581L11.3246 14.8492L12.2607 13.9404L13.0162 14.6829C13.4317 15.0913 13.8313 15.4702 13.9041 15.5248C14.5058 15.9761 15.3168 16.1218 16.0354 15.9076C16.2364 15.8477 16.5515 15.6977 16.7186 15.5823C16.891 15.4633 23.801 8.77163 23.8896 8.63792C24.0274 8.42982 24.0371 8.12832 23.9137 7.88811C23.8769 7.8165 22.6711 6.63311 19.9063 3.95517C16.7122 0.861408 15.9279 0.113715 15.8285 0.0677903C15.6525 -0.0135689 15.38 -0.0228595 15.196 0.0462321ZM14.4219 2.84634L13.3631 3.87273L15.42 5.8652C16.5514 6.96106 17.5102 7.90566 17.5506 7.96431C17.5911 8.02293 17.6348 8.10936 17.6477 8.15636C17.6662 8.22375 18.0447 12.0524 18.0447 12.1723C18.0447 12.1891 18.9643 11.3116 20.0882 10.2224L22.1319 8.2419L18.8188 5.03094C16.9966 3.2649 15.5001 1.81998 15.4932 1.81998C15.4863 1.81998 15.0042 2.28184 14.4219 2.84634ZM8.92612 2.28525C8.87686 2.30232 8.79883 2.33917 8.75273 2.36716C8.70666 2.39516 7.31464 3.73109 5.65934 5.33592L2.64975 8.25381L5.95656 11.4587C7.7753 13.2214 9.27455 14.6636 9.28822 14.6636C9.3019 14.6636 10.7733 13.2484 12.558 11.5186L15.8029 8.37353L12.6942 5.36358C9.71433 2.47836 9.57953 2.35149 9.4421 2.30285C9.27935 2.24523 9.06298 2.23784 8.92612 2.28525ZM14.8149 11.468L13.3584 12.8797L14.1348 13.6373C14.8646 14.3494 14.9201 14.398 15.0598 14.4476C15.2536 14.5163 15.5251 14.5065 15.6914 14.4247C15.7578 14.3921 15.9659 14.2135 16.2054 13.9836C16.5601 13.6432 16.608 13.588 16.608 13.5198C16.608 13.4305 16.287 10.0714 16.2776 10.0623C16.2742 10.059 15.616 10.6915 14.8149 11.468Z" fill="#4E50D1"/>
</g>
<defs>
<clipPath id="clip0_8366_23643">
<rect width="24" height="24" fill="white"/>
</clipPath>
</defs>
</svg>
