<svg width="24" height="24" viewBox="0 0 24 24" fill="none" xmlns="http://www.w3.org/2000/svg">
<g clip-path="url(#clip0_8366_23744)">
<path fill-rule="evenodd" clip-rule="evenodd" d="M11.814 0.0157484C11.6565 0.055305 11.5309 0.131371 11.4145 0.257594C11.2058 0.484078 11.2208 0.309798 11.2065 2.67769L11.1937 4.78993L5.92136 4.7961C-0.0204885 4.80304 0.513873 4.78292 0.266313 5.0092C0.0814685 5.17818 0.0103056 5.34137 0.0103056 5.59643C0.0103056 5.85117 0.0814941 6.0147 0.265699 6.18309C0.503813 6.40074 0.385344 6.39012 2.57442 6.39012H4.50529L4.49047 6.44772C4.45837 6.57254 1.04311 17.4926 1.01931 17.5466C0.996526 17.5982 0.975766 17.6042 0.818721 17.6042C0.582092 17.6042 0.429834 17.6612 0.265699 17.8112C0.0200585 18.0358 -0.0342608 18.266 0.0182666 18.8602C0.138066 20.2153 0.689322 21.4005 1.6439 22.3552C2.61589 23.3274 3.81194 23.8755 5.19729 23.9837C6.96584 24.1219 8.7412 23.3735 9.87876 22.0104C10.6458 21.0913 11.0777 20.0478 11.1826 18.8602C11.2352 18.266 11.1809 18.0358 10.9352 17.8112C10.7711 17.6612 10.6188 17.6042 10.3822 17.6042C10.2252 17.6042 10.2044 17.5982 10.1816 17.5466C10.1578 17.4927 6.74255 6.57256 6.71047 6.44783L6.69568 6.3903H12H17.3043L17.2895 6.44783C17.2575 6.57256 13.8422 17.4927 13.8184 17.5466C13.7956 17.5982 13.7748 17.6042 13.6178 17.6042C13.3812 17.6042 13.2289 17.6612 13.0648 17.8112C12.8191 18.0358 12.7648 18.266 12.8173 18.8602C12.9371 20.2153 13.4884 21.4005 14.443 22.3552C15.415 23.3274 16.611 23.8755 17.9964 23.9837C19.7649 24.1219 21.5403 23.3735 22.6778 22.0104C23.4449 21.0913 23.8768 20.0478 23.9817 18.8602C24.0343 18.266 23.9799 18.0358 23.7343 17.8112C23.5702 17.6612 23.4179 17.6042 23.1813 17.6042C23.0242 17.6042 23.0035 17.5982 22.9807 17.5466C22.9569 17.4926 19.5416 6.57254 19.5095 6.44772L19.4947 6.39012H21.4256C23.6147 6.39012 23.4962 6.40074 23.7343 6.18309C23.9185 6.0147 23.9897 5.85117 23.9897 5.59643C23.9897 5.34137 23.9185 5.17818 23.7337 5.0092C23.4862 4.78292 24.0205 4.80307 18.0787 4.7961L12.8063 4.78993L12.7935 2.67769C12.7791 0.300581 12.7954 0.482721 12.5766 0.24871C12.5095 0.17697 12.4047 0.0995981 12.3328 0.0686441C12.1855 0.00525122 11.951 -0.018662 11.814 0.0157484ZM4.15549 12.9125C3.36878 15.4296 2.7199 17.5149 2.7135 17.5466L2.7019 17.6042H5.60046H8.49902L8.48742 17.5466C8.46267 17.4238 5.6142 8.33594 5.60046 8.33594C5.59245 8.33594 4.94223 10.3954 4.15549 12.9125ZM16.9546 12.9125C16.1679 15.4296 15.519 17.5149 15.5126 17.5466L15.501 17.6042H18.3995H21.2981L21.2865 17.5466C21.2617 17.4238 18.4133 8.33594 18.3995 8.33594C18.3915 8.33594 17.7413 10.3954 16.9546 12.9125ZM1.69367 19.2364C1.70091 19.261 1.72525 19.354 1.74776 19.443C1.85575 19.8702 2.10948 20.3941 2.39477 20.779C2.57724 21.0252 2.9737 21.4217 3.21983 21.6042C4.62885 22.6489 6.57206 22.6489 7.98109 21.6042C8.22765 21.4214 8.62411 21.0247 8.80583 20.779C9.09625 20.3863 9.32824 19.9058 9.4549 19.4348C9.48897 19.3081 9.51688 19.2015 9.5169 19.198C9.51695 19.1945 7.75378 19.1916 5.59874 19.1916C1.87913 19.1916 1.68115 19.1939 1.69367 19.2364ZM14.4927 19.2364C14.5 19.261 14.5243 19.354 14.5468 19.443C14.6548 19.8702 14.9086 20.3941 15.1939 20.779C15.3763 21.0252 15.7728 21.4217 16.0189 21.6042C17.4279 22.6489 19.3711 22.6489 20.7802 21.6042C21.0267 21.4214 21.4232 21.0247 21.6049 20.779C21.8953 20.3863 22.1273 19.9058 22.254 19.4348C22.2881 19.3081 22.316 19.2015 22.316 19.198C22.316 19.1945 20.5529 19.1916 18.3978 19.1916C14.6782 19.1916 14.4802 19.1939 14.4927 19.2364Z" fill="#4E50D1"/>
</g>
<defs>
<clipPath id="clip0_8366_23744">
<rect width="24" height="24" fill="white"/>
</clipPath>
</defs>
</svg>
