<svg width="24" height="24" viewBox="0 0 24 24" fill="none" xmlns="http://www.w3.org/2000/svg">
<path fill-rule="evenodd" clip-rule="evenodd" d="M11.3119 1.52856C10.6102 1.6525 9.96169 2.07261 9.56919 2.65757C9.48745 2.77939 8.52743 4.30723 7.4358 6.05276L5.45103 9.22644L3.5167 9.23504C1.41914 9.24436 1.50511 9.23876 1.18382 9.38733C0.992216 9.47591 0.7432 9.67111 0.609468 9.83749C0.459397 10.0242 0.307722 10.3459 0.272654 10.5518C0.252575 10.6698 0.246595 12.0797 0.251761 15.4634L0.259039 20.2096L0.315917 20.3769C0.469729 20.8291 0.881132 21.2447 1.34119 21.4126L1.53147 21.4821L3.59282 21.4948L5.65416 21.5075L6.36673 21.8653C7.11884 22.2429 7.38366 22.345 7.86349 22.4423L8.14814 22.5H14.1159C18.916 22.5 20.116 22.4935 20.249 22.4669C21.261 22.2641 22.1032 21.4853 22.3597 20.515C22.448 20.1808 23.7886 11.4775 23.8047 11.1338C23.8346 10.4949 23.6519 9.88831 23.2769 9.38119C22.9551 8.94597 22.4564 8.5821 21.953 8.41526C21.5132 8.26949 21.754 8.2784 17.9917 8.2686L14.5256 8.25957L14.5153 6.04011C14.5083 4.53787 14.4958 3.77543 14.4764 3.68068C14.2623 2.63207 13.5122 1.84224 12.4665 1.56447C12.2133 1.49724 11.5978 1.4781 11.3119 1.52856ZM11.451 3.13229C11.2973 3.18031 11.1419 3.27735 11.018 3.40263C10.9526 3.46877 10.0819 4.83575 8.79764 6.88832L6.68484 10.2652V15.2574V20.2497L7.17472 20.4915C7.67344 20.7377 7.93162 20.8318 8.24993 20.8836C8.38046 20.9048 9.97571 20.9104 14.2177 20.9046L20.0072 20.8967L20.1789 20.8154C20.2733 20.7707 20.3898 20.7041 20.4379 20.6675C20.5699 20.5668 20.7283 20.3469 20.7849 20.1859C20.8556 19.985 22.212 11.236 22.2105 10.9912C22.2073 10.4757 21.8611 10.0355 21.3551 9.90373C21.2238 9.86953 20.7362 9.86472 17.3943 9.86472H13.5833L13.4361 9.81023C13.2369 9.73656 13.0479 9.54763 12.9743 9.34842C12.9199 9.20153 12.9198 9.19443 12.9198 6.64317C12.9198 3.77935 12.9247 3.86498 12.7444 3.58647C12.5922 3.35138 12.4094 3.21523 12.1339 3.13158C11.9872 3.08707 11.5944 3.08747 11.451 3.13229ZM1.83673 10.889C1.82915 10.9205 1.82607 12.9561 1.82989 15.4125L1.83686 19.8788L3.45921 19.8853L5.08157 19.8919V15.3618V10.8318H3.46606H1.85055L1.83673 10.889Z" fill="#4E50D1"/>
</svg>
