<svg width="24" height="24" viewBox="0 0 24 24" fill="none" xmlns="http://www.w3.org/2000/svg">
<path fill-rule="evenodd" clip-rule="evenodd" d="M21.8178 0.132578C21.1461 0.209404 20.4486 0.296779 20.2678 0.326761C18.8137 0.567814 17.359 1.21438 16.2153 2.12801C15.767 2.48613 15.3402 2.9025 12.1933 6.05131L9.19505 9.05144L8.8542 8.93657C7.56263 8.50139 6.98997 8.39416 5.96684 8.39596C5.44854 8.39689 5.27953 8.40708 4.96641 8.45639C3.6131 8.66949 2.43678 9.18014 1.43433 9.98974C1.06126 10.291 0.491301 10.8542 0.368053 11.0434C0.0459677 11.5376 0.0211259 12.2041 0.305663 12.7175C0.443722 12.9666 0.745383 13.2559 0.990683 13.3745C1.09787 13.4263 2.03339 13.7505 3.06957 14.095L4.9536 14.7213L7.11395 16.8842L9.27433 19.0471L9.90158 20.9332C10.2466 21.9705 10.5698 22.9047 10.6199 23.0093C10.7276 23.234 11.0276 23.5499 11.2548 23.6779C11.5256 23.8304 11.7257 23.8796 12.0733 23.879C12.3449 23.8785 12.4098 23.8695 12.5758 23.8094C12.8865 23.6969 13.0368 23.59 13.408 23.2171C14.1366 22.4854 14.6311 21.7747 14.9898 20.9438C15.5531 19.639 15.7398 18.2258 15.527 16.8777C15.4646 16.4828 15.3441 16.0245 15.1348 15.3867L14.9397 14.792L18.2767 11.4506C20.4579 9.2663 21.6866 8.01697 21.8246 7.8431C22.8523 6.54789 23.4956 5.05413 23.7132 3.45767C23.8189 2.68239 24.015 0.77704 23.9991 0.68026C23.9728 0.520606 23.86 0.309977 23.7454 0.206468C23.5976 0.0728991 23.4346 0.00880365 23.221 0.000203889C23.1192 -0.00390113 22.5008 0.0544525 21.8178 0.132578ZM21.389 1.82231C20.5356 1.9213 20.1861 1.98379 19.7105 2.1224C18.7046 2.41557 17.7861 2.91355 17.0001 3.59194C16.8486 3.7227 14.4357 6.11954 11.6381 8.91828L6.55145 14.0069L8.26488 15.7199L9.97832 17.4329L12.3381 15.0917C15.9539 11.5043 20.2949 7.1458 20.4831 6.91394C20.8881 6.41502 21.1759 5.96326 21.4432 5.40703C21.8612 4.53711 22.0269 3.90639 22.167 2.65303C22.2101 2.26721 22.2522 1.90187 22.2606 1.84112C22.279 1.70665 22.3692 1.70859 21.389 1.82231ZM5.55107 10.0345C4.16238 10.1809 2.99933 10.7105 2.04854 11.6295L1.73942 11.9283L3.45696 12.4997L5.17447 13.0711L6.53903 11.7073L7.90356 10.3435L7.79271 10.3098C7.49603 10.2197 7.08233 10.1225 6.83684 10.0853C6.57047 10.0449 5.75737 10.0128 5.55107 10.0345ZM4.23882 15.9825C3.50105 16.1167 2.76477 16.5523 2.33022 17.1115C1.81431 17.7755 1.14766 19.3538 0.437174 21.5933C0.0941441 22.6746 0 23.0218 0 23.2059C0 23.6351 0.356802 23.998 0.780749 24C0.947574 24.0008 1.21249 23.9318 2.09505 23.658C4.23399 22.9944 5.88613 22.3298 6.68143 21.8133C7.50219 21.2801 8.05864 20.247 8.05864 19.2562C8.05864 18.951 8.01197 18.8128 7.84852 18.6339C7.67697 18.4463 7.51053 18.3733 7.2531 18.373C7.02425 18.3727 6.87767 18.4288 6.70871 18.5814C6.53757 18.736 6.47271 18.8911 6.44426 19.2136C6.40539 19.6546 6.30017 19.9284 6.05428 20.2284C5.82384 20.5096 5.05967 20.8923 3.77109 21.3719C3.1931 21.587 2.05202 21.9746 2.03796 21.9606C2.02237 21.945 2.44975 20.6956 2.67494 20.0984C3.13763 18.8715 3.48957 18.178 3.76665 17.9471C4.02985 17.7279 4.2751 17.6232 4.66168 17.5651C4.96794 17.5192 5.09462 17.4603 5.25853 17.2877C5.64023 16.886 5.50303 16.2471 4.98304 16.0051C4.82609 15.932 4.56065 15.924 4.23882 15.9825ZM12.2775 17.4818L10.9226 18.8393L11.494 20.5486C12.001 22.0652 12.07 22.2542 12.1062 22.2244C12.2117 22.1375 12.712 21.5683 12.8663 21.3595C13.5796 20.3943 13.9614 19.2322 13.9633 18.0209C13.964 17.5705 13.935 17.2421 13.8635 16.8907C13.8136 16.6458 13.6668 16.1243 13.6476 16.1243C13.6392 16.1243 13.0226 16.7351 12.2775 17.4818Z" fill="#4E50D1"/>
</svg>
