<svg width="24" height="24" viewBox="0 0 24 24" fill="none" xmlns="http://www.w3.org/2000/svg">
<path d="M22.4841 23.9993C22.1528 23.8709 21.8547 23.7558 21.558 23.6394C19.7915 22.9461 18.0257 22.2508 16.2586 21.5609C16.1488 21.5183 16.0237 21.4943 15.9059 21.4943C12.0031 21.491 8.09955 21.4737 4.19669 21.5017C2.874 21.511 1.77553 20.5289 1.54399 19.2954C1.51738 19.155 1.50341 19.0093 1.50341 18.8663C1.50008 13.4544 1.49808 8.04192 1.50274 2.63008C1.50341 1.54492 2.21598 0.52296 3.23461 0.160352C3.52004 0.0585555 3.84007 0.0113166 4.14412 0.0106513C9.37766 0.00200192 14.6112 0.0106513 19.8447 5.91212e-06C21.1089 -0.00265543 22.0922 0.893552 22.3737 1.95011C22.4429 2.20892 22.4788 2.48437 22.4795 2.75183C22.4848 9.76647 22.4841 16.7818 22.4841 23.7964V24V23.9993ZM12.1947 18.3792C12.552 18.3533 13.1049 18.324 13.6551 18.2688C13.9838 18.2362 14.3111 18.1723 14.6351 18.1058C16.2938 17.7665 17.8334 17.1557 19.1807 16.1051C19.4375 15.9049 19.5427 15.654 19.4994 15.3347C19.4495 14.9674 19.059 14.686 18.7083 14.8004C18.532 14.8576 18.375 14.9874 18.22 15.0985C16.5673 16.2888 14.6904 16.8057 12.6884 16.9255C12.1102 16.9601 11.5267 16.9255 10.9472 16.8969C10.1148 16.8563 9.3058 16.6793 8.51072 16.4351C7.42689 16.1025 6.4209 15.6174 5.5247 14.9135C5.20933 14.666 4.80946 14.7432 4.58591 15.0765C4.375 15.3912 4.43754 15.8423 4.76422 16.0685C5.25923 16.4112 5.7549 16.7625 6.28584 17.0426C8.06961 17.9847 9.99708 18.3453 12.1934 18.3779L12.1947 18.3792Z" fill="#4E50D1"/>
</svg>
