<svg width="24" height="24" viewBox="0 0 24 24" fill="none" xmlns="http://www.w3.org/2000/svg">
<path fill-rule="evenodd" clip-rule="evenodd" d="M20.3733 0.0368098C19.9229 0.107202 19.4078 0.32397 19.023 0.604986C18.8849 0.705882 17.4391 2.13986 14.064 5.52376L9.3 10.3001L9.024 10.2159C8.39842 10.025 7.76285 9.93551 7.032 9.93549C5.38817 9.93544 3.86969 10.4727 2.58022 11.5107C1.51606 12.3673 0.660984 13.6533 0.277056 14.9747C0.081288 15.6485 0 16.233 0 16.967C0 17.5038 0.03792 17.9086 0.131448 18.3706C0.555048 20.4627 1.93766 22.2808 3.83314 23.2383C4.87594 23.765 5.85994 23.999 7.032 23.999C8.17543 23.999 9.16123 23.7704 10.1515 23.2756C11.1639 22.7698 11.9775 22.0986 12.6364 21.2259C13.5823 19.9728 14.0631 18.5382 14.0638 16.967C14.064 16.2472 13.9732 15.6005 13.7843 14.9767L13.7012 14.7024L14.0566 14.3451C14.2521 14.1485 14.6773 13.7299 15.0016 13.4147L15.5913 12.8418L16.3044 13.0313C16.7574 13.1517 17.1057 13.2305 17.2592 13.2474C17.9451 13.3229 18.6699 13.0495 19.1532 12.5332C19.5736 12.084 19.7713 11.6105 19.7938 10.9991C19.8076 10.6247 19.7889 10.5231 19.538 9.61103L19.373 9.01103L19.4639 8.92259L19.5548 8.83415L19.8634 8.91724C21.1105 9.25305 21.0807 9.24679 21.444 9.24899C21.8361 9.25137 22.0491 9.21079 22.3703 9.07247C22.6416 8.95564 22.887 8.79004 23.0986 8.581C23.489 8.19527 23.7194 7.71705 23.7845 7.15694C23.831 6.75715 23.8017 6.58888 23.4768 5.38754L23.3601 4.95607L23.4655 4.79954C24.174 3.74704 24.1273 2.29461 23.3513 1.24799C22.6729 0.333114 21.5082 -0.140622 20.3733 0.0368098ZM20.4532 1.55949C20.357 1.58467 20.2004 1.64483 20.1052 1.69315C19.9408 1.77657 19.6788 2.03464 14.928 6.79305C11.1839 10.5432 9.89681 11.8183 9.816 11.8577C9.68422 11.9218 9.42806 11.9446 9.29738 11.9039C9.24602 11.8879 9.0906 11.8331 8.952 11.7821C7.58383 11.2793 6.10642 11.3265 4.776 11.9156C3.59078 12.4405 2.5685 13.4394 2.02699 14.602C1.36116 16.0314 1.32079 17.6179 1.91335 19.067C2.47102 20.4309 3.56813 21.528 4.932 22.0857C6.05724 22.5458 7.23259 22.6248 8.43115 22.321C10.1918 21.8747 11.665 20.5103 12.2557 18.779C12.6792 17.5378 12.666 16.2689 12.2169 15.047C12.0734 14.6567 12.0651 14.621 12.0775 14.4473C12.0981 14.1601 12.0976 14.1607 13.5547 12.722C14.4204 11.8672 14.9247 11.3867 15.0038 11.3413C15.0973 11.2875 15.1644 11.269 15.2966 11.2605C15.4558 11.2503 15.5375 11.2679 16.4384 11.5072C17.3027 11.7367 17.4237 11.7634 17.5447 11.7508C17.7319 11.7312 17.8825 11.661 18.0266 11.5263C18.2307 11.3354 18.3281 11.065 18.2866 10.8049C18.2766 10.7423 18.1595 10.2852 18.0262 9.78914C17.7629 8.80879 17.7484 8.71154 17.8318 8.48995C17.8923 8.32907 17.9649 8.24875 18.48 7.77323C18.9359 7.35232 19.0565 7.27514 19.2914 7.25385C19.4109 7.24303 19.5492 7.27365 20.3983 7.49918C21.2809 7.73359 21.3828 7.75583 21.5263 7.74527C21.9278 7.71575 22.2569 7.38458 22.2896 6.97711C22.3007 6.83851 22.2783 6.73739 22.043 5.86583C21.703 4.60617 21.703 4.59031 22.0408 4.18696C22.2429 3.94576 22.3022 3.84518 22.3812 3.60957C22.5035 3.24539 22.4816 2.78577 22.3257 2.44511C22.1283 2.01395 21.7248 1.67383 21.2737 1.55843C21.0315 1.49649 20.6919 1.49692 20.4532 1.55949ZM5.69863 15.2273C4.33274 15.4775 3.37296 16.7489 3.52565 18.1058C3.59642 18.7348 3.8569 19.2824 4.2888 19.71C5.13955 20.5523 6.39718 20.7287 7.44521 20.1528C8.69362 19.4667 9.1687 17.8933 8.51189 16.6199C8.13458 15.8884 7.42754 15.3699 6.61356 15.228C6.36252 15.1842 5.93549 15.1839 5.69863 15.2273ZM5.80229 16.7482C5.30825 16.9113 4.98845 17.3899 5.02253 17.915C5.03789 18.1516 5.10588 18.3382 5.24342 18.5212C5.64835 19.0599 6.41638 19.1379 6.92227 18.6917C7.1935 18.4525 7.31042 18.1589 7.29077 17.7661C7.28093 17.5696 7.26679 17.5043 7.20456 17.3681C7.0987 17.1363 6.88267 16.9174 6.64855 16.8047C6.47995 16.7235 6.4505 16.7173 6.204 16.7102C5.99436 16.7043 5.91163 16.7121 5.80229 16.7482Z" fill="#4E50D1"/>
</svg>
