<svg width="24" height="24" viewBox="0 0 24 24" fill="none" xmlns="http://www.w3.org/2000/svg">
<path d="M4.5 18H3V18.75C3 18.9489 3.07907 19.1396 3.21973 19.2803C3.36038 19.4209 3.55109 19.5 3.75 19.5C3.94891 19.5 4.13962 19.4209 4.28027 19.2803C4.42093 19.1396 4.5 18.9489 4.5 18.75V18ZM21 18H19.5V18.75C19.5 18.9489 19.5791 19.1396 19.7197 19.2803C19.8604 19.4209 20.0511 19.5 20.25 19.5C20.4489 19.5 20.6396 19.4209 20.7803 19.2803C20.9209 19.1396 21 18.9489 21 18.75V18ZM7.55762 4.5C7.25226 4.49968 6.95422 4.59282 6.70312 4.7666C6.48317 4.91887 6.3083 5.12673 6.19629 5.36816L6.15234 5.47266L4.83105 9H19.166L17.8447 5.47266C17.7376 5.187 17.5456 4.94042 17.2949 4.7666C17.0443 4.59291 16.7464 4.50009 16.4414 4.5H7.55762ZM22.5 13.5H19.3711C19.1724 13.5001 18.9814 13.5784 18.8408 13.7188L18.8418 13.7197L17.7803 14.7803C17.4874 15.0732 17.0126 15.0732 16.7197 14.7803C16.4268 14.4874 16.4268 14.0126 16.7197 13.7197L17.7803 12.6582H17.7812C18.203 12.2369 18.7749 12.0001 19.3711 12H21.4395L19.9395 10.5H4.06055L2.56055 12H4.62891C5.22523 12.0001 5.79793 12.2367 6.21973 12.6582L7.28027 13.7197C7.57317 14.0126 7.57317 14.4874 7.28027 14.7803C6.98738 15.0731 6.5126 15.0731 6.21973 14.7803L5.15918 13.7197C5.01858 13.5792 4.82768 13.5 4.62891 13.5H1.5V15.75C1.5 15.9489 1.57907 16.1396 1.71973 16.2803C1.78937 16.3499 1.8719 16.4057 1.96289 16.4434C2.05386 16.481 2.15154 16.5 2.25 16.5H21.75C21.9489 16.5 22.1396 16.4209 22.2803 16.2803C22.4209 16.1396 22.5 15.9489 22.5 15.75V13.5ZM24 15.75C24 16.3467 23.7628 16.9189 23.3408 17.3408C23.1015 17.5801 22.813 17.7573 22.5 17.8682V18.75C22.5 19.3467 22.2628 19.9189 21.8408 20.3408C21.4189 20.7628 20.8467 21 20.25 21C19.6533 21 19.0811 20.7628 18.6592 20.3408C18.2372 19.9189 18 19.3467 18 18.75V18H6V18.75C6 19.3467 5.76278 19.9189 5.34082 20.3408C4.91886 20.7628 4.34674 21 3.75 21C3.15326 21 2.58114 20.7628 2.15918 20.3408C1.73722 19.9189 1.5 19.3467 1.5 18.75V17.8682C1.463 17.8551 1.42502 17.8442 1.38867 17.8291C1.11574 17.716 0.868082 17.5497 0.65918 17.3408C0.237223 16.9189 0 16.3467 0 15.75V13.498L0.0126953 13.2461C0.0392122 12.98 0.109286 12.7221 0.214844 12.4795C0.224412 12.4548 0.236028 12.4315 0.248047 12.4082C0.372546 12.1445 0.538948 11.8997 0.749023 11.6895H0.75L2.68945 9.75L1.93945 9H0.75C0.335786 9 0 8.66421 0 8.25C0 7.83579 0.335786 7.5 0.75 7.5H2.25C2.44891 7.5 2.63962 7.57907 2.78027 7.71973L3.45605 8.39551L4.74805 4.94727C4.96247 4.37491 5.34614 3.88115 5.84863 3.5332C6.35089 3.18551 6.94776 3.00046 7.55859 3.00098L16.4414 3C17.0518 3.00009 17.6477 3.18643 18.1494 3.53418C18.6513 3.88208 19.0348 4.37544 19.249 4.94727L20.541 8.39746L21.2197 7.71973L21.334 7.62598C21.4563 7.54445 21.6008 7.5 21.75 7.5H23.25C23.6642 7.5 24 7.83579 24 8.25C24 8.66421 23.6642 9 23.25 9H22.0605L21.3105 9.75L23.25 11.6895H23.251C23.4611 11.8997 23.6275 12.1445 23.752 12.4082C23.7642 12.4319 23.7764 12.4554 23.7861 12.4805C23.9244 12.7988 23.9997 13.1443 24 13.498V15.75Z" fill="#4E50D1"/>
</svg>
