<svg width="24" height="24" viewBox="0 0 24 24" fill="none" xmlns="http://www.w3.org/2000/svg">
<g clip-path="url(#clip0_8366_23655)">
<path d="M8 19.2107H16C16 19.2107 16.25 19.2107 16.25 19.4607V23.2107C16.25 23.2107 16.25 23.4607 16 23.4607H8C8 23.4607 7.75 23.4607 7.75 23.2107V19.4607C7.75 19.4607 7.75 19.2107 8 19.2107Z" fill="#4E50D1"/>
<path d="M0.75 19.2107C0.683696 19.2107 0.620107 19.237 0.573223 19.2839C0.526339 19.3308 0.5 19.3944 0.5 19.4607V22.4607C0.5 22.7259 0.605357 22.9803 0.792893 23.1678C0.98043 23.3553 1.23478 23.4607 1.5 23.4607H6C6.0663 23.4607 6.12989 23.4344 6.17678 23.3875C6.22366 23.3406 6.25 23.277 6.25 23.2107V19.4607C6.25 19.3944 6.22366 19.3308 6.17678 19.2839C6.12989 19.237 6.0663 19.2107 6 19.2107H0.75Z" fill="#4E50D1"/>
<path d="M23.25 17.7107C23.3163 17.7107 23.3799 17.6844 23.4268 17.6375C23.4737 17.5906 23.5 17.527 23.5 17.4607V14.4607C23.5 14.1955 23.3946 13.9411 23.2071 13.7536C23.0196 13.5661 22.7652 13.4607 22.5 13.4607H13C12.9337 13.4607 12.8701 13.487 12.8232 13.5339C12.7763 13.5808 12.75 13.6444 12.75 13.7107V17.4607C12.75 17.527 12.7763 17.5906 12.8232 17.6375C12.8701 17.6844 12.9337 17.7107 13 17.7107H23.25Z" fill="#4E50D1"/>
<path d="M17.75 23.2107C17.75 23.277 17.7763 23.3406 17.8232 23.3875C17.8701 23.4344 17.9337 23.4607 18 23.4607H22.5C22.7652 23.4607 23.0196 23.3553 23.2071 23.1678C23.3946 22.9803 23.5 22.7259 23.5 22.4607V19.4607C23.5 19.3944 23.4737 19.3308 23.4268 19.2839C23.3799 19.237 23.3163 19.2107 23.25 19.2107H18C17.9337 19.2107 17.8701 19.237 17.8232 19.2839C17.7763 19.3308 17.75 19.3944 17.75 19.4607V23.2107Z" fill="#4E50D1"/>
<path d="M11 17.7107C11.0663 17.7107 11.1299 17.6844 11.1768 17.6375C11.2237 17.5906 11.25 17.527 11.25 17.4607V13.7107C11.25 13.6444 11.2237 13.5808 11.1768 13.5339C11.1299 13.487 11.0663 13.4607 11 13.4607H1.5C1.23478 13.4607 0.98043 13.5661 0.792893 13.7536C0.605357 13.9411 0.5 14.1955 0.5 14.4607V17.4607C0.5 17.527 0.526339 17.5906 0.573223 17.6375C0.620107 17.6844 0.683696 17.7107 0.75 17.7107H11Z" fill="#4E50D1"/>
<path d="M17.63 4.7307H17.37L15.79 6.7307C15.7614 6.76506 15.7238 6.79076 15.6814 6.80489C15.639 6.81903 15.5935 6.82104 15.55 6.8107C15.5026 6.80664 15.458 6.78662 15.4235 6.75392C15.389 6.72123 15.3666 6.67778 15.36 6.6307C14.8747 4.85387 14.9164 2.97427 15.48 1.2207C15.5054 1.13944 15.5105 1.05318 15.4949 0.969481C15.4792 0.885787 15.4432 0.807227 15.39 0.740704C15.3348 0.677535 15.2648 0.62897 15.1863 0.599316C15.1078 0.569661 15.0232 0.559834 14.94 0.570704C13.5126 0.76082 12.1467 1.27162 10.9448 2.06482C9.74285 2.85801 8.7361 3.913 8 5.1507C7.98037 5.18246 7.95413 5.20961 7.92307 5.23031C7.89201 5.25102 7.85686 5.2648 7.82 5.2707C7.78204 5.27454 7.74369 5.27028 7.7075 5.25821C7.6713 5.24615 7.63807 5.22655 7.61 5.2007L6.54 4.1307C6.48944 4.08342 6.42943 4.04739 6.36393 4.02498C6.29843 4.00258 6.22893 3.9943 6.16 4.0007C6.09252 4.00547 6.0267 4.02388 5.96654 4.05482C5.90638 4.08576 5.85313 4.12858 5.81 4.1807C4.64917 5.51892 4.00694 7.22918 4 9.0007C4.00092 9.77806 4.12236 10.5506 4.36 11.2907C4.3769 11.3408 4.40924 11.3842 4.45236 11.4147C4.49548 11.4453 4.54716 11.4614 4.6 11.4607H8C8.05849 11.4619 8.11554 11.4425 8.16121 11.406C8.20689 11.3694 8.23831 11.318 8.25 11.2607C8.38614 10.4796 8.6958 9.73899 9.15616 9.09345C9.61652 8.4479 10.2159 7.91387 10.91 7.5307C10.9916 7.4721 11.0895 7.44058 11.19 7.44058C11.2905 7.44058 11.3884 7.4721 11.47 7.5307C11.5485 7.59385 11.6066 7.67884 11.6368 7.77495C11.6671 7.87105 11.6682 7.97397 11.64 8.0707C11.3491 9.03374 11.4386 10.0717 11.89 10.9707C11.9111 11.0113 11.9425 11.0457 11.9812 11.0703C12.0198 11.0949 12.0642 11.1088 12.11 11.1107C12.3311 11.1009 12.5461 11.0352 12.735 10.9198C12.9239 10.8044 13.0804 10.643 13.19 10.4507C13.2272 10.3875 13.2778 10.3332 13.3383 10.2917C13.3988 10.2503 13.4676 10.2226 13.54 10.2107C13.6137 10.2012 13.6886 10.2079 13.7594 10.2304C13.8302 10.2528 13.8953 10.2905 13.95 10.3407C14.2346 10.5993 14.4598 10.9166 14.61 11.2707C14.6284 11.3162 14.6603 11.355 14.7014 11.3818C14.7426 11.4087 14.7909 11.4222 14.84 11.4207H18.42C18.4725 11.4199 18.5235 11.4032 18.5663 11.3729C18.6092 11.3426 18.6418 11.3 18.66 11.2507C19.01 10.1541 19.1019 8.9915 18.9284 7.85357C18.7549 6.71564 18.3208 5.63318 17.66 4.6907L17.63 4.7307Z" fill="#4E50D1"/>
</g>
<defs>
<clipPath id="clip0_8366_23655">
<rect width="24" height="24" fill="white"/>
</clipPath>
</defs>
</svg>
