<svg width="24" height="24" viewBox="0 0 24 24" fill="none" xmlns="http://www.w3.org/2000/svg">
<g clip-path="url(#clip0_8366_23235)">
<path d="M8.9406 6.62163C8.9406 4.57676 10.5822 2.93321 12.5897 2.93321C14.5973 2.93321 16.2389 4.57676 16.2389 6.62163C16.2389 7.01571 16.1781 7.39352 16.0662 7.74701C15.9031 8.26214 16.1885 8.81191 16.7037 8.97496C17.2188 9.13801 17.7686 8.8526 17.9316 8.33748C18.1033 7.79511 18.1955 7.21825 18.1955 6.62163C18.1955 3.51176 15.6935 0.976562 12.5897 0.976562C9.48597 0.976562 6.98395 3.51176 6.98395 6.62163C6.98395 8.20805 7.63464 9.64315 8.68186 10.6688L5.97379 15.2479C5.84758 15.2273 5.71804 15.2166 5.58601 15.2166C4.26524 15.2166 3.19455 16.2873 3.19455 17.6081C3.19455 18.9289 4.26524 19.9996 5.58601 19.9996C6.90678 19.9996 7.97747 18.9289 7.97747 17.6081C7.97747 17.1379 7.84175 16.6993 7.60735 16.3295L10.7885 10.9505C11.0483 10.5112 10.9267 9.94583 10.5091 9.65222C9.56095 8.98561 8.9406 7.87809 8.9406 6.62163Z" fill="#4E50D1"/>
<path d="M20.1881 14.3753C21.959 15.3977 22.5616 17.6411 21.5578 19.3797C20.554 21.1184 18.3098 21.7182 16.5389 20.6958C16.3442 20.5833 16.1641 20.4565 15.999 20.3176C15.5854 19.9699 14.9683 20.0232 14.6205 20.4367C14.2728 20.8502 14.3261 21.4673 14.7396 21.8151C14.9921 22.0274 15.2661 22.2203 15.5606 22.3903C18.2538 23.9452 21.7004 23.046 23.2523 20.3581C24.8042 17.6701 23.8596 14.2357 21.1664 12.6808C19.7925 11.8876 18.2243 11.7335 16.8125 12.1276L14.4938 8.01267C14.7713 7.62213 14.9345 7.14467 14.9345 6.62911C14.9345 5.30834 13.8638 4.23765 12.543 4.23765C11.2222 4.23765 10.1515 5.30834 10.1515 6.62911C10.1515 7.94988 11.2222 9.02057 12.543 9.02057C12.6325 9.02057 12.7208 9.01566 12.8077 9.00609L15.5152 13.8111C15.7658 14.2559 16.3162 14.4332 16.7793 14.2183C17.8306 13.7305 19.0999 13.7471 20.1881 14.3753Z" fill="#4E50D1"/>
<path d="M2.44224 19.3872C3.44603 21.1258 5.69016 21.7257 7.46107 20.7032C8.5492 20.075 9.19816 18.984 9.30141 17.8296C9.34688 17.3212 9.77564 16.9331 10.2861 16.9385L15.9912 16.9982C16.2609 15.9729 17.1942 15.2166 18.3042 15.2166C19.625 15.2166 20.6957 16.2873 20.6957 17.6081C20.6957 18.9289 19.625 19.9996 18.3042 19.9996C17.4846 19.9996 16.7612 19.5872 16.3303 18.9585L11.0954 18.9037C10.7308 20.3235 9.81328 21.6045 8.43939 22.3977C5.74617 23.9527 2.29961 23.0535 0.747727 20.3655C-0.80416 17.6776 0.140373 14.2432 2.8336 12.6882C3.35029 12.3899 3.89599 12.1814 4.45153 12.0589C4.97917 11.9425 5.50123 12.2759 5.61758 12.8036C5.73394 13.3312 5.40053 13.8533 4.87289 13.9696C4.51081 14.0495 4.15321 14.1857 3.81193 14.3827C2.04102 15.4052 1.43844 17.6486 2.44224 19.3872Z" fill="#4E50D1"/>
</g>
<defs>
<clipPath id="clip0_8366_23235">
<rect width="24" height="24" fill="white"/>
</clipPath>
</defs>
</svg>
