<svg width="24" height="24" viewBox="0 0 24 24" fill="none" xmlns="http://www.w3.org/2000/svg">
<g clip-path="url(#clip0_8366_23249)">
<path fill-rule="evenodd" clip-rule="evenodd" d="M8.62483 0.0163719C7.84711 0.150228 7.16822 0.705203 6.89266 1.43234C6.75162 1.80447 6.75232 1.79632 6.74223 3.19025L6.73289 4.4793L5.03542 4.48973C3.60374 4.49854 3.30436 4.50628 3.12356 4.53926C1.54152 4.82767 0.372744 5.97267 0.0425286 7.55759C0.00261751 7.74916 0 8.06966 0 12.7576V17.7535L0.0537671 17.9962C0.231062 18.7963 0.603205 19.4568 1.18252 19.9994C1.77652 20.5558 2.54084 20.9021 3.35448 20.9834C3.54411 21.0023 4.4668 21.0084 6.41171 21.0033L9.19732 20.996L9.30538 20.94C9.47072 20.8543 9.63473 20.6808 9.68989 20.5334C9.83244 20.1523 9.65706 19.7306 9.2843 19.5582C9.17628 19.5082 9.14069 19.5067 7.9546 19.4995L6.73589 19.4921V12.7442V5.99637H10.4809H14.226L14.2331 7.5756L14.2402 9.15483L14.3027 9.28804C14.4375 9.57556 14.6462 9.72107 14.9477 9.73788C15.1918 9.7515 15.3545 9.69073 15.5215 9.52368C15.7505 9.29464 15.7411 9.37873 15.7411 7.56695V5.99289L16.6716 6.00218C17.5496 6.01095 17.613 6.01455 17.7943 6.06576C18.2018 6.18091 18.5444 6.37825 18.8264 6.66027C19.1168 6.95075 19.28 7.22944 19.408 7.65366C19.4653 7.84355 19.4707 7.90401 19.4857 8.51833C19.5003 9.11866 19.5063 9.18908 19.5524 9.29116C19.62 9.44108 19.7702 9.59989 19.9119 9.67149C20.0649 9.74879 20.3225 9.76483 20.4943 9.70776C20.6575 9.65355 20.8565 9.47017 20.9309 9.30543C20.9844 9.18704 20.9886 9.14575 20.9958 8.66778C21.0073 7.91349 20.9585 7.5218 20.7917 7.02918C20.3932 5.85142 19.3951 4.9249 18.1905 4.61439C17.763 4.50416 17.7269 4.50217 15.9527 4.4905L14.2552 4.4793L14.2459 3.19025C14.2378 2.07396 14.2311 1.88027 14.1957 1.74507C13.9762 0.906408 13.4249 0.326981 12.6024 0.0703419L12.3912 0.00443467L10.5661 0.000399535C9.56233 -0.00181018 8.68875 0.0053714 8.62483 0.0163719ZM8.74581 1.53923C8.53612 1.61479 8.37429 1.77545 8.29341 1.98835C8.25208 2.09713 8.24877 2.19405 8.24877 3.29454V4.4832H10.4941H12.7394V3.29518C12.7394 2.15425 12.7374 2.10191 12.6899 1.97485C12.6327 1.82212 12.4826 1.65541 12.3278 1.57281L12.2231 1.51689L10.5301 1.51161C9.14715 1.50731 8.8204 1.51237 8.74581 1.53923ZM3.34739 6.03375C2.42127 6.20147 1.69701 6.92532 1.52027 7.85993C1.49508 7.99312 1.48886 8.96193 1.48886 12.7576C1.48886 17.2402 1.49117 17.5 1.53249 17.6918C1.71224 18.526 2.29928 19.1606 3.1269 19.4154L3.33793 19.4804L4.28047 19.4894L5.22302 19.4983V12.7473V5.99637L4.37653 5.99853C3.77054 6.00007 3.47815 6.01009 3.34739 6.03375ZM16.7497 10.513C16.1688 10.5535 15.4592 10.706 14.9093 10.9086C14.6104 11.0187 13.9127 11.3602 13.6753 11.5127C12.6002 12.2032 11.8035 13.0687 11.2472 14.1507C10.8666 14.8911 10.6565 15.5601 10.5384 16.4085C10.4827 16.808 10.4832 17.6924 10.5394 18.1018C10.7355 19.5314 11.3362 20.82 12.2779 21.8312C13.3523 22.9849 14.7056 23.7003 16.2694 23.9413C16.7757 24.0193 17.712 24.0196 18.2145 23.9419C19.6955 23.7128 20.9813 23.0659 22.0195 22.0276C24.2016 19.845 24.6305 16.448 23.0569 13.8116C22.5008 12.88 21.6459 12.0142 20.7552 11.4806C19.5298 10.7466 18.1567 10.4148 16.7497 10.513ZM16.8277 12.0186C16.7716 12.0237 16.7257 12.0324 16.7257 12.038C16.7257 12.0435 16.9695 12.3742 17.2675 12.7728C17.5836 13.1954 17.8474 13.5735 17.9005 13.68C18.0905 14.0607 18.1556 14.3739 18.136 14.8144C18.1177 15.2262 18.0415 15.484 17.8281 15.8572C17.6439 16.1792 17.4536 16.3541 16.5621 17.0209L15.7433 17.6334L15.742 17.9337C15.7405 18.2959 15.7127 18.4819 15.621 18.7457C15.4259 19.3065 15.0226 19.7587 14.4804 20.0243C14.1291 20.1964 13.9216 20.2407 13.3931 20.2567L12.9542 20.2699L12.9948 20.3327C13.1577 20.5846 13.6306 21.0825 13.9537 21.3425C15.4594 22.554 17.5032 22.8366 19.3013 22.082C19.4769 22.0083 19.5329 21.9742 19.5247 21.9462C19.3953 21.5019 19.0255 19.9529 19.0043 19.7661C18.9398 19.1984 19.1272 18.5896 19.5127 18.1143C19.7849 17.7787 19.9136 17.6987 21.2972 17.0052L22.4227 16.4411L22.4069 16.3167C22.3982 16.2483 22.3582 16.068 22.318 15.9161C21.99 14.6744 21.2186 13.5981 20.1356 12.8712C19.6441 12.5412 18.894 12.2314 18.2914 12.1094C17.8345 12.0169 17.2497 11.9806 16.8277 12.0186ZM14.8249 12.5954C13.2606 13.4024 12.1953 14.9814 12.0196 16.7533C11.961 17.3444 12.0256 18.1195 12.1757 18.6248L12.2129 18.7503H12.9201C13.56 18.7503 13.639 18.7459 13.749 18.7041C13.9345 18.6336 14.0699 18.5089 14.1602 18.3254L14.2387 18.1659L14.2518 17.5994C14.2659 16.9898 14.2679 16.9798 14.4136 16.7852C14.4464 16.7414 14.8855 16.3968 15.3893 16.0196C16.355 15.2964 16.487 15.1869 16.5568 15.0514C16.6611 14.8487 16.6665 14.5664 16.5697 14.3791C16.5099 14.2634 15.161 12.4701 15.1277 12.4621C15.111 12.4581 14.9748 12.518 14.8249 12.5954ZM21.596 18.5468C20.7476 18.9729 20.6786 19.0202 20.575 19.2465C20.4659 19.485 20.4715 19.5515 20.6644 20.3115C20.7599 20.688 20.8457 21.0102 20.8549 21.0275C20.8846 21.0834 21.3452 20.5615 21.5926 20.1914C21.9596 19.6427 22.2294 19.0165 22.369 18.3899C22.4237 18.1442 22.423 18.1494 22.399 18.1511C22.389 18.1518 22.0277 18.3299 21.596 18.5468Z" fill="#4E50D1"/>
</g>
<defs>
<clipPath id="clip0_8366_23249">
<rect width="24" height="24" fill="white"/>
</clipPath>
</defs>
</svg>
