<svg width="24" height="24" viewBox="0 0 24 24" fill="none" xmlns="http://www.w3.org/2000/svg">
<path d="M23.7366 3.04186C23.5584 2.72576 23.2995 2.46271 22.9862 2.27964C22.6729 2.09657 22.3166 2.00006 21.9538 2H2.04588C1.68324 2.00018 1.32715 2.09669 1.01406 2.27968C0.700963 2.46266 0.442104 2.72554 0.263968 3.04142C0.0858322 3.3573 -0.00518563 3.71483 0.000228159 4.07743C0.00564195 4.44003 0.107293 4.79469 0.29478 5.10511L10.2487 21.5517C10.4311 21.853 10.688 22.1021 10.9948 22.275C11.3015 22.4479 11.6477 22.5387 11.9998 22.5387C12.352 22.5387 12.6981 22.4479 13.0049 22.275C13.3116 22.1021 13.5686 21.853 13.7509 21.5517L23.7049 5.10511C23.8924 4.79482 23.9942 4.44029 23.9998 4.07777C24.0053 3.71526 23.9145 3.35776 23.7366 3.04186V3.04186Z" fill="#4E50D1"/>
</svg>
