<svg width="24" height="24" viewBox="0 0 24 24" fill="none" xmlns="http://www.w3.org/2000/svg">
<path fill-rule="evenodd" clip-rule="evenodd" d="M2.28931 0.0353211C1.72481 0.130334 1.22733 0.38095 0.822503 0.774277C0.182986 1.39563 -0.107546 2.31479 0.0359939 3.26262C0.0968432 3.66444 0.21461 3.96854 0.448585 4.32802C0.534728 4.46041 1.43622 5.37732 4.45186 8.39976L8.34396 12.3006L8.35026 17.8579L8.35657 23.4151L8.42085 23.5524C8.50594 23.7341 8.66942 23.8906 8.84276 23.9561C9.02126 24.0236 9.26089 24.0124 9.43419 23.9286C9.5262 23.8841 10.2083 23.231 12.478 21.0146C14.0869 19.4434 15.4384 18.1117 15.4813 18.0553C15.5241 17.9988 15.5728 17.9124 15.5895 17.8633C15.6131 17.7938 15.6214 17.1631 15.627 15.0372L15.6342 12.3006L19.526 8.39976C22.5387 5.37996 23.4429 4.46029 23.529 4.32802C23.7553 3.98045 23.8744 3.68065 23.9284 3.3222C23.9443 3.21682 23.967 3.11184 23.9789 3.08892C24.0066 3.03527 24.0072 2.43941 23.9795 2.45657C23.968 2.46367 23.9512 2.40385 23.9421 2.3236C23.9173 2.10453 23.8202 1.78932 23.6997 1.53743C23.3113 0.724946 22.5766 0.181513 21.667 0.0338087C21.4748 0.00260181 20.2513 -0.00162313 11.9649 0.000441331C4.10506 0.00238576 2.44954 0.00833908 2.28931 0.0353211ZM2.38672 1.55505C2.17234 1.61672 2.00815 1.71644 1.85066 1.88068C1.61031 2.1313 1.51162 2.39507 1.51162 2.78693C1.51162 3.04187 1.55663 3.24702 1.64759 3.40665C1.68619 3.47437 3.205 5.0147 5.71883 7.53557C8.96832 10.7941 9.73937 11.5792 9.78579 11.6765L9.84304 11.7965L9.85503 16.627L9.86701 21.4574L11.9945 19.3804L14.122 17.3035L14.1283 14.55L14.1346 11.7965L14.1919 11.6765C14.2383 11.5792 15.0093 10.7941 18.2588 7.53557C20.7727 5.0147 22.2915 3.47437 22.3301 3.40665C22.5142 3.08337 22.5139 2.51353 22.3293 2.1488C22.2457 1.98366 22.0129 1.74702 21.8474 1.65899C21.5434 1.49724 22.4038 1.51006 11.9734 1.51194C3.10886 1.51354 2.52178 1.51619 2.38672 1.55505ZM0.0105801 2.78251C0.0105801 2.96075 0.0143442 3.03368 0.0189714 2.94455C0.0235747 2.85542 0.0235747 2.70961 0.0189714 2.62048C0.0143442 2.53135 0.0105801 2.60427 0.0105801 2.78251Z" fill="#4E50D1"/>
</svg>
