<svg width="24" height="24" viewBox="0 0 24 24" fill="none" xmlns="http://www.w3.org/2000/svg">
<g clip-path="url(#clip0_8366_23578)">
<path fill-rule="evenodd" clip-rule="evenodd" d="M11.0291 0.0328757C9.43765 0.167749 8.00492 0.569848 6.60549 1.27434C2.54938 3.31623 0 7.45521 0 11.9985C0 14.2779 0.628229 16.4576 1.84374 18.3953C2.78558 19.8968 4.09867 21.2113 5.59848 22.1542C7.53407 23.3711 9.7113 24 11.9882 24C13.8754 24 15.6878 23.5699 17.3709 22.7226C19.4885 21.6566 21.2471 19.983 22.4225 17.9152C23.2815 16.404 23.8435 14.5475 23.943 12.8919C23.952 12.743 23.9686 12.6154 23.9798 12.6084C23.9911 12.6014 24.0002 12.3128 24 11.9671C23.9998 11.6213 23.9906 11.3526 23.9796 11.37C23.9679 11.3885 23.9529 11.2847 23.9434 11.1179C23.8487 9.46684 23.2842 7.59755 22.4225 6.08174C21.4457 4.36341 20.0341 2.88396 18.3779 1.84275C16.9111 0.920628 15.2979 0.332602 13.6066 0.103565C12.8365 -0.00072852 11.7705 -0.0299642 11.0291 0.0328757ZM11.2449 1.52428C9.79291 1.65267 8.64468 1.96087 7.42059 2.55082C5.31645 3.56487 3.56395 5.31933 2.55101 7.42581C2.02598 8.51766 1.71683 9.58313 1.56551 10.8223C1.50493 11.3185 1.50493 12.6784 1.56551 13.1746C1.84553 15.4679 2.76148 17.4603 4.30776 19.1398C5.84388 20.8082 7.93143 21.9443 10.19 22.3409C10.8311 22.4535 11.1225 22.4753 11.9882 22.4753C12.8539 22.4753 13.1453 22.4535 13.7864 22.3409C16.0449 21.9443 18.1325 20.8082 19.6686 19.1398C21.2157 17.4595 22.1263 15.4783 22.4104 13.1746C22.4718 12.6774 22.4718 11.3196 22.4104 10.8223C22.2766 9.73723 22.0342 8.82459 21.624 7.86192C20.5868 5.42756 18.6093 3.43466 16.1837 2.37912C15.2171 1.95854 14.2542 1.6977 13.187 1.56741C12.8787 1.52975 11.5233 1.49968 11.2449 1.52428ZM11.3194 6.03572C10.7742 6.18248 10.4141 6.73296 10.5021 7.28482C10.5483 7.57434 10.6471 7.75487 10.8719 7.96057C11.4274 8.46881 12.2999 8.2849 12.6403 7.58783C12.717 7.43087 12.7194 7.41666 12.7194 7.12469C12.7195 6.82588 12.7188 6.82209 12.6311 6.64463C12.5304 6.44092 12.335 6.22957 12.1583 6.13329C11.9183 6.0025 11.5862 5.96388 11.3194 6.03572ZM10.2857 9.77352C10.0299 9.84524 9.80795 10.0868 9.75491 10.3511C9.69559 10.6468 9.82396 10.9545 10.0762 11.1211C10.2482 11.2348 10.3526 11.2531 10.8304 11.2538L11.2432 11.2544L11.2507 13.3367L11.2582 15.4189L11.3125 15.5989C11.502 16.2276 11.9253 16.731 12.5037 17.0158C12.9068 17.2143 13.0653 17.242 13.7984 17.2426L14.4218 17.2431L14.5588 17.1758C14.8126 17.051 14.9852 16.7771 14.9852 16.4991C14.9852 16.221 14.8126 15.9471 14.5588 15.8223C14.4233 15.7557 14.4155 15.7548 13.8583 15.7425C13.3925 15.7321 13.2786 15.7226 13.2008 15.6879C13.0346 15.6137 12.907 15.4885 12.8226 15.3168L12.7434 15.156L12.7315 13.0312C12.7182 10.6763 12.7305 10.8555 12.5592 10.5309C12.3963 10.2221 12.0527 9.93365 11.7143 9.8215C11.5299 9.76039 11.4938 9.75701 10.9572 9.75029C10.5574 9.74527 10.3624 9.75202 10.2857 9.77352ZM0.0104777 11.9985C0.0104777 12.3483 0.0138344 12.4915 0.0179104 12.3165C0.0220103 12.1416 0.0220103 11.8554 0.0179104 11.6804C0.0138344 11.5055 0.0104777 11.6486 0.0104777 11.9985Z" fill="#4E50D1"/>
</g>
<defs>
<clipPath id="clip0_8366_23578">
<rect width="24" height="24" fill="white"/>
</clipPath>
</defs>
</svg>
