<svg width="24" height="24" viewBox="0 0 24 24" fill="none" xmlns="http://www.w3.org/2000/svg">
<path fill-rule="evenodd" clip-rule="evenodd" d="M9.46438 3.53003C11.2597 3.72156 12.8193 4.36735 14.1897 5.48674C15.2555 6.35741 16.159 7.59358 16.6673 8.87675C16.7561 9.10121 16.8374 9.29485 16.8477 9.3071C16.858 9.31934 17.0042 9.30184 17.1724 9.26819C17.572 9.18833 18.4056 9.15776 18.8447 9.20689C19.535 9.28412 20.2316 9.48161 20.7945 9.75972C22.3394 10.523 23.4338 11.8725 23.8341 13.5076C24.1612 14.8439 24.0041 16.1586 23.3675 17.4123C22.6549 18.8157 21.2677 19.9202 19.7204 20.3161C18.9676 20.5088 19.2705 20.4999 13.41 20.4999C7.70364 20.4999 7.81553 20.5026 6.98751 20.3457C4.48497 19.8715 2.29188 18.2934 1.05426 16.0763C-0.427409 13.4221 -0.341466 10.1039 1.27518 7.54666C2.89363 4.9866 5.65857 3.47909 8.69676 3.50022C8.98385 3.50221 9.32928 3.51564 9.46438 3.53003ZM9.2648 5.41637C9.29013 5.42129 9.43521 5.44164 9.5872 5.46156C12.2171 5.80627 14.46 7.77955 15.1272 10.3356C15.3172 11.0634 15.3644 11.6933 15.3173 12.8737C15.3066 13.1416 15.3126 13.1817 15.3851 13.3271C15.5633 13.6845 15.8736 13.8792 16.2655 13.8795C16.4554 13.8797 16.5263 13.865 16.6696 13.7957C16.86 13.7036 17.0264 13.5414 17.1244 13.3524C17.2291 13.1504 17.2894 12.5093 17.2701 11.8028L17.2539 11.2072L17.3508 11.1779C17.6736 11.0804 18.3847 11.0489 18.7993 11.1136C19.7537 11.2626 20.5492 11.6973 21.1656 12.4065C21.974 13.3368 22.2707 14.6785 21.9279 15.8531C21.7466 16.4741 21.4536 16.9749 21.0029 17.434C20.4363 18.0112 19.8124 18.3538 18.9829 18.5431C18.7903 18.5871 18.2348 18.5933 13.6249 18.6031C10.055 18.6107 8.35975 18.6039 8.08266 18.5808C5.29319 18.3484 2.92627 16.4288 2.17311 13.788C1.9941 13.1605 1.9439 12.7719 1.94279 12.0055C1.94169 11.244 1.9762 10.9522 2.13995 10.3377C2.84662 7.68593 5.13804 5.73112 7.88956 5.43272C8.15252 5.40419 9.14192 5.39243 9.2648 5.41637Z" fill="#4E50D1"/>
</svg>
