<svg width="24" height="24" viewBox="0 0 24 24" fill="none" xmlns="http://www.w3.org/2000/svg">
<g clip-path="url(#clip0_8366_23829)">
<path fill-rule="evenodd" clip-rule="evenodd" d="M17.1549 0.0235872C16.9958 0.0601681 16.5497 0.212085 16.2376 0.335966C14.6601 0.962067 13.1886 2.15736 12.2915 3.54139C12.0202 3.95991 11.6956 4.6212 11.569 5.01341C11.5456 5.08602 11.5188 5.15381 11.5095 5.16406C11.5002 5.1743 11.3899 5.12443 11.2644 5.05323C11.0314 4.92117 10.4653 4.64698 10.1416 4.50949C8.82239 3.94901 7.06971 3.50435 5.22637 3.26242C3.70168 3.06233 1.32642 2.93509 0.949646 3.03333C0.509767 3.14804 0.151194 3.49381 0.0433698 3.90732C0.00483897 4.05506 0.00210561 4.58498 0.000810859 12.1016C-0.000723659 21.0201 -0.0136712 20.3202 0.158075 20.6073C0.326368 20.8887 0.632481 21.1317 0.922529 21.2142C0.975278 21.2292 1.33673 21.2517 1.72575 21.2642C3.84495 21.3324 5.5198 21.5259 7.04861 21.8793C8.94461 22.3176 10.5966 23.0237 11.4124 23.7445C11.6226 23.9303 11.7797 24 11.9878 24C12.196 24 12.353 23.9303 12.5633 23.7445C13.3791 23.0237 15.0311 22.3176 16.9271 21.8793C18.4559 21.5259 20.1307 21.3324 22.2499 21.2642C22.639 21.2517 23.0004 21.2292 23.0532 21.2142C23.4518 21.1008 23.8527 20.6973 23.931 20.3307C23.9469 20.2564 23.969 20.1852 23.9801 20.1727C24.0039 20.1457 24.0078 4.0137 23.984 4.03756C23.975 4.04654 23.9505 3.98535 23.9294 3.9016C23.8236 3.48083 23.4164 3.10563 22.9718 3.01932C22.557 2.93876 20.1015 3.07695 18.8392 3.25191L18.7253 3.2677V2.15081C18.7253 1.1045 18.7223 1.02419 18.6777 0.87964C18.5495 0.463999 18.1587 0.113311 17.7231 0.0230591C17.5737 -0.00790513 17.2907 -0.0076411 17.1549 0.0235872ZM17.1309 1.60968C16.3891 1.86692 15.7024 2.23796 15.0812 2.71711C14.7868 2.94426 14.1305 3.59172 13.8971 3.88526C13.3656 4.55382 13.0322 5.24867 12.809 6.15357L12.7439 6.4176L12.7372 12.7845C12.7335 16.2862 12.7387 19.1508 12.7488 19.1502C12.7589 19.1495 12.8156 19.0894 12.875 19.0165C13.0587 18.7908 13.7356 18.1405 14.0379 17.8993C14.9895 17.1398 15.949 16.643 17.2089 16.2576C17.2329 16.2502 17.2389 14.7754 17.2385 8.91466C17.2383 4.88111 17.2301 1.58181 17.2205 1.58284C17.2107 1.58387 17.1704 1.59597 17.1309 1.60968ZM0.0112648 12.1184C0.0112648 16.5608 0.0140221 18.3781 0.0174028 16.1569C0.0207836 13.9357 0.0207836 10.301 0.0174028 8.07983C0.0140221 5.85864 0.0112648 7.67597 0.0112648 12.1184ZM1.50996 12.1272V19.745L1.95953 19.7613C5.73461 19.8978 8.65019 20.5045 10.8666 21.6147C11.061 21.7121 11.2255 21.7917 11.2323 21.7917C11.239 21.7917 11.2446 18.4289 11.2446 14.3189V6.84604L11.1906 6.7964C11.0911 6.70485 10.6599 6.43618 10.3574 6.27723C8.66484 5.38793 6.26208 4.80439 3.42811 4.59439C2.88103 4.55382 1.98115 4.50975 1.69578 4.50951L1.50996 4.50934V12.1272ZM21.6745 4.5261C20.8107 4.56081 19.1041 4.71419 18.7793 4.78632L18.7253 4.79829V10.9148V17.0314L18.6523 17.1777C18.5229 17.437 18.3777 17.5292 17.9307 17.6362C16.7694 17.914 15.7255 18.4423 14.8171 19.2119C14.55 19.4382 13.9678 20.0406 13.7899 20.2746C13.6157 20.5039 13.4586 20.7483 13.3199 21.0059C13.2125 21.2053 13.0428 21.5851 13.0428 21.6261C13.0428 21.6382 13.1372 21.6008 13.2526 21.5429C13.368 21.485 13.6027 21.3778 13.7741 21.3047C15.9291 20.3857 18.6049 19.8846 22.0162 19.7613L22.4657 19.745V12.1272V4.50934L22.16 4.51412C21.9919 4.51674 21.7734 4.52214 21.6745 4.5261Z" fill="#4E50D1"/>
</g>
<defs>
<clipPath id="clip0_8366_23829">
<rect width="24" height="24" fill="white"/>
</clipPath>
</defs>
</svg>
