<svg width="24" height="24" viewBox="0 0 24 24" fill="none" xmlns="http://www.w3.org/2000/svg">
<g clip-path="url(#clip0_8366_23549)">
<path d="M0 21.75V6.75C0 6.15327 0.237237 5.58113 0.65918 5.15918C1.08114 4.73722 1.65326 4.5 2.25 4.5H11.25C11.6642 4.5 12 4.83579 12 5.25C12 5.66419 11.6642 6 11.25 6H2.25C2.05109 6 1.86038 6.07907 1.71973 6.21973C1.57909 6.36038 1.5 6.5511 1.5 6.75V21.75C1.50001 21.9489 1.57909 22.1396 1.71973 22.2803C1.86038 22.4209 2.0511 22.5 2.25 22.5H17.25C17.4489 22.5 17.6396 22.4209 17.7803 22.2803C17.9209 22.1396 18 21.9489 18 21.75V12.75C18 12.3358 18.3358 12 18.75 12C19.1642 12 19.5 12.3358 19.5 12.75V21.75C19.5 22.3467 19.2628 22.9189 18.8408 23.3408C18.4189 23.7628 17.8467 24 17.25 24H2.25C1.65327 24 1.08114 23.7628 0.65918 23.3408C0.237233 22.9189 1.21227e-05 22.3467 0 21.75ZM24 7.5C24 7.91421 23.6642 8.24999 23.25 8.25C22.8358 8.25 22.5 7.91421 22.5 7.5V2.56055L8.78027 16.2803C8.48738 16.5732 8.01262 16.5732 7.71973 16.2803C7.42683 15.9874 7.42683 15.5126 7.71973 15.2197L21.4395 1.5H16.5C16.0858 1.5 15.75 1.16421 15.75 0.75C15.75 0.335786 16.0858 0 16.5 0H23.25C23.6642 1.23694e-05 24 0.335794 24 0.75V7.5Z" fill="#4E50D1"/>
</g>
<defs>
<clipPath id="clip0_8366_23549">
<rect width="24" height="24" fill="white"/>
</clipPath>
</defs>
</svg>
