<svg width="24" height="24" viewBox="0 0 24 24" fill="none" xmlns="http://www.w3.org/2000/svg">
<path fill-rule="evenodd" clip-rule="evenodd" d="M0.560308 11.0457C0.493767 11.0672 0.388885 11.1312 0.327236 11.1877C-0.149699 11.6254 -0.095555 12.5697 0.426075 12.9114L0.561363 13H11.9872H23.413L23.5251 12.9309C23.6889 12.8299 23.8425 12.6267 23.9026 12.4316C23.931 12.3396 23.9645 12.2394 23.9773 12.2089C24.0058 12.1404 24.0083 11.7584 23.98 11.7817C23.9688 11.791 23.9473 11.7437 23.9323 11.6768C23.8676 11.3887 23.6419 11.1191 23.4026 11.0439C23.2125 10.9842 0.744631 10.9859 0.560308 11.0457ZM0.00573056 12.0085C0.00585045 12.1316 0.0101666 12.1781 0.01537 12.1117C0.0205493 12.0454 0.0204774 11.9446 0.0151781 11.8879C0.00987886 11.8311 0.00563464 11.8854 0.00573056 12.0085Z" fill="#4E50D1"/>
</svg>
