<svg width="24" height="24" viewBox="0 0 24 24" fill="none" xmlns="http://www.w3.org/2000/svg">
<path fill-rule="evenodd" clip-rule="evenodd" d="M1.49114 2.01671C0.764428 2.1104 0.23638 2.58671 0.0508531 3.31592L0 3.51578V10.1511C0 15.892 0.00474725 16.8083 0.0351488 16.9479C0.109834 17.2907 0.239664 17.5269 0.488607 17.7727C0.648384 17.9305 0.726138 17.9863 0.911616 18.0765C1.0366 18.1373 1.22419 18.2082 1.32851 18.2341C1.51473 18.2804 1.60572 18.2813 6.36947 18.2813H11.2208V19.3813V20.4814L9.28471 20.4882L7.34865 20.4951L7.21364 20.549C6.94998 20.6543 6.73726 20.962 6.73726 21.2382C6.73726 21.4364 6.80612 21.5954 6.9623 21.7578C7.084 21.8844 7.18859 21.9393 7.37179 21.9727C7.57103 22.0091 16.405 22.0091 16.6042 21.9727C16.7874 21.9393 16.892 21.8844 17.0137 21.7578C17.1699 21.5954 17.2388 21.4364 17.2388 21.2382C17.2388 20.962 17.026 20.6543 16.7624 20.549L16.6274 20.4951L14.6913 20.4882L12.7552 20.4814V19.3813V18.2813H17.6088C22.8003 18.2813 22.6043 18.2854 22.8971 18.1689C23.2665 18.0218 23.5819 17.7447 23.7526 17.417C23.8563 17.2182 23.952 16.9434 23.952 16.8449C23.952 16.8122 23.9625 16.7932 23.976 16.8014C23.992 16.8112 24 14.5839 24 10.1377C24 6.27158 23.9911 3.4594 23.9788 3.4594C23.9671 3.4594 23.9499 3.4088 23.9407 3.34694C23.898 3.06196 23.6666 2.64595 23.4465 2.45845C23.2257 2.27034 22.9902 2.14992 22.6337 2.04295C22.5109 2.0061 21.7556 2.00305 12.0719 2.00023C6.33566 1.99857 1.57431 2.00599 1.49114 2.01671ZM0.0118202 10.16C0.0118202 13.8388 0.0146014 15.3438 0.017982 13.5044C0.0213626 11.665 0.0213626 8.65505 0.017982 6.81563C0.0146014 4.97623 0.0118202 6.48119 0.0118202 10.16ZM1.66142 3.50929C1.4967 3.55631 1.51049 2.95018 1.51049 10.1502V16.6647L1.57369 16.7272L1.63691 16.7896H11.988H22.3391L22.4023 16.7272L22.4655 16.6647V10.1502C22.4655 4.34201 22.4616 3.63007 22.4289 3.58397C22.4087 3.55553 22.3521 3.52127 22.303 3.5078C22.1868 3.47593 1.7731 3.4774 1.66142 3.50929Z" fill="#4E50D1"/>
</svg>
