<svg width="24" height="24" viewBox="0 0 24 24" fill="none" xmlns="http://www.w3.org/2000/svg">
<path fill-rule="evenodd" clip-rule="evenodd" d="M8.58227 3.52993C8.12615 3.64492 7.78362 3.91809 7.5705 4.3368C7.52427 4.42761 6.90112 5.86284 6.18573 7.52619C4.75451 10.8538 4.83934 10.6816 4.56649 10.8142L4.44802 10.8718L2.50577 10.8836C0.571197 10.8954 0.563068 10.8957 0.449987 10.9473C0.387547 10.9757 0.283888 11.051 0.21965 11.1144C-0.143406 11.473 -0.0378292 12.072 0.428238 12.298L0.563524 12.3636H2.57771H4.59189L4.7957 12.3101C5.42612 12.1444 5.95674 11.7256 6.24297 11.1678C6.29977 11.0571 6.9223 9.62671 7.62635 7.9892C8.3304 6.35167 8.91348 5.01968 8.92209 5.02922C8.93068 5.03874 9.99654 8.30194 11.2906 12.2807C12.9734 17.4543 13.6716 19.5702 13.7419 19.7089C13.9302 20.0806 14.2781 20.354 14.7016 20.4631C14.893 20.5125 15.2364 20.5123 15.4301 20.4627C15.8614 20.3524 16.2168 20.0631 16.408 19.6667C16.4671 19.5442 17.0913 17.9371 17.7949 16.0954C19.019 12.8916 19.0789 12.7418 19.1799 12.6309C19.238 12.5671 19.3406 12.4862 19.4079 12.4511L19.5304 12.3873L21.4727 12.3755L23.4149 12.3636L23.5519 12.2972C23.7143 12.2184 23.8637 12.0601 23.9212 11.9058C23.9438 11.845 23.9713 11.7852 23.9823 11.7728C24.0087 11.7431 24.0084 11.4455 23.9819 11.4616C23.9707 11.4685 23.9492 11.4334 23.9341 11.3837C23.8668 11.1619 23.621 10.9556 23.3669 10.9077C23.2639 10.8884 22.6783 10.8831 21.3048 10.8894C19.5807 10.8972 19.3708 10.9023 19.2307 10.939C18.7888 11.0551 18.4831 11.2225 18.1669 11.5214C17.9587 11.7183 17.8158 11.9151 17.699 12.166C17.6484 12.2747 17.0363 13.8579 16.3387 15.6842C15.4671 17.9663 15.0647 18.9919 15.0521 18.9638C15.0421 18.9413 13.9765 15.6729 12.6841 11.7006C11.287 7.40651 10.2996 4.40819 10.2487 4.30547C10.1098 4.02508 9.81298 3.74535 9.52555 3.62401C9.24944 3.50746 8.83524 3.46614 8.58227 3.52993ZM0.00789754 11.6295C0.00801744 11.7207 0.0123335 11.7551 0.0175368 11.706C0.0227162 11.6569 0.0226442 11.5823 0.017345 11.5402C0.0120458 11.4982 0.00780163 11.5384 0.00789754 11.6295Z" fill="#4E50D1"/>
</svg>
