<svg width="24" height="24" viewBox="0 0 24 24" fill="none" xmlns="http://www.w3.org/2000/svg">
<path fill-rule="evenodd" clip-rule="evenodd" d="M8.65003 0.034009C8.26248 0.118345 7.85974 0.434857 7.65914 0.812713C7.4939 1.12399 7.5031 0.955369 7.49426 3.83844L7.4863 6.44244L6.23141 7.70244C5.49912 8.43771 4.94102 9.01742 4.89132 9.09444C4.7093 9.37646 4.5883 9.67164 4.53139 9.97255C4.50607 10.1063 4.5 11.2855 4.5 16.0664C4.5 21.7032 4.50214 22.0045 4.54358 22.1984C4.7243 23.0444 5.35908 23.7096 6.20004 23.9341C6.39451 23.986 6.41239 23.9864 8.556 23.9864H10.716L10.8191 23.9314C10.978 23.8465 11.1041 23.7194 11.1772 23.5703C11.2691 23.3828 11.2719 23.1079 11.1837 22.9336C11.1042 22.7763 10.9599 22.6362 10.8 22.5607L10.668 22.4984L8.604 22.4864C6.28126 22.4729 6.46286 22.4886 6.2431 22.283C6.17669 22.2209 6.10044 22.118 6.06859 22.0476L6.012 21.9224L6.00466 16.1384C5.9971 10.1744 5.99669 10.2046 6.0895 10.0184C6.10922 9.97884 6.74918 9.32004 7.51162 8.55444C8.81801 7.24265 8.90083 7.15445 8.94893 7.02353C8.99729 6.89201 9 6.84139 9 6.06953V5.25444H9.744H10.488V5.99403C10.488 6.78348 10.505 6.9594 10.5962 7.11444C10.6272 7.16724 11.2771 7.83286 12.0403 8.59361C13.3438 9.8928 13.4358 9.97927 13.5558 10.0181C13.7322 10.0752 13.991 10.061 14.136 9.98614C14.4079 9.84586 14.5531 9.61056 14.5531 9.31044C14.5531 8.9862 14.5919 9.03415 13.2233 7.66572L12 6.44261V3.87238C12 1.3819 11.9985 1.29631 11.9521 1.1147C11.8867 0.859057 11.7603 0.642793 11.558 0.440473C11.3556 0.238177 11.1394 0.111769 10.8837 0.046369C10.7112 0.002233 10.621 -0.001415 9.74616 0.000336998C9.05369 0.001729 8.7564 0.010873 8.65003 0.034009ZM9 2.62644V3.74244H9.744H10.488V2.62644V1.51044H9.744H9V2.62644ZM12.5279 11.2769C12.346 11.3322 12.1584 11.4972 12.0675 11.6818L12.012 11.7944L12.0047 13.8344C11.9971 15.9614 12.0027 16.1186 12.1007 16.5464C12.4039 17.8692 13.4536 18.9481 14.784 19.3045L14.988 19.3591L14.9942 20.9209L15.0003 22.4826L14.1662 22.4905L13.332 22.4984L13.2 22.5607C13.0401 22.6362 12.8958 22.7763 12.8163 22.9336C12.7281 23.1079 12.7309 23.3828 12.8228 23.5703C12.8959 23.7194 13.022 23.8465 13.1809 23.9314L13.284 23.9864H15.744H18.204L18.3167 23.9309C18.3786 23.9004 18.474 23.8308 18.5286 23.7762C18.6781 23.6267 18.7265 23.5143 18.739 23.2878C18.7485 23.1139 18.7426 23.0773 18.6836 22.9458C18.6165 22.7964 18.4762 22.6429 18.3443 22.5747C18.2073 22.5039 17.9912 22.4864 17.2514 22.4864H16.5117L16.5178 20.9212L16.524 19.3561L16.644 19.3243C17.369 19.1327 17.951 18.7963 18.4453 18.2831C18.8502 17.8629 19.1269 17.4065 19.309 16.8584C19.4977 16.2906 19.5104 16.0992 19.5113 13.8209C19.512 11.994 19.5047 11.8107 19.4244 11.6555C19.3582 11.5275 19.212 11.3909 19.068 11.3227L18.924 11.2545L15.756 11.2565C14.0136 11.2577 12.5609 11.2668 12.5279 11.2769ZM13.5178 14.4164C13.5269 16.3279 13.5147 16.2098 13.7524 16.6904C14.3565 17.9119 15.9316 18.3008 17.0535 17.5056C17.273 17.35 17.5631 17.0293 17.6944 16.7969C17.8281 16.5604 17.9371 16.2396 17.9739 15.9747C17.9904 15.8558 18 15.2287 18 14.2647V12.7424H15.7549H13.5099L13.5178 14.4164Z" fill="#4E50D1"/>
</svg>
