<svg width="24" height="24" viewBox="0 0 24 24" fill="none" xmlns="http://www.w3.org/2000/svg">
<path fill-rule="evenodd" clip-rule="evenodd" d="M5.43798 1.51871C4.96604 1.58808 4.50044 1.82187 4.15388 2.16342C3.99915 2.31595 0.545382 6.90692 0.323124 7.2555C0.121353 7.57198 0.00392083 7.99644 0.000116649 8.42308C-0.00450804 8.93774 0.12824 9.36494 0.4234 9.7854C0.591853 10.0254 10.1833 21.6429 10.362 21.8234C10.7221 22.1873 11.2065 22.4195 11.7408 22.4843C12.4275 22.5676 13.1536 22.315 13.6402 21.8234C13.8186 21.6433 23.41 10.0256 23.5788 9.7853C23.8752 9.36325 24.0031 8.94909 23.9999 8.42196C23.9973 7.99 23.8826 7.57526 23.6755 7.24942C23.4597 6.90986 20.0053 2.31839 19.8481 2.1623C19.5626 1.87856 19.2163 1.68265 18.7801 1.55798L18.59 1.50362L12.0881 1.50026C8.48214 1.49842 5.52018 1.50663 5.43798 1.51871ZM6.15665 3.15324C6.17517 3.20461 6.48813 4.07501 6.85209 5.08749C7.21607 6.09997 7.51693 6.93145 7.52068 6.93521C7.52727 6.94178 10.3645 3.16292 10.4048 3.09393C10.4216 3.06522 10.0867 3.05986 8.27384 3.05986H6.12298L6.15665 3.15324ZM13.5973 3.09393C13.6083 3.11268 14.2606 3.98694 15.0469 5.03674C16.4419 6.89913 16.4773 6.9438 16.505 6.8764C16.526 6.82515 17.4117 4.36581 17.8458 3.15324L17.8792 3.05986H15.7283C13.9155 3.05986 13.5806 3.06522 13.5973 3.09393ZM10.4526 5.64213L8.90869 7.7037L10.463 7.71012C11.3179 7.71363 12.7095 7.71363 13.5555 7.71012L15.0935 7.7037L13.5645 5.6619C12.7236 4.53892 12.0267 3.61122 12.016 3.60034C12.0052 3.58946 11.3017 4.50827 10.4526 5.64213ZM3.338 5.80446L1.91573 7.7037L4.00982 7.71007C5.16157 7.71356 6.10938 7.71094 6.11607 7.70427C6.12594 7.69436 4.78831 3.93497 4.76673 3.91206C4.7632 3.9083 4.12027 4.75988 3.338 5.80446ZM18.5546 5.79992C18.1807 6.84106 17.8801 7.69819 17.8865 7.70467C17.893 7.71114 18.8406 7.71356 19.9924 7.71007L22.0865 7.7037L20.6787 5.82375C19.9045 4.78978 19.2628 3.93552 19.2527 3.92538C19.2427 3.91525 18.9285 4.75878 18.5546 5.79992ZM2.24834 9.56496C2.37621 9.71905 4.21328 11.946 6.33069 14.5138C8.44811 17.0816 10.2075 19.2106 10.2404 19.2448C10.313 19.3202 10.5425 19.9734 8.39582 13.9947L6.70507 9.28584L4.36045 9.28534L2.01586 9.28484L2.24834 9.56496ZM8.39413 9.37821C8.41253 9.42958 9.21327 11.6566 10.1736 14.3271C11.1339 16.9976 11.938 19.2356 11.9605 19.3005L12.0014 19.4184L13.7658 14.5072C14.7362 11.8061 15.5555 9.52607 15.5865 9.44047L15.6428 9.28484H12.0018H8.36073L8.39413 9.37821ZM17.3001 9.30481C17.2897 9.32179 13.8869 18.7791 13.7506 19.1701L13.7028 19.3071L13.7622 19.2448C13.7948 19.2106 15.6318 16.9864 17.8443 14.3022C20.0568 11.618 21.8954 9.39096 21.9301 9.35331L21.9932 9.28484H19.6529C18.3657 9.28484 17.3069 9.29383 17.3001 9.30481Z" fill="#4E50D1"/>
</svg>
