<svg width="24" height="24" viewBox="0 0 24 24" fill="none" xmlns="http://www.w3.org/2000/svg">
<g clip-path="url(#clip0_8366_23312)">
<path fill-rule="evenodd" clip-rule="evenodd" d="M4.14651 0.0150511C3.9301 0.0820653 3.7389 0.251068 3.6455 0.457882C3.56825 0.628883 3.5732 0.898963 3.65687 1.07751C3.77459 1.3287 3.97023 1.47513 4.24835 1.52027C4.3513 1.53697 5.64734 1.54592 8.00655 1.54619L11.6076 1.54663L11.7433 1.60923C11.8619 1.66397 12.5403 2.33297 17.1448 6.93564C22.8501 12.6386 22.4844 12.2901 22.792 12.318C23.4243 12.3753 23.8489 11.6588 23.4958 11.1306C23.4497 11.0615 21.0445 8.63998 18.151 5.74927C13.5712 1.17388 12.8645 0.477318 12.6921 0.368769C12.4727 0.23067 12.2843 0.145552 12.0112 0.0611989L11.8296 0.00511115L8.01888 0.000548183C5.92299 -0.00199229 4.18043 0.00454387 4.14651 0.0150511ZM2.43626 3.10091C1.63954 3.23657 0.940142 3.80807 0.657138 4.55475C0.500517 4.96794 0.511073 4.7058 0.50212 8.40295C0.496398 10.763 0.502095 11.8318 0.521211 11.9776C0.559811 12.272 0.671197 12.5981 0.821085 12.8556C0.94542 13.0691 1.13208 13.2593 6.11846 18.2526C8.96113 21.0992 11.3591 23.4838 11.4473 23.5516C11.6478 23.7058 11.9909 23.8745 12.2489 23.9458C12.415 23.9918 12.5087 24.0003 12.8408 24C13.1993 23.9996 13.2557 23.9934 13.4559 23.9325C13.703 23.8572 13.9293 23.7518 14.1484 23.6098C14.3238 23.4963 20.6828 17.1616 20.9335 16.8507C21.1171 16.6231 21.2868 16.2953 21.3678 16.012C21.417 15.8399 21.424 15.7611 21.4227 15.3954C21.4214 15.0123 21.4155 14.9574 21.3547 14.7591C21.2798 14.5152 21.1805 14.3064 21.0354 14.0882C20.9218 13.9172 10.8554 3.82559 10.5652 3.59174C10.2831 3.36438 10.0812 3.26128 9.68375 3.14141C9.51191 3.08959 9.4947 3.08932 6.03337 3.08498C4.12062 3.08256 2.50192 3.08974 2.43626 3.10091ZM2.56052 4.66485C2.42521 4.71312 2.28154 4.81938 2.198 4.93298C2.04017 5.14759 2.04865 4.92995 2.05583 8.57686C2.06212 11.7741 2.06402 11.8965 2.1091 11.9917C2.14139 12.0597 3.74793 13.6836 7.28871 17.2271C12.0258 21.9679 12.4316 22.3677 12.552 22.4129C12.6352 22.4442 12.743 22.4619 12.8502 22.4619C13.1827 22.4619 12.9535 22.6719 16.543 19.0774C18.6659 16.9516 19.7906 15.8082 19.8175 15.7487C19.9147 15.5338 19.9142 15.2473 19.8163 15.0506C19.7959 15.0096 17.4855 12.6802 14.6821 9.87418C10.1212 5.30888 9.56953 4.76472 9.43711 4.70077L9.28912 4.62929L5.97171 4.63035C3.24388 4.63121 2.63762 4.63735 2.56052 4.66485ZM5.62647 7.3359C5.49743 7.35997 5.26353 7.48734 5.13483 7.60364C4.80047 7.90576 4.66642 8.33798 4.77628 8.75972C4.92518 9.3314 5.49146 9.70303 6.07562 9.61239C6.75047 9.50768 7.17813 8.85858 7.01853 8.18131C6.93082 7.80919 6.61963 7.48234 6.24077 7.36444C6.09727 7.31977 5.78958 7.30549 5.62647 7.3359Z" fill="#4E50D1"/>
</g>
<defs>
<clipPath id="clip0_8366_23312">
<rect width="24" height="24" fill="white"/>
</clipPath>
</defs>
</svg>
