<svg width="24" height="24" viewBox="0 0 24 24" fill="none" xmlns="http://www.w3.org/2000/svg">
<g clip-path="url(#clip0_8366_23873)">
<path d="M0.250233 7.21075L11.2502 19.6807C11.3493 19.7855 11.4687 19.8689 11.6011 19.9259C11.7335 19.9829 11.8761 20.0123 12.0202 20.0123C12.1644 20.0123 12.307 19.9829 12.4394 19.9259C12.5718 19.8689 12.6912 19.7855 12.7902 19.6807L23.7902 7.21075C23.9535 7.00451 24.029 6.74223 24.0002 6.48075C23.9894 6.34751 23.9519 6.21781 23.8901 6.09929C23.8283 5.98078 23.7433 5.87586 23.6402 5.79075L21.7902 4.24075C21.6892 4.15334 21.5716 4.08706 21.4445 4.04584C21.3174 4.00462 21.1834 3.98929 21.0502 4.00075C20.9177 4.01033 20.7885 4.04622 20.67 4.10632C20.5515 4.16641 20.4462 4.2495 20.3602 4.35075L12.1902 13.8007C12.1397 13.8508 12.0714 13.8789 12.0002 13.8789C11.9291 13.8789 11.8608 13.8508 11.8102 13.8007L3.64023 4.35075C3.47858 4.15766 3.25003 4.03267 3.00023 4.00075C2.86779 3.98792 2.73412 4.00166 2.60705 4.04116C2.47998 4.08065 2.36207 4.14511 2.26023 4.23075L0.360233 5.79075C0.257155 5.87586 0.172188 5.98078 0.110354 6.09929C0.0485201 6.21781 0.0110754 6.34751 0.000233356 6.48075C-0.00852123 6.61292 0.00907067 6.74552 0.0519875 6.87083C0.0949042 6.99615 0.162291 7.11169 0.250233 7.21075Z" fill="#4E50D1"/>
</g>
<defs>
<clipPath id="clip0_8366_23873">
<rect width="24" height="24" fill="white"/>
</clipPath>
</defs>
</svg>
