<svg width="25" height="24" viewBox="0 0 25 24" fill="none" xmlns="http://www.w3.org/2000/svg">
<path fill-rule="evenodd" clip-rule="evenodd" d="M9.68016 5.02962C9.45176 5.10532 9.30017 5.23598 9.19707 5.44607C9.10935 5.62482 9.11765 5.7675 9.26875 6.67751C9.33999 7.10651 9.3966 7.4596 9.39456 7.46217C9.39252 7.46474 9.31013 7.41803 9.21149 7.35837C8.69686 7.04711 8.01149 6.74663 7.44761 6.58504C6.76414 6.38915 6.2066 6.30532 5.72631 6.32625C3.81651 6.40941 2.0394 7.41726 0.986235 9.01449C0.373611 9.9436 0.0434914 10.985 0.00384339 12.1135C-0.0535886 13.7477 0.534219 15.2904 1.66088 16.4623C2.60052 17.4397 3.78584 18.0571 5.10816 18.2577C5.45976 18.3111 6.1946 18.3314 6.49042 18.2959C7.56368 18.1671 8.49 17.758 9.46416 16.9825C9.79548 16.7187 10.4774 16.0407 10.7766 15.6775C11.5352 14.7566 12.2425 13.6167 12.7296 12.5295C13.0187 11.8844 13.5206 11.0489 14.0232 10.376C15.0759 8.96642 16.1729 8.149 17.3695 7.88236C17.6007 7.83086 18.4197 7.82522 18.6922 7.87326C19.4354 8.00435 20.1241 8.29763 20.6962 8.72656C21.1002 9.02949 21.583 9.56354 21.8426 9.99465C22.2725 10.7086 22.4833 11.4727 22.4833 12.3175C22.4833 13.0084 22.3665 13.5546 22.0868 14.1722C21.3982 15.6924 19.8813 16.7332 18.2602 16.7979C17.9938 16.8085 17.8509 16.8021 17.6511 16.7707C17.0974 16.6835 16.4799 16.4684 16.0076 16.198C15.4346 15.87 15.0019 15.4932 14.5266 14.9086C14.4279 14.7871 14.3391 14.7064 14.2506 14.6575C14.1328 14.5925 14.0992 14.5855 13.9042 14.5855C13.6516 14.5855 13.5357 14.6302 13.3664 14.7929C13.212 14.9413 13.1612 15.0707 13.1606 15.3175C13.1603 15.4848 13.1705 15.5425 13.2176 15.6382C13.3489 15.9049 13.999 16.607 14.4322 16.9499C14.97 17.3757 15.7331 17.789 16.3762 18.0028C17.4731 18.3676 18.3784 18.4076 19.4607 18.1389C21.3222 17.6769 22.8654 16.3196 23.5841 14.5123C23.7711 14.042 23.9335 13.3708 23.9639 12.9433C23.9725 12.8226 23.9886 12.7182 23.9998 12.7113C24.011 12.7043 24.0202 12.5151 24.0202 12.2907C24.0202 12.0248 24.0118 11.8878 23.9962 11.8975C23.9816 11.9065 23.9721 11.8717 23.972 11.8089C23.9719 11.686 23.9162 11.2973 23.8627 11.0455C23.7641 10.5821 23.6113 10.1521 23.3721 9.66551C22.7829 8.46714 21.8497 7.53362 20.6482 6.94086C19.493 6.37094 18.2133 6.18513 17.0362 6.41642C16.2929 6.56246 15.4201 6.9754 14.6986 7.52243C13.401 8.50636 12.1518 10.1696 11.2777 12.0775C11.0049 12.673 10.5441 13.4651 10.143 14.028C9.81552 14.4875 9.53381 14.8267 9.16416 15.2068C8.36312 16.0302 7.652 16.4828 6.79508 16.7143C6.51622 16.7897 6.50427 16.7908 5.96016 16.7916C5.44978 16.7923 5.38544 16.7875 5.10677 16.7277C4.21409 16.5363 3.43853 16.1153 2.81067 15.4812C2.17755 14.8418 1.7604 14.0587 1.57858 13.1681C1.51491 12.8562 1.48961 12.1318 1.53077 11.7982C1.62951 10.9976 1.92792 10.2534 2.40509 9.61751C2.59028 9.37074 3.04976 8.91134 3.29616 8.72656C4.01093 8.19057 4.86869 7.87758 5.73216 7.83767C6.36881 7.80822 7.23111 8.03025 8.02064 8.42687C8.35481 8.59478 8.89164 8.92602 8.86793 8.94974C8.86241 8.95526 8.34939 9.04499 7.72791 9.14913C7.03121 9.26589 6.55736 9.35644 6.4921 9.38529C6.25515 9.49012 6.07858 9.73487 6.05165 9.9959C6.01316 10.3689 6.25409 10.7046 6.62616 10.7964L6.78063 10.8346L8.7584 10.5054C10.1423 10.275 10.7635 10.1623 10.8272 10.1298C11.0499 10.0165 11.2158 9.78261 11.2428 9.54405C11.2617 9.37636 10.6245 5.56338 10.5546 5.42634C10.3907 5.10513 9.99461 4.92544 9.68016 5.02962ZM0.00602739 12.3175C0.00602739 12.5485 0.00962739 12.643 0.0140434 12.5275C0.0184354 12.412 0.0184354 12.223 0.0140434 12.1075C0.00962739 11.992 0.00602739 12.0865 0.00602739 12.3175Z" fill="#4E50D1"/>
</svg>
