<svg width="24" height="24" viewBox="0 0 24 24" fill="none" xmlns="http://www.w3.org/2000/svg">
<path fill-rule="evenodd" clip-rule="evenodd" d="M2.88431 1.01765C1.74243 1.13453 0.712825 1.87088 0.259352 2.89491C0.0784776 3.30341 -0.00116401 3.68872 1.28448e-05 4.14968C0.000949522 4.52354 0.0484559 4.81081 0.16506 5.14788C0.53303 6.21147 1.44937 6.98717 2.62454 7.2298C2.91099 7.28895 3.58653 7.28899 3.87344 7.22989C5.22218 6.95204 6.23192 5.93852 6.45646 4.63717C6.55937 4.04071 6.42713 3.28937 6.11714 2.70925C5.49694 1.5486 4.22078 0.880824 2.88431 1.01765ZM2.87672 2.48795C2.52301 2.56704 2.25498 2.71238 1.99888 2.96395C1.16433 3.78382 1.40649 5.14539 2.47827 5.65937C2.94526 5.88332 3.58365 5.87796 4.03983 5.64623C4.47882 5.42329 4.80209 5.0354 4.93313 4.57447C4.97716 4.41958 4.98261 4.35484 4.97084 4.12646C4.95437 3.80667 4.91313 3.64261 4.78706 3.39522C4.57736 2.98373 4.18792 2.65943 3.74134 2.5244C3.52608 2.4593 3.08754 2.44083 2.87672 2.48795ZM0.609117 8.10039C0.403625 8.14519 0.208484 8.30544 0.105665 8.5139L0.0426677 8.64158L0.0360629 15.4317C0.0315477 20.0762 0.0374079 22.2731 0.0546284 22.3842C0.0968989 22.6574 0.320669 22.9079 0.583395 22.9763C0.644591 22.9922 1.54577 22.9981 3.27714 22.994L5.87889 22.9878L6.0076 22.9189C6.23103 22.7993 6.35724 22.6202 6.39769 22.3654C6.41181 22.2765 6.41798 19.6361 6.41388 15.4317L6.40727 8.64158L6.34451 8.5139C6.2647 8.3515 6.13098 8.22224 5.96295 8.1451L5.83086 8.08444L3.273 8.08087C1.64873 8.07859 0.676462 8.08572 0.609117 8.10039ZM8.28879 8.10654C8.03589 8.17447 7.81596 8.40932 7.76543 8.66544C7.74526 8.76768 7.73995 10.5957 7.74516 15.629L7.75225 22.4539L7.80415 22.5624C7.88088 22.7229 8.03111 22.8677 8.19428 22.9385L8.33601 23L11.0823 22.9939L13.8286 22.9878L13.9367 22.9336C14.0888 22.8574 14.2366 22.711 14.3016 22.5723L14.357 22.4539L14.3695 18.7164C14.3796 15.6957 14.3881 14.9612 14.4139 14.8861C14.5229 14.5691 14.8061 14.2332 15.0862 14.0889C15.3843 13.9353 15.7987 13.8826 16.1049 13.9592C16.5376 14.0676 16.891 14.3862 17.0796 14.8381C17.1154 14.9239 17.1201 15.2753 17.131 18.6816L17.143 22.4307L17.2055 22.5594C17.2881 22.7297 17.3881 22.8361 17.5437 22.9194L17.6714 22.9878H20.5775H23.4836L23.5917 22.9336C23.7373 22.8606 23.8718 22.7324 23.942 22.5997L24 22.4902V18.5352C24 14.3829 23.9982 14.3032 23.8926 13.6262C23.5573 11.4784 22.6062 9.87712 21.1066 8.93533C20.143 8.33016 19.0016 8.0428 17.7086 8.0798C16.626 8.11079 15.5742 8.37042 14.5841 8.85104L14.3758 8.95218L14.3622 8.77877C14.3395 8.48932 14.1859 8.26581 13.9241 8.14127L13.8046 8.08444L11.1027 8.08047C8.95482 8.07732 8.37775 8.08266 8.28879 8.10654ZM17.611 9.53662C16.375 9.60937 15.2091 10.0459 14.2129 10.8089C14.094 10.8999 13.9396 10.9953 13.8698 11.0209C13.5162 11.1504 13.1054 10.9893 12.9353 10.6546C12.8689 10.5238 12.8678 10.5148 12.8599 10.0286L12.8518 9.53532H11.0526H9.25333V15.5477V21.5602H11.0539H12.8544L12.8623 18.2231C12.8697 15.122 12.8733 14.8738 12.913 14.712C13.1602 13.7039 13.8493 12.9443 14.808 12.6233C15.2377 12.4794 15.7926 12.4278 16.2053 12.4935C17.4373 12.6895 18.3909 13.604 18.6067 14.7962C18.6392 14.9759 18.644 15.4218 18.6441 18.2812L18.6441 21.5602H20.5785H22.5129L22.5039 18.0258C22.4942 14.2153 22.4983 14.3438 22.3657 13.621C22.2224 12.8398 21.9631 12.1136 21.6246 11.5449C21.2678 10.9456 20.7378 10.4117 20.1739 10.0834C19.6549 9.78138 18.9472 9.5745 18.3344 9.54572C18.1943 9.53912 18.0365 9.53072 17.9836 9.52703C17.9308 9.52334 17.7631 9.52766 17.611 9.53662ZM1.54375 15.5477V21.5602H3.22497H4.90619V15.5477V9.53532H3.22497H1.54375V15.5477Z" fill="#4E50D1"/>
</svg>
