<svg width="24" height="24" viewBox="0 0 24 24" fill="none" xmlns="http://www.w3.org/2000/svg"><g transform="translate(2,2) scale(0.833333)">
<path d="M20.8799 3.5625C20.8799 2.4419 19.9414 1.5 18.7422 1.5H5.26758C4.06834 1.5 3.12988 2.4419 3.12988 3.5625V20.4375C3.12988 21.5581 4.06834 22.5 5.26758 22.5H18.7422C19.9414 22.5 20.8799 21.5581 20.8799 20.4375V3.5625ZM17 16.4502C17.4142 16.4502 17.75 16.786 17.75 17.2002C17.75 17.6144 17.4142 17.9502 17 17.9502H7C6.58579 17.9502 6.25 17.6144 6.25 17.2002C6.25 16.786 6.58579 16.4502 7 16.4502H17ZM14.5703 7.65039C14.8894 7.65045 15.1763 7.74415 15.4121 7.87891C15.6498 8.01475 15.8633 8.21125 16.0166 8.43262C16.0563 8.48997 16.0879 8.55308 16.1104 8.61914L17.6631 13.1992C17.7598 13.4393 17.75 13.6693 17.75 13.7197C17.75 13.7474 17.7482 13.7752 17.7451 13.8027C17.7255 13.9796 17.6654 14.181 17.5439 14.3662L17.5459 14.3672C17.5429 14.3721 17.5383 14.3761 17.5352 14.3809C17.5298 14.3888 17.5262 14.3983 17.5205 14.4062L17.5176 14.4043C17.3908 14.5911 17.2253 14.7301 17.0449 14.8203C16.8545 14.9155 16.6491 14.9599 16.4502 14.96H7.53027C7.45831 14.96 7.38819 14.9481 7.32129 14.9287C7.17925 14.9054 7.02162 14.8591 6.87207 14.7656V14.7646C6.65471 14.6347 6.5199 14.4652 6.43359 14.3271C6.32697 14.1564 6.27715 13.9802 6.25879 13.8174L6.25 13.6602L6.26367 13.4805C6.2899 13.3068 6.35265 13.1411 6.43945 13L7.98926 10.4502L8.05664 10.3564C8.33378 10.0275 8.72581 9.80738 9.15137 9.73926L9.15625 9.73828C9.53443 9.68017 9.90729 9.73739 10.2412 9.89844L10.3818 9.97461L10.4502 10.0205L11.6846 10.9473L13.0508 8.43262L13.1152 8.33301C13.295 8.09928 13.524 7.92658 13.7725 7.81055L13.8115 7.79395C14.0572 7.69566 14.3229 7.65039 14.5703 7.65039ZM14.5703 9.15039C14.5062 9.15039 14.4405 9.16207 14.3887 9.17969C14.3626 9.19368 14.3428 9.20867 14.3271 9.22363L12.5889 12.4277C12.4848 12.6193 12.3028 12.7563 12.0898 12.8027C11.8768 12.8492 11.6538 12.8008 11.4795 12.6699L9.59766 11.2549C9.53315 11.2217 9.4655 11.2085 9.3877 11.2197C9.32614 11.2297 9.26956 11.2601 9.22754 11.2988L7.91504 13.46H16.168L14.7334 9.23047C14.7126 9.21112 14.6898 9.19311 14.668 9.18066C14.6242 9.15566 14.5911 9.15045 14.5703 9.15039ZM8.4502 6.5C8.4502 6.08579 8.11441 5.75 7.7002 5.75C7.28598 5.75 6.9502 6.08579 6.9502 6.5C6.9502 6.91421 7.28598 7.25 7.7002 7.25C8.11441 7.25 8.4502 6.91421 8.4502 6.5ZM9.9502 6.5C9.9502 7.74264 8.94284 8.75 7.7002 8.75C6.45755 8.75 5.4502 7.74264 5.4502 6.5C5.4502 5.25736 6.45755 4.25 7.7002 4.25C8.94284 4.25 9.9502 5.25736 9.9502 6.5ZM22.3799 20.4375C22.3799 22.4235 20.7324 24 18.7422 24H5.26758C3.27737 24 1.62988 22.4235 1.62988 20.4375V3.5625C1.62988 1.5765 3.27737 0 5.26758 0H18.7422C20.7324 0 22.3799 1.5765 22.3799 3.5625V20.4375Z" fill="#4E50D1"/>
</g></svg>
