<svg width="24" height="24" viewBox="0 0 24 24" fill="none" xmlns="http://www.w3.org/2000/svg">
<path d="M23.484 4.26908C23.484 6.62682 21.5726 8.53815 19.2149 8.53815C16.8571 8.53815 14.9458 6.62682 14.9458 4.26908C14.9458 1.91133 16.8571 0 19.2149 0C21.5726 0 23.484 1.91133 23.484 4.26908Z" fill="#4E50D1"/>
<path d="M13.6155 2H6.23375C5.50998 2.0041 4.81702 2.29344 4.30523 2.80523C3.79344 3.31702 3.5041 4.00998 3.5 4.73375V21.1362C3.5041 21.86 3.79344 22.553 4.30523 23.0648C4.81702 23.5766 5.50998 23.8659 6.23375 23.87H16.3877C17.1115 23.8659 17.8044 23.5766 18.3162 23.0648C18.828 22.553 19.1173 21.86 19.1214 21.1362V10.4998C19.1048 10.4999 19.0881 10.5 19.0715 10.5C15.7578 10.5 13.0715 7.8137 13.0715 4.49999C13.0715 3.60778 13.2662 2.76105 13.6155 2Z" fill="#4E50D1"/>
</svg>
