<svg width="24" height="24" viewBox="0 0 24 24" fill="none" xmlns="http://www.w3.org/2000/svg">
<path d="M22.5 2.5H1.5C0.947715 2.5 0.5 2.94772 0.5 3.5V4.5C0.5 5.05228 0.947715 5.5 1.5 5.5H22.5C23.0523 5.5 23.5 5.05228 23.5 4.5V3.5C23.5 2.94772 23.0523 2.5 22.5 2.5Z" fill="#4E50D1"/>
<path d="M22.5 10.4999H1.5C0.947715 10.4999 0.5 10.9476 0.5 11.4999V12.4999C0.5 13.0522 0.947715 13.4999 1.5 13.4999H22.5C23.0523 13.4999 23.5 13.0522 23.5 12.4999V11.4999C23.5 10.9476 23.0523 10.4999 22.5 10.4999Z" fill="#4E50D1"/>
<path d="M1.5 18.4998H22.5C23.0523 18.4998 23.5 18.9475 23.5 19.4998V20.4998C23.5 21.052 23.0523 21.4998 22.5 21.4998H1.5C0.947715 21.4998 0.5 21.052 0.5 20.4998V19.4998C0.5 18.9475 0.947715 18.4998 1.5 18.4998Z" fill="#4E50D1"/>
</svg>
