<svg width="24" height="24" viewBox="0 0 24 24" fill="none" xmlns="http://www.w3.org/2000/svg">
<path fill-rule="evenodd" clip-rule="evenodd" d="M8.11863 1.02235C7.2975 1.08866 6.44652 1.37922 5.76114 1.82736C5.42587 2.04656 5.25298 2.18501 4.96741 2.46303C4.53331 2.88565 4.21146 3.32977 3.9474 3.87065C3.36928 5.05472 3.28392 6.394 3.70662 7.64902C4.28106 9.35454 5.75636 10.6444 7.5374 10.9981C9.94938 11.4771 12.3655 10.1976 13.2891 7.95205C14.2051 5.72503 13.4146 3.19452 11.3822 1.84798C11.0629 1.63639 10.5049 1.37127 10.1289 1.25245C9.71666 1.1222 9.37819 1.05582 8.95402 1.02207C8.59106 0.993173 8.47951 0.993224 8.11863 1.02235ZM15.267 1.0301C15.0305 1.0804 14.8417 1.22706 14.7229 1.45276C14.6721 1.54926 14.6628 1.60457 14.6631 1.80829C14.6635 2.08625 14.7019 2.18379 14.8808 2.36034C15.0531 2.53038 15.1713 2.57286 15.5456 2.59912C15.9549 2.62784 16.2458 2.6795 16.5361 2.775C18.4236 3.39592 19.3997 5.39201 18.7239 7.24901C18.3842 8.18256 17.5858 8.96197 16.6241 9.29895C16.2451 9.43174 16.057 9.46793 15.5739 9.50104C15.1701 9.5287 15.0361 9.57949 14.8574 9.77251C14.6917 9.95149 14.6398 10.1037 14.6552 10.366C14.6683 10.5888 14.7296 10.718 14.8986 10.8792C15.1075 11.0783 15.3547 11.1284 15.8851 11.0789C17.0988 10.9657 18.1829 10.4726 19.0293 9.64856C21.0587 7.67289 21.0659 4.4406 19.0455 2.47583C18.1557 1.61064 17.0822 1.12271 15.8462 1.02169C15.4744 0.991319 15.4475 0.9917 15.267 1.0301ZM8.14539 2.6219C6.48907 2.8277 5.2379 4.10321 5.07438 5.75266C5.00734 6.42884 5.16926 7.16008 5.51962 7.76335C6.146 8.84185 7.30411 9.50452 8.5588 9.50236C9.48663 9.50076 10.364 9.13993 11.0239 8.48859C12.3923 7.13791 12.3929 4.96586 11.0252 3.61869C10.5248 3.12573 9.9313 2.80931 9.25025 2.67231C8.94548 2.61101 8.42438 2.58724 8.14539 2.6219ZM7.9351 12.9211C6.46926 13.0489 5.21092 13.4595 4.00956 14.2021C1.94255 15.4796 0.514846 17.5889 0.117103 19.9527C0.0262346 20.4928 0.00287435 20.826 0.000533167 21.616C-0.00165365 22.3587 0.000533142 22.3954 0.05384 22.5093C0.132565 22.6774 0.301207 22.8476 0.470544 22.9297L0.615697 23H8.55255H16.4894L16.6309 22.9336C16.8109 22.8493 16.9541 22.7079 17.0396 22.5302L17.1069 22.3905L17.105 21.5906C17.1031 20.7796 17.0831 20.4955 16.9876 19.9273C16.6392 17.8529 15.4286 15.8908 13.7109 14.6161C12.4941 13.7133 11.159 13.1737 9.63309 12.9683C9.35017 12.9302 8.19808 12.8982 7.9351 12.9211ZM17.0168 13.1083C16.8051 13.1529 16.6005 13.2903 16.4918 13.461C16.2603 13.8242 16.3627 14.3136 16.7185 14.5446C16.8108 14.6045 16.9615 14.6599 17.2275 14.7317C18.4584 15.0639 19.4395 15.6251 20.3372 16.5105C20.9561 17.1209 21.2921 17.5841 21.6734 18.3528C21.9991 19.0095 22.1882 19.5868 22.3016 20.2701C22.3413 20.5092 22.3936 21.0972 22.3938 21.3049L22.3938 21.4128H21.0055C19.6502 21.4128 19.6136 21.4141 19.4683 21.4672C19.3665 21.5044 19.2779 21.5626 19.188 21.6513C18.7841 22.05 18.9055 22.6894 19.4314 22.9328L19.5767 23H21.4805H23.3843L23.5295 22.9297C23.6988 22.8476 23.8674 22.6774 23.9462 22.5093C23.9995 22.3954 24.0017 22.3587 23.9995 21.616C23.9982 21.19 23.983 20.71 23.9657 20.5494C23.8504 19.4808 23.5901 18.5761 23.134 17.6586C22.2463 15.8729 20.8128 14.4923 18.9874 13.665C18.4652 13.4283 17.8425 13.2199 17.3695 13.1234C17.1576 13.0802 17.1511 13.08 17.0168 13.1083ZM8.1969 14.5095C7.06094 14.5648 6.01031 14.8806 5.00093 15.4702C4.51497 15.7541 4.10742 16.0708 3.66301 16.5099C3.04201 17.1236 2.70709 17.5855 2.32687 18.3528C1.99885 19.0148 1.82807 19.5298 1.7107 20.2111C1.66143 20.497 1.6064 21.0736 1.60625 21.3049L1.6062 21.4128H8.55255H15.4989L15.4988 21.2414C15.4986 20.8653 15.422 20.2571 15.3188 19.813C15.0292 18.5661 14.3592 17.3842 13.4357 16.4908C13.0541 16.1216 12.8031 15.9181 12.4116 15.6602C11.1473 14.8273 9.7131 14.4357 8.1969 14.5095Z" fill="#4E50D1"/>
</svg>
