<svg width="24" height="24" viewBox="0 0 24 24" fill="none" xmlns="http://www.w3.org/2000/svg">
<path d="M6 15V18H9C9.39782 18 9.77924 18.1581 10.0605 18.4395C10.3419 18.7208 10.5 19.1022 10.5 19.5V22.5H18V19.5H15C14.6022 19.5 14.2208 19.3419 13.9395 19.0605C13.6581 18.7792 13.5 18.3978 13.5 18V15H6ZM15 1.5V9H18C18.3978 9 18.7792 9.15815 19.0605 9.43945C19.3419 9.72076 19.5 10.1022 19.5 10.5V13.5H22.5V6H19.5C19.1022 6 18.7208 5.84185 18.4395 5.56055C18.1581 5.27924 18 4.89782 18 4.5V1.5H15ZM1.5 10.5V22.5H9V19.5H6C5.60218 19.5 5.22076 19.3419 4.93945 19.0605C4.65815 18.7792 4.5 18.3978 4.5 18V10.5H1.5ZM6 13.5H13.5C13.8978 13.5 14.2792 13.6581 14.5605 13.9395C14.8419 14.2208 15 14.6022 15 15V18H18C18.3978 18 18.7792 18.1581 19.0605 18.4395C19.3419 18.7208 19.5 19.1022 19.5 19.5V22.5C19.5 22.8978 19.3419 23.2792 19.0605 23.5605C18.7792 23.8419 18.3978 24 18 24H1.5C1.10218 24 0.720759 23.8419 0.439453 23.5605C0.158149 23.2792 0 22.8978 0 22.5V10.5C0 10.1022 0.158149 9.72076 0.439453 9.43945C0.720757 9.15815 1.10217 9 1.5 9H4.5C4.89783 9 5.27924 9.15815 5.56055 9.43945C5.84185 9.72076 6 10.1022 6 10.5V13.5ZM19.5 4.5H22.5C22.8978 4.5 23.2792 4.65815 23.5605 4.93945C23.8419 5.22076 24 5.60218 24 6V13.5C24 13.8978 23.8419 14.2792 23.5605 14.5605C23.2792 14.8419 22.8978 15 22.5 15H19.5C19.1022 15 18.7208 14.8419 18.4395 14.5605C18.1581 14.2792 18 13.8978 18 13.5V10.5H15C14.6022 10.5 14.2208 10.3419 13.9395 10.0605C13.6581 9.77924 13.5 9.39783 13.5 9V1.5C13.5 1.10217 13.6581 0.720757 13.9395 0.439453C14.2208 0.158149 14.6022 0 15 0H18C18.3978 0 18.7792 0.158149 19.0605 0.439453C19.3419 0.720759 19.5 1.10218 19.5 1.5V4.5Z" fill="#4E50D1"/>
</svg>
