<svg width="24" height="24" viewBox="0 0 24 24" fill="none" xmlns="http://www.w3.org/2000/svg">
<g clip-path="url(#clip0_8366_23308)">
<path fill-rule="evenodd" clip-rule="evenodd" d="M11.7363 0.0313699C11.5612 0.097944 11.3947 0.24848 11.298 0.427668C11.2552 0.507091 11.252 0.601693 11.2407 2.14399L11.2287 3.77626L10.9102 3.81771C7.21251 4.29903 4.28991 7.22555 3.80924 10.9283L3.76785 11.2472L2.13777 11.2592C0.522595 11.2711 0.506814 11.2717 0.41054 11.3233C0.277475 11.3946 0.12611 11.5513 0.0595052 11.6868C-0.0198351 11.8481 -0.0198351 12.1593 0.0595052 12.3206C0.130859 12.4656 0.286685 12.6219 0.423756 12.6859C0.529119 12.735 0.5703 12.7365 2.14977 12.7482L3.76785 12.7602L3.80924 13.0791C4.28994 16.7818 7.21248 19.7083 10.9102 20.1897L11.2287 20.2311L11.2407 21.8514C11.2524 23.433 11.2539 23.4742 11.303 23.5797C11.3668 23.717 11.5229 23.873 11.6677 23.9444C11.7587 23.9893 11.8196 24 11.9842 24C12.1488 24 12.2098 23.9893 12.3007 23.9444C12.4456 23.873 12.6016 23.717 12.6655 23.5797C12.7145 23.4742 12.716 23.433 12.7277 21.8514L12.7397 20.2311L13.0582 20.1897C16.7555 19.7084 19.6786 16.7814 20.1592 13.0791L20.2006 12.7602L21.8187 12.7482C23.3981 12.7365 23.4393 12.735 23.5447 12.6859C23.6846 12.6206 23.8401 12.4628 23.9047 12.3206C23.9328 12.2586 23.9659 12.1891 23.9781 12.1661C24.0071 12.1117 24.0074 11.8044 23.9783 11.8224C23.9662 11.8299 23.9494 11.8045 23.9409 11.766C23.922 11.6795 23.7981 11.503 23.6967 11.4181C23.5148 11.2657 23.5933 11.2723 21.8187 11.2592L20.2006 11.2472L20.1592 10.9283C19.6785 7.22575 16.7557 4.29901 13.0582 3.81771L12.7397 3.77626L12.7277 2.156C12.716 0.57441 12.7145 0.533173 12.6655 0.427668C12.6015 0.290173 12.4453 0.134137 12.3007 0.063288C12.1606 -0.00535155 11.8753 -0.0214907 11.7363 0.0313699ZM11.4566 5.26983C9.61219 5.43612 7.97444 6.28549 6.81156 7.6788C6.01432 8.63403 5.50842 9.76332 5.31246 11.0251C5.23535 11.5216 5.23535 12.4858 5.31246 12.9823C5.50842 14.2441 6.01432 15.3733 6.81156 16.3286C7.8774 17.6056 9.33493 18.4241 11.0069 18.6844C11.5002 18.7612 12.4662 18.7616 12.9556 18.6852C14.4389 18.4536 15.7058 17.8143 16.7464 16.7723C17.787 15.7303 18.4254 14.4617 18.6567 12.9764C18.7331 12.4863 18.7327 11.519 18.656 11.0251C18.46 9.76332 17.9541 8.63403 17.1569 7.6788C16.094 6.40529 14.6207 5.57667 12.9738 5.32613C12.6546 5.27754 11.7452 5.24382 11.4566 5.26983ZM11.4086 8.29369C10.5926 8.43313 9.90038 8.78651 9.33589 9.35179C8.62288 10.0657 8.2435 10.9868 8.2435 12.0037C8.2435 13.3295 8.90391 14.5083 10.0415 15.2128C10.8762 15.7298 11.9466 15.8854 12.9329 15.633C14.2265 15.302 15.2781 14.249 15.6086 12.9537C15.7678 12.3301 15.7678 11.6773 15.6086 11.0537C15.2779 9.75765 14.2272 8.7056 12.9329 8.37441C12.8267 8.34723 12.648 8.30988 12.5359 8.29146C12.2848 8.25018 11.6559 8.25142 11.4086 8.29369ZM11.8403 9.76298C10.8358 9.83227 9.99304 10.5629 9.78867 11.5416C9.73772 11.7854 9.73758 12.2245 9.78835 12.4658C9.92139 13.098 10.3447 13.668 10.9049 13.9693C11.2153 14.1362 11.4357 14.204 11.7674 14.2346C13.1771 14.3649 14.3424 13.1999 14.2125 11.7902C14.1808 11.4457 14.0997 11.1907 13.9206 10.8726C13.5183 10.1578 12.6707 9.70573 11.8403 9.76298ZM9.594e-05 12.0037C9.594e-05 12.1028 0.00434117 12.1433 0.00949781 12.0937C0.0146784 12.0442 0.0146784 11.9632 0.00949781 11.9136C0.00434117 11.8641 9.594e-05 11.9046 9.594e-05 12.0037Z" fill="#4E50D1"/>
</g>
<defs>
<clipPath id="clip0_8366_23308">
<rect width="24" height="24" fill="white"/>
</clipPath>
</defs>
</svg>
