<svg width="24" height="24" viewBox="0 0 24 24" fill="none" xmlns="http://www.w3.org/2000/svg">
<g clip-path="url(#clip0_8366_23454)">
<path fill-rule="evenodd" clip-rule="evenodd" d="M1.88026 0.0169073C1.41732 0.0962731 0.978907 0.322683 0.648492 0.653034C0.362772 0.938698 0.178926 1.25902 0.0548251 1.6874L0 1.87662V3.66457V5.45252L0.0639467 5.57251C0.306315 6.02742 0.892277 6.13314 1.24917 5.78632C1.30987 5.72736 1.38849 5.61732 1.42389 5.54179L1.48825 5.40452L1.50025 3.71256L1.51225 2.02061L1.58297 1.89296C1.66194 1.75043 1.76391 1.65148 1.91499 1.57077L2.01634 1.51663L3.70862 1.50463L5.4009 1.49263L5.5382 1.42828C6.12784 1.15198 6.13862 0.36569 5.55693 0.0612101L5.44891 0.00466765L3.72062 0.00118775C2.77006 -0.000732199 1.9419 0.00634761 1.88026 0.0169073ZM18.5431 0.0145794C17.9966 0.186127 17.8099 0.855108 18.1972 1.25359C18.2562 1.31429 18.3663 1.39288 18.4418 1.42828L18.5791 1.49263L20.2714 1.50463L21.9637 1.51663L22.065 1.57077C22.2161 1.65148 22.3181 1.75043 22.397 1.89296L22.4677 2.02061L22.4797 3.71256L22.4918 5.40452L22.5561 5.54179C22.8325 6.13131 23.6189 6.14209 23.9234 5.56051L23.98 5.45252L23.9799 3.65257L23.9799 1.85262L23.9127 1.63816C23.6653 0.84774 23.1353 0.317979 22.3462 0.0722498L22.1317 0.00545963L20.3674 0.000611764C19.397 -0.00205216 18.5761 0.00423566 18.5431 0.0145794ZM11.4217 4.14683C10.3437 4.27242 9.32159 4.76949 8.54326 5.54669C7.61875 6.46987 7.11757 7.68112 7.11757 8.99242C7.11757 10.8585 8.14912 12.5211 9.82969 13.3638C10.2913 13.5952 10.9688 13.7954 11.4192 13.8335C11.5079 13.841 11.5758 13.8547 11.5701 13.864C11.5643 13.8734 11.4539 13.8879 11.3247 13.8965C10.1913 13.9714 8.9068 14.4189 7.87331 15.0988C7.25579 15.5051 6.58303 16.1136 6.14719 16.6602C5.50037 17.4714 4.8857 18.6628 4.87817 19.1201C4.87368 19.3911 5.02459 19.6437 5.27322 19.7814C5.38803 19.845 5.42267 19.8521 5.61694 19.8521C5.79735 19.8521 5.85146 19.8427 5.9451 19.7948C6.17212 19.6788 6.27227 19.5398 6.43809 19.1105C6.85122 18.041 7.72007 16.9861 8.71345 16.3481C9.72186 15.7005 10.814 15.3766 11.99 15.3766C13.9306 15.3766 15.733 16.304 16.8686 17.8867C17.1651 18.3001 17.3531 18.6456 17.5591 19.1561C17.7241 19.5653 17.8085 19.6779 18.039 19.7965C18.1284 19.8425 18.1843 19.8521 18.3631 19.8521C18.5573 19.8521 18.592 19.845 18.7068 19.7814C18.8625 19.6952 18.9631 19.5842 19.0421 19.4118C19.1604 19.1535 19.1139 18.914 18.8171 18.2522C18.0981 16.649 16.6914 15.2502 15.0687 14.5251C14.3102 14.1862 13.3826 13.9446 12.6553 13.8965C12.5261 13.8879 12.4157 13.8734 12.4099 13.864C12.4042 13.8547 12.4721 13.841 12.5608 13.8335C12.8224 13.8114 13.2036 13.7253 13.5496 13.6102C14.3844 13.3325 15.1516 12.8107 15.7161 12.1366C16.8188 10.82 17.1526 9.06749 16.6107 7.43928C16.0148 5.6484 14.4202 4.36134 12.5301 4.14561C12.2797 4.11702 11.6718 4.1177 11.4217 4.14683ZM11.5579 5.64715C10.781 5.78815 10.2957 6.00707 9.78895 6.44508C9.22745 6.93044 8.84235 7.58466 8.68506 8.32044C8.6231 8.6102 8.6231 9.37463 8.68506 9.6644C8.84259 10.4013 9.22733 11.0543 9.79106 11.5416C10.2225 11.9145 10.7489 12.1748 11.3179 12.2966C11.6078 12.3587 12.3722 12.3587 12.6621 12.2966C13.0612 12.2112 13.5275 12.0175 13.8535 11.8017C14.1864 11.5813 14.5794 11.1884 14.7998 10.8556C15.0157 10.5296 15.2094 10.0634 15.2949 9.6644C15.3569 9.37453 15.3569 8.6103 15.2949 8.32044C15.2094 7.92142 15.0157 7.45526 14.7998 7.12923C14.5838 6.8031 14.1905 6.40735 13.8725 6.19633C13.5295 5.96874 13.0887 5.78138 12.6861 5.69208C12.5116 5.65339 11.7014 5.62111 11.5579 5.64715ZM0.54009 18.0146C0.340137 18.0756 0.158498 18.2295 0.0565534 18.4242L0 18.5322L7.20116e-05 20.3321L0.000144024 22.132L0.0672592 22.3465C0.314644 23.1368 0.843357 23.6654 1.63381 23.9128L1.84831 23.9799L3.64861 23.9799L5.44891 23.98L5.56893 23.9161C6.02392 23.6737 6.12966 23.0879 5.78278 22.7311C5.7238 22.6704 5.61374 22.5918 5.5382 22.5564L5.4009 22.492L3.70862 22.48L2.01634 22.468L1.91499 22.4139C1.76391 22.3332 1.66194 22.2342 1.58297 22.0917L1.51225 21.9641L1.50025 20.2721L1.48825 18.5801L1.42389 18.4429C1.29358 18.1649 1.02576 17.9899 0.737211 17.9942C0.661814 17.9954 0.573096 18.0045 0.54009 18.0146ZM22.9666 18.0413C22.8051 18.1053 22.6375 18.2693 22.5561 18.4429L22.4918 18.5801L22.4797 20.2721L22.4677 21.9641L22.397 22.0917C22.3181 22.2342 22.2161 22.3332 22.065 22.4139L21.9637 22.468L20.2714 22.48L18.5791 22.492L18.4418 22.5564C17.8522 22.8327 17.8414 23.619 18.4231 23.9235L18.5311 23.98L20.3314 23.9799L22.1317 23.9799L22.3462 23.9128C23.1366 23.6654 23.6654 23.1368 23.9127 22.3465L23.9799 22.132L23.9799 20.3321L23.98 18.5322L23.9234 18.4242C23.8457 18.2756 23.7147 18.1437 23.5719 18.0702C23.4049 17.9841 23.1427 17.9716 22.9666 18.0413Z" fill="#4E50D1"/>
</g>
<defs>
<clipPath id="clip0_8366_23454">
<rect width="24" height="24" fill="white"/>
</clipPath>
</defs>
</svg>
