<svg width="24" height="24" viewBox="0 0 24 24" fill="none" xmlns="http://www.w3.org/2000/svg">
<path fill-rule="evenodd" clip-rule="evenodd" d="M10.8168 0.0481223C10.6422 0.113011 10.4771 0.259856 10.3931 0.425113L10.3234 0.562284L10.3158 1.41923L10.3081 2.27619L10.1915 2.29069C8.65168 2.48229 7.39976 2.93533 6.22495 3.72606C5.00036 4.55031 4.08447 5.58192 3.42842 6.87587C3.00326 7.71445 2.74419 8.54204 2.62057 9.45652C2.57888 9.7651 2.57458 9.86052 2.53258 11.413C2.48318 13.2397 2.34152 14.5403 2.04901 15.8524C1.82435 16.8601 1.46596 17.8372 1.1474 18.3104C0.977265 18.5631 0.954728 18.8106 1.07815 19.0709C1.1518 19.2263 1.29361 19.3617 1.46492 19.4403L1.60158 19.503H11.0937H20.5858L20.7041 19.4498C20.8618 19.3788 21.0532 19.2022 21.1228 19.0635C21.1671 18.9754 21.1795 18.9091 21.1797 18.7589C21.1802 18.5279 21.1333 18.4124 20.9603 18.2187C20.8056 18.0454 20.5557 17.5508 20.4146 17.1385C20.0151 15.9708 19.7825 14.4514 19.6794 12.3357C19.6503 11.7381 19.6283 11.6507 19.4618 11.4718C19.2911 11.2884 19.1408 11.2219 18.8961 11.2218C18.7418 11.2217 18.6696 11.2339 18.5731 11.2765C18.4252 11.3418 18.283 11.4689 18.1928 11.6163C18.1086 11.7539 18.0962 11.992 18.136 12.7044C18.2543 14.8202 18.5206 16.4364 18.9527 17.6606L19.0734 18.0027H11.0498C4.64073 18.0027 3.02878 17.9966 3.03895 17.9727C3.10962 17.8059 3.34667 17.0721 3.42524 16.7769C3.84921 15.184 4.04635 13.531 4.09936 11.1249C4.11272 10.5176 4.13404 9.92884 4.14672 9.81661C4.36613 7.87424 5.41267 6.13291 7.02917 5.02057C8.76123 3.82869 10.8861 3.46145 12.9484 3.99752C13.3604 4.10461 13.5266 4.10642 13.7346 4.00602C14.2964 3.7348 14.3186 2.9663 13.7729 2.68185C13.5455 2.56333 12.8123 2.39164 12.1947 2.3123L11.8793 2.27178L11.8716 1.41704L11.864 0.562284L11.7943 0.425113C11.6173 0.0769536 11.1865 -0.0892162 10.8168 0.0481223ZM18.9458 2.0799C18.4389 2.09766 17.8997 2.2301 17.4255 2.45334C17.0174 2.64546 16.7475 2.83028 16.4031 3.15347C15.1999 4.28274 14.8947 6.03115 15.6448 7.49818C16.2935 8.7668 17.6465 9.57566 19.1198 9.57566C20.782 9.57566 22.2605 8.55171 22.7929 7.03191C23.279 5.64455 22.894 4.12809 21.7997 3.11893C21.0299 2.409 20.0223 2.04216 18.9458 2.0799ZM18.8961 3.58918C18.6943 3.61667 18.5094 3.65621 18.3743 3.70069C17.6516 3.93883 17.1112 4.48965 16.8793 5.22454C16.8191 5.41537 16.8127 5.47219 16.8123 5.81961C16.812 6.13889 16.8209 6.23489 16.865 6.3885C17.0886 7.16762 17.6724 7.74496 18.479 7.98471C18.6799 8.04444 18.7311 8.04962 19.1198 8.04962C19.5103 8.04962 19.5591 8.04463 19.7658 7.98344C20.4788 7.77238 21.0471 7.26451 21.2925 6.61891C21.4083 6.31427 21.4291 6.19124 21.4276 5.81961C21.4258 5.40339 21.3854 5.21967 21.2208 4.88032C20.9182 4.25645 20.322 3.78891 19.6371 3.63842C19.4576 3.599 19.0318 3.5707 18.8961 3.58918ZM8.76208 21.0439C8.60866 21.0948 8.42799 21.2517 8.33722 21.4128C8.22734 21.6079 8.22229 21.7968 8.3195 22.0771C8.46998 22.5111 8.67528 22.8331 9.00696 23.1554C9.61674 23.7482 10.3874 24.0364 11.2552 23.9963C11.969 23.9634 12.5844 23.7064 13.1188 23.2181C13.4765 22.8913 13.702 22.5588 13.8637 22.1197C13.9341 21.9284 13.9421 21.8813 13.9332 21.7081C13.9245 21.5375 13.9123 21.4949 13.8379 21.3742C13.6091 21.0034 13.1211 20.8944 12.7389 21.1288C12.5957 21.2166 12.4965 21.3496 12.4114 21.568C12.3179 21.808 12.2196 21.9593 12.058 22.1117C11.5101 22.6285 10.6627 22.6219 10.1254 22.0968C9.9438 21.9193 9.89393 21.8406 9.76052 21.5206C9.66893 21.301 9.54456 21.1647 9.35367 21.0747C9.19519 21 8.93492 20.9865 8.76208 21.0439Z" fill="#4E50D1"/>
</svg>
