<svg width="24" height="24" viewBox="0 0 24 24" fill="none" xmlns="http://www.w3.org/2000/svg">
<g clip-path="url(#clip0_8366_23273)">
<path fill-rule="evenodd" clip-rule="evenodd" d="M15.7896 0.0142646C14.4787 0.136223 13.3044 0.54682 12.2337 1.25758C10.7175 2.26402 9.58352 3.83936 9.1288 5.57075C8.96287 6.20258 8.90117 6.6371 8.88 7.32331C8.85083 8.26915 8.97299 9.09272 9.27482 9.98499L9.38495 10.3105L5.06575 14.6318C2.11929 17.5798 0.701894 19.0143 0.606041 19.1454C-0.252167 20.3193 -0.193839 21.8795 0.748813 22.965C1.3775 23.689 2.34666 24.0771 3.30086 23.9872C3.87855 23.9327 4.38371 23.7404 4.85672 23.3948C4.98786 23.299 6.423 21.8818 9.37233 18.9356L13.6957 14.617L14.0205 14.7274C17.1154 15.7796 20.5347 14.7326 22.4885 12.1346C23.1559 11.2471 23.6294 10.2113 23.8464 9.16452C23.9608 8.61285 23.9986 8.23314 24 7.62119C24.0019 6.78379 23.9185 6.17453 23.7009 5.43768C23.5948 5.0786 23.3833 4.53352 23.2613 4.30451C23.0766 3.95824 22.6971 3.80803 22.3189 3.93159C22.1915 3.97326 22.1006 4.05976 20.3164 5.83627C19.1788 6.96903 18.3977 7.72842 18.3204 7.7768C18.1044 7.91194 17.8743 7.97915 17.5858 7.99136C17.2864 8.00403 17.0884 7.96569 16.8398 7.84693C16.6101 7.7372 16.2682 7.39545 16.1585 7.16582C15.9352 6.69864 15.963 6.1101 16.2285 5.68567C16.277 5.60822 17.0301 4.83398 18.1579 3.70231C19.1753 2.68134 20.0243 1.81302 20.0445 1.77271C20.1482 1.56638 20.1388 1.27044 20.0219 1.05557C19.9018 0.834997 19.7709 0.751645 19.1737 0.515299C18.594 0.285917 17.9902 0.132729 17.3381 0.0495952C16.9813 0.00414591 16.1118 -0.0157033 15.7896 0.0142646ZM15.7168 1.55699C15.02 1.6403 14.3841 1.83056 13.7386 2.14888C11.7009 3.15369 10.3982 5.24324 10.3999 7.5043C10.4006 8.43161 10.5518 9.16416 10.9072 9.96281C11.0381 10.2568 11.0423 10.2729 11.0431 10.4845C11.0438 10.6672 11.0347 10.7208 10.9872 10.8121C10.9473 10.889 9.59204 12.2612 6.40985 15.4468C3.9235 17.9359 1.85463 20.0177 1.81232 20.0731C1.7029 20.2164 1.59505 20.4586 1.55367 20.6539C1.32796 21.719 2.28229 22.6731 3.34773 22.4474C3.54306 22.4061 3.78527 22.2983 3.9287 22.1889C3.98414 22.1466 6.06659 20.0783 8.55635 17.5927C11.7652 14.3891 13.115 13.0569 13.1924 13.017C13.2811 12.9713 13.3404 12.9606 13.508 12.9601C13.6942 12.9597 13.7356 12.9687 13.9327 13.0533C14.8253 13.4362 15.4318 13.5738 16.3251 13.5958C16.7401 13.6061 16.9135 13.6001 17.1625 13.567C17.9353 13.4642 18.4756 13.3037 19.1271 12.9836C19.3006 12.8983 19.459 12.8174 19.479 12.8037C19.5084 12.7837 19.0892 12.3519 17.3164 10.5762C15.6101 8.86703 15.0911 8.33331 15.0005 8.19441C14.6767 7.69816 14.5113 7.19004 14.4852 6.61099C14.4531 5.90001 14.6743 5.21403 15.1298 4.61226C15.1904 4.53219 15.856 3.84841 16.6089 3.09278C17.8094 1.88785 17.9709 1.71727 17.9213 1.70562C17.1543 1.52518 16.4052 1.47468 15.7168 1.55699ZM20.8869 7.42202C19.9092 8.39463 19.4314 8.85283 19.2917 8.95176C19.0744 9.10561 18.6952 9.30126 18.4839 9.36862C18.4104 9.39201 18.3409 9.4166 18.3293 9.42324C18.3178 9.42987 18.8525 9.97943 19.5177 10.6445L20.727 11.8537L20.8884 11.6786C21.9633 10.5124 22.5396 8.95756 22.4822 7.37853C22.4678 6.98352 22.4148 6.57823 22.3339 6.24509L22.2825 6.03352L20.8869 7.42202Z" fill="#4E50D1"/>
</g>
<defs>
<clipPath id="clip0_8366_23273">
<rect width="24" height="24" fill="white"/>
</clipPath>
</defs>
</svg>
