<svg width="24" height="24" viewBox="0 0 24 24" fill="none" xmlns="http://www.w3.org/2000/svg">
<g clip-path="url(#clip0_8366_23833)">
<path fill-rule="evenodd" clip-rule="evenodd" d="M9.82141 0.038937C9.38698 0.14288 9.01782 0.430435 8.8146 0.82323C8.67103 1.1007 4.08921 11.4593 4.04292 11.6111C4.01162 11.7136 3.99928 11.8312 4.00003 12.0193C4.00096 12.2426 4.0114 12.3129 4.06762 12.4746C4.19659 12.8453 4.47844 13.1684 4.81961 13.3369C5.14771 13.4989 5.1093 13.4959 6.90108 13.4959C8.1842 13.4959 8.51449 13.5021 8.5047 13.5259C8.49791 13.5425 7.58108 15.6521 6.46728 18.2141C5.35351 20.776 4.42066 22.9316 4.39428 23.0043C4.26218 23.3683 4.44125 23.7833 4.80031 23.9451C4.97678 24.0247 5.26448 24.0233 5.43309 23.9421C5.53103 23.895 6.91216 22.5458 12.5118 17.027C16.3382 13.2559 19.5366 10.093 19.6195 9.99845C19.7024 9.90387 19.8017 9.76341 19.8402 9.68631C20.2143 8.9363 19.9089 8.02694 19.1608 7.66363C18.8302 7.50307 18.9063 7.50878 16.9 7.49433L15.0784 7.48119L17.1518 4.92403C18.2922 3.51759 19.2535 2.31954 19.2879 2.2617C19.4602 1.97242 19.5329 1.53412 19.4646 1.19696C19.3549 0.655345 18.8729 0.167804 18.32 0.0392732C18.1811 0.00697851 17.6625 0.00270457 14.0609 0.00414523C10.6612 0.00551385 9.93626 0.0114686 9.82141 0.038937ZM10.1307 1.59252C10.1122 1.63542 9.06749 3.99361 7.80908 6.8329L5.52108 11.9952L7.18072 12.0082C8.64737 12.0196 8.85393 12.0258 8.95673 12.0613C9.58095 12.2767 9.99041 12.7887 10.035 13.4094C10.0617 13.7798 10.0827 13.7246 8.68439 16.9441C7.97443 18.5787 7.39648 19.919 7.40003 19.9225C7.40359 19.926 9.89763 17.4712 12.9423 14.4674L18.4781 9.00589H16.675C14.9718 9.00589 14.8616 9.00332 14.6877 8.95942C14.2339 8.84494 13.8731 8.55071 13.6746 8.13345C13.5717 7.91721 13.5379 7.75141 13.5414 7.48119C13.5453 7.18331 13.625 6.91658 13.7762 6.69544C13.8546 6.58071 17.7454 1.76218 17.9256 1.5565C17.9607 1.5165 17.7746 1.51448 14.0634 1.51448H10.1643L10.1307 1.59252Z" fill="#4E50D1"/>
</g>
<defs>
<clipPath id="clip0_8366_23833">
<rect width="24" height="24" fill="white"/>
</clipPath>
</defs>
</svg>
