<svg width="24" height="24" viewBox="0 0 24 24" fill="none" xmlns="http://www.w3.org/2000/svg">
<path fill-rule="evenodd" clip-rule="evenodd" d="M14.9432 0.012796C13.5078 0.199036 12.384 1.17737 12.04 2.54026C11.7549 3.66946 12.0675 4.86216 12.8664 5.6934C13.4174 6.26669 14.0772 6.60533 14.8616 6.71741C15.1223 6.75468 15.7397 6.73424 15.9872 6.68014C17.3699 6.378 18.4159 5.28963 18.6397 3.92026C18.6859 3.63759 18.6852 3.09027 18.6383 2.82197C18.3813 1.35267 17.2577 0.251932 15.79 0.031468C15.5769 -0.000547975 15.1231 -0.010556 14.9432 0.012796ZM14.892 1.54263C14.3274 1.67105 13.8065 2.11078 13.5792 2.65076C13.4382 2.98592 13.405 3.5064 13.5014 3.87226C13.5565 4.08128 13.7132 4.37825 13.8576 4.54733C14.2987 5.06367 14.8587 5.29318 15.5143 5.22627C16.3061 5.14546 16.9717 4.54716 17.1409 3.76426C17.1918 3.52868 17.1816 3.11938 17.1192 2.89479C16.9432 2.26128 16.4779 1.77711 15.8552 1.57973C15.6398 1.51143 15.1175 1.49132 14.892 1.54263ZM4.53924 2.19413C4.24752 2.24607 4.17309 2.26292 4.04724 2.30549C3.49164 2.49353 3.00799 2.91764 2.75318 3.44026C2.59725 3.76006 2.54532 3.96418 2.53029 4.31626C2.50975 4.79741 2.59471 5.17104 2.81025 5.5478C2.94535 5.78391 5.20332 8.60525 5.50982 8.9209C5.79737 9.21706 6.0191 9.39982 6.37524 9.63425C7.04081 10.0723 7.78267 10.3493 8.56445 10.4514C8.73319 10.4735 8.87525 10.4948 8.88012 10.4988C8.88501 10.5028 8.67156 11.0141 8.40578 11.6351C8.14001 12.256 7.89938 12.8532 7.87104 12.9622C7.82304 13.1467 7.81855 13.238 7.80537 14.3003C7.79145 15.4237 7.79045 15.442 7.73616 15.5598C7.69457 15.65 7.54085 15.8206 7.10921 16.2558C6.79469 16.5728 6.50981 16.8766 6.47618 16.9308C6.44253 16.985 6.40241 17.0934 6.387 17.1718C6.29155 17.6569 6.69192 18.1061 7.18025 18.0618C7.44691 18.0376 7.49851 17.9989 8.18918 17.3051C8.54061 16.9521 8.86728 16.6022 8.91653 16.5262C9.06305 16.2998 9.17241 16.0576 9.23813 15.8139C9.29945 15.5864 9.30017 15.5735 9.31363 14.4443L9.32724 13.3043L10.0452 11.6363C10.7391 10.0243 10.7635 9.96221 10.7733 9.78826C10.7865 9.55356 10.7259 9.38345 10.5743 9.22971C10.3638 9.01618 10.3385 9.01044 9.53124 8.99271C9.14184 8.98416 8.75304 8.9647 8.66724 8.94946C7.89048 8.81148 7.23297 8.48427 6.69216 7.96654C6.34862 7.63769 4.12541 4.86214 4.06646 4.68857C3.94356 4.32651 4.10143 3.93692 4.4381 3.7716C4.55397 3.7147 4.60526 3.70426 4.76894 3.70426C4.93687 3.70426 4.98134 3.71384 5.10336 3.77626C5.23761 3.84495 5.29188 3.90783 6.28394 5.14426C6.85586 5.85706 7.39658 6.52952 7.48553 6.6386C7.75361 6.96735 8.0669 7.19885 8.43866 7.34288C8.82888 7.49405 8.77713 7.49038 10.7369 7.50598L12.5306 7.52026L16.3808 9.44511C18.4984 10.5037 20.2676 11.4021 20.3124 11.4415C20.4243 11.5397 20.516 11.7177 20.5439 11.8908C20.6195 12.3602 20.2336 12.7702 19.7492 12.7352C19.6158 12.7255 19.3826 12.6133 16.4415 11.1434C13.2875 9.56708 13.2767 9.56192 13.1104 9.55251C13.0187 9.54732 12.9021 9.55606 12.8514 9.57192C12.7065 9.61726 12.5262 9.75219 12.4432 9.87749C12.4013 9.94061 12.1151 10.5809 11.8072 11.3003L11.2473 12.6083L11.2473 12.7883C11.2472 12.9364 11.259 12.9922 11.3137 13.1037C11.4336 13.3478 11.4866 13.3809 12.8469 14.0616C13.5379 14.4074 14.1788 14.7391 14.2712 14.7986C14.7291 15.094 15.1898 15.5711 15.4471 16.0163C15.5819 16.2493 15.6997 16.5129 16.4071 18.1638C16.8 19.0809 17.1464 19.8706 17.1767 19.9186C17.4234 20.3093 17.9939 20.3629 18.3299 20.0269C18.5398 19.8169 18.6014 19.5609 18.5104 19.2764C18.463 19.1281 17.0432 15.8102 16.9338 15.5921C16.6083 14.9428 16.0982 14.3105 15.5312 13.8536C15.1372 13.5359 14.88 13.3869 13.7608 12.827L12.9648 12.4289L13.0446 12.2426C13.3343 11.566 13.4328 11.3483 13.449 11.3483C13.4591 11.3483 14.6526 11.9408 16.1013 12.665C17.5499 13.3892 18.8134 14.016 18.909 14.0578C19.2113 14.19 19.4389 14.2357 19.8032 14.2372C20.0616 14.2382 20.1704 14.2277 20.3403 14.1851C21.64 13.8594 22.3702 12.5165 21.9368 11.2489C21.7923 10.8262 21.4676 10.3984 21.1036 10.1512C21.0266 10.0989 19.1878 9.16954 17.0174 8.08596C14.0474 6.6032 13.0237 6.10277 12.8792 6.063C12.6914 6.01131 12.6478 6.00989 10.8752 5.99722L9.06324 5.98426L8.93052 5.91908C8.85751 5.88322 8.76996 5.82382 8.73597 5.78708C8.70199 5.75033 8.16782 5.08846 7.54896 4.31626C6.93009 3.54406 6.36847 2.8608 6.30091 2.79792C5.99606 2.5141 5.66489 2.33705 5.25924 2.24098C5.10194 2.20373 4.65038 2.17436 4.53924 2.19413ZM11.2804 15.1734C11.0948 15.2397 10.9024 15.4031 10.8193 15.5648C10.8003 15.6019 10.756 15.7779 10.7209 15.956C10.5804 16.6683 10.3202 17.2101 9.87595 17.7157C9.59731 18.0327 9.53885 18.1249 9.50949 18.2934C9.42667 18.769 9.76082 19.1758 10.2368 19.1789C10.483 19.1805 10.6392 19.1047 10.8564 18.8781C11.3011 18.4142 11.6934 17.8007 11.9213 17.2125L12.0075 16.9901L12.3354 17.1546C12.6892 17.332 12.8106 17.4294 12.9008 17.6078C12.9321 17.6696 13.1154 18.0902 13.3081 18.5423C13.5008 18.9945 13.6847 19.4157 13.7168 19.4783C13.9481 19.9304 14.5551 20.0231 14.9165 19.6615C15.079 19.499 15.1615 19.2337 15.1195 19.0089C15.0833 18.8155 14.2501 16.9008 14.1103 16.6901C13.9605 16.4642 13.7717 16.2686 13.5517 16.1117C13.3802 15.9893 11.8333 15.21 11.6742 15.1658C11.5529 15.1321 11.387 15.1353 11.2804 15.1734ZM2.27599 17.2855C2.06469 17.3641 1.90445 17.5233 1.82441 17.7339C1.72922 17.9844 1.72464 18.5346 1.81483 18.8827C1.98789 19.5505 2.50267 20.1355 3.14858 20.3984C3.35969 20.4843 2.69357 20.3383 11.8899 22.3153L19.7086 23.9963H20.1344C20.5957 23.9963 20.7415 23.971 21.0392 23.8396C21.3867 23.6863 21.8016 23.3352 21.9971 23.0291C22.2241 22.6734 22.3595 22.2793 22.3382 22.0355C22.3037 21.6384 21.9812 21.3504 21.5722 21.3513C21.3783 21.3517 21.2077 21.424 21.0653 21.5659C20.9601 21.6707 20.9103 21.762 20.8371 21.9848C20.7766 22.1687 20.6823 22.2993 20.5414 22.3945C20.4343 22.4668 20.2414 22.5323 20.1353 22.5323C20.0028 22.5323 3.76123 19.0267 3.66324 18.977C3.44733 18.8673 3.28459 18.6381 3.25291 18.399C3.24542 18.3425 3.25053 18.2278 3.26426 18.1442C3.32028 17.803 3.16553 17.4802 2.87455 17.3312C2.72328 17.2537 2.42289 17.2308 2.27599 17.2855Z" fill="#4E50D1"/>
</svg>
