<svg width="24" height="24" viewBox="0 0 24 24" fill="none" xmlns="http://www.w3.org/2000/svg">
<g clip-path="url(#clip0_8366_23586)">
<path fill-rule="evenodd" clip-rule="evenodd" d="M11.7817 0.0277888C11.656 0.0652091 11.5264 0.153236 11.4147 0.276977C11.2193 0.493309 11.2362 -0.170553 11.2362 7.27688V13.9431L9.54239 12.2937C7.63709 10.4384 7.73197 10.5163 7.37886 10.5176C7.06446 10.5188 6.81655 10.674 6.68186 10.9539C6.63064 11.0603 6.61851 11.1211 6.61948 11.2662C6.62167 11.6009 6.46416 11.4278 9.14816 14.0455C11.8357 16.6667 11.656 16.5113 12 16.5113C12.3442 16.5113 12.1651 16.666 14.8468 14.0519C17.5427 11.4241 17.3839 11.5993 17.3826 11.2542C17.3817 11.0286 17.3227 10.8888 17.1619 10.7312C17.0118 10.584 16.8406 10.5168 16.618 10.5176C16.2654 10.519 16.3598 10.4414 14.4578 12.2935L12.7641 13.9427L12.7578 7.23038L12.7515 0.518048L12.698 0.42075C12.6249 0.287665 12.4637 0.135582 12.3277 0.0713818C12.1986 0.0104717 11.9157 -0.0121053 11.7817 0.0277888ZM5.43583 3.7751C5.17499 3.80013 4.76298 3.89294 4.52246 3.98089C3.25752 4.44343 2.37524 5.43529 2.06651 6.74178L2.01048 6.97893L2.00232 13.7521C1.99631 18.7371 2.00161 20.5822 2.02235 20.7413C2.12667 21.5411 2.48631 22.2704 3.06884 22.8635C3.62124 23.4259 4.27444 23.7759 5.10145 23.9525L5.36014 24.0078H12H18.6399L18.8986 23.9525C19.7256 23.7759 20.3788 23.4259 20.9312 22.8635C21.5137 22.2704 21.8733 21.5411 21.9776 20.7413C21.9984 20.5822 22.0037 18.7371 21.9977 13.7521L21.9895 6.97893L21.9335 6.74178C21.5882 5.28035 20.507 4.19965 19.0484 3.85777C18.6394 3.76192 18.2871 3.74458 16.9152 3.75289L15.6587 3.7605L15.5179 3.82789C15.0419 4.05576 14.9339 4.66543 15.3054 5.02755C15.3714 5.09192 15.4779 5.1682 15.542 5.1971C15.6566 5.24869 15.6842 5.24987 17.1 5.26296C18.4745 5.27566 18.5501 5.27866 18.731 5.32771C19.4416 5.52036 20.024 6.01684 20.2878 6.6549C20.3343 6.76731 20.3923 6.94024 20.4168 7.0392C20.4591 7.20996 20.4617 7.54872 20.4695 13.692C20.4751 18.0666 20.4694 20.2506 20.4521 20.4292C20.3947 21.0181 20.1875 21.4583 19.7814 21.8542C19.4877 22.1405 19.1428 22.3347 18.719 22.4522C18.5744 22.4923 18.2043 22.4947 12 22.4947C5.79569 22.4947 5.42563 22.4923 5.28098 22.4522C4.85719 22.3347 4.51226 22.1405 4.21858 21.8542C3.91046 21.5539 3.7259 21.2389 3.6018 20.8017L3.53696 20.5732V13.9202C3.53696 7.56354 3.53898 7.25805 3.58204 7.063C3.67707 6.63271 3.87816 6.26269 4.187 5.94983C4.47792 5.65508 4.84921 5.44136 5.26692 5.32824C5.45042 5.27852 5.52086 5.27571 6.9 5.26296L8.3413 5.24963L8.48208 5.18223C8.7429 5.05738 8.92029 4.78324 8.92029 4.50506C8.92029 4.22688 8.7429 3.95274 8.48208 3.82789L8.3413 3.7605L6.99855 3.75726C6.26004 3.75548 5.5568 3.76353 5.43583 3.7751Z" fill="#4E50D1"/>
</g>
<defs>
<clipPath id="clip0_8366_23586">
<rect width="24" height="24" fill="white"/>
</clipPath>
</defs>
</svg>
