<svg width="24" height="24" viewBox="0 0 24 24" fill="none" xmlns="http://www.w3.org/2000/svg">
<path fill-rule="evenodd" clip-rule="evenodd" d="M2.78689 0.0299037C2.33498 0.122162 1.94629 0.336486 1.62838 0.668696C1.32317 0.987648 1.14378 1.32332 1.04248 1.76503C1.00183 1.94229 1 2.38588 1 12.0024C1 21.6189 1.00183 22.0625 1.04248 22.2397C1.14378 22.6814 1.32317 23.0171 1.62838 23.3361C1.90599 23.6261 2.26664 23.8404 2.65468 23.9458L2.85418 24H11.996H21.1378L21.3373 23.9458C21.7253 23.8404 22.0859 23.6262 22.3636 23.3361C22.6603 23.026 22.8275 22.7186 22.9496 22.2586C22.9887 22.111 22.9914 21.6361 22.9982 13.5756C23.0032 7.53038 22.9979 4.99034 22.9798 4.84788C22.9296 4.45269 22.7868 4.09516 22.552 3.77664C22.3705 3.5305 19.3664 0.533251 19.1613 0.393724C18.9451 0.246582 18.6937 0.126293 18.4621 0.0591832L18.2744 0.00475558L10.6112 0.000888477C4.20582 -0.00235412 2.92161 0.00240169 2.78689 0.0299037ZM2.98312 1.52839C2.80529 1.58376 2.62184 1.74887 2.53293 1.93362L2.47865 2.04639V12.0024V21.9584L2.53331 22.072C2.61076 22.2329 2.77752 22.3924 2.92895 22.4504C3.05497 22.4986 3.0886 22.4988 11.996 22.4988C20.9033 22.4988 20.937 22.4986 21.063 22.4504C21.2144 22.3924 21.3812 22.2329 21.4586 22.072L21.5133 21.9584L21.5204 13.5156C21.5256 7.33837 21.5204 5.03902 21.5011 4.94689C21.4847 4.8683 21.4423 4.77784 21.3884 4.70626C21.3409 4.64316 20.8479 4.13816 20.2928 3.58399C19.7377 3.02981 19.0668 2.35888 18.8019 2.09299C18.377 1.66658 18.3042 1.60345 18.1849 1.55777L18.0496 1.50596L10.5458 1.50803C6.41868 1.50915 3.01547 1.51833 2.98312 1.52839ZM6.01066 7.51933C5.84961 7.55483 5.73409 7.62669 5.61441 7.76584C5.49687 7.90251 5.44761 8.05034 5.44791 8.26565C5.44808 8.39461 5.46183 8.46559 5.50497 8.56044C5.58007 8.7255 5.75157 8.89099 5.9107 8.95193C6.03644 9.00007 6.07152 9.00031 12.0736 8.99416L18.1101 8.98796L18.2242 8.9283C18.3792 8.84726 18.5538 8.64703 18.6039 8.49275C18.6631 8.31018 18.6426 8.06226 18.5547 7.89686C18.4396 7.68042 18.2577 7.55113 18.0099 7.50957C17.7974 7.47398 6.17357 7.48339 6.01066 7.51933ZM5.90357 12.0517C5.75157 12.1117 5.57784 12.2817 5.50497 12.4419C5.46183 12.5368 5.44808 12.6077 5.44791 12.7367C5.44761 12.9528 5.49692 13.0999 5.61605 13.2384C5.7411 13.3838 5.87231 13.4588 6.05791 13.4909C6.16677 13.5098 7.90789 13.5154 12.1368 13.5105L18.0631 13.5036L18.1933 13.4411C18.4698 13.3084 18.6147 13.099 18.6331 12.8057C18.6477 12.5736 18.5979 12.4243 18.4511 12.2599C18.3891 12.1905 18.287 12.1069 18.2242 12.0741L18.1101 12.0144L12.0664 12.0095C6.11722 12.0048 6.02085 12.0054 5.90357 12.0517ZM6.01066 16.5266C5.84961 16.5621 5.73409 16.6339 5.61441 16.7731C5.49687 16.9097 5.44761 17.0576 5.44791 17.2729C5.44808 17.4018 5.46183 17.4728 5.50497 17.5677C5.58017 17.7329 5.75155 17.8982 5.91113 17.9593C6.03644 18.0073 6.07622 18.0078 9.14021 18.0015L12.2424 17.9952L12.3565 17.9355C12.5116 17.8545 12.6861 17.6543 12.7362 17.5C12.7954 17.3174 12.775 17.0695 12.687 16.9041C12.5719 16.6876 12.39 16.5584 12.1422 16.5168C11.9326 16.4817 6.17271 16.4908 6.01066 16.5266Z" fill="#4E50D1"/>
</svg>
