<svg width="24" height="24" viewBox="0 0 24 24" fill="none" xmlns="http://www.w3.org/2000/svg">
<path fill-rule="evenodd" clip-rule="evenodd" d="M2.79529 0.029923C2.04078 0.183883 1.4158 0.717301 1.15066 1.43358C0.999418 1.84213 1.01138 1.42464 1.0028 6.59888C0.994703 11.4904 0.998456 11.7251 1.09391 12.2908C1.41625 14.2011 2.59086 16.221 4.72093 18.528C6.22966 20.162 8.44505 22.0448 10.5074 23.4459C11.2047 23.9197 11.4137 23.9979 11.9883 24C12.595 24.0021 12.7847 23.9276 13.607 23.3642C16.006 21.7205 18.3687 19.6353 19.9905 17.7306C21.6538 15.777 22.623 13.9687 22.9061 12.2908C23.0015 11.7251 23.0053 11.4904 22.9972 6.59888C22.9899 2.21683 22.9867 1.89205 22.9484 1.74635C22.7928 1.15441 22.4878 0.700389 22.0285 0.376807C21.8705 0.265463 21.559 0.119911 21.3486 0.0590142L21.1609 0.00472349L12.0586 0.000879901C4.43965 -0.0023391 2.93013 0.00239332 2.79529 0.029923ZM2.96103 1.54074C2.7612 1.61389 2.59637 1.78137 2.51898 1.98991C2.47713 2.1027 2.47546 2.28762 2.47546 6.81085C2.47546 10.7857 2.48074 11.5552 2.50953 11.7772C2.56993 12.2432 2.65486 12.588 2.83174 13.0849C2.96032 13.4462 3.39744 14.3322 3.65022 14.7438C4.85897 16.7122 6.99868 18.9256 9.72443 21.0272C10.6211 21.7185 11.595 22.4041 11.7706 22.4676C11.8918 22.5114 12.1083 22.5113 12.2296 22.4675C12.3945 22.4079 13.263 21.8003 14.1348 21.1347C16.2729 19.5022 18.1218 17.7346 19.4017 16.0997C20.4693 14.736 21.1831 13.3623 21.4202 12.2154C21.526 11.7035 21.5245 11.7779 21.5245 6.8115C21.5245 2.16102 21.524 2.10705 21.4774 1.97956C21.4226 1.82959 21.2687 1.65401 21.1215 1.57356L21.0202 1.51814L12.0352 1.51312C4.51355 1.50891 3.0357 1.51343 2.96103 1.54074ZM18.3655 3.94142C18.2603 3.97664 18.1364 4.0581 18.0695 4.13605C18.0465 4.16276 16.2861 6.44055 14.1574 9.19777C11.9657 12.0366 10.2657 14.2178 10.2379 14.2269C10.1634 14.2511 10.0409 14.246 9.98692 14.2164C9.91103 14.1748 9.8468 14.0846 8.61194 12.286C7.97011 11.3512 7.41159 10.5521 7.37082 10.5104C7.16972 10.3045 6.81307 10.2467 6.55239 10.3777C6.21391 10.5479 6.05108 10.9593 6.18236 11.3124C6.23489 11.4537 8.60612 14.9218 8.81355 15.1607C9.47192 15.9189 10.6419 15.9533 11.3491 15.2352C11.5266 15.0549 19.1971 5.09942 19.2648 4.96149C19.3382 4.81187 19.3463 4.58047 19.2849 4.39098C19.2378 4.24591 19.0707 4.05707 18.9205 3.97916C18.7901 3.91151 18.5114 3.89256 18.3655 3.94142Z" fill="#4E50D1"/>
</svg>
