<svg width="24" height="24" viewBox="0 0 24 24" fill="none" xmlns="http://www.w3.org/2000/svg">
<g clip-path="url(#clip0_8366_23555)">
<path fill-rule="evenodd" clip-rule="evenodd" d="M18.3842 2.76188C17.2997 2.83352 16.246 3.2552 15.4001 3.95607C15.2791 4.05627 14.9621 4.35483 14.6955 4.61955C14.1266 5.18439 14.0761 5.26196 14.0771 5.56885C14.0779 5.80671 14.1454 5.9606 14.3185 6.11879C14.4713 6.25842 14.6153 6.31295 14.8305 6.31261C15.1019 6.3122 15.177 6.26154 15.7674 5.68088C16.2815 5.17523 16.5296 4.96525 16.8169 4.7924C17.1452 4.59491 17.6204 4.40783 17.9789 4.33494C19.6202 4.00127 21.2613 4.76907 22.0526 6.24085C22.6567 7.36453 22.6321 8.77139 21.9891 9.87563C21.7466 10.292 21.626 10.4208 19.2031 12.8494C17.8881 14.1675 16.6904 15.3579 16.5416 15.4946C15.9904 16.0013 15.3893 16.3096 14.6642 16.4574C14.5111 16.4887 14.3375 16.4992 13.9682 16.4999C13.5395 16.5007 13.4444 16.4937 13.2286 16.4454C12.8614 16.3632 12.647 16.2872 12.3002 16.1164C10.3062 15.1342 9.62088 12.6105 10.8388 10.7345C11.0606 10.3929 11.0753 10.356 11.0758 10.1409C11.0761 9.9837 11.0649 9.9249 11.014 9.81685C10.893 9.55991 10.6662 9.40503 10.3875 9.38888C10.0476 9.3692 9.85468 9.48935 9.59455 9.88251C8.57803 11.4189 8.44214 13.3815 9.23762 15.0369C10.1182 16.8692 11.9482 18.0233 13.9751 18.0246C15.1643 18.0255 16.2745 17.6367 17.2603 16.8743C17.5251 16.6695 22.6449 11.5498 22.8496 11.285C23.237 10.7841 23.554 10.2008 23.7343 9.65694C24.5609 7.16365 23.4196 4.445 21.0602 3.28703C20.2288 2.87898 19.3179 2.70023 18.3842 2.76188ZM9.64819 6.23187C8.56699 6.33349 7.71748 6.65348 6.86419 7.28053C6.51856 7.53452 1.30358 12.7522 1.04572 13.102C0.317275 14.0901 -0.035717 15.2253 0.00743501 16.4409C0.056683 17.8282 0.612091 19.0663 1.62355 20.0432C2.91873 21.2942 4.78795 21.7853 6.55137 21.338C7.29693 21.1489 8.04403 20.7639 8.64019 20.2617C8.76559 20.156 9.11892 19.8168 9.42537 19.5079C10.057 18.8712 10.105 18.8016 10.1071 18.5194C10.1106 18.0684 9.79663 17.7544 9.3456 17.7579C9.06206 17.7601 9.00369 17.8013 8.29593 18.4996C7.67392 19.1134 7.46505 19.2911 7.14019 19.4833C6.74822 19.7151 6.18004 19.9068 5.69649 19.9702C5.42407 20.006 4.86561 19.9884 4.57639 19.9351C3.82567 19.7965 3.12911 19.4248 2.58724 18.8734C2.27212 18.5528 2.09455 18.3059 1.90447 17.924C1.63617 17.3848 1.51305 16.858 1.51305 16.2488C1.51305 15.4762 1.71799 14.8083 2.16134 14.1357C2.29451 13.9337 2.60567 13.6141 5.00155 11.2182C7.39742 8.82234 7.71705 8.51118 7.91906 8.378C9.26248 7.49236 10.9248 7.51715 12.2237 8.4422C12.4814 8.62575 12.8882 9.03493 13.0725 9.29607C13.3569 9.69899 13.5962 10.246 13.6901 10.7075C13.897 11.7246 13.6997 12.7039 13.1058 13.6084C12.9384 13.8633 12.9021 13.9729 12.919 14.1729C12.9486 14.5243 13.1825 14.7832 13.5396 14.8598C13.7527 14.9055 14.0236 14.8217 14.1857 14.6598C14.3144 14.5312 14.5866 14.0994 14.7499 13.7649C15.1003 13.0467 15.2712 12.2953 15.2712 11.4729C15.2712 10.6812 15.1073 9.93428 14.782 9.24373C14.3516 8.33019 13.619 7.51297 12.7562 6.98389C12.1894 6.63632 11.4462 6.37203 10.7678 6.2768C10.5076 6.24027 9.84275 6.21361 9.64819 6.23187Z" fill="#4E50D1"/>
</g>
<defs>
<clipPath id="clip0_8366_23555">
<rect width="24" height="24" fill="white"/>
</clipPath>
</defs>
</svg>
