<svg width="24" height="24" viewBox="0 0 24 24" fill="none" xmlns="http://www.w3.org/2000/svg">
<g clip-path="url(#clip0_8366_23361)">
<path fill-rule="evenodd" clip-rule="evenodd" d="M8.98704 0.0266226C6.74787 0.207775 4.59202 1.19062 2.96607 2.77155C1.4941 4.20277 0.516245 6.02926 0.145733 8.03955C0.0250608 8.69429 -0.000403208 9.00447 4.79214e-06 9.81555C0.000484792 10.8009 0.0733248 11.4137 0.287237 12.2314C1.0248 15.0511 2.8556 17.3149 5.43504 18.5967C7.35632 19.5515 9.4676 19.8486 11.5923 19.4632C13.1358 19.1833 14.7165 18.4563 15.9667 17.4514L16.1905 17.2716L19.5068 20.5848C22.7252 23.8004 22.8273 23.8997 22.967 23.9512C23.5724 24.1744 24.1619 23.5849 23.9387 22.9795C23.8872 22.8398 23.7878 22.7377 20.5721 19.5191C18.0326 16.9772 17.2645 16.1952 17.2836 16.1711C17.2974 16.1537 17.3779 16.0532 17.4625 15.9476C19.1267 13.8707 19.8737 11.1949 19.533 8.53155C19.3181 6.85155 18.5983 5.13039 17.5483 3.78562C16.7415 2.75225 15.7658 1.91069 14.627 1.26596C13.4244 0.585031 12.0479 0.157111 10.667 0.0348546C10.2429 -0.00270542 9.4004 -0.00683342 8.98704 0.0266226ZM9.40704 1.51441C8.17203 1.56533 6.97044 1.90138 5.83174 2.51427C5.12393 2.89522 4.59994 3.28474 3.98667 3.8858C3.27958 4.57877 2.80536 5.22848 2.3738 6.09555C1.96779 6.91122 1.71015 7.73074 1.5702 8.65155C1.5049 9.08134 1.47941 10.0622 1.52124 10.5364C1.64924 11.9874 2.20899 13.5004 3.04373 14.6516C3.44708 15.2078 4.07977 15.8773 4.58305 16.2805C5.73985 17.2072 7.14447 17.8197 8.60393 18.0338C9.27464 18.1322 10.2049 18.1433 10.823 18.0602C12.8346 17.79 14.6274 16.8595 15.9436 15.4023C17.1042 14.1175 17.8031 12.5988 18.0508 10.8236C18.0826 10.5955 18.0929 10.3538 18.0937 9.81555C18.0947 9.09509 18.0827 8.93847 17.9836 8.37555C17.5266 5.78022 15.8676 3.55417 13.523 2.39053C12.1979 1.73283 10.8853 1.45342 9.40704 1.51441Z" fill="#4E50D1"/>
</g>
<defs>
<clipPath id="clip0_8366_23361">
<rect width="24" height="24" fill="white"/>
</clipPath>
</defs>
</svg>
