<svg width="24" height="24" viewBox="0 0 24 24" fill="none" xmlns="http://www.w3.org/2000/svg">
<g clip-path="url(#clip0_8366_23269)">
<path fill-rule="evenodd" clip-rule="evenodd" d="M4.61911 0.033568C4.30563 0.154387 4.12151 0.426825 4.12151 0.769863C4.12151 0.92369 4.13071 0.952592 4.25573 1.19205C4.51114 1.68113 4.60356 2.10322 4.55296 2.54972C4.48878 3.11632 4.2874 3.53798 3.89648 3.92423C3.45819 4.35731 2.94536 4.56671 2.32069 4.56772C1.90252 4.56839 1.66642 4.50828 1.26743 4.2996L0.964074 4.14092L0.747975 4.14023C0.501959 4.13941 0.377295 4.18644 0.219687 4.33947C0.0045488 4.54839 -0.043209 4.78319 0.035763 5.24376C0.181653 6.09446 0.572864 6.88873 1.16725 7.54101C1.71223 8.13906 2.62304 8.66562 3.42342 8.84537C4.06905 8.99036 4.82438 8.98971 5.4545 8.84362L5.61883 8.80552L6.29282 9.47746C6.71416 9.89753 7.00571 10.1693 7.07058 10.2025C7.21429 10.276 7.46189 10.2917 7.6244 10.2378C7.88412 10.1516 8.08701 9.91306 8.13047 9.6429C8.15299 9.50297 8.1244 9.29662 8.06651 9.18113C8.04651 9.14126 7.63424 8.71084 7.15032 8.22466C6.1763 7.24603 6.14907 7.2245 5.86139 7.20563C5.71785 7.19622 5.66001 7.20558 5.47722 7.26778C5.15067 7.37892 5.00022 7.412 4.69052 7.44083C4.00163 7.50493 3.31724 7.3148 2.70487 6.88926C2.51117 6.75466 2.17454 6.4177 2.03775 6.2215L1.93488 6.07399L2.28439 6.0742C3.09219 6.07471 3.75489 5.88298 4.38328 5.46696C5.09525 4.99561 5.65478 4.25841 5.89657 3.47304C6.01326 3.09407 6.04685 2.87555 6.06318 2.38963L6.0784 1.93602L6.27227 2.08217C7.08316 2.6934 7.53587 3.72527 7.43392 4.73004C7.40563 5.00891 7.37101 5.16329 7.26279 5.49289C7.20099 5.68121 7.19081 5.74401 7.20058 5.87697C7.22281 6.17932 7.20701 6.16026 8.54937 7.5039C9.37395 8.32927 9.80968 8.74853 9.87854 8.78288C10.4133 9.04951 11.0348 8.6443 10.9822 8.06339C10.9568 7.78433 10.9499 7.77583 9.83338 6.65804L8.80028 5.62374L8.83707 5.48177C8.98022 4.92921 8.98934 4.17967 8.86067 3.53937C8.58841 2.18434 7.67155 1.01568 6.40839 0.413598C5.77541 0.111874 4.89891 -0.0742885 4.61911 0.033568ZM20.8457 0.0587017C20.7125 0.11341 20.5971 0.222539 19.2532 1.56447C17.6806 3.13478 17.6034 3.2231 17.4454 3.63278C17.3325 3.92533 17.2965 4.12582 17.2961 4.46358C17.2957 4.77865 17.3489 5.07438 17.4451 5.29184L17.4901 5.39338L13.4115 9.47095L9.33296 13.5485L8.76218 12.9832C8.42146 12.6457 8.15465 12.401 8.10032 12.376C7.88443 12.2768 7.58871 12.2859 7.399 12.3976C7.24877 12.4862 0.718226 19.0373 0.582324 19.2358C0.355253 19.5675 0.187152 19.9679 0.097183 20.3912C0.035715 20.6805 0.0417177 21.2301 0.109909 21.5555C0.354268 22.7215 1.27422 23.6412 2.44075 23.8858C2.78742 23.9585 3.31494 23.96 3.64129 23.8892C4.17628 23.7731 4.59107 23.5671 5.03393 23.1975C5.13297 23.1149 6.64669 21.6124 8.39776 19.8588C11.9557 16.2957 11.6948 16.5832 11.6936 16.2263C11.6927 15.9251 11.6688 15.8904 10.9944 15.2127L10.4015 14.6168L14.4717 10.5474L18.542 6.47809L18.6732 6.53811C19.1703 6.76568 19.8804 6.76133 20.4303 6.5274C20.8067 6.36726 20.902 6.28245 22.4452 4.73518C23.8391 3.33753 23.9034 3.26917 23.954 3.13128C23.9938 3.02275 24.0048 2.94867 23.9982 2.83075C23.9818 2.5322 23.9812 2.53153 22.7009 1.25576C21.6129 0.171575 21.5329 0.0972784 21.4025 0.0494836C21.2144 -0.0194361 21.0283 -0.0163634 20.8457 0.0587017ZM20.0132 2.94516C18.9626 3.99843 18.8906 4.07604 18.843 4.20644C18.7448 4.47508 18.8035 4.75911 19.0007 4.9699C19.1477 5.12704 19.3082 5.19426 19.5365 5.19426C19.8571 5.19426 19.8244 5.22021 21.0681 3.97658L22.1779 2.86691L21.6553 2.34488L21.1327 1.82284L20.0132 2.94516ZM15.4065 12.7764C15.149 12.8494 14.9315 13.09 14.8782 13.3607C14.8404 13.5531 14.879 13.746 14.9881 13.9097C15.1132 14.0973 17.6536 16.6181 17.7837 16.6838C17.8578 16.7211 17.9495 16.7418 18.075 16.7493C18.233 16.7587 18.2894 16.75 18.4832 16.6864C18.9274 16.5407 19.1036 16.5107 19.5076 16.5119C20.1061 16.5137 20.6798 16.692 21.2053 17.0394C21.4318 17.1891 21.7992 17.5624 21.965 17.8113C22.3509 18.3907 22.5073 18.9316 22.4818 19.599C22.4512 20.3983 22.1774 21.0418 21.6325 21.5952C21.2171 22.017 20.7957 22.2594 20.2109 22.4128C19.8965 22.4952 19.2932 22.5167 18.9723 22.4569C18.3389 22.3387 17.7874 22.0402 17.3317 21.5691C17.0939 21.3233 16.9692 21.1498 16.8296 20.8713C16.5641 20.3417 16.4496 19.752 16.5097 19.2248C16.5421 18.9406 16.578 18.7825 16.6834 18.4617C16.7714 18.1935 16.7705 17.9906 16.6804 17.8106C16.6432 17.7363 16.3217 17.397 15.6503 16.7235C14.5436 15.6133 14.5447 15.6141 14.2303 15.6156C14.0108 15.6167 13.8581 15.6777 13.7059 15.8253C13.5314 15.9945 13.4978 16.0806 13.4978 16.3583C13.4978 16.5647 13.5058 16.6135 13.5549 16.7064C13.5909 16.7746 13.8936 17.0975 14.3765 17.583L15.1411 18.3516L15.1076 18.4788C14.9776 18.9711 14.9653 19.8458 15.0805 20.394C15.466 22.2289 16.8825 23.6048 18.7359 23.9445C19.0296 23.9983 19.6659 24.0176 19.9602 23.9816C21.0366 23.8499 21.9379 23.4208 22.6673 22.6928C24.0393 21.3235 24.3864 19.2627 23.5362 17.5345C23.2926 17.0394 23.0311 16.6751 22.6531 16.3043C21.5608 15.2328 20.0714 14.7933 18.5694 15.0994L18.3277 15.1486L17.1853 14.0083C16.2822 13.1067 16.0192 12.8574 15.9295 12.8178C15.787 12.7549 15.5488 12.7361 15.4065 12.7764ZM4.84991 17.0373C3.24982 18.6311 1.90233 19.9843 1.85546 20.0445C1.60137 20.3707 1.49757 20.849 1.58812 21.2763C1.70279 21.8174 2.17879 22.2932 2.71997 22.4079C3.14006 22.4969 3.61673 22.3967 3.93776 22.1519C3.9926 22.1101 5.35298 20.7625 6.96083 19.1572L9.88416 16.2385L8.83378 15.1881C8.25605 14.6104 7.77794 14.1382 7.77127 14.1386C7.76462 14.1391 6.45 15.4435 4.84991 17.0373ZM19.3091 18.3875C19.0404 18.4343 18.8516 18.5408 18.6535 18.7575C18.1451 19.3136 18.3291 20.1872 19.0264 20.528C19.1834 20.6047 19.1976 20.6072 19.4897 20.6072C19.7886 20.6072 19.7924 20.6065 19.9699 20.5187C20.403 20.3045 20.6436 19.8914 20.6103 19.419C20.564 18.7606 19.9522 18.2756 19.3091 18.3875Z" fill="#4E50D1"/>
</g>
<defs>
<clipPath id="clip0_8366_23269">
<rect width="24" height="24" fill="white"/>
</clipPath>
</defs>
</svg>
