<svg width="24" height="24" viewBox="0 0 24 24" fill="none" xmlns="http://www.w3.org/2000/svg">
<g clip-path="url(#clip0_8366_23919)">
<path fill-rule="evenodd" clip-rule="evenodd" d="M18.4978 0.0248876C18.1923 0.145572 18.0031 0.392752 17.9862 0.693371C17.9639 1.0875 18.2264 1.41832 18.611 1.48081C18.7 1.49529 19.3003 1.50535 20.0801 1.50544L21.3986 1.50563L19.4927 3.41513C18.2745 4.63559 17.5305 5.36318 17.4309 5.43145C17.2126 5.58111 16.9703 5.6606 16.6845 5.67635C16.538 5.68442 16.4066 5.67796 16.3249 5.65873C16.2541 5.64205 14.857 5.27428 13.2201 4.8415C11.2414 4.31828 10.1656 4.0447 10.0099 4.02508C9.4872 3.95918 8.9026 4.05163 8.40119 4.27951C7.94402 4.48729 8.06681 4.37259 4.72859 7.70939C2.87863 9.55855 1.60886 10.8457 1.5803 10.9007C1.55398 10.9515 1.52283 11.0519 1.51111 11.1241C1.43602 11.5861 1.78951 11.9973 2.26116 11.9966C2.57005 11.9961 2.3625 12.186 5.70727 8.84383C8.96047 5.59314 8.84731 5.69851 9.20758 5.58414C9.40926 5.52011 9.71438 5.49983 9.90642 5.53764C9.98861 5.55384 11.3943 5.9213 13.0301 6.3542C14.666 6.78712 16.0951 7.15347 16.206 7.16833C16.938 7.26648 17.6886 7.08683 18.3118 6.66428C18.4523 6.56902 18.9829 6.0536 20.4817 4.55656L22.4656 2.57492V3.90843C22.4656 4.75183 22.475 5.29295 22.4912 5.38073C22.5796 5.85948 23.1018 6.13285 23.5325 5.92581C23.7092 5.84085 23.8342 5.71347 23.9152 5.53596L23.9767 5.40104L23.9704 2.96717L23.964 0.533338L23.9086 0.420624C23.8378 0.276772 23.6928 0.131552 23.5492 0.0607065L23.4366 0.00517758L21.0032 0.000832258C19.1769 -0.00243274 18.5518 0.00356909 18.4978 0.0248876ZM10.0974 9.54868C9.85001 9.6142 9.63189 9.74348 9.43338 9.94223C9.23129 10.1446 9.10502 10.3609 9.03969 10.6167C8.99248 10.8015 8.99181 10.8855 8.99181 16.6461V22.488H8.24943H7.50703L7.49964 19.6251C7.49281 16.9782 7.48907 16.7514 7.45014 16.6182C7.32729 16.1981 7.0424 15.851 6.66036 15.656C6.35696 15.5011 6.37839 15.5026 4.49654 15.5026C2.61469 15.5026 2.63613 15.5011 2.33273 15.656C1.95321 15.8497 1.66918 16.1913 1.54175 16.6073C1.50538 16.726 1.5009 17.0075 1.49385 19.6131L1.48606 22.488L1.13325 22.4882C0.939218 22.4883 0.712728 22.4994 0.629943 22.5128C0.142297 22.5921 -0.139766 23.1181 0.0703728 23.5563C0.154452 23.7317 0.281518 23.8575 0.456798 23.9388L0.588659 24H11.9887H23.3886L23.5205 23.9388C23.7 23.8555 23.8216 23.732 23.9185 23.5344C23.9854 23.3981 24 23.3408 24 23.2149C24 23.1304 23.9908 23.0671 23.9796 23.074C23.9684 23.081 23.9468 23.0454 23.9317 22.995C23.8921 22.8626 23.7564 22.6966 23.618 22.6113C23.4633 22.516 23.2897 22.4884 22.8432 22.4882L22.4896 22.488L22.4894 18.5088C22.4893 16.2067 22.4798 14.4476 22.4669 14.3351C22.4546 14.2281 22.4224 14.0776 22.3954 14.0006C22.2497 13.5853 21.8792 13.2166 21.4632 13.0726L21.3028 13.0171H19.4808H17.6587L17.4983 13.0726C16.9665 13.2566 16.5687 13.7474 16.4957 14.3095C16.4827 14.4096 16.4731 16.1567 16.4727 18.4848L16.4719 22.488H15.7287H14.9855L14.9851 16.6602C14.9847 11.6388 14.9798 10.8092 14.9496 10.6644C14.8498 10.1863 14.4632 9.75603 13.9626 9.56575C13.8233 9.51279 13.8157 9.51255 12.0486 9.5072C10.3558 9.50206 10.2664 9.50396 10.0974 9.54868ZM10.5022 16.7383V22.488H11.9887H13.4751V16.7383V10.9885H11.9887H10.5022V16.7383ZM17.9823 18.4908V22.488H19.4808H20.9792V18.4908V14.4936H19.4808H17.9823V18.4908ZM2.99812 19.7392V22.488H4.49654H5.99496V19.7392V16.9903H4.49654H2.99812V19.7392ZM0.00933304 23.2563C0.00933304 23.3553 0.0135766 23.3958 0.0187311 23.3463C0.0239097 23.2968 0.0239097 23.2158 0.0187311 23.1662C0.0135766 23.1167 0.00933304 23.1572 0.00933304 23.2563Z" fill="#4E50D1"/>
</g>
<defs>
<clipPath id="clip0_8366_23919">
<rect width="24" height="24" fill="white"/>
</clipPath>
</defs>
</svg>
