<svg width="24" height="24" viewBox="0 0 24 24" fill="none" xmlns="http://www.w3.org/2000/svg">
<path d="M9.33508 7.66653C9.33508 7.54451 9.33508 7.45222 9.33508 7.35994C9.33508 5.95926 9.33406 4.55757 9.33508 3.15689C9.33713 1.8403 10.1677 1.00256 11.4781 1.00154C14.9378 0.999487 18.3984 0.999487 21.8581 1.00154C23.1562 1.00154 23.997 1.83928 23.9981 3.13331C24.0001 5.71317 24.0011 8.29303 23.9981 10.8729C23.997 12.1526 23.1552 12.9913 21.8765 12.9975C21.7063 12.9975 21.5371 12.9975 21.3331 12.9975V13.2836C21.3331 14.2064 21.3321 15.1293 21.3331 16.0511C21.3331 16.2377 21.328 16.4171 21.1249 16.5043C20.9147 16.5945 20.7886 16.4541 20.6604 16.3259C19.6033 15.2687 18.5492 14.2085 17.4838 13.1595C17.3936 13.0703 17.2387 13.0118 17.1106 13.0047C16.7537 12.9842 16.3948 12.9975 15.999 12.9975C15.999 13.099 15.999 13.1892 15.999 13.2784C15.999 14.6709 15.999 16.0634 15.999 17.4559C15.999 18.8422 15.1839 19.6615 13.8037 19.6615C11.514 19.6615 9.22434 19.6645 6.93466 19.6574C6.73779 19.6574 6.60346 19.7178 6.46811 19.8553C5.42838 20.9052 4.38044 21.947 3.3366 22.9939C3.20637 23.1252 3.0782 23.2564 2.8721 23.1683C2.66907 23.0801 2.66702 22.8976 2.66805 22.712C2.6701 21.7984 2.66805 20.8837 2.66805 19.9701C2.66805 19.8778 2.66805 19.7855 2.66805 19.6625C2.47322 19.6625 2.29686 19.6625 2.12049 19.6625C0.854144 19.6563 0.00512691 18.8186 0.00307615 17.5594C-0.00102538 14.9621 -0.00102538 12.3648 0.00307615 9.76856C0.00512691 8.50939 0.854144 7.66858 2.12049 7.66653C4.41017 7.66345 6.69985 7.66653 8.98953 7.66653H9.33303H9.33508ZM19.9991 13.7788C19.9991 13.262 19.995 12.818 20.0001 12.3751C20.0062 11.9403 20.2728 11.6737 20.7066 11.6676C21.0993 11.6614 21.492 11.6676 21.8858 11.6655C22.4138 11.6635 22.6651 11.4102 22.6651 10.8749C22.6651 8.29509 22.6651 5.71522 22.6651 3.13638C22.6651 2.58678 22.4159 2.33659 21.8704 2.33556C18.4025 2.33556 14.9347 2.33556 11.4669 2.33556C10.9203 2.33556 10.6701 2.58678 10.6701 3.13433C10.6701 4.56064 10.6701 5.98695 10.6701 7.41428V7.65012C10.7255 7.66037 10.7429 7.6655 10.7593 7.6655C11.7929 7.6655 12.8265 7.6655 13.8601 7.66755C15.1593 7.67063 15.998 8.50426 16.0021 9.79727C16.0042 10.3438 16.0021 10.8903 16.0021 11.4369C16.0021 11.5097 16.0114 11.5835 16.0175 11.6655C16.4841 11.6655 16.928 11.6809 17.371 11.6604C17.733 11.644 18.0067 11.7681 18.2559 12.0265C18.8117 12.6027 19.3849 13.1626 20.0001 13.7778L19.9991 13.7788ZM7.99183 14.996C8.7096 15.0021 9.31868 14.4084 9.33303 13.6886C9.34739 12.9616 8.74241 12.3412 8.01234 12.3341C7.29457 12.3279 6.68447 12.9216 6.67114 13.6414C6.65678 14.3674 7.26381 14.9888 7.99183 14.996ZM13.332 13.6568C13.3269 12.937 12.725 12.3371 12.0062 12.3341C11.2782 12.331 10.666 12.9452 10.6701 13.6732C10.6753 14.4023 11.2946 15.0083 12.0216 14.996C12.7414 14.9837 13.3361 14.3746 13.332 13.6568ZM4.00002 12.3341C3.28122 12.3361 2.6783 12.936 2.67215 13.6548C2.666 14.3828 3.27815 14.997 4.00617 14.996C4.72496 14.9939 5.32789 14.3941 5.33404 13.6753C5.34019 12.9472 4.72804 12.333 4.00002 12.3341Z" fill="#4E50D1"/>
</svg>
