<svg width="24" height="24" viewBox="0 0 24 24" fill="none" xmlns="http://www.w3.org/2000/svg">
<path fill-rule="evenodd" clip-rule="evenodd" d="M8.01011 0.00707277C7.11215 0.136189 6.38526 0.775476 6.125 1.66497L6.07025 1.85208V12.0012V22.1503L6.12571 22.3425C6.32144 23.0208 6.84636 23.6064 7.47849 23.8519C7.8703 24.004 7.80667 24 9.84086 24C11.586 24 11.7066 23.9973 11.8777 23.9542C12.692 23.7491 13.2929 23.1849 13.5433 22.3905L13.6115 22.1743L13.6236 16.3035L13.6357 10.4327L15.8522 16.2074C17.0713 19.3835 18.1168 22.1011 18.1754 22.2464C18.3233 22.6129 18.4674 22.8324 18.7275 23.0872C18.9925 23.3467 19.2523 23.5074 19.5851 23.6179C20.0161 23.7609 20.4671 23.777 20.9016 23.6649C21.0286 23.6321 22.4156 23.1165 22.6757 23.0053C22.9817 22.8746 23.3715 22.5569 23.5774 22.2704C23.7216 22.0697 23.8448 21.8171 23.9196 21.5687C24.0099 21.2686 24.026 20.8251 23.9583 20.5048C23.922 20.3332 23.1734 18.3581 20.9398 12.5417C19.3062 8.28746 17.9411 4.7375 17.9064 4.6529C17.7406 4.24946 17.3574 3.8101 16.974 3.58382C16.5988 3.36241 16.0449 3.23077 15.6483 3.26875C15.3347 3.2988 15.1534 3.35174 14.4138 3.62946C14.0088 3.78151 13.666 3.90592 13.6519 3.90592C13.6346 3.90592 13.6237 3.57327 13.6181 2.86699L13.6098 1.82805L13.5425 1.61186C13.3 0.832815 12.7337 0.291152 11.9141 0.054059C11.7504 0.00671245 11.6792 0.00481474 9.9136 0.000803131C8.90669 -0.00150294 8.05012 0.00133161 8.01011 0.00707277ZM8.01011 1.57268C7.76879 1.68774 7.62954 1.87468 7.58516 2.1431C7.55362 2.334 7.5533 21.6665 7.58485 21.8573C7.63024 22.132 7.77973 22.3262 8.03468 22.4418L8.16205 22.4996L9.86833 22.4931L11.5746 22.4866L11.6837 22.4305C11.8197 22.3606 11.965 22.2249 12.0231 22.1135C12.0474 22.0669 12.0792 21.9649 12.0937 21.8869C12.1312 21.686 12.1312 2.31641 12.0937 2.11547C12.0792 2.0375 12.0474 1.93553 12.0231 1.88888C11.965 1.77751 11.8197 1.64177 11.6837 1.57186L11.5746 1.51577L9.86511 1.50953L8.1556 1.50328L8.01011 1.57268ZM9.626 3.01948C9.5025 3.05649 9.37488 3.14453 9.26424 3.26904C9.07241 3.48494 9.08807 2.88147 9.09503 9.79196L9.10129 15.9768L9.17326 16.1055C9.33734 16.399 9.65328 16.548 9.98635 16.4891C10.2171 16.4483 10.4088 16.3041 10.5238 16.0849L10.5804 15.9768V9.74317V3.50957L10.5278 3.41225C10.4556 3.27862 10.2973 3.12714 10.1608 3.06118C10.0326 2.99918 9.76365 2.97821 9.626 3.01948ZM14.9354 5.04721C14.0384 5.38277 13.971 5.41282 13.8591 5.52697C13.707 5.68215 13.6599 5.8075 13.6604 6.05586L13.6608 6.27205L16.6361 14.0125C18.2725 18.2697 19.6326 21.7941 19.6586 21.8446C19.7684 22.0578 20.065 22.2344 20.3132 22.2344C20.3773 22.2344 20.4888 22.2143 20.5609 22.1897C20.8298 22.098 22.0047 21.6508 22.091 21.6073C22.3535 21.475 22.5205 21.1436 22.4732 20.8486C22.4553 20.7371 16.561 5.34993 16.4641 5.16168C16.3946 5.02682 16.2226 4.88089 16.0637 4.82199C15.8134 4.72921 15.7534 4.74118 14.9354 5.04721ZM1.81741 5.28824C1.60289 5.33434 1.43975 5.38954 1.26909 5.47374C0.689358 5.75976 0.273281 6.24774 0.0763123 6.87259L0.00817458 7.08878L0.00153054 14.5235C-0.00312513 19.7028 0.0027187 22.0091 0.0207352 22.1263C0.149979 22.966 0.783247 23.665 1.65706 23.9325L1.87529 23.9993L3.19683 23.9997L4.51836 24L4.64057 23.9361C5.21307 23.6367 5.19358 22.8468 4.60699 22.5743L4.46986 22.5106L3.25745 22.4986L2.04503 22.4866L1.92379 22.4227C1.70068 22.3051 1.56533 22.1148 1.52309 21.8593C1.48979 21.6579 1.49154 7.59576 1.52488 7.39215C1.55633 7.20005 1.61247 7.09174 1.74598 6.96529C1.9751 6.74833 2.03191 6.74047 3.3701 6.74047C4.6218 6.74047 4.61926 6.74083 4.82614 6.53057C5.00466 6.34913 5.05182 6.23739 5.05182 5.9958C5.05182 5.75422 5.00466 5.64247 4.82614 5.46103C4.61598 5.24743 4.64239 5.25084 3.21409 5.25303C2.25238 5.25452 1.93735 5.26247 1.81741 5.28824ZM9.51351 18.4234C9.13523 18.5471 8.82112 18.875 8.73924 19.2316C8.63999 19.6639 8.75798 20.0425 9.08596 20.3443C9.15512 20.4079 9.28506 20.4943 9.37474 20.5364C9.53104 20.6098 9.55029 20.6129 9.84212 20.6129C10.1447 20.6129 10.1476 20.6124 10.3296 20.5233C10.735 20.3248 10.9805 19.9419 10.9805 19.5079C10.9805 19.0741 10.735 18.6911 10.3296 18.4926C10.1554 18.4073 10.1337 18.4027 9.87854 18.3973C9.70674 18.3937 9.57568 18.4031 9.51351 18.4234Z" fill="#4E50D1"/>
</svg>
