<svg width="24" height="24" viewBox="0 0 24 24" fill="none" xmlns="http://www.w3.org/2000/svg">
<g clip-path="url(#clip0_8366_23716)">
<path fill-rule="evenodd" clip-rule="evenodd" d="M5.92073 0.0235504C5.36434 0.0950411 4.79256 0.312178 4.315 0.63331C3.74926 1.01374 3.35245 1.46894 3.03719 2.09918C2.74388 2.68551 0.405699 7.70822 0.324155 7.92713C-0.116336 9.10968 -0.107513 10.465 0.348299 11.6365C0.539654 12.1284 0.828831 12.6338 1.14726 13.0328C1.44718 13.4087 1.96528 13.8812 2.35458 14.1339C2.44341 14.1916 2.51604 14.2456 2.51592 14.254C2.51582 14.2623 2.47537 14.2923 2.42601 14.3207C2.0831 14.5176 1.43617 15.098 1.14278 15.4721C0.349954 16.483 -0.0401394 17.6767 0.00613471 18.9504C0.0553819 20.3056 0.60192 21.5433 1.57178 22.4961C2.34698 23.2576 3.24158 23.7193 4.36228 23.9362L4.63801 23.9895L11.7949 23.9978C16.8069 24.0036 19.0345 23.9982 19.2275 23.98C20.4366 23.866 21.5755 23.3286 22.438 22.4649C23.4219 21.4799 23.9515 20.2133 23.9912 18.7502C23.9967 18.546 23.9914 18.3696 23.9792 18.3541C23.9671 18.3388 23.9502 18.2449 23.9415 18.1456C23.8989 17.6538 23.6918 16.9519 23.436 16.4316C23.0299 15.6059 22.4135 14.9017 21.6378 14.3776C21.5385 14.3106 21.4573 14.2524 21.4573 14.2483C21.4573 14.2443 21.5409 14.1857 21.6431 14.1182C22.7646 13.377 23.5903 12.1569 23.8679 10.8307C23.9665 10.3596 24.0369 9.42491 23.9792 9.35176C23.9671 9.33642 23.9502 9.24258 23.9415 9.14324C23.9174 8.8647 23.8199 8.43105 23.7022 8.07849C23.6241 7.84434 23.2406 7.00085 22.2707 4.93012C21.5421 3.37442 20.8964 2.01213 20.836 1.90283C20.275 0.888616 19.1974 0.164251 18.0407 0.0237665C17.7809 -0.00777775 6.1662 -0.00799381 5.92073 0.0235504ZM5.9357 1.549C5.35763 1.67362 4.85101 2.02109 4.52273 2.51809C4.45576 2.61947 3.42721 4.77264 3.42721 4.81146C3.42721 4.81607 3.50371 4.79379 3.5972 4.76193C3.83893 4.67961 4.2096 4.59218 4.53011 4.54189C4.79124 4.50089 5.18584 4.49861 11.9867 4.49861C18.7842 4.49861 19.1823 4.50091 19.4433 4.54182C19.7942 4.59682 20.0944 4.66672 20.3471 4.75223C20.4566 4.78932 20.5462 4.8152 20.5462 4.80975C20.5462 4.77055 19.5196 2.62223 19.4511 2.51809C19.1596 2.07486 18.7037 1.73923 18.1726 1.57683L17.9928 1.52185L12.0467 1.51765C6.87532 1.514 6.07907 1.51808 5.9357 1.549ZM4.85552 6.02608C3.58094 6.14875 2.42136 6.97202 1.86746 8.14756C1.63088 8.64963 1.53587 9.04439 1.51606 9.60741C1.49304 10.2617 1.59744 10.778 1.87127 11.3644C2.32651 12.3392 3.2511 13.1031 4.301 13.3717C4.77863 13.4939 4.3969 13.4881 11.9867 13.4881C19.5765 13.4881 19.1948 13.4939 19.6724 13.3717C20.8384 13.0734 21.8034 12.2023 22.2325 11.0608C22.4975 10.3559 22.5391 9.53647 22.3474 8.79573C22.1129 7.88904 21.4856 7.0455 20.6786 6.55134C20.2135 6.26657 19.6338 6.07623 19.0717 6.02368C18.7459 5.99324 5.17304 5.99554 4.85552 6.02608ZM5.44121 8.63177C5.32593 8.65011 5.09274 8.7428 4.99765 8.80805C4.84411 8.91341 4.67637 9.10923 4.60149 9.2705C4.39769 9.70955 4.48545 10.2051 4.82737 10.546C5.07481 10.7928 5.3367 10.8876 5.71133 10.8662C5.89311 10.8559 5.94893 10.8416 6.09945 10.7671C6.33176 10.6522 6.51683 10.4661 6.633 10.2308C6.71255 10.0696 6.723 10.0265 6.7319 9.82303C6.74413 9.543 6.69665 9.34588 6.56951 9.14893C6.32512 8.77033 5.87288 8.56304 5.44121 8.63177ZM11.7389 9.03697C11.4179 9.15484 11.2261 9.45389 11.2487 9.80109C11.2656 10.0597 11.3766 10.2466 11.5976 10.3886C11.7726 10.501 11.9435 10.5173 12.8566 10.5081L13.6531 10.5002L13.7849 10.4368C14.4001 10.1414 14.3759 9.28469 13.7456 9.04859C13.6228 9.00259 13.5638 8.99988 12.7231 9.00146C12.0189 9.00281 11.8115 9.0103 11.7389 9.03697ZM16.2151 9.04976C16.0464 9.11472 15.8873 9.26152 15.8066 9.42661C15.7512 9.54009 15.7397 9.59463 15.7402 9.74383C15.7411 10.053 15.9008 10.3034 16.1826 10.4374L16.3144 10.5002H17.9808H19.6471L19.779 10.4368C20.3942 10.1414 20.3699 9.28469 19.7397 9.04859C19.6132 9.00122 19.5612 8.99983 17.9739 9.00103C16.4036 9.00223 16.3335 9.00418 16.2151 9.04976ZM0.00831655 9.75598C0.00834053 9.96723 0.0120089 10.0504 0.0164685 9.9409C0.0209041 9.83134 0.0208801 9.65849 0.0163965 9.5568C0.011913 9.45509 0.00829257 9.54472 0.00831655 9.75598ZM4.85552 15.0284C3.58094 15.1511 2.42136 15.9744 1.86746 17.1499C1.63088 17.652 1.53587 18.0467 1.51606 18.6098C1.49304 19.264 1.59744 19.7804 1.87127 20.3668C2.32651 21.3416 3.2511 22.1054 4.301 22.374C4.77863 22.4963 4.3969 22.4905 11.9867 22.4905C19.5765 22.4905 19.1948 22.4963 19.6724 22.374C20.8384 22.0757 21.8034 21.2047 22.2325 20.0631C22.4975 19.3582 22.5391 18.5388 22.3474 17.7981C22.1129 16.8914 21.4856 16.0479 20.6786 15.5537C20.2135 15.2689 19.6338 15.0786 19.0717 15.026C18.7459 14.9956 5.17304 14.9979 4.85552 15.0284ZM5.44121 17.6341C5.32593 17.6525 5.09274 17.7451 4.99765 17.8104C4.84411 17.9158 4.67637 18.1116 4.60149 18.2729C4.39769 18.7119 4.48545 19.2074 4.82737 19.5484C5.07481 19.7951 5.3367 19.89 5.71133 19.8686C5.89311 19.8582 5.94893 19.844 6.09945 19.7695C6.33176 19.6545 6.51683 19.4685 6.633 19.2331C6.71255 19.0719 6.723 19.0289 6.7319 18.8254C6.74413 18.5453 6.69665 18.3482 6.56951 18.1513C6.32512 17.7727 5.87288 17.5654 5.44121 17.6341ZM11.7389 18.0393C11.4179 18.1572 11.2261 18.4562 11.2487 18.8034C11.2656 19.062 11.3766 19.249 11.5976 19.3909C11.7726 19.5034 11.9435 19.5196 12.8566 19.5105L13.6531 19.5025L13.7849 19.4392C14.4001 19.1438 14.3759 18.287 13.7456 18.0509C13.6228 18.0049 13.5638 18.0022 12.7231 18.0038C12.0189 18.0052 11.8115 18.0126 11.7389 18.0393ZM16.2151 18.0521C16.0464 18.1171 15.8873 18.2639 15.8066 18.429C15.7512 18.5424 15.7397 18.597 15.7402 18.7462C15.7411 19.0553 15.9008 19.3058 16.1826 19.4398L16.3144 19.5025H17.9808H19.6471L19.779 19.4392C20.3942 19.1438 20.3699 18.287 19.7397 18.0509C19.6132 18.0036 19.5612 18.0022 17.9739 18.0034C16.4036 18.0046 16.3335 18.0065 16.2151 18.0521ZM0.00831655 18.7583C0.00834053 18.9696 0.0120089 19.0528 0.0164685 18.9433C0.0209041 18.8337 0.0208801 18.6608 0.0163965 18.5592C0.011913 18.4574 0.00829257 18.5471 0.00831655 18.7583Z" fill="#4E50D1"/>
</g>
<defs>
<clipPath id="clip0_8366_23716">
<rect width="24" height="24" fill="white"/>
</clipPath>
</defs>
</svg>
