<svg width="24" height="24" viewBox="0 0 24 24" fill="none" xmlns="http://www.w3.org/2000/svg">
<path fill-rule="evenodd" clip-rule="evenodd" d="M11.9798 0.0237038C11.5199 0.0651014 11.2441 0.101336 10.8701 0.169484C8.57285 0.588189 6.74035 1.76334 5.27213 3.7594C4.74362 4.4779 4.30225 5.22476 3.77496 6.29272C3.21885 7.41902 2.79455 8.43014 2.06198 10.3748C1.26909 12.4797 1.05818 13.0465 1.03013 13.1483C0.986119 13.308 0.991152 13.6841 1.03981 13.8683C1.18224 14.4075 1.58802 14.8131 2.12276 14.9508C2.27993 14.9913 2.38874 14.9972 2.96725 14.9972H3.63131V16.2822C3.63131 17.6138 3.64071 17.7757 3.74135 18.1789C4.03142 19.3409 4.92877 20.3476 6.04316 20.7612C6.51974 20.9381 6.91767 20.9993 7.59565 20.9999L8.08938 21.0004L8.09656 22.219C8.1036 23.414 8.10474 23.4398 8.1559 23.5513C8.1846 23.6139 8.26036 23.7177 8.32428 23.782C8.68544 24.1456 9.28885 24.0398 9.51655 23.5731L9.58262 23.4376V21.7447V20.0519L9.5232 19.9347C9.44091 19.7725 9.30442 19.6385 9.14504 19.5633L9.01015 19.4997L7.97255 19.4861L6.93494 19.4725L6.74033 19.4076C6.29736 19.26 6.03698 19.0978 5.73531 18.7815C5.44378 18.4758 5.26333 18.132 5.16697 17.6986C5.12878 17.527 5.12284 17.3208 5.11124 15.7656L5.09827 14.0247L5.04252 13.9167C4.92777 13.6943 4.74145 13.5538 4.50352 13.5103C4.41805 13.4947 3.99102 13.4845 3.42539 13.4845H2.48881L2.52509 13.397C2.54505 13.3489 2.76879 12.7573 3.02228 12.0823C4.43602 8.31788 4.9901 7.04219 5.80806 5.66839C7.11093 3.48021 8.64014 2.24834 10.6679 1.75352C11.3556 1.58572 11.853 1.52677 12.7193 1.51046C13.4708 1.49629 13.8371 1.52057 14.4264 1.62358C15.8396 1.87062 17.2233 2.50436 18.3477 3.41955C18.6472 3.66325 19.1619 4.16744 19.4282 4.4778C21.1587 6.49464 21.8673 9.20764 21.3419 11.8046C21.1813 12.5986 20.9596 13.2472 20.6062 13.9577C20.1776 14.8191 19.7349 15.4402 19.026 16.1749C18.6968 16.516 18.6341 16.5931 18.5904 16.7107L18.5394 16.848V20.1205C18.5394 23.8111 18.524 23.518 18.7301 23.745C18.8999 23.9321 19.0293 23.9898 19.2788 23.9899C19.4426 23.9899 19.5031 23.9792 19.5936 23.9344C19.7281 23.8677 19.8838 23.7162 19.9546 23.5829L20.0064 23.4857L20.0127 20.4027L20.019 17.3198L20.2273 17.1003C21.8153 15.4274 22.7679 13.2891 22.9759 10.9312C23.0083 10.564 23.008 9.62896 22.9754 9.26556C22.6951 6.14052 21.0861 3.40447 18.5114 1.67466C17.2055 0.79729 15.7225 0.253191 14.0789 0.0484847C13.6682 -0.00268589 12.4346 -0.0172375 11.9798 0.0237038ZM12.8324 3.76146C11.4347 3.87766 10.0883 4.50508 9.10468 5.4986C8.52417 6.08491 8.30215 6.46282 8.26675 6.9247C8.25082 7.13272 8.29843 7.42642 8.3786 7.6147C8.48605 7.86705 8.70583 8.12936 8.93859 8.28299C9.14835 8.42147 16.9577 12.5209 17.1135 12.5743C17.2983 12.6377 17.6203 12.6595 17.8294 12.6229C18.2698 12.5457 18.6778 12.2476 18.8817 11.8541C19.1147 11.4046 19.2788 10.5323 19.2788 9.74372C19.2788 8.79366 19.0897 7.97347 18.6712 7.10914C18.3648 6.47627 17.9319 5.87776 17.4399 5.40682C16.2034 4.22325 14.5179 3.62133 12.8324 3.76146ZM12.9459 5.26227C12.9065 5.26791 12.7885 5.28373 12.6835 5.29747C11.8727 5.40353 11.006 5.80773 10.3584 6.38175C10.113 6.59935 9.75334 7.0025 9.78046 7.02966C9.79863 7.04786 17.4786 11.0952 17.5399 11.1188C17.58 11.1344 17.5826 11.1264 17.6945 10.639C17.7783 10.2736 17.8012 9.5472 17.7418 9.1382C17.4546 7.16029 16.0073 5.66152 14.0431 5.30789C13.8385 5.27106 13.0995 5.24034 12.9459 5.26227Z" fill="#4E50D1"/>
</svg>
