<svg width="24" height="24" viewBox="0 0 24 24" fill="none" xmlns="http://www.w3.org/2000/svg">
<g clip-path="url(#clip0_8366_23736)">
<path fill-rule="evenodd" clip-rule="evenodd" d="M20.5682 0.016094C20.0325 0.107434 19.6207 0.280365 19.2081 0.587161C18.207 1.33166 17.7752 2.61223 18.1174 3.82138C18.1702 4.00783 18.3098 4.34672 18.3745 4.44551L18.4161 4.50907L17.2628 5.66285L16.1094 6.81665L15.894 6.68336C14.871 6.05035 13.7271 5.84771 12.5522 6.09143C11.5149 6.3066 10.5167 6.95397 9.87674 7.82646L9.69178 8.07863L8.15136 7.15401C7.30413 6.6455 6.60802 6.22664 6.60447 6.22323C6.60089 6.21982 6.62609 6.10471 6.66044 5.96741C6.73703 5.66133 6.76583 5.11473 6.72073 4.82316C6.51717 3.50673 5.54743 2.5096 4.25069 2.28339C3.98717 2.2374 3.49911 2.23849 3.22664 2.28562C2.56739 2.3997 1.95884 2.74256 1.49737 3.25991C0.647572 4.21269 0.508215 5.64779 1.15805 6.75437C1.49346 7.32555 2.01493 7.77815 2.6177 8.02131C3.59915 8.41721 4.69509 8.2737 5.55163 7.6371L5.76444 7.47894L7.43242 8.48L9.10044 9.48109L9.08418 9.58038C8.91643 10.6061 9.00085 11.4273 9.35937 12.2575C9.4566 12.4827 9.66742 12.8678 9.79832 13.0594C9.82365 13.0964 9.50982 13.4187 7.17493 15.7533L4.52276 18.4053L4.31838 18.3045C4.09096 18.1924 3.86855 18.1152 3.59867 18.0545C3.33762 17.9959 2.67365 17.9964 2.39969 18.0554C1.34517 18.2828 0.491438 19.0383 0.156655 20.0407C-0.32195 21.4735 0.327215 23.0307 1.6795 23.6938C2.11521 23.9074 2.48269 23.9899 2.99861 23.9899C3.26617 23.9899 3.42794 23.9777 3.57467 23.9465C4.42634 23.7654 5.12185 23.2778 5.56697 22.5499C5.92679 21.9614 6.0732 21.2089 5.96174 20.5209C5.91748 20.2475 5.78834 19.85 5.67366 19.634L5.59033 19.4769L8.24276 16.8235C10.5747 14.4907 10.9003 14.1735 10.9373 14.1986C11.416 14.5238 12.0259 14.7893 12.5359 14.8943L12.7435 14.937V16.5124V18.0878L12.5455 18.1547C11.8451 18.3914 11.2617 18.8733 10.8876 19.5244C10.3429 20.4723 10.3786 21.7042 10.9774 22.6217C11.3928 23.2582 12.0307 23.7228 12.7435 23.9077C13.3187 24.057 13.9741 24.0239 14.5317 23.8175C15.8044 23.3464 16.6023 22.0923 16.4855 20.7468C16.4325 20.1362 16.2322 19.6294 15.8491 19.1367C15.506 18.6953 15.0002 18.3393 14.4537 18.1547L14.2557 18.0878V16.5124V14.937L14.4633 14.8943C15.2544 14.7314 16.0726 14.2812 16.6775 13.6761L16.8999 13.4536L17.5352 14.0891L18.1705 14.7247L18.1207 14.9061C17.8791 15.787 18.0062 16.6449 18.4878 17.3841C18.9165 18.0419 19.5349 18.4734 20.3408 18.6767C20.526 18.7234 20.6185 18.731 21.0003 18.731C21.3821 18.731 21.4745 18.7234 21.6597 18.6767C22.4505 18.4772 23.0481 18.0676 23.482 17.4278C23.8508 16.8841 24.0208 16.2879 23.9933 15.6355C23.9614 14.8824 23.6864 14.2218 23.1845 13.6927C22.6925 13.1742 22.0722 12.8591 21.3625 12.7673C20.6193 12.6711 19.8239 12.8805 19.2221 13.331L19.0457 13.463L18.3765 12.7936L17.7074 12.1241L17.7794 11.8984C18.1922 10.6038 18.026 9.25733 17.3106 8.10043L17.1776 7.88524L18.3272 6.73508L19.4769 5.58495L19.6725 5.68086C19.9095 5.79707 20.1518 5.87991 20.4242 5.93785C20.7066 5.9979 21.294 5.9979 21.5763 5.93785C22.428 5.75671 23.1235 5.26913 23.5686 4.54119C23.9285 3.95277 24.0749 3.20027 23.9634 2.51222C23.7672 1.30081 22.8346 0.319696 21.6243 0.0515111C21.4121 0.00447244 20.7639 -0.017258 20.5682 0.016094ZM20.6162 1.54097C20.1052 1.68351 19.6955 2.08764 19.5627 2.58029C19.4678 2.93201 19.5051 3.3391 19.6618 3.6635C19.7691 3.88551 20.111 4.22547 20.3343 4.33225C20.7506 4.53123 21.2584 4.53255 21.6551 4.33566C22.0517 4.13876 22.3553 3.76015 22.4541 3.33906C22.506 3.11776 22.4899 2.73019 22.4196 2.51049C22.2904 2.10652 21.911 1.72144 21.4977 1.57473C21.2994 1.50433 20.8142 1.48577 20.6162 1.54097ZM3.51579 3.76221C3.24533 3.80406 3.04523 3.89363 2.81603 4.07544C2.3681 4.43074 2.16979 4.99605 2.2905 5.57369C2.40245 6.10946 2.88309 6.59029 3.41865 6.70228C3.7458 6.77069 4.09103 6.73239 4.38414 6.59517C4.74662 6.42548 5.05104 6.07887 5.17252 5.69752C5.25079 5.45179 5.26121 5.07824 5.19602 4.85392C5.09499 4.50628 4.85869 4.18117 4.5656 3.98655C4.28581 3.80077 3.85775 3.70929 3.51579 3.76221ZM12.9817 7.54389C12.3642 7.65574 11.8338 7.93453 11.3867 8.38216C11.0358 8.73352 10.8149 9.09127 10.6561 9.56554C10.4604 10.1499 10.4612 10.8408 10.6583 11.4322C11.0671 12.6587 12.2086 13.4849 13.495 13.4854C13.9931 13.4856 14.3953 13.3893 14.8557 13.1595C15.403 12.8865 15.8692 12.4248 16.15 11.8781C16.3831 11.4239 16.4877 10.9961 16.4877 10.4961C16.4877 9.68085 16.189 8.95944 15.6125 8.38216C15.1603 7.92942 14.6274 7.65213 13.9986 7.54242C13.7457 7.49832 13.2292 7.49906 12.9817 7.54389ZM20.6766 14.2821C20.2546 14.3626 19.7936 14.7517 19.6148 15.1783C19.4931 15.4688 19.4797 15.9435 19.5848 16.2434C19.6562 16.447 19.8427 16.721 20.0112 16.8699C20.1615 17.0027 20.4651 17.1623 20.6511 17.2063C20.8041 17.2425 21.1965 17.2425 21.3495 17.2063C21.5881 17.1498 21.8606 16.9943 22.0426 16.8107C22.3508 16.4998 22.4887 16.1738 22.4881 15.7579C22.4873 15.3131 22.3686 15.0243 22.0548 14.7046C21.8826 14.5291 21.8163 14.4796 21.6468 14.4005C21.5354 14.3485 21.3802 14.2942 21.3019 14.2799C21.1334 14.2491 20.8442 14.2501 20.6766 14.2821ZM2.61458 19.5497C1.95231 19.7344 1.50971 20.3123 1.51084 20.9908C1.51163 21.4736 1.68394 21.8402 2.06186 22.1629C2.47757 22.5179 3.14944 22.5945 3.65339 22.3443C4.05008 22.1474 4.35364 21.7688 4.45245 21.3477C4.50437 21.1264 4.48824 20.7389 4.41794 20.5192C4.28869 20.1152 3.90931 19.7301 3.49601 19.5834C3.29768 19.513 2.81255 19.4944 2.61458 19.5497ZM13.0915 19.5573C12.7121 19.6666 12.332 19.9828 12.1601 20.3323C11.9286 20.8028 11.964 21.3947 12.2493 21.8246C12.3663 22.001 12.6078 22.2219 12.7896 22.3188C13.1033 22.4861 13.5243 22.5338 13.8813 22.4424C14.6389 22.2486 15.1195 21.4815 14.9654 20.7119C14.9038 20.4041 14.7859 20.186 14.5562 19.9553C14.3442 19.7423 14.1328 19.6157 13.8802 19.5505C13.6815 19.4992 13.2813 19.5027 13.0915 19.5573Z" fill="#4E50D1"/>
</g>
<defs>
<clipPath id="clip0_8366_23736">
<rect width="24" height="24" fill="white"/>
</clipPath>
</defs>
</svg>
