<svg width="24" height="24" viewBox="0 0 24 24" fill="none" xmlns="http://www.w3.org/2000/svg">
<path fill-rule="evenodd" clip-rule="evenodd" d="M12.4769 1.04199C12.315 1.1048 12.1461 1.25284 12.0658 1.4023C12.0096 1.50695 12.0012 1.54984 12.0012 1.73368C12.0011 1.9092 12.0106 1.96269 12.0571 2.05045C12.0966 2.12504 13.476 3.49053 16.7561 6.7022L21.3991 11.2484H11.0881C3.743 11.2484 0.736411 11.2557 0.635594 11.274C0.449449 11.3076 0.344269 11.3626 0.209072 11.4968C-0.0696905 11.7735 -0.0696905 12.2249 0.209072 12.5016C0.344269 12.6358 0.449449 12.6908 0.635594 12.7245C0.736411 12.7427 3.743 12.7501 11.0881 12.7501H21.3991L16.7561 17.2962C13.476 20.5079 12.0966 21.8734 12.0571 21.948C12.0106 22.0357 12.0011 22.0892 12.0012 22.2647C12.0012 22.4486 12.0096 22.4915 12.0658 22.5961C12.1489 22.7508 12.3174 22.8951 12.4888 22.9585C12.6603 23.0219 12.8882 23.0119 13.0591 22.9337C13.1533 22.8905 14.1965 21.881 18.5241 17.6451C23.0055 13.2585 23.8794 12.3927 23.915 12.3042C23.9384 12.2462 23.9671 12.1803 23.979 12.1579C24.0067 12.1053 24.0071 11.8047 23.9794 11.8215C23.9678 11.8285 23.9524 11.8053 23.945 11.7701C23.9377 11.7348 23.8991 11.6584 23.8593 11.6003C23.8194 11.5422 21.3993 9.16001 18.4812 6.30648C14.1749 2.09548 13.1535 1.10811 13.0582 1.0644C12.8917 0.98802 12.6409 0.978353 12.4769 1.04199ZM0.00914063 11.9992C0.00914063 12.096 0.0133843 12.1356 0.018539 12.0872C0.0237177 12.0388 0.0237177 11.9596 0.018539 11.9112C0.0133843 11.8628 0.00914063 11.9024 0.00914063 11.9992Z" fill="#4E50D1"/>
</svg>
