<svg width="24" height="24" viewBox="0 0 24 24" fill="none" xmlns="http://www.w3.org/2000/svg">
<path fill-rule="evenodd" clip-rule="evenodd" d="M7.73342 0.0160295C7.25334 0.0950592 6.7975 0.321895 6.45434 0.65247C6.16425 0.931944 5.9876 1.2221 5.84781 1.64866L5.78094 1.85278L5.77293 4.74645C5.7671 6.85913 5.77274 7.68549 5.79382 7.80823C5.87952 8.30707 6.10243 8.72688 6.46331 9.06905C6.60011 9.19877 7.20888 9.63083 8.63639 10.6114L10.6194 11.9735L9.83304 13.4856L9.04668 14.9978L7.66305 15.0057C6.33504 15.0132 6.27328 15.0156 6.12556 15.0639C5.41208 15.2975 4.95823 15.9263 5.00304 16.6193C5.01994 16.8807 5.08597 17.0956 5.21322 17.3034C5.39892 17.6066 5.46472 17.6537 6.70943 18.3729C7.3435 18.7394 7.86226 19.0468 7.86226 19.0561C7.86226 19.0654 7.59211 19.6237 7.26194 20.2966C6.46386 21.9232 6.45058 21.9523 6.40234 22.1817C6.3338 22.5077 6.3934 22.8696 6.56902 23.194C6.68226 23.4031 7.02477 23.7281 7.23961 23.8303C7.69077 24.0448 8.19782 24.0565 8.62839 23.8624C8.71646 23.8227 9.50228 23.4041 10.3746 22.9322C11.247 22.4603 11.9784 22.0742 12 22.0742C12.0217 22.0742 12.7806 22.476 13.6866 22.967C14.7619 23.5499 15.3975 23.8804 15.5176 23.9192C16.1179 24.1131 16.7969 23.9351 17.2197 23.4731C17.3553 23.3249 17.5166 23.0238 17.5707 22.8179C17.6137 22.6545 17.6194 22.2925 17.5816 22.1325C17.5676 22.0731 17.2979 21.3573 16.9824 20.5418C16.6669 19.7263 16.4149 19.0495 16.4224 19.0378C16.4299 19.0261 16.8925 18.7154 17.4504 18.3472C18.0084 17.9791 18.5133 17.6295 18.5726 17.5702C18.9113 17.2316 19.0714 16.6896 18.9698 16.2251C18.8716 15.7762 18.548 15.3698 18.131 15.1718C17.7793 15.0048 17.741 15.0013 16.2563 15.0008L14.9417 15.0004L14.1627 13.5055C13.7343 12.6833 13.3804 12.0039 13.3763 11.9957C13.3722 11.9874 14.2639 11.3661 15.3578 10.6149C16.7902 9.63131 17.3998 9.1988 17.5367 9.06903C17.9023 8.72241 18.1279 8.29352 18.2062 7.79622C18.2266 7.66703 18.2324 6.80168 18.2268 4.73445L18.2191 1.85278L18.1493 1.63819C17.892 0.84715 17.3436 0.318749 16.5225 0.0709493L16.2997 0.00371038L12.0748 0.000300408C9.75104 -0.00157268 7.79743 0.00551142 7.73342 0.0160295ZM7.87136 1.53073C7.65867 1.59012 7.42204 1.82428 7.36367 2.03312C7.34657 2.09431 7.34021 3.05756 7.34465 4.91856L7.35128 7.71217L7.40529 7.80823C7.43503 7.86106 7.50794 7.94868 7.56731 8.00298C7.6479 8.07663 11.017 10.4117 11.1961 10.5181C11.221 10.5329 11.2273 9.62728 11.2273 6.02061V1.50458L9.5884 1.50674C8.68699 1.50794 7.91433 1.51872 7.87136 1.53073ZM12.7727 6.01996C12.7727 9.62716 12.779 10.5329 12.8039 10.5181C12.983 10.4117 16.3521 8.07663 16.4327 8.00298C16.492 7.94868 16.565 7.86106 16.5947 7.80823L16.6487 7.71217V4.86652V2.02088L16.5753 1.89315C16.4933 1.75053 16.3874 1.65152 16.2305 1.57076L16.1253 1.51659L14.449 1.50993L12.7727 1.50328V6.01996ZM11.0826 14.462C10.1317 16.2937 10.1207 16.3113 9.85989 16.4347L9.71926 16.5013L8.13939 16.5133L6.5595 16.5253L7.96117 17.339C8.73208 17.7865 9.39938 18.1878 9.44405 18.2309C9.59086 18.3723 9.64448 18.5135 9.64448 18.7586V18.9747L8.79059 20.7157C8.32095 21.6733 7.93679 22.4648 7.93687 22.4747C7.93697 22.4846 7.94933 22.4927 7.96434 22.4927C7.97937 22.4927 8.83017 22.0388 9.85505 21.484C11.3328 20.6841 11.7476 20.4697 11.8592 20.4481C12.1371 20.3944 12.1144 20.3841 14.1494 21.4879C15.2102 22.0633 16.0242 22.4907 16.0357 22.4784C16.0469 22.4665 15.7471 21.6624 15.3694 20.6917C14.6959 18.9601 14.6828 18.9233 14.6825 18.7466C14.6821 18.5957 14.6938 18.5438 14.7541 18.4271C14.7937 18.3504 14.8663 18.2531 14.9154 18.211C14.9646 18.1687 15.5533 17.7722 16.2237 17.3297L17.4427 16.5253L15.8611 16.5133L14.2796 16.5013L14.1118 16.4217C13.9926 16.3651 13.9182 16.3096 13.8545 16.2296C13.8052 16.1677 13.3733 15.3633 12.8947 14.4421C12.4161 13.5208 12.0106 12.7671 11.9936 12.7671C11.9765 12.7671 11.5666 13.5298 11.0826 14.462Z" fill="#4E50D1"/>
</svg>
