<svg width="24" height="24" viewBox="0 0 24 24" fill="none" xmlns="http://www.w3.org/2000/svg">
<path fill-rule="evenodd" clip-rule="evenodd" d="M11.7524 0.0329966C11.7022 0.0509108 11.6211 0.0933429 11.5722 0.127274C11.5233 0.161206 10.616 1.05651 9.55596 2.11681C7.39409 4.27924 7.50067 4.15562 7.50067 4.50089C7.50067 4.71485 7.56964 4.88441 7.71569 5.0295C7.86985 5.18266 8.01414 5.24332 8.22697 5.2444C8.57104 5.24615 8.49452 5.3076 9.93375 3.87346C10.6412 3.16856 11.2277 2.5918 11.2372 2.5918C11.2467 2.5918 11.2573 4.59365 11.2608 7.04033L11.267 11.4889L11.3191 11.5861C11.3905 11.7194 11.5474 11.8709 11.6829 11.9376C11.774 11.9825 11.8351 11.9932 12 11.9932C12.1649 11.9932 12.226 11.9825 12.3171 11.9376C12.4526 11.8709 12.6095 11.7194 12.6809 11.5861L12.733 11.4889L12.7392 7.04033C12.7427 4.59365 12.7533 2.5918 12.7628 2.5918C12.7723 2.5918 13.3588 3.16856 14.0662 3.87346C15.5055 5.3076 15.429 5.24615 15.773 5.2444C15.9859 5.24332 16.1301 5.18266 16.2843 5.0295C16.4304 4.88441 16.4993 4.71485 16.4993 4.50089C16.4993 4.15439 16.6122 4.28469 14.3961 2.07219C12.5139 0.192904 12.414 0.0973772 12.2815 0.0490377C12.1207 -0.00957971 11.8914 -0.0165437 11.7524 0.0329966ZM5.00348 7.51552C4.06666 7.61938 3.29752 8.28235 3.05436 9.19556L3 9.39968V15.7513C3 21.9214 3.00132 22.1081 3.04585 22.283C3.25794 23.1163 3.8844 23.7423 4.71829 23.9542C4.8936 23.9987 5.09218 24 12 24C18.9078 24 19.1064 23.9987 19.2817 23.9542C20.1156 23.7423 20.7421 23.1163 20.9541 22.283C20.9987 22.1081 21 21.9214 21 15.7513V9.39968L20.9476 9.20361C20.7227 8.36217 20.0567 7.72703 19.2096 7.54621C19.0318 7.50824 18.8822 7.5026 18.0561 7.5026C17.178 7.5026 17.0978 7.50605 16.9873 7.54863C16.8465 7.6029 16.6531 7.77544 16.5862 7.90646C16.4305 8.21153 16.5178 8.62596 16.7818 8.83495C16.9805 8.99212 16.9671 8.99027 17.996 9.00345C18.9192 9.01529 18.9351 9.01632 19.0599 9.07266C19.1373 9.10762 19.232 9.17959 19.3037 9.2579C19.5176 9.49184 19.498 8.83521 19.498 15.7547V21.897L19.4479 22.0309C19.381 22.2096 19.2082 22.3822 19.0294 22.4491L18.8954 22.4991H12H5.10461L4.9706 22.4491C4.79178 22.3822 4.61904 22.2096 4.55213 22.0309L4.502 21.897V15.7547C4.502 8.83521 4.48237 9.49184 4.69633 9.2579C4.76797 9.17959 4.86265 9.10762 4.94011 9.07266C5.06486 9.01632 5.08077 9.01529 6.00401 9.00345C7.03289 8.99027 7.01953 8.99212 7.21815 8.83495C7.48012 8.62761 7.56876 8.2074 7.41375 7.90754C7.34701 7.77847 7.18004 7.62329 7.03738 7.55778C6.91965 7.5037 6.89978 7.50253 6.05207 7.49887C5.57623 7.49683 5.10437 7.50433 5.00348 7.51552Z" fill="#4E50D1"/>
</svg>
