<svg width="24" height="24" viewBox="0 0 24 24" fill="none" xmlns="http://www.w3.org/2000/svg">
<g clip-path="url(#clip0_8366_23760)">
<path fill-rule="evenodd" clip-rule="evenodd" d="M7.92766 0.00667599C7.27132 0.11218 6.70335 0.469002 6.3512 0.997053C6.22956 1.17945 6.08568 1.49246 6.05949 1.63166L6.04412 1.71344L5.269 2.04386C3.92611 2.61635 3.45618 2.88902 2.7537 3.50341C2.34748 3.85869 1.89914 4.38268 1.5867 4.86737C0.966919 5.82885 0.616845 6.83775 0.519761 7.94218C0.490146 8.27906 4.83084e-05 17.7705 1.15516e-07 18.0083C-4.80774e-05 18.1553 0.0149881 18.3191 0.0358075 18.3989C0.138025 18.7901 0.447495 19.1655 0.82381 19.3549C1.13039 19.5092 1.08364 19.5055 2.84933 19.5149L4.45777 19.5235V20.6348C4.45777 21.8115 4.46869 21.9605 4.56719 22.13C4.79529 22.5221 5.82067 23.074 6.93173 23.4027C7.91451 23.6934 8.95446 23.8647 10.3735 23.9697C10.9199 24.0101 13.08 24.0101 13.6265 23.9697C15.7073 23.8158 17.1626 23.4882 18.3494 22.9067C18.9368 22.6188 19.2997 22.3586 19.4327 22.13C19.5312 21.9605 19.5422 21.8115 19.5422 20.6348V19.5235L21.1506 19.5149C22.9163 19.5055 22.8695 19.5092 23.1761 19.3549C23.5551 19.1642 23.8593 18.794 23.9621 18.3984C23.9845 18.3124 24 18.1527 24 18.0086C24 17.7694 23.5073 8.23724 23.4804 7.95419C23.3746 6.84592 23.0527 5.88302 22.4879 4.98537C21.9399 4.11476 21.3028 3.45829 20.4699 2.90615C20.0469 2.62574 19.7342 2.47102 18.7069 2.03367L17.9559 1.71399L17.9406 1.63243C17.9321 1.58756 17.8875 1.46296 17.8414 1.35548C17.5685 0.720008 17.0378 0.264455 16.3253 0.0541433C16.1578 0.00470619 16.1285 0.00432184 12.0723 0.000670505C9.82586 -0.00134734 7.9608 0.00134312 7.92766 0.00667599ZM8.00858 1.53051C7.88631 1.56582 7.70761 1.70253 7.62219 1.8261C7.50959 1.98899 7.4861 2.09892 7.50101 2.39311C7.52894 2.94413 7.77284 3.46795 8.184 3.85992C8.458 4.12111 8.73969 4.28412 9.12555 4.40478L9.33731 4.47101H12H14.6626L14.8744 4.40478C15.8233 4.10806 16.4549 3.32122 16.4987 2.3811C16.5096 2.14895 16.5047 2.09997 16.4583 1.9778C16.3883 1.79357 16.2172 1.62194 16.0361 1.55441C15.9019 1.50432 15.8993 1.5043 11.993 1.50646C9.72275 1.50774 8.05256 1.5178 8.00858 1.53051ZM5.56621 3.55926C4.92329 3.8387 4.69785 3.95154 4.42163 4.13206C3.58724 4.67743 2.96967 5.37231 2.54063 6.24863C2.29557 6.74911 2.14651 7.23164 2.06198 7.79805C2.03921 7.95056 1.92468 9.96387 1.77225 12.8907C1.6336 15.5529 1.51528 17.7933 1.50931 17.8692L1.49849 18.0074H2.97758H4.45666L4.46324 14.5422L4.46982 11.077L4.52519 10.9569C4.63305 10.723 4.85267 10.5513 5.09303 10.5131C5.45647 10.4554 5.80021 10.6527 5.93024 10.9939C5.97448 11.11 5.97585 11.2685 5.97585 16.2417V21.3698L6.07826 21.4346C6.37166 21.6201 7.11785 21.8969 7.77188 22.0629C8.98051 22.3697 10.2329 22.4988 12 22.4988C13.767 22.4988 15.0194 22.3697 16.228 22.0629C16.8821 21.8969 17.6283 21.6201 17.9217 21.4346L18.0241 21.3698V16.2417C18.0241 11.2685 18.0255 11.11 18.0697 10.9939C18.1997 10.6527 18.5435 10.4554 18.9069 10.5131C19.1473 10.5513 19.3669 10.723 19.4747 10.9569L19.5301 11.077L19.5367 14.5422L19.5433 18.0074H21.0224H22.5014L22.4906 17.8692C22.4846 17.7933 22.3662 15.5529 22.2276 12.8907C22.0755 9.97035 21.9606 7.95023 21.9379 7.79805C21.8205 7.01042 21.5422 6.285 21.1118 5.64484C20.5806 4.85462 19.9605 4.29945 19.1446 3.88367C18.9025 3.76032 17.9141 3.32997 17.8729 3.32997C17.8633 3.32997 17.8553 3.34349 17.8552 3.36C17.8547 3.42118 17.6356 3.92278 17.5276 4.10965C17.0056 5.01343 16.172 5.63197 15.1144 5.90022L15.012 5.92619L15.012 8.66978L15.012 11.4134L14.9426 11.5575C14.8112 11.8304 14.553 12.0012 14.2713 12.0016C13.8991 12.0022 13.5863 11.7465 13.5197 11.3872C13.5024 11.2942 13.4939 10.3826 13.4939 8.62239V5.9964H12H10.506L10.5058 7.10742C10.5057 7.74607 10.4952 8.28255 10.4811 8.36924C10.4015 8.85785 9.8736 9.14047 9.43369 8.92992C9.25767 8.84567 9.13145 8.71835 9.04981 8.54273L8.98839 8.41061L8.98815 7.16841L8.98791 5.92619L8.8855 5.90022C7.81639 5.62904 6.98694 5.00898 6.45988 4.08695C6.348 3.89122 6.14453 3.41945 6.14453 3.35579C6.14453 3.34159 6.13098 3.33088 6.1144 3.33201C6.09785 3.33314 5.85115 3.4354 5.56621 3.55926Z" fill="#4E50D1"/>
</g>
<defs>
<clipPath id="clip0_8366_23760">
<rect width="24" height="24" fill="white"/>
</clipPath>
</defs>
</svg>
