<svg width="24" height="24" viewBox="0 0 24 24" fill="none" xmlns="http://www.w3.org/2000/svg">
<path d="M22.76 15.9004C22.7668 16.2341 22.706 16.5657 22.5811 16.8752C22.4563 17.1847 22.27 17.4657 22.0336 17.7012C21.7971 17.9367 21.5154 18.1218 21.2054 18.2455C20.8954 18.3691 20.5636 18.4286 20.23 18.4204C19.9002 18.4262 19.5728 18.3644 19.2678 18.239C18.9627 18.1137 18.6866 17.9272 18.4562 17.6912C18.2258 17.4553 18.0461 17.1747 17.9281 16.8667C17.8101 16.5588 17.7563 16.2299 17.77 15.9004V10.5504C17.7701 10.5016 17.756 10.4539 17.7294 10.413C17.7027 10.3721 17.6647 10.3399 17.62 10.3204C17.5745 10.2998 17.5236 10.2945 17.4749 10.3053C17.4262 10.3161 17.3824 10.3425 17.35 10.3804L5.27996 22.2404C4.71996 22.8004 3.39996 23.1904 2.08996 21.8804C1.62533 21.4975 1.3302 20.947 1.26844 20.3481C1.20667 19.7492 1.38326 19.1501 1.75996 18.6804L13.64 6.68042C13.6718 6.64382 13.6927 6.59905 13.7004 6.55118C13.7081 6.50331 13.7022 6.45424 13.6835 6.40952C13.6648 6.36479 13.6339 6.32619 13.5944 6.29808C13.5549 6.26997 13.5084 6.25346 13.46 6.25042H7.91996C7.25692 6.25042 6.62103 5.98703 6.15219 5.51819C5.68335 5.04935 5.41996 4.41346 5.41996 3.75042C5.41996 3.08738 5.68335 2.4515 6.15219 1.98266C6.62103 1.51382 7.25692 1.25042 7.91996 1.25042H21.76C22.0252 1.25042 22.2795 1.35578 22.4671 1.54332C22.6546 1.73085 22.76 1.98521 22.76 2.25042V15.9004Z" fill="#4E50D1"/>
</svg>
