<svg width="24" height="24" viewBox="0 0 24 24" fill="none" xmlns="http://www.w3.org/2000/svg">
<g clip-path="url(#clip0_8366_23333)">
<path fill-rule="evenodd" clip-rule="evenodd" d="M19.524 0.0162943C15.213 0.290494 11.6218 1.29441 8.64384 3.05777C5.57458 4.87519 3.29002 7.57382 1.84315 11.0911C1.13988 12.8007 0.58884 14.8551 0.2982 16.851C0.137784 17.9527 0 19.5334 0 20.272C0 20.8424 0.126504 21.3644 0.398184 21.9151C0.995304 23.1254 2.19943 23.9182 3.54 23.9836C4.18807 24.0152 5.97055 23.8711 7.176 23.6898C11.4012 23.054 14.9065 21.5956 17.544 19.3761C20.6404 16.7704 22.6807 12.9039 23.5667 7.96267C23.8477 6.39542 24.0555 4.08674 23.9804 3.36633C23.9088 2.67902 23.6627 2.04278 23.2597 1.50309C22.7078 0.763846 21.9123 0.256966 20.9948 0.0598063C20.7296 0.00283032 20.0513 -0.0172577 19.524 0.0162943ZM19.644 1.51817C19.2616 1.54063 18.4948 1.60517 18.096 1.64841C17.6382 1.69807 16.4845 1.86117 16.465 1.87901C16.459 1.88453 17.7223 3.15734 19.2724 4.7075C20.8225 6.25764 22.0985 7.51809 22.108 7.50852C22.1322 7.48416 22.2618 6.58877 22.3309 5.96904C22.4778 4.65237 22.5205 3.49567 22.4336 3.18998C22.2036 2.38193 21.6372 1.80461 20.8446 1.57049C20.7048 1.52918 20.6001 1.51973 20.232 1.51517C19.9878 1.51217 19.7232 1.51351 19.644 1.51817ZM14.568 2.27419C13.3038 2.61665 12.5246 2.8746 11.6303 3.24672C10.0391 3.90876 8.68913 4.71475 7.452 5.7414C7.05113 6.07409 6.08506 7.04049 5.75093 7.44309C4.97242 8.38113 4.36519 9.31653 3.79562 10.4551C3.16834 11.709 2.71572 12.9274 2.33782 14.3791L2.2566 14.6911L5.77994 18.2147L9.30326 21.7383L9.50563 21.687C9.9361 21.5778 10.7121 21.3468 11.1511 21.197C14.4592 20.0686 16.949 18.3282 18.7937 15.8549C20.0594 14.1579 21.0828 11.9159 21.696 9.49675L21.7472 9.29441L18.2237 5.77075C16.2857 3.83273 14.6892 2.24808 14.676 2.24925C14.6628 2.25045 14.6142 2.26166 14.568 2.27419ZM13.3661 7.50401C12.9865 7.56595 12.6998 7.95854 12.7557 8.33995C12.7874 8.55662 12.8507 8.65008 13.2125 9.01478L13.5591 9.36422L12.7806 10.1424L12.0021 10.9207L11.6462 10.5715C11.3425 10.2737 11.2699 10.2148 11.1522 10.1707C10.6504 9.98299 10.128 10.3362 10.128 10.8631C10.128 11.1343 10.1882 11.2374 10.5804 11.6373L10.9296 11.9932L10.1514 12.7717L9.37313 13.5502L9.02369 13.2036C8.78702 12.9688 8.63969 12.8418 8.56711 12.81C8.17836 12.6397 7.74523 12.8028 7.56629 13.1871C7.51985 13.2868 7.50667 13.354 7.50667 13.4911C7.50667 13.7691 7.56554 13.8701 7.96488 14.2771L8.3004 14.6191L7.96598 14.9586C7.57987 15.3507 7.50943 15.4671 7.50686 15.7172C7.50406 15.9927 7.59746 16.1823 7.8197 16.3518C7.94542 16.4476 8.07778 16.4862 8.27393 16.4842C8.52401 16.4817 8.64038 16.4112 9.03245 16.0251L9.372 15.6907L9.71395 16.0262C10.121 16.4256 10.222 16.4844 10.5 16.4844C10.8037 16.4844 11.0495 16.3265 11.1804 16.0471C11.2298 15.9417 11.2422 15.8789 11.242 15.7351C11.2415 15.4569 11.1947 15.3778 10.7875 14.9674L10.4409 14.618L11.2194 13.8397L11.9979 13.0615L12.3538 13.4107C12.6618 13.7128 12.7291 13.7671 12.8529 13.8136C13.4627 14.0427 14.0516 13.4538 13.8225 12.844C13.776 12.7202 13.7217 12.6529 13.4196 12.3449L13.0704 11.989L13.8486 11.2104L14.6269 10.432L14.9763 10.7786C15.3867 11.1858 15.4658 11.2326 15.744 11.2331C15.8878 11.2333 15.9506 11.2209 16.056 11.1715C16.3354 11.0406 16.4933 10.7948 16.4933 10.4911C16.4933 10.2131 16.4345 10.1121 16.0351 9.70505L15.6996 9.36309L16.034 9.02354C16.4201 8.63148 16.4906 8.5151 16.4931 8.26502C16.4951 8.06887 16.4565 7.93651 16.3607 7.8108C16.1912 7.58856 16.0016 7.49515 15.7261 7.49796C15.476 7.50053 15.3596 7.57097 14.9676 7.95708L14.628 8.29149L14.286 7.95597C14.0334 7.70813 13.9111 7.60584 13.818 7.56446C13.6709 7.49904 13.5201 7.47888 13.3661 7.50401ZM1.88832 16.4721C1.86586 16.5084 1.73184 17.4504 1.66906 18.0132C1.57138 18.8888 1.5283 19.5149 1.52611 20.0911C1.52419 20.5909 1.52894 20.6601 1.5763 20.8231C1.80658 21.6157 2.37535 22.1845 3.168 22.4148C3.33274 22.4627 3.39782 22.4669 3.936 22.4641C4.7178 22.4602 5.88809 22.358 6.936 22.202C7.167 22.1676 7.39651 22.1334 7.446 22.1261C7.49549 22.1188 7.536 22.1061 7.536 22.0979C7.536 22.0643 1.90118 16.4513 1.88832 16.4721Z" fill="#4E50D1"/>
</g>
<defs>
<clipPath id="clip0_8366_23333">
<rect width="24" height="24" fill="white"/>
</clipPath>
</defs>
</svg>
