<svg width="24" height="24" viewBox="0 0 24 24" fill="none" xmlns="http://www.w3.org/2000/svg">
<g clip-path="url(#clip0_8366_23349)">
<path fill-rule="evenodd" clip-rule="evenodd" d="M3.89896 0.0353362C2.08282 0.280911 0.582688 1.62411 0.134425 3.40607C-0.0370515 4.08776 -0.0370515 4.90844 0.134425 5.59013C0.537668 7.19309 1.80644 8.46335 3.40753 8.86707C3.88839 8.98832 4.0725 8.99823 5.84197 8.99823H7.48287V11.9983V14.9984H5.84197C4.0725 14.9984 3.88839 15.0083 3.40753 15.1296C1.80536 15.5336 0.537932 16.8025 0.134425 18.4065C-0.249521 19.9328 0.201955 21.555 1.32308 22.6775C2.31869 23.6742 3.68899 24.1429 5.07839 23.9618C6.90458 23.7238 8.41176 22.3809 8.86213 20.5906C8.98324 20.1091 8.99314 19.9248 8.99314 18.1533V16.5105H11.9897H14.9863V18.1533C14.9863 19.9248 14.9962 20.1091 15.1173 20.5906C15.4539 21.9287 16.3803 23.027 17.6667 23.6131C18.2393 23.8739 18.7836 23.9857 19.4812 23.9857C19.8102 23.9857 20.0099 23.9735 20.2003 23.9418C21.49 23.7273 22.6243 22.9632 23.3151 21.8438C23.6476 21.3049 23.8905 20.6076 23.9431 20.0411C23.9519 19.9465 23.9683 19.8634 23.9796 19.8564C23.9908 19.8494 24 19.6763 24 19.4717C24 19.2671 23.9908 19.1054 23.9795 19.1124C23.9682 19.1194 23.952 19.0471 23.9436 18.9518C23.9208 18.6957 23.8439 18.3603 23.7338 18.0362C23.2521 16.6191 22.0347 15.4936 20.5929 15.1321C20.0943 15.0071 19.953 14.9994 18.1567 14.9989L16.4966 14.9984V11.9983V8.99823H18.1375C19.9069 8.99823 20.091 8.98832 20.5719 8.86707C21.7013 8.5823 22.6889 7.8569 23.3107 6.85545C23.643 6.32011 23.8901 5.61171 23.9429 5.04234C23.9518 4.94679 23.9683 4.86291 23.9796 4.85593C23.9908 4.84897 24 4.67587 24 4.47127C24 4.26666 23.9907 4.10499 23.9794 4.112C23.9681 4.11901 23.9516 4.0472 23.9428 3.95242C23.8901 3.38454 23.6427 2.67551 23.3107 2.14075C22.6889 1.1393 21.7013 0.413899 20.5719 0.129131C19.7461 -0.0790992 18.7757 -0.0334018 17.9829 0.251079C16.5666 0.75927 15.483 1.9523 15.1173 3.40607C14.9962 3.8875 14.9863 4.07182 14.9863 5.84336V7.48619H11.9897H8.99314V5.84336C8.99314 4.07182 8.98324 3.8875 8.86213 3.40607C8.45889 1.80311 7.19012 0.532847 5.58903 0.129131C5.08772 0.00271926 4.41584 -0.0345539 3.89896 0.0353362ZM3.98613 1.54856C3.73612 1.59051 3.42275 1.69453 3.17008 1.81945C2.4502 2.17536 1.9182 2.79129 1.65733 3.57083C1.4667 4.14051 1.4667 4.85569 1.65733 5.42537C1.96617 6.34827 2.65028 7.03318 3.5721 7.34238C3.98244 7.48002 4.07739 7.486 5.85872 7.48609L7.48287 7.48619L7.48277 5.86014C7.48268 4.07672 7.47671 3.98165 7.33923 3.57083C7.03039 2.64793 6.34628 1.96303 5.42446 1.65382C5.01014 1.51486 4.43691 1.47288 3.98613 1.54856ZM18.969 1.54856C18.719 1.59051 18.4056 1.69453 18.153 1.81945C17.4331 2.17536 16.9011 2.79129 16.6402 3.57083C16.5027 3.98165 16.4968 4.07672 16.4967 5.86014L16.4966 7.48619L18.1207 7.48609C19.8984 7.486 19.9801 7.48091 20.3969 7.34454C21.177 7.08934 21.7991 6.55287 22.1573 5.82647C22.888 4.34522 22.2834 2.54823 20.8094 1.81945C20.2528 1.54431 19.5824 1.44562 18.969 1.54856ZM0.0131231 4.4981C0.0131471 4.70931 0.0168149 4.79249 0.0212738 4.68298C0.0257088 4.57344 0.0256848 4.40063 0.0212019 4.29897C0.016719 4.19728 0.0130992 4.28689 0.0131231 4.4981ZM8.99314 11.9983V14.9984H11.9897H14.9863V11.9983V8.99823H11.9897H8.99314V11.9983ZM3.98613 16.549C3.73612 16.591 3.42275 16.695 3.17008 16.8199C2.1511 17.3237 1.51388 18.3543 1.51388 19.4985C1.51388 21.1572 2.84153 22.4864 4.49828 22.4864C4.81939 22.4864 5.12682 22.4389 5.41406 22.345C6.34093 22.0417 7.03849 21.3434 7.34138 20.4154C7.4776 19.9981 7.48268 19.9163 7.48277 18.1365L7.48287 16.5105L5.83475 16.5129C4.54131 16.5148 4.14348 16.5226 3.98613 16.549ZM16.4966 18.1309C16.4966 19.1714 16.5059 19.8153 16.5225 19.9259C16.6882 21.0293 17.4548 21.9579 18.4991 22.3202C18.8466 22.4408 19.0617 22.4746 19.4812 22.4746C19.9006 22.4746 20.1157 22.4408 20.4632 22.3202C21.5075 21.9579 22.2741 21.0293 22.4398 19.9259C22.5031 19.505 22.4567 18.9766 22.3208 18.5683C21.989 17.572 21.2391 16.8744 20.1904 16.5866L19.9606 16.5236L18.2286 16.516L16.4966 16.5084V18.1309ZM0.0131231 19.4985C0.0131471 19.7097 0.0168149 19.7929 0.0212738 19.6834C0.0257088 19.5739 0.0256848 19.4011 0.0212019 19.2994C0.016719 19.1977 0.0130992 19.2873 0.0131231 19.4985Z" fill="#4E50D1"/>
</g>
<defs>
<clipPath id="clip0_8366_23349">
<rect width="24" height="24" fill="white"/>
</clipPath>
</defs>
</svg>
