<?xml version="1.0" encoding="UTF-8"?><svg id="Layer_1" xmlns="http://www.w3.org/2000/svg" xmlns:xlink="http://www.w3.org/1999/xlink" viewBox="0 0 300 230"><defs><style>.cls-3{clip-path:url(#clippath);}</style><clipPath id="clippath"><rect width="300" height="229.41"/></clipPath></defs><g class="cls-3"><path fill="#051b2c" d="M39.26,210.09c-4.47,4.45-9.91,6.67-16.32,6.67s-11.84-2.22-16.28-6.67c-4.44-4.45-6.66-9.9-6.66-16.35s2.22-11.89,6.67-16.34c4.45-4.45,9.88-6.67,16.28-6.67s11.84,2.22,16.31,6.66c4.47,4.45,6.7,9.89,6.7,16.34s-2.23,11.9-6.7,16.36ZM12.77,204.15c2.74,2.72,6.13,4.08,10.18,4.08s7.44-1.36,10.18-4.08c2.74-2.72,4.11-6.19,4.11-10.4s-1.37-7.69-4.11-10.43c-2.74-2.74-6.13-4.11-10.18-4.11s-7.44,1.37-10.18,4.11c-2.74,2.74-4.11,6.22-4.11,10.43s1.37,7.68,4.11,10.4Z"/><path fill="#051b2c" d="M69.3,183.38c3.46,0,6.31,1.16,8.57,3.48,2.26,2.32,3.38,5.52,3.38,9.61v18.89c0,.14-.06.27-.15.37-.1.1-.23.15-.37.15h-7.11c-.14,0-.27-.06-.37-.15-.1-.1-.15-.23-.15-.37v-17.88c0-2.11-.57-3.72-1.71-4.84s-2.66-1.68-4.55-1.68c-2.11,0-3.79.65-5.06,1.96-1.26,1.31-1.9,3.27-1.9,5.88v16.55c0,.14-.06.27-.15.37-.1.1-.23.15-.37.15h-7.11c-.14,0-.27-.06-.37-.15-.1-.1-.15-.23-.15-.37v-30.57c0-.14.06-.27.15-.37.1-.1.23-.15.37-.15h7.11c.14,0,.27.05.37.15.1.1.15.23.15.37v3.01c2-2.95,5.14-4.43,9.43-4.43Z"/><path fill="#051b2c" d="M95.12,203.42c1.1,3.96,4.07,5.94,8.92,5.94,2.95,0,5.22-.94,6.81-2.83.08-.09.19-.15.31-.17.12-.02.24,0,.35.06l5.68,3.28c.06.04.12.09.16.15.04.06.07.13.09.2.01.07.02.15,0,.22-.01.07-.04.14-.09.2-3.11,4.2-7.59,6.3-13.44,6.29-5.23,0-9.42-1.58-12.58-4.74-3.16-3.16-4.74-7.15-4.74-11.95s1.56-8.74,4.68-11.92c3.12-3.18,7.12-4.78,12.02-4.78,4.64,0,8.46,1.6,11.48,4.81,3.01,3.2,4.52,7.17,4.52,11.89,0,.97-.09,1.94-.24,2.9-.02.12-.08.24-.18.32-.1.08-.22.12-.35.12h-23.4ZM111.12,197.09c-.47-2.15-1.42-3.75-2.88-4.81-1.44-1.05-3.18-1.6-4.96-1.58-2.19,0-4.01.56-5.44,1.68-1.43,1.12-2.39,2.69-2.86,4.71h16.14Z"/><path fill="#051b2c" d="M139.19,216.76c-4.39,0-8.08-.98-11.07-2.94-2.81-1.81-4.97-4.46-6.17-7.58-.04-.12-.05-.24,0-.36.04-.12.12-.22.23-.28l6.55-3.83c.06-.04.14-.06.21-.07.07,0,.15,0,.22.02s.14.06.19.11c.06.05.1.11.13.18,1.79,4.15,5.11,6.22,9.96,6.22,2.45,0,4.24-.44,5.38-1.32.53-.38.97-.88,1.26-1.47.3-.58.45-1.23.44-1.88,0-1.56-.69-2.77-2.09-3.64-1.39-.87-3.88-1.81-7.46-2.83-1.71-.49-3.39-1.08-5.03-1.77-1.45-.64-2.83-1.43-4.11-2.37-1.35-.97-2.43-2.26-3.13-3.76-.75-1.67-1.12-3.48-1.08-5.31,0-4.01,1.42-7.2,4.27-9.58,2.84-2.38,6.27-3.57,10.28-3.57,3.58,0,6.74.88,9.45,2.63,2.62,1.7,4.73,4.06,6.13,6.85.06.12.07.26.03.39-.04.13-.12.24-.24.31l-6.42,3.71c-.06.04-.13.06-.2.07-.07,0-.14,0-.21-.02-.07-.02-.13-.05-.19-.1-.05-.04-.1-.1-.13-.16-1.78-3.46-4.52-5.2-8.23-5.19-1.81,0-3.24.41-4.27,1.23-.49.37-.89.85-1.16,1.41-.27.55-.4,1.17-.39,1.78-.01.66.14,1.32.44,1.91.3.59.75,1.1,1.29,1.47,1.16.86,3.38,1.8,6.67,2.81,1.35.42,2.37.75,3.07.98.7.23,1.64.59,2.85,1.07.97.37,1.9.82,2.78,1.36.78.52,1.53,1.09,2.24,1.71.76.62,1.41,1.37,1.93,2.21,1.07,1.91,1.62,4.07,1.61,6.26,0,4.09-1.49,7.34-4.46,9.75s-6.84,3.61-11.6,3.6Z"/><path fill="#051b2c" d="M164.61,180.47c-1.32-.02-2.58-.55-3.52-1.49s-1.47-2.2-1.49-3.52c0-.66.13-1.31.38-1.92.26-.61.63-1.16,1.11-1.62.45-.48.99-.87,1.6-1.13.6-.26,1.26-.39,1.91-.39.67,0,1.33.12,1.95.38.62.26,1.17.65,1.63,1.13.47.46.85,1.01,1.1,1.62.26.61.39,1.26.38,1.92,0,.65-.12,1.3-.38,1.91-.25.6-.63,1.15-1.1,1.6-.46.48-1.01.86-1.63,1.12-.61.26-1.27.39-1.94.38ZM160.56,215.35v-30.57c0-.14.06-.27.15-.37.1-.1.23-.15.37-.15h7.11c.14,0,.27.05.37.15.1.1.15.23.15.37v30.57c0,.14-.05.27-.15.37-.1.1-.23.15-.37.15h-7.11c-.14,0-.27-.06-.37-.15s-.15-.23-.15-.37Z"/><path fill="#051b2c" d="M200.93,184.26h6.91c.14,0,.27.05.37.15.1.1.15.23.15.37v29.57c0,4.89-1.61,8.62-4.84,11.19-3.23,2.57-7.12,3.86-11.67,3.86-3.41,0-6.42-.65-9.01-1.96-2.38-1.18-4.36-3.02-5.72-5.3-.03-.06-.06-.13-.07-.2,0-.07,0-.14.01-.21.02-.07.05-.13.09-.18.04-.05.1-.1.15-.13l6.06-3.46c.12-.07.26-.09.39-.05.13.03.24.12.32.23,1.63,2.66,4.31,3.99,8.03,3.99,2.57,0,4.59-.67,6.06-2.02,1.47-1.35,2.21-3.27,2.22-5.76v-3.43c-2.4,3.2-5.78,4.81-10.12,4.81s-8.21-1.57-11.22-4.71c-3.01-3.14-4.52-6.96-4.52-11.47,0-4.47,1.52-8.28,4.55-11.45,3.04-3.16,6.77-4.74,11.19-4.74s7.72,1.6,10.12,4.81v-3.39c0-.14.06-.27.16-.37.1-.1.23-.15.37-.15ZM185.19,205.79c1.66,1.62,3.78,2.44,6.36,2.44s4.69-.81,6.35-2.44c1.67-1.62,2.5-3.7,2.5-6.23,0-2.49-.83-4.54-2.5-6.17-1.67-1.62-3.78-2.43-6.34-2.43-2.57,0-4.69.81-6.36,2.43-1.66,1.62-2.5,3.68-2.5,6.16,0,2.53.82,4.6,2.49,6.22Z"/><path fill="#051b2c" d="M233.35,183.38c3.46,0,6.31,1.16,8.57,3.48,2.26,2.32,3.39,5.52,3.4,9.61v18.89c0,.14-.06.27-.15.37-.1.1-.23.15-.37.15h-7.11c-.14,0-.27-.06-.37-.15-.1-.1-.15-.23-.15-.37v-17.88c0-2.11-.57-3.72-1.71-4.84-1.14-1.12-2.66-1.68-4.55-1.68-2.11,0-3.79.65-5.06,1.96-1.26,1.31-1.9,3.27-1.9,5.88v16.55c0,.14-.06.27-.15.37s-.23.15-.37.15h-7.11c-.14,0-.27-.06-.37-.15-.1-.1-.15-.23-.15-.37v-30.57c0-.14.05-.27.15-.37.1-.1.23-.15.37-.15h7.11c.14,0,.27.05.37.15.1.1.15.23.15.37v3.01c1.98-2.95,5.12-4.43,9.42-4.43Z"/><path fill="#051b2c" d="M276.81,184.26h7.11c.14,0,.27.05.37.15.1.1.15.23.15.37v30.57c0,.14-.06.27-.15.37-.1.1-.23.15-.37.15h-7.11c-.14,0-.27-.06-.37-.15-.1-.1-.15-.23-.15-.37v-3.2c-2.45,3.08-5.88,4.62-10.31,4.62s-7.83-1.61-10.85-4.84c-3.01-3.23-4.52-7.18-4.52-11.86s1.51-8.63,4.52-11.86c3.01-3.22,6.63-4.84,10.85-4.84,4.43,0,7.86,1.54,10.31,4.62v-3.2c0-.14.05-.27.15-.37.1-.1.23-.15.37-.15ZM261.23,206.49c1.64,1.67,3.73,2.5,6.26,2.5s4.63-.83,6.29-2.5c1.67-1.66,2.5-3.8,2.5-6.42s-.83-4.75-2.5-6.42c-1.67-1.67-3.76-2.5-6.29-2.5s-4.62.83-6.26,2.5c-1.64,1.67-2.47,3.8-2.47,6.42s.82,4.75,2.47,6.42Z"/><path fill="#051b2c" d="M291.84,215.35v-45.11c0-.14.06-.27.15-.37.1-.1.23-.15.37-.15h7.12c.14,0,.27.05.37.15s.15.23.15.37v45.11c0,.14-.06.27-.15.37-.1.1-.23.15-.37.15h-7.12c-.14,0-.27-.06-.37-.15-.1-.1-.15-.23-.15-.37Z"/><path fill="#051b2c" d="M149.86,0c-37.94.07-68.85,31.23-68.63,69.17.19,35.44,27.21,64.53,61.78,68.02.11.01.22,0,.33-.04.11-.03.2-.09.28-.17.08-.07.15-.16.19-.27.04-.1.07-.21.07-.32v-67.63h-5.33c-.21,0-.41-.08-.56-.23-.15-.15-.23-.35-.23-.56v-10.66c0-.21.08-.41.23-.56.15-.15.35-.23.56-.23h16.77c.21,0,.41.08.56.23.15.15.23.35.23.56v79.08c0,.11.02.22.07.32.04.1.11.19.19.27.08.07.18.13.28.17.1.04.22.05.33.04,34.7-3.5,61.79-32.8,61.79-68.42C218.77,30.74,187.91-.07,149.86,0ZM169.43,121.87c-.12.04-.25.06-.37.04-.12-.02-.24-.06-.35-.14-.1-.07-.19-.17-.25-.28-.06-.11-.09-.24-.09-.36v-11.29c0-.22.07-.44.19-.63.12-.19.29-.34.49-.44,7.55-3.61,13.93-9.27,18.4-16.35,4.47-7.08,6.84-15.27,6.85-23.64,0-24.66-20.25-44.67-44.98-44.29-23.53.36-42.83,19.33-43.58,42.85-.27,8.61,1.97,17.11,6.45,24.47,4.48,7.36,11.01,13.25,18.78,16.96.2.1.38.25.5.44.12.19.18.41.19.63v11.29c0,.13-.03.25-.09.36s-.14.21-.25.28c-.1.07-.22.12-.35.14-.13.02-.25,0-.37-.04-21.79-7.99-37.34-29.04-37.11-53.62.28-30.71,25.36-55.77,56.08-56,31.37-.24,56.98,25.21,56.98,56.53,0,24.35-15.48,45.16-37.11,53.09Z"/></g></svg>