<?xml version="1.0" encoding="UTF-8"?><svg id="Layer_1" xmlns="http://www.w3.org/2000/svg" viewBox="0 0 316 70"><defs><style>.cls-1{fill:#051b2c;}</style></defs><path class="cls-1" d="M34.81.35C15.57.38-.11,16.18,0,35.42c.05,8.6,3.28,16.88,9.06,23.25,5.78,6.37,13.72,10.37,22.27,11.25.06,0,.11,0,.17-.02.05-.02.1-.05.14-.08.04-.04.07-.08.1-.14.02-.05.03-.11.03-.16v-34.3h-2.71c-.11,0-.21-.04-.28-.12-.08-.08-.12-.18-.12-.28v-5.41c0-.11.04-.21.12-.28.08-.08.18-.12.28-.12h8.51c.11,0,.21.04.28.12.08.08.12.18.12.28v40.11c0,.06.01.11.03.16.02.05.06.1.1.14.04.04.09.07.14.08.05.02.11.02.17.02,8.9-.91,17.11-5.2,22.94-12,5.82-6.79,8.81-15.57,8.35-24.5-.46-8.94-4.34-17.35-10.84-23.51C52.37,3.75,43.76.33,34.81.35h0ZM44.72,62.15c-.06.02-.13.03-.19.02-.06,0-.12-.03-.18-.07-.05-.04-.1-.09-.12-.14-.03-.06-.04-.12-.04-.18v-5.72c0-.11.03-.23.09-.32.06-.1.15-.17.25-.22,4.63-2.2,8.37-5.92,10.59-10.55s2.8-9.86,1.63-14.86c-1.17-4.99-4.01-9.44-8.05-12.59-4.04-3.15-9.04-4.83-14.17-4.75-11.93.18-21.72,9.8-22.1,21.73-.14,4.37,1,8.68,3.27,12.41,2.27,3.73,5.58,6.72,9.53,8.6.1.05.19.13.25.22.06.1.09.21.09.32v5.72c0,.06-.02.13-.04.18-.03.06-.07.11-.12.14-.05.04-.11.06-.18.07-.06,0-.13,0-.19-.02-5.56-2.04-10.35-5.75-13.72-10.61-3.37-4.87-5.15-10.66-5.1-16.58.14-15.57,12.86-28.29,28.44-28.4,15.91-.13,28.89,12.78,28.89,28.66,0,12.35-7.85,22.9-18.82,26.93Z"/><path class="cls-1" d="M117.64,47.53c-3.4,3.39-7.54,5.08-12.41,5.08-4.88,0-9-1.69-12.38-5.08-3.38-3.38-5.07-7.53-5.07-12.44s1.69-9.05,5.08-12.43c3.38-3.39,7.51-5.08,12.38-5.08s9.01,1.69,12.41,5.08c3.4,3.39,5.1,7.53,5.1,12.43s-1.7,9.05-5.1,12.44ZM97.49,43.01c2.08,2.07,4.67,3.1,7.75,3.1s5.66-1.03,7.74-3.1c2.09-2.07,3.13-4.71,3.13-7.91s-1.04-5.85-3.13-7.94c-2.08-2.08-4.67-3.12-7.74-3.13-3.08,0-5.66,1.04-7.75,3.13-2.08,2.09-3.13,4.73-3.13,7.94s1.04,5.84,3.13,7.91Z"/><path class="cls-1" d="M140.49,27.21c2.63,0,4.8.88,6.52,2.65,1.72,1.76,2.57,4.2,2.57,7.31v14.37c0,.05-.01.1-.03.15-.02.05-.05.09-.09.13-.04.04-.08.07-.13.09-.05.02-.1.03-.15.03h-5.41c-.11,0-.21-.04-.28-.12-.08-.08-.12-.18-.12-.28v-13.6c0-1.6-.43-2.83-1.3-3.68-.87-.85-2.02-1.27-3.46-1.27-1.6,0-2.89.5-3.85,1.49-.96.99-1.44,2.49-1.44,4.47v12.59c0,.11-.04.21-.12.28-.08.08-.18.12-.28.12h-5.41c-.11,0-.21-.04-.28-.12-.08-.08-.12-.18-.12-.28v-23.25c0-.11.04-.21.12-.28.07-.08.18-.12.28-.12h5.41c.11,0,.21.04.28.12.07.08.12.18.12.28v2.29c1.51-2.25,3.91-3.37,7.18-3.37Z"/><path class="cls-1" d="M160.12,42.46c.83,3.01,3.1,4.52,6.78,4.52,2.24,0,3.97-.72,5.18-2.15.06-.07.14-.12.24-.13.09-.01.18,0,.27.05l4.32,2.49s.09.07.12.11c.03.05.06.1.07.15.01.05.01.11,0,.17-.01.05-.04.11-.07.15-2.37,3.19-5.77,4.79-10.22,4.79-3.98,0-7.17-1.2-9.57-3.61-2.4-2.41-3.61-5.44-3.61-9.09s1.19-6.65,3.56-9.07c2.37-2.42,5.42-3.63,9.13-3.63,3.53,0,6.44,1.22,8.73,3.66s3.44,5.45,3.44,9.04c0,.74-.07,1.48-.18,2.2-.01.09-.07.18-.14.24-.07.06-.17.09-.26.09h-17.79ZM160.03,37.64h12.27c-.35-1.64-1.08-2.85-2.19-3.66-1.1-.8-2.42-1.22-3.78-1.2-1.67,0-3.05.42-4.14,1.27-1.09.85-1.81,2.04-2.16,3.58Z"/><path class="cls-1" d="M193.66,52.61c-3.34,0-6.15-.75-8.42-2.24-2.14-1.37-3.78-3.39-4.69-5.77-.03-.09-.04-.19,0-.28.03-.09.09-.17.18-.21l4.99-2.91s.1-.05.16-.05c.06,0,.11,0,.17.02.05.02.1.05.15.08.04.04.08.08.1.14,1.36,3.15,3.89,4.73,7.58,4.73,1.86,0,3.22-.33,4.09-1,.41-.29.74-.67.96-1.12.23-.44.34-.94.34-1.43,0-1.19-.53-2.11-1.59-2.77-1.06-.66-2.95-1.37-5.68-2.14-1.3-.37-2.58-.82-3.82-1.35-1.11-.48-2.15-1.09-3.13-1.8-1.03-.73-1.85-1.72-2.38-2.86-.57-1.27-.85-2.65-.82-4.04,0-3.04,1.08-5.47,3.25-7.29,2.16-1.81,4.77-2.72,7.82-2.72,2.73,0,5.12.67,7.19,2,1.99,1.29,3.6,3.09,4.66,5.21.05.09.06.2.03.3-.03.1-.1.18-.18.23l-4.88,2.82s-.1.04-.15.05-.11,0-.16-.01c-.05-.02-.1-.04-.14-.07-.04-.03-.08-.08-.1-.12-1.35-2.64-3.44-3.95-6.26-3.95-1.38,0-2.46.31-3.25.94-.38.28-.68.65-.88,1.07-.21.42-.31.89-.3,1.36,0,.5.11,1,.34,1.45.23.45.57.83.99,1.12.88.66,2.57,1.37,5.07,2.14,1.03.32,1.8.57,2.33.75.53.17,1.25.45,2.16.82.73.28,1.44.63,2.12,1.03.6.4,1.17.83,1.71,1.3.58.48,1.08,1.04,1.47,1.68.81,1.45,1.24,3.1,1.23,4.76,0,3.11-1.13,5.58-3.39,7.42-2.26,1.83-5.2,2.74-8.83,2.73Z"/><path class="cls-1" d="M212.99,25c-1.01-.01-1.97-.42-2.68-1.13-.71-.71-1.12-1.67-1.13-2.68,0-.5.1-1,.29-1.46.19-.46.48-.88.84-1.23.34-.37.75-.66,1.21-.86.46-.2.95-.3,1.46-.3.51,0,1.01.09,1.48.29.47.2.89.49,1.24.86.36.35.65.77.84,1.23.2.46.3.96.29,1.46,0,.5-.1.99-.29,1.45-.19.46-.48.87-.84,1.22-.35.37-.77.66-1.24.85-.47.2-.97.29-1.48.29ZM209.92,51.54v-23.25c0-.11.04-.21.12-.28.07-.08.18-.12.28-.12h5.41c.11,0,.21.04.28.12.07.08.12.18.12.28v23.25c0,.11-.04.21-.12.28s-.18.12-.28.12h-5.41c-.05,0-.11-.01-.15-.03-.05-.02-.09-.05-.13-.09-.04-.04-.07-.08-.09-.13-.02-.05-.03-.1-.03-.16h0Z"/><path class="cls-1" d="M240.62,27.88h5.26c.11,0,.21.04.28.12.08.08.12.18.12.28v22.5c0,3.72-1.23,6.56-3.68,8.52-2.45,1.96-5.41,2.93-8.88,2.93-2.6,0-4.88-.5-6.85-1.49-1.81-.89-3.32-2.29-4.35-4.03-.03-.05-.04-.1-.05-.15,0-.05,0-.11,0-.16.01-.05.04-.1.07-.14.03-.04.07-.08.12-.1l4.6-2.63c.09-.05.2-.07.3-.04.1.03.19.09.24.17,1.24,2.02,3.28,3.03,6.11,3.03,1.96,0,3.49-.51,4.61-1.54,1.12-1.03,1.68-2.49,1.69-4.38v-2.61c-1.83,2.44-4.4,3.66-7.7,3.66-3.4,0-6.24-1.19-8.54-3.58-2.29-2.39-3.44-5.3-3.44-8.73,0-3.4,1.15-6.3,3.47-8.71,2.31-2.41,5.15-3.61,8.51-3.61,3.3,0,5.87,1.22,7.7,3.66v-2.57c0-.05.01-.11.03-.16.02-.05.05-.09.09-.13.04-.04.08-.07.13-.09.05-.02.1-.03.16-.03ZM228.65,44.26c1.27,1.24,2.88,1.85,4.83,1.85,1.96,0,3.57-.62,4.83-1.85,1.27-1.23,1.9-2.81,1.9-4.74,0-1.89-.63-3.45-1.9-4.69-1.27-1.24-2.88-1.85-4.83-1.85-1.96,0-3.57.62-4.83,1.85-1.26,1.23-1.9,2.8-1.9,4.69,0,1.92.63,3.5,1.9,4.74Z"/><path class="cls-1" d="M265.29,27.21c2.63,0,4.8.88,6.52,2.65,1.72,1.76,2.57,4.2,2.57,7.31v14.37c0,.05-.01.1-.03.15-.02.05-.05.09-.09.13-.04.04-.08.07-.13.09-.05.02-.1.03-.15.03h-5.41c-.11,0-.21-.04-.28-.12-.08-.08-.12-.18-.12-.28v-13.6c0-1.6-.43-2.83-1.3-3.68-.87-.85-2.02-1.27-3.46-1.27-1.6,0-2.89.5-3.85,1.49-.96.99-1.44,2.49-1.44,4.47v12.59c0,.11-.04.21-.12.28-.08.08-.18.12-.28.12h-5.41c-.11,0-.21-.04-.28-.12-.08-.08-.12-.18-.12-.28v-23.25c0-.11.04-.21.12-.28.07-.08.18-.12.28-.12h5.41c.11,0,.21.04.28.12.07.08.12.18.12.28v2.29c1.51-2.25,3.91-3.37,7.18-3.37Z"/><path class="cls-1" d="M298.35,27.88h5.41c.11,0,.21.04.28.12.07.08.12.18.12.28v23.25c0,.11-.04.21-.12.28-.08.08-.18.12-.28.12h-5.41c-.11,0-.21-.04-.28-.12s-.12-.18-.12-.28v-2.44c-1.86,2.34-4.47,3.51-7.84,3.51-3.21,0-5.96-1.23-8.25-3.68-2.29-2.45-3.44-5.46-3.44-9.02s1.15-6.57,3.44-9.02c2.29-2.45,5.04-3.68,8.25-3.68,3.37,0,5.98,1.17,7.84,3.51v-2.44c0-.11.04-.21.12-.28.08-.08.18-.12.28-.12ZM286.5,44.79c1.25,1.27,2.84,1.9,4.76,1.9,1.92,0,3.52-.64,4.79-1.9,1.27-1.27,1.9-2.89,1.9-4.88s-.63-3.62-1.9-4.88c-1.27-1.27-2.86-1.9-4.79-1.9-1.93,0-3.51.63-4.76,1.9-1.25,1.27-1.88,2.9-1.88,4.88s.62,3.61,1.88,4.88Z"/><path class="cls-1" d="M309.79,51.53V17.21c0-.11.04-.21.12-.28.08-.08.18-.12.28-.12h5.41c.11,0,.21.04.28.12.08.08.12.18.12.28v34.32c0,.05-.01.1-.03.15-.02.05-.05.09-.09.13-.04.04-.08.07-.13.09-.05.02-.1.03-.15.03h-5.41c-.11,0-.21-.04-.28-.12-.08-.08-.12-.18-.12-.28Z"/></svg>