<svg width="24" height="24" viewBox="0 0 24 24" fill="none" xmlns="http://www.w3.org/2000/svg">
<path fill-rule="evenodd" clip-rule="evenodd" d="M9.48488 0.0148696C8.92456 0.183591 8.73187 0.856 9.1296 1.25467C9.19018 1.31542 9.30323 1.39409 9.38082 1.42952L9.52186 1.49392L10.3788 1.50182L11.2359 1.50972L11.2295 3.01435L11.2232 4.51895L10.9273 4.55025C9.78179 4.67139 8.69099 4.97506 7.6633 5.45888C7.16783 5.69215 6.91629 5.83185 6.45213 6.13153C4.98241 7.08047 3.79088 8.40275 3.01203 9.94918C2.49622 10.9733 2.2123 11.9028 2.04715 13.1079C1.99153 13.5139 1.98282 14.892 2.03337 15.2938C2.21343 16.7251 2.6071 17.9054 3.3033 19.101C4.05848 20.398 5.17399 21.5567 6.47679 22.3975C7.39923 22.9928 8.4407 23.4426 9.52484 23.714C10.3704 23.9256 11.014 24 11.9998 24C12.8072 24 13.1415 23.9733 13.8091 23.8554C16.2679 23.4212 18.5068 22.0696 20.0135 20.1099C21.0784 18.7249 21.7094 17.1933 21.9532 15.4019C22.0157 14.9423 22.0156 13.5622 21.9529 13.1079C21.6633 11.0082 20.833 9.22469 19.4497 7.73083L19.2417 7.50621L19.6743 7.08472L20.107 6.66325L20.2085 6.70284C20.3496 6.75782 20.5964 6.75386 20.7606 6.694C20.9197 6.63601 21.0949 6.47649 21.1763 6.31555C21.2227 6.2236 21.2337 6.16305 21.2337 5.99778C21.2337 5.68797 21.2008 5.63748 20.6432 5.09201C20.0928 4.55354 20.0126 4.50317 19.705 4.50317C19.4228 4.50317 19.1952 4.62822 19.0396 4.86882C18.9245 5.04671 18.9027 5.32972 18.9887 5.5302L19.0217 5.60704L18.5591 6.05719L18.0966 6.50733L17.9103 6.37308C17.8078 6.29924 17.5982 6.15947 17.4447 6.0625C16.1307 5.23292 14.6347 4.71549 13.0724 4.55025L12.7765 4.51895L12.7702 3.01435L12.7638 1.50972L13.6208 1.50182L14.4778 1.49392L14.6188 1.42952C15.2188 1.15556 15.237 0.373041 14.6504 0.0686278L14.5271 0.00463683L12.0368 0.000457244C10.6672 -0.00182472 9.51878 0.00466085 9.48488 0.0148696ZM11.5067 6.01268C9.24388 6.17266 7.29183 7.07398 5.78036 8.65665C4.58647 9.90683 3.81499 11.521 3.59279 13.2337C3.49197 14.0109 3.52543 15.0312 3.67687 15.7982C4.08178 17.8488 5.25168 19.6562 6.98022 20.9016C8.12258 21.7246 9.43421 22.2384 10.9171 22.4436C11.3549 22.5042 12.6447 22.5042 13.0826 22.4436C14.9659 22.1829 16.5707 21.426 17.9018 20.1705C19.2799 18.8706 20.158 17.1569 20.4068 15.2818C20.481 14.7226 20.481 13.8054 20.4069 13.2337C20.2303 11.8724 19.666 10.4765 18.8624 9.4133C17.4376 7.52804 15.3368 6.32877 12.9861 6.05863C12.6601 6.02118 11.7752 5.99368 11.5067 6.01268ZM7.84177 10.1633C7.50617 10.3155 7.33431 10.6272 7.39235 10.9783C7.41982 11.1445 7.45064 11.2069 7.57853 11.3557C7.63029 11.4158 8.53673 12.3968 9.59287 13.5356C11.4219 15.5078 11.5205 15.6097 11.6696 15.6812C11.8155 15.7511 11.8401 15.7555 12.0301 15.7454C12.4482 15.7232 12.7331 15.458 12.7586 15.0672C12.7716 14.8673 12.7405 14.7375 12.6471 14.6026C12.5465 14.4572 8.72864 10.3465 8.61031 10.2562C8.39819 10.0943 8.07896 10.0557 7.84177 10.1633Z" fill="#4E50D1"/>
</svg>
