<svg width="24" height="24" viewBox="0 0 24 24" fill="none" xmlns="http://www.w3.org/2000/svg">
<g clip-path="url(#clip0_8366_23337)">
<path fill-rule="evenodd" clip-rule="evenodd" d="M11.1496 0.0238831C9.45082 0.164484 8.03434 0.554606 6.60573 1.27532C3.53322 2.82539 1.30501 5.56731 0.397345 8.91502C-0.0937738 10.7265 -0.129597 12.8311 0.299131 14.6874C1.10429 18.1737 3.41352 21.1159 6.60573 22.7227C8.29031 23.5706 10.0998 24 11.9888 24C13.9303 24 15.7573 23.5538 17.5158 22.6502C19.5317 21.6144 21.2796 19.9282 22.4238 17.9156C23.2829 16.4045 23.8449 14.5481 23.9445 12.8926C23.9535 12.7437 23.97 12.6161 23.9813 12.6091C23.9926 12.6021 24.0017 12.3135 24.0015 11.9678C24.0012 11.6221 23.9921 11.3534 23.9811 11.3707C23.9693 11.3893 23.9544 11.2855 23.9448 11.1187C23.8501 9.46773 23.2856 7.59856 22.4238 6.08284C20.5696 2.82129 17.3011 0.605177 13.6073 0.105032C12.8921 0.00818607 11.7822 -0.0284643 11.1496 0.0238831ZM11.3168 1.52456C11.2876 1.53368 11.272 1.62937 11.2395 1.99729C11.158 2.92051 10.9789 3.69514 10.6531 4.53474C10.4195 5.13658 9.897 6.10288 9.58143 6.51659C9.53393 6.57883 9.49561 6.63631 9.49624 6.64433C9.49688 6.65232 9.6549 6.76688 9.84737 6.89889C10.0399 7.0309 10.3801 7.27557 10.6036 7.44262L11.0098 7.74634L11.2535 7.55975C12.7206 6.43681 14.5394 5.42558 16.3168 4.74461C17.0138 4.47761 17.691 4.26054 18.6484 3.99727L18.7501 3.96933L18.4608 3.74201C16.936 2.54371 15.1715 1.81642 13.1877 1.56858C12.9006 1.53269 11.4034 1.49748 11.3168 1.52456ZM9.57901 1.77907C7.88923 2.19425 6.34465 2.99028 5.09854 4.08824L4.93788 4.22977L5.36419 4.4149C6.31056 4.82585 7.48397 5.41533 8.08038 5.77941C8.12654 5.80759 8.17648 5.83068 8.1914 5.83072C8.22461 5.83084 8.35807 5.65328 8.55212 5.35079C9.22447 4.30281 9.61471 3.16521 9.74395 1.87656C9.75808 1.73575 9.75729 1.73529 9.57901 1.77907ZM19.8656 5.25867C19.8129 5.27158 19.5485 5.33569 19.2781 5.40114C16.8757 5.98277 14.593 7.02048 12.5979 8.43797C12.4516 8.54194 12.3014 8.65165 12.264 8.68177L12.1962 8.73655L12.578 9.1018C13.2081 9.70448 14.1681 10.7222 14.3078 10.9355L14.3431 10.9896L14.4668 10.9165C14.718 10.7681 15.3202 10.482 15.6694 10.3452C16.3906 10.0625 16.9917 9.91116 17.8874 9.78671C18.2431 9.73731 19.5463 9.74519 19.9136 9.79897C20.7598 9.92289 21.4464 10.1047 22.1399 10.3884C22.365 10.4805 22.3754 10.4825 22.3631 10.432C22.356 10.4029 22.3327 10.2765 22.3114 10.1511C22.1223 9.03906 21.6787 7.81412 21.0945 6.79088C20.7869 6.25217 20.0738 5.25001 19.9902 5.23901C19.9744 5.23693 19.9184 5.24578 19.8656 5.25867ZM3.66074 5.62081C3.26755 6.12592 2.84906 6.80696 2.55096 7.42683C2.2926 7.96401 2.00093 8.71451 2.02555 8.77874C2.05123 8.8457 3.02964 8.7742 3.63041 8.66144C4.78277 8.44517 5.92199 7.93081 6.84551 7.20988C7.17345 6.95388 7.18055 6.99446 6.76899 6.77214C6.28418 6.51021 5.66682 6.20304 5.18514 5.98407C4.73992 5.78167 3.88004 5.42279 3.84031 5.42279C3.82633 5.42279 3.74552 5.51191 3.66074 5.62081ZM8.32908 7.92433C7.03522 9.10303 5.47017 9.87367 3.76432 10.172C3.51574 10.2155 3.35696 10.2365 2.91816 10.2838C2.84181 10.2921 2.52209 10.2986 2.20764 10.2984L1.63593 10.298L1.62224 10.3866C1.54115 10.9108 1.52288 11.2072 1.52288 11.9992C1.52288 13.0106 1.57241 13.4889 1.76522 14.3394C2.0609 15.6435 2.67478 17.0191 3.42357 18.0553L3.50721 18.1711L3.65556 17.8033C4.74906 15.0929 6.282 12.5677 8.06803 10.5351C8.49321 10.0512 9.08122 9.43789 9.46825 9.07456C9.64785 8.90595 9.79855 8.75788 9.80311 8.7455C9.81495 8.71336 8.62581 7.85595 8.50505 7.80958C8.48364 7.80135 8.41475 7.84628 8.32908 7.92433ZM10.706 9.97949C10.1734 10.4608 9.39584 11.284 8.80965 11.9872C7.2902 13.81 5.99246 16.0291 5.00576 18.4916C4.81559 18.9663 4.65151 19.4228 4.65151 19.4772C4.65151 19.5139 5.17529 19.9858 5.52026 20.2601C5.83193 20.5078 6.42071 20.9051 6.78556 21.1138C7.80779 21.6986 9.03154 22.1427 10.1425 22.3319C10.2678 22.3533 10.3941 22.3765 10.4232 22.3836C10.4735 22.396 10.4715 22.3855 10.3792 22.1602C9.43816 19.8621 9.51084 17.3332 10.5825 15.0864C10.9391 14.3387 11.4223 13.601 11.9673 12.9722C12.1792 12.7277 12.7278 12.1785 12.9763 11.9619L13.1127 11.8432L12.7943 11.4832C12.6191 11.2852 12.2819 10.9283 12.0448 10.6901C11.6259 10.2692 11.0385 9.71886 11.0085 9.71927C11.0004 9.71939 10.8642 9.83649 10.706 9.97949ZM18.6068 11.2474C17.9587 11.2708 17.26 11.3966 16.6046 11.608C16.1572 11.7523 15.2978 12.1387 15.2978 12.1956C15.2978 12.2061 15.3628 12.3062 15.4422 12.4181C15.6529 12.7149 16.073 13.3735 16.3153 13.7871C17.341 15.5376 18.1147 17.474 18.5976 19.4997C18.6574 19.7505 18.7136 19.9745 18.7225 19.9975C18.7356 20.0314 18.804 19.9793 19.0863 19.72C20.1739 18.7214 21.0511 17.483 21.6253 16.1355C22.1202 14.9742 22.4006 13.7672 22.4587 12.5484L22.4743 12.2216L22.2664 12.1082C21.6459 11.7696 20.7363 11.4589 20.0215 11.3413C19.5851 11.2696 19.0248 11.2324 18.6068 11.2474ZM0.0102431 11.9992C0.0102431 12.349 0.0136001 12.4922 0.0176763 12.3172C0.0217766 12.1423 0.0217766 11.8561 0.0176763 11.6812C0.0136001 11.5063 0.0102431 11.6494 0.0102431 11.9992ZM13.773 13.2777C11.8419 15.0617 10.9417 17.4786 11.3054 19.9032C11.4212 20.6755 11.749 21.654 12.1141 22.3174L12.2118 22.495L12.5379 22.4794C14.1194 22.4038 15.7333 21.9364 17.1263 21.1505C17.255 21.0779 17.3646 21.0116 17.3697 21.0031C17.3928 20.9653 17.1818 20.0036 17.0082 19.3557C16.5087 17.4916 15.7519 15.7212 14.7819 14.1472C14.6327 13.905 14.0539 13.0308 14.0434 13.0317C14.041 13.0319 13.9193 13.1426 13.773 13.2777Z" fill="#4E50D1"/>
</g>
<defs>
<clipPath id="clip0_8366_23337">
<rect width="24" height="24" fill="white"/>
</clipPath>
</defs>
</svg>
