<svg width="24" height="24" viewBox="0 0 24 24" fill="none" xmlns="http://www.w3.org/2000/svg">
<g clip-path="url(#clip0_8366_23813)">
<path fill-rule="evenodd" clip-rule="evenodd" d="M10.92 0.00713045C10.4155 0.0879902 9.98294 0.305265 9.63638 0.651944C9.35033 0.938122 9.1632 1.26151 9.03931 1.68391C8.99119 1.84791 8.98982 1.91252 8.98226 4.35838C8.97365 7.14005 8.96534 6.98258 9.1325 7.20156C9.24348 7.34698 9.41926 7.45088 9.60533 7.48109C9.80098 7.51285 11.151 7.51285 11.3467 7.48109C11.7152 7.42128 11.9764 7.10999 11.9758 6.73138C11.9753 6.45077 11.8046 6.19352 11.532 6.06258C11.3891 5.99397 11.3845 5.99344 10.938 5.99342L10.488 5.99339V5.24914V4.50488L12.342 4.50469C13.4852 4.50459 14.2538 4.49513 14.3467 4.48006C14.8348 4.40081 15.1172 3.87481 14.9068 3.43651C14.8227 3.26113 14.6955 3.13538 14.52 3.05404L14.388 2.99284L12.4362 2.9926L10.4845 2.99236L10.4922 2.5062C10.4995 2.05352 10.5038 2.01292 10.555 1.91701C10.6253 1.7854 10.7694 1.64115 10.901 1.57086L11.004 1.51586L15.6831 1.50961C19.9116 1.50397 20.3733 1.50707 20.4774 1.54164C20.6333 1.59345 20.834 1.78035 20.9068 1.94152L20.964 2.06805L20.9701 12.2775L20.9763 22.4871H20.2335H19.4907L19.4816 20.4644C19.4718 18.2852 19.4742 18.3282 19.3428 17.9766C19.0659 17.2359 18.4039 16.6744 17.64 16.5323C17.4193 16.4912 16.9919 16.4972 16.764 16.5446C15.9385 16.7161 15.2624 17.3621 15.0423 18.1896L14.988 18.3936V20.9265V23.4594L15.0435 23.5721C15.1143 23.716 15.2595 23.8612 15.4033 23.932L15.516 23.9876L19.4494 23.9938L23.3827 24L23.5174 23.9385C23.6988 23.8556 23.8206 23.7326 23.9184 23.5334C23.9854 23.3972 24 23.3399 24 23.2139C24 23.1295 23.9908 23.0661 23.9796 23.073C23.9683 23.08 23.9468 23.0444 23.9317 22.994C23.892 22.8616 23.7561 22.6956 23.6176 22.6103C23.4628 22.5151 23.2889 22.4875 22.8423 22.4872L22.4886 22.4871L22.4816 12.2175C22.475 2.43643 22.4726 1.93943 22.4316 1.76794C22.2624 1.06073 21.8003 0.490896 21.1534 0.191898C21.0545 0.146186 20.8904 0.0850612 20.7888 0.0560592L20.604 0.00333715L15.792 0.000432149C13.1454 -0.0011764 10.953 0.00184863 10.92 0.00713045ZM2.88379 9.02136C2.50848 9.08378 2.07502 9.36223 1.80365 9.71524C1.71175 9.83476 1.58592 10.09 1.5317 10.2669L1.47648 10.4469L1.46974 16.467L1.46299 22.4871L1.1095 22.4872C0.664584 22.4875 0.489048 22.5152 0.336096 22.6093C0.0936 22.7586 0 22.9385 0 23.2553C0 23.4381 0.009264 23.4911 0.057936 23.5862C0.13428 23.7355 0.269424 23.8625 0.432 23.9379L0.564 23.9991L6.71374 23.9993C12.6896 23.9996 12.8669 23.9983 12.983 23.9541C13.2466 23.8539 13.4215 23.6372 13.4645 23.3573C13.4813 23.2477 13.4872 21.1389 13.4827 16.8331L13.476 10.4709L13.4219 10.2807C13.37 10.0982 13.2466 9.84299 13.1484 9.71524C12.8709 9.35428 12.4433 9.08426 12.0474 9.02001C11.8533 8.98851 3.07351 8.98981 2.88379 9.02136ZM3.10327 10.5357C2.98819 10.5913 2.976 10.6699 2.976 11.3557V11.9932L3.834 12.0003C4.67585 12.0073 4.69394 12.0085 4.79508 12.0625C4.95403 12.1474 5.08006 12.2745 5.15318 12.4237C5.24508 12.6113 5.24791 12.8863 5.15974 13.0607C5.08022 13.218 4.93594 13.3582 4.776 13.4337L4.644 13.496L3.81 13.5039L2.976 13.5118V17.9994V22.4871H3.71786H4.45973L4.47029 21.2086C4.48027 19.9984 4.48358 19.9195 4.5323 19.731C4.74466 18.9096 5.3533 18.2853 6.156 18.0658C6.42144 17.9932 6.98268 17.9878 7.248 18.0553C8.06858 18.2641 8.66911 18.8541 8.9119 19.6901C8.95778 19.8481 8.96124 19.937 8.96966 21.1726L8.97864 22.4871H10.4773H11.976V16.6027C11.976 10.1644 11.9856 10.5999 11.8417 10.5343C11.7595 10.4968 3.18089 10.4982 3.10327 10.5357ZM17.0576 18.0236C16.908 18.0589 16.7885 18.1326 16.6735 18.2605C16.4784 18.4776 16.488 18.3591 16.488 20.5467V22.4871H17.232H17.976L17.9756 20.5964C17.9752 18.527 17.9754 18.5301 17.8355 18.3267C17.7368 18.1832 17.5707 18.0696 17.4016 18.0297C17.2508 17.9942 17.1873 17.9931 17.0576 18.0236ZM6.46159 19.5501C6.31666 19.6014 6.11436 19.7945 6.04517 19.9477L5.988 20.0742L5.98097 21.2806L5.97391 22.4871H6.71897H7.464V21.2996C7.464 20.1544 7.46222 20.1073 7.41394 19.9782C7.27858 19.6163 6.83623 19.4175 6.46159 19.5501Z" fill="#4E50D1"/>
</g>
<defs>
<clipPath id="clip0_8366_23813">
<rect width="24" height="24" fill="white"/>
</clipPath>
</defs>
</svg>
