<svg width="24" height="24" viewBox="0 0 24 24" fill="none" xmlns="http://www.w3.org/2000/svg">
<g clip-path="url(#clip0_8366_23696)">
<path fill-rule="evenodd" clip-rule="evenodd" d="M1.82583 0.0177127C1.34006 0.0889461 0.888673 0.332801 0.565622 0.698523C0.32454 0.971404 0.164228 1.28563 0.0522282 1.70472L0 1.90013V6.77386V11.6476L0.054967 11.8637C0.284661 12.7665 1.02407 13.3693 2.04204 13.4836C2.31966 13.5148 6.68946 13.5153 7.00925 13.4842C7.33136 13.4529 7.50297 13.4053 7.78378 13.2691C8.33955 12.9997 8.73821 12.4977 8.91901 11.8397L8.98498 11.5996V6.71384V1.8281L8.93079 1.62403C8.81881 1.20241 8.60737 0.855251 8.29006 0.572022C8.02407 0.334602 7.71889 0.176337 7.29578 0.0564145C7.11164 0.00421992 7.10383 0.00405186 4.54054 0.000330532C3.12673 -0.0017342 1.9051 0.00609258 1.82583 0.0177127ZM1.92689 1.54247C1.77643 1.58898 1.64247 1.72458 1.57033 1.90337L1.51351 2.04418L1.5072 5.51942L1.50088 8.99465H4.49218H7.48348V5.52979C7.48348 1.65843 7.49401 1.89864 7.31676 1.7215C7.26614 1.67092 7.16132 1.60398 7.08384 1.57277L6.94294 1.51599L4.49249 1.51143C2.38587 1.50752 2.02587 1.51186 1.92689 1.54247ZM11.1092 4.50503C10.9576 4.53106 10.8289 4.60229 10.7113 4.72514C10.587 4.85515 10.5373 4.95265 10.51 5.12037C10.4546 5.46081 10.6374 5.79463 10.9588 5.9399C11.0452 5.97896 11.3937 5.98233 16.4925 5.99359L21.9339 6.00559L22.0605 6.06278C22.2195 6.13459 22.4074 6.33518 22.4599 6.48919C22.4947 6.59118 22.4985 6.96723 22.4985 10.2951V13.9879L16.4024 13.9942L10.3063 14.0004L10.1883 14.0605C10.0319 14.1401 9.885 14.2859 9.81309 14.433C9.73405 14.5947 9.73115 14.8825 9.80689 15.0495C9.87205 15.1932 10.0483 15.3698 10.1935 15.4369L10.3063 15.489L16.4024 15.4952L22.4985 15.5013V16.4452C22.4985 17.249 22.4928 17.4059 22.4599 17.5023C22.4074 17.6563 22.2195 17.8569 22.0605 17.9287L21.9339 17.9859H13.5015H5.06907L4.94246 17.9287C4.78347 17.8569 4.5956 17.6563 4.54309 17.5023C4.51068 17.4072 4.50448 17.2599 4.50431 16.5831C4.50422 16.1398 4.49312 15.7092 4.47966 15.6263C4.41713 15.2412 4.08608 14.9784 3.69168 15.0007C3.42909 15.0155 3.18638 15.1785 3.06052 15.4246L3.003 15.537V16.5694C3.003 17.5542 3.00541 17.6107 3.05538 17.7977C3.27721 18.6279 3.92694 19.2556 4.76877 19.4532C4.93396 19.4919 5.17401 19.4962 7.65355 19.504L10.3581 19.5125L10.1232 20.922C9.99404 21.6971 9.88204 22.3657 9.87435 22.4076L9.86035 22.4839L8.96622 22.4917C8.09261 22.4993 8.06931 22.5007 7.95195 22.5546C7.80954 22.62 7.64245 22.7752 7.57597 22.9038C7.37268 23.2971 7.56829 23.7948 7.98895 23.9546C8.10508 23.9987 8.26859 24 13.5015 24C18.7344 24 18.8979 23.9987 19.0141 23.9546C19.3553 23.825 19.5527 23.4825 19.4949 23.1204C19.4567 22.8809 19.285 22.6621 19.0511 22.5546C18.9337 22.5007 18.9104 22.4993 18.0368 22.4917L17.1427 22.4839L17.1286 22.4076C17.121 22.3657 17.009 21.6971 16.8798 20.922L16.6449 19.5125L19.3495 19.504C21.829 19.4962 22.069 19.4919 22.2342 19.4532C23.0761 19.2556 23.7258 18.6279 23.9476 17.7977L24 17.6017V11.9957V6.38973L23.9476 6.1937C23.7258 5.36362 23.079 4.73847 22.2342 4.53773C22.0644 4.49737 21.7425 4.49466 16.6366 4.49053C13.6571 4.4881 11.1697 4.49464 11.1092 4.50503ZM1.5015 10.9744C1.5015 11.3828 1.50756 11.4579 1.5495 11.5699C1.63092 11.7874 1.80718 11.9118 2.11858 11.9715C2.21706 11.9903 2.95286 11.9961 4.61261 11.991C7.27582 11.9828 7.10715 11.9953 7.28521 11.7926C7.44476 11.611 7.46683 11.5181 7.47798 10.9814L7.48783 10.5072H4.49465H1.5015V10.9744ZM11.6431 20.9809C11.5085 21.7897 11.3987 22.4595 11.3989 22.4695C11.3992 22.4794 12.3453 22.4875 13.5015 22.4875C14.6577 22.4875 15.6038 22.4794 15.6041 22.4695C15.6043 22.4595 15.4945 21.7897 15.3599 20.9809L15.1153 19.5104H13.5015H11.8877L11.6431 20.9809Z" fill="#4E50D1"/>
</g>
<defs>
<clipPath id="clip0_8366_23696">
<rect width="24" height="24" fill="white"/>
</clipPath>
</defs>
</svg>
