<svg width="24" height="24" viewBox="0 0 24 24" fill="none" xmlns="http://www.w3.org/2000/svg">
<g clip-path="url(#clip0_8366_23907)">
<path fill-rule="evenodd" clip-rule="evenodd" d="M13.3835 0.0311155C13.1225 0.101534 12.8763 0.360808 12.8207 0.623667C12.8022 0.711645 12.7959 2.2924 12.8006 5.67913L12.8076 10.6066L12.8703 10.7339C12.9502 10.8963 13.1067 11.0528 13.2691 11.1327L13.3964 11.1953L18.3247 11.2023C21.712 11.207 23.293 11.2007 23.381 11.1822C23.6688 11.1214 23.9268 10.8552 23.9867 10.5571C24.0217 10.3828 23.9838 9.55215 23.9182 9.05464C23.6125 6.73701 22.5478 4.60676 20.8805 2.97662C20.0427 2.15753 19.2347 1.58551 18.1843 1.06791C16.9316 0.450629 15.6661 0.115049 14.2413 0.0223101C13.7476 -0.00981451 13.5268 -0.00756193 13.3835 0.0311155ZM14.4077 5.61465V9.59551H18.3904C22.1713 9.59551 22.3726 9.59323 22.3605 9.55071C22.3535 9.52609 22.3405 9.43105 22.3315 9.33954C22.2329 8.33205 21.8107 7.04157 21.2655 6.0808C20.867 5.37862 20.4316 4.8135 19.811 4.19303C19.1905 3.57255 18.6253 3.13722 17.923 2.73879C16.9691 2.19769 15.6789 1.77419 14.6765 1.67315C14.592 1.66463 14.4969 1.65229 14.4653 1.64571L14.4077 1.63379V5.61465ZM9.70981 3.22228C7.13025 3.40353 4.76539 4.49244 2.97462 6.32344C1.97383 7.34671 1.23661 8.48377 0.712243 9.81273C0.00953348 11.5936 -0.180737 13.6155 0.175021 15.5209C0.44714 16.9784 1.06306 18.4262 1.92283 19.6296C3.37451 21.6615 5.48241 23.0957 7.9049 23.6998C9.51024 24.1001 11.2918 24.1001 12.8972 23.6998C14.7863 23.2287 16.4742 22.2632 17.8275 20.8795C18.6467 20.0419 19.2188 19.234 19.7365 18.1838C20.4143 16.8087 20.778 15.3124 20.7912 13.8447C20.7951 13.417 20.7924 13.3909 20.7326 13.2694C20.6527 13.107 20.4962 12.9505 20.3338 12.8706L20.2064 12.808L15.7073 12.8012L11.2082 12.7945L11.2014 8.29609L11.1947 3.79773L11.132 3.67041C11.0518 3.50745 10.895 3.35098 10.7335 3.27283C10.6249 3.22025 10.5639 3.21058 10.3118 3.20602C10.1497 3.20308 9.87877 3.2104 9.70981 3.22228ZM9.30018 4.8734C7.69243 5.08212 6.18819 5.71663 4.92233 6.72004C4.56025 7.00704 3.80552 7.76164 3.51847 8.12367C2.48484 9.42723 1.86336 10.9323 1.65289 12.6416C1.60924 12.9959 1.60924 14.207 1.65289 14.5614C1.86336 16.2707 2.48484 17.7757 3.51847 19.0793C3.80552 19.4413 4.56025 20.1959 4.92233 20.4829C6.22611 21.5164 7.73575 22.1395 9.44099 22.348C9.79972 22.3918 11.0095 22.3915 11.3611 22.3474C13.4837 22.0811 15.2445 21.2194 16.6874 19.7406C17.2688 19.1448 17.6736 18.6105 18.065 17.9225C18.6091 16.9661 19.0326 15.6717 19.1314 14.6638C19.1403 14.5723 19.1533 14.4774 19.1602 14.453C19.1721 14.4109 18.9315 14.4081 14.6845 14.4018L10.1962 14.395L10.0689 14.3323C9.90648 14.2524 9.74997 14.096 9.67007 13.9336L9.6074 13.8063L9.60064 9.32034C9.59693 6.8531 9.58541 4.83572 9.57504 4.83728C9.56467 4.83887 9.44099 4.85513 9.30018 4.8734Z" fill="#4E50D1"/>
</g>
<defs>
<clipPath id="clip0_8366_23907">
<rect width="24" height="24" fill="white"/>
</clipPath>
</defs>
</svg>
