<svg width="24" height="24" viewBox="0 0 24 24" fill="none" xmlns="http://www.w3.org/2000/svg">
<path d="M2.86014 6.32015C3.09078 6.15648 3.35673 6.04945 3.63646 6.00776C3.91618 5.96606 4.20179 5.99086 4.47013 6.08015C4.5202 6.09705 4.56362 6.12939 4.59416 6.1725C4.6247 6.21562 4.6408 6.26731 4.64014 6.32015V11.2401C4.64014 11.3728 4.69281 11.4999 4.78658 11.5937C4.88035 11.6875 5.00753 11.7401 5.14014 11.7401C5.27274 11.7401 5.39992 11.6875 5.49369 11.5937C5.58746 11.4999 5.64014 11.3728 5.64014 11.2401V4.74015C5.6409 4.46367 5.70643 4.19122 5.83147 3.94462C5.9565 3.69803 6.13756 3.48416 6.36014 3.32015C6.59427 3.15167 6.86546 3.04192 7.15087 3.00015C7.43628 2.95838 7.72755 2.98582 8.00014 3.08015C8.0502 3.09705 8.09362 3.12939 8.12416 3.1725C8.1547 3.21562 8.1708 3.26731 8.17014 3.32015V9.74015C8.17014 9.87276 8.22281 9.99993 8.31658 10.0937C8.41035 10.1875 8.53753 10.2401 8.67014 10.2401C8.80274 10.2401 8.92992 10.1875 9.02369 10.0937C9.11746 9.99993 9.17014 9.87276 9.17014 9.74015V2.74015C9.17268 2.2829 9.35409 1.84482 9.67554 1.51963C9.99699 1.19444 10.433 1.00798 10.8901 1.00015C11.0912 0.997465 11.2911 1.03135 11.4801 1.10015C11.5283 1.11872 11.5696 1.15177 11.5982 1.19475C11.6269 1.23772 11.6415 1.28852 11.6401 1.34015V9.74015C11.6401 9.87276 11.6928 9.99993 11.7866 10.0937C11.8804 10.1875 12.0075 10.2401 12.1401 10.2401C12.2727 10.2401 12.3999 10.1875 12.4937 10.0937C12.5875 9.99993 12.6401 9.87276 12.6401 9.74015V4.74015C12.6401 4.27602 12.8245 3.8309 13.1527 3.50271C13.4809 3.17452 13.926 2.99015 14.3901 2.99015C14.8543 2.99015 15.2994 3.17452 15.6276 3.50271C15.9558 3.8309 16.1401 4.27602 16.1401 4.74015V14.7401C16.1417 14.7938 16.1598 14.8458 16.192 14.8887C16.2243 14.9317 16.269 14.9636 16.3201 14.9801C16.3714 14.9956 16.4262 14.9943 16.4766 14.9763C16.527 14.9583 16.5703 14.9246 16.6001 14.8801L18.7201 11.8801C18.8472 11.6848 19.0124 11.5172 19.2059 11.3873C19.3994 11.2574 19.6171 11.168 19.846 11.1243C20.0749 11.0806 20.3102 11.0836 20.5379 11.1332C20.7656 11.1827 20.9809 11.2777 21.171 11.4125C21.3611 11.5473 21.522 11.7191 21.644 11.9176C21.766 12.1161 21.8467 12.3372 21.8812 12.5677C21.9157 12.7982 21.9032 13.0332 21.8446 13.2587C21.786 13.4843 21.6824 13.6956 21.5401 13.8801L16.0701 21.6001C15.775 22.0309 15.3796 22.3834 14.9179 22.6273C14.4563 22.8711 13.9423 22.9991 13.4201 23.0001H8.42014C6.76253 23.0001 5.17282 22.3417 4.00072 21.1696C2.82862 19.9975 2.17014 18.4078 2.17014 16.7501V7.75015C2.16585 7.47452 2.226 7.20171 2.34579 6.95344C2.46559 6.70517 2.64171 6.48831 2.86014 6.32015Z" fill="#4E50D1"/>
</svg>
