<svg width="24" height="24" viewBox="0 0 24 24" fill="none" xmlns="http://www.w3.org/2000/svg">
<path fill-rule="evenodd" clip-rule="evenodd" d="M6.87752 0.024373C6.14657 0.0935594 5.31024 0.365458 4.67384 0.74084C3.96057 1.16157 3.2285 1.87831 2.80765 2.56791C2.33723 3.3388 2.07853 4.17046 2.01934 5.10211C2.00294 5.36014 1.99681 8.45844 2.00156 14.0949C2.00837 22.1773 2.01137 22.7024 2.05153 22.8354C2.11521 23.0463 2.24886 23.2961 2.38218 23.4533C2.84043 23.994 3.61625 24.1518 4.24505 23.8322C4.29838 23.8051 5.37437 23.1373 6.63615 22.3482L8.93026 20.9134L11.2112 22.3424C12.4657 23.1283 13.5712 23.8092 13.6679 23.8554C14.3558 24.1846 15.1886 23.9355 15.6169 23.2725C15.7393 23.083 15.8102 22.8718 15.8408 22.6059C15.8555 22.478 15.8646 20.1739 15.8647 16.586L15.8649 10.7733H18.2612C19.8947 10.7733 20.6989 10.7648 20.7878 10.7465C20.8594 10.7317 21.0121 10.675 21.1271 10.6204C21.2995 10.5384 21.3727 10.484 21.5455 10.3089C21.7717 10.0796 21.8774 9.90109 21.9564 9.61517C21.9967 9.46902 22 9.28602 22 7.20575C22 5.14911 21.9961 4.93003 21.9553 4.67154C21.7529 3.39177 21.2346 2.37747 20.3425 1.51532C19.4491 0.651971 18.3213 0.135288 17.0821 0.021642C16.7491 -0.00889153 7.2021 -0.00633271 6.87752 0.024373ZM7.19718 1.5631C6.24908 1.61364 5.40144 1.98573 4.71756 2.65151C4.09921 3.25352 3.71384 4.02345 3.59562 4.89298C3.57445 5.04885 3.56916 7.30907 3.57486 13.7666L3.58254 22.4311L6.07398 20.873C7.44428 20.016 8.61166 19.296 8.66817 19.2731C8.80164 19.2189 9.05837 19.2195 9.19531 19.2744C9.25293 19.2975 10.4203 20.0178 11.7895 20.8751L14.2789 22.4337L14.292 13.7679C14.3044 5.52464 14.3072 5.09311 14.3494 4.91758C14.5878 3.92649 15.3522 3.22761 16.3421 3.09581C16.7123 3.04653 16.9688 3.11571 17.1647 3.31771C17.4517 3.61357 17.4618 4.05231 17.1888 4.36262C17.0492 4.52134 16.8993 4.59082 16.6087 4.63144C16.4758 4.65004 16.3233 4.68771 16.2697 4.71519C16.1467 4.7783 15.9987 4.92548 15.9302 5.05291C15.8774 5.15108 15.8772 5.15654 15.8705 7.1873L15.8638 9.22328H18.1512H20.4386L20.4382 7.12579C20.4377 4.90405 20.4363 4.87337 20.3185 4.41183C20.0797 3.4768 19.4653 2.64984 18.6145 2.11834C18.3502 1.9532 17.8965 1.76018 17.5862 1.68086C17.1027 1.55727 17.3831 1.5636 12.1888 1.55927C9.52457 1.55705 7.27832 1.55877 7.19718 1.5631Z" fill="#4E50D1"/>
</svg>
