<svg width="24" height="24" viewBox="0 0 24 24" fill="none" xmlns="http://www.w3.org/2000/svg">
<path fill-rule="evenodd" clip-rule="evenodd" d="M11.3211 0.0366823C10.2652 0.151546 9.24988 0.55933 8.3554 1.22778C8.05276 1.45398 7.44904 2.0577 7.22284 2.36034C6.41227 3.44499 5.99647 4.67929 5.99647 6.0009C5.99647 7.32251 6.41227 8.5568 7.22284 9.64146C7.44904 9.9441 8.05276 10.5478 8.3554 10.774C9.43884 11.5837 10.6758 12.0004 11.996 12.0004C13.3186 12.0004 14.5527 11.5837 15.6432 10.769C15.9374 10.5492 16.5442 9.94232 16.764 9.64811C17.4155 8.77619 17.803 7.83666 17.9517 6.7689C17.9933 6.46943 17.9933 5.53237 17.9517 5.2329C17.8032 4.16689 17.4158 3.22568 16.7691 2.36034C16.5429 2.0577 15.9392 1.45398 15.6365 1.22778C14.372 0.282754 12.8699 -0.131822 11.3211 0.0366823ZM11.372 1.54806C10.6131 1.65925 9.90712 1.95215 9.29596 2.40939C9.04936 2.59391 8.58897 3.0543 8.40446 3.3009C7.80825 4.09782 7.50885 5.00041 7.50885 6.0009C7.50885 7.00139 7.80825 7.90398 8.40446 8.7009C8.58897 8.9475 9.04936 9.40789 9.29596 9.5924C10.0916 10.1877 10.9971 10.488 11.996 10.488C12.9949 10.488 13.9003 10.1877 14.696 9.5924C14.9426 9.40789 15.403 8.9475 15.5875 8.7009C16.1827 7.90525 16.4831 6.9998 16.4831 6.0009C16.4831 5.00199 16.1827 4.09655 15.5875 3.3009C15.403 3.0543 14.9426 2.59391 14.696 2.40939C14.0776 1.94677 13.3781 1.65822 12.608 1.54811C12.317 1.50649 11.6557 1.50647 11.372 1.54806ZM11.312 12.7714C9.49869 12.8851 7.71564 13.4873 6.19154 14.5008C4.01709 15.9468 2.46343 18.1335 1.81879 20.6553C1.64184 21.3474 1.54406 22.0168 1.51039 22.7662C1.48711 23.2838 1.49992 23.436 1.57996 23.5929C1.86026 24.1423 2.64278 24.1284 2.92543 23.5689C2.97312 23.4746 2.98255 23.4063 3.00016 23.0289C3.04644 22.0365 3.17685 21.2805 3.44145 20.4709C3.99415 18.7798 5.01333 17.3152 6.41596 16.1963C7.58952 15.2602 9.02498 14.623 10.508 14.3799C11.084 14.2854 11.3022 14.2692 11.996 14.2692C12.6886 14.2692 12.9047 14.2852 13.484 14.3795C14.9689 14.6213 16.4272 15.2737 17.612 16.2263C19.4494 17.7036 20.6192 19.7895 20.9221 22.1289C20.9422 22.2837 20.9733 22.729 21.0044 23.3049C21.0379 23.9247 21.8096 24.2295 22.2534 23.7981C22.3822 23.673 22.4571 23.5332 22.4829 23.37C22.5078 23.2127 22.4721 22.3975 22.4228 21.9969C22.1324 19.6362 21.094 17.5022 19.4223 15.8306C17.2737 13.6819 14.3543 12.5807 11.312 12.7714Z" fill="#4E50D1"/>
</svg>
