<svg width="24" height="24" viewBox="0 0 24 24" fill="none" xmlns="http://www.w3.org/2000/svg">
<path fill-rule="evenodd" clip-rule="evenodd" d="M11.15 0.0242569C9.14915 0.161931 7.20596 0.808108 5.50532 1.90125C3.96603 2.89067 2.608 4.29857 1.68016 5.86687C-0.407565 9.39564 -0.558936 13.7307 1.2779 17.3877C2.59575 20.0115 4.84978 22.079 7.56586 23.1551C9.43384 23.8953 11.4021 24.1509 13.4155 23.9149C16.0699 23.6038 18.556 22.3935 20.4636 20.4837C21.9299 19.0157 22.9607 17.2517 23.542 15.2156C23.7397 14.5232 23.9034 13.5701 23.9429 12.8814C23.9518 12.7263 23.9683 12.5994 23.9796 12.5994C23.9908 12.5994 24 12.3179 24 11.9739C24 11.6299 23.9907 11.3542 23.9794 11.3612C23.9681 11.3682 23.9515 11.2527 23.9425 11.1046C23.8991 10.3858 23.7452 9.50293 23.5315 8.74709C22.221 4.11095 18.2765 0.70106 13.5234 0.0952302C12.7947 0.00236729 11.87 -0.0252828 11.15 0.0242569ZM11.2459 1.52511C9.81907 1.6457 8.63668 1.96535 7.39202 2.56696C5.30245 3.57693 3.56528 5.32253 2.55008 7.43236C2.03397 8.50498 1.71605 9.60189 1.56731 10.8232C1.50659 11.322 1.5069 12.6811 1.56786 13.1754C1.70166 14.2605 1.94409 15.1731 2.35421 16.1357C3.33477 18.4372 5.18323 20.3737 7.42201 21.4449C8.54174 21.9807 9.54491 22.2719 10.8263 22.4332C11.3055 22.4935 12.6726 22.4935 13.1518 22.4332C14.4692 22.2674 15.4749 21.9706 16.628 21.4073C18.8466 20.3235 20.6466 18.4236 21.6234 16.1347C22.0331 15.1747 22.2767 14.2585 22.4102 13.1754C22.4713 12.6805 22.4715 11.3217 22.4107 10.8232C22.0847 8.15383 20.8857 5.86682 18.8816 4.09191C17.5401 2.90394 15.8243 2.05884 14.0317 1.70333C13.335 1.56515 12.9647 1.53015 12.1209 1.52274C11.699 1.51902 11.3052 1.5201 11.2459 1.52511ZM17.7508 6.11385C17.5973 6.16876 17.4907 6.24886 17.3536 6.41236C17.2953 6.48196 15.5025 8.75021 13.3698 11.4529C9.81871 15.9529 9.4844 16.3691 9.40109 16.3941C9.26108 16.4361 9.15447 16.3902 9.04217 16.2395C8.99142 16.1714 8.42966 15.3758 7.79385 14.4715C7.15804 13.5672 6.60244 12.7839 6.55917 12.7307C6.43345 12.5761 6.26139 12.4961 6.02827 12.4839C5.85795 12.4749 5.8159 12.4813 5.70323 12.5329C5.41602 12.6646 5.27347 12.8742 5.25695 13.1893C5.24863 13.3479 5.25575 13.4042 5.29543 13.4939C5.33496 13.5834 7.42715 16.5854 7.87354 17.1932C8.09913 17.5003 8.48277 17.7576 8.86556 17.8585C9.09971 17.9201 9.48363 17.9251 9.72093 17.8695C10.0425 17.7943 10.4289 17.5701 10.6288 17.3429C10.8544 17.0864 18.6051 7.24719 18.6534 7.15596C18.73 7.01113 18.7462 6.77762 18.6924 6.59256C18.584 6.2191 18.1183 5.98234 17.7508 6.11385ZM0.0125549 11.9993C0.0125549 12.3492 0.0159113 12.4923 0.0199868 12.3174C0.0240864 12.1424 0.0240864 11.8562 0.0199868 11.6813C0.0159113 11.5064 0.0125549 11.6495 0.0125549 11.9993Z" fill="#4E50D1"/>
</svg>
