<svg width="24" height="24" viewBox="0 0 24 24" fill="none" xmlns="http://www.w3.org/2000/svg">
<path d="M3.3002 15.85L6.4202 14.16C6.45898 14.1376 6.49132 14.1056 6.51409 14.0671C6.53687 14.0285 6.54931 13.9848 6.5502 13.94V8.25C6.5502 7.71957 6.33949 7.21086 5.96442 6.83579C5.58934 6.46071 5.08064 6.25 4.5502 6.25C4.01977 6.25 3.51106 6.46071 3.13599 6.83579C2.76092 7.21086 2.5502 7.71957 2.5502 8.25V15.86C2.54895 15.9052 2.56049 15.9498 2.58349 15.9887C2.60649 16.0277 2.64001 16.0593 2.6802 16.08C2.71744 16.1041 2.76085 16.1169 2.8052 16.1169C2.84956 16.1169 2.89297 16.1041 2.9302 16.08L3.3002 15.85Z" fill="#4E50D1"/>
<path d="M9.5502 7.75C9.5502 6.4 11.2202 4.75 12.0502 4.75C12.8802 4.75 14.5502 6.4 14.5502 7.75V12.3C14.549 12.3452 14.5605 12.3898 14.5835 12.4287C14.6065 12.4677 14.64 12.4993 14.6802 12.52L15.6802 13.07C15.7163 13.0921 15.7579 13.1038 15.8002 13.1038C15.8425 13.1038 15.8841 13.0921 15.9202 13.07C15.9596 13.051 15.9928 13.0211 16.0158 12.9839C16.0388 12.9467 16.0507 12.9037 16.0502 12.86V4.75C16.0502 2.54 13.5502 0.25 12.0502 0.25C10.5502 0.25 8.0502 2.54 8.0502 4.75V12.85C8.0475 12.8929 8.05743 12.9356 8.07875 12.973C8.10008 13.0103 8.13187 13.0405 8.1702 13.06C8.20821 13.0819 8.25132 13.0935 8.2952 13.0935C8.33909 13.0935 8.3822 13.0819 8.4202 13.06L9.4202 12.51C9.46039 12.4893 9.49392 12.4577 9.51692 12.4187C9.53992 12.3798 9.55145 12.3352 9.5502 12.29V7.75Z" fill="#4E50D1"/>
<path d="M20.7902 15.85L21.1602 16.07C21.199 16.095 21.2441 16.1083 21.2902 16.1083C21.3363 16.1083 21.3814 16.095 21.4202 16.07C21.4604 16.0493 21.4939 16.0177 21.5169 15.9787C21.5399 15.9398 21.5515 15.8952 21.5502 15.85V8.25C21.5502 7.71957 21.3395 7.21086 20.9644 6.83579C20.5893 6.46071 20.0806 6.25 19.5502 6.25C19.0198 6.25 18.5111 6.46071 18.136 6.83579C17.7609 7.21086 17.5502 7.71957 17.5502 8.25V13.94C17.5511 13.9848 17.5635 14.0285 17.5863 14.0671C17.6091 14.1056 17.6414 14.1376 17.6802 14.16L20.7902 15.85Z" fill="#4E50D1"/>
<path d="M6.0002 19.92C5.98204 19.8707 5.94939 19.8281 5.90655 19.7978C5.86371 19.7675 5.81269 19.7508 5.7602 19.75H3.0902C3.03771 19.7508 2.98669 19.7675 2.94385 19.7978C2.90102 19.8281 2.86837 19.8707 2.8502 19.92L2.0702 22.28C2.04777 22.3337 2.0395 22.3923 2.0462 22.4501C2.05291 22.508 2.07434 22.5631 2.10847 22.6103C2.14259 22.6575 2.18826 22.6951 2.24109 22.7195C2.29393 22.744 2.35215 22.7545 2.4102 22.75H6.4102C6.46911 22.7576 6.52899 22.7492 6.58353 22.7257C6.63806 22.7021 6.68523 22.6643 6.72005 22.6162C6.75486 22.568 6.77604 22.5114 6.78135 22.4522C6.78666 22.3931 6.7759 22.3336 6.7502 22.28L6.0002 19.92Z" fill="#4E50D1"/>
<path d="M21.0002 19.92C20.982 19.8707 20.9494 19.8281 20.9065 19.7978C20.8637 19.7675 20.8127 19.7508 20.7602 19.75H18.0902C18.0377 19.7508 17.9867 19.7675 17.9439 19.7978C17.901 19.8281 17.8684 19.8707 17.8502 19.92L17.0702 22.28C17.0478 22.3337 17.0395 22.3923 17.0462 22.4501C17.0529 22.508 17.0743 22.5631 17.1085 22.6103C17.1426 22.6575 17.1883 22.6951 17.2411 22.7195C17.2939 22.744 17.3522 22.7545 17.4102 22.75H21.4102C21.4691 22.7576 21.529 22.7492 21.5835 22.7257C21.6381 22.7021 21.6852 22.6643 21.72 22.6162C21.7549 22.568 21.776 22.5114 21.7814 22.4522C21.7867 22.3931 21.7759 22.3336 21.7502 22.28L21.0002 19.92Z" fill="#4E50D1"/>
<path d="M10.1602 20.25C10.1065 20.2515 10.0546 20.2697 10.0116 20.3019C9.96865 20.3341 9.93671 20.3789 9.9202 20.43L9.0602 23.27C9.03797 23.3251 9.03014 23.385 9.03745 23.444C9.04476 23.503 9.06697 23.5591 9.10199 23.6071C9.13701 23.6552 9.18368 23.6935 9.2376 23.7185C9.29152 23.7435 9.35092 23.7543 9.4102 23.75H14.4102C14.4703 23.7562 14.5309 23.7467 14.5863 23.7225C14.6416 23.6983 14.6897 23.6602 14.726 23.6118C14.7622 23.5635 14.7853 23.5066 14.7931 23.4467C14.8008 23.3868 14.793 23.326 14.7702 23.27L13.9102 20.43C13.8951 20.3781 13.8635 20.3325 13.8202 20.3C13.7769 20.2675 13.7243 20.25 13.6702 20.25H10.1602Z" fill="#4E50D1"/>
<path d="M9.3002 18.75C9.36651 18.75 9.43009 18.7237 9.47698 18.6768C9.52386 18.6299 9.5502 18.5663 9.5502 18.5V14C9.55075 13.9563 9.53881 13.9133 9.51578 13.8761C9.49275 13.8389 9.4596 13.809 9.4202 13.79C9.38407 13.7679 9.34255 13.7562 9.3002 13.7562C9.25785 13.7562 9.21633 13.7679 9.1802 13.79L3.7802 16.73C3.03689 17.0605 2.45452 17.6716 2.1602 18.43C2.14182 18.4638 2.13219 18.5016 2.13219 18.54C2.13219 18.5784 2.14182 18.6162 2.1602 18.65C2.18349 18.681 2.21368 18.7062 2.2484 18.7236C2.28311 18.741 2.32139 18.75 2.3602 18.75H9.3002Z" fill="#4E50D1"/>
<path d="M20.3002 16.72L14.9202 13.79C14.8822 13.7681 14.8391 13.7565 14.7952 13.7565C14.7513 13.7565 14.7082 13.7681 14.6702 13.79C14.6319 13.8095 14.6001 13.8397 14.5788 13.877C14.5574 13.9144 14.5475 13.9571 14.5502 14V18.5C14.5502 18.5663 14.5765 18.6299 14.6234 18.6768C14.6703 18.7237 14.7339 18.75 14.8002 18.75H21.7402C21.7737 18.7496 21.8065 18.7413 21.8361 18.7256C21.8657 18.71 21.8911 18.6875 21.9102 18.66C21.9352 18.5991 21.9352 18.5309 21.9102 18.47C21.6237 17.6982 21.0455 17.0697 20.3002 16.72Z" fill="#4E50D1"/>
<path d="M13.5502 7.75C13.4511 7.32742 13.2634 6.93066 12.9997 6.58591C12.736 6.24116 12.4021 5.95626 12.0202 5.75C11.6536 5.96778 11.3345 6.25707 11.082 6.60065C10.8295 6.94424 10.6486 7.3351 10.5502 7.75V19C10.5502 19.0663 10.5765 19.1299 10.6234 19.1768C10.6703 19.2237 10.7339 19.25 10.8002 19.25H13.3002C13.3665 19.25 13.4301 19.2237 13.477 19.1768C13.5239 19.1299 13.5502 19.0663 13.5502 19V7.75Z" fill="#4E50D1"/>
</svg>
