<svg width="24" height="24" viewBox="0 0 24 24" fill="none" xmlns="http://www.w3.org/2000/svg">
<path fill-rule="evenodd" clip-rule="evenodd" d="M11.0439 1.01448C10.9933 1.0269 10.8962 1.07359 10.828 1.11819C10.7599 1.16281 8.32318 3.53155 5.41311 6.38205C1.55926 10.157 0.107325 11.5935 0.0678564 11.6704C-0.0133837 11.8287 -0.0228553 12.0861 0.0458199 12.269C0.0974222 12.4064 0.229258 12.5375 5.44939 17.6458C9.77732 21.881 10.823 22.8926 10.92 22.9385C11.0995 23.0233 11.3734 23.0201 11.5593 22.9309C11.7084 22.8593 11.8354 22.7359 11.9199 22.5807C11.9998 22.4337 11.9991 22.1035 11.9187 21.9517C11.8791 21.8772 10.4985 20.51 7.225 17.3039C4.67428 14.8057 2.58733 12.7539 2.58733 12.7443C2.58733 12.7347 7.28386 12.7242 13.0241 12.7209L23.4609 12.715L23.558 12.664C23.6941 12.5927 23.8443 12.4388 23.9047 12.3088C23.9328 12.2481 23.9659 12.1802 23.9781 12.1578C24.0071 12.1046 24.0074 11.8042 23.9783 11.8218C23.9662 11.8291 23.9494 11.8043 23.941 11.7667C23.9096 11.6269 23.7258 11.4232 23.5448 11.3275C23.4629 11.2842 23.2076 11.2829 13.0063 11.2771L2.55175 11.2711L7.2072 6.71155C10.4934 3.493 11.8791 2.1209 11.9187 2.04634C11.9991 1.89459 11.9998 1.56432 11.9199 1.41738C11.7832 1.16614 11.5624 1.02049 11.2905 1.00225C11.2054 0.996547 11.0944 1.00206 11.0439 1.01448ZM0.00567943 11.999C0.00567943 12.0959 0.00992368 12.1355 0.0150791 12.087C0.0202585 12.0386 0.0202585 11.9594 0.0150791 11.911C0.00992368 11.8626 0.00567943 11.9022 0.00567943 11.999Z" fill="#4E50D1"/>
</svg>
