<svg width="24" height="24" viewBox="0 0 24 24" fill="none" xmlns="http://www.w3.org/2000/svg">
<path fill-rule="evenodd" clip-rule="evenodd" d="M11.5082 0.0396462C10.7027 0.220499 10.028 0.813043 9.7493 1.58433C9.72415 1.65393 9.47152 2.46173 9.18791 3.37943C8.90431 4.29714 8.49865 5.60438 8.28647 6.28441C7.31742 9.38996 6.35781 12.4728 6.18279 13.0427C6.07735 13.386 5.93326 13.8523 5.86261 14.0788L5.73415 14.4907L5.08402 14.5013C4.5009 14.5107 4.41601 14.5172 4.26043 14.5645C3.72884 14.7262 3.3006 15.0898 3.05562 15.5875C3.02312 15.6536 2.56197 17.0137 2.03087 18.61C0.957016 21.8376 0.969217 21.7943 1.01558 22.2218C1.10526 23.0487 1.6487 23.7073 2.43949 23.9476C2.5733 23.9883 3.04185 23.9907 11.907 23.9978C18.9939 24.0035 21.2732 23.9985 21.398 23.977C22.2304 23.8334 22.8501 23.1772 22.9837 22.2978C23.0134 22.1023 23.0014 21.8004 22.9564 21.6121C22.9015 21.3824 21.0044 15.7059 20.939 15.5755C20.6917 15.083 20.2669 14.7244 19.7413 14.5645C19.5858 14.5172 19.5009 14.5107 18.9178 14.5013L18.2676 14.4907L18.1392 14.0788C18.0685 13.8523 17.9244 13.386 17.819 13.0427C17.647 12.483 16.784 9.71054 15.7152 6.28441C15.5031 5.60438 15.0975 4.29714 14.8139 3.37943C14.5303 2.46173 14.2776 1.65393 14.2525 1.58433C13.9863 0.847758 13.359 0.272765 12.5916 0.0619978C12.3286 -0.0102426 11.7806 -0.0215264 11.5082 0.0396462ZM11.7545 1.528C11.5367 1.58661 11.2735 1.80825 11.1744 2.01659C11.1414 2.08612 11.0075 2.49073 10.877 2.91567C10.7465 3.34064 10.6336 3.70455 10.6262 3.72436C10.5983 3.79888 11.2432 3.94763 11.7135 3.9751C12.2398 4.00585 12.7731 3.94807 13.2201 3.81184C13.3545 3.77089 13.3861 3.75254 13.3747 3.72203C13.3668 3.70095 13.2539 3.33706 13.1238 2.91337C12.9937 2.48967 12.8602 2.08612 12.8272 2.01659C12.7509 1.85579 12.5558 1.66643 12.3822 1.58466C12.2732 1.53331 12.2067 1.51994 12.0361 1.51509C11.9199 1.51177 11.7932 1.51758 11.7545 1.528ZM10.1592 5.23406C10.075 5.48629 9.37144 7.77882 9.377 7.78312C9.43149 7.82528 9.69487 7.95924 9.89156 8.04483C11.2569 8.63898 12.7449 8.63898 14.1102 8.04483C14.3068 7.95929 14.57 7.82542 14.6247 7.78317C14.6351 7.77515 13.8505 5.24522 13.8299 5.22035C13.821 5.2095 13.7252 5.22801 13.617 5.26145C13.4034 5.32755 13.0829 5.39974 12.7869 5.4484C12.5348 5.48984 11.4669 5.48984 11.2149 5.4484C10.9212 5.40012 10.5989 5.32772 10.3902 5.26318C10.1681 5.19445 10.1723 5.19497 10.1592 5.23406ZM8.85952 9.42347C8.8327 9.51259 8.60606 10.2424 8.35587 11.0453L7.90101 12.505L8.0328 12.5728C8.93406 13.0363 9.95275 13.3386 10.9908 13.4507C11.4414 13.4994 12.5603 13.4994 13.011 13.4507C14.049 13.3386 15.0677 13.0363 15.969 12.5728L16.1008 12.505L15.5981 10.8899C15.3216 10.0015 15.0909 9.27008 15.0854 9.26444C15.0799 9.25878 14.9722 9.30302 14.8462 9.36278C14.211 9.66384 13.4626 9.87377 12.7165 9.9601C12.3847 9.99851 11.6171 9.99851 11.2852 9.9601C10.5424 9.87415 9.78379 9.66182 9.16424 9.3665C9.04298 9.30871 8.93577 9.26142 8.92601 9.26142C8.91625 9.26142 8.88633 9.33435 8.85952 9.42347ZM7.44147 13.985C7.43584 13.9949 7.3392 14.3001 7.22671 14.6632C7.11423 15.0264 6.90162 15.7045 6.75425 16.1702C6.57011 16.7522 6.49087 17.0356 6.50087 17.0764C6.50887 17.109 6.57499 17.1946 6.64782 17.2665C7.50848 18.1166 8.93373 18.7014 10.6283 18.8997C11.591 19.0124 12.7737 18.9937 13.7489 18.8503C15.2374 18.6316 16.5342 18.0648 17.3416 17.2801C17.4206 17.2033 17.4919 17.1129 17.5002 17.0791C17.5109 17.0355 17.4311 16.7517 17.2243 16.0986C17.0643 15.593 16.8517 14.9147 16.752 14.5912C16.6523 14.2677 16.5633 13.9947 16.5543 13.9846C16.5452 13.9744 16.4277 14.0188 16.2931 14.0832C15.555 14.4364 14.6472 14.7206 13.7958 14.865C13.1718 14.9709 12.931 14.9873 12.0009 14.9873C11.0708 14.9873 10.83 14.9709 10.2059 14.865C9.355 14.7207 8.44672 14.4364 7.70966 14.0837C7.43908 13.9542 7.45557 13.9602 7.44147 13.985ZM4.56857 16.0583C4.5136 16.0862 4.44792 16.1387 4.42261 16.1751C4.39729 16.2115 4.23304 16.6722 4.05763 17.1988C2.76136 21.0907 2.49099 21.9124 2.48043 21.9919C2.45833 22.1584 2.57365 22.3697 2.73255 22.4537C2.79353 22.486 3.82992 22.4894 12.031 22.484L21.2609 22.4779L21.3499 22.4084C21.4672 22.3168 21.5359 22.1581 21.5214 22.0121C21.5074 21.8719 19.6416 16.2648 19.5789 16.1748C19.4901 16.0471 19.3641 16.0077 19.0443 16.0077C18.887 16.0077 18.7584 16.015 18.7584 16.024C18.7584 16.0329 18.7944 16.1599 18.8385 16.3061C18.9614 16.7141 18.9771 16.8138 18.9639 17.1033C18.938 17.6719 18.7366 18.0413 18.1813 18.5385C17.1529 19.4592 15.6392 20.0987 13.8897 20.3514C13.218 20.4484 12.9962 20.4612 11.9892 20.4609C10.9603 20.4605 10.6767 20.4421 9.95942 20.3288C8.42619 20.0867 7.05017 19.524 6.04861 18.7297C5.74865 18.4919 5.36448 18.0898 5.25983 17.9043C5.1214 17.6589 5.05169 17.4074 5.03784 17.1033C5.02466 16.8138 5.04035 16.7141 5.1633 16.3061C5.20734 16.1599 5.24338 16.0329 5.24338 16.024C5.24338 16.015 5.11405 16.0077 4.95596 16.0077C4.71086 16.0077 4.65382 16.0152 4.56857 16.0583Z" fill="#4E50D1"/>
</svg>
