<svg width="24" height="24" viewBox="0 0 24 24" fill="none" xmlns="http://www.w3.org/2000/svg">
<g clip-path="url(#clip0_8366_23470)">
<path d="M22.6799 11.59C22.0963 11.0261 21.3165 10.7108 20.5049 10.7108C19.6934 10.7108 18.9136 11.0261 18.3299 11.59C18.1893 11.7305 17.9987 11.8093 17.7999 11.8093C17.6012 11.8093 17.4106 11.7305 17.2699 11.59C17.1992 11.5211 17.143 11.4386 17.1046 11.3476C17.0662 11.2566 17.0464 11.1588 17.0464 11.06C17.0464 10.9612 17.0662 10.8634 17.1046 10.7724C17.143 10.6814 17.1992 10.5989 17.2699 10.53C17.6944 10.1046 18.1987 9.76706 18.7538 9.53678C19.3089 9.30649 19.904 9.18795 20.5049 9.18795C21.1059 9.18795 21.701 9.30649 22.2561 9.53678C22.8112 9.76706 23.3155 10.1046 23.7399 10.53C23.8136 10.5987 23.8727 10.6815 23.9137 10.7735C23.9547 10.8655 23.9768 10.9648 23.9785 11.0655C23.9803 11.1662 23.9618 11.2662 23.9241 11.3596C23.8863 11.453 23.8302 11.5378 23.759 11.609C23.6878 11.6803 23.6029 11.7364 23.5095 11.7741C23.4162 11.8118 23.3161 11.8304 23.2154 11.8286C23.1147 11.8268 23.0154 11.8048 22.9234 11.7638C22.8314 11.7228 22.7486 11.6637 22.6799 11.59Z" fill="#4E50D1"/>
<path d="M20.7599 15.37C21.2073 15.37 21.5699 15.0074 21.5699 14.56C21.5699 14.1126 21.2073 13.75 20.7599 13.75C20.3126 13.75 19.9499 14.1126 19.9499 14.56C19.9499 15.0074 20.3126 15.37 20.7599 15.37Z" fill="#4E50D1"/>
<path d="M12.4099 6.73C12.2695 6.58937 12.1906 6.39875 12.1906 6.2C12.1906 6.00125 12.2695 5.81063 12.4099 5.67C12.9858 5.09262 13.3092 4.31045 13.3092 3.495C13.3092 2.67955 12.9858 1.89738 12.4099 1.32C12.2775 1.17783 12.2053 0.989779 12.2088 0.795477C12.2122 0.601176 12.2909 0.415791 12.4283 0.278378C12.5657 0.140965 12.7511 0.0622532 12.9454 0.058825C13.1397 0.0553968 13.3278 0.12752 13.4699 0.26C13.8954 0.684493 14.2329 1.18873 14.4632 1.74383C14.6935 2.29894 14.812 2.89402 14.812 3.495C14.812 4.09598 14.6935 4.69106 14.4632 5.24617C14.2329 5.80127 13.8954 6.30551 13.4699 6.73C13.401 6.80076 13.3186 6.85699 13.2276 6.89539C13.1365 6.93379 13.0387 6.95357 12.9399 6.95357C12.8412 6.95357 12.7434 6.93379 12.6523 6.89539C12.5613 6.85699 12.4789 6.80076 12.4099 6.73Z" fill="#4E50D1"/>
<path d="M9.43995 4.05C9.8873 4.05 10.2499 3.68735 10.2499 3.24C10.2499 2.79265 9.8873 2.43 9.43995 2.43C8.9926 2.43 8.62995 2.79265 8.62995 3.24C8.62995 3.68735 8.9926 4.05 9.43995 4.05Z" fill="#4E50D1"/>
<path d="M23.1899 1.62C23.6373 1.62 23.9999 1.25735 23.9999 0.81C23.9999 0.362649 23.6373 0 23.1899 0C22.7426 0 22.3799 0.362649 22.3799 0.81C22.3799 1.25735 22.7426 1.62 23.1899 1.62Z" fill="#4E50D1"/>
<path d="M22.9199 7.28C23.3673 7.28 23.7299 6.91735 23.7299 6.47C23.7299 6.02265 23.3673 5.66 22.9199 5.66C22.4726 5.66 22.1099 6.02265 22.1099 6.47C22.1099 6.91735 22.4726 7.28 22.9199 7.28Z" fill="#4E50D1"/>
<path d="M15.6499 8.35C15.5095 8.20938 15.4306 8.01875 15.4306 7.82C15.4306 7.62125 15.5095 7.43063 15.6499 7.29L20.7699 2.17C20.9121 2.03752 21.1002 1.9654 21.2945 1.96882C21.4888 1.97225 21.6742 2.05097 21.8116 2.18838C21.949 2.32579 22.0277 2.51118 22.0311 2.70548C22.0346 2.89978 21.9624 3.08783 21.8299 3.23L16.7099 8.35C16.5693 8.49045 16.3787 8.56934 16.1799 8.56934C15.9812 8.56934 15.7906 8.49045 15.6499 8.35Z" fill="#4E50D1"/>
<path d="M13.9999 10C11.7899 7.76 8.68995 6.36 7.08995 8C6.94179 8.13681 6.8198 8.29946 6.72995 8.48C6.68995 8.51 0.279949 20.52 0.279949 20.52C0.0420298 20.968 -0.0465098 21.4804 0.0272454 21.9823C0.101001 22.4842 0.333192 22.9494 0.689949 23.31C1.04901 23.6659 1.51247 23.8977 2.01263 23.9715C2.51279 24.0452 3.02343 23.9571 3.46995 23.72L15.4699 17.31C15.6843 17.2153 15.878 17.0794 16.0399 16.91C17.6399 15.3 16.2399 12.21 13.9999 10ZM14.4899 15.4C14.1399 15.76 12.1199 14.88 10.6199 13.4C9.11995 11.92 8.24995 9.88 8.61995 9.53C8.76995 9.38 10.3899 9.45 12.4999 11.53C14.3899 13.41 14.7399 15.16 14.5099 15.38L14.4899 15.4Z" fill="#4E50D1"/>
</g>
<defs>
<clipPath id="clip0_8366_23470">
<rect width="24" height="24" fill="white"/>
</clipPath>
</defs>
</svg>
