<svg width="24" height="24" viewBox="0 0 24 24" fill="none" xmlns="http://www.w3.org/2000/svg">
<g clip-path="url(#clip0_8366_23485)">
<path fill-rule="evenodd" clip-rule="evenodd" d="M3.58599 0.0066179C2.97257 0.0928367 2.6379 0.190684 2.17416 0.419408C1.42059 0.791063 0.802319 1.39597 0.433076 2.12288C0.164937 2.65074 0.0601875 3.04952 0.0195596 3.69683C0.00195959 3.97774 -0.00409908 6.4449 0.00275449 10.5588C0.0142137 17.4463 0.00626361 17.0465 0.143472 17.6179C0.358976 18.5152 0.85553 19.344 1.58867 20.0299C2.12876 20.5352 2.70893 20.877 3.42902 21.114C3.66909 21.193 13.7994 23.8644 14.1326 23.9366C14.7542 24.0712 15.5396 23.9876 16.1302 23.7239C17.0182 23.3275 17.6561 22.5901 17.918 21.6573L17.9886 21.4057L17.9988 19.7961L18.009 18.1865L19.0286 18.1882C19.9274 18.1896 20.0857 18.1836 20.3641 18.1371C21.2417 17.9907 21.9873 17.6258 22.6527 17.0172C23.356 16.374 23.7963 15.5453 23.9588 14.5585C24.0139 14.2242 24.0136 3.90413 23.9586 3.55271C23.6832 1.79578 22.3926 0.467749 20.5691 0.0649447L20.295 0.00439296L11.9748 0.000684585C7.39863 -0.001355 3.62369 0.00132028 3.58599 0.0066179ZM4.3673 1.67322C4.38238 1.679 6.65541 2.30422 9.41849 3.0626C12.1815 3.82098 14.544 4.47765 14.6683 4.52189C15.6667 4.87704 16.5482 5.56165 17.155 6.45316C17.4784 6.92822 17.6989 7.4088 17.8416 7.94974L17.9185 8.24111L20.1017 8.24789L22.2849 8.25467L22.2756 6.00964C22.2665 3.80536 22.2653 3.7607 22.2069 3.54853C21.9601 2.65122 21.3157 2.00689 20.3909 1.73295L20.1853 1.67206L12.2626 1.6674C7.90511 1.66483 4.35222 1.66745 4.3673 1.67322ZM1.91638 2.96788C1.71927 3.42536 1.73553 2.77555 1.73553 10.2012V16.8762L1.79384 17.1279C1.9436 17.7741 2.2382 18.2974 2.71595 18.7661C3.0842 19.1273 3.52692 19.3947 4.01091 19.5481C4.44162 19.6847 14.4324 22.2962 14.6371 22.3257C15.2162 22.4091 15.8536 22.0796 16.1214 21.5583C16.1756 21.4529 16.2334 21.3039 16.2499 21.2272C16.2711 21.1282 16.2773 19.2944 16.2712 14.8896C16.2618 8.10128 16.2746 8.64147 16.1109 8.1484C15.8103 7.24319 15.0074 6.42484 14.0939 6.09263C13.9246 6.03104 2.08336 2.77131 2.02903 2.77131C2.01365 2.77131 1.96296 2.85976 1.91638 2.96788ZM18.0059 13.2341V16.5451L18.8489 16.545C19.3125 16.545 19.8029 16.5319 19.9386 16.5159C20.9598 16.3955 21.8049 15.7275 22.1428 14.7735C22.274 14.4034 22.2822 14.2406 22.2824 12.009L22.2825 9.9231H20.1442H18.0059V13.2341ZM11.9988 12.4727C11.64 12.5937 11.3161 12.9129 11.2075 13.2527C11.1336 13.4837 11.1336 13.8056 11.2075 14.0367C11.307 14.3479 11.594 14.6501 11.9336 14.8012C12.0542 14.8548 12.1137 14.8622 12.4277 14.8627C12.7791 14.8631 12.7876 14.8617 12.976 14.7724C13.2278 14.653 13.4828 14.4089 13.5917 14.183C13.8942 13.5555 13.624 12.8242 12.976 12.5169C12.7981 12.4326 12.7633 12.4257 12.4825 12.4189C12.2249 12.4126 12.1536 12.4206 11.9988 12.4727Z" fill="#4E50D1"/>
</g>
<defs>
<clipPath id="clip0_8366_23485">
<rect width="24" height="24" fill="white"/>
</clipPath>
</defs>
</svg>
