<svg width="24" height="24" viewBox="0 0 24 24" fill="none" xmlns="http://www.w3.org/2000/svg">
<path d="M12.0002 6.26087C12.4153 6.26087 12.8134 6.09596 13.107 5.80243C13.4005 5.50889 13.5654 5.11077 13.5654 4.69565V1.56522C13.5654 1.1501 13.4005 0.751977 13.107 0.458442C12.8134 0.164906 12.4153 0 12.0002 0C11.5851 0 11.187 0.164906 10.8934 0.458442C10.5999 0.751977 10.435 1.1501 10.435 1.56522V4.69565C10.435 5.11077 10.5999 5.50889 10.8934 5.80243C11.187 6.09596 11.5851 6.26087 12.0002 6.26087Z" fill="#4E50D1"/>
<path d="M8.1076 5.8538L5.89542 3.65206C5.59662 3.35702 5.19361 3.19158 4.77369 3.19158C4.35376 3.19158 3.95075 3.35702 3.65195 3.65206C3.50563 3.79657 3.38964 3.96885 3.3108 4.15879C3.23196 4.34872 3.19185 4.5525 3.19282 4.75815C3.19814 5.16905 3.36275 5.56185 3.65195 5.8538L5.89542 8.06597C6.18868 8.35959 6.58653 8.52474 7.00151 8.5251C7.31088 8.52483 7.61323 8.43288 7.87038 8.26088C8.12752 8.08887 8.32793 7.84452 8.44628 7.55868C8.56464 7.27285 8.59563 6.95835 8.53535 6.65491C8.47507 6.35146 8.32622 6.07269 8.1076 5.8538Z" fill="#4E50D1"/>
<path d="M0 12.0002C0 12.4153 0.164906 12.8134 0.458442 13.107C0.751977 13.4005 1.1501 13.5654 1.56522 13.5654H4.69565C5.11077 13.5654 5.50889 13.4005 5.80243 13.107C6.09596 12.8134 6.26087 12.4153 6.26087 12.0002C6.26087 11.5851 6.09596 11.187 5.80243 10.8934C5.50889 10.5999 5.11077 10.435 4.69565 10.435H1.56522C1.1501 10.435 0.751977 10.5999 0.458442 10.8934C0.164906 11.187 0 11.5851 0 12.0002Z" fill="#4E50D1"/>
<path d="M6.78255 15.673C6.56686 15.6717 6.35328 15.7156 6.15559 15.8019C5.95789 15.8881 5.78046 16.0148 5.63472 16.1739L3.41212 18.3443C3.12153 18.6391 2.95863 19.0364 2.95863 19.4504C2.95863 19.8643 3.12153 20.2617 3.41212 20.5565C3.70737 20.8502 4.10693 21.0151 4.52342 21.0151C4.93991 21.0151 5.33947 20.8502 5.63472 20.5565L7.82603 18.3443C8.04131 18.1292 8.18924 17.8561 8.2517 17.5583C8.31417 17.2605 8.28847 16.9509 8.17776 16.6674C8.06704 16.384 7.8761 16.139 7.6283 15.9624C7.38051 15.7857 7.0866 15.6852 6.78255 15.673Z" fill="#4E50D1"/>
<path d="M10.435 22.4346C10.435 22.8497 10.5999 23.2478 10.8934 23.5414C11.187 23.8349 11.5851 23.9998 12.0002 23.9998C12.4153 23.9998 12.8134 23.8349 13.107 23.5414C13.4005 23.2478 13.5654 22.8497 13.5654 22.4346V19.3041C13.5654 18.889 13.4005 18.4909 13.107 18.1974C12.8134 17.9038 12.4153 17.7389 12.0002 17.7389C11.5851 17.7389 11.187 17.9038 10.8934 18.1974C10.5999 18.4909 10.435 18.889 10.435 19.3041V22.4346Z" fill="#4E50D1"/>
<path d="M16.2261 16.1741C15.933 16.4676 15.7683 16.8654 15.7683 17.2802C15.7683 17.695 15.933 18.0928 16.2261 18.3863L18.4383 20.5985C18.7328 20.8902 19.1298 21.055 19.5444 21.0576C19.9621 21.0555 20.3625 20.8908 20.6609 20.5985C20.9497 20.3029 21.1109 19.9057 21.1096 19.4924C21.1119 19.285 21.0725 19.0792 20.9936 18.8874C20.9147 18.6956 20.798 18.5216 20.6504 18.3759L18.4383 16.1741C18.1448 15.881 17.747 15.7164 17.3322 15.7164C16.9174 15.7164 16.5196 15.881 16.2261 16.1741Z" fill="#4E50D1"/>
<path d="M23.9998 12.0002C23.9998 11.5851 23.8349 11.187 23.5414 10.8934C23.2478 10.5999 22.8497 10.435 22.4346 10.435H19.3041C18.889 10.435 18.4909 10.5999 18.1974 10.8934C17.9038 11.187 17.7389 11.5851 17.7389 12.0002C17.7389 12.4153 17.9038 12.8134 18.1974 13.107C18.4909 13.4005 18.889 13.5654 19.3041 13.5654H22.4346C22.8497 13.5654 23.2478 13.4005 23.5414 13.107C23.8349 12.8134 23.9998 12.4153 23.9998 12.0002Z" fill="#4E50D1"/>
<path d="M19.3045 3.03678C18.9118 3.05521 18.5399 3.21883 18.261 3.49591L16.028 5.73939C15.7349 6.03287 15.5702 6.43069 15.5702 6.84547C15.5702 7.26026 15.7349 7.65808 16.028 7.95156C16.3233 8.24531 16.7228 8.41022 17.1393 8.41022C17.5558 8.41022 17.9553 8.24531 18.2506 7.95156L20.4628 5.73939C20.6964 5.51944 20.8569 5.233 20.9223 4.91885C20.9877 4.60471 20.955 4.27804 20.8286 3.98309C20.7022 3.68815 20.4882 3.43918 20.2156 3.26991C19.943 3.10065 19.6249 3.01926 19.3045 3.03678Z" fill="#4E50D1"/>
</svg>
