<svg width="24" height="24" viewBox="0 0 24 24" fill="none" xmlns="http://www.w3.org/2000/svg">
<g clip-path="url(#clip0_8366_23238)">
<path d="M22.4623 21.0515L21.5056 20.0948C21.2528 19.8407 20.9522 19.6391 20.6211 19.5018C20.29 19.3645 19.935 19.2942 19.5765 19.2949H4.39458C3.6716 19.2986 2.97894 19.5858 2.46547 20.0948L1.50875 21.0515C1.26609 21.2928 1.10067 21.6008 1.03353 21.9364C0.96639 22.272 1.00056 22.6199 1.13171 22.936C1.26285 23.2521 1.48504 23.522 1.77001 23.7115C2.05499 23.901 2.38988 24.0014 2.73209 24.0001H21.239C21.5812 24.0014 21.9161 23.901 22.2011 23.7115C22.486 23.522 22.7082 23.2521 22.8394 22.936C22.9705 22.6199 23.0047 22.272 22.9376 21.9364C22.8704 21.6008 22.705 21.2928 22.4623 21.0515Z" fill="#4E50D1"/>
<path d="M23.4127 4.26908C23.4127 6.62682 21.5013 8.53815 19.1436 8.53815C16.7858 8.53815 14.8745 6.62682 14.8745 4.26908C14.8745 1.91133 16.7858 0 19.1436 0C21.5013 0 23.4127 1.91133 23.4127 4.26908Z" fill="#4E50D1"/>
<path d="M13.5249 2.04224C13.5066 2.08276 13.4889 2.12353 13.4715 2.16453C13.1679 2.88236 13 3.67157 13 4.5C13 7.81371 15.6863 10.5 19 10.5C19.8517 10.5 20.6619 10.3225 21.3958 10.0026L21.3958 14.9814C21.3958 15.5013 21.1892 16 20.8216 16.3677C20.4539 16.7353 19.9553 16.9419 19.4353 16.9419H4.53567C4.01572 16.9419 3.51707 16.7353 3.14941 16.3677C2.78174 16 2.5752 15.5013 2.5752 14.9814V4.00271C2.5752 3.48276 2.78174 2.98411 3.14941 2.61645C3.51707 2.24879 4.01572 2.04224 4.53567 2.04224H13.5249Z" fill="#4E50D1"/>
</g>
<defs>
<clipPath id="clip0_8366_23238">
<rect width="24" height="24" fill="white"/>
</clipPath>
</defs>
</svg>
