<svg width="24" height="24" viewBox="0 0 24 24" fill="none" xmlns="http://www.w3.org/2000/svg">
<g clip-path="url(#clip0_8366_23404)">
<path fill-rule="evenodd" clip-rule="evenodd" d="M11.1255 0.0244581C7.01747 0.313857 3.33429 2.72102 1.38908 6.38777C0.155984 8.71217 -0.274412 11.4123 0.17128 14.0277C0.440183 15.6056 1.05013 17.1726 1.91377 18.5041C3.5905 21.0893 6.15869 22.9241 9.11861 23.6515C11.0092 24.1162 12.9594 24.1162 14.8576 23.6515C16.9727 23.1338 18.9087 22.0396 20.463 20.4836C21.9306 19.0142 22.9606 17.252 23.542 15.2158C23.7398 14.523 23.9034 13.5703 23.943 12.8807C23.9519 12.7252 23.9684 12.5922 23.9796 12.5853C23.9908 12.5784 24 12.2972 24 11.9606C24 11.624 23.9907 11.3543 23.9794 11.3613C23.9681 11.3683 23.9515 11.2528 23.9425 11.1047C23.8171 9.02711 23.0043 6.77104 21.755 5.03292C19.7701 2.27126 16.7856 0.492507 13.4511 0.0837683C12.7752 0.000935601 11.8092 -0.023715 11.1255 0.0244581ZM11.2454 1.52457C11.1992 1.52968 11.0428 1.54528 10.8977 1.55925C8.98905 1.74287 7.04507 2.53111 5.51537 3.74163C4.24255 4.74888 3.24148 5.9929 2.55529 7.42005C2.02322 8.52673 1.71922 9.57305 1.56657 10.8233C1.5057 11.3218 1.50594 12.6806 1.567 13.1756C1.70078 14.2605 1.94372 15.1733 2.35587 16.1399C3.44162 18.6863 5.54918 20.739 8.11665 21.751C9.0083 22.1025 9.84648 22.3127 10.8378 22.4333C11.3315 22.4934 12.6456 22.4934 13.1394 22.4333C14.3836 22.2819 15.455 21.972 16.5558 21.4453C18.6442 20.4461 20.4255 18.6627 21.4236 16.5719C21.9567 15.4552 22.2574 14.4197 22.4099 13.1756C22.4708 12.6788 22.4713 11.3193 22.4108 10.8233C22.2597 9.58515 21.9522 8.52783 21.4215 7.42168C20.0763 4.61799 17.5001 2.53445 14.4701 1.79949C13.6071 1.59017 13.105 1.53122 12.1085 1.52226C11.6799 1.51842 11.2915 1.51946 11.2454 1.52457ZM11.4611 6.77001C9.5755 6.96191 7.91571 8.18013 7.17031 9.91933C6.38401 11.7539 6.69412 13.8465 7.98033 15.3852C8.79005 16.3539 9.96171 17.0049 11.2454 17.1994C11.6219 17.2565 12.3553 17.2565 12.7318 17.1994C14.0155 17.0049 15.1871 16.3539 15.9969 15.3852C17.7907 13.2391 17.6145 10.0997 15.5925 8.18393C14.4877 7.13706 12.9673 6.61673 11.4611 6.77001ZM11.4479 8.29194C10.9544 8.36409 10.4162 8.56216 10.0046 8.82311C8.45558 9.8053 7.84087 11.7307 8.53465 13.4276C8.75596 13.9689 9.08456 14.4249 9.54243 14.826C9.90561 15.1442 10.3245 15.3839 10.8018 15.5467C11.5525 15.8026 12.4306 15.8024 13.1748 15.5461C13.8247 15.3222 14.3651 14.9602 14.8101 14.4507C15.6148 13.5292 15.9142 12.2607 15.6092 11.0649C15.2362 9.60255 14.0086 8.50419 12.5085 8.29067C12.2118 8.24845 11.7415 8.24902 11.4479 8.29194ZM0.0116078 11.9874C0.0116078 12.3307 0.0149882 12.4678 0.0190879 12.2921C0.0231876 12.1164 0.0231636 11.8355 0.0190639 11.668C0.0149403 11.5005 0.0115838 11.6442 0.0116078 11.9874Z" fill="#4E50D1"/>
</g>
<defs>
<clipPath id="clip0_8366_23404">
<rect width="24" height="24" fill="white"/>
</clipPath>
</defs>
</svg>
