<svg width="24" height="24" viewBox="0 0 24 24" fill="none" xmlns="http://www.w3.org/2000/svg">
<g clip-path="url(#clip0_8366_23927)">
<path fill-rule="evenodd" clip-rule="evenodd" d="M11.7517 0.0352544C11.5764 0.101782 11.4099 0.252214 11.3132 0.431278C11.2714 0.508534 11.2672 0.585742 11.2607 1.39301L11.2536 2.27073L10.8765 2.32365C9.38565 2.53291 8.03123 3.11287 6.85177 4.04702C6.49933 4.32617 5.77453 5.0568 5.51029 5.39928C4.54967 6.64435 3.99357 7.9937 3.79921 9.55128C3.75978 9.86714 3.75577 10.1319 3.75577 12.4193V14.9393L3.80785 15.052C3.87465 15.1965 4.051 15.3727 4.19507 15.4388C4.35318 15.5114 4.64637 15.5114 4.80448 15.4388C4.94855 15.3727 5.1249 15.1965 5.19169 15.052L5.24377 14.9393L5.25789 12.3953C5.26761 10.6457 5.28073 9.79507 5.29996 9.67128C5.3746 9.19056 5.4154 8.99882 5.52474 8.61528C6.03508 6.82529 7.34927 5.26267 9.03577 4.44057C9.9825 3.97908 10.9306 3.76322 12.0118 3.76301C12.9588 3.76281 13.7102 3.91344 14.6191 4.28568C14.8472 4.37913 14.9116 4.3955 15.0507 4.3955C15.6234 4.3955 15.9779 3.78782 15.7015 3.27993C15.6085 3.10915 15.4872 3.01833 15.1716 2.88309C14.5149 2.60169 13.7142 2.38877 12.9909 2.30313L12.746 2.27414L12.7389 1.39471C12.732 0.545374 12.73 0.511942 12.6797 0.418054C12.6083 0.284638 12.4516 0.13327 12.3165 0.0671504C12.1762 -0.00144159 11.8908 -0.0175696 11.7517 0.0352544ZM22.3659 1.51219C22.3054 1.52205 22.2082 1.55388 22.1499 1.58292C22.0725 1.62139 19.1721 4.50797 11.4583 12.2235C2.84725 20.8364 0.861973 22.8337 0.814861 22.9313C0.728125 23.111 0.731437 23.3852 0.822589 23.5711C0.895789 23.7204 1.02196 23.8476 1.18069 23.9321C1.33101 24.0121 1.66866 24.0114 1.82377 23.9308C1.89853 23.892 2.60421 23.203 4.11594 21.693L6.30013 19.5113H13.6455C18.8573 19.5113 21.0322 19.5036 21.1329 19.485C21.3045 19.4533 21.3801 19.4161 21.509 19.2999C21.6526 19.1704 21.7437 18.963 21.7437 18.7656C21.7438 18.5579 21.6929 18.4172 21.5626 18.2645C21.0721 17.6898 20.6469 16.1975 20.4375 14.3153C20.3345 13.3891 20.2857 12.503 20.256 11.0148C20.2272 9.56933 20.1872 9.20009 19.9686 8.36064C19.8234 7.8029 19.5627 7.12406 19.3329 6.70483L19.2526 6.55836L21.1829 4.62883C23.349 2.46369 23.2439 2.5853 23.2431 2.24328C23.2427 2.08752 23.2314 2.02922 23.1835 1.93442C23.027 1.62501 22.7023 1.4573 22.3659 1.51219ZM12.9708 12.8403L7.81182 17.9993H13.7598C18.5087 17.9993 19.7053 17.9932 19.6955 17.9693C19.6246 17.7964 19.4217 17.137 19.3462 16.8339C18.9751 15.3446 18.7903 13.5692 18.7555 11.1593C18.7342 9.68733 18.6747 9.20669 18.4157 8.41128C18.3483 8.20452 18.1576 7.71345 18.1341 7.68626C18.1317 7.6835 15.8082 10.0028 12.9708 12.8403ZM9.72128 21.0504C9.6436 21.0811 9.54604 21.1468 9.48025 21.2126C9.17675 21.5165 9.17456 21.8462 9.47207 22.4534C9.81426 23.1518 10.502 23.712 11.2748 23.9218C11.491 23.9805 11.5432 23.9851 11.9998 23.9851C12.4564 23.9851 12.5085 23.9805 12.7247 23.9218C13.3353 23.756 13.9553 23.3263 14.3095 22.8233C14.5629 22.4635 14.7476 22.0007 14.7454 21.7313C14.7419 21.3049 14.386 20.9783 13.9542 21.005C13.6265 21.0253 13.4085 21.2039 13.2662 21.5686C13.1232 21.9351 12.9447 22.157 12.6598 22.3222C12.2619 22.5529 11.7377 22.5529 11.3398 22.3222C11.0549 22.157 10.8763 21.9351 10.7333 21.5686C10.6351 21.3168 10.5296 21.1867 10.3396 21.0833C10.1667 20.9892 9.91074 20.9756 9.72128 21.0504Z" fill="#4E50D1"/>
</g>
<defs>
<clipPath id="clip0_8366_23927">
<rect width="24" height="24" fill="white"/>
</clipPath>
</defs>
</svg>
