<svg width="24" height="24" viewBox="0 0 24 24" fill="none" xmlns="http://www.w3.org/2000/svg">
<path fill-rule="evenodd" clip-rule="evenodd" d="M10.4603 0.0126646C10.1802 0.0292006 9.64187 0.0959686 9.3203 0.154097C6.17464 0.722537 3.49274 2.7305 2.05898 5.59065C1.35671 6.99158 1.0005 8.5043 1 10.088C0.999737 10.8906 1.06048 11.4847 1.21996 12.2394C1.59736 14.0254 2.5085 15.7546 3.76434 17.0682L3.97905 17.2928L3.98567 20.3504L3.9923 23.408L4.05664 23.5453C4.28608 24.0348 4.90509 24.1495 5.27267 23.7706C5.32526 23.7164 5.39347 23.6234 5.42428 23.564L5.4803 23.456L5.48663 20.1518L5.49297 16.8476L5.44101 16.7087C5.39618 16.5889 5.33582 16.5153 5.00049 16.1715C4.1339 15.283 3.53978 14.3781 3.10458 13.2838C2.21162 11.0382 2.31138 8.50574 3.37886 6.32176C3.78947 5.48169 4.26859 4.80448 4.9403 4.11479C6.37927 2.63728 8.20595 1.75554 10.2683 1.543C10.7564 1.4927 11.8569 1.50513 12.3323 1.5663C14.2041 1.80726 15.5404 2.43359 16.7371 3.631C17.5048 4.39907 18.0782 5.20708 18.7501 6.46763C19.3088 7.5159 19.8743 8.8439 20.7925 11.264C20.9878 11.7788 21.254 12.4802 21.3839 12.8226C21.5139 13.1651 21.6203 13.4533 21.6203 13.4632C21.6203 13.4731 21.164 13.4852 20.6063 13.4901C19.8907 13.4963 19.566 13.5076 19.5029 13.5284C19.3169 13.5898 19.0862 13.8205 19.0247 14.0066C19.0029 14.0724 18.9914 14.564 18.981 15.872L18.9668 17.648L18.9013 17.8591C18.6619 18.631 18.1235 19.1691 17.3552 19.4042L17.1443 19.4688L16.1123 19.4824L15.0803 19.496L14.943 19.5604C14.7632 19.6446 14.6047 19.8095 14.5418 19.9776C14.4936 20.1064 14.4923 20.1525 14.4923 21.74C14.4923 23.3458 14.4931 23.3722 14.5435 23.5072C14.7742 24.1235 15.6208 24.1634 15.9123 23.5716L15.9923 23.4091L15.9995 22.2026L16.0067 20.996L16.5035 20.9956C17.2208 20.9949 17.6205 20.9294 18.127 20.7292C18.6053 20.5402 19.0143 20.2698 19.3902 19.8939C19.9778 19.3062 20.3298 18.604 20.4559 17.7678C20.4845 17.5775 20.492 17.2667 20.4922 16.262L20.4923 14.996L21.1583 14.9956C21.909 14.9953 22.0167 14.9802 22.3163 14.8343C22.6518 14.6708 22.9916 14.2648 23.0847 13.916C23.173 13.585 23.1575 13.2581 23.0382 12.9363C22.4016 11.2193 21.5086 8.90594 21.1698 8.09601C19.7729 4.75653 18.4332 2.83619 16.6113 1.56189C15.1201 0.518993 13.2287 -0.0177674 11.1088 0.000448645C10.8247 0.00289664 10.5329 0.00839265 10.4603 0.0126646ZM11.0603 2.79566C10.0231 2.86545 9.18052 3.15098 8.29326 3.73334C7.06322 4.54072 6.32327 5.64218 6.1269 6.95819C6.10638 7.09559 6.08212 7.21463 6.07295 7.2227C6.06378 7.23078 5.98099 7.25582 5.88895 7.27831C5.63572 7.34023 5.29199 7.47395 5.02192 7.61562C4.01637 8.1431 3.50236 9.02668 3.55574 10.136C3.59486 10.949 3.92831 11.6832 4.53136 12.284C5.2978 13.0476 6.32251 13.4581 7.46558 13.4596C8.32048 13.4606 9.16622 13.2148 9.82322 12.7741L9.98548 12.6653L10.1329 12.7022C11.4346 13.0276 12.9266 12.8914 13.965 12.3524C14.9597 11.8361 15.5065 10.8369 15.403 9.72439C15.3778 9.45407 15.3093 9.16298 15.2167 8.93272L15.1671 8.80943L15.2797 8.76722C15.6099 8.64335 15.9387 8.43424 16.1844 8.19201C16.7605 7.62383 16.9812 6.82209 16.7954 5.97201C16.6331 5.22976 16.2338 4.70034 15.3803 4.09578C14.3384 3.35774 13.0556 2.89514 11.8018 2.80526C11.4727 2.78166 11.3014 2.77943 11.0603 2.79566ZM10.5477 4.37951C10.2029 4.44938 9.88478 4.56426 9.5483 4.7404C8.58522 5.24452 7.96468 5.92173 7.71486 6.74126C7.68045 6.85413 7.65232 6.96213 7.65237 6.98126C7.65242 7.01082 7.76435 7.01622 8.40237 7.01752C9.16605 7.01906 9.6034 7.04243 10.4346 7.12607C10.7192 7.15473 10.9095 7.16438 10.923 7.15087C10.9593 7.11463 10.9744 5.59962 10.9427 5.18001C10.9103 4.75082 10.8686 4.38803 10.8472 4.34891C10.8365 4.3295 10.7518 4.33814 10.5477 4.37951ZM12.3895 4.47801C12.4553 4.81031 12.4875 6.30222 12.4448 7.04212L12.4253 7.38026L12.8048 7.43812C13.1215 7.48643 13.2736 7.49596 13.7243 7.49577C14.2118 7.49555 14.2848 7.49013 14.4755 7.43992C14.8584 7.33907 15.0765 7.21346 15.213 7.01498C15.3926 6.75393 15.3998 6.37216 15.2317 6.02308C15.0731 5.69378 14.3552 5.15339 13.6403 4.82531C13.3493 4.69175 12.9045 4.53256 12.6177 4.45936C12.3777 4.39807 12.3738 4.3984 12.3895 4.47801ZM7.71242 8.59062C7.78622 8.93546 8.03874 9.51117 8.25566 9.82903C8.41634 10.0645 8.78572 10.4344 9.02051 10.5949C9.11939 10.6626 9.29661 10.7698 9.4143 10.8333L9.62831 10.9487L9.69822 10.8664C9.93045 10.5928 10.2471 10.013 10.4208 9.54345C10.5095 9.30357 10.6763 8.75111 10.6763 8.69711C10.6763 8.63155 9.54448 8.54018 8.51966 8.52304L7.69499 8.50924L7.71242 8.59062ZM5.95542 8.83739C5.32101 9.09321 5.0603 9.43283 5.0603 10.0035C5.0603 10.7666 5.6177 11.4544 6.50757 11.7894C6.96544 11.9617 7.65047 12.0067 8.08979 11.8933L8.20329 11.864L8.00699 11.72C7.7565 11.5362 7.34255 11.1274 7.15638 10.88C6.94845 10.6036 6.72561 10.2258 6.58264 9.90741C6.45139 9.61502 6.24931 9.02582 6.22226 8.85662C6.2134 8.8013 6.19403 8.75647 6.17922 8.75702C6.16442 8.75757 6.06371 8.79374 5.95542 8.83739ZM12.1782 8.90601C12.1734 8.92252 12.1349 9.07101 12.0926 9.23601C11.9119 9.94041 11.6395 10.6158 11.3146 11.1653L11.2076 11.3464L11.294 11.3627C11.4368 11.3895 12.1103 11.3522 12.3848 11.3023C12.7097 11.2433 13.1149 11.1068 13.3163 10.9886C13.5002 10.8806 13.718 10.6599 13.7906 10.508C13.8626 10.3575 13.9164 10.1362 13.9159 9.99297C13.9147 9.65169 13.7476 9.2615 13.5175 9.06242C13.4818 9.03158 13.3924 9.01427 13.1709 8.99539C13.0066 8.98139 12.733 8.9488 12.5628 8.92298C12.1975 8.86756 12.1893 8.86718 12.1782 8.90601Z" fill="#4E50D1"/>
</svg>
