<svg width="24" height="24" viewBox="0 0 24 24" fill="none" xmlns="http://www.w3.org/2000/svg">
<g clip-path="url(#clip0_8366_23794)">
<path fill-rule="evenodd" clip-rule="evenodd" d="M21.7112 0.0266989C20.8801 0.164463 20.0814 0.885843 19.8525 1.70544C19.8283 1.7924 19.6966 2.51862 19.56 3.31926L19.3115 4.77498L10.2816 4.78779L1.25166 4.8006L1.1037 4.85708C0.710674 5.00709 0.400148 5.25426 0.218598 5.56161C0.0582108 5.83311 0.00161412 6.04476 0.000743011 6.376L0 6.67059L0.811005 9.90177C1.25707 11.6789 1.66316 13.2466 1.71343 13.3856C2.00041 14.1785 2.53727 14.853 3.26969 15.3409C3.83561 15.7178 4.42412 15.9202 5.13323 15.9817C5.31855 15.9978 7.65015 16.0074 11.4173 16.0075L17.4066 16.0077L17.3932 16.0654C17.3858 16.097 17.2872 16.6705 17.1742 17.3398C17.0612 18.009 16.9489 18.6142 16.9247 18.6846C16.8674 18.8513 16.6469 19.0752 16.4705 19.1457C16.3441 19.1963 16.2672 19.1971 10.8467 19.2098L5.35101 19.2226L5.21473 19.298C5.04881 19.3899 4.94112 19.5085 4.85732 19.6915C4.80205 19.8122 4.79547 19.8563 4.80546 20.0385C4.81361 20.1869 4.83341 20.2792 4.87405 20.3579C4.95634 20.5174 5.14386 20.6862 5.30615 20.7469C5.44391 20.7985 5.47745 20.7987 11.0345 20.7919L16.6242 20.7852L16.8496 20.7145C17.6772 20.455 18.315 19.8019 18.507 19.0176C18.5346 18.9049 19.048 15.9251 19.648 12.3958C20.248 8.86654 20.7725 5.78298 20.8135 5.54347C20.8546 5.30396 20.9924 4.49128 21.1199 3.73752C21.3719 2.24771 21.3909 2.1485 21.4472 2.03404C21.4999 1.92674 21.6797 1.74424 21.7877 1.68845C21.9424 1.6084 22.1598 1.58576 22.7734 1.58576C23.4668 1.58576 23.5332 1.57159 23.7444 1.37862C23.9287 1.21015 24 1.04653 24 0.791652C24 0.53677 23.9287 0.373159 23.7444 0.204681C23.5249 0.00415662 23.4855 -0.00291349 22.6086 0.000544706C22.1918 0.00218415 21.788 0.0139676 21.7112 0.0266989ZM1.60759 6.44645C1.61502 6.47109 1.97274 7.8982 2.40253 9.61777C3.15453 12.6264 3.241 12.9388 3.3959 13.2075C3.55421 13.4821 3.86812 13.8108 4.15187 13.9991C4.33983 14.1238 4.61845 14.2498 4.86498 14.3216L5.06918 14.3811L11.3725 14.3879L17.6758 14.3947L18.2369 11.0962C18.5455 9.28204 18.8514 7.4836 18.9167 7.09966L19.0354 6.40162H10.3148C2.02129 6.40162 1.59475 6.40382 1.60759 6.44645ZM5.29977 8.05346C5.19113 8.09757 5.10751 8.15687 5.01468 8.2556C4.79391 8.49042 4.80016 8.43916 4.80016 10.014V11.3886L4.87823 11.5448C5.02257 11.8337 5.26971 11.9853 5.59671 11.9857C5.76251 11.9859 5.81423 11.9744 5.94741 11.9079C6.11559 11.8239 6.22632 11.715 6.31804 11.5434C6.37572 11.4354 6.37587 11.4322 6.3831 10.0419C6.39153 8.42389 6.39926 8.48647 6.16086 8.24453C5.91482 7.9948 5.6105 7.92727 5.29977 8.05346ZM10.1397 8.03506C9.87994 8.12792 9.67003 8.36144 9.61712 8.61638C9.59832 8.7069 9.59155 9.18534 9.59658 10.0677C9.60406 11.3789 9.60431 11.3845 9.66296 11.5121C9.7326 11.6636 9.89655 11.8401 10.0396 11.9176C10.1253 11.9641 10.1841 11.9732 10.3983 11.9732C10.7008 11.9732 10.7922 11.936 10.9775 11.7379C11.1983 11.5019 11.1926 11.5492 11.1926 9.97509C11.1926 8.60972 11.1919 8.59025 11.137 8.47151C11.0651 8.316 10.8761 8.12805 10.724 8.06078C10.5571 7.98693 10.3053 7.97584 10.1397 8.03506ZM14.9076 8.05346C14.799 8.09757 14.7154 8.15687 14.6225 8.2556C14.4018 8.49042 14.408 8.43916 14.408 10.014V11.3886L14.4861 11.5448C14.6304 11.8337 14.8776 11.9853 15.2046 11.9857C15.3704 11.9859 15.4221 11.9744 15.5553 11.9079C15.7234 11.8239 15.8342 11.715 15.9259 11.5434C15.9836 11.4354 15.9837 11.4322 15.9909 10.0419C15.9994 8.42389 16.0071 8.48647 15.7687 8.24453C15.5227 7.9948 15.2183 7.92727 14.9076 8.05346ZM7.33538 21.627C7.12321 21.6727 6.91032 21.7919 6.7442 21.9579C5.99294 22.7091 6.52942 24 7.59284 24C8.50669 24 9.0838 23.0357 8.65301 22.2286C8.56134 22.0569 8.33644 21.832 8.16265 21.7382C8.01776 21.66 7.74167 21.592 7.58003 21.5947C7.52366 21.5956 7.41357 21.6101 7.33538 21.627ZM15.3245 21.6302C15.0187 21.7078 14.7575 21.8956 14.5858 22.1611C14.45 22.3712 14.3992 22.5816 14.4123 22.8804C14.4218 23.0975 14.433 23.1435 14.518 23.3155C14.6421 23.5666 14.8399 23.7652 15.0881 23.8878C15.249 23.9673 15.3086 23.9825 15.5029 23.9936C15.9036 24.0164 16.183 23.9152 16.4482 23.6512C17.1841 22.9184 16.7049 21.6643 15.6659 21.6042C15.5436 21.5972 15.4168 21.6068 15.3245 21.6302Z" fill="#4E50D1"/>
</g>
<defs>
<clipPath id="clip0_8366_23794">
<rect width="24" height="24" fill="white"/>
</clipPath>
</defs>
</svg>
