<svg width="24" height="24" viewBox="0 0 24 24" fill="none" xmlns="http://www.w3.org/2000/svg">
<path fill-rule="evenodd" clip-rule="evenodd" d="M3.51609 0.0301071C3.31704 0.108155 3.16466 0.244283 3.06813 0.430235L3.01209 0.538235L3.00506 4.10224C3.00016 6.58 3.00609 7.73939 3.02445 7.90624C3.19305 9.43748 4.29696 10.7232 5.78409 11.1205L5.98809 11.175L6.00009 17.3166L6.01209 23.4582L6.07603 23.5782C6.30741 24.0126 6.84384 24.1314 7.22179 23.8321C7.31503 23.7582 7.43445 23.5892 7.47744 23.4702C7.49001 23.4354 7.50436 20.8394 7.51161 17.291L7.52409 11.1718L7.64409 11.1401C8.5283 10.9064 9.2458 10.4224 9.78069 9.69906C10.0343 9.35603 10.2748 8.85258 10.3813 8.44158C10.5009 7.98006 10.4965 8.12507 10.5057 4.34348C10.5116 1.93813 10.5062 0.752435 10.489 0.641483C10.4273 0.244067 10.1008 -0.0205569 9.70008 0.0020991C9.43776 0.0169071 9.19529 0.179867 9.06955 0.425843L9.01209 0.538235L8.99849 4.17424C8.98874 6.78354 8.97713 7.84218 8.95737 7.92335C8.83293 8.435 8.62365 8.80604 8.27618 9.1311C8.065 9.32862 7.75636 9.5258 7.56609 9.58475L7.51209 9.60147L7.5119 5.18984C7.5118 2.31013 7.50324 0.725915 7.48728 0.627563C7.42481 0.242603 7.09408 -0.0201729 6.70008 0.0020991C6.43776 0.0169071 6.19528 0.179867 6.06955 0.425843L6.01209 0.538235L6.0059 5.06824C6.00146 8.31772 5.99232 9.59824 5.97357 9.59824C5.90162 9.59824 5.53072 9.38739 5.35418 9.24615C4.92856 8.90562 4.62153 8.38636 4.53669 7.86361C4.52119 7.76804 4.51233 6.46487 4.51209 4.24624C4.51185 2.00807 4.50307 0.724811 4.48728 0.627563C4.42732 0.258035 4.11374 -0.0045249 3.73783 5.90952e-05C3.65548 0.0010671 3.55569 0.0145791 3.51609 0.0301071ZM15.7801 0.0246591C15.5539 0.0537711 15.2257 0.149267 15.0111 0.248411C14.3936 0.533699 13.9036 1.10022 13.6704 1.79824C13.4951 2.32314 13.5046 2.1244 13.4946 5.44624C13.4889 7.33756 13.4945 8.54874 13.5099 8.74623C13.5413 9.14711 13.6249 9.47327 13.7752 9.78097C14.2005 10.6517 15.0971 11.1926 16.2061 11.2474L16.4881 11.2613V17.2533C16.4881 21.4015 16.496 23.2881 16.5137 23.3841C16.5801 23.7431 16.8916 23.9986 17.2624 23.998C17.5429 23.9976 17.8 23.8269 17.9309 23.5542L18 23.4102L18.0001 17.3322L18.0001 11.2542L18.2101 11.254C18.9071 11.2534 19.5103 11.0628 19.9796 10.6948C20.5034 10.2842 20.8662 9.60906 20.9753 8.84223C21.0091 8.60418 21.0084 2.55879 20.9745 2.30996C20.8969 1.74049 20.6702 1.24664 20.3059 0.853619C19.981 0.503027 19.4562 0.214499 18.8915 0.0758271L18.6361 0.0131391L17.2921 0.0080751C16.5529 0.0053151 15.8725 0.0127551 15.7801 0.0246591ZM15.8586 1.54756C15.4463 1.64752 15.2084 1.90074 15.0663 2.39106L15.0121 2.57823V5.67424C15.0121 8.61155 15.0143 8.77755 15.0562 8.9132C15.1595 9.24805 15.3301 9.44751 15.6314 9.58585C15.968 9.74041 16.0275 9.74557 17.3769 9.73732L18.5881 9.72992L18.7508 9.6668C19.0552 9.5487 19.2125 9.40177 19.3406 9.11603C19.4977 8.76524 19.4904 8.94978 19.4829 5.50624L19.4761 2.38623L19.4246 2.25169C19.2822 1.87991 19.0318 1.67617 18.5695 1.5561C18.4107 1.51484 18.2953 1.5112 17.1961 1.51264C16.2587 1.51388 15.966 1.52152 15.8586 1.54756Z" fill="#4E50D1"/>
</svg>
