<svg width="24" height="24" viewBox="0 0 24 24" fill="none" xmlns="http://www.w3.org/2000/svg">
<path fill-rule="evenodd" clip-rule="evenodd" d="M7.80544 0.0226479C7.39927 0.0734587 6.84391 0.299442 6.52078 0.545404C6.07446 0.885136 5.72804 1.38227 5.55577 1.93029C5.44011 2.29826 5.4293 2.51039 5.47546 3.50708C5.50438 4.13144 5.50982 4.43887 5.49349 4.52421C5.43657 4.82122 5.28523 5.07362 5.05449 5.25624C4.8907 5.38588 4.78188 5.43914 4.58661 5.48527C4.4369 5.52064 4.35367 5.52026 3.51887 5.48032C2.75297 5.44368 2.57592 5.44171 2.3695 5.4675C1.79077 5.53983 1.26831 5.79362 0.82933 6.21562C-0.0362097 7.0477 -0.240377 8.35642 0.327186 9.43433C0.505118 9.77228 0.691708 9.98107 1.36003 10.5901C1.70022 10.9001 2.01361 11.1938 2.05651 11.2427C2.38384 11.616 2.41583 12.2537 2.12862 12.6803C2.08472 12.7455 1.7647 13.0549 1.40147 13.3832C0.658903 14.0545 0.484735 14.2511 0.290184 14.638C0.119757 14.9769 -0.000239443 15.4917 3.58767e-07 15.8831C0.0001922 16.2295 0.121388 16.7352 0.28124 17.0566C0.655258 17.8086 1.38836 18.3646 2.21207 18.5211C2.45538 18.5673 2.85527 18.5672 3.71141 18.5208C4.30163 18.4888 4.40681 18.4886 4.55184 18.5189C5.03629 18.62 5.41311 19.0059 5.49445 19.4841C5.51702 19.6167 5.51467 19.7991 5.48277 20.3944C5.43414 21.3014 5.43371 21.4619 5.47908 21.7421C5.51467 21.9617 5.62246 22.3036 5.71286 22.4835C5.88583 22.8276 6.21697 23.2272 6.52078 23.4585C6.72365 23.6129 7.14848 23.8219 7.41414 23.8981C8.25342 24.1386 9.17507 23.9472 9.86203 23.3896C9.95121 23.3172 10.2759 22.981 10.5836 22.6425C11.2154 21.9472 11.267 21.8976 11.4575 21.8022C11.6589 21.7014 11.8182 21.6709 12.0709 21.6851C12.33 21.6996 12.5065 21.7598 12.6906 21.8964C12.7609 21.9485 13.0699 22.2708 13.3771 22.6125C13.6844 22.9541 14.0055 23.2918 14.0905 23.3628C14.5858 23.7764 15.1637 23.9842 15.8268 23.9874C16.1826 23.9891 16.4034 23.9533 16.7263 23.8414C17.684 23.5095 18.393 22.6371 18.5154 21.6402C18.5397 21.4423 18.5389 21.2618 18.5109 20.6677C18.4656 19.7038 18.4692 19.4722 18.5324 19.2958C18.6401 18.9956 18.8709 18.743 19.1627 18.6063C19.4211 18.4852 19.5136 18.4781 20.2902 18.5199C21.1573 18.5666 21.4963 18.5671 21.7528 18.5221C22.5709 18.3787 23.3228 17.8124 23.6987 17.0566C23.7862 16.8807 23.8996 16.5337 23.9458 16.3002C23.9927 16.0637 24.0181 15.6278 23.985 15.6278C23.9727 15.6278 23.9556 15.5579 23.9468 15.4723C23.9058 15.0713 23.6699 14.5175 23.3923 14.17C23.2979 14.0518 22.999 13.76 22.6426 13.438C21.9255 12.7901 21.8638 12.7269 21.7749 12.5486C21.6287 12.2557 21.6139 11.8452 21.7384 11.5372C21.8242 11.3249 21.9276 11.2142 22.6512 10.5589C23.202 10.0602 23.4143 9.83683 23.5593 9.60388C23.9087 9.04225 24.0651 8.28412 23.9484 7.71768C23.7518 6.76347 23.2256 6.07814 22.3877 5.68494C21.8914 5.45209 21.5579 5.41866 20.3591 5.48152C19.4812 5.52758 19.3871 5.51927 19.11 5.37138C18.9162 5.26798 18.6729 5.00924 18.5833 4.81128C18.4719 4.56525 18.4654 4.44665 18.5125 3.52545C18.5411 2.96435 18.5484 2.62137 18.5349 2.46258C18.4038 0.921731 16.9764 -0.201198 15.443 0.0302839C15.1653 0.0722101 14.8641 0.164971 14.6398 0.277735C14.2453 0.476032 14.0523 0.643544 13.432 1.32639C13.142 1.64557 12.8514 1.95665 12.7863 2.01769C12.3552 2.42142 11.6363 2.42663 11.2051 2.02915C11.1451 1.97385 10.8556 1.66312 10.5618 1.33862C10.0145 0.734264 9.82323 0.556402 9.53552 0.384399C9.02836 0.0811908 8.39545 -0.0511431 7.80544 0.0226479ZM7.87738 1.54018C7.55574 1.62314 7.22848 1.87513 7.09208 2.14487C6.94055 2.44447 6.93218 2.56881 6.98861 3.68053C7.03391 4.57336 7.00271 4.86099 6.80753 5.34907C6.50337 6.10967 5.78485 6.73808 4.99401 6.93511C4.62306 7.02753 4.41009 7.03656 3.60892 6.99377C2.62763 6.94138 2.46693 6.94932 2.2232 7.06242C1.88455 7.21954 1.63952 7.51237 1.54602 7.87175C1.46696 8.17563 1.54053 8.57364 1.72556 8.84294C1.76571 8.90136 2.08539 9.21077 2.43598 9.53052C2.78657 9.85027 3.12658 10.1759 3.19154 10.254C3.70393 10.8706 3.91889 11.6343 3.80083 12.4187C3.71827 12.9672 3.47837 13.4567 3.09521 13.8586C2.99527 13.9634 2.6653 14.2736 2.36195 14.5479C2.0586 14.8223 1.78741 15.0781 1.7593 15.1164C1.54305 15.4109 1.46032 15.8085 1.54643 16.1395C1.67324 16.627 2.03968 16.9615 2.53583 17.0424C2.6293 17.0577 2.88985 17.0532 3.34514 17.0286C4.59616 16.961 4.98523 17.0047 5.51882 17.2728C6.21172 17.621 6.74998 18.2826 6.93002 19.0074C7.02331 19.3829 7.03319 19.5964 6.99206 20.3471C6.93178 21.4476 6.93895 21.5562 7.09208 21.859C7.18364 22.0401 7.4467 22.2905 7.63521 22.3761C7.9958 22.5398 8.34435 22.5305 8.70317 22.3475C8.90472 22.2448 8.9158 22.2342 9.51801 21.5735C9.88006 21.1762 10.2047 20.8433 10.3158 20.7554C10.9071 20.2872 11.656 20.089 12.4062 20.2022C12.9539 20.2849 13.4427 20.525 13.8442 20.9088C13.9489 21.0089 14.2544 21.3348 14.5231 21.633C15.0847 22.2564 15.194 22.3475 15.4875 22.4373C16.0533 22.6102 16.6703 22.3262 16.9262 21.7751C17.0012 21.6138 17.0109 21.5688 17.0202 21.3429C17.0258 21.2042 17.0136 20.772 16.9929 20.3824C16.9435 19.4482 16.9721 19.16 17.1624 18.678C17.4815 17.8699 18.2357 17.2338 19.1001 17.0438C19.3681 16.9849 19.6701 16.9798 20.477 17.0205C21.3251 17.0633 21.4843 17.0576 21.6966 16.9768C21.8358 16.9238 22.0473 16.7874 22.138 16.692C22.2426 16.582 22.3718 16.348 22.4255 16.1714C22.5182 15.8666 22.4532 15.4625 22.266 15.1798C22.2162 15.1046 21.9504 14.8445 21.5892 14.5175C20.9278 13.9186 20.7709 13.758 20.6015 13.5066C20.4475 13.2778 20.3794 13.1389 20.2896 12.8703C20.0148 12.0481 20.134 11.1926 20.6251 10.4628C20.7696 10.2481 20.9323 10.0832 21.5779 9.49726C21.9431 9.16579 22.2177 8.89702 22.2666 8.82311C22.433 8.57181 22.5063 8.20137 22.4466 7.91346C22.411 7.74246 22.2841 7.48402 22.1702 7.3507C22.0544 7.21529 21.8195 7.06487 21.63 7.00479C21.4425 6.94534 21.2203 6.94327 20.2991 6.99238C19.6419 7.02739 19.3519 7.01697 19.0559 6.94762C18.0177 6.70437 17.1968 5.83319 17.0134 4.77987C16.9684 4.52123 16.9686 4.21538 17.0146 3.34094C17.047 2.72686 17.0472 2.62145 17.0166 2.47449C16.9007 1.91807 16.4074 1.50968 15.8498 1.50867C15.5337 1.5081 15.2137 1.64038 14.9898 1.86423C14.9147 1.93924 14.6288 2.2473 14.3544 2.54881C13.8038 3.15388 13.5942 3.33664 13.2418 3.51928C12.8022 3.74709 12.4945 3.82134 11.99 3.82134C11.4846 3.82134 11.1779 3.74716 10.7357 3.51798C10.377 3.3321 10.1684 3.14631 9.50871 2.42505C9.17862 2.06416 8.87076 1.74436 8.8246 1.71437C8.77844 1.68437 8.66676 1.63037 8.57643 1.5944C8.37931 1.51588 8.06582 1.49155 7.87738 1.54018ZM11.6063 6.75794C9.92287 6.91271 8.51068 7.74854 7.59447 9.13242C7.3951 9.43356 7.12014 10.0041 7.00633 10.3527C6.38805 12.247 6.87295 14.2968 8.27181 15.702C8.58857 16.0202 8.78837 16.1834 9.14853 16.4182C9.76203 16.8181 10.4751 17.0881 11.2249 17.2043C11.6023 17.2628 12.3776 17.2628 12.755 17.2043C13.8922 17.028 14.8901 16.5223 15.6965 15.7138C16.5814 14.8265 17.1023 13.7156 17.2172 12.4702C17.373 10.7823 16.6705 9.07596 15.3712 7.98631C15.0384 7.70726 14.6917 7.48334 14.2821 7.28301C13.7649 7.03001 13.3087 6.88668 12.7573 6.80398C12.5079 6.76659 11.8142 6.73883 11.6063 6.75794ZM0.00827351 8.13589C0.00827351 8.24815 0.0124221 8.29406 0.0174579 8.23794C0.0225177 8.18182 0.0225177 8.08995 0.0174579 8.03383C0.0124221 7.97772 0.00827351 8.02363 0.00827351 8.13589ZM11.4831 8.29248C10.3437 8.44815 9.31914 9.13955 8.74379 10.1409C7.83142 11.729 8.21908 13.7708 9.65192 14.924C10.1185 15.2995 10.6457 15.5455 11.2706 15.6793C11.6355 15.7575 12.3445 15.7575 12.7094 15.6793C13.3343 15.5455 13.8615 15.2995 14.328 14.924C15.8947 13.6631 16.1886 11.382 14.9922 9.76875C14.821 9.53789 14.4507 9.16704 14.2201 8.99559C13.4433 8.41797 12.4438 8.16122 11.4831 8.29248ZM0.00865719 15.88C0.00872913 16.0121 0.0127578 16.063 0.0176018 15.9932C0.0224698 15.9235 0.0224218 15.8154 0.0175059 15.7531C0.012566 15.6908 0.00860923 15.7479 0.00865719 15.88Z" fill="#4E50D1"/>
</svg>
