<svg width="24" height="24" viewBox="0 0 24 24" fill="none" xmlns="http://www.w3.org/2000/svg">
<g clip-path="url(#clip0_8366_23619)">
<path fill-rule="evenodd" clip-rule="evenodd" d="M11.0278 0.0367788C8.64602 0.238649 6.42963 1.10536 4.59091 2.55388C0.421398 5.83859 -1.10653 11.4487 0.823984 16.385C2.26795 20.0773 5.49665 22.8491 9.36163 23.7145C12.0638 24.3196 14.8956 23.9694 17.3688 22.7243C19.4861 21.6584 21.2445 19.985 22.4198 17.9174C23.2787 16.4063 23.8406 14.55 23.9401 12.8945C23.9491 12.7456 23.9656 12.6181 23.9769 12.6111C23.9882 12.6041 23.9973 12.3155 23.9971 11.9698C23.9969 11.6241 23.9877 11.3554 23.9767 11.3728C23.9649 11.3913 23.95 11.2875 23.9404 11.1208C23.8457 9.46982 23.2813 7.60072 22.4198 6.08505C20.5658 2.82362 17.298 0.607587 13.6049 0.107461C12.8349 0.0031778 11.7691 -0.026055 11.0278 0.0367788ZM11.1117 1.54042C10.6037 1.5847 10.3547 1.62634 10.3199 1.67283C10.3018 1.69707 10.2068 1.85193 10.1087 2.01693C9.66945 2.75627 9.32977 3.5717 8.97899 4.72901C8.87013 5.0882 8.65441 5.91224 8.65441 5.96896C8.65441 5.9956 9.22134 6.00105 11.9867 6.00105C14.5058 6.00105 15.319 5.99423 15.319 5.97311C15.319 5.95773 15.2752 5.77143 15.2217 5.5591C14.9253 4.38316 14.5582 3.34825 14.1414 2.51411C14.0467 2.32445 13.7216 1.76387 13.6536 1.67291C13.5636 1.55249 11.9424 1.46799 11.1117 1.54042ZM8.02775 2.28152C6.25313 3.00362 4.67599 4.23865 3.5152 5.81519L3.37814 6.00134L5.2405 5.99519L7.10285 5.98905L7.2051 5.54503C7.46339 4.42331 7.81788 3.326 8.22018 2.40291C8.27436 2.27856 8.31603 2.17486 8.31274 2.17241C8.30948 2.16998 8.18122 2.21907 8.02775 2.28152ZM15.6624 2.19206C15.669 2.20795 15.7392 2.37339 15.8184 2.55971C16.1962 3.44869 16.52 4.46656 16.7684 5.54503L16.8706 5.98905L18.733 5.99519L20.5953 6.00134L20.4583 5.81519C19.4315 4.42077 18.0726 3.28592 16.5538 2.55464C16.1162 2.34399 15.646 2.1527 15.6624 2.19206ZM2.47326 7.57909C2.45969 7.61538 2.40599 7.7423 2.35392 7.8611C2.04618 8.56331 1.79927 9.39191 1.65661 10.2012C1.60717 10.4816 1.53437 11.071 1.53432 11.1912L1.53429 11.2572H4.01317H6.49208L6.50627 10.9752C6.5477 10.1519 6.60041 9.37089 6.64194 8.96513C6.69597 8.43724 6.80769 7.55776 6.82406 7.53124C6.83022 7.52125 5.85935 7.51309 4.66659 7.51309H2.49793L2.47326 7.57909ZM8.2979 7.8431C8.16049 8.73501 8.06196 9.79997 8.01705 10.8792L8.00133 11.2572H11.9866H15.9718L15.9556 10.8672C15.9122 9.81795 15.8108 8.72306 15.6754 7.8431L15.6247 7.51309H11.9867H8.34873L8.2979 7.8431ZM17.1494 7.53124C17.1658 7.55776 17.2775 8.43724 17.3315 8.96513C17.373 9.37089 17.4258 10.1519 17.4672 10.9752L17.4814 11.2572H19.9603H22.4392L22.4391 11.1912C22.4391 11.0741 22.366 10.4852 22.3163 10.2012C22.173 9.38202 21.9523 8.64396 21.6103 7.84008L21.4711 7.51309H19.3047C18.1131 7.51309 17.1432 7.52125 17.1494 7.53124ZM0.0104685 12.0012C0.0104685 12.351 0.0138248 12.4941 0.0179003 12.3192C0.0219998 12.1443 0.0219998 11.8581 0.0179003 11.6832C0.0138248 11.5083 0.0104685 11.6514 0.0104685 12.0012ZM1.53432 12.8112C1.53437 12.9314 1.60717 13.5208 1.65661 13.8013C1.79927 14.6105 2.04618 15.4391 2.35392 16.1413C2.40599 16.2601 2.45969 16.387 2.47326 16.4233L2.49793 16.4894H4.65585H6.8138L6.80004 16.4113C6.68749 15.7725 6.55412 14.2753 6.50716 13.1233L6.49174 12.7452H4.01303H1.53429L1.53432 12.8112ZM8.01749 13.1953C8.05824 14.2909 8.21471 15.904 8.33178 16.4353L8.34367 16.4894H11.9867H15.6298L15.6417 16.4353C15.7568 15.9126 15.9175 14.2545 15.9568 13.1833L15.9729 12.7452H11.9868H8.00075L8.01749 13.1953ZM17.4664 13.1233C17.4213 14.2413 17.2832 15.7919 17.1735 16.4113L17.1596 16.4894H19.3154H21.4711L21.6103 16.1624C21.9523 15.3585 22.173 14.6204 22.3163 13.8013C22.366 13.5172 22.4391 12.9283 22.4391 12.8112L22.4392 12.7452H19.9604H17.4817L17.4664 13.1233ZM3.51532 18.1874C4.54179 19.5815 5.90729 20.7214 7.41978 21.4468C7.80923 21.6335 8.26947 21.8269 8.28577 21.8106C8.29133 21.805 8.26233 21.726 8.22131 21.635C7.83198 20.7713 7.37121 19.3186 7.13159 18.1994L7.08921 18.0014H5.23378H3.37836L3.51532 18.1874ZM8.64485 18.0674C9.0126 19.651 9.53918 21.0654 10.1385 22.0793C10.331 22.405 10.2583 22.3667 10.812 22.4345C11.3077 22.4951 12.6658 22.4951 13.1614 22.4345C13.7152 22.3667 13.6425 22.405 13.835 22.0793C14.2045 21.4541 14.6011 20.5492 14.8718 19.7136C15.0064 19.2982 15.2135 18.5635 15.2834 18.2534C15.3042 18.161 15.3269 18.0665 15.3338 18.0434C15.3456 18.0035 15.1751 18.0014 11.9879 18.0014H8.62953L8.64485 18.0674ZM16.8419 18.1994C16.6055 19.3037 16.1498 20.7459 15.772 21.5859C15.7193 21.7031 15.6811 21.8039 15.687 21.8099C15.7039 21.8268 16.1576 21.6367 16.5537 21.4468C18.0662 20.7214 19.4317 19.5815 20.4581 18.1874L20.5951 18.0014H18.7397H16.8842L16.8419 18.1994Z" fill="#4E50D1"/>
</g>
<defs>
<clipPath id="clip0_8366_23619">
<rect width="24" height="24" fill="white"/>
</clipPath>
</defs>
</svg>
