<svg width="24" height="24" viewBox="0 0 24 24" fill="none" xmlns="http://www.w3.org/2000/svg">
<path fill-rule="evenodd" clip-rule="evenodd" d="M6.31693 0.033402C4.78857 0.235937 3.50374 1.35148 3.1243 2.80536C3.0452 3.1084 3.03737 3.15497 3.01123 3.47751C2.97205 3.96118 3.03576 4.46134 3.19646 4.93163C3.51214 5.85541 4.19292 6.62832 5.0839 7.07454C5.3566 7.21111 5.78143 7.36642 5.98225 7.40294L6.07488 7.41979V11.9984V16.577L5.93284 16.6076C5.70265 16.6573 5.3466 16.7911 5.06122 16.9352C4.05364 17.444 3.30135 18.4136 3.07484 19.4955C2.99105 19.8956 2.97973 20.5072 3.0492 20.8816C3.32035 22.3432 4.39996 23.4885 5.87726 23.8816C5.97916 23.9087 6.18817 23.947 6.34171 23.9666C7.2792 24.0865 8.20368 23.8815 8.97754 23.3822C10.8063 22.202 11.2661 19.8209 10.0015 18.0798C9.4916 17.3778 8.63908 16.8064 7.82266 16.6196L7.6312 16.5758L7.63199 14.1856C7.63269 12.1005 7.6373 11.8013 7.66833 11.8411C7.91601 12.1591 8.42594 12.639 8.78582 12.8928C9.87996 13.6644 11.3322 14.1123 13.095 14.222L13.3588 14.2383L13.4128 14.4332C13.7591 15.6816 14.6768 16.6439 15.9069 17.0484C17.3294 17.5162 18.8656 17.157 19.91 16.1123C20.4972 15.5249 20.8385 14.856 20.9735 14.028C21.0088 13.8114 21.0088 13.1883 20.9735 12.9717C20.8342 12.1174 20.4588 11.4036 19.8428 10.8221C19.1399 10.1586 18.3441 9.81934 17.3397 9.75498C16.2987 9.68827 15.1897 10.1038 14.4247 10.8472C13.9154 11.3421 13.6274 11.8427 13.3887 12.6477C13.3659 12.7247 13.2777 12.7333 12.893 12.6962C11.3684 12.549 10.2321 12.1445 9.43127 11.4638C8.48224 10.6571 7.86532 9.30533 7.64348 7.54647L7.62834 7.42644L7.84148 7.37305C9.02952 7.0755 10.0469 6.18105 10.4731 5.05944C10.7774 4.25868 10.7931 3.33998 10.5158 2.5533C10.1344 1.47141 9.29266 0.630014 8.18708 0.225639C7.63219 0.0226715 6.93706 -0.0487693 6.31693 0.033402ZM6.44949 1.53452C5.90411 1.62858 5.35732 1.95661 5.0193 2.39251C4.43944 3.14031 4.39065 4.09983 4.89055 4.92448C5.02963 5.1539 5.41201 5.52548 5.64811 5.66063C6.05517 5.89366 6.40245 5.98586 6.86539 5.98384C7.26831 5.98209 7.5254 5.92251 7.89059 5.74628C8.56196 5.4223 9.01895 4.8176 9.13893 4.09451C9.18456 3.81943 9.15788 3.39875 9.07801 3.13452C8.9585 2.739 8.75336 2.40866 8.45536 2.13173C8.17154 1.86801 7.87688 1.70273 7.4901 1.59031C7.31028 1.53805 7.21364 1.52588 6.92715 1.51949C6.73694 1.51527 6.52199 1.52201 6.44949 1.53452ZM16.8456 11.2698C16.024 11.4153 15.431 11.8285 15.0923 12.4916C14.8974 12.8733 14.8577 13.0437 14.8577 13.4999C14.8577 13.9561 14.8974 14.1264 15.0923 14.5081C15.3963 15.1032 15.9325 15.5159 16.6233 15.6866C16.8945 15.7536 17.4502 15.7484 17.7209 15.6763C18.5577 15.4534 19.1862 14.8335 19.3952 14.025C19.4727 13.7253 19.4727 13.2745 19.3952 12.9747C19.1846 12.1598 18.5543 11.5404 17.7158 11.3238C17.5308 11.2761 16.9974 11.2429 16.8456 11.2698ZM6.60601 18.0154C6.02923 18.0983 5.6217 18.2928 5.23267 18.6708C4.88086 19.0127 4.69139 19.3546 4.59257 19.8258C4.35387 20.9641 5.08212 22.0982 6.26016 22.4229C6.43044 22.4698 6.51419 22.4772 6.86539 22.4763C7.23654 22.4754 7.29242 22.4695 7.4901 22.4105C8.46487 22.1193 9.10768 21.3329 9.15588 20.3726C9.19241 19.6445 8.92194 19.0286 8.3539 18.5465C8.11754 18.3459 7.71431 18.1438 7.40887 18.073C7.20551 18.0259 6.75719 17.9937 6.60601 18.0154Z" fill="#4E50D1"/>
</svg>
