<svg width="24" height="24" viewBox="0 0 24 24" fill="none" xmlns="http://www.w3.org/2000/svg">
<path fill-rule="evenodd" clip-rule="evenodd" d="M11.2642 0.0324969C11.0568 0.0975028 10.8776 0.268198 10.7739 0.499564C10.7337 0.58948 10.73 0.695146 10.73 1.78548V2.97341L10.7948 3.11192C11.0222 3.59788 11.6292 3.72299 12.0132 3.36306C12.075 3.30513 12.1525 3.2048 12.1855 3.14007L12.2455 3.0224V1.78548V0.548552L12.1855 0.430885C12.0156 0.0975763 11.6125 -0.0766954 11.2642 0.0324969ZM1.48722 4.08834C1.31445 4.15692 1.12771 4.34846 1.06107 4.5254C0.992829 4.7066 1.00366 4.97814 1.08564 5.14109C1.16083 5.29053 2.7173 6.85194 2.87154 6.93265C2.96449 6.98129 3.01749 6.99021 3.21374 6.99021C3.47976 6.99021 3.58418 6.94982 3.75149 6.78216C3.91881 6.6145 3.95911 6.50987 3.95911 6.2433C3.95911 6.04664 3.95022 5.99354 3.90167 5.90039C3.82128 5.74613 2.26305 4.18629 2.1138 4.11065C1.95599 4.03068 1.65905 4.02012 1.48722 4.08834ZM20.8984 4.10852C20.7749 4.16919 20.6235 4.30971 19.9402 4.99763C19.0247 5.9192 19.0201 5.92548 19.0201 6.2433C19.0201 6.46323 19.0745 6.60451 19.2202 6.76293C19.379 6.93547 19.5126 6.99036 19.774 6.99036C20.1218 6.99036 20.1163 6.99435 21.0378 6.0741C21.9542 5.15885 21.9741 5.13164 21.973 4.79818C21.9723 4.57201 21.9068 4.4091 21.7586 4.26508C21.5962 4.10715 21.4679 4.05235 21.2406 4.04381C21.0655 4.03719 21.0298 4.04395 20.8984 4.10852ZM12.4103 5.10612C12.183 5.15601 12.0542 5.21284 10.8412 5.79833L9.73024 6.33457L9.27645 6.11023C8.73092 5.84058 8.55249 5.78951 8.1635 5.79176C7.82599 5.79372 7.63002 5.84158 7.30239 6.00207C7.11315 6.09475 7.00714 6.16681 6.86651 6.29841C6.63709 6.51312 6.52956 6.66986 6.32779 7.0837C6.06238 7.62802 5.98443 7.96375 6.00824 8.45997C6.01601 8.62163 6.03821 8.81111 6.05761 8.88104L6.09286 9.00818L5.84405 9.12997C5.42815 9.33351 5.10653 9.61176 4.86278 9.97886C4.67955 10.2548 2.3333 14.9895 2.25307 15.2453C2.03176 15.9507 2.13878 16.7251 2.54238 17.3389C2.7646 17.6768 3.07043 17.9493 3.48873 18.182C3.57946 18.2325 3.65372 18.278 3.65372 18.283C3.65372 18.2881 2.86037 19.3028 1.8907 20.538C0.921063 21.7732 0.0988418 22.8396 0.0635702 22.9078C0.00884176 23.0136 -0.000471096 23.0623 1.77689e-05 23.2409C0.000531077 23.4253 0.00901288 23.4654 0.071832 23.5799C0.29737 23.9911 0.781297 24.1212 1.16684 23.8743C1.26078 23.8141 1.64409 23.3399 3.15896 21.4098C4.19066 20.0954 5.04576 19.0055 5.05921 18.988C5.079 18.9622 5.11389 18.9657 5.24253 19.0065C5.63247 19.1299 5.8443 19.1602 6.33025 19.162C6.82501 19.1638 7.01058 19.1384 7.39353 19.0168C8.19412 18.7626 8.84522 18.2734 9.31697 17.5716C9.46405 17.3528 9.58228 17.1056 10.2515 15.6183C11.0435 13.858 11.0778 13.7548 11.1015 13.0641C11.1213 12.4878 11.0493 12.0552 10.8522 11.5654C10.8051 11.4484 10.7749 11.345 10.785 11.3355C10.8428 11.2812 14.6658 9.44243 14.786 9.41113C15.0767 9.33539 15.3915 9.42906 15.6187 9.65878C15.7626 9.8043 15.7895 9.85664 17.0406 12.4157C17.742 13.8504 18.3292 15.0771 18.3454 15.1418C18.4199 15.4381 18.3096 15.8085 18.0851 16.0158C17.9616 16.1299 17.9561 16.1326 13.8954 18.1166C12.5847 18.757 11.4763 19.3083 11.4325 19.3418C11.3457 19.408 11.2706 19.5019 9.72786 21.4756C9.15511 22.2083 8.66341 22.8531 8.6352 22.9085C8.56236 23.0515 8.54889 23.2972 8.60426 23.4736C8.65803 23.6449 8.80577 23.8163 8.98606 23.9163C9.1031 23.9813 9.13856 23.9887 9.32455 23.9875C9.56028 23.9858 9.71239 23.9293 9.84898 23.7924C9.89154 23.7498 10.277 23.2665 10.7055 22.7185C11.1341 22.1706 11.4926 21.7252 11.5022 21.7288C11.5117 21.7325 11.8801 22.197 12.3208 22.7611C12.7893 23.3609 13.1627 23.8163 13.2199 23.8578C13.3576 23.9578 13.5531 24.0098 13.7355 23.9951C13.9978 23.974 14.2326 23.8101 14.3529 23.5642C14.4427 23.3807 14.4479 23.0946 14.3645 22.9234C14.335 22.8628 13.9054 22.2952 13.4099 21.662C12.8691 20.971 12.5198 20.5045 12.5361 20.4951C12.7358 20.3801 17.299 18.1724 17.3157 18.1828C17.3284 18.1907 18.3241 19.458 19.5284 20.9991C21.2065 23.1465 21.7439 23.8182 21.8285 23.8744C22.204 24.1236 22.7033 23.9899 22.9282 23.5799C22.991 23.4654 22.9995 23.4253 23 23.2409C23.0005 23.0627 22.9911 23.0135 22.9369 22.9088C22.887 22.8122 18.9388 17.724 18.7565 17.5213C18.7118 17.4716 18.7134 17.4695 18.9086 17.3265C19.3949 16.97 19.7209 16.4588 19.8628 15.8298C19.8826 15.7423 19.8945 15.5459 19.8931 15.3304C19.8913 15.0292 19.8813 14.9395 19.8274 14.74C19.7476 14.4447 19.7965 14.5494 18.5519 12.0115C17.9772 10.8395 17.4258 9.71392 17.3266 9.5102C17.0956 9.03545 16.9407 8.79925 16.7092 8.56833C16.2951 8.15542 15.7606 7.90509 15.2128 7.86752L15.0025 7.85309L14.9879 7.58092C14.9659 7.17203 14.899 6.9168 14.7004 6.48425C14.5081 6.06516 14.3656 5.83644 14.1765 5.64351C13.7346 5.19238 13.0148 4.97339 12.4103 5.10612ZM12.3181 6.79718C12.1034 6.89973 11.8315 7.02857 11.7139 7.08351C11.5963 7.13844 11.5 7.18961 11.5 7.19725C11.5 7.20965 13.319 8.12931 13.3435 8.12931C13.3491 8.12931 13.3738 8.07696 13.3984 8.01296C13.4313 7.9277 13.4427 7.83448 13.4414 7.66393C13.4397 7.45155 13.4316 7.41309 13.349 7.22305C13.1782 6.82995 13.1118 6.72637 12.992 6.66582C12.8176 6.57774 12.7497 6.59099 12.3181 6.79718ZM8.01684 7.35573C7.97651 7.37378 7.91383 7.42019 7.87758 7.45887C7.79624 7.54565 7.57202 8.03283 7.54381 8.18407C7.51609 8.33277 7.55163 8.57408 7.62489 8.73442C7.73496 8.97534 7.85434 9.06119 8.61843 9.44892C9.00007 9.64259 9.41548 9.86992 9.54156 9.95408L9.77079 10.1071L10.0671 9.96613C10.2301 9.88858 10.6934 9.66304 11.0967 9.46489L11.83 9.10466L10.0512 8.21283C8.17391 7.27169 8.18977 7.27838 8.01684 7.35573ZM6.58862 10.4801C6.42331 10.5412 6.28733 10.6343 6.19733 10.7482C6.15925 10.7964 5.5796 11.9358 4.90922 13.2803L3.69038 15.7246L3.69104 15.9868C3.69168 16.2252 3.69789 16.2608 3.7598 16.3797C3.90365 16.6561 3.96324 16.6984 4.78969 17.11C5.70441 17.5656 5.82865 17.6097 6.24482 17.6265C6.60148 17.6409 6.82572 17.6039 7.11684 17.4824C7.49013 17.3267 7.87754 16.9987 8.07105 16.6746C8.17357 16.5029 9.42668 13.7226 9.49353 13.5185C9.62528 13.1164 9.6167 12.6739 9.46901 12.2537C9.36197 11.9491 9.22465 11.7246 9.00884 11.5013C8.77201 11.2562 8.62875 11.1689 7.80907 10.7706L7.13688 10.4439L6.92911 10.4375C6.76989 10.4326 6.69033 10.4426 6.58862 10.4801Z" fill="#4E50D1"/>
</svg>
