<svg width="24" height="24" viewBox="0 0 24 24" fill="none" xmlns="http://www.w3.org/2000/svg">
<g clip-path="url(#clip0_8366_23450)">
<path fill-rule="evenodd" clip-rule="evenodd" d="M4.17682 0.0133804C3.68388 0.0683653 3.26715 0.234329 2.85844 0.538475C2.64467 0.697547 1.61269 1.74044 1.38168 2.03085C0.660522 2.93745 0.22444 3.94046 0.0454638 5.10424C-0.014635 5.49516 -0.0152833 6.47296 0.0443113 6.84503C0.180212 7.69319 0.430499 8.42968 0.801609 9.07341C1.06044 9.52237 1.92435 10.7443 2.72319 11.7913C5.92487 15.9876 9.87401 19.7512 14.1915 22.7208C14.7254 23.0881 14.8942 23.193 15.1905 23.3418C15.8532 23.6746 16.5962 23.8946 17.33 23.9752C17.6632 24.0118 18.4654 24.007 18.7905 23.9665C19.9666 23.8199 21.0263 23.3691 21.983 22.6085C22.3699 22.3008 23.3839 21.2742 23.5512 21.0208C24.1475 20.1174 24.1497 19.0214 23.557 18.1061C23.4437 17.9311 19.9372 14.4047 19.7019 14.2292C19.2299 13.877 18.7376 13.7147 18.1413 13.7147C17.4429 13.7147 16.8949 13.9312 16.351 14.4221C16.0909 14.6568 15.8798 14.7577 15.6141 14.7742C15.3738 14.7892 15.161 14.7414 14.9793 14.6315C14.8969 14.5817 13.93 13.63 12.12 11.8171C9.55863 9.25164 9.38119 9.06861 9.32051 8.92925C9.19458 8.63997 9.19741 8.27258 9.32767 8.00272C9.36815 7.91885 9.47944 7.76475 9.5818 7.65086C9.90952 7.28614 10.0905 6.96357 10.2118 6.52768C10.2719 6.31194 10.2772 6.25756 10.2772 5.86059C10.2772 5.46203 10.272 5.40969 10.2106 5.18828C10.1307 4.89989 9.97677 4.57439 9.81638 4.35472C9.677 4.16376 6.23235 0.696779 6.01863 0.532304C5.51827 0.147289 4.79735 -0.055819 4.17682 0.0133804ZM4.17903 1.53649C3.91023 1.60321 3.82292 1.67042 3.23027 2.26695C2.49182 3.01023 2.27267 3.29526 1.98109 3.89169C1.49 4.89621 1.36769 6.08009 1.64436 7.15057C1.75865 7.59271 1.94 8.04051 2.14107 8.37702C2.38627 8.78742 3.31728 10.0931 3.98497 10.9629C6.8269 14.6653 10.2659 18.0189 14.0354 20.7637C14.6533 21.2137 15.3801 21.7163 15.6056 21.8496C16.3715 22.3024 17.323 22.5432 18.1893 22.5035C19.2517 22.4548 20.1913 22.1051 21.0119 21.453C21.2634 21.2532 22.1559 20.3748 22.2869 20.1982C22.4365 19.9966 22.4955 19.7872 22.4831 19.5024C22.4747 19.3093 22.4624 19.2578 22.3873 19.0997C22.3035 18.9232 22.2542 18.8715 20.5442 17.1677C19.4398 16.0672 18.7453 15.3928 18.6743 15.3521C18.4433 15.2193 18.1345 15.1797 17.8695 15.2487C17.6652 15.3019 17.5676 15.3598 17.3203 15.5744C16.8524 15.9805 16.4471 16.1774 15.9143 16.2577C15.6203 16.3021 15.4528 16.3022 15.1619 16.2583C14.6834 16.1862 14.2737 16.0064 13.8984 15.7038C13.7955 15.6208 12.4897 14.3284 10.9967 12.8317C8.93247 10.7625 8.25511 10.0693 8.16939 9.93862C8.00734 9.69157 7.87552 9.40198 7.7995 9.12607C7.73926 8.90733 7.73338 8.84963 7.73364 8.47777C7.73396 8.00872 7.77182 7.80986 7.93118 7.44019C8.0465 7.17271 8.18742 6.95932 8.44294 6.66526C8.55181 6.53997 8.6655 6.3833 8.69558 6.3171C8.78123 6.12862 8.8123 5.89864 8.77957 5.69541C8.72101 5.33179 8.78661 5.40767 6.84969 3.46271C5.4235 2.03063 5.06771 1.68557 4.96579 1.63572C4.70491 1.50808 4.4321 1.47367 4.17903 1.53649Z" fill="#4E50D1"/>
</g>
<defs>
<clipPath id="clip0_8366_23450">
<rect width="24" height="24" fill="white"/>
</clipPath>
</defs>
</svg>
