<svg width="24" height="24" viewBox="0 0 24 24" fill="none" xmlns="http://www.w3.org/2000/svg">
<path fill-rule="evenodd" clip-rule="evenodd" d="M1.88317 1.03327C1.0291 1.17609 0.338733 1.78408 0.0662066 2.63338L0.000119939 2.83934V11.9973V21.1552L0.0662066 21.3612C0.342283 22.2216 1.03424 22.8239 1.90716 22.9634C2.21221 23.0122 21.7519 23.0122 22.057 22.9634C22.7837 22.8472 23.4032 22.3995 23.7387 21.7481C23.8376 21.556 23.952 21.2059 23.952 21.0954C23.952 21.0589 23.9628 21.0225 23.976 21.0145C23.9919 21.0049 24 17.9655 24 11.9724C24 5.96969 23.992 2.94487 23.976 2.94487C23.9628 2.94487 23.952 2.91438 23.952 2.87714C23.952 2.7804 23.8421 2.41964 23.7599 2.24641C23.5138 1.7281 23.0306 1.30613 22.4676 1.11783C22.0922 0.992319 22.645 0.998463 11.9581 1.0009C4.02498 1.00273 2.02741 1.00913 1.88317 1.03327ZM1.98493 2.52562C1.82497 2.58578 1.63677 2.76284 1.55888 2.92642L1.49984 3.05041L1.4996 4.70962L1.49936 6.36884H11.9827H22.466L22.4594 4.67445L22.4528 2.98005L22.3889 2.86279C22.3124 2.7221 22.203 2.61652 22.057 2.54237L21.949 2.48756L12.03 2.48287C2.12461 2.47816 2.11089 2.47823 1.98493 2.52562ZM0.000119939 11.9973C0.000119939 16.9697 0.00275861 19.0038 0.00611691 16.5176C0.00947521 14.0314 0.00947521 9.96314 0.00611691 7.47694C0.00275861 4.99076 0.000119939 7.02491 0.000119939 11.9973ZM4.07173 3.55603C3.67468 3.63255 3.35571 3.95272 3.30208 4.32853C3.25767 4.63971 3.34557 4.90613 3.56436 5.12343C3.9437 5.50019 4.52131 5.49941 4.90773 5.12163C5.27328 4.76424 5.2746 4.17619 4.91066 3.8268C4.75924 3.68145 4.61668 3.60431 4.42589 3.56452C4.25264 3.52838 4.21935 3.52758 4.07173 3.55603ZM7.52761 3.56649C6.80505 3.72003 6.53893 4.60979 7.06247 5.12163C7.37308 5.42528 7.79417 5.48806 8.19198 5.28999C8.31674 5.22786 8.51932 5.01874 8.58687 4.88232C8.66598 4.72252 8.69592 4.51926 8.66838 4.32853C8.61273 3.94308 8.29532 3.63159 7.87966 3.55453C7.72712 3.52624 7.71501 3.52667 7.52761 3.56649ZM10.9548 3.55509C10.6636 3.6144 10.402 3.81787 10.2746 4.08402C10.0714 4.50845 10.2199 5.00122 10.6279 5.25654C11.0207 5.50239 11.5009 5.43998 11.8253 5.10092C12.124 4.7887 12.164 4.31659 11.922 3.96017C11.7163 3.65732 11.3029 3.48417 10.9548 3.55509ZM1.4996 14.3952L1.49984 20.9442L1.55871 21.0678C1.63701 21.2322 1.83047 21.411 1.99522 21.4713C2.12454 21.5186 2.14776 21.5187 11.9821 21.5187C21.8164 21.5187 21.8396 21.5186 21.9689 21.4713C22.1337 21.411 22.3271 21.2322 22.4054 21.0678L22.4643 20.9442L22.4645 14.3952L22.4648 7.84631H11.9821H1.49936L1.4996 14.3952Z" fill="#4E50D1"/>
</svg>
