<svg width="24" height="24" viewBox="0 0 24 24" fill="none" xmlns="http://www.w3.org/2000/svg">
<path fill-rule="evenodd" clip-rule="evenodd" d="M7.43905 0.0054972C7.40552 0.0104937 7.29576 0.0262759 7.19515 0.0405687C6.86615 0.0872907 6.42115 0.226015 6.12006 0.375718C5.12304 0.871404 4.3768 1.77738 4.11256 2.81295C3.99436 3.27618 4.00004 2.81175 4.00004 12.0012C4.00004 19.6372 4.00419 20.6031 4.03792 20.8114C4.16924 21.6228 4.50075 22.282 5.07192 22.8677C5.6065 23.4159 6.2652 23.7704 7.0732 23.9447L7.3293 24H12H16.6707L16.9268 23.9447C17.6987 23.7782 18.2957 23.4695 18.8381 22.9563C19.338 22.4834 19.7202 21.8402 19.8878 21.1895C20.0051 20.7344 20 21.1512 20 12.0012C20 2.85124 20.0051 3.26801 19.8878 2.81295C19.5551 1.5214 18.4952 0.463565 17.1895 0.119864C16.7319 -0.000580266 17.0242 0.00624187 12.0976 0.00114929C9.56892 -0.00144504 7.47259 0.00050071 7.43905 0.0054972ZM7.36864 1.54069C6.48771 1.72998 5.84108 2.33206 5.59096 3.19588C5.55138 3.33256 5.54882 3.86779 5.54882 11.9892C5.54882 19.3238 5.55401 20.6569 5.58296 20.7682C5.79235 21.5723 6.37101 22.168 7.18793 22.4204L7.40247 22.4866H12H16.5975L16.8121 22.4204C17.5132 22.2038 18.0552 21.7224 18.3047 21.0949C18.4096 20.8312 18.4342 20.7236 18.4628 20.4055C18.4965 20.0307 18.4965 3.9717 18.4628 3.59689C18.4342 3.2788 18.4096 3.17126 18.3047 2.90747C18.0552 2.27998 17.5132 1.79864 16.8121 1.58206L16.5975 1.51578L12.061 1.51151C8.26141 1.5079 7.4991 1.51266 7.36864 1.54069ZM11.7816 2.53891C11.5133 2.5907 11.221 2.81528 11.0901 3.07008C10.8406 3.55577 11.0567 4.18309 11.5535 4.41514C12.1759 4.7059 12.8961 4.33585 13.0007 3.67153C13.1102 2.9768 12.4913 2.40189 11.7816 2.53891Z" fill="#4E50D1"/>
</svg>
