<svg width="24" height="24" viewBox="0 0 24 24" fill="none" xmlns="http://www.w3.org/2000/svg">
<g clip-path="url(#clip0_8366_23845)">
<path d="M8.99998 9.26953C8.99998 9.66736 9.31605 10.0489 9.87866 10.3302C10.4413 10.6115 11.2043 10.7695 12 10.7695C12.7956 10.7695 13.5587 10.6115 14.1213 10.3302C14.6839 10.0489 15 9.66736 15 9.26953C15 8.87171 14.6839 8.49018 14.1213 8.20887C13.5587 7.92757 12.7956 7.76953 12 7.76953C11.2043 7.76953 10.4413 7.92757 9.87866 8.20887C9.31605 8.49018 8.99998 8.87171 8.99998 9.26953Z" fill="#4E50D1"/>
<path d="M8.99998 3.76953C8.99998 4.16736 9.31605 4.54889 9.87866 4.83019C10.4413 5.1115 11.2043 5.26953 12 5.26953C12.7956 5.26953 13.5587 5.1115 14.1213 4.83019C14.6839 4.54889 15 4.16736 15 3.76953C15 3.37171 14.6839 2.99018 14.1213 2.70887C13.5587 2.42757 12.7956 2.26953 12 2.26953C11.2043 2.26953 10.4413 2.42757 9.87866 2.70887C9.31605 2.99018 8.99998 3.37171 8.99998 3.76953Z" fill="#4E50D1"/>
<path d="M15.5 6.26953C15.5 6.66736 15.816 7.04889 16.3787 7.33019C16.9413 7.6115 17.7043 7.76953 18.5 7.76953C19.2956 7.76953 20.0587 7.6115 20.6213 7.33019C21.1839 7.04889 21.5 6.66736 21.5 6.26953C21.5 5.87171 21.1839 5.49018 20.6213 5.20887C20.0587 4.92757 19.2956 4.76953 18.5 4.76953C17.7043 4.76953 16.9413 4.92757 16.3787 5.20887C15.816 5.49018 15.5 5.87171 15.5 6.26953Z" fill="#4E50D1"/>
<path d="M2.99998 6.26953C2.99998 6.66736 3.31605 7.04889 3.87866 7.33019C4.44127 7.6115 5.20433 7.76953 5.99998 7.76953C6.79563 7.76953 7.55869 7.6115 8.1213 7.33019C8.68391 7.04889 8.99998 6.66736 8.99998 6.26953C8.99998 5.87171 8.68391 5.49018 8.1213 5.20887C7.55869 4.92757 6.79563 4.76953 5.99998 4.76953C5.20433 4.76953 4.44127 4.92757 3.87866 5.20887C3.31605 5.49018 2.99998 5.87171 2.99998 6.26953Z" fill="#4E50D1"/>
<path d="M0.899979 17.4895L10.55 21.6895C10.6228 21.7264 10.7033 21.7457 10.785 21.7457C10.8666 21.7457 10.9471 21.7264 11.02 21.6895C11.091 21.645 11.1495 21.5831 11.1898 21.5095C11.23 21.436 11.2508 21.3534 11.25 21.2695V13.2695C11.2491 13.1722 11.2203 13.0772 11.1672 12.9957C11.114 12.9142 11.0387 12.8496 10.95 12.8095L0.699979 8.30953C0.627139 8.27263 0.546633 8.2534 0.464979 8.2534C0.383325 8.2534 0.302819 8.27263 0.229979 8.30953C0.15278 8.35736 0.0903915 8.4257 0.0497778 8.50693C0.00916408 8.58816 -0.00807707 8.67907 -2.12562e-05 8.76953V16.1195C0.000905466 16.4106 0.0864879 16.6951 0.246293 16.9383C0.406098 17.1816 0.633222 17.3731 0.899979 17.4895Z" fill="#4E50D1"/>
<path d="M12.75 13.2295V21.2295C12.7492 21.3134 12.7699 21.396 12.8102 21.4695C12.8504 21.5431 12.9089 21.605 12.98 21.6495C13.0528 21.6864 13.1333 21.7057 13.215 21.7057C13.2966 21.7057 13.3771 21.6864 13.45 21.6495L23.1 17.4495C23.3667 17.3331 23.5939 17.1416 23.7537 16.8983C23.9135 16.6551 23.9991 16.3706 24 16.0795V8.76953C24.0008 8.6857 23.98 8.60306 23.9398 8.52952C23.8995 8.45599 23.841 8.39401 23.77 8.34953C23.6971 8.31263 23.6166 8.2934 23.535 8.2934C23.4533 8.2934 23.3728 8.31263 23.3 8.34953L13.05 12.7695C12.9613 12.8096 12.8859 12.8742 12.8328 12.9557C12.7796 13.0372 12.7509 13.1322 12.75 13.2295Z" fill="#4E50D1"/>
</g>
<defs>
<clipPath id="clip0_8366_23845">
<rect width="24" height="24" fill="white"/>
</clipPath>
</defs>
</svg>
