<svg width="24" height="24" viewBox="0 0 24 24" fill="none" xmlns="http://www.w3.org/2000/svg">
<g clip-path="url(#clip0_8366_23889)">
<path d="M8.24976 23.25V17.25C8.24976 16.8358 8.58555 16.5 8.99976 16.5H16.4998C16.914 16.5 17.2498 16.8358 17.2498 17.25V19.3301L22.1209 15L17.2498 10.6699V12.75C17.2498 13.1642 16.914 13.5 16.4998 13.5H8.99976C8.58555 13.5 8.24976 13.1642 8.24976 12.75V7.5C8.24976 7.08579 8.58555 6.75 8.99976 6.75H11.0798L6.74976 1.87793L2.41968 6.75H4.49976C4.91397 6.75 5.24976 7.08579 5.24976 7.5V23.25C5.24976 23.6642 4.91397 24 4.49976 24C4.08555 24 3.74976 23.6642 3.74976 23.25V8.25H0.749761C0.454478 8.25 0.186216 8.07695 0.0651908 7.80762C-0.0557765 7.53824 -0.00691156 7.22269 0.189214 7.00195L6.18921 0.251953L6.24585 0.195312C6.38317 0.0705587 6.56235 0 6.74976 0C6.96399 0 7.16798 0.0918368 7.31031 0.251953L13.3103 7.00195C13.5064 7.22269 13.5553 7.53824 13.4343 7.80762C13.3133 8.07695 13.045 8.25 12.7498 8.25H9.74976V12H15.7498V9C15.7498 8.70472 15.9228 8.43645 16.1921 8.31543C16.4615 8.19446 16.7771 8.24333 16.9978 8.43945L23.7478 14.4395C23.9079 14.5818 23.9998 14.7858 23.9998 15C23.9998 15.2142 23.9079 15.4182 23.7478 15.5605L16.9978 21.5605C16.7771 21.7567 16.4615 21.8055 16.1921 21.6846C15.9228 21.5635 15.7498 21.2953 15.7498 21V18H9.74976V23.25C9.74976 23.6642 9.41397 24 8.99976 24C8.58555 24 8.24976 23.6642 8.24976 23.25Z" fill="#4E50D1"/>
</g>
<defs>
<clipPath id="clip0_8366_23889">
<rect width="24" height="24" fill="white"/>
</clipPath>
</defs>
</svg>
