<svg width="24" height="24" viewBox="0 0 24 24" fill="none" xmlns="http://www.w3.org/2000/svg">
<g clip-path="url(#clip0_8366_23516)">
<path fill-rule="evenodd" clip-rule="evenodd" d="M11.4583 0.0374757C10.2983 0.222588 9.35543 0.923268 8.85604 1.9714C8.63843 2.42812 8.53562 2.88661 8.53236 3.4148L8.53032 3.74428L4.89432 3.75104C0.868987 3.75851 1.17636 3.74646 0.826315 3.91079C0.434539 4.09472 0.132211 4.46444 0.0344113 4.87924C-0.0109007 5.07145 -0.0115727 5.48204 0.0330433 5.71333C0.230803 6.73825 1.09341 7.91401 2.24884 8.73352C3.05421 9.30472 3.9082 9.67655 4.84363 9.86327C5.31861 9.95807 5.63138 9.98768 6.14918 9.98684C6.94327 9.98555 7.66137 9.85679 8.46614 9.57143C8.78335 9.45894 8.93109 9.35504 9.02846 9.17593C9.24628 8.77535 9.09614 8.30761 8.68912 8.1188C8.4792 8.02144 8.31184 8.03156 7.90632 8.16625C7.48041 8.30768 7.366 8.33881 7.04884 8.39944C5.58916 8.67848 3.99722 8.2598 2.84232 7.29313C2.56473 7.06079 2.18032 6.6634 2.00935 6.43201C1.73714 6.06366 1.54872 5.6679 1.49865 5.35933L1.48209 5.25733H5.2614H9.04072L9.18883 5.46119C9.63403 6.07396 10.2723 6.51952 11.0143 6.73556L11.1943 6.78798L11.2004 11.2546L11.2064 15.7213L10.0004 15.7209C9.33705 15.7206 8.72952 15.7108 8.65032 15.6992C8.32411 15.6511 8.03642 15.4811 7.84063 15.2206C7.66077 14.9814 7.61949 14.849 7.61887 14.5093C7.61834 14.2341 7.62175 14.2141 7.69576 14.0578C7.89943 13.6278 8.32603 13.3723 8.84448 13.3698C8.97285 13.3692 9.21228 13.2493 9.31197 13.1358C9.51919 12.8997 9.56551 12.5675 9.42919 12.2947C9.35047 12.1371 9.24842 12.0334 9.08764 11.9475C8.99599 11.8985 8.95428 11.8934 8.65032 11.8944C8.36162 11.8953 8.28052 11.9047 8.07432 11.9608C7.29794 12.172 6.67476 12.6971 6.3318 13.4289C5.93296 14.28 6.04795 15.3328 6.62404 16.1045C7.04611 16.6698 7.63982 17.0417 8.32891 17.1724C8.48961 17.2029 8.75791 17.2093 9.86495 17.2093H11.2063V18.3832V19.5572L10.5883 19.5672C10.0403 19.5762 9.94864 19.5834 9.77904 19.631C8.95672 19.862 8.3496 20.4643 8.0952 21.3013C8.0345 21.5011 8.02944 21.5499 8.02795 21.9493C8.02651 22.3297 8.03296 22.4057 8.08197 22.5853C8.20418 23.0331 8.39512 23.3728 8.69726 23.68C8.93551 23.9222 9.08198 23.9887 9.33775 23.9711C9.74152 23.9433 10.0327 23.6311 10.0343 23.2243C10.0352 23.0039 9.98971 22.8935 9.81062 22.6813C9.59205 22.4223 9.52471 22.2612 9.52216 21.9914C9.52024 21.7874 9.53954 21.6945 9.61478 21.5452C9.74282 21.2911 9.97766 21.1191 10.2596 21.073C10.3381 21.0601 10.5828 21.0495 10.8035 21.0495L11.2046 21.0493L11.2115 22.2433C11.2183 23.4313 11.2186 23.4379 11.2735 23.5573C11.4761 23.9979 12.0301 24.138 12.4132 23.8455C12.5479 23.7427 12.658 23.5691 12.6919 23.4062C12.7089 23.3241 12.7183 22.8834 12.7183 22.1642V21.0493H13.4232C13.9499 21.0493 14.1815 21.04 14.3399 21.0124C15.7023 20.7748 16.6609 19.5178 16.5315 18.1387C16.4968 17.7696 16.4257 17.5208 16.2582 17.1817C15.9323 16.5223 15.2855 15.9982 14.5538 15.8007C14.3207 15.7378 14.2931 15.7358 13.5163 15.727L12.7183 15.7179V11.2549C12.7183 7.70492 12.7245 6.79009 12.7483 6.7834C13.4546 6.58475 13.9513 6.30224 14.4035 5.84188C14.5807 5.66152 14.8543 5.31872 14.8543 5.27711C14.8543 5.26624 16.5553 5.25733 18.6343 5.25733H22.4143V5.33881C22.4143 5.53362 22.2461 5.93269 22.0239 6.26533C21.6884 6.76741 21.1166 7.3197 20.5783 7.66158C19.7149 8.20998 18.8039 8.47744 17.7943 8.47888C17.1588 8.47981 16.6763 8.39536 16.0063 8.16592C15.5305 8.00298 15.3181 8.01807 15.0452 8.23417C14.9258 8.32883 14.8017 8.57596 14.7875 8.74772C14.766 9.00611 14.8982 9.27277 15.1225 9.42378C15.2488 9.50876 15.8447 9.71392 16.2288 9.80461C18.2024 10.2707 20.2037 9.84731 21.8263 8.62052C22.7239 7.94195 23.4683 6.99493 23.7677 6.15095C24.1627 5.03744 23.7953 4.10555 22.8461 3.81337L22.6663 3.75803L19.0264 3.75109L15.3864 3.74416V3.43554C15.3864 3.0662 15.3551 2.83472 15.2595 2.49733C14.9977 1.57343 14.3522 0.793692 13.4961 0.36714C12.8639 0.0520678 12.1205 -0.0681963 11.4583 0.0374757ZM11.5316 1.55152C11.2314 1.61848 11.0116 1.72585 10.7535 1.93156C10.4466 2.17621 10.2088 2.534 10.0976 2.9187C10.0245 3.17142 10.0191 3.70079 10.0872 3.92533C10.2909 4.59618 10.7592 5.08525 11.3863 5.28198C11.5967 5.34798 12.0805 5.3732 12.3236 5.33087C12.6934 5.26648 13.0268 5.08792 13.3145 4.80016C13.517 4.59772 13.628 4.435 13.7361 4.18249C13.8517 3.91242 13.8811 3.75301 13.8786 3.40933C13.8768 3.15757 13.8661 3.0746 13.812 2.89333C13.6285 2.2785 13.1566 1.79713 12.5383 1.59416C12.2919 1.51328 11.7969 1.49231 11.5316 1.55152ZM14.9143 11.9132C14.7765 11.9673 14.6941 12.0229 14.6038 12.1228C14.4656 12.2758 14.4141 12.4127 14.4138 12.628C14.4134 12.8592 14.4899 13.0297 14.6642 13.1865C14.8041 13.3122 14.935 13.3596 15.2023 13.3813C15.5667 13.4108 15.7859 13.5096 16.0035 13.7421C16.2906 14.049 16.378 14.4117 16.2683 14.8413C16.1871 15.1593 16.2044 15.3528 16.3321 15.5558C16.5208 15.8558 16.9403 15.982 17.2602 15.835C17.5168 15.717 17.6296 15.5689 17.7239 15.226C17.9807 14.2926 17.7251 13.3273 17.0411 12.6479C16.6518 12.2611 16.1957 12.0209 15.6536 11.9172C15.4337 11.8751 15.0172 11.8729 14.9143 11.9132ZM12.7183 18.3853V19.5613H13.2649C13.9532 19.5613 14.1642 19.5366 14.3869 19.4297C14.7162 19.2716 14.9716 18.9229 15.0288 18.5533C15.1243 17.9368 14.6673 17.3207 14.0503 17.2339C13.9579 17.2209 13.6204 17.2101 13.3003 17.2098L12.7183 17.2093V18.3853Z" fill="#4E50D1"/>
</g>
<defs>
<clipPath id="clip0_8366_23516">
<rect width="24" height="24" fill="white"/>
</clipPath>
</defs>
</svg>
