<svg width="24" height="24" viewBox="0 0 24 24" fill="none" xmlns="http://www.w3.org/2000/svg">
<path fill-rule="evenodd" clip-rule="evenodd" d="M21.3957 1.51825C21.166 1.54996 21.8433 1.33724 14.1982 3.77858L7.542 5.90412H6.14438C5.04423 5.90412 4.68355 5.91258 4.44978 5.9439C2.28435 6.23398 0.54634 7.88523 0.102067 10.0746C-0.166961 11.4003 0.102915 12.8488 0.828044 13.9714C1.62381 15.2033 2.75801 15.9664 4.24913 16.2729L4.30699 16.2848V16.9662C4.30699 17.427 4.31977 17.748 4.34649 17.9577C4.62652 20.1558 6.26524 21.957 8.38223 22.3936C8.78868 22.4775 9.35096 22.5233 9.53824 22.488C9.8096 22.4367 10.0181 22.2764 10.1438 22.0223C10.2387 21.8306 10.2355 21.5304 10.1362 21.3236C10.0049 21.0497 9.70919 20.8562 9.42224 20.8562C9.3515 20.8562 9.18124 20.8436 9.04392 20.8283C7.76328 20.685 6.66621 19.845 6.18398 18.6385C5.9725 18.1094 5.92709 17.8175 5.92704 16.9868L5.92702 16.3364H6.73451H7.542L14.1982 18.4619C17.8591 19.631 20.9354 20.6119 21.0344 20.6416C21.6898 20.8388 22.4083 20.7313 22.9547 20.3545C23.4459 20.0156 23.8023 19.4897 23.9477 18.8893C23.9863 18.7296 23.9907 18.078 23.9981 11.3173C24.0035 6.37967 23.9974 3.82948 23.9798 3.64748C23.9073 2.90109 23.5363 2.27313 22.9315 1.87334C22.4939 1.58405 21.905 1.4479 21.3957 1.51825ZM21.5101 3.17425C21.4223 3.20126 8.74779 7.24612 8.58206 7.30002L8.49849 7.32719V11.1203V14.9133L8.58206 14.9405C8.62804 14.9555 11.5585 15.8925 15.0943 17.0229C20.9776 18.9038 21.5383 19.0783 21.703 19.0795C21.8402 19.0805 21.9083 19.0672 21.9893 19.0235C22.1326 18.9463 22.253 18.8187 22.3179 18.6754L22.3716 18.5569V11.1203V3.68364L22.3179 3.5651C22.2527 3.42118 22.1313 3.29292 21.9912 3.21984C21.8695 3.15643 21.6391 3.13459 21.5101 3.17425ZM4.85985 7.56085C4.42893 7.59389 4.09078 7.68118 3.67698 7.86623C2.33629 8.46578 1.48287 9.95518 1.62968 11.4393C1.71065 12.2579 2.01907 12.965 2.54982 13.5489C2.89736 13.9311 3.3108 14.2236 3.78225 14.4206C4.3462 14.6562 4.74512 14.7057 6.08773 14.7066L6.87846 14.7072V11.1203V7.53334L5.99773 7.53723C5.51332 7.53939 5.00129 7.55 4.85985 7.56085Z" fill="#4E50D1"/>
</svg>
