<svg width="24" height="24" viewBox="0 0 24 24" fill="none" xmlns="http://www.w3.org/2000/svg">
<g clip-path="url(#clip0_8366_23345)">
<path d="M12.7395 0.000976574C14.4796 -0.00222546 16.1968 0.397855 17.7557 1.17189C19.315 1.94615 20.6737 3.07271 21.7241 4.46197C22.7742 5.85115 23.4876 7.46563 23.8082 9.17784C24.1289 10.8902 24.0475 12.6537 23.5711 14.3293C23.0947 16.0049 22.2358 17.5474 21.0625 18.8342C19.8893 20.1207 18.4336 21.1168 16.8102 21.7444C15.1866 22.372 13.439 22.6138 11.7061 22.4505C10.1108 22.3 8.56785 21.8096 7.17969 21.0149L1.07157 23.927C0.785147 24.0635 0.444087 24.0051 0.219748 23.7805C-0.00456702 23.556 -0.0629926 23.2147 0.0733876 22.928L2.98109 16.8146C2.05714 15.1985 1.54747 13.3757 1.50187 11.5099C1.45289 9.50558 1.94079 7.52451 2.91474 5.77253C3.88884 4.02044 5.3144 2.56091 7.04211 1.54592C8.76891 0.531505 10.7353 -0.00137194 12.7375 0.000976574H12.7385L12.7404 0L12.7395 0.000976574ZM12.7385 1.50002C11.0026 1.49751 9.29731 1.96039 7.80026 2.83988C6.30338 3.71935 5.06914 4.98398 4.22516 6.50203C3.38124 8.02003 2.95823 9.73614 3.0006 11.4728C3.04305 13.2096 3.54896 14.904 4.46616 16.3791C4.60105 16.5961 4.61595 16.8671 4.50617 17.0979L2.3332 21.6643L6.89673 19.4895L6.98455 19.4533C7.19385 19.3843 7.42503 19.4113 7.61487 19.5295C8.89587 20.327 10.3447 20.8157 11.8467 20.9573C13.3484 21.0988 14.8626 20.8898 16.2697 20.3459C17.6769 19.802 18.9391 18.9377 19.956 17.8225C20.9728 16.7073 21.7171 15.3711 22.13 13.9191C22.5428 12.4669 22.6127 10.9382 22.3349 9.45421C22.057 7.97033 21.4389 6.57119 20.5288 5.36725C19.6185 4.16323 18.4407 3.18668 17.0893 2.51565C15.7381 1.8448 14.2497 1.49712 12.7414 1.50002H12.7385ZM10.0415 11.5001C10.0415 11.0859 9.70603 10.7501 9.29217 10.7501C8.8783 10.7501 8.5428 11.0859 8.5428 11.5001C8.5428 11.9144 8.8783 12.2501 9.29217 12.2501C9.70603 12.2501 10.0415 11.9144 10.0415 11.5001ZM16.8366 11.5001C16.8366 11.0861 16.5009 10.7504 16.0872 10.7501C15.6733 10.7501 15.3378 11.0859 15.3378 11.5001C15.3378 11.9144 15.6733 12.2501 16.0872 12.2501C16.5009 12.2499 16.8366 11.9142 16.8366 11.5001ZM11.5403 11.5001C11.5403 12.7428 10.5338 13.7502 9.29217 13.7502C8.05057 13.7502 7.04407 12.7428 7.04407 11.5001C7.04407 10.2575 8.05057 9.25011 9.29217 9.25011C10.5338 9.25011 11.5403 10.2575 11.5403 11.5001ZM18.3353 11.5001C18.3353 12.7426 17.3286 13.7499 16.0872 13.7502C14.8456 13.7502 13.8391 12.7428 13.8391 11.5001C13.8391 10.2575 14.8456 9.25011 16.0872 9.25011C17.3286 9.25037 18.3353 10.2576 18.3353 11.5001Z" fill="#4E50D1"/>
</g>
<defs>
<clipPath id="clip0_8366_23345">
<rect width="24" height="24" fill="white"/>
</clipPath>
</defs>
</svg>
