<svg width="24" height="24" viewBox="0 0 24 24" fill="none" xmlns="http://www.w3.org/2000/svg">
<g clip-path="url(#clip0_8366_23571)">
<path fill-rule="evenodd" clip-rule="evenodd" d="M14.4206 0.0569999C14.2242 0.150336 14.0656 0.335999 14.0057 0.542639C13.9839 0.617735 13.977 1.77988 13.9769 5.39063L13.9768 10.1398L13.827 10.2178C13.6681 10.3005 13.4676 10.4615 13.3263 10.6198C13.2525 10.7025 12.6977 11.5766 10.3481 15.3118C10.1115 15.688 9.83188 16.1335 9.72678 16.3018C9.62168 16.4701 9.52876 16.6074 9.52027 16.607C9.5118 16.6065 9.04087 16.0049 8.47376 15.2701C7.20972 13.6322 7.25257 13.6842 7.09303 13.5958C6.97565 13.5308 6.94218 13.5238 6.74725 13.5238C6.507 13.5238 6.38893 13.5672 6.23481 13.7119C6.15319 13.7886 0.167372 22.7513 0.0674026 22.9465C-0.0127123 23.103 -0.0225918 23.3482 0.0441187 23.5251C0.108743 23.6964 0.266119 23.8629 0.437787 23.9416L0.565333 24L12.0011 23.9939L23.4369 23.9878L23.5577 23.9239C23.7169 23.8398 23.8662 23.6744 23.9202 23.5224C23.9441 23.455 23.9719 23.3998 23.982 23.3998C24.0062 23.3998 24.0059 23.0942 23.9818 23.0838C23.9715 23.0794 23.9461 23.0326 23.9253 22.9798C23.9045 22.927 22.7889 21.1396 21.4463 19.0078C20.1037 16.876 18.9382 15.0238 18.8564 14.8918C18.1512 13.7546 16.2155 10.7062 16.143 10.6185C16.0375 10.491 15.7384 10.2582 15.5897 10.1878L15.4883 10.1398L15.488 8.41784L15.4877 6.69584L18.7909 6.69555C22.2991 6.69527 22.1814 6.69887 22.4428 6.58314C23.1583 6.26639 23.4048 5.35235 22.9528 4.69185C22.8986 4.61265 22.6377 4.27297 22.3729 3.937C21.9576 3.41006 21.8959 3.32106 21.9233 3.289C22.0486 3.14239 22.8825 2.09959 22.9529 2.00128C23.3669 1.42377 23.2021 0.575735 22.6022 0.196536C22.2818 -0.006 22.6941 0.0126 18.3772 0.00592799L14.5405 0L14.4206 0.0569999ZM15.4877 3.34785V5.20785H18.4611C20.0965 5.20785 21.4346 5.2018 21.4346 5.19443C21.4346 5.18704 21.231 4.92181 20.9822 4.60506C20.408 3.87395 20.3321 3.72448 20.3321 3.32385C20.3321 2.93342 20.4185 2.75944 20.9258 2.12834C21.1294 1.87507 21.328 1.62736 21.3673 1.57785L21.4386 1.48785H18.4632H15.4877V3.34785ZM14.5441 11.538C14.4438 11.5993 12.3179 14.9772 12.3553 15.0158C12.4036 15.0656 14.6734 16.5838 14.6996 16.5838C14.7136 16.5838 15.2629 16.2162 15.9203 15.7669L17.1156 14.95L16.8694 14.5609C16.734 14.3469 16.2571 13.5895 15.8097 12.8778C15.2292 11.9545 14.9755 11.5713 14.9242 11.5399C14.8307 11.4828 14.6357 11.4818 14.5441 11.538ZM4.4708 19.0234L2.15516 22.4998L2.7247 22.5075C3.03794 22.5117 3.86614 22.5077 4.56513 22.4987L5.83604 22.4822L7.24708 20.2402C8.02314 19.0071 8.65277 17.9842 8.64625 17.9672C8.638 17.9457 6.89765 15.6803 6.79344 15.5554C6.7896 15.5508 5.74441 17.1114 4.4708 19.0234ZM16.4923 17.1987C15.709 17.734 15.0303 18.1883 14.9841 18.2083C14.844 18.2688 14.6309 18.2753 14.4806 18.2237C14.3921 18.1933 13.8915 17.8706 12.9592 17.2431C12.195 16.7287 11.5584 16.3007 11.5445 16.292C11.5296 16.2827 11.381 16.4959 11.1849 16.808C10.4899 17.9137 10.136 18.4762 8.89697 20.4439C8.19601 21.5571 7.6225 22.4724 7.6225 22.4779C7.6225 22.4833 10.8219 22.4878 14.7324 22.4878C18.6428 22.4878 21.8422 22.4822 21.8422 22.4753C21.8422 22.4683 21.0148 21.1481 20.0034 19.5413C18.992 17.9345 18.1087 16.5311 18.0405 16.4226L17.9165 16.2253L16.4923 17.1987ZM0.00493645 23.2678C0.00505635 23.3602 0.00937263 23.3951 0.0145761 23.3453C0.0197557 23.2955 0.0196837 23.2199 0.0143843 23.1773C0.00908487 23.1347 0.00484053 23.1754 0.00493645 23.2678Z" fill="#4E50D1"/>
</g>
<defs>
<clipPath id="clip0_8366_23571">
<rect width="24" height="24" fill="white"/>
</clipPath>
</defs>
</svg>
