<svg width="24" height="24" viewBox="0 0 24 24" fill="none" xmlns="http://www.w3.org/2000/svg">
<path fill-rule="evenodd" clip-rule="evenodd" d="M13.1082 0.0256149C12.4027 0.145591 11.7778 0.630343 11.4566 1.30666L11.3709 1.48719L8.65556 1.48721C5.46572 1.48724 5.40581 1.49048 4.80022 1.69549C3.58534 2.10675 2.66552 3.10736 2.3552 4.35519C2.23942 4.82081 2.24422 4.44147 2.24422 13.1152C2.24422 21.911 2.23673 21.3811 2.36753 21.8351C2.58792 22.6001 3.15219 23.2917 3.85308 23.6558C4.09786 23.783 4.25074 23.8415 4.54822 23.922L4.78822 23.987L12.9647 23.9933C21.1257 23.9997 21.1414 23.9996 21.2711 23.951C21.4164 23.8967 21.6005 23.7317 21.6717 23.5922C21.8209 23.2998 21.7541 22.925 21.5132 22.703C21.3148 22.52 21.244 22.5012 20.7182 22.4914L20.2562 22.4828V20.9997V19.5167L20.3942 19.5007C20.7633 19.4577 21.0525 19.3166 21.3173 19.0503C21.5168 18.8497 21.6586 18.6002 21.7238 18.3352C21.7721 18.1386 21.7721 2.85978 21.7238 2.66319C21.5961 2.14417 21.1898 1.71536 20.6642 1.54505C20.5501 1.50807 20.4034 1.50044 19.5809 1.48873L18.6295 1.47519L18.5125 1.24666C18.2084 0.652951 17.7429 0.267895 17.0866 0.0672549C16.9083 0.0127509 16.907 0.0127269 15.0722 0.00826294C14.0591 0.00581494 13.1788 0.0135909 13.1082 0.0256149ZM13.2961 1.53329C13.0931 1.5961 12.9268 1.73998 12.8365 1.93097L12.7683 2.07519L12.7682 6.48992L12.7682 10.9046L13.6742 10.0034C14.5138 9.16818 14.5904 9.09829 14.7191 9.05062C14.9001 8.98359 15.1003 8.98359 15.2813 9.05062C15.41 9.09829 15.4867 9.16818 16.3262 10.0034L17.2322 10.9046L17.2322 6.48992L17.2322 2.07519L17.164 1.93097C17.0911 1.77697 16.9812 1.66479 16.8175 1.57733L16.7162 1.52319L15.0362 1.51894C14.1122 1.51659 13.3291 1.52305 13.2961 1.53329ZM5.75703 3.02499C5.16332 3.08794 4.58818 3.4058 4.23317 3.86715C4.08123 4.06462 3.92674 4.36599 3.84766 4.61919L3.78022 4.83519L3.77398 11.6097L3.76772 18.3841L3.90999 18.3123C4.1118 18.2104 4.27299 18.1508 4.54822 18.0764L4.78822 18.0114L12.5102 18.0051L20.2322 17.9987V10.4989V2.99919H19.5002H18.7682L18.7681 7.85319C18.768 10.8533 18.7591 12.7611 18.7448 12.8484C18.6731 13.2862 18.2867 13.5691 17.8718 13.4875C17.791 13.4715 17.6923 13.4423 17.6525 13.4224C17.6128 13.4025 16.9998 12.807 16.2903 12.0991L15.0004 10.812L13.6983 12.1105C12.2473 13.5576 12.3175 13.5007 11.9882 13.4977C11.6896 13.495 11.444 13.3317 11.3135 13.0491L11.2442 12.8992L11.2378 7.94919L11.2314 2.99919L8.58584 3.00238C7.13074 3.00413 5.85778 3.01431 5.75703 3.02499ZM4.89622 19.5488C4.36625 19.6636 3.89705 20.1446 3.79145 20.6814C3.74897 20.8972 3.77199 21.3101 3.8365 21.4896C3.98883 21.9134 4.32903 22.2551 4.75277 22.4097L4.93222 22.4752L11.8382 22.4814L18.7442 22.4877V20.9994V19.5112L11.8982 19.5131C6.10772 19.5147 5.02817 19.5202 4.89622 19.5488Z" fill="#4E50D1"/>
</svg>
