<svg width="24" height="24" viewBox="0 0 24 24" fill="none" xmlns="http://www.w3.org/2000/svg">
<g clip-path="url(#clip0_8366_23473)">
<path fill-rule="evenodd" clip-rule="evenodd" d="M0.443878 0.806448C0.288838 0.879072 0.128206 1.03682 0.0659264 1.17763C-0.0017296 1.33058 -0.0169216 1.57771 0.0324464 1.72255C0.108694 1.94635 0.30547 2.14198 0.514678 2.20195C0.581326 2.22106 0.86575 2.2733 1.14669 2.31806C1.42766 2.3628 1.66356 2.40542 1.67093 2.41282C1.67829 2.42018 1.88765 3.25934 2.13617 4.27764C2.38466 5.29594 2.60577 6.17424 2.62752 6.22942C2.69381 6.39778 2.84873 6.64205 2.98094 6.78672C3.32935 7.16794 3.79368 7.37309 4.30788 7.37297C4.63687 7.37292 4.83792 7.32569 5.13564 7.17857C5.35257 7.07136 5.41565 7.0255 5.59164 6.8471C5.78376 6.65232 5.85549 6.54362 6.80054 5.0149C7.63337 3.6677 7.81397 3.39002 7.85654 3.39132C7.88477 3.39216 8.12299 3.42775 8.38593 3.47038C8.79535 3.53676 8.86685 3.55462 8.88401 3.59482C8.89502 3.62064 9.10279 4.45716 9.34572 5.45376C9.58865 6.45036 9.80901 7.31976 9.83541 7.38576C10.2032 8.30496 11.2778 8.7667 12.191 8.39784C12.4309 8.30098 12.6002 8.18815 12.7915 7.99776C12.9558 7.83427 13.0656 7.66747 13.9883 6.17976C14.6718 5.07761 15.0171 4.54174 15.044 4.54164C15.0659 4.54159 15.3075 4.57622 15.5809 4.61861L16.0779 4.69567L16.3217 5.69273C17.0079 8.49955 17.0046 8.48693 17.0976 8.67185C17.3295 9.13277 17.7605 9.48377 18.2639 9.62172C18.5053 9.68786 18.9879 9.68095 19.2239 9.60797C19.5677 9.50165 19.8536 9.32066 20.07 9.07238C20.1454 8.98589 20.6126 8.25768 21.1677 7.36176C21.6992 6.50376 22.1537 5.77397 22.1776 5.74001L22.2211 5.67823L22.7205 5.75897C23.0596 5.81378 23.2579 5.83507 23.3383 5.8253C23.5913 5.79461 23.8279 5.62025 23.9363 5.38469C23.9757 5.2991 23.9874 5.22715 23.9874 5.06976C23.9873 4.84063 23.947 4.73616 23.7927 4.5654C23.6134 4.3669 23.7726 4.39946 20.1471 3.81994C18.3259 3.52882 16.7699 3.2808 16.6894 3.26878C16.5312 3.24521 15.5048 3.08174 15.0359 3.00545C14.8775 2.9797 13.6571 2.78534 12.3239 2.57357C10.9907 2.36179 9.80808 2.17282 9.69588 2.15359C9.51727 2.12302 8.18894 1.91167 7.35588 1.7813C7.19748 1.75651 5.67614 1.51428 3.97517 1.24298C2.18885 0.958104 0.815158 0.749856 0.723166 0.75C0.606646 0.750168 0.53167 0.765312 0.443878 0.806448ZM3.32498 2.79576C3.34289 2.86505 3.50431 3.52656 3.68371 4.26576C3.86309 5.00496 4.02801 5.65193 4.05019 5.70346C4.12819 5.88473 4.39173 5.93448 4.52426 5.79298C4.55683 5.7582 4.94501 5.14656 5.38687 4.43376C6.05839 3.35047 6.1835 3.13502 6.14906 3.12115C6.10963 3.10524 3.3774 2.66906 3.32016 2.66952C3.29981 2.66969 3.30108 2.70324 3.32498 2.79576ZM10.5119 3.85181C10.5119 3.9499 11.239 6.84269 11.2765 6.89376C11.3778 7.03174 11.591 7.05828 11.7105 6.94776C11.7734 6.88954 13.3633 4.35487 13.3752 4.29379C13.3791 4.27375 10.689 3.82423 10.5539 3.82236C10.5308 3.82202 10.5119 3.83527 10.5119 3.85181ZM17.7119 4.98864C17.7119 5.09158 18.4375 7.99231 18.4766 8.04576C18.5687 8.17166 18.7797 8.208 18.8944 8.11776C18.9503 8.07379 20.6074 5.43466 20.5882 5.42014C20.5836 5.41666 19.9481 5.31425 19.1759 5.19254C18.4037 5.07084 17.7584 4.96678 17.7419 4.96128C17.7254 4.95576 17.7119 4.9681 17.7119 4.98864ZM22.9679 10.1421C22.8821 10.1732 21.4511 10.7254 19.7879 11.3692C18.1247 12.013 16.6721 12.5746 16.5599 12.6171C16.3475 12.6977 9.40586 15.3812 9.04788 15.5212C8.93568 15.5651 7.31568 16.1913 5.44788 16.9129C3.58008 17.6345 1.98708 18.2503 1.90788 18.2815C1.82868 18.3127 1.47045 18.4517 1.11182 18.5904C0.355606 18.8828 0.342526 18.889 0.225622 19.0078C-0.152978 19.3927 -0.00578558 20.0488 0.501982 20.2397C0.735742 20.3276 0.860926 20.3043 1.51819 20.0502C1.83187 19.929 2.09277 19.8298 2.09796 19.8298C2.10317 19.8298 2.7516 20.4989 3.53892 21.3168C5.02281 22.8582 5.10861 22.938 5.43681 23.0832C5.87777 23.2782 6.44443 23.2886 6.88704 23.1098C7.44953 22.8827 7.86319 22.4063 8.01595 21.8098C8.06086 21.6345 8.07033 21.438 8.12496 19.5545C8.15789 18.4197 8.19271 17.4835 8.20234 17.474C8.22888 17.4479 9.29241 17.0432 9.31394 17.051C9.32421 17.0547 9.96465 17.715 10.7371 18.5183C11.5096 19.3215 12.2042 20.0251 12.2807 20.0818C12.585 20.3072 12.9149 20.4242 13.3089 20.4465C14.2904 20.502 15.148 19.7776 15.2614 18.7971C15.2759 18.672 15.31 17.7058 15.3373 16.6498C15.3645 15.5938 15.3903 14.7187 15.3945 14.7053C15.3987 14.6918 15.6525 14.5845 15.9584 14.4668L16.5146 14.253L16.6659 14.4074C16.749 14.4923 17.3808 15.1476 18.0699 15.8636C18.7589 16.5796 19.383 17.2145 19.4567 17.2745C19.6113 17.4005 19.9157 17.5532 20.1239 17.6093C20.3467 17.6693 20.7128 17.6822 20.9442 17.6383C21.6533 17.5037 22.2303 16.9742 22.417 16.2868C22.478 16.0619 22.477 16.0821 22.5444 13.7115L22.5959 11.9011L23.1097 11.7021C23.6926 11.4764 23.7967 11.4087 23.9153 11.1783C24.2294 10.5679 23.6232 9.90487 22.9679 10.1421ZM19.5662 13.0712C18.7447 13.3894 18.0732 13.6606 18.074 13.6738C18.0759 13.7076 20.3459 16.064 20.4292 16.1187C20.5176 16.1767 20.732 16.1635 20.8269 16.0942C20.9745 15.9863 20.9694 16.0356 21.0235 14.1924C21.0508 13.2633 21.0702 12.5007 21.0665 12.4979C21.0629 12.495 20.3877 12.753 19.5662 13.0712ZM12.3674 15.8551C11.5465 16.1734 10.8693 16.4395 10.8625 16.4466C10.8463 16.4635 13.161 18.8718 13.2306 18.9104C13.365 18.9852 13.6276 18.9171 13.7142 18.785C13.7371 18.7501 13.7608 18.6657 13.767 18.5976C13.7788 18.4672 13.8723 15.2851 13.8644 15.2797C13.8619 15.278 13.1883 15.5369 12.3674 15.8551ZM5.30388 18.5831C4.59768 18.8581 3.93091 19.1169 3.82219 19.1581L3.6245 19.2331L4.81387 20.467C5.78277 21.4721 6.0198 21.7058 6.09252 21.7276C6.27787 21.7831 6.50069 21.658 6.54741 21.4721C6.56045 21.4202 6.59109 20.6352 6.6155 19.7277C6.65484 18.2651 6.6558 18.078 6.62388 18.0804C6.60408 18.0819 6.01008 18.3081 5.30388 18.5831Z" fill="#4E50D1"/>
</g>
<defs>
<clipPath id="clip0_8366_23473">
<rect width="24" height="24" fill="white"/>
</clipPath>
</defs>
</svg>
