<svg width="24" height="24" viewBox="0 0 24 24" fill="none" xmlns="http://www.w3.org/2000/svg">
<path fill-rule="evenodd" clip-rule="evenodd" d="M11.2537 0.0230451C9.77005 0.143022 8.25822 0.668098 7.02475 1.49184C6.45556 1.87194 6.10533 2.15964 5.6176 2.64764C4.34551 3.92045 3.50229 5.50169 3.15647 7.26274C3.04772 7.81656 3.00649 8.21287 3.00305 8.73723C3.00017 9.18135 3.00286 9.21132 3.05558 9.31826C3.08612 9.38027 3.15585 9.4757 3.21051 9.53033C3.361 9.68074 3.4724 9.72836 3.70336 9.74101C3.88912 9.75119 3.91221 9.74694 4.05677 9.67584C4.38694 9.51338 4.50098 9.2729 4.50187 8.73723C4.50309 8.00664 4.71603 6.98449 5.02467 6.22772C5.73985 4.47411 7.01179 3.0988 8.67069 2.28535C9.40583 1.92485 10.0901 1.70629 10.8813 1.57923C11.2813 1.51499 12.1945 1.48985 12.64 1.53082C14.131 1.66785 15.4234 2.17383 16.6 3.08112C16.9093 3.31956 16.9953 3.3625 17.1922 3.37664C17.7044 3.41339 18.1061 2.94426 17.9832 2.45286C17.9323 2.249 17.8294 2.12371 17.5156 1.88338C16.2758 0.933651 14.9226 0.347601 13.4066 0.103806C12.8076 0.00745974 11.8778 -0.0274333 11.2537 0.0230451ZM11.6142 4.51205C10.8569 4.58347 10.1597 4.82397 9.54654 5.22528C9.10202 5.51622 9.00771 5.65161 9.00732 5.99958C9.00703 6.23723 9.05725 6.36638 9.2118 6.52552C9.35134 6.66922 9.48003 6.72609 9.69475 6.73891C9.9247 6.75263 9.99698 6.72885 10.2699 6.54975C10.6616 6.29268 11.0308 6.13665 11.4393 6.05556C11.6886 6.00606 12.2619 6.00052 12.5032 6.04523C13.7295 6.27258 14.6494 7.15835 14.9374 8.38902C14.9872 8.60167 14.9882 8.65846 15.0011 11.9071L15.0142 15.2091L15.0697 15.3219C15.1003 15.3839 15.17 15.4793 15.2247 15.534C15.3752 15.6844 15.4866 15.732 15.7175 15.7446C15.9033 15.7548 15.9264 15.7506 16.0709 15.6795C16.3175 15.5581 16.4512 15.3728 16.495 15.0913C16.5098 14.9964 16.5153 13.7604 16.5097 11.7608C16.5002 8.31681 16.504 8.4219 16.3683 7.88472C16.2124 7.26754 15.8648 6.60112 15.4265 6.07923C14.7515 5.27542 13.7481 4.71331 12.6953 4.5491C12.3948 4.50225 11.8986 4.48523 11.6142 4.51205ZM19.4057 5.30597C19.1547 5.40239 18.9682 5.66515 18.9494 5.9491C18.9397 6.09441 18.9519 6.14672 19.095 6.57593C19.2624 7.07788 19.3485 7.42815 19.4313 7.94444C19.4831 8.26722 19.4834 8.28878 19.4834 11.9912C19.4834 16.1172 19.4926 15.8499 19.3237 16.6246C19.0854 17.7173 18.5638 18.8061 17.8503 19.7002C17.6045 20.0082 17.0047 20.6077 16.6965 20.8534C15.6542 21.6842 14.4233 22.2205 13.0799 22.429C12.7778 22.4759 12.6357 22.4832 12.0106 22.4841C11.3719 22.4851 11.2475 22.4788 10.9189 22.4288C10.7149 22.3977 10.4872 22.3767 10.4128 22.3821C10.1676 22.3998 9.91401 22.5831 9.80787 22.8193C9.72651 23.0004 9.73091 23.281 9.81768 23.4461C9.93196 23.6635 10.0925 23.7924 10.3234 23.8522C10.3999 23.872 10.6431 23.9125 10.8641 23.9423C11.3933 24.0136 12.5479 24.0201 13.0438 23.9546C13.9018 23.8413 14.6006 23.665 15.3084 23.3835C17.6569 22.4491 19.4806 20.6148 20.4031 18.259C20.682 17.5467 20.8678 16.7788 20.9665 15.9296C21.0117 15.5411 21.0109 8.46094 20.9657 8.06483C20.901 7.49866 20.7956 6.97082 20.6468 6.46702C20.553 6.14933 20.4046 5.72185 20.358 5.63485C20.2988 5.52412 20.1466 5.38714 20.0121 5.32345C19.8314 5.23789 19.6002 5.23124 19.4057 5.30597ZM7.92581 8.32526C7.78101 8.39382 7.63521 8.53023 7.56812 8.6599C7.48164 8.82704 7.47845 8.97135 7.48868 12.2554C7.4993 15.6634 7.49582 15.5546 7.60957 16.0387C7.81381 16.9079 8.34116 17.7899 9.00372 18.3706C10.1939 19.4135 11.8104 19.7677 13.3107 19.3141C13.6672 19.2064 13.9173 19.0894 14.0281 18.9787C14.2505 18.7564 14.3128 18.398 14.1772 18.121C14.0542 17.8697 13.7784 17.6946 13.5057 17.6946C13.4206 17.6946 13.2806 17.7288 13.068 17.8013C12.6121 17.9569 12.4317 17.9893 12.0106 17.9913C11.6039 17.9931 11.3591 17.9547 11.0189 17.8356C10.0221 17.4868 9.30722 16.6775 9.05963 15.6174C9.01001 15.4049 9.00893 15.3458 8.9961 12.0993L8.98305 8.79727L8.92491 8.68353C8.73237 8.30699 8.29532 8.15027 7.92581 8.32526ZM11.7502 9.03739C11.5748 9.10396 11.408 9.25448 11.3112 9.43365C11.2675 9.51453 11.2657 9.61124 11.2657 12.0032V14.4887L11.3179 14.586C11.3892 14.7192 11.546 14.8708 11.6816 14.9375C11.8413 15.0161 12.1544 15.0169 12.3126 14.939C12.4726 14.8601 12.6383 14.6837 12.6953 14.5315C12.7423 14.4059 12.7435 14.3459 12.7435 12.0032C12.7435 9.66049 12.7423 9.6005 12.6953 9.47488C12.6382 9.32242 12.4723 9.14593 12.3126 9.06781C12.1753 9.00067 11.8879 8.98513 11.7502 9.03739ZM3.54064 12.0257C3.34048 12.0867 3.15866 12.2407 3.05661 12.4355L3 12.5435V14.1165C3 15.8174 3.00834 15.9655 3.1446 16.6884C3.51226 18.6383 4.53873 20.4413 6.025 21.7478C6.35733 22.04 6.49667 22.1147 6.71783 22.1197C6.92231 22.1242 7.09188 22.0626 7.23908 21.9304C7.45557 21.7358 7.54032 21.4706 7.4716 21.2025C7.42013 21.0017 7.33658 20.8886 7.0678 20.6557C6.74114 20.3727 6.3272 19.9354 6.06361 19.5948C5.41542 18.7571 4.90783 17.6857 4.68405 16.6826C4.52217 15.957 4.52032 15.9312 4.50437 14.1879L4.48976 12.5904L4.41046 12.4295C4.3193 12.2445 4.1844 12.1201 3.99826 12.0494C3.87398 12.0022 3.65472 11.9909 3.54064 12.0257Z" fill="#4E50D1"/>
</svg>
