<svg width="25" height="24" viewBox="0 0 25 24" fill="none" xmlns="http://www.w3.org/2000/svg">
<path fill-rule="evenodd" clip-rule="evenodd" d="M18.792 0.0353718C17.7655 0.1505 16.9644 0.422996 16.26 0.896708C16.0074 1.06656 15.555 1.5054 15.4115 1.71969C15.207 2.02514 15.0742 2.34921 15.0248 2.66299C15.0098 2.75899 15.0002 3.51602 15.0002 4.63113L15 6.44328L14.256 7.18699L13.512 7.9307L13.5118 7.33084C13.5116 7.00092 13.5006 6.63379 13.4872 6.51499C13.4199 5.91864 13.1746 5.43141 12.6866 4.92477C10.693 2.85494 5.55248 2.35449 2.26796 3.91046C1.47341 4.28685 0.816631 4.812 0.449527 5.36443C0.266431 5.63992 0.172591 5.83495 0.0780787 6.13617L0.0119587 6.34699V11.231V16.115L0.0657907 16.3156C0.346207 17.3607 1.319 18.2477 2.81996 18.8271C3.67942 19.1589 4.67727 19.3735 5.78396 19.4646C6.20883 19.4995 7.29125 19.4995 7.71596 19.4646C9.58647 19.3105 11.1693 18.7916 12.2388 17.9818L12.3457 17.9009L13.6728 19.2278L15 20.5548L15.0002 20.8669C15.0002 21.0385 15.0114 21.2492 15.0248 21.335C15.0742 21.6488 15.207 21.9728 15.4115 22.2783C15.5541 22.4913 16.0069 22.9308 16.2628 23.1046C18.0155 24.2951 20.9844 24.2951 22.7372 23.1046C22.993 22.9308 23.4458 22.4913 23.5884 22.2783C23.7929 21.9728 23.9258 21.6488 23.9751 21.335C23.9906 21.2362 23.9996 20.2807 23.9995 18.731C23.9993 16.4376 23.9965 16.2693 23.9546 16.0666C23.6683 14.6789 21.9914 13.6248 19.8948 13.5145C17.4556 13.3862 15.3722 14.4826 15.0453 16.0666C15.0056 16.2587 15.0006 16.4041 15.0003 17.3629L15 18.4429L14.1456 17.5885L13.2912 16.7341L13.3556 16.5565C13.503 16.1502 13.4958 16.3201 13.5049 13.043L13.5133 10.043L14.3456 9.20992L15.1778 8.37684L15.2528 8.51709C15.5703 9.11136 16.1885 9.64509 16.9618 9.99264C18.4516 10.6621 20.5483 10.6621 22.0381 9.99264C23.0707 9.52855 23.7787 8.77094 23.9535 7.94299C23.9956 7.74321 23.9967 7.82416 24.0062 11.855C24.0116 14.1188 24.0126 13.0118 24.0085 9.39499C24.0035 4.94378 23.9929 2.76859 23.9758 2.66299C23.894 2.15779 23.6655 1.74633 23.2224 1.30646C22.6765 0.764516 21.9903 0.405884 21.072 0.18254C20.3721 0.0123318 19.4996 -0.0439722 18.792 0.0353718ZM18.888 1.53751C17.9841 1.63946 17.0997 2.02118 16.7377 2.46564C16.5551 2.68972 16.5246 2.76604 16.5242 2.99899C16.524 3.18076 16.5318 3.21729 16.596 3.33429C16.8243 3.75079 17.4352 4.13164 18.192 4.32928C18.6781 4.45624 18.834 4.47343 19.5 4.47343C20.1659 4.47343 20.3218 4.45624 20.808 4.32928C21.5647 4.13164 22.1756 3.75079 22.404 3.33429C22.4681 3.21729 22.4759 3.18076 22.4757 2.99899C22.4754 2.83466 22.465 2.77548 22.4221 2.69469C22.1173 2.12152 21.1766 1.65571 20.0829 1.5364C19.8145 1.50715 19.1519 1.50775 18.888 1.53751ZM5.99996 4.52604C4.65032 4.64613 3.68029 4.88923 2.81177 5.32507C2.24367 5.61016 1.78969 5.99836 1.61816 6.34574C1.5295 6.52528 1.52396 6.54931 1.52396 6.75424C1.52396 6.9521 1.53121 6.98671 1.60321 7.13294C1.78654 7.50537 2.23153 7.88414 2.84468 8.18966C4.71449 9.12144 7.64883 9.25948 9.86158 8.51978C11.0112 8.13547 11.8136 7.5312 11.966 6.93499C12.0157 6.74095 11.987 6.54727 11.8758 6.32606C11.7834 6.14215 11.4158 5.76892 11.16 5.59922C10.3763 5.07943 9.29403 4.73028 7.96796 4.56945C7.65891 4.53196 6.27615 4.50146 5.99996 4.52604ZM16.5173 6.48278L16.524 7.69099L16.582 7.80801C16.8153 8.27822 17.5606 8.70674 18.4662 8.89144C19.6484 9.13257 20.9995 8.93126 21.852 8.38701C22.0467 8.26267 22.3455 7.95823 22.4174 7.81099L22.476 7.69099L22.4826 6.48278C22.4863 5.81824 22.4806 5.27824 22.4701 5.28278C22.4595 5.28729 22.3343 5.34842 22.1917 5.41864C21.7025 5.6596 21.1355 5.83056 20.4925 5.93095C20.1986 5.97686 20.0528 5.98476 19.5 5.98476C18.9471 5.98476 18.8013 5.97686 18.5074 5.93095C17.8644 5.83056 17.2974 5.6596 16.8082 5.41864C16.6656 5.34842 16.5404 5.28729 16.5298 5.28278C16.5193 5.27824 16.5137 5.81824 16.5173 6.48278ZM0.0117188 11.255C0.0117188 13.8752 0.0145267 14.9471 0.0179587 13.637C0.0213907 12.3269 0.0213907 10.1831 0.0179587 8.87299C0.0145267 7.56288 0.0117188 8.63479 0.0117188 11.255ZM1.51729 10.3111L1.52396 11.4616L1.61816 11.6523C1.88614 12.1949 2.76541 12.7625 3.83996 13.0865C4.6976 13.3451 5.48434 13.4608 6.5162 13.4803C7.89709 13.5063 9.03022 13.3345 10.1002 12.937C10.5541 12.7683 11.1326 12.4492 11.413 12.2128C11.6093 12.0473 11.8152 11.7954 11.9017 11.615L11.988 11.435L11.9953 10.301C11.9993 9.67728 11.9958 9.16699 11.9876 9.16699C11.9793 9.16699 11.9275 9.19776 11.8723 9.23539C11.8171 9.273 11.6748 9.35685 11.556 9.42172C10.5183 9.98836 9.22117 10.3406 7.71596 10.4646C7.29125 10.4995 6.20883 10.4995 5.78396 10.4646C4.08442 10.3247 2.61255 9.88224 1.56529 9.19639L1.51061 9.16058L1.51729 10.3111ZM11.868 13.74C10.109 14.8639 7.11543 15.2911 4.48796 14.7934C3.44487 14.5958 2.46764 14.2461 1.75436 13.8153C1.63028 13.7403 1.52468 13.679 1.51969 13.679C1.51469 13.679 1.51361 14.1949 1.51729 14.8255L1.52396 15.9721L1.60321 16.133C1.78657 16.5054 2.24067 16.8915 2.85056 17.1936C5.08165 18.2987 8.71385 18.254 10.8387 17.0953C11.2904 16.8489 11.6675 16.5221 11.8491 16.2195C11.9954 15.9756 12.0011 15.9169 11.9942 14.7316L11.988 13.6634L11.868 13.74ZM19.128 15.0133C18.3296 15.0835 17.6615 15.286 17.1416 15.6152C16.9555 15.7331 16.6561 16.0398 16.5834 16.187C16.5352 16.2844 16.5241 16.3432 16.5241 16.499C16.5241 16.7382 16.579 16.8606 16.7853 17.0812C17.2267 17.553 18.0399 17.8768 19.0285 17.9744C20.0787 18.0781 21.3073 17.802 21.9517 17.3175C22.1467 17.1708 22.3459 16.953 22.4178 16.808C22.5012 16.6399 22.5006 16.357 22.4166 16.187C22.3438 16.0398 22.0444 15.7331 21.8583 15.6152C21.424 15.3401 20.8783 15.1505 20.256 15.0583C20.0076 15.0215 19.3385 14.9948 19.128 15.0133ZM16.5171 19.9824L16.524 21.203L16.596 21.3343C16.8992 21.8873 17.8388 22.3436 18.917 22.4615C19.2159 22.4942 19.784 22.4942 20.0829 22.4615C21.0175 22.3593 21.8925 21.9863 22.2623 21.5323C22.4916 21.2508 22.475 21.3671 22.4828 19.9824L22.4896 18.7619L22.3388 18.8456C21.1673 19.4954 19.3366 19.6798 17.8538 19.2975C17.3897 19.1779 16.9809 19.023 16.6611 18.8456L16.5103 18.7619L16.5171 19.9824Z" fill="#4E50D1"/>
</svg>
