<svg width="24" height="24" viewBox="0 0 24 24" fill="none" xmlns="http://www.w3.org/2000/svg">
<g clip-path="url(#clip0_8366_23396)">
<path fill-rule="evenodd" clip-rule="evenodd" d="M1.94146 0.0128778C1.44142 0.0916462 1.0051 0.311021 0.658959 0.657674C0.255726 1.06153 0.0384992 1.55028 0.00699064 2.12464C-0.00694123 2.37884 -0.00461526 2.39781 0.0569631 2.53289C0.271145 3.0026 0.825302 3.14536 1.21978 2.83245C1.38421 2.70203 1.45857 2.55037 1.4988 2.26337C1.53835 1.98115 1.58781 1.86398 1.72565 1.72595C1.86348 1.58791 1.98047 1.53837 2.26227 1.49877C2.54885 1.45847 2.70028 1.384 2.83051 1.21933C3.13984 0.828203 3.00112 0.272165 2.54094 0.0585779C2.42965 0.00692214 2.37721 -0.00217945 2.20523 0.000390131C2.09313 0.00204715 1.97443 0.0076666 1.94146 0.0128778ZM4.2646 0.0296161C4.05668 0.105046 3.8923 0.255547 3.80339 0.45194C3.72901 0.616225 3.73313 0.906035 3.81209 1.06239C3.89154 1.21974 4.0357 1.36001 4.19549 1.43551L4.32738 1.49781L5.13955 1.50578C5.96774 1.5139 6.18926 1.49845 6.33623 1.42235C6.46963 1.35326 6.60962 1.20031 6.67693 1.05015C6.73589 0.918546 6.74181 0.881972 6.73227 0.708009C6.71982 0.481334 6.67148 0.368897 6.52209 0.219285C6.46754 0.164651 6.37225 0.0949603 6.31033 0.0644375C6.19924 0.00961179 6.18559 0.00881931 5.27456 0.00351205C4.56247 -0.000618489 4.33153 0.00536119 4.2646 0.0296161ZM7.97894 0.0417916C7.64122 0.178916 7.44682 0.517884 7.50404 0.869917C7.53173 1.0403 7.596 1.16174 7.72443 1.28652C7.85699 1.41529 8.00077 1.47751 8.212 1.49754C8.46632 1.52168 8.59187 1.57096 8.73666 1.70347C8.8955 1.84885 8.96108 1.99388 8.98803 2.25929C9.02148 2.5887 9.17044 2.80872 9.44692 2.93703C9.87202 3.13436 10.3999 2.84885 10.4751 2.38102C10.5008 2.22096 10.4735 1.89237 10.4161 1.6699C10.2525 1.03569 9.78328 0.481958 9.16855 0.197503C8.9071 0.0765409 8.66009 0.0184252 8.35587 0.00632178C8.13502 -0.00244361 8.07369 0.00331993 7.97894 0.0417916ZM18.4031 3.0251C18.3372 3.03838 18.1922 3.09315 18.081 3.14685C17.9172 3.22596 17.8367 3.28609 17.6568 3.46382C17.5347 3.58445 16.5748 4.61252 15.5237 5.74842C14.0368 7.35532 13.5997 7.84155 13.5545 7.93921C13.4867 8.08575 13.4722 8.30729 13.5196 8.47409C13.5827 8.69623 13.8112 8.92005 14.0375 8.98138C14.1821 9.02057 14.4312 8.99546 14.5658 8.92812C14.7025 8.85975 14.7155 8.84627 16.5567 6.85718L17.9715 5.32881L17.9835 12.8991L17.9955 20.4695L18.0594 20.5895C18.2905 21.0242 18.8265 21.1431 19.2041 20.8435C19.2972 20.7697 19.4165 20.6007 19.4596 20.4815C19.4723 20.4463 19.4865 17.2934 19.4938 12.8819L19.5062 5.34235L21.1343 7.10033C22.9857 9.09939 22.8649 8.99068 23.2349 8.99008C23.4089 8.98979 23.4563 8.9804 23.5586 8.9261C23.7503 8.8244 23.9497 8.58012 23.9567 8.43843C23.9587 8.39792 23.9622 8.39982 23.9783 8.45008C23.991 8.49006 23.9983 8.43545 23.9998 8.28656C24.0012 8.16361 23.9937 8.06829 23.9833 8.07473C23.9729 8.08119 23.9464 8.0359 23.9244 7.97408C23.8751 7.83516 23.9806 7.95278 21.6357 5.4222C20.1739 3.84458 19.6762 3.32228 19.5603 3.24414C19.3248 3.08535 19.1032 3.01789 18.7868 3.00867C18.6417 3.00444 18.4691 3.01184 18.4031 3.0251ZM0.549494 3.77441C0.340924 3.83358 0.17801 3.97075 0.0652359 4.18213C0.0116905 4.28251 0.011139 4.29315 0.011139 5.24411C0.011139 6.19946 0.0114508 6.20532 0.0666027 6.31745C0.0970802 6.37945 0.166668 6.47489 0.22122 6.52952C0.370802 6.6793 0.482808 6.72755 0.710082 6.74006C0.883979 6.74962 0.920883 6.74373 1.04579 6.68658C1.29553 6.57229 1.43941 6.38584 1.48638 6.11568C1.50446 6.01179 1.51106 5.68183 1.50581 5.14493L1.49784 4.33155L1.43564 4.19947C1.36128 4.04162 1.22012 3.89477 1.07099 3.8202C0.936277 3.75282 0.699028 3.73197 0.549494 3.77441ZM9.54166 3.77441C9.33309 3.83358 9.17018 3.97075 9.0574 4.18213C9.00386 4.28251 9.00331 4.29315 9.00331 5.24411C9.00331 6.19946 9.00362 6.20532 9.05877 6.31745C9.08925 6.37945 9.15884 6.47489 9.21339 6.52952C9.36278 6.67913 9.47505 6.72755 9.70139 6.74001C9.87509 6.74957 9.91161 6.74364 10.043 6.68459C10.193 6.61718 10.3457 6.47698 10.4147 6.34338C10.4907 6.1962 10.5061 5.97435 10.498 5.14493L10.49 4.33155L10.4278 4.19947C10.3535 4.04162 10.2123 3.89477 10.0632 3.8202C9.92845 3.75282 9.6912 3.73197 9.54166 3.77441ZM0.605509 7.51636C0.379842 7.55339 0.149043 7.7385 0.0587616 7.9549C0.00406518 8.08597 0.0104436 8.58487 0.0697919 8.81724C0.266229 9.58643 0.906783 10.2319 1.66968 10.4293C1.89182 10.4868 2.21993 10.5141 2.37975 10.4884C2.84689 10.4131 3.13197 9.88443 2.93494 9.4587C2.80682 9.18181 2.58712 9.03263 2.2582 8.99913C1.99318 8.97214 1.84837 8.90646 1.7032 8.74738C1.57098 8.60248 1.5218 8.4769 1.49741 8.22194C1.47566 7.99457 1.40946 7.85115 1.26153 7.71103C1.07919 7.53834 0.862853 7.47414 0.605509 7.51636ZM9.59768 7.51636C9.28245 7.56809 8.99223 7.89709 8.99093 8.20419C8.98904 8.65922 8.64863 9.00014 8.19428 9.00203C7.88605 9.00333 7.56734 9.28594 7.5073 9.61122C7.45956 9.86986 7.53576 10.1088 7.72443 10.2921C7.88507 10.4481 8.02534 10.4996 8.28393 10.4976C8.79296 10.4936 9.24118 10.3311 9.65266 10.0013C10.174 9.5836 10.4796 8.95609 10.484 8.29398C10.4859 8.01964 10.4299 7.8779 10.2537 7.71103C10.0714 7.53834 9.85502 7.47414 9.59768 7.51636ZM4.2646 9.03515C4.05668 9.11058 3.8923 9.26108 3.80339 9.45747C3.72901 9.62176 3.73313 9.91157 3.81209 10.0679C3.89154 10.2253 4.0357 10.3655 4.19549 10.441L4.32738 10.5033L5.13955 10.5113C5.96774 10.5194 6.18926 10.504 6.33623 10.4279C6.46963 10.3588 6.60962 10.2058 6.67693 10.0557C6.73589 9.92408 6.74181 9.88751 6.73227 9.71354C6.71982 9.48687 6.67148 9.37443 6.52209 9.22482C6.46754 9.17019 6.37225 9.1005 6.31033 9.06997C6.19924 9.01515 6.18559 9.01435 5.27456 9.00905C4.56247 9.00492 4.33153 9.0109 4.2646 9.03515ZM1.53336 13.5169C0.822209 13.5867 0.297546 14.0297 0.0644206 14.7571L0.0115706 14.9221L0.00492843 18.6798C-0.00260101 22.9313 -0.0133197 22.6667 0.182925 23.0735C0.273279 23.2607 0.326081 23.3338 0.487388 23.4948C0.646106 23.6533 0.725093 23.7107 0.910356 23.802C1.34726 24.0175 0.953974 23.9996 5.26257 23.9996C9.52289 23.9996 9.18617 24.0129 9.55538 23.8304C9.99221 23.6145 10.3032 23.212 10.4452 22.6788C10.488 22.5181 10.49 22.3463 10.49 18.7644C10.49 14.8005 10.493 14.9128 10.3809 14.6046C10.1916 14.0838 9.71573 13.6813 9.11757 13.5362C8.98657 13.5044 1.84559 13.4862 1.53336 13.5169ZM1.66018 15.023C1.63076 15.0287 1.58491 15.0611 1.55827 15.095C1.51017 15.1562 1.50983 15.1812 1.50983 18.7687V22.3808L1.5687 22.4398L1.62755 22.4987H5.23617H8.84476L8.91204 22.4408L8.97933 22.3828L8.98513 18.7845C8.98976 15.9164 8.98477 15.174 8.96053 15.1262C8.94382 15.0932 8.89264 15.0533 8.84682 15.0375C8.78366 15.0157 7.9114 15.0093 5.23859 15.0107C3.29988 15.0118 1.68958 15.0173 1.66018 15.023Z" fill="#4E50D1"/>
</g>
<defs>
<clipPath id="clip0_8366_23396">
<rect width="24" height="24" fill="white"/>
</clipPath>
</defs>
</svg>
