<svg width="24" height="24" viewBox="0 0 24 24" fill="none" xmlns="http://www.w3.org/2000/svg">
<g clip-path="url(#clip0_8366_23443)">
<path d="M11.9802 0.22814C11.8826 0.225816 11.7868 0.253503 11.7057 0.307464C11.6246 0.361425 11.5621 0.43906 11.5267 0.529882L2.57234 23.16C2.54121 23.2457 2.53385 23.3382 2.55103 23.4279C2.56822 23.5176 2.60931 23.6011 2.66996 23.6696C2.73299 23.7368 2.81366 23.7848 2.90264 23.8082C2.99161 23.8315 3.08526 23.8293 3.17275 23.8016L10.1882 21.6576C10.2342 21.6489 10.2765 21.6266 10.3096 21.5936C10.3426 21.5605 10.3649 21.5182 10.3736 21.4722L11.6912 8.65917C11.6993 8.6012 11.7281 8.54822 11.7723 8.50994C11.8165 8.47167 11.873 8.45068 11.9316 8.45083C11.9902 8.45097 12.0468 8.47224 12.0912 8.51073C12.1355 8.54922 12.1646 8.60234 12.173 8.66036L13.5742 21.4594C13.583 21.5055 13.6056 21.5479 13.6388 21.5811C13.672 21.6143 13.7144 21.6368 13.7605 21.6457L20.7865 23.8242C20.873 23.8544 20.9661 23.8597 21.0551 23.8395C21.1442 23.8193 21.2256 23.7744 21.2901 23.7099C21.3546 23.6454 21.3996 23.5639 21.4198 23.4749C21.44 23.3858 21.4347 23.2927 21.4045 23.2063L12.4627 0.504648C12.4209 0.414128 12.352 0.338803 12.2654 0.289221C12.1789 0.239638 12.0792 0.218281 11.9802 0.22814V0.22814Z" fill="#4E50D1"/>
</g>
<defs>
<clipPath id="clip0_8366_23443">
<rect width="24" height="24" fill="white"/>
</clipPath>
</defs>
</svg>
