<svg width="24" height="24" viewBox="0 0 24 24" fill="none" xmlns="http://www.w3.org/2000/svg">
<g clip-path="url(#clip0_8366_23676)">
<path fill-rule="evenodd" clip-rule="evenodd" d="M11.1869 0.0140562C8.75113 0.209562 6.63707 1.00215 4.75006 2.42734C2.25883 4.30886 0.587183 7.13295 0.128029 10.2357C0.0456305 10.7927 0.0200593 11.1021 0.00384345 11.7385C-0.091077 15.4684 1.57662 19.0377 4.51284 21.3889C6.34991 22.86 8.51893 23.7331 10.923 23.9693C11.3366 24.0099 12.6797 24.0104 13.07 23.97C14.6789 23.8036 16.0405 23.4103 17.4089 22.7167C18.2432 22.2938 19.1984 21.6633 19.3598 21.429C19.613 21.0616 19.4726 20.5458 19.062 20.335C18.9388 20.2717 18.6695 20.2478 18.5242 20.2871C18.4692 20.3021 18.2724 20.4212 18.0804 20.5557C16.8336 21.43 15.4978 22.0084 14.0415 22.3046C12.9415 22.5283 11.6868 22.563 10.5272 22.4017C8.8131 22.1633 7.14951 21.4823 5.75362 20.4476C4.67939 19.6513 3.71752 18.5945 3.02496 17.4494C1.63898 15.1579 1.17873 12.4245 1.73717 9.80118C2.23957 7.44106 3.55654 5.30717 5.44178 3.79859C6.9866 2.5624 8.81542 1.80106 10.8151 1.56169C11.2613 1.50826 12.3136 1.48897 12.7684 1.52585C15.8551 1.77618 18.5813 3.28026 20.4111 5.74238C21.3926 7.06297 22.0537 8.61049 22.3273 10.2273C22.4566 10.992 22.4613 11.085 22.4613 12.9384V14.6561L22.3951 14.8672C22.2746 15.2519 22.1118 15.5328 21.851 15.8059C21.5767 16.0932 21.2523 16.2902 20.849 16.4144C20.657 16.4735 20.6028 16.4794 20.2424 16.4803C19.9009 16.4812 19.8202 16.4738 19.6547 16.4267C19.0284 16.2484 18.5084 15.8148 18.2274 15.2364C18.0016 14.7719 18.0061 14.8134 17.987 12.9865C17.9696 11.3288 17.963 11.2162 17.8543 10.7257C17.6641 9.86717 17.3012 9.08099 16.7612 8.35732C16.5351 8.05438 15.9317 7.45006 15.6292 7.22364C14.5451 6.41226 13.3114 5.99605 11.9905 5.99605C10.6695 5.99605 9.43587 6.41226 8.35176 7.22364C8.04927 7.45006 7.44585 8.05438 7.21977 8.35732C6.4096 9.44305 5.994 10.6786 5.994 12.0015C5.994 13.3244 6.4096 14.5599 7.21977 15.6457C7.44585 15.9486 8.04927 16.5529 8.35176 16.7793C9.43465 17.5898 10.671 18.0069 11.9905 18.0069C13.3124 18.0069 14.5459 17.5898 15.6359 16.7743C15.8858 16.5873 16.5382 15.9502 16.6686 15.7658L16.7503 15.6502L16.8373 15.8378C17.2693 16.7702 18.0843 17.493 19.0683 17.8167C19.8913 18.0873 20.7983 18.0644 21.5891 17.7531C21.8928 17.6335 22.0137 17.5708 22.2813 17.3944C22.5729 17.2023 22.8478 16.9638 23.0571 16.7215C23.2332 16.5176 23.4835 16.1515 23.5823 15.9534C23.7682 15.5809 23.9111 15.0961 23.9576 14.6801C23.9921 14.3715 24.0172 11.4249 23.9853 11.4249C23.971 11.4249 23.9605 11.3642 23.9605 11.281C23.9605 11.0526 23.8915 10.4408 23.8141 9.98349C23.3001 6.94484 21.6313 4.21807 19.1509 2.36373C17.4273 1.07514 15.3909 0.285621 13.1779 0.0479057C12.7778 0.00492713 11.5589 -0.0158054 11.1869 0.0140562ZM11.3668 7.54424C10.6083 7.65554 9.9027 7.94873 9.29185 8.40643C9.04537 8.59112 8.58521 9.05197 8.40079 9.29881C7.80488 10.0965 7.50563 11 7.50563 12.0015C7.50563 13.003 7.80488 13.9065 8.40079 14.7042C8.58521 14.951 9.04537 15.4119 9.29185 15.5966C10.0871 16.1924 10.9921 16.493 11.9905 16.493C12.9889 16.493 13.8939 16.1924 14.6891 15.5966C14.9356 15.4119 15.3958 14.951 15.5802 14.7042C16.1752 13.9077 16.4754 13.0014 16.4754 12.0015C16.4754 11.0016 16.1752 10.0953 15.5802 9.29881C15.3958 9.05197 14.9356 8.59112 14.6891 8.40643C14.0711 7.94334 13.3719 7.65451 12.6022 7.54429C12.3114 7.50263 11.6504 7.5026 11.3668 7.54424ZM0.00684195 12.0135C0.00686594 12.3306 0.0102722 12.457 0.0144222 12.2944C0.0185961 12.1318 0.0185721 11.8723 0.0143982 11.7178C0.0102243 11.5633 0.00684195 11.6964 0.00684195 12.0135Z" fill="#4E50D1"/>
</g>
<defs>
<clipPath id="clip0_8366_23676">
<rect width="24" height="24" fill="white"/>
</clipPath>
</defs>
</svg>
