<svg width="24" height="24" viewBox="0 0 24 24" fill="none" xmlns="http://www.w3.org/2000/svg">
<g clip-path="url(#clip0_8366_23936)">
<path fill-rule="evenodd" clip-rule="evenodd" d="M11.5942 0.026873C11.2254 0.0795761 10.7679 0.277453 10.4356 0.528009C10.2051 0.701886 10.0407 0.878787 9.86656 1.14045C9.70613 1.38153 0.195464 20.7695 0.11199 21.0256C0.0206268 21.306 -0.00930005 21.5429 0.00815728 21.8479C0.0333841 22.2883 0.150981 22.6388 0.395743 23.0032C0.724987 23.4934 1.23391 23.8299 1.83441 23.9546C2.04309 23.998 2.37916 23.9994 11.9812 23.9998C22.8051 24.0001 22.0537 24.0095 22.4656 23.8693C23.1745 23.6279 23.7274 23.0143 23.9186 22.2566C23.9391 22.1755 23.9558 22.0763 23.9558 22.0361C23.9558 21.9958 23.9666 21.9563 23.9798 21.9481C23.9934 21.9397 24.0036 21.8223 24.0034 21.6767C24.0032 21.5292 23.9945 21.4336 23.9829 21.4518C23.97 21.4723 23.9574 21.4373 23.9476 21.3536C23.9392 21.2822 23.9045 21.1383 23.8704 21.0339C23.785 20.7719 14.2771 1.38691 14.1131 1.14045C13.9391 0.878835 13.7747 0.70191 13.5441 0.528009C12.9844 0.105904 12.2901 -0.0725333 11.5942 0.026873ZM11.7501 1.5287C11.593 1.56189 11.3808 1.68517 11.2506 1.81895C11.1425 1.93004 11.0783 2.03247 10.9378 2.31759C9.46964 5.29675 1.60725 21.3381 1.56445 21.4416C1.51587 21.5591 1.50738 21.6142 1.51445 21.7656C1.52834 22.0633 1.67859 22.2865 1.95431 22.4189L2.09819 22.488L11.9779 22.4882C21.3158 22.4883 21.8641 22.486 21.9775 22.4464C22.1432 22.3885 22.3744 22.1588 22.429 21.9978C22.4872 21.8262 22.4803 21.5934 22.4123 21.4321C22.36 21.3081 13.4708 3.17948 13.0463 2.33103C12.8146 1.86793 12.6928 1.7247 12.4276 1.6035C12.2889 1.5401 12.2329 1.5285 12.0378 1.52274C11.9125 1.51907 11.7831 1.52174 11.7501 1.5287ZM11.8501 7.51583C11.614 7.55404 11.416 7.71298 11.3035 7.95478L11.247 8.07634V12.0003V15.9242L11.3035 16.0458C11.4579 16.3776 11.7634 16.5405 12.1249 16.4837C12.367 16.4457 12.5623 16.2906 12.6762 16.0458L12.7328 15.9242V12.0003V8.07634L12.6762 7.95478C12.6045 7.80068 12.4956 7.67624 12.3658 7.60011C12.2761 7.54746 12.2216 7.53181 12.0258 7.50236C11.9995 7.4984 11.9204 7.50445 11.8501 7.51583ZM11.6781 18.0386C11.4024 18.1125 11.1089 18.36 10.9772 18.6297C10.7434 19.1083 10.8848 19.6967 11.3114 20.0197C11.5389 20.192 11.688 20.2406 11.9899 20.2406C12.2917 20.2406 12.4409 20.192 12.6684 20.0197C13.1026 19.6909 13.2382 19.1023 12.9922 18.6145C12.9102 18.4519 12.7018 18.2316 12.5414 18.1378C12.3159 18.0059 11.9552 17.9645 11.6781 18.0386ZM0.00892463 21.7081C0.00897259 21.8533 0.0129293 21.9096 0.0177013 21.8332C0.0224732 21.7569 0.0224253 21.6381 0.0176053 21.5692C0.0127854 21.5004 0.00887667 21.5629 0.00892463 21.7081Z" fill="#4E50D1"/>
</g>
<defs>
<clipPath id="clip0_8366_23936">
<rect width="24" height="24" fill="white"/>
</clipPath>
</defs>
</svg>
