<svg width="24" height="24" viewBox="0 0 24 24" fill="none" xmlns="http://www.w3.org/2000/svg">
<g clip-path="url(#clip0_8366_23300)">
<path d="M8.42197 19.5952V15.6729C8.42197 14.9768 7.85761 14.4124 7.16147 14.4124H2.1057C1.57026 14.4124 1.11837 14.1907 0.785128 13.8225C0.472182 13.4767 0.284838 13.028 0.17162 12.5709C-0.0545986 11.6573 -0.0421551 10.4736 0.121397 9.25519C0.448157 6.82113 1.42562 3.91467 2.81177 2.13732C3.49344 1.2633 4.24561 0.81001 5.1043 0.618812C5.90597 0.440389 6.77305 0.502413 7.61249 0.552833C10.8135 0.745097 12.5328 1.31731 14.0144 1.83401C15.2658 2.27039 16.2975 2.64678 17.9899 2.7331V1.99157C17.9899 1.57388 18.3285 1.23429 18.7462 1.23429H23.284C23.7017 1.23429 24.0403 1.57388 24.0403 1.99157V15.604C24.0403 16.0217 23.7017 16.3603 23.284 16.3603H18.7462C18.3285 16.3603 17.9899 16.0217 17.9899 15.604V14.9038C17.4962 15.1015 17.048 15.3778 16.6457 15.7605C15.21 17.1265 14.3897 18.62 14.3896 20.8252C14.3896 21.8395 14.0516 22.6604 13.3615 23.1276C12.6927 23.5801 11.8756 23.5747 11.1773 23.3531C9.7991 22.9155 8.42197 21.4967 8.42197 19.5952ZM19.5025 14.8477H22.5277V2.74787H19.5025V14.8477ZM9.93457 19.5952C9.93457 20.7391 10.786 21.6418 11.6353 21.9114C12.0505 22.0431 12.3473 21.9875 12.5137 21.8749C12.6586 21.7768 12.877 21.5171 12.877 20.8252C12.8771 18.135 13.9225 16.2632 15.6029 14.6645C16.3229 13.9795 17.1378 13.5633 17.9899 13.3075V4.24668C16.0245 4.15605 14.818 3.71591 13.5162 3.26192C12.1098 2.77149 10.5349 2.24346 7.5219 2.06248C6.61648 2.00809 5.98435 1.97231 5.43321 2.09497C4.93931 2.2049 4.48452 2.45131 4.00432 3.06693C2.8385 4.56172 1.92653 7.18241 1.62119 9.45707C1.46876 10.5929 1.47956 11.5599 1.6399 12.2075C1.71992 12.5305 1.82313 12.7148 1.90677 12.8072C1.97031 12.8774 2.02232 12.8998 2.1057 12.8998H7.16147C8.69303 12.8998 9.93457 14.1414 9.93457 15.6729V19.5952Z" fill="#4E50D1"/>
</g>
<defs>
<clipPath id="clip0_8366_23300">
<rect width="24" height="24" fill="white"/>
</clipPath>
</defs>
</svg>
