<svg width="24" height="24" viewBox="0 0 24 24" fill="none" xmlns="http://www.w3.org/2000/svg">
<g clip-path="url(#clip0_8366_23772)">
<path fill-rule="evenodd" clip-rule="evenodd" d="M22.9758 0.0501432C22.9077 0.0763512 22.8082 0.137887 22.7548 0.186895C22.7013 0.235903 19.2497 5.14678 15.0844 11.1C8.71982 20.1966 7.48354 21.9508 7.33752 22.092C7.05962 22.3607 6.74465 22.4883 6.36074 22.4876C5.98848 22.487 5.65298 22.3629 5.39374 22.1301C5.32044 22.0643 4.47838 20.9632 3.29971 19.392C2.21542 17.9466 1.28842 16.7291 1.2397 16.6864C1.11955 16.5812 1.04498 16.5457 0.873312 16.5119C0.511992 16.4409 0.137568 16.6751 0.0318245 17.0383C-0.0168235 17.2053 -0.000623532 17.426 0.0705125 17.5655C0.134712 17.6913 4.0217 22.8738 4.19952 23.0706C4.44545 23.3428 4.878 23.639 5.24321 23.7853C6.47388 24.2781 7.89521 23.8902 8.69191 22.8443C8.94922 22.5064 23.8638 1.1871 23.9256 1.06885C23.9786 0.967375 23.9877 0.919351 23.9872 0.744847C23.9867 0.570415 23.9772 0.522151 23.9233 0.419983C23.7376 0.0682872 23.3362 -0.0884088 22.9758 0.0501432Z" fill="#4E50D1"/>
</g>
<defs>
<clipPath id="clip0_8366_23772">
<rect width="24" height="24" fill="white"/>
</clipPath>
</defs>
</svg>
