<svg width="24" height="24" viewBox="0 0 24 24" fill="none" xmlns="http://www.w3.org/2000/svg">
<path fill-rule="evenodd" clip-rule="evenodd" d="M11.3872 0.0226997C10.6748 0.0896567 9.95177 0.305898 9.25256 0.661193C7.44523 1.57955 6.20407 3.40674 6.01768 5.42352C6.00261 5.58656 5.99211 6.37499 5.99206 7.34812L5.99199 8.99654L5.3972 9.00798C4.71423 9.02106 4.57388 9.04676 4.2016 9.22693C3.62322 9.50682 3.24409 9.99792 3.05225 10.7157L3 10.9112V16.543V22.1748L3.05422 22.3789C3.26589 23.176 3.83297 23.7156 4.70293 23.9478L4.89853 24H12.036H19.1736L19.3778 23.9464C19.4902 23.9169 19.6955 23.8369 19.8341 23.7685C20.0577 23.6582 20.1134 23.6169 20.3287 23.4018C20.6553 23.0756 20.8171 22.7871 20.9478 22.2982L21 22.1027V16.4709V10.8392L20.9458 10.635C20.7354 9.84273 20.1716 9.30299 19.3102 9.0691C19.1555 9.02709 19.0347 9.01715 18.5668 9.0079L18.008 8.99686L18.0079 7.34829C18.0079 6.37504 17.9974 5.58656 17.9823 5.42352C17.7199 2.58436 15.4178 0.283755 12.5768 0.021547C12.2605 -0.00763264 11.7042 -0.00710428 11.3872 0.0226997ZM11.3632 1.54664C10.5977 1.66375 9.9026 1.95276 9.29639 2.40599C9.04947 2.59062 8.58846 3.05133 8.4037 3.29809C8.0412 3.78228 7.77408 4.34515 7.62869 4.93119C7.51266 5.39886 7.50601 5.52828 7.50601 7.31786V9.00192H12H16.494V7.31786C16.494 5.50066 16.4884 5.39917 16.3603 4.89077C16.2192 4.33088 15.9512 3.77219 15.5963 3.29809C15.4115 3.05133 14.9505 2.59062 14.7036 2.40599C14.0898 1.94704 13.3938 1.65966 12.6218 1.54638C12.3077 1.50029 11.6653 1.50041 11.3632 1.54664ZM4.92754 10.5537C4.77705 10.5999 4.64312 10.7354 4.57085 10.9144L4.51402 11.0553V16.543V22.0307L4.57129 22.1469C4.64199 22.2905 4.77193 22.3879 4.97712 22.4512C5.1301 22.4984 5.21222 22.499 12.0342 22.499C19.7303 22.499 19.0989 22.5135 19.2803 22.3323C19.3309 22.2817 19.3979 22.1769 19.4291 22.0995L19.486 21.9586V16.4709V10.9833L19.4287 10.867C19.358 10.7235 19.2281 10.626 19.0229 10.5627C18.8698 10.5155 18.7902 10.515 11.9554 10.5166C5.9384 10.5181 5.0278 10.5229 4.92754 10.5537ZM11.7178 13.5193C10.5553 13.6228 9.53277 14.4273 9.15667 15.5343C9.04156 15.8732 9.00801 16.0926 9.00801 16.507C9.00801 16.9213 9.04156 17.1408 9.15667 17.4796C9.47954 18.43 10.3164 19.195 11.2844 19.4247C12.6493 19.7485 14.038 19.1107 14.6759 17.8669C14.9071 17.4161 14.992 17.0508 14.992 16.507C14.992 16.0926 14.9584 15.8732 14.8433 15.5343C14.5205 14.584 13.6833 13.8187 12.7156 13.5893C12.5551 13.5512 12.0008 13.4839 11.9519 13.4964C11.9453 13.4982 11.8399 13.5085 11.7178 13.5193ZM11.6996 15.0398C11.3578 15.1186 11.1244 15.2533 10.8936 15.5051C10.6391 15.7827 10.51 16.1198 10.51 16.507C10.51 16.6269 10.5264 16.7894 10.5464 16.8682C10.6709 17.3577 11.0545 17.7706 11.5314 17.9287C11.6946 17.9828 11.7653 17.9924 12 17.9924C12.2347 17.9924 12.3054 17.9828 12.4686 17.9287C12.9455 17.7706 13.3291 17.3577 13.4536 16.8682C13.5003 16.6846 13.5003 16.3294 13.4536 16.1458C13.3287 15.655 12.9411 15.2385 12.4686 15.0876C12.2313 15.0117 11.9082 14.9917 11.6996 15.0398Z" fill="#4E50D1"/>
</svg>
