<svg width="24" height="24" viewBox="0 0 24 24" fill="none" xmlns="http://www.w3.org/2000/svg">
<g clip-path="url(#clip0_8366_23257)">
<path fill-rule="evenodd" clip-rule="evenodd" d="M0.540398 0.0195567C0.339332 0.0817321 0.158159 0.235677 0.056605 0.43068C0.00963596 0.520884 0.00014605 0.57533 1.89904e-06 0.755764C-0.000142252 0.944529 0.00781005 0.986477 0.0615782 1.08085C0.0955257 1.14045 2.21341 3.96868 4.76797 7.36581C7.32254 10.7629 9.42348 13.5598 9.43672 13.581C9.4564 13.6125 8.70021 14.4373 5.31894 18.0726C3.04091 20.5217 1.1132 22.5955 1.03517 22.6809C0.840976 22.8935 0.793479 23.0048 0.793022 23.2485C0.79271 23.4174 0.802104 23.4613 0.864809 23.5842C1.00709 23.863 1.3038 24.0278 1.60654 23.9961C1.79898 23.9759 1.93606 23.9055 2.09956 23.7428C2.17406 23.6686 4.06649 21.6385 6.30498 19.2314C8.54347 16.8242 10.3812 14.855 10.3888 14.8554C10.3965 14.8557 11.8893 16.8355 13.7062 19.2549C15.523 21.6743 17.0582 23.7035 17.1177 23.7641C17.1772 23.8248 17.2799 23.9011 17.346 23.9338L17.4661 23.9933H20.4572H23.4483L23.5843 23.9263C23.7343 23.8525 23.862 23.7252 23.9448 23.5669C23.989 23.4825 23.9991 23.4237 23.9999 23.2468C24.0008 23.0574 23.9931 23.0162 23.9391 22.9203C23.9051 22.8599 21.7773 20.0174 19.2107 16.6037C16.644 13.19 14.5474 10.3879 14.5515 10.3769C14.5557 10.3658 16.4585 8.31532 18.7801 5.82014C21.1017 3.32496 23.0344 1.24154 23.0751 1.19029C23.2906 0.918522 23.2509 0.455844 22.9915 0.216221C22.8137 0.0519688 22.7086 0.00990053 22.4753 0.0095634C22.0899 0.00900955 22.5282 -0.426483 17.8099 4.64562C15.5066 7.12161 13.6167 9.1469 13.61 9.1463C13.6034 9.1457 12.1169 7.17261 10.3066 4.76167C8.49631 2.3507 6.9687 0.325473 6.91193 0.26113C6.85181 0.193031 6.75141 0.11595 6.67167 0.0766993L6.53466 0.00927444L3.56756 0.00513263C1.93566 0.002845 0.573433 0.00934668 0.540398 0.0195567ZM2.28702 1.5476C2.29759 1.56592 5.84153 6.28448 10.1624 12.0333L18.0187 22.4857L19.8746 22.487C20.8953 22.4877 21.7305 22.4833 21.7305 22.4773C21.7305 22.4713 19.8257 19.9329 17.4977 16.8365C12.7709 10.5496 12.3845 10.0356 8.63686 5.04834L5.98208 1.51545L4.12494 1.51487C2.55065 1.51439 2.27073 1.51937 2.28702 1.5476Z" fill="#4E50D1"/>
</g>
<defs>
<clipPath id="clip0_8366_23257">
<rect width="24" height="24" fill="white"/>
</clipPath>
</defs>
</svg>
