<svg width="24" height="24" viewBox="0 0 24 24" fill="none" xmlns="http://www.w3.org/2000/svg">
<path fill-rule="evenodd" clip-rule="evenodd" d="M1.82324 3.01796C1.61431 3.04828 1.37162 3.12688 1.16475 3.23123C0.613921 3.5091 0.238895 4.00626 0.0523175 4.70603L0.000167915 4.90159V12.0378V19.1739L0.0542845 19.3781C0.265569 20.1756 0.83161 20.7155 1.69997 20.9478L1.89521 21H12.0181H22.1409L22.3448 20.9463C22.457 20.9169 22.6592 20.8382 22.7941 20.7714C22.9937 20.6728 23.0796 20.612 23.2545 20.4453C23.3727 20.3326 23.5073 20.1833 23.5535 20.1134C23.7445 19.8253 23.9104 19.4045 23.9432 19.1255C23.9516 19.0537 23.9678 19.0006 23.9793 19.0077C23.9909 19.0149 24 15.9469 24 12.0045C24 7.35312 23.9919 4.98353 23.976 4.97367C23.9628 4.96551 23.952 4.92336 23.952 4.87999C23.952 4.74525 23.86 4.43027 23.7583 4.21681C23.4851 3.64373 22.9982 3.26208 22.2774 3.05611L22.093 3.00342L12.0301 3.00025C6.43642 2.99847 1.90324 3.00635 1.82324 3.01796ZM1.92416 4.54387C1.77395 4.59012 1.64026 4.72566 1.56813 4.90484C1.51143 5.04569 1.5114 5.04641 1.50457 6.26515L1.49773 7.48455H11.9821H22.4664L22.4596 6.22911L22.4528 4.97367L22.3956 4.85738C22.325 4.71377 22.1953 4.61629 21.9905 4.55293C21.8373 4.50555 21.7529 4.50516 11.9376 4.50682C3.29067 4.50826 2.0246 4.51297 1.92416 4.54387ZM0 12.0257C0 15.8912 0.00278259 17.4725 0.00616487 15.5398C0.00954716 13.6071 0.00954716 10.4444 0.00616487 8.51172C0.00278259 6.57902 0 8.16032 0 12.0257ZM1.50519 14.014L1.5114 19.0297L1.56856 19.146C1.63914 19.2897 1.76884 19.3871 1.97365 19.4505C2.12681 19.4979 2.21372 19.4983 12.0163 19.4983C20.8916 19.4983 21.9172 19.4945 22.03 19.4609C22.1912 19.4129 22.3214 19.2842 22.3961 19.0986L22.4528 18.9577L22.459 13.978L22.4652 8.99828H11.9821H1.49895L1.50519 14.014ZM4.97239 12.0482C4.55678 12.2114 4.36557 12.7059 4.56596 13.0993C4.63272 13.2304 4.82578 13.4031 4.96632 13.4574C5.08228 13.5022 5.20452 13.5034 9.36742 13.5034H13.6492L13.7812 13.4411C13.941 13.3656 14.0853 13.2252 14.1647 13.0678C14.2529 12.8932 14.25 12.618 14.1582 12.4303C14.0851 12.281 13.9591 12.1538 13.8003 12.0688L13.6972 12.0137L9.39141 12.0087C5.25161 12.0039 5.08122 12.0054 4.97239 12.0482ZM4.97239 15.0515C4.63673 15.1835 4.44003 15.526 4.49731 15.8786C4.52617 16.0562 4.59086 16.1747 4.73019 16.3052C4.96263 16.523 4.71159 16.5069 7.86818 16.5069H10.6508L10.7827 16.4445C10.9426 16.369 11.0868 16.2286 11.1662 16.0712C11.2544 15.8967 11.2515 15.6214 11.1597 15.4338C11.0866 15.2845 10.9606 15.1572 10.8018 15.0723L10.6987 15.0172L7.89217 15.0121C5.20951 15.0072 5.0806 15.0089 4.97239 15.0515Z" fill="#4E50D1"/>
</svg>
