<svg width="24" height="24" viewBox="0 0 24 24" fill="none" xmlns="http://www.w3.org/2000/svg">
<path fill-rule="evenodd" clip-rule="evenodd" d="M7.72806 0.0366285C6.24289 0.240052 4.98378 1.36212 4.62145 2.80515C4.49341 3.31512 4.50006 2.81124 4.50006 12.0005C4.50006 21.1897 4.49341 20.6858 4.62145 21.1958C4.94785 22.4957 6.02199 23.5606 7.34223 23.8931C7.76173 23.9988 7.79523 23.9995 12.0001 23.9995C16.2049 23.9995 16.2384 23.9988 16.6579 23.8931C17.3097 23.7289 17.9285 23.3749 18.4094 22.8908C18.9897 22.3067 19.3371 21.6078 19.4685 20.7605C19.5152 20.4588 19.5152 3.54216 19.4685 3.24046C19.3371 2.39309 18.9897 1.69419 18.4094 1.1101C17.8174 0.514252 17.0759 0.145156 16.2499 0.0351885C15.8908 -0.0126195 8.07796 -0.0112995 7.72806 0.0366285ZM7.85053 1.53958C7.36379 1.62039 6.82974 1.93947 6.50444 2.34382C6.32991 2.56078 6.1418 2.93609 6.06712 3.21646L6.01275 3.42046L6.00608 10.2065L5.99941 16.9925H12.0001H18.0007L17.994 10.2065L17.9874 3.42046L17.933 3.21646C17.8583 2.93609 17.6702 2.56078 17.4957 2.34382C17.1628 1.93008 16.6365 1.61998 16.1281 1.53797C15.9324 1.50644 8.04102 1.50795 7.85053 1.53958ZM6.00625 19.5425C6.01542 20.5155 6.01933 20.5932 6.06875 20.7845C6.14041 21.0618 6.32833 21.4382 6.50444 21.6571C6.83727 22.0708 7.36357 22.3809 7.87206 22.4629C8.08844 22.4978 15.9117 22.4978 16.1281 22.4629C16.8938 22.3395 17.5792 21.7681 17.8537 21.0245C17.9794 20.6839 17.9831 20.6448 17.9937 19.5425L18.0037 18.5045H12.0001H5.99646L6.00625 19.5425Z" fill="#4E50D1"/>
</svg>
