<svg width="24" height="24" viewBox="0 0 24 24" fill="none" xmlns="http://www.w3.org/2000/svg">
<path fill-rule="evenodd" clip-rule="evenodd" d="M2.76792 0.0462597C1.89755 0.234066 1.26913 0.861287 1.04067 1.77023C1.00242 1.92242 1 2.52772 1 11.9935C1 21.698 1.00155 22.0617 1.04342 22.2444C1.13714 22.6536 1.32049 23.0033 1.59579 23.2983C1.8871 23.6104 2.19013 23.802 2.60095 23.9338L2.80721 24H11.9958H21.1844L21.3906 23.9338C21.8021 23.8017 22.1044 23.6104 22.3971 23.2969C22.663 23.012 22.8364 22.6861 22.9494 22.2591C22.9883 22.1117 22.9911 21.6242 22.998 13.5783C23.0033 7.43959 22.9981 4.99994 22.9794 4.8616C22.9287 4.48647 22.8186 4.18873 22.6142 3.87368C22.5092 3.71176 22.2179 3.40943 20.918 2.11314C20.0549 1.25236 19.2864 0.500274 19.2103 0.441851C19.0541 0.321785 18.8095 0.191851 18.6019 0.118683C18.245 -0.00716934 18.6545 -0.00116608 10.52 0.000634899C3.29963 0.00226779 2.96265 0.00423686 2.76792 0.0462597ZM2.92141 1.5617C2.75787 1.62605 2.57652 1.8141 2.51451 1.98366C2.46693 2.11376 2.46689 2.12493 2.46689 12.0055C2.46689 21.8514 2.4671 21.8977 2.51402 22.0259C2.58107 22.2093 2.69931 22.3391 2.88398 22.4321L3.04092 22.5112H11.9958H20.9507L21.108 22.4319C21.2889 22.3408 21.4104 22.2061 21.4795 22.02C21.5238 21.9008 21.5247 21.7305 21.5247 13.449C21.5247 4.1955 21.5357 4.90902 21.3899 4.70643C21.3543 4.65701 20.8341 4.1268 20.2338 3.52815C19.6336 2.92953 18.9569 2.25407 18.7302 2.02717C18.3734 1.67014 18.2998 1.60766 18.1836 1.56319L18.0493 1.51178L10.5456 1.51302C3.13222 1.51427 3.04045 1.51485 2.92141 1.5617ZM9.64877 8.27625C9.62941 8.28343 9.5766 8.30581 9.53142 8.32598C9.42416 8.37389 5.58164 12.292 5.51083 12.4257C5.44089 12.5577 5.43695 12.9297 5.50393 13.0741C5.53397 13.1388 6.17997 13.8174 7.48618 15.1564C9.64145 17.3657 9.51232 17.2506 9.83653 17.2511C10.0502 17.2514 10.1981 17.1908 10.349 17.0411C10.5167 16.8747 10.5517 16.7847 10.5521 16.5199C10.5523 16.3272 10.5438 16.2746 10.4971 16.1811C10.4577 16.1023 9.97543 15.5934 8.82494 14.4164L7.2082 12.7623L8.83555 11.0932C10.6792 9.2022 10.5783 9.32656 10.5591 8.96898C10.5467 8.73754 10.4934 8.61649 10.3358 8.46204C10.1988 8.32771 10.025 8.2588 9.82977 8.26134C9.7496 8.26237 9.66813 8.2691 9.64877 8.27625ZM13.9835 8.30533C13.8259 8.37038 13.72 8.45923 13.6278 8.60372C13.4798 8.83559 13.4693 9.1462 13.6019 9.3737C13.6334 9.42782 14.3781 10.2069 15.2566 11.1049C16.1353 12.003 16.8541 12.7486 16.8541 12.7619C16.8541 12.7752 16.1257 13.5313 15.2354 14.4421C13.4388 16.2801 13.5145 16.1892 13.5139 16.509C13.5133 16.8024 13.6748 17.0635 13.9393 17.1968C14.0938 17.2747 14.3751 17.2748 14.5423 17.1971C14.639 17.1521 15.0015 16.7925 16.5991 15.1563C18.4677 13.2428 18.5405 13.1648 18.5905 13.026C18.6569 12.842 18.648 12.5994 18.569 12.4377C18.4908 12.2777 14.7279 8.42403 14.5658 8.33792C14.406 8.25306 14.1455 8.23848 13.9835 8.30533Z" fill="#4E50D1"/>
</svg>
