<svg width="24" height="24" viewBox="0 0 24 24" fill="none" xmlns="http://www.w3.org/2000/svg">
<path fill-rule="evenodd" clip-rule="evenodd" d="M11.474 5.00404C9.50269 5.08216 7.44242 5.70939 5.36369 6.8643C3.91549 7.66888 2.66561 8.57502 1.40308 9.73557C0.455163 10.6069 0.218429 10.9073 0.0782259 11.4166C-0.107185 12.09 0.0411725 12.8053 0.47893 13.3486C0.625633 13.5306 1.42663 14.301 1.86204 14.6788C4.36368 16.8494 7.26994 18.351 9.87543 18.8191C11.2405 19.0643 12.8108 19.0601 14.1601 18.8074C16.7306 18.326 19.5045 16.9042 21.9785 14.7997C22.4281 14.4173 23.3388 13.5502 23.4955 13.3553C23.7275 13.0669 23.8819 12.7388 23.9592 12.3699C23.9957 12.1962 24.015 11.7317 23.9858 11.7317C23.9737 11.7317 23.9569 11.6775 23.9485 11.6113C23.9125 11.3251 23.7356 10.94 23.515 10.6679C23.0923 10.1462 21.772 8.97867 20.7914 8.25922C18.25 6.39478 15.6135 5.28985 13.1289 5.04801C12.7923 5.01526 11.8338 4.9898 11.474 5.00404ZM11.3781 6.415C11.3254 6.41988 11.1599 6.43424 11.0104 6.44691C8.6802 6.64451 5.90673 7.9038 3.45181 9.87888C2.98398 10.2553 2.37012 10.8012 1.98546 11.183C1.57991 11.5855 1.5212 11.6889 1.5212 12.0009C1.5212 12.3018 1.5842 12.4148 1.95807 12.7843C3.04732 13.8607 4.34148 14.8715 5.5762 15.6101C6.67469 16.2673 7.87207 16.8142 8.8959 17.1264C11.0926 17.7963 13.2473 17.758 15.4432 17.0098C15.9243 16.8459 16.3059 16.6896 16.8822 16.4207C18.4127 15.7063 19.9011 14.7111 21.2867 13.4758C21.8795 12.9473 22.2928 12.5303 22.3828 12.3699C22.4534 12.2441 22.4582 12.2206 22.4582 12.0004C22.4582 11.7881 22.4516 11.7528 22.3909 11.6374C22.264 11.396 21.2542 10.4505 20.4193 9.79114C17.9812 7.86571 15.3881 6.69523 13.0089 6.44629C12.7701 6.42129 11.5606 6.39807 11.3781 6.415ZM11.5877 7.8144C10.5595 7.8968 9.55864 8.33635 8.81227 9.03332C8.03974 9.75472 7.58306 10.6881 7.50526 11.7046C7.38654 13.2557 8.20172 14.7429 9.6221 15.5667C10.4259 16.0329 11.3392 16.2445 12.2957 16.1863C13.7217 16.0994 15.0034 15.3858 15.7914 14.24C15.9549 14.0021 16.171 13.575 16.2673 13.2994C16.5227 12.5681 16.5532 11.7336 16.3521 10.9814C16.0639 9.90363 15.3382 8.98627 14.3115 8.40219C13.5282 7.95657 12.5224 7.73951 11.5877 7.8144ZM11.558 9.23349C11.2997 9.26865 10.8962 9.38616 10.6683 9.49254C9.96464 9.82106 9.4027 10.4201 9.16074 11.0996C9.03876 11.4422 9.00845 11.6215 9.00845 12.0004C9.00845 12.3793 9.03876 12.5587 9.16074 12.9012C9.43484 13.671 10.1076 14.3222 10.9256 14.6098C11.6111 14.8507 12.3682 14.8507 13.0538 14.6098C13.7601 14.3615 14.3751 13.8286 14.6981 13.1848C14.8919 12.7986 14.9743 12.4321 14.9717 11.9668C14.9676 11.2208 14.6714 10.5617 14.1009 10.0289C13.6689 9.62543 13.1647 9.37402 12.5533 9.25709C12.2878 9.2063 11.8362 9.1956 11.558 9.23349ZM0.00735681 12.0004C0.00735681 12.1421 0.011266 12.2 0.0160146 12.1292C0.0207632 12.0584 0.0207632 11.9425 0.0160146 11.8717C0.011266 11.8008 0.00735681 11.8588 0.00735681 12.0004Z" fill="#4E50D1"/>
</svg>
