<svg width="24" height="24" viewBox="0 0 24 24" fill="none" xmlns="http://www.w3.org/2000/svg">
<path fill-rule="evenodd" clip-rule="evenodd" d="M11.3434 0.00707414C10.9996 0.0342055 10.4944 0.0976401 10.1973 0.15099C7.56796 0.623052 5.23982 2.09857 3.7423 4.24202C2.97596 5.33891 2.459 6.53313 2.19886 7.80751C1.67681 10.3649 2.18984 12.932 3.6528 15.0826C4.01486 15.6148 4.13737 15.7045 4.50347 15.706C4.74739 15.707 4.87951 15.6571 5.0433 15.5023C5.19079 15.3628 5.24916 15.2342 5.26232 15.0197C5.27716 14.7777 5.2501 14.7049 5.02227 14.3743C4.56098 13.7048 4.25521 13.1092 3.99855 12.3803C3.40592 10.6972 3.39555 8.86457 3.96904 7.16831C4.67709 5.07411 6.191 3.36267 8.20074 2.38448C9.06898 1.96188 9.85502 1.71976 10.8258 1.57589C11.3145 1.50348 12.3345 1.4847 12.8346 1.53894C14.5764 1.72783 16.078 2.336 17.3946 3.38591C17.6814 3.61461 18.3535 4.27664 18.5805 4.55415C19.4154 5.57448 19.9748 6.70818 20.2628 7.96357C20.4811 8.91519 20.5171 10.0093 20.3623 10.9888C20.1944 12.0514 19.8142 13.0734 19.2392 14.0072C19.0891 14.251 19.0501 14.4079 19.0889 14.6114C19.1842 15.1102 19.7267 15.3775 20.193 15.1553C20.3607 15.0754 20.4624 14.9599 20.6588 14.6264C21.4244 13.3266 21.839 12.0267 21.9807 10.4819C22.0184 10.0702 21.9981 9.02962 21.944 8.60656C21.6588 6.37579 20.6835 4.42048 19.0716 2.84794C17.4591 1.27483 15.4272 0.320501 13.1181 0.0517088C12.8109 0.0159579 11.6127 -0.0141988 11.3434 0.00707414ZM11.3804 3.75449C9.82677 3.91658 8.34981 4.67026 7.3431 5.81467C6.55639 6.709 6.04336 7.83738 5.897 8.99529C5.8477 9.38526 5.8477 10.1086 5.89702 10.4774C6.02149 11.4082 6.34239 12.2555 6.86366 13.0297C7.06659 13.3311 7.20543 13.4359 7.46207 13.4814C7.89367 13.558 8.29739 13.2676 8.36152 12.8345C8.38982 12.6435 8.33808 12.4858 8.15184 12.195C7.69086 11.4754 7.47435 10.8405 7.41219 10.0258C7.33267 8.98381 7.65924 7.90004 8.30789 7.05321C9.05545 6.07718 10.1453 5.45123 11.405 5.27433C11.6708 5.23699 12.3428 5.23596 12.6005 5.2725C13.4833 5.39767 14.2834 5.73489 14.9438 6.26025C15.1796 6.44791 15.5638 6.84519 15.7424 7.0861C16.8745 8.61374 16.925 10.604 15.872 12.1963C15.709 12.4427 15.6631 12.5602 15.6631 12.7306C15.6631 12.9339 15.7256 13.1015 15.8528 13.2394C16.1062 13.5139 16.5036 13.5711 16.8366 13.3811C17.0248 13.2736 17.2934 12.8839 17.5793 12.3034C18.4039 10.629 18.3699 8.62743 17.4888 6.97916C16.827 5.74128 15.7494 4.75994 14.4611 4.22213C13.928 3.99959 13.3597 3.84851 12.7779 3.77471C12.5108 3.74081 11.6332 3.7281 11.3804 3.75449ZM11.6297 9.0215C11.4277 9.05661 11.0658 9.18108 10.8939 9.27455C10.5335 9.47054 10.1917 9.80363 9.98943 10.156C9.89571 10.3192 9.8509 10.4282 9.7704 10.6887C9.71896 10.8551 9.71837 10.8867 9.71073 13.8148L9.70299 16.7729L9.51016 16.6925C9.14724 16.5412 8.92619 16.4996 8.49652 16.5016C8.1891 16.5031 8.07752 16.5133 7.92529 16.5539C6.58242 16.9118 5.80464 18.181 6.13966 19.4675C6.25334 19.904 6.48314 20.29 6.80564 20.5863C7.09208 20.8494 10.8998 23.8646 11.0286 23.9303C11.1287 23.9814 11.1774 23.9899 11.3557 23.9881C11.6022 23.9855 11.7037 23.9489 11.8644 23.8046C12.0363 23.6503 12.1009 23.5242 12.1146 23.3165C12.1284 23.1064 12.0796 22.9341 11.9669 22.7955C11.9259 22.7452 10.998 21.9925 9.90486 21.1229C8.8117 20.2532 7.88184 19.5054 7.83851 19.461C7.63365 19.2512 7.55781 18.8892 7.65808 18.6C7.77346 18.2674 8.02988 18.0617 8.40409 18.0017C8.63024 17.9654 8.73953 18.0023 9.51642 18.3769L10.2529 18.7321H10.4777C10.6805 18.7321 10.7154 18.7251 10.8337 18.6613C10.9933 18.5752 11.0959 18.4651 11.1807 18.289L11.2448 18.1558L11.2571 14.5903L11.2695 11.0249L11.3421 10.8971C11.4776 10.6589 11.6837 10.5316 11.9626 10.5139C12.088 10.5059 12.1743 10.5144 12.2648 10.5437C12.4337 10.5983 12.6376 10.781 12.7143 10.9463L12.773 11.0729L12.7854 13.5219L12.7977 15.9709L12.8703 16.0986C12.9102 16.1689 12.9818 16.2596 13.0294 16.3003C13.2009 16.447 13.3058 16.4731 14.4984 16.6665C15.6579 16.8545 15.8523 16.8993 16.1586 17.0497C16.7796 17.3543 17.2598 17.9979 17.369 18.6721C17.3849 18.7703 17.3943 19.6467 17.3944 21.0386C17.3945 22.5163 17.4034 23.2964 17.4212 23.3916C17.4539 23.5664 17.562 23.7378 17.708 23.8464C18.1174 24.1509 18.7143 23.9834 18.8948 23.5132C18.9472 23.3769 18.9475 23.3654 18.9475 21.1015C18.9475 19.6955 18.9378 18.7492 18.9222 18.6234C18.7432 17.1825 17.7619 15.982 16.373 15.5045C16.092 15.4079 15.8907 15.3658 15.0361 15.2251L14.3414 15.1106L14.3316 13.0317C14.323 11.2095 14.3169 10.9325 14.2814 10.7879C14.1193 10.1268 13.706 9.58404 13.1302 9.27589C12.9495 9.17918 12.8259 9.132 12.5758 9.06422C12.3744 9.00962 11.8374 8.98537 11.6297 9.0215Z" fill="#4E50D1"/>
</svg>
