<svg width="24" height="24" viewBox="0 0 24 24" fill="none" xmlns="http://www.w3.org/2000/svg">
<g clip-path="url(#clip0_8366_23692)">
<path fill-rule="evenodd" clip-rule="evenodd" d="M11.63 0.0239103C10.1788 0.128074 8.85839 0.947231 8.09263 2.21841C8.03128 2.32024 7.9791 2.40357 7.97666 2.40357C7.9742 2.40357 7.85435 2.377 7.71031 2.34452C6.98608 2.18124 6.1603 2.21572 5.41688 2.44029C3.90961 2.89556 2.74834 4.10647 2.3562 5.63174C2.16424 6.37842 2.1736 7.28456 2.38056 7.98972C2.38922 8.01917 2.3413 8.05991 2.19791 8.14501C1.5939 8.50348 1.06551 9.02557 0.666424 9.65818C0.216169 10.3719 9.65065e-05 11.1404 4.56382e-08 12.0283C-4.81848e-05 12.462 0.0381262 12.7817 0.137433 13.1793C0.410513 14.2728 1.20752 15.3324 2.19424 15.9138C2.35938 16.0111 2.3923 16.0403 2.3829 16.0812C2.19866 16.8829 2.18173 17.4413 2.32003 18.1563C2.62043 19.7096 3.7884 21.0407 5.2909 21.5423C5.84893 21.7286 6.53566 21.8166 7.09733 21.7738C7.38145 21.7522 7.82459 21.6761 7.95549 21.6264C7.98679 21.6146 8.01621 21.6048 8.02087 21.6048C8.02552 21.6048 8.07952 21.6882 8.14086 21.79C8.50879 22.4007 8.95835 22.8648 9.57676 23.272C10.2247 23.6988 10.9067 23.9279 11.7049 23.987C13.0157 24.0842 14.2554 23.633 15.2037 22.7137C15.5268 22.4005 15.8389 22.0001 15.9884 21.7071C16.0171 21.6509 16.0485 21.6051 16.0582 21.6053C16.0679 21.6056 16.206 21.6333 16.3652 21.6669C16.903 21.7804 17.6238 21.7746 18.1979 21.6523C19.9168 21.2862 21.2659 19.9753 21.6605 18.2876C21.814 17.6312 21.8183 16.784 21.671 16.217C21.6509 16.1393 21.6344 16.0642 21.6344 16.0502C21.6344 16.0361 21.7076 15.9819 21.7971 15.9296C22.6773 15.4157 23.4369 14.4737 23.7674 13.4864C24.0778 12.5589 24.0775 11.4668 23.7667 10.5371C23.5125 9.77709 22.9864 9.01285 22.3612 8.49549C22.1842 8.34898 21.8377 8.11284 21.6886 8.03702C21.6323 8.00837 21.5864 7.97701 21.5866 7.96736C21.5869 7.95769 21.6147 7.81987 21.6483 7.66106C21.7877 7.00355 21.7463 6.14948 21.5416 5.45941C21.1544 4.15418 20.0893 3.01851 18.8096 2.54652C17.9919 2.24495 17.0144 2.17712 16.2009 2.36553C16.1106 2.38644 16.0279 2.40357 16.0173 2.40357C16.0066 2.40357 15.9484 2.31851 15.8879 2.21456C15.2634 1.1423 14.0714 0.310822 12.8323 0.0832706C12.6569 0.051076 12.0004 -0.00864526 11.928 0.00105162C11.9147 0.00280812 11.7806 0.0131065 11.63 0.0239103ZM11.6748 1.52801C10.9852 1.61278 10.3574 1.91189 9.87067 2.38761C9.54816 2.70285 9.35044 3.00708 9.16757 3.46948C9.0304 3.81638 8.92331 3.95456 8.71391 4.05497C8.6019 4.10868 8.542 4.12124 8.39511 4.12177C8.23327 4.12235 8.1861 4.11058 7.94666 4.01003C7.47051 3.81005 7.06742 3.73498 6.59995 3.75923C5.51317 3.81563 4.57323 4.41217 4.06903 5.3655C3.8418 5.79517 3.73236 6.26004 3.73542 6.7828C3.73769 7.17147 3.79111 7.46156 3.92157 7.7934C4.11331 8.28118 4.13289 8.35035 4.11994 8.49391C4.10509 8.65883 4.03969 8.81234 3.93228 8.93438C3.83065 9.04985 3.7231 9.11672 3.52384 9.18833C3.43762 9.2193 3.26942 9.29273 3.15005 9.35152C2.33862 9.75108 1.73444 10.5533 1.55471 11.4698C1.49864 11.7557 1.49835 12.3062 1.55413 12.5867C1.67789 13.209 1.98169 13.7637 2.44053 14.2051C2.7638 14.516 3.11171 14.7247 3.60368 14.9028C3.85446 14.9936 4.05218 15.2147 4.10357 15.4618C4.14355 15.6539 4.125 15.7611 3.99744 16.0756C3.93599 16.2272 3.86398 16.4358 3.83745 16.5394C3.53124 17.734 4.0053 19.0084 5.02416 19.7297C5.54361 20.0974 6.28447 20.3112 6.89756 20.2704C7.32297 20.2421 7.5906 20.1761 8.02133 19.9932C8.22823 19.9054 8.28816 19.8905 8.44334 19.888C8.80191 19.8821 9.04569 20.0734 9.19026 20.4739C9.34781 20.9105 9.5946 21.3007 9.90815 21.6091C11.1675 22.8479 13.1541 22.7756 14.3271 21.4484C14.5648 21.1795 14.7592 20.8367 14.9202 20.4025C15.0298 20.1068 15.2292 19.9434 15.5464 19.8892C15.7118 19.861 15.6684 19.8502 16.2973 20.075C16.6191 20.1901 16.8781 20.2342 17.2375 20.2353C18.0506 20.2377 18.7634 19.9565 19.3371 19.4069C19.7026 19.0568 19.9652 18.6457 20.1145 18.1899C20.2223 17.8607 20.2629 17.5969 20.2628 17.2256C20.2626 16.7727 20.2024 16.4869 20.0065 16.0105C19.899 15.749 19.8836 15.5507 19.956 15.3608C20.0473 15.1213 20.1953 14.9887 20.498 14.8756C21.0932 14.653 21.6033 14.2613 21.9421 13.7667C22.317 13.2196 22.4784 12.6995 22.4784 12.0389C22.4784 11.4663 22.3996 11.115 22.1657 10.6447C21.9994 10.3104 21.8433 10.0938 21.5814 9.83374C21.2714 9.52608 20.9166 9.30305 20.501 9.15445C20.1731 9.03727 20.0361 8.92846 19.92 8.69328C19.8739 8.59971 19.8621 8.53818 19.8627 8.39494C19.8635 8.23924 19.8773 8.18146 19.9634 7.97386C20.1508 7.52237 20.2142 7.22063 20.2142 6.78047C20.2142 5.98708 19.9373 5.28405 19.4002 4.71446C18.9921 4.28161 18.528 4.01087 17.9261 3.85454C17.687 3.79246 17.6327 3.78736 17.2092 3.78726C16.6818 3.78714 16.5249 3.81642 16.0512 4.00336C15.9011 4.0626 15.7195 4.11797 15.6476 4.12639C15.3189 4.16496 14.9903 3.94768 14.868 3.61084C14.6772 3.0855 14.471 2.75542 14.1138 2.4034C13.6609 1.9571 13.1626 1.68804 12.5744 1.57214C12.3872 1.53525 11.8359 1.50821 11.6748 1.52801ZM8.78619 6.22943C7.87261 6.32939 7.09012 6.90742 6.73215 7.74677C6.58425 8.09357 6.55186 8.2684 6.55186 8.71977C6.55186 9.06634 6.55997 9.15864 6.60499 9.32401C6.81419 10.0924 7.291 10.6662 7.99258 10.9941C8.67793 11.3144 9.45261 11.306 10.1435 10.9707C10.8162 10.6442 11.2841 10.0713 11.487 9.32558C11.5325 9.15844 11.5406 9.06725 11.5406 8.71977C11.5406 8.37011 11.5327 8.28159 11.486 8.11005C11.2892 7.38574 10.8063 6.79385 10.1435 6.46442C9.76628 6.27695 9.21857 6.18213 8.78619 6.22943ZM16.1361 7.23699C15.9182 7.30853 15.8286 7.39486 11.7662 11.447C7.19478 16.007 7.54572 15.6295 7.54572 15.9864C7.54572 16.1238 7.55913 16.1921 7.6063 16.295C7.77234 16.6568 8.18355 16.8312 8.55186 16.696C8.69267 16.6444 8.80748 16.5323 12.8237 12.5277C15.8379 9.52209 16.9661 8.38245 17.0076 8.30141C17.0557 8.20762 17.0645 8.15497 17.0642 7.96183C17.0639 7.69992 17.0276 7.60586 16.8644 7.44294C16.7216 7.30044 16.5691 7.23358 16.3668 7.2247C16.2731 7.22056 16.1693 7.22609 16.1361 7.23699ZM8.83039 7.74749C8.55762 7.80083 8.27306 8.02853 8.14769 8.29369C7.96661 8.67673 8.0473 9.1308 8.34912 9.42726C8.54501 9.61966 8.78136 9.71834 9.04622 9.71834C9.31108 9.71834 9.54743 9.61966 9.74332 9.42726C10.1378 9.03984 10.1394 8.40406 9.74682 8.01893C9.4965 7.77331 9.17902 7.67927 8.83039 7.74749ZM15.2427 12.7525C14.2672 12.8784 13.448 13.5898 13.1535 14.5668C13.0925 14.7693 13.0883 14.8129 13.0883 15.2405C13.0883 15.6689 13.0924 15.711 13.1534 15.909C13.2417 16.1959 13.3381 16.4013 13.4935 16.6334C14.0989 17.5375 15.2232 17.9463 16.275 17.6447C17.3455 17.3378 18.0892 16.3511 18.0894 15.2376C18.0896 13.7285 16.7491 12.5581 15.2427 12.7525ZM15.3162 14.2764C15.1424 14.3246 15.0118 14.4023 14.8761 14.5381C14.478 14.9366 14.4817 15.5525 14.8846 15.9483C15.2809 16.3374 15.913 16.3254 16.2959 15.9215C16.4933 15.7132 16.5696 15.5233 16.5696 15.2405C16.5696 14.8838 16.4044 14.5828 16.1044 14.3934C15.8846 14.2546 15.5654 14.2072 15.3162 14.2764Z" fill="#4E50D1"/>
</g>
<defs>
<clipPath id="clip0_8366_23692">
<rect width="24" height="24" fill="white"/>
</clipPath>
</defs>
</svg>
