<svg width="24" height="24" viewBox="0 0 24 24" fill="none" xmlns="http://www.w3.org/2000/svg">
<g clip-path="url(#clip0_8366_23245)">
<path fill-rule="evenodd" clip-rule="evenodd" d="M1.93148 0.00683605C0.995578 0.155815 0.277481 0.808515 0.0462228 1.72045C0.00297438 1.89098 0.000527713 2.01553 0.000527713 4.0505V6.20038L0.0560095 6.31316C0.149918 6.50408 0.336105 6.66495 0.526849 6.71996C0.623732 6.74792 23.3402 6.74789 23.4372 6.71993C23.6303 6.6643 23.819 6.4998 23.9037 6.31316C23.9319 6.25114 23.9649 6.18162 23.9772 6.15868C24.0087 6.09964 24.007 1.95314 23.9755 1.97267C23.9617 1.9812 23.9513 1.95884 23.9511 1.92004C23.9508 1.88293 23.9309 1.7769 23.9067 1.68442C23.6979 0.887136 23.1155 0.301719 22.2844 0.0538693L22.1165 0.00378537L12.054 0.000542526C6.51958 -0.00125905 1.96446 0.00157543 1.93148 0.00683605ZM2.01202 1.53047C1.81603 1.58733 1.57995 1.82843 1.52451 2.02835C1.50895 2.08444 1.49993 2.69033 1.49986 3.68417L1.49971 5.25155H4.20522H6.91076L7.43557 3.40793C7.72423 2.39395 7.9651 1.55081 7.97086 1.53429C7.97918 1.51036 7.38227 1.50469 5.03435 1.50642C3.34176 1.50767 2.05532 1.51791 2.01202 1.53047ZM9.55165 1.52228C9.54587 1.53217 9.31317 2.34019 9.03456 3.31785C8.75595 4.29551 8.51791 5.13058 8.5056 5.17358L8.4832 5.25174L11.4474 5.24564L14.4115 5.23954L14.9444 3.3719L15.4774 1.50426H12.5197C10.8931 1.50426 9.55743 1.51236 9.55165 1.52228ZM17.0339 1.5463C16.9923 1.68581 16.0124 5.13144 15.999 5.18549L15.9826 5.25155H19.2235H22.4643V3.67908C22.4643 2.14373 22.4631 2.10342 22.4143 1.97265C22.3475 1.79391 22.1751 1.62124 21.9966 1.55437C21.8642 1.50479 21.8373 1.50426 19.4547 1.50426C17.1819 1.50426 17.0458 1.50662 17.0339 1.5463ZM0 4.07452C0 5.23053 0.00295039 5.70346 0.00652445 5.12544C0.0100985 4.54744 0.0100985 3.60161 0.00652445 3.02359C0.00295039 2.4456 0 2.9185 0 4.07452ZM0.516103 8.27662C0.334354 8.33199 0.146872 8.49711 0.0560095 8.68188L0.000527713 8.79466V15.4485C0.000527713 21.916 0.00179902 22.1074 0.0462948 22.2825C0.257979 23.116 0.883271 23.7422 1.71559 23.9542C1.89118 23.9989 2.13719 24 11.982 24C21.8268 24 22.0728 23.9989 22.2484 23.9542C23.0691 23.7451 23.6947 23.1281 23.9067 22.3185C23.9309 22.226 23.9508 22.1213 23.9511 22.0857C23.9513 22.0502 23.9623 22.0144 23.9755 22.0062C23.9914 21.9964 23.9995 19.7676 23.9995 15.3976C23.9995 11.3973 23.9908 8.80919 23.9774 8.81748C23.9653 8.82497 23.9485 8.79958 23.94 8.76108C23.9213 8.67559 23.7972 8.498 23.6996 8.41685C23.5662 8.3059 23.4678 8.27021 23.2652 8.25913C23.0915 8.24964 23.0548 8.2556 22.9234 8.31464C22.7741 8.38176 22.6207 8.52221 22.5525 8.65428C22.5328 8.69238 22.5049 8.78748 22.4905 8.86562C22.472 8.96612 22.4643 10.8923 22.4643 15.452V21.8964L22.4143 22.0303C22.3475 22.209 22.1751 22.3817 21.9966 22.4486L21.8628 22.4987H11.982H2.10118L1.96743 22.4486C1.78895 22.3817 1.61653 22.209 1.54975 22.0303L1.49971 21.8964V15.452C1.49971 10.8923 1.49204 8.96612 1.47349 8.86562C1.44178 8.69379 1.40463 8.61822 1.28846 8.48921C1.15444 8.34035 0.952018 8.25373 0.744123 8.25627C0.651773 8.2574 0.549157 8.26655 0.516103 8.27662ZM0.000359804 15.4245C0.000359804 19.0577 0.00314229 20.5404 0.00652445 18.7194C0.0099066 16.8985 0.0099066 13.9258 0.00652445 12.1136C0.00314229 10.3014 0.000359804 11.7913 0.000359804 15.4245ZM8.86058 10.513C8.14258 10.6234 7.5791 11.2049 7.49731 11.9197C7.46413 12.2098 7.46413 17.7984 7.49731 18.0885C7.58126 18.8223 8.15872 19.402 8.89935 19.496C9.09839 19.5213 9.37906 19.4962 9.58146 19.435C9.65302 19.4133 11.067 18.7165 12.7238 17.8864C16.0102 16.2398 15.9336 16.2828 16.1656 15.9571C16.3854 15.6487 16.4703 15.3833 16.4703 15.0041C16.4703 14.625 16.3854 14.3595 16.1656 14.0511C15.9332 13.725 16.0127 13.7695 12.7016 12.1112C10.3352 10.9261 9.6303 10.5831 9.49935 10.5529C9.28136 10.5027 9.02991 10.4869 8.86058 10.513ZM9.02333 12.0454C8.98685 12.0858 8.98364 12.3259 8.98364 15.0083V17.9272L9.03317 17.9721C9.08213 18.0165 9.11686 17.9999 12.0095 16.5526C13.6192 15.7472 14.9461 15.07 14.9582 15.0479C14.9703 15.0257 14.9734 14.9899 14.9651 14.9682C14.952 14.9339 9.13821 12.0015 9.08335 12.0015C9.07217 12.0015 9.04516 12.0212 9.02333 12.0454Z" fill="#4E50D1"/>
</g>
<defs>
<clipPath id="clip0_8366_23245">
<rect width="24" height="24" fill="white"/>
</clipPath>
</defs>
</svg>
