<svg width="24" height="24" viewBox="0 0 24 24" fill="none" xmlns="http://www.w3.org/2000/svg">
<g clip-path="url(#clip0_8366_23436)">
<path fill-rule="evenodd" clip-rule="evenodd" d="M11.5302 0.0446134C11.4169 0.0685438 11.2334 0.125622 11.1226 0.171418C10.8301 0.29227 0.694298 5.54529 0.552408 5.64956C0.211468 5.90012 0.00127073 6.32098 0.00035964 6.75487C-4.7952e-05 6.94994 0.0700579 7.22841 0.162294 7.39808C0.252683 7.5643 0.483644 7.80706 0.642557 7.90286C0.717722 7.94817 1.37802 8.29527 2.10989 8.67422C2.84176 9.05315 3.44351 9.36604 3.44713 9.3695C3.45075 9.37298 2.84116 9.69245 2.09248 10.0794C1.34381 10.4665 0.688951 10.8095 0.637211 10.8419C0.258869 11.0783 0 11.5484 0 11.9989C0 12.4495 0.258869 12.9195 0.637211 13.1559C0.688951 13.1883 1.34381 13.5314 2.09248 13.9184C2.84116 14.3054 3.45075 14.6244 3.44713 14.6272C3.44351 14.6301 2.86873 14.9271 2.16983 15.2871C1.47093 15.6472 0.815329 15.99 0.712927 16.049C0.286993 16.2945 0.0391049 16.6819 0.00685714 17.1524C-0.0107652 17.4097 0.028028 17.6029 0.147285 17.8517C0.25827 18.0832 0.461443 18.3049 0.672168 18.4244C0.826382 18.5119 10.3036 23.421 10.8132 23.6774C11.1771 23.8604 11.3811 23.9312 11.6689 23.9743C12.1595 24.0477 12.5876 23.9663 13.1231 23.6977C13.5747 23.4712 22.917 18.6403 23.1844 18.495C23.4906 18.3287 23.6947 18.1274 23.8268 17.8617C23.8808 17.7529 23.9324 17.6151 23.9413 17.5554C23.9503 17.4957 23.9671 17.441 23.9788 17.4338C23.9905 17.4265 24 17.3277 24 17.214C24 17.1004 23.9927 17.0148 23.9837 17.0237C23.9747 17.0327 23.9446 16.961 23.9168 16.8644C23.8889 16.7678 23.8367 16.6384 23.8006 16.5768C23.7035 16.4108 23.4864 16.1871 23.3324 16.0944C23.2578 16.0495 22.598 15.7024 21.8661 15.3231C21.1343 14.9438 20.5325 14.6309 20.5289 14.6277C20.5253 14.6246 21.1349 14.3054 21.8835 13.9184C22.6322 13.5314 23.2871 13.1883 23.3388 13.1559C23.6053 12.9894 23.8486 12.6597 23.9239 12.3631C23.9478 12.2688 23.9747 12.1843 23.9837 12.1753C23.9927 12.1663 24 12.0725 24 11.9669C24 11.8613 23.9927 11.7822 23.9838 11.7911C23.9749 11.8 23.948 11.7299 23.924 11.6353C23.8486 11.3381 23.6055 11.0085 23.3388 10.8419C23.2871 10.8095 22.6322 10.4665 21.8835 10.0794C21.1349 9.69245 20.5253 9.37346 20.5289 9.37058C20.5325 9.3677 21.1073 9.07074 21.8062 8.7107C22.5051 8.35064 23.161 8.00765 23.2637 7.94846C23.584 7.76388 23.8097 7.48889 23.9065 7.16529C23.9347 7.07129 23.9672 6.97567 23.9788 6.95274C24.0063 6.8986 24.0065 6.5195 23.979 6.53652C23.9675 6.54365 23.9509 6.50498 23.9422 6.45057C23.9201 6.31178 23.7855 6.03254 23.6722 5.8903C23.6196 5.8243 23.517 5.72425 23.444 5.66797C23.3006 5.55732 13.1971 0.313512 12.8542 0.171754C12.4433 0.00191314 11.9546 -0.0450115 11.5302 0.0446134ZM11.8534 1.51044C11.7991 1.52134 11.6265 1.59478 11.4697 1.67366C10.9021 1.95933 1.71596 6.71911 1.6987 6.73651C1.68897 6.74635 3.93984 7.924 6.70068 9.35351C10.3718 11.2543 11.7564 11.9602 11.8542 11.9807C11.9565 12.0022 12.0196 12.0022 12.1222 11.9806C12.2193 11.9602 13.0909 11.5207 15.281 10.3874C16.9446 9.52667 18.5754 8.68303 18.9051 8.51266C19.2348 8.34232 20.1333 7.87784 20.9018 7.48053C21.6703 7.0832 22.2902 6.7493 22.2795 6.73852C22.2535 6.71253 12.8809 1.85977 12.4795 1.66454C12.1534 1.50588 12.0287 1.4752 11.8534 1.51044ZM0.00851149 6.75439C0.00843956 6.8732 0.0124915 6.92483 0.0175265 6.86912C0.0225375 6.81341 0.0226094 6.7162 0.0176464 6.6531C0.0127073 6.59 0.00858342 6.63558 0.00851149 6.75439ZM3.38728 11.1051C2.4481 11.5901 1.67974 11.9923 1.67983 11.9989C1.67995 12.0055 3.94211 13.1815 6.70686 14.6121C12.1915 17.4503 11.8777 17.2995 12.1516 17.2285C12.2668 17.1987 22.2956 12.0288 22.2963 11.9989C22.2966 11.9881 21.8198 11.7401 19.5641 10.5777L18.8788 10.2246L16.2786 11.5699C14.8484 12.3098 13.4886 13.0113 13.2568 13.1287C12.6732 13.4242 12.4506 13.4871 11.988 13.4871C11.5406 13.4871 11.2986 13.422 10.7909 13.1653C10.5988 13.0681 9.24012 12.3663 7.77168 11.6057C6.30327 10.8451 5.09836 10.223 5.09836 10.223C5.09836 10.223 4.32647 10.62 3.38728 11.1051ZM0.00836763 11.9989C0.00836763 12.1111 0.0125155 12.157 0.0175504 12.1009C0.0226094 12.0448 0.0226094 11.953 0.0175504 11.8969C0.0125155 11.8408 0.00836763 11.8867 0.00836763 11.9989ZM3.37398 16.3607C2.44066 16.8442 1.68542 17.2474 1.69566 17.2568C1.70589 17.2661 3.97463 18.4443 6.73726 19.8748L11.7602 22.476H11.988H12.2158L17.2205 19.8866C19.9731 18.4624 22.2414 17.2851 22.2611 17.2703C22.2899 17.2488 21.9846 17.0813 20.7244 16.4274C19.8594 15.9785 19.0902 15.5803 19.0151 15.5424L18.8784 15.4736L15.9687 16.9809C14.3684 17.81 12.9758 18.5243 12.874 18.5683C12.3319 18.803 11.6437 18.8028 11.101 18.5679C10.9987 18.5236 9.60844 17.8106 8.01154 16.9833C6.41467 16.1561 5.09975 15.4798 5.08951 15.4805C5.0793 15.4812 4.30729 15.8773 3.37398 16.3607ZM0.00851149 17.2434C0.00843956 17.3622 0.0124915 17.4139 0.0175265 17.3582C0.0225375 17.3025 0.0226094 17.2052 0.0176464 17.1421C0.0127073 17.079 0.00858342 17.1246 0.00851149 17.2434Z" fill="#4E50D1"/>
</g>
<defs>
<clipPath id="clip0_8366_23436">
<rect width="24" height="24" fill="white"/>
</clipPath>
</defs>
</svg>
