<svg width="24" height="24" viewBox="0 0 24 24" fill="none" xmlns="http://www.w3.org/2000/svg">
<path fill-rule="evenodd" clip-rule="evenodd" d="M11.4621 0.0154857C9.99948 0.149062 8.7208 0.640779 7.60339 1.4994C5.85372 2.84381 4.7989 4.86565 4.68118 7.10051C4.63761 7.92785 4.74293 8.59955 5.07738 9.62761C5.85926 12.0309 7.90032 15.6844 10.7237 19.7347C11.2478 20.4866 11.3689 20.6075 11.6952 20.7049C12.0567 20.8129 12.4652 20.7122 12.7487 20.4452C12.9113 20.2923 14.0822 18.595 14.8538 17.394C17.6994 12.9646 19.177 9.79141 19.3216 7.799C19.3421 7.51694 19.3238 6.88807 19.2867 6.60269C19.1267 5.37021 18.7393 4.3082 18.0897 3.32119C16.9062 1.52288 15.0675 0.355789 12.9523 0.0602833C12.683 0.0226639 11.7054 -0.00672098 11.4621 0.0154857ZM11.2804 1.55099C9.36258 1.78869 7.63755 3.03087 6.7704 4.79867C6.37061 5.61364 6.13652 6.59451 6.1353 7.45973C6.13305 9.07513 7.63234 12.291 10.3863 16.5777C10.8686 17.3283 11.976 18.9655 12.0019 18.9661C12.0083 18.9663 12.2368 18.6396 12.5096 18.2402C15.0102 14.5793 16.8399 11.2688 17.5288 9.15947C17.8202 8.26709 17.9036 7.7096 17.8467 7.03583C17.7072 5.38622 16.9592 3.91719 15.729 2.87682C14.8624 2.1439 13.8079 1.68291 12.6928 1.54945C12.3231 1.50523 11.6437 1.50598 11.2804 1.55099ZM11.6163 3.77291C11.3689 3.79725 10.9766 3.88978 10.7464 3.97812C9.53647 4.4424 8.68442 5.45205 8.40714 6.75005C8.36133 6.96446 8.35398 7.06841 8.35398 7.50297C8.35398 7.93752 8.36133 8.04147 8.40714 8.25588C8.76114 9.91296 10.0609 11.0899 11.7008 11.2383C13.3687 11.3891 14.9396 10.3299 15.4828 8.68801C15.6169 8.28265 15.6497 8.04949 15.6497 7.50297C15.6497 6.95671 15.617 6.72427 15.4829 6.31792C15.017 4.90569 13.7875 3.90855 12.3421 3.77051C12.0517 3.74278 11.9184 3.74321 11.6163 3.77291ZM11.599 5.29591C11.0201 5.40308 10.49 5.76897 10.1565 6.29158C9.69095 7.02112 9.69849 8.00952 10.1751 8.74057C10.9327 9.90249 12.526 10.0881 13.5076 9.12881C13.9534 8.69305 14.1885 8.13179 14.1885 7.50297C14.1885 6.87122 13.9549 6.31432 13.5058 5.87535C13.0037 5.38464 12.2905 5.1679 11.599 5.29591ZM5.52896 17.1547C4.37574 17.4224 3.52686 17.7093 2.78537 18.0822C1.2528 18.8529 0.667151 19.9266 1.1835 21.0191C1.54142 21.7763 2.54028 22.4479 4.05623 22.9504C8.30864 24.3603 15.6951 24.3603 19.9475 22.9504C20.9357 22.6228 21.7231 22.2128 22.2514 21.7508C23.0509 21.0516 23.2262 20.0828 22.6991 19.2765C22.3852 18.7965 21.7438 18.3081 20.9663 17.957C20.232 17.6255 19.2964 17.3324 18.2441 17.1045C17.7599 16.9996 17.5404 17.0403 17.3159 17.2765C16.9672 17.6435 17.1065 18.3051 17.5697 18.482C17.6373 18.5078 17.7824 18.5471 17.8921 18.5694C18.8691 18.7678 19.8721 19.0913 20.5322 19.4208C20.9391 19.624 21.17 19.7806 21.3581 19.981C21.5362 20.1708 21.5561 20.2341 21.4822 20.3766C21.2618 20.8015 20.233 21.3264 18.8844 21.702C17.0232 22.2204 14.6388 22.4952 12.0019 22.4952C9.36492 22.4952 6.98047 22.2204 5.11934 21.702C3.77075 21.3264 2.74188 20.8015 2.52155 20.3766C2.44864 20.236 2.46743 20.1717 2.63379 19.9929C3.11764 19.4727 4.27419 18.985 5.89728 18.6168C6.16018 18.5572 6.41597 18.4872 6.46572 18.4612C6.61164 18.385 6.71464 18.2773 6.79105 18.1209C7.03234 17.6269 6.67047 17.0409 6.12831 17.0477C6.04702 17.0487 5.78189 17.096 5.52896 17.1547Z" fill="#4E50D1"/>
</svg>
