<svg width="24" height="24" viewBox="0 0 24 24" fill="none" xmlns="http://www.w3.org/2000/svg">
<path fill-rule="evenodd" clip-rule="evenodd" d="M7.45169 0.0161607C7.31926 0.0436261 7.11104 0.172334 7.03566 0.273313C7.00346 0.316432 6.95754 0.39746 6.93359 0.453375C6.90967 0.509266 5.56219 5.64845 3.9392 11.8738C1.25644 22.1642 0.989413 23.2048 1.00031 23.3274C1.02261 23.5792 1.17827 23.8135 1.39767 23.9256C1.5229 23.9896 1.56586 23.999 1.73134 23.9985C2.0398 23.9977 2.25436 23.8678 2.37709 23.6076C2.42563 23.5047 3.3558 19.9728 5.39728 12.1401C8.16291 1.5288 8.34643 0.812538 8.3331 0.682029C8.28843 0.244815 7.87069 -0.0707492 7.45169 0.0161607ZM11.8831 0.0165448C11.6489 0.0542618 11.4564 0.202849 11.3468 0.430543L11.2748 0.580162L11.2813 2.28417C11.2877 3.98031 11.288 3.98864 11.3387 4.08544C11.4084 4.21864 11.5616 4.37015 11.694 4.43682C11.783 4.48167 11.8426 4.49235 12.0037 4.49235C12.1648 4.49235 12.2245 4.48167 12.3135 4.43682C12.4459 4.37015 12.5991 4.21864 12.6688 4.08544C12.7195 3.98866 12.7197 3.97985 12.7264 2.2956C12.7322 0.797269 12.7287 0.591518 12.6958 0.502808C12.5678 0.158554 12.2356 -0.0402107 11.8831 0.0165448ZM16.2762 0.0125834C15.9429 0.084104 15.7028 0.356358 15.6751 0.69425C15.6636 0.834362 15.8366 1.50897 18.6201 12.1789C20.2466 18.4136 21.5964 23.5558 21.6197 23.606C21.6791 23.7341 21.8223 23.8729 21.965 23.9409C22.0614 23.9867 22.1252 23.9986 22.2761 23.9988C22.5891 23.9992 22.7901 23.8694 22.9453 23.5669C22.9894 23.4808 23.0005 23.4224 23 23.2788C22.9994 23.1168 22.7045 21.9688 20.0586 11.8269C18.4412 5.62734 17.0936 0.500047 17.0639 0.432896C16.9339 0.138459 16.577 -0.0519747 16.2762 0.0125834ZM11.7957 7.53151C11.5978 7.59333 11.3929 7.78799 11.3221 7.98138C11.2761 8.10713 11.2753 8.15995 11.2815 10.5505L11.2877 12.9913L11.3387 13.0885C11.4084 13.2217 11.5616 13.3732 11.694 13.4399C11.8516 13.5193 12.1558 13.5193 12.3135 13.4399C12.4459 13.3732 12.5991 13.2217 12.6688 13.0885L12.7197 12.9913L12.726 10.5505C12.7322 8.15109 12.7315 8.10756 12.6848 7.97994C12.6287 7.82648 12.475 7.65883 12.316 7.57761C12.1915 7.51403 11.9268 7.49058 11.7957 7.53151ZM11.7957 16.5346C11.5983 16.5963 11.3929 16.791 11.3225 16.9833C11.277 17.1078 11.276 17.1786 11.276 20.2727L11.2761 23.4349L11.3428 23.5789C11.4169 23.7388 11.558 23.8836 11.7071 23.9529C11.8423 24.0157 12.1652 24.0157 12.3004 23.9529C12.4495 23.8836 12.5906 23.7388 12.6647 23.5789L12.7314 23.4349L12.7314 20.2727C12.7315 17.1668 12.7306 17.1082 12.6844 16.9819C12.6287 16.8296 12.4744 16.6616 12.316 16.5807C12.1915 16.5171 11.9268 16.4937 11.7957 16.5346Z" fill="#4E50D1"/>
</svg>
