<svg width="24" height="24" viewBox="0 0 24 24" fill="none" xmlns="http://www.w3.org/2000/svg">
<g clip-path="url(#clip0_8366_23365)">
<path d="M1.5 18.242L11.25 22.1414V10.2567L1.5 6.35725V18.242ZM12.75 10.2567V22.1414L22.5 18.242V6.35725L12.75 10.2567ZM2.76855 5.24983L12 8.94221L21.2305 5.24983L12 1.55745L2.76855 5.24983ZM24 18.7498C24 19.0565 23.8131 19.3322 23.5283 19.4461L12.2783 23.9461C12.0996 24.0176 11.9004 24.0176 11.7217 23.9461L0.47168 19.4461C0.186936 19.3322 0 19.0565 0 18.7498V5.24983C0 4.94315 0.186936 4.66744 0.47168 4.55354L11.7217 0.053543L11.8584 0.013504C11.9984 -0.0134153 12.1441 -9.78298e-05 12.2783 0.053543L23.5283 4.55354C23.8131 4.66744 24 4.94315 24 5.24983V18.7498Z" fill="#4E50D1"/>
</g>
<defs>
<clipPath id="clip0_8366_23365">
<rect width="24" height="24" fill="white"/>
</clipPath>
</defs>
</svg>
