<svg width="24" height="24" viewBox="0 0 24 24" fill="none" xmlns="http://www.w3.org/2000/svg">
<g clip-path="url(#clip0_8366_23662)">
<path fill-rule="evenodd" clip-rule="evenodd" d="M12.6719 0.03564C10.449 0.308256 8.97271 1.55023 8.37883 3.64752C8.17485 4.36778 8.11291 4.97155 8.11229 6.24552L8.11193 7.00752H6.9162C5.88117 7.00752 5.70528 7.0127 5.60736 7.04606C5.4534 7.09853 5.25288 7.28621 5.18109 7.44504L5.12393 7.57152L5.11658 9.65952C5.11135 11.1473 5.11709 11.7889 5.13653 11.8915C5.17013 12.0688 5.27568 12.2397 5.4191 12.3493C5.61821 12.5013 5.64021 12.5035 6.93998 12.5035H8.11133L8.11761 17.9695L8.12393 23.4355L8.17641 23.5492C8.25324 23.7155 8.43494 23.8862 8.60133 23.9485L8.73991 24.0003L11.4079 23.9939L14.0759 23.9875L14.1926 23.9279C14.2568 23.8951 14.361 23.8118 14.4241 23.7428C14.6346 23.5124 14.6159 24.0764 14.6159 17.9472V12.5035H16.2201C17.5055 12.5035 17.8459 12.497 17.933 12.4708C18.1544 12.4042 18.3548 12.214 18.4296 11.9995C18.4457 11.9533 18.5559 10.9759 18.6744 9.82752C18.9093 7.5521 18.9075 7.59497 18.7813 7.37969C18.749 7.32458 18.6776 7.23886 18.6226 7.18918C18.4236 7.00942 18.5584 7.02089 16.4879 7.00752L14.6279 6.99552V6.31805V5.64055L14.6945 5.57405L14.761 5.50752L16.4105 5.49552C18.0397 5.48366 18.0613 5.48287 18.1726 5.43144C18.3169 5.36477 18.4932 5.18854 18.5598 5.04422C18.6119 4.93169 18.6119 4.92835 18.6194 2.81952C18.6249 1.26266 18.6194 0.673104 18.5986 0.576552C18.5501 0.352176 18.3937 0.158064 18.1799 0.056808L18.0599 0L15.4919 0.002352C13.5564 0.004152 12.8619 0.012336 12.6719 0.03564ZM13.1279 1.5042C12.698 1.52959 12.1493 1.64515 11.7786 1.78829C10.7252 2.19511 10.0288 3.078 9.75437 4.35458C9.64596 4.85892 9.64166 4.92938 9.62654 6.45552C9.61193 7.93085 9.6119 7.93157 9.55653 8.0539C9.49159 8.19737 9.34392 8.34866 9.19193 8.4275L9.08393 8.48352L7.85393 8.49014L6.62393 8.49679V9.74414V10.9915L7.76993 10.9919C8.6406 10.9922 8.94864 11 9.05205 11.0243C9.30998 11.085 9.54429 11.3186 9.59786 11.5683C9.61617 11.6538 9.62393 13.2942 9.62393 17.0887V22.4875H11.3759H13.1279V17.0438C13.1279 12.108 13.1315 11.5895 13.1665 11.487C13.2189 11.333 13.4066 11.1325 13.5654 11.0607L13.6919 11.0035L15.3633 10.9966L17.0347 10.9897L17.049 10.8886C17.0597 10.8135 17.2275 9.17057 17.2861 8.56752L17.2919 8.50752L15.4679 8.49552L13.6439 8.48352L13.5409 8.42854C13.3962 8.35121 13.2528 8.20003 13.1868 8.05507L13.1305 7.93152L13.1271 6.69552C13.1232 5.29754 13.1191 5.33688 13.3112 4.94532C13.4992 4.56218 13.8712 4.23269 14.2752 4.09154C14.5583 3.99264 14.6925 3.98388 15.9299 3.98371L17.1119 3.98352V2.73552V1.48752L15.1859 1.49196C14.1266 1.49441 13.2005 1.4999 13.1279 1.5042Z" fill="#4E50D1"/>
</g>
<defs>
<clipPath id="clip0_8366_23662">
<rect width="24" height="24" fill="white"/>
</clipPath>
</defs>
</svg>
