<svg width="24" height="24" viewBox="0 0 24 24" fill="none" xmlns="http://www.w3.org/2000/svg">
<g clip-path="url(#clip0_8366_23292)">
<path fill-rule="evenodd" clip-rule="evenodd" d="M11.2445 0.0217867C8.96125 0.156244 6.6501 1.00313 4.83049 2.37212C2.19421 4.35557 0.517426 7.22256 0.0932554 10.4719C-0.0602971 11.6482 -0.023042 12.9961 0.196289 14.2018C0.477584 15.748 1.13414 17.3544 2.02758 18.682C3.86224 21.4085 6.72761 23.2713 9.93866 23.8253C11.2887 24.0582 12.7111 24.0582 14.061 23.8253C16.366 23.4277 18.5203 22.3482 20.2287 20.7348C22.2852 18.7926 23.5607 16.2754 23.9177 13.4542C24.0538 12.379 24.0195 11.0563 23.8268 9.93925C23.3873 7.39248 22.1147 5.03469 20.2196 3.256C17.7883 0.974097 14.5977 -0.175649 11.2445 0.0217867ZM11.3213 1.62209C9.49352 1.76753 7.90899 2.28651 6.41799 3.2281C5.18225 4.0085 4.00704 5.18354 3.22652 6.4191C2.36845 7.77747 1.86514 9.20396 1.66386 10.8481C1.59979 11.3713 1.59979 12.629 1.66386 13.1522C1.86514 14.7963 2.36845 16.2228 3.22652 17.5812C4.00704 18.8168 5.18225 19.9918 6.41799 20.7722C7.77459 21.6289 9.20826 22.1346 10.8476 22.3348C11.3713 22.3987 12.6294 22.3986 13.1521 22.3346C14.7925 22.1339 16.2264 21.6281 17.5817 20.7722C18.8175 19.9918 19.9927 18.8168 20.7732 17.5812C21.6292 16.2261 22.1351 14.7924 22.3358 13.1522C22.3998 12.6296 22.3999 11.3716 22.336 10.8481C22.1358 9.20896 21.63 7.7755 20.7732 6.4191C19.9927 5.18354 18.8175 4.0085 17.5817 3.2281C16.233 2.37637 14.7827 1.86302 13.1777 1.66932C12.8475 1.62946 11.6208 1.59825 11.3213 1.62209ZM11.8507 7.21645C11.5977 7.25733 11.3848 7.42863 11.2668 7.68641L11.2071 7.81679L11.2055 9.99727L11.204 12.1777L11.2601 12.3129C11.3097 12.4325 11.612 12.7447 13.8792 15.0173C15.2906 16.4321 16.5008 17.6247 16.5726 17.6716C17.0969 18.014 17.7903 17.6378 17.7933 17.0092C17.7951 16.6409 17.9621 16.8308 15.2349 14.099L12.7936 11.6537L12.7933 9.73401L12.7931 7.81436L12.7327 7.68469C12.6562 7.52031 12.5399 7.38756 12.4013 7.30636C12.3054 7.25019 12.2472 7.2335 12.0383 7.20208C12.0101 7.19786 11.9257 7.20431 11.8507 7.21645Z" fill="#4E50D1"/>
</g>
<defs>
<clipPath id="clip0_8366_23292">
<rect width="24" height="24" fill="white"/>
</clipPath>
</defs>
</svg>
