<svg width="24" height="24" viewBox="0 0 24 24" fill="none" xmlns="http://www.w3.org/2000/svg">
<path fill-rule="evenodd" clip-rule="evenodd" d="M1.84918 1.01831C1.58512 1.05793 1.41624 1.11306 1.16353 1.24214C0.942124 1.35523 0.882466 1.40058 0.670318 1.61707C0.34413 1.94993 0.184707 2.24052 0.0531811 2.74204L0.000119939 2.94433V12.0343V21.1243L0.053445 21.3331C0.0827822 21.448 0.161606 21.654 0.228629 21.791C0.497653 22.3411 0.998448 22.7388 1.65528 22.9238L1.89516 22.9914L11.8861 22.9984C18.7821 23.0032 21.9374 22.9974 22.0717 22.9795C22.3736 22.9393 22.5287 22.8914 22.792 22.7569C23.2667 22.5143 23.6523 22.0522 23.8362 21.5052C23.8935 21.3349 23.952 21.0788 23.952 20.9985C23.952 20.9638 23.9625 20.9437 23.976 20.9523C23.992 20.9624 24 17.9722 24 12.0003C24 6.04875 23.9919 3.0281 23.976 3.01803C23.9628 3.00968 23.952 2.96658 23.952 2.92224C23.952 2.76845 23.8565 2.45167 23.7354 2.20386C23.4667 1.65389 22.9658 1.25617 22.3089 1.07108L22.069 1.00349L12.03 1.00025C6.4698 0.998457 1.92779 1.00649 1.84918 1.01831ZM1.92412 2.57856C1.7739 2.62586 1.64022 2.76444 1.56809 2.94764C1.51138 3.09166 1.51136 3.09239 1.50452 4.33853L1.49768 5.58533H11.982H22.4664L22.4596 4.30168L22.4528 3.01803L22.3964 2.90067C22.326 2.75435 22.2256 2.67462 22.0163 2.59898L21.8531 2.53999L11.9461 2.5412C3.29068 2.54223 2.02458 2.54695 1.92412 2.57856ZM0 12.022C0 16.9607 0.00275861 18.9811 0.00611691 16.5117C0.00947521 14.0424 0.00947521 10.0016 0.00611691 7.53231C0.00275861 5.06295 0 7.08333 0 12.022ZM1.50519 14.055L1.51136 20.9769L1.56778 21.0942C1.63813 21.2406 1.73857 21.3203 1.94786 21.3959L2.11105 21.4549L12.0077 21.4554C20.8917 21.4559 21.9172 21.452 22.03 21.4177C22.1912 21.3687 22.3214 21.237 22.3961 21.0473L22.4528 20.9032L22.4589 14.0181L22.4651 7.13308H11.9821H1.49903L1.50519 14.055ZM7.35008 10.4746C7.14482 10.5101 6.95303 10.6542 6.83331 10.8628C6.77847 10.9583 6.76552 11.0141 6.75715 11.1905C6.73935 11.5659 6.6848 11.4951 8.15094 12.9988L9.42676 14.3072L8.15308 15.6152C7.45256 16.3346 6.85413 16.9668 6.82323 17.0201C6.7791 17.0962 6.7649 17.1629 6.75705 17.331C6.7482 17.5205 6.75401 17.5605 6.80781 17.6809C6.94015 17.9769 7.2186 18.1514 7.53232 18.1348C7.84219 18.1185 7.78193 18.1714 9.52605 16.3854C11.2815 14.5877 11.2188 14.6631 11.2344 14.3292C11.2509 13.978 11.3367 14.084 9.56152 12.2606C8.69614 11.3716 7.93951 10.6124 7.88014 10.5735C7.79311 10.5165 7.53495 10.4396 7.47393 10.4526C7.46647 10.4542 7.41072 10.4641 7.35008 10.4746ZM11.8602 16.6164C11.6309 16.6561 11.4152 16.8262 11.3059 17.0536C11.2279 17.2157 11.228 17.51 11.3059 17.6848C11.375 17.8396 11.5038 17.9774 11.6582 18.0616L11.7782 18.127H14.2369H16.6957L16.8087 18.0679C16.9552 17.9912 17.1003 17.8428 17.1683 17.7001C17.2408 17.548 17.2564 17.2691 17.2008 17.1201C17.1038 16.86 16.88 16.6647 16.6253 16.6178C16.4589 16.5871 12.0364 16.5858 11.8602 16.6164Z" fill="#4E50D1"/>
</svg>
