<svg width="24" height="24" viewBox="0 0 24 24" fill="none" xmlns="http://www.w3.org/2000/svg">
<g clip-path="url(#clip0_8366_23673)">
<path d="M24.0002 11.9998C23.9957 11.6602 23.8588 11.3358 23.6187 11.0956C23.3785 10.8555 23.0541 10.7186 22.7144 10.7141H13.1316C13.0479 10.7144 12.966 10.6902 12.896 10.6445C12.8259 10.5988 12.7708 10.5336 12.7373 10.457C12.7056 10.3757 12.6984 10.2869 12.7167 10.2015C12.735 10.1162 12.7779 10.0381 12.8402 9.97698L13.3373 9.47984C13.5644 9.23611 13.6881 8.91375 13.6822 8.58066C13.6763 8.24757 13.5414 7.92977 13.3058 7.6942C13.0702 7.45864 12.7524 7.3237 12.4193 7.31783C12.0863 7.31195 11.7639 7.43559 11.5202 7.6627L8.09159 11.0913C7.85081 11.3323 7.71558 11.6591 7.71558 11.9998C7.71558 12.3406 7.85081 12.6673 8.09159 12.9084L11.5202 16.337C11.7639 16.5641 12.0863 16.6877 12.4193 16.6819C12.7524 16.676 13.0702 16.541 13.3058 16.3055C13.5414 16.0699 13.6763 15.7521 13.6822 15.419C13.6881 15.0859 13.5644 14.7636 13.3373 14.5198L12.8402 14.0227C12.7779 13.9615 12.735 13.8835 12.7167 13.7981C12.6984 13.7128 12.7056 13.624 12.7373 13.5427C12.7708 13.466 12.8259 13.4008 12.896 13.3551C12.966 13.3095 13.0479 13.2853 13.1316 13.2856H22.7144C23.0541 13.2811 23.3785 13.1442 23.6187 12.9041C23.8588 12.6639 23.9957 12.3395 24.0002 11.9998Z" fill="#4E50D1"/>
<path d="M9.39429 5.53714C10.2012 4.74972 11.284 4.30895 12.4114 4.30895C13.5389 4.30895 14.6217 4.74972 15.4286 5.53714C15.9629 6.08117 16.3468 6.75455 16.5429 7.49143C16.5585 7.55634 16.5961 7.6139 16.6491 7.65447C16.7022 7.69504 16.7675 7.71615 16.8343 7.71429C16.8731 7.71917 16.9125 7.71571 16.9498 7.70414C16.9871 7.69256 17.0216 7.67313 17.0508 7.64716C17.08 7.62118 17.1034 7.58926 17.1192 7.55353C17.1351 7.5178 17.1432 7.4791 17.1429 7.44V1.71429C17.1429 1.25963 16.9622 0.823594 16.6408 0.502103C16.3193 0.180612 15.8832 0 15.4286 0H1.71429C1.25963 0 0.823594 0.180612 0.502103 0.502103C0.180612 0.823594 0 1.25963 0 1.71429V22.2857C0 22.7404 0.180612 23.1764 0.502103 23.4979C0.823594 23.8194 1.25963 24 1.71429 24H15.4286C15.8832 24 16.3193 23.8194 16.6408 23.4979C16.9622 23.1764 17.1429 22.7404 17.1429 22.2857V16.56C17.1429 16.4873 17.114 16.4175 17.0625 16.3661C17.0111 16.3146 16.9413 16.2857 16.8686 16.2857C16.8018 16.2838 16.7364 16.305 16.6834 16.3455C16.6303 16.3861 16.5928 16.4437 16.5771 16.5086C16.3713 17.249 15.9753 17.9228 15.4286 18.4629C14.6201 19.2606 13.5301 19.7079 12.3943 19.7079C11.2585 19.7079 10.1684 19.2606 9.36 18.4629L5.93143 15.0343C5.12955 14.228 4.67942 13.1371 4.67942 12C4.67942 10.8629 5.12955 9.77197 5.93143 8.96571L9.39429 5.53714Z" fill="#4E50D1"/>
</g>
<defs>
<clipPath id="clip0_8366_23673">
<rect width="24" height="24" fill="white"/>
</clipPath>
</defs>
</svg>
