<svg width="24" height="24" viewBox="0 0 24 24" fill="none" xmlns="http://www.w3.org/2000/svg">
<path fill-rule="evenodd" clip-rule="evenodd" d="M11.752 0.0352544C11.5768 0.101782 11.4103 0.252214 11.3135 0.431278C11.2718 0.508558 11.2676 0.585838 11.261 1.39728C11.2571 1.88239 11.2459 2.27928 11.236 2.27928C11.2262 2.27928 11.089 2.29598 10.9311 2.31638C9.45658 2.50706 8.03492 3.11023 6.85215 4.04702C6.49971 4.32617 5.77491 5.0568 5.51067 5.39928C4.6963 6.4548 4.16472 7.60437 3.91356 8.85319C3.7927 9.45417 3.76704 9.76685 3.74367 10.9232C3.7164 12.2729 3.67551 12.9923 3.57408 13.9073C3.36689 15.7763 2.92884 17.4223 2.4108 18.2785C2.27595 18.5014 2.27088 18.5159 2.26085 18.7069C2.25159 18.8837 2.25747 18.9202 2.31656 19.0519C2.38361 19.2013 2.52394 19.3548 2.65589 19.423C2.69396 19.4427 2.78897 19.4706 2.86704 19.485C3.05144 19.5191 20.8957 19.5222 21.1034 19.4882C21.3798 19.4429 21.5718 19.2954 21.6898 19.0377C21.7425 18.9227 21.7486 18.8822 21.7392 18.7108C21.7269 18.4866 21.6825 18.3819 21.5293 18.2153C21.3134 17.9806 20.9968 17.2128 20.8112 16.474C20.4629 15.087 20.3034 13.5107 20.2565 10.9915C20.2336 9.7607 20.2104 9.4679 20.0867 8.85319C19.5789 6.32786 17.8772 4.15502 15.5376 3.04421C14.6985 2.64585 13.9091 2.42282 12.8713 2.29094L12.7463 2.27508L12.7393 1.39517C12.7324 0.545374 12.7304 0.511942 12.6801 0.418054C12.6087 0.284638 12.4519 0.13327 12.3168 0.0671504C12.1766 -0.00144159 11.8911 -0.0175696 11.752 0.0352544ZM11.7361 3.76025C10.2468 3.81984 8.81309 4.37174 7.68015 5.32161C7.35598 5.59341 6.86357 6.1097 6.61942 6.43375C5.95988 7.30925 5.51799 8.34161 5.34147 9.41928C5.2836 9.77268 5.25946 10.1874 5.24506 11.0753C5.22075 12.5765 5.14827 13.5901 4.97734 14.8193C4.83176 15.8661 4.55674 17.0526 4.29524 17.7617C4.25614 17.8678 4.22415 17.9646 4.22415 17.9769C4.22415 17.9907 7.1989 17.9993 11.9667 17.9993C19.3311 17.9993 19.7084 17.9972 19.6921 17.9573C19.5309 17.5637 19.2948 16.6876 19.1667 16.0073C18.9058 14.6223 18.7945 13.2762 18.7438 10.8953C18.7255 10.0359 18.7117 9.76632 18.6733 9.51528C18.4995 8.37979 18.0633 7.33956 17.3809 6.43375C17.1367 6.1097 16.6443 5.59341 16.3201 5.32161C15.0525 4.2588 13.394 3.69389 11.7361 3.76025ZM9.75212 21.0422C9.53856 21.1186 9.37894 21.2766 9.28656 21.5033C9.2346 21.6308 9.2448 21.8728 9.31032 22.0673C9.54452 22.7622 10.0569 23.3535 10.7182 23.6918C11.1071 23.8908 11.4161 23.9715 11.8681 23.9923C12.3599 24.015 12.7757 23.9344 13.194 23.7354C13.8293 23.4331 14.3249 22.9337 14.5935 22.3249C14.7784 21.9059 14.7999 21.6701 14.6762 21.4173C14.4952 21.0472 14.015 20.8903 13.658 21.0846C13.4841 21.1792 13.3599 21.3283 13.2826 21.535C13.1612 21.8599 13.0307 22.046 12.8041 22.2169C12.5567 22.4035 12.3156 22.4865 12.0193 22.487C11.6839 22.4875 11.4073 22.3915 11.1663 22.1909C10.9425 22.0046 10.8626 21.8848 10.7045 21.4989C10.6217 21.2966 10.5023 21.1644 10.3165 21.0692C10.1717 20.995 9.91832 20.9829 9.75212 21.0422Z" fill="#4E50D1"/>
</svg>
