<svg width="24" height="24" viewBox="0 0 24 24" fill="none" xmlns="http://www.w3.org/2000/svg">
<g clip-path="url(#clip0_8366_23764)">
<path fill-rule="evenodd" clip-rule="evenodd" d="M0.530949 0.0266742C0.354799 0.0774407 0.166086 0.241766 0.0703989 0.42779C-0.0103754 0.584794 -0.019654 0.834258 0.0483892 1.01927C0.100033 1.15969 0.236479 1.29865 5.51105 6.58199L10.9207 12.0007L5.51105 17.4194C0.236479 22.7027 0.100033 22.8417 0.0483892 22.9821C-0.175017 23.5896 0.413684 24.1744 1.0242 23.9516C1.15801 23.9027 1.35687 23.7069 6.5755 18.485L11.988 13.0692L17.4006 18.485C22.6192 23.7069 22.818 23.9027 22.9518 23.9516C23.3251 24.0878 23.7499 23.9151 23.9022 23.5652C23.9325 23.4953 23.967 23.4194 23.9786 23.3965C24.005 23.3448 24.007 23.0589 23.9809 23.075C23.9705 23.0814 23.9426 23.0308 23.9189 22.9624C23.8787 22.8464 23.5121 22.4738 18.4655 17.4194L13.0553 12.0007L18.4648 6.58199C23.3999 1.63848 23.8781 1.15278 23.9171 1.04328C23.9406 0.977268 23.9689 0.912988 23.9799 0.900458C24.0091 0.867118 24.0054 0.569 23.9759 0.587218C23.9627 0.595379 23.9519 0.584866 23.9519 0.563839C23.9519 0.542813 23.9259 0.474668 23.894 0.412404C23.7191 0.0700478 23.3187 -0.0859002 22.9569 0.0474369C22.8167 0.0991395 22.6779 0.235741 17.4006 5.51632L11.988 10.9322L6.5755 5.51632C1.35687 0.294476 1.15801 0.0986355 1.0242 0.0497892C0.876296 -0.00419373 0.671471 -0.013795 0.530949 0.0266742ZM0.00801404 0.75524C0.00813392 0.847652 0.0124496 0.882504 0.0176523 0.832722C0.0228311 0.782915 0.0227591 0.707306 0.0174605 0.6647C0.0121618 0.622071 0.00791814 0.662828 0.00801404 0.75524ZM0.00801404 23.2461C0.00813392 23.3385 0.0124496 23.3734 0.0176523 23.3236C0.0228311 23.2738 0.0227591 23.1982 0.0174605 23.1556C0.0121618 23.113 0.00791814 23.1537 0.00801404 23.2461Z" fill="#4E50D1"/>
</g>
<defs>
<clipPath id="clip0_8366_23764">
<rect width="24" height="24" fill="white"/>
</clipPath>
</defs>
</svg>
