<svg width="24" height="24" viewBox="0 0 24 24" fill="none" xmlns="http://www.w3.org/2000/svg">
<g clip-path="url(#clip0_8366_23477)">
<path d="M6.37416 17.625C6.37416 17.3788 6.32581 17.1347 6.23158 16.9072C6.13736 16.6798 5.9994 16.4729 5.82533 16.2988C5.65126 16.1248 5.44436 15.9868 5.21693 15.8926C4.98945 15.7984 4.74539 15.75 4.49916 15.75C4.25293 15.75 4.00887 15.7984 3.78139 15.8926C3.55396 15.9868 3.34706 16.1248 3.17299 16.2988C2.99892 16.4729 2.86096 16.6798 2.76674 16.9072C2.67251 17.1347 2.62416 17.3788 2.62416 17.625C2.62416 18.1223 2.82136 18.5995 3.17299 18.9512C3.52462 19.3028 4.00188 19.5 4.49916 19.5C4.99644 19.5 5.4737 19.3028 5.82533 18.9512C6.17696 18.5995 6.37416 18.1223 6.37416 17.625ZM21.3742 17.625C21.3742 17.3788 21.3258 17.1347 21.2316 16.9072C21.1374 16.6798 20.9994 16.4729 20.8253 16.2988C20.6513 16.1248 20.4444 15.9868 20.2169 15.8926C19.9894 15.7984 19.7454 15.75 19.4992 15.75C19.2529 15.75 19.0089 15.7984 18.7814 15.8926C18.554 15.9868 18.3471 16.1248 18.173 16.2988C17.9989 16.4729 17.861 16.6798 17.7667 16.9072C17.6725 17.1347 17.6242 17.3788 17.6242 17.625C17.6242 17.8712 17.6725 18.1153 17.7667 18.3428C17.861 18.5702 17.9989 18.7771 18.173 18.9512C18.3471 19.1252 18.554 19.2632 18.7814 19.3574C19.0089 19.4516 19.2529 19.5 19.4992 19.5C19.7454 19.5 19.9894 19.4516 20.2169 19.3574C20.4444 19.2632 20.6513 19.1252 20.8253 18.9512C20.9994 18.7771 21.1374 18.5702 21.2316 18.3428C21.3258 18.1153 21.3742 17.8712 21.3742 17.625ZM14.7228 18.9902C15.1089 18.8404 15.5436 19.0319 15.6935 19.418C15.843 19.8038 15.6514 20.2377 15.2658 20.3877C13.1819 21.1967 10.8711 21.2045 8.78236 20.4082C8.39546 20.2606 8.20124 19.8264 8.34877 19.4395C8.49639 19.0525 8.93054 18.8583 9.31752 19.0059C11.0591 19.6698 12.9853 19.6648 14.7228 18.9902ZM2.99818 12C2.99782 10.7726 3.24942 9.55784 3.73744 8.43164C4.22549 7.30549 4.93928 6.29115 5.8351 5.45215C6.13742 5.16901 6.6125 5.18498 6.89564 5.4873C7.17877 5.78963 7.1628 6.26471 6.86049 6.54785C6.11466 7.24649 5.51975 8.09063 5.11342 9.02832C4.70702 9.96618 4.49786 10.9779 4.49818 12L4.50795 12.3359C4.51396 12.4491 4.52252 12.564 4.53334 12.6816C4.57107 13.094 4.26697 13.4591 3.85463 13.4971C3.44227 13.5349 3.07714 13.2307 3.0392 12.8184C3.01483 12.5534 2.99818 12.2825 2.99818 12ZM19.4992 12C19.4996 10.9779 19.2903 9.96616 18.8839 9.02832C18.4776 8.09063 17.8828 7.24637 17.1369 6.54785C16.8345 6.26475 16.8186 5.78967 17.1017 5.4873C17.3847 5.18517 17.8589 5.16946 18.1613 5.45215C19.0573 6.29106 19.7718 7.30542 20.2599 8.43164C20.7479 9.55786 20.9997 10.7726 20.9992 12C20.9992 12.2807 20.9812 12.557 20.9581 12.8164C20.9215 13.2289 20.5572 13.5337 20.1447 13.4971C19.7321 13.4604 19.4274 13.0961 19.464 12.6836C19.4745 12.5652 19.4833 12.449 19.4894 12.335L19.4992 12ZM13.8742 3.375C13.8742 3.12877 13.8258 2.88471 13.7316 2.65723C13.6374 2.4298 13.4994 2.2229 13.3253 2.04883C13.1513 1.87476 12.9444 1.7368 12.7169 1.64258C12.4894 1.54835 12.2454 1.5 11.9992 1.5C11.7529 1.5 11.5089 1.54835 11.2814 1.64258C11.054 1.7368 10.8471 1.87476 10.673 2.04883C10.4989 2.2229 10.361 2.4298 10.2667 2.65723C10.1725 2.88471 10.1242 3.12877 10.1242 3.375C10.1242 3.62123 10.1725 3.86529 10.2667 4.09277C10.361 4.3202 10.4989 4.5271 10.673 4.70117C10.8471 4.87524 11.054 5.0132 11.2814 5.10742C11.5089 5.20165 11.7529 5.25 11.9992 5.25C12.2454 5.25 12.4894 5.20165 12.7169 5.10742C12.9444 5.0132 13.1513 4.87524 13.3253 4.70117C13.4994 4.5271 13.6374 4.3202 13.7316 4.09277C13.8258 3.86529 13.8742 3.62123 13.8742 3.375ZM7.87416 17.625C7.87416 18.5201 7.51881 19.3788 6.88588 20.0117C6.67624 20.2214 6.44086 20.399 6.18861 20.5449C6.49453 20.6548 6.79034 20.7942 7.07143 20.9629C7.8485 21.4291 8.48481 22.0979 8.91127 22.8975C9.10583 23.2629 8.96703 23.7173 8.6017 23.9121C8.23629 24.1067 7.78189 23.9679 7.58705 23.6025C7.28856 23.0431 6.84368 22.5753 6.29994 22.249C5.75599 21.9227 5.13351 21.75 4.49916 21.75C3.86481 21.75 3.24233 21.9227 2.69838 22.249C2.15464 22.5753 1.70976 23.0431 1.41127 23.6025C1.21643 23.9679 0.762025 24.1067 0.396621 23.9121C0.0312901 23.7173 -0.107515 23.2629 0.0870502 22.8975C0.513507 22.0979 1.14982 21.4291 1.92689 20.9629C2.20771 20.7944 2.50312 20.6547 2.80873 20.5449C2.55676 20.3991 2.32187 20.2211 2.11244 20.0117C1.47951 19.3788 1.12416 18.5201 1.12416 17.625C1.12416 17.1818 1.21139 16.7425 1.381 16.333C1.5506 15.9237 1.79913 15.5516 2.11244 15.2383C2.42575 14.925 2.79783 14.6764 3.20717 14.5068C3.61664 14.3372 4.05595 14.25 4.49916 14.25C4.94237 14.25 5.38168 14.3372 5.79115 14.5068C6.20049 14.6764 6.57257 14.925 6.88588 15.2383C7.19919 15.5516 7.44772 15.9237 7.61732 16.333C7.78693 16.7425 7.87416 17.1818 7.87416 17.625ZM22.8742 17.625C22.8742 18.0682 22.7869 18.5075 22.6173 18.917C22.4477 19.3263 22.1992 19.6984 21.8859 20.0117C21.6776 20.22 21.4424 20.3981 21.1886 20.5449C21.4945 20.6548 21.7903 20.7942 22.0714 20.9629C22.8485 21.4291 23.4848 22.0979 23.9113 22.8975C24.1058 23.2629 23.967 23.7173 23.6017 23.9121C23.2363 24.1067 22.7819 23.9679 22.587 23.6025C22.2886 23.0431 21.8437 22.5753 21.2999 22.249C20.756 21.9227 20.1335 21.75 19.4992 21.75C18.8648 21.75 18.2423 21.9227 17.6984 22.249C17.1546 22.5753 16.7098 23.0431 16.4113 23.6025C16.2164 23.9679 15.762 24.1067 15.3966 23.9121C15.0313 23.7173 14.8925 23.2629 15.0871 22.8975C15.5135 22.0979 16.1498 21.4291 16.9269 20.9629C17.2077 20.7944 17.5031 20.6547 17.8087 20.5449C17.5552 20.3981 17.3205 20.2198 17.1124 20.0117C16.7991 19.6984 16.5506 19.3263 16.381 18.917C16.2114 18.5075 16.1242 18.0682 16.1242 17.625C16.1242 17.1818 16.2114 16.7425 16.381 16.333C16.5506 15.9237 16.7991 15.5516 17.1124 15.2383C17.4257 14.925 17.7978 14.6764 18.2072 14.5068C18.6166 14.3372 19.0559 14.25 19.4992 14.25C19.9424 14.25 20.3817 14.3372 20.7912 14.5068C21.2005 14.6764 21.5726 14.925 21.8859 15.2383C22.1992 15.5516 22.4477 15.9237 22.6173 16.333C22.7869 16.7425 22.8742 17.1818 22.8742 17.625ZM15.3742 3.375C15.3742 3.81821 15.2869 4.25752 15.1173 4.66699C14.9477 5.07633 14.6992 5.44841 14.3859 5.76172C14.1779 5.96966 13.943 6.1472 13.6896 6.29395C13.8293 6.34396 13.9675 6.39946 14.1027 6.46191C14.7623 6.7666 15.3484 7.21052 15.8195 7.76367C16.0879 8.07901 16.0498 8.55275 15.7345 8.82129C15.4192 9.08974 14.9454 9.05163 14.6769 8.73633C14.3466 8.34854 13.9362 8.03684 13.4738 7.82324C13.0112 7.60962 12.5077 7.49902 11.9982 7.49902C11.4887 7.49902 10.9851 7.60962 10.5226 7.82324C10.0601 8.03684 9.64979 8.34854 9.31947 8.73633C9.05093 9.05163 8.5772 9.08974 8.26186 8.82129C7.94656 8.55275 7.90844 8.07901 8.17689 7.76367C8.64801 7.21052 9.23407 6.7666 9.89369 6.46191C10.0289 6.39946 10.1671 6.34396 10.3068 6.29395C10.054 6.14736 9.81998 5.96926 9.61244 5.76172C9.29913 5.44841 9.0506 5.07633 8.881 4.66699C8.71139 4.25752 8.62416 3.81821 8.62416 3.375C8.62416 2.93179 8.71139 2.49248 8.881 2.08301C9.0506 1.67367 9.29913 1.30159 9.61244 0.988281C9.92575 0.674972 10.2978 0.426442 10.7072 0.256836C11.1166 0.0872264 11.5559 0 11.9992 0C12.4424 0 12.8817 0.0872263 13.2912 0.256836C13.7005 0.426442 14.0726 0.674972 14.3859 0.988281C14.6992 1.30159 14.9477 1.67367 15.1173 2.08301C15.2869 2.49248 15.3742 2.93179 15.3742 3.375Z" fill="#4E50D1"/>
</g>
<defs>
<clipPath id="clip0_8366_23477">
<rect width="24" height="24" fill="white"/>
</clipPath>
</defs>
</svg>
