<svg width="24" height="24" viewBox="0 0 24 24" fill="none" xmlns="http://www.w3.org/2000/svg">
<path fill-rule="evenodd" clip-rule="evenodd" d="M10.5912 0.0111918C10.5384 0.0154638 10.3548 0.0302718 10.1832 0.0440718C7.44424 0.264248 4.86501 1.68217 3.22418 3.86974C1.63682 5.98599 0.976145 8.56772 1.35362 11.1793C1.56333 12.6304 2.12923 14.0627 2.98103 15.2985C3.62035 16.226 4.54706 17.1512 5.45589 17.7693L5.72968 17.9556L5.73645 20.6814L5.74322 23.4073L5.80653 23.5393C6.08714 24.1244 6.86383 24.145 7.16728 23.5753L7.23122 23.4553L7.23806 20.4553C7.24283 18.3634 7.23703 17.4226 7.21891 17.3473C7.17568 17.1676 7.05004 17.0109 6.84256 16.878C6.01581 16.3484 5.72222 16.1184 5.1772 15.5733C4.7399 15.1361 4.49495 14.8438 4.18771 14.3926C3.42374 13.2707 2.97122 12.0473 2.79943 10.6393C2.75027 10.2364 2.7569 9.18392 2.81114 8.77933C2.99457 7.41152 3.40924 6.28842 4.13586 5.19133C4.65261 4.41114 5.31143 3.71631 6.08387 3.13686C7.08875 2.38302 8.37378 1.83601 9.62313 1.63021C10.199 1.53536 10.4294 1.5195 11.2152 1.52053C11.8012 1.5213 12.0572 1.53135 12.2952 1.56294C13.4604 1.71757 14.4139 2.00331 15.3545 2.47974C17.4669 3.54973 18.8655 5.36331 19.1853 7.44733C19.2127 7.62651 19.2308 7.95032 19.2414 8.45533C19.254 9.05396 19.2644 9.21586 19.2947 9.28402C19.3154 9.33061 19.7638 10.0164 20.2912 10.808C20.9592 11.8107 21.2597 12.2821 21.2819 12.3618C21.3734 12.6907 21.2039 13.0909 20.915 13.2279C20.8651 13.2516 20.5783 13.3339 20.2775 13.4107C19.9768 13.4876 19.6878 13.5724 19.6353 13.5992C19.5225 13.6568 19.3869 13.8007 19.3102 13.9442L19.2552 14.0473L19.2408 15.5473C19.2316 16.4979 19.2167 17.0879 19.2001 17.1582C18.9836 18.0726 18.3447 18.7098 17.4448 18.9088C17.1238 18.9798 16.8639 18.9695 16.1982 18.8593C15.479 18.7403 15.3658 18.7379 15.1675 18.837C14.929 18.9561 14.7952 19.1439 14.7523 19.4197C14.7383 19.5098 14.7319 20.33 14.7361 21.4882L14.7432 23.4073L14.8076 23.5446C15.037 24.0342 15.656 24.1488 16.0236 23.7699C16.0762 23.7157 16.1444 23.6227 16.1752 23.5633L16.2312 23.4553L16.2377 21.9229L16.2442 20.3904L16.2977 20.4031C16.6569 20.4883 17.3099 20.4806 17.7552 20.3859C19.1258 20.0944 20.2217 19.081 20.5998 17.7553C20.7286 17.304 20.7379 17.1964 20.753 15.9824L20.7672 14.8455L21.0552 14.7663C21.5648 14.6262 21.845 14.4672 22.1712 14.133C22.5841 13.71 22.8185 13.1449 22.819 12.5713C22.8193 12.2503 22.729 11.8629 22.5875 11.5774C22.5543 11.5103 22.1284 10.8557 21.6411 10.1228L20.7552 8.7903L20.755 8.51482C20.7544 7.79235 20.679 7.10686 20.5361 6.52333C19.9872 4.2819 18.3413 2.30955 16.0404 1.13602C14.7898 0.498176 13.3854 0.118616 11.9112 0.0201198C11.5794 -0.00203219 10.8178 -0.00719219 10.5912 0.0111918ZM11.3592 4.49917C9.80366 4.60107 8.50288 5.5981 8.01319 7.06383C7.88135 7.45846 7.83371 7.7397 7.83235 8.13133C7.83131 8.42518 7.83643 8.46538 7.88723 8.56333C8.02079 8.82082 8.24783 8.97241 8.52563 8.98959C8.74725 9.00327 8.91923 8.94092 9.07715 8.78958C9.24835 8.62556 9.29896 8.49099 9.33004 8.11717C9.36138 7.73996 9.41723 7.52605 9.55694 7.24786C9.74455 6.8743 10.0705 6.52081 10.4223 6.30932C11.0218 5.94901 11.8535 5.90422 12.4894 6.19806C13.2198 6.53552 13.6901 7.18299 13.7969 7.99822C13.8524 8.42204 13.7796 8.81756 13.567 9.24733C13.2989 9.7891 12.9383 10.1114 12.3179 10.3639C12.1885 10.4165 12.0225 10.4935 11.9489 10.5349C11.4385 10.8223 11.0424 11.3366 10.8886 11.9113C10.8156 12.1844 10.7959 12.8006 10.8545 12.9772C10.9815 13.3594 11.3961 13.5729 11.7962 13.462C11.9951 13.4069 12.232 13.1697 12.2851 12.9725C12.3 12.917 12.3196 12.7366 12.3286 12.5715C12.3418 12.3304 12.3559 12.249 12.4 12.1579C12.4785 11.9959 12.6513 11.8504 12.8623 11.7686C14.1289 11.2775 14.9981 10.2425 15.2619 8.91133C15.3067 8.68556 15.3072 7.82101 15.2627 7.59133C14.9844 6.15452 13.9834 5.04478 12.6021 4.64187C12.2361 4.53514 11.7181 4.47567 11.3592 4.49917ZM11.2752 15.0297C10.8492 15.1484 10.5204 15.5181 10.4529 15.9542C10.3385 16.6933 10.9916 17.3483 11.7293 17.2341C12.1786 17.1646 12.5672 16.812 12.6658 16.3846C12.7014 16.23 12.6964 15.9854 12.6542 15.8224C12.5596 15.4566 12.2309 15.1281 11.8642 15.0326C11.6956 14.9887 11.4271 14.9874 11.2752 15.0297Z" fill="#4E50D1"/>
</svg>
