<svg width="24" height="24" viewBox="0 0 24 24" fill="none" xmlns="http://www.w3.org/2000/svg">
<g clip-path="url(#clip0_8366_23320)">
<path fill-rule="evenodd" clip-rule="evenodd" d="M11.3903 0.00808911C11.3442 0.0133011 11.1877 0.0293933 11.0427 0.0438523C7.96923 0.350157 5.21166 2.30169 3.87678 5.11519C3.4261 6.06509 3.16006 7.00783 3.04737 8.0544L3.01868 8.32084L2.8356 8.36378C2.37759 8.47119 1.87972 8.71202 1.46589 9.02635C1.22691 9.20785 0.866516 9.58643 0.678408 9.85354C0.357279 10.3095 0.111877 10.9378 0.0398415 11.4885C-0.0132805 11.8944 -0.0132805 15.1141 0.0398415 15.5201C0.139541 16.2822 0.499912 17.0255 1.04638 17.5963C1.63664 18.2128 2.33245 18.5765 3.19187 18.7179C3.48738 18.7665 4.65834 18.7647 4.86745 18.7154C5.26272 18.622 5.66651 18.291 5.84778 17.9116C5.90146 17.7994 5.95688 17.6434 5.97097 17.565C6.00676 17.3659 6.00676 9.64268 5.97097 9.44362C5.95688 9.36522 5.90146 9.20922 5.84778 9.09694C5.62666 8.63425 5.07895 8.25844 4.62312 8.25666C4.53392 8.2563 4.53239 8.25476 4.54469 8.17824C4.55159 8.1353 4.56907 8.01371 4.5835 7.90803C4.65441 7.38871 4.85429 6.65793 5.06402 6.15115C5.3215 5.52898 5.73056 4.83439 6.15124 4.30498C6.39609 3.99685 6.99523 3.39656 7.30276 3.15124C8.36602 2.30311 9.60705 1.76928 10.9948 1.5631C11.4058 1.50205 12.5734 1.50205 12.9844 1.5631C14.3722 1.76928 15.6132 2.30311 16.6764 3.15124C16.984 3.39656 17.5831 3.99685 17.828 4.30498C18.7122 5.41777 19.2221 6.64179 19.4313 8.15422L19.4455 8.2563L19.3553 8.25666C18.8973 8.25846 18.3538 8.63158 18.1314 9.09694C18.0778 9.20922 18.0223 9.36522 18.0082 9.44362C17.9724 9.64268 17.9724 17.3659 18.0082 17.565C18.0223 17.6434 18.0778 17.7994 18.1314 17.9116C18.355 18.3795 18.9002 18.7503 19.367 18.7519L19.4689 18.7523L19.4687 18.8664C19.4684 19.045 19.4245 19.2749 19.349 19.4922C19.0916 20.2334 18.4871 20.7695 17.7001 20.9545C17.5379 20.9926 17.3977 20.998 16.5601 20.998H15.6051L15.5481 20.8577C15.4651 20.6536 15.2549 20.3496 15.0665 20.1614C14.6902 19.7856 14.2342 19.5724 13.698 19.5214C13.3696 19.4902 12.0725 19.4902 11.7769 19.5214C11.4617 19.5547 11.2947 19.602 11.0187 19.7361C10.397 20.0385 9.98794 20.5387 9.80328 21.2227C9.73086 21.4908 9.73089 21.9985 9.80331 22.2902C9.9026 22.6902 10.1121 23.0611 10.3995 23.3458C10.6865 23.6301 10.9874 23.8098 11.3835 23.9338L11.5941 23.9997L12.7208 24C13.7522 24.0003 13.8616 23.9964 14.0152 23.9548C14.6946 23.7705 15.2035 23.3586 15.5061 22.7483L15.6147 22.529L16.6249 22.5155C17.7833 22.4999 17.9822 22.4762 18.4941 22.2931C19.6632 21.8748 20.5681 20.8753 20.8719 19.6668C20.9237 19.4607 20.9781 19.0422 20.9786 18.8449L20.9791 18.6854L21.1529 18.6433C22.2108 18.3872 23.1434 17.6124 23.626 16.5886C23.7633 16.2974 23.8909 15.8712 23.9274 15.5819C23.9432 15.4564 23.9659 15.3349 23.9779 15.312C24.0088 15.2525 24.0066 11.6597 23.9756 11.6789C23.9615 11.6876 23.9516 11.6611 23.9516 11.6143C23.9513 11.3407 23.7711 10.7026 23.5948 10.3514C23.275 9.71416 22.7542 9.14048 22.1897 8.80375C21.8387 8.59433 21.476 8.44172 21.1451 8.36412L20.9635 8.32153L20.9112 7.89862C20.8123 7.09799 20.6464 6.4373 20.3619 5.71036C19.4514 3.38446 17.5952 1.52463 15.2738 0.612437C14.5478 0.327172 13.8873 0.161206 13.0444 0.0522827C12.7624 0.015847 11.5973 -0.0152807 11.3903 0.00808911ZM3.51976 9.77365C2.5476 9.86615 1.75454 10.5933 1.55144 11.5785C1.49523 11.8512 1.49523 15.1574 1.55144 15.4301C1.69971 16.1493 2.174 16.7551 2.81779 17.0476C3.16033 17.2032 3.51981 17.262 4.13278 17.2627L4.48636 17.2632V13.5026V9.74207L4.09682 9.74896C3.88258 9.75273 3.62289 9.76385 3.51976 9.77365ZM19.4928 13.5043V17.2704L19.9903 17.2563C20.5331 17.241 20.759 17.2065 21.0458 17.0952C21.7098 16.8376 22.1873 16.2978 22.3991 15.5654L22.4534 15.3777V13.5043V11.6309L22.3986 11.4415C22.187 10.7096 21.7105 10.1713 21.0458 9.91337C20.759 9.80207 20.5331 9.76758 19.9903 9.75225L19.4928 9.7382V13.5043ZM0.0149825 13.5043C0.0149825 14.5083 0.017955 14.9155 0.0215748 14.4092C0.0251946 13.9029 0.0251706 13.0815 0.0215748 12.5838C0.017955 12.0861 0.0149825 12.5003 0.0149825 13.5043ZM11.7967 21.042C11.5653 21.106 11.3805 21.2784 11.2922 21.5125C11.2283 21.682 11.2385 21.9134 11.3169 22.0757C11.3934 22.234 11.5642 22.3929 11.7212 22.4517C11.8474 22.4991 11.8935 22.5009 12.7784 22.4942L13.7036 22.4871L13.8264 22.4222C13.9836 22.3391 14.1334 22.1684 14.1846 22.0139C14.2381 21.8526 14.2227 21.5648 14.1535 21.4303C14.0807 21.2889 13.9403 21.1558 13.7891 21.0847L13.6557 21.022L12.7807 21.0169C12.1389 21.0132 11.8766 21.0199 11.7967 21.042Z" fill="#4E50D1"/>
</g>
<defs>
<clipPath id="clip0_8366_23320">
<rect width="24" height="24" fill="white"/>
</clipPath>
</defs>
</svg>
