<svg width="24" height="24" viewBox="0 0 24 24" fill="none" xmlns="http://www.w3.org/2000/svg">
<g clip-path="url(#clip0_8366_23432)">
<path fill-rule="evenodd" clip-rule="evenodd" d="M11.74 0.0329778C11.5387 0.104865 11.3859 0.252263 11.2841 0.472772L11.2317 0.586375L11.2253 5.90852L11.219 11.2307L5.90203 11.237L0.585089 11.2434L0.449656 11.307C0.291564 11.3811 0.141361 11.5229 0.0665711 11.6684C-0.0128227 11.823 -0.0225581 12.0904 0.0446785 12.2688C0.110093 12.4423 0.266362 12.606 0.44793 12.6912L0.585089 12.7555L5.90203 12.7619L11.219 12.7683L11.2253 18.0904L11.2317 23.4126L11.296 23.5498C11.577 24.15 12.397 24.15 12.6781 23.5498L12.7423 23.4126L12.7487 18.0904L12.755 12.7683L18.072 12.7619L23.3889 12.7555L23.5261 12.6912C23.6974 12.6108 23.8638 12.4421 23.9185 12.2932C23.9415 12.2307 23.9694 12.1692 23.9804 12.1567C24.0059 12.1277 24.0069 11.8006 23.9814 11.8163C23.971 11.8228 23.9439 11.7757 23.9212 11.7116C23.8674 11.5602 23.7006 11.3896 23.5261 11.3077L23.3889 11.2434L18.072 11.237L12.755 11.2307L12.7487 5.90852L12.7423 0.586375L12.6781 0.449082C12.5938 0.269256 12.4291 0.110697 12.2612 0.0477872C12.1078 -0.00965031 11.8777 -0.0162029 11.74 0.0329778ZM0.00566499 11.9995C0.00566499 12.0985 0.00990924 12.139 0.0150647 12.0895C0.0202441 12.04 0.0202441 11.959 0.0150647 11.9095C0.00990924 11.86 0.00566499 11.9005 0.00566499 11.9995Z" fill="#4E50D1"/>
</g>
<defs>
<clipPath id="clip0_8366_23432">
<rect width="24" height="24" fill="white"/>
</clipPath>
</defs>
</svg>
