<svg width="24" height="24" viewBox="0 0 24 24" fill="none" xmlns="http://www.w3.org/2000/svg">
<path fill-rule="evenodd" clip-rule="evenodd" d="M12.0214 1.00837C10.4415 1.14654 9.08808 1.51806 7.76229 2.17747C6.71621 2.69777 5.84406 3.31193 4.9948 4.12638C1.16286 7.80115 0.501303 13.6155 3.41558 18.0058L3.60308 18.2882L2.08424 18.2953L0.56537 18.3024L0.435466 18.3697C0.279315 18.4505 0.129988 18.6065 0.0570185 18.7651C-0.0233407 18.9396 -0.0181836 19.2153 0.0688465 19.3976C0.14333 19.5536 0.288423 19.7067 0.428538 19.7772C0.617531 19.8723 0.796082 19.878 3.32355 19.8706L5.77383 19.8634L5.91613 19.7979C6.1148 19.7065 6.23321 19.596 6.32426 19.4172L6.40244 19.2637L6.40242 16.7184L6.40239 14.1732L6.32945 14.0222C6.18879 13.7309 5.93691 13.5749 5.60706 13.5749C5.2906 13.5749 5.02897 13.7301 4.88765 14.0016L4.82451 14.1229L4.81168 15.6576L4.79885 17.1924L4.62772 16.9165C3.88819 15.7243 3.46474 14.501 3.28147 13.0274C3.21868 12.5225 3.21856 11.47 3.28121 10.9631C3.53912 8.8769 4.43036 7.0147 5.88578 5.52093C7.70366 3.65515 10.1681 2.62574 12.8168 2.62581C14.3703 2.62586 15.7918 2.9604 17.1657 3.64929C19.4015 4.77033 21.1144 6.72473 21.8986 9.04954C22.2613 10.1245 22.4075 11.0991 22.3784 12.2471C22.3583 13.0422 22.2938 13.549 22.1276 14.2195C21.5191 16.6747 19.9261 18.8055 17.743 20.0844C15.7192 21.27 13.3821 21.6839 11.0464 21.2703C10.5492 21.1822 10.0235 21.0344 9.34589 20.7921C8.90753 20.6353 8.75949 20.6208 8.51526 20.7105C7.99495 20.9015 7.84878 21.5998 8.24726 21.9908C8.3785 22.1196 8.54281 22.1954 9.1276 22.3969C9.96919 22.6868 10.7949 22.864 11.7649 22.9627C12.2604 23.0132 13.3183 23.0123 13.8559 22.9608C15.7788 22.7769 17.6505 22.1055 19.1927 21.0462C21.193 19.6723 22.6537 17.7553 23.4354 15.4781C23.9542 13.9668 24.1218 12.2589 23.9118 10.6232C23.825 9.94705 23.6229 9.10614 23.3838 8.42622C22.5167 5.96025 20.7886 3.89303 18.4674 2.54517C18.3085 2.45286 17.9967 2.28631 17.7747 2.1751C17.5527 2.06387 17.3248 1.94072 17.2684 1.90142C17.1006 1.7846 16.2179 1.47574 15.652 1.3358C15.1021 1.19984 14.7112 1.12736 14.1253 1.0527C13.8426 1.0167 12.2984 0.984144 12.0214 1.00837Z" fill="#4E50D1"/>
</svg>
