<svg width="24" height="24" viewBox="0 0 24 24" fill="none" xmlns="http://www.w3.org/2000/svg">
<g clip-path="url(#clip0_8366_23575)">
<path d="M17.5 0H6.5C4.7769 0.00264482 3.12514 0.688314 1.90673 1.90673C0.688314 3.12514 0.00264482 4.7769 0 6.5L0 17.5C0.00264482 19.2231 0.688314 20.8749 1.90673 22.0933C3.12514 23.3117 4.7769 23.9974 6.5 24H17.5C19.2231 23.9974 20.8749 23.3117 22.0933 22.0933C23.3117 20.8749 23.9974 19.2231 24 17.5V6.5C23.9974 4.7769 23.3117 3.12514 22.0933 1.90673C20.8749 0.688314 19.2231 0.00264482 17.5 0V0ZM12 17.5C10.9122 17.5 9.84883 17.1774 8.94436 16.5731C8.03989 15.9687 7.33494 15.1098 6.91866 14.1048C6.50238 13.0998 6.39346 11.9939 6.60568 10.927C6.8179 9.86011 7.34172 8.8801 8.11091 8.11091C8.8801 7.34172 9.86011 6.8179 10.927 6.60568C11.9939 6.39346 13.0998 6.50238 14.1048 6.91866C15.1098 7.33494 15.9687 8.03989 16.5731 8.94436C17.1774 9.84883 17.5 10.9122 17.5 12C17.5 13.4587 16.9205 14.8576 15.8891 15.8891C14.8576 16.9205 13.4587 17.5 12 17.5ZM18.5 6.5C18.2033 6.5 17.9133 6.41203 17.6666 6.2472C17.42 6.08238 17.2277 5.84811 17.1142 5.57403C17.0007 5.29994 16.9709 4.99834 17.0288 4.70736C17.0867 4.41639 17.2296 4.14912 17.4393 3.93934C17.6491 3.72956 17.9164 3.5867 18.2074 3.52882C18.4983 3.47094 18.7999 3.50065 19.074 3.61418C19.3481 3.72771 19.5824 3.91997 19.7472 4.16664C19.912 4.41332 20 4.70333 20 5C20 5.39782 19.842 5.77936 19.5607 6.06066C19.2794 6.34196 18.8978 6.5 18.5 6.5Z" fill="#4E50D1"/>
</g>
<defs>
<clipPath id="clip0_8366_23575">
<rect width="24" height="24" fill="white"/>
</clipPath>
</defs>
</svg>
