<svg width="24" height="24" viewBox="0 0 24 24" fill="none" xmlns="http://www.w3.org/2000/svg">
<g clip-path="url(#clip0_8366_23860)">
<path fill-rule="evenodd" clip-rule="evenodd" d="M11.9041 0.0180853C7.88632 0.342037 4.38456 2.71365 2.64009 6.29226C1.58068 8.46553 1.24723 10.9393 1.69377 13.3123C1.82232 13.9953 2.02963 14.7086 2.29718 15.3883C2.42354 15.7093 2.74468 16.39 2.90378 16.6741L2.97876 16.808L1.51344 19.8855C0.707516 21.5782 0.0359003 23.0116 0.0209243 23.0711C-0.115684 23.6136 0.425324 24.1244 0.962324 23.9598C1.02052 23.942 2.44387 23.2718 4.12533 22.4704L7.18252 21.0134L7.34133 21.1004C8.4755 21.7217 9.74767 22.1542 11.0401 22.3579C12.1309 22.5298 13.3989 22.5308 14.4939 22.3606C16.6228 22.0297 18.6018 21.1001 20.2201 19.6709C22.3748 17.768 23.7179 15.1124 23.9768 12.2428C23.9952 12.0389 24.0012 11.6192 23.9941 11.0428C23.9822 10.0781 23.9561 9.80149 23.8066 9.05226C23.2658 6.34372 21.7538 3.92879 19.5628 2.27425C17.9361 1.04589 16.0894 0.306229 14.04 0.0622453C13.5579 0.00486133 12.3723 -0.0196667 11.9041 0.0180853ZM11.7241 1.55116C10.3858 1.70581 9.1722 2.08285 8.08392 2.68206C5.40019 4.15979 3.59875 6.72121 3.12273 9.73626C2.84133 11.5187 3.08251 13.4153 3.80332 15.0883C3.93292 15.389 4.19966 15.9104 4.37594 16.2075C4.597 16.5801 4.62712 16.7265 4.53902 17.0001C4.5142 17.0772 4.02708 18.1177 3.45652 19.3123C2.88597 20.5069 2.40398 21.5193 2.3854 21.5621L2.35166 21.6399L2.4779 21.5829C2.54733 21.5516 3.55994 21.0699 4.72814 20.5126C5.89634 19.9552 6.91053 19.4787 6.98191 19.4537C7.12788 19.4026 7.28644 19.3958 7.4268 19.4348C7.47888 19.4493 7.65168 19.5369 7.8108 19.6295C8.71999 20.1587 9.6112 20.513 10.6023 20.7392C12.3662 21.1419 14.1834 21.0502 15.8879 20.4727C19.3773 19.2903 21.8808 16.2822 22.4163 12.6283C22.5251 11.8857 22.5402 10.8414 22.4524 10.1203C22.1591 7.70917 21.0344 5.55297 19.2361 3.95406C17.7775 2.6571 15.9916 1.84449 14.0041 1.57336C13.4734 1.50095 12.2608 1.48917 11.7241 1.55116ZM9.89484 6.37924C8.38483 6.4875 7.15399 7.56004 6.8135 9.06426C6.74472 9.36815 6.72864 9.87738 6.77743 10.2072C6.87278 10.8519 7.06898 11.3296 7.43908 11.8179C7.51675 11.9204 8.63695 13.1059 9.92841 14.4523C11.8302 16.435 12.301 16.9134 12.4051 16.9692C12.6576 17.1048 12.9784 17.075 13.207 16.8948C13.3636 16.7713 17.9036 12.0185 18.0468 11.8281C18.5416 11.1701 18.769 10.4409 18.7365 9.61626C18.7021 8.74662 18.3704 7.9918 17.7496 7.37068C17.0794 6.70012 16.2849 6.37393 15.3241 6.37482C14.4446 6.37566 13.644 6.70151 12.9872 7.32606L12.7436 7.55764L12.5063 7.32988C11.9351 6.78167 11.1856 6.43525 10.4651 6.38656C10.3656 6.37984 10.2517 6.37149 10.2121 6.36798C10.1725 6.3645 10.0297 6.36957 9.89484 6.37924ZM9.94814 7.8795C9.92174 7.88483 9.83534 7.90161 9.75614 7.91675C9.40694 7.98361 9.09093 8.15816 8.80843 8.44026C8.58012 8.66826 8.4432 8.88753 8.33637 9.19626C8.27592 9.37103 8.26987 9.41949 8.26915 9.73626C8.26824 10.1456 8.29893 10.2878 8.45846 10.6127C8.54104 10.781 8.61722 10.8868 8.80044 11.088C9.21256 11.5406 12.7314 15.2043 12.75 15.2002C12.7598 15.198 13.6853 14.2372 14.8066 13.065C16.1564 11.654 16.8769 10.8834 16.9384 10.785C17.1416 10.4597 17.2313 10.1461 17.2318 9.7581C17.2328 9.0364 16.839 8.40097 16.1936 8.08288C15.8856 7.93105 15.6649 7.87857 15.3361 7.87897C15.0381 7.87933 14.8346 7.92546 14.5513 8.05681C14.2822 8.18154 14.2412 8.21485 13.6801 8.7633C13.1035 9.32696 13.0462 9.36426 12.7561 9.36424C12.4514 9.36421 12.3912 9.32509 11.7719 8.72449C11.224 8.19311 11.1234 8.11794 10.7893 7.98966C10.5459 7.89623 10.1332 7.84218 9.94814 7.8795Z" fill="#4E50D1"/>
</g>
<defs>
<clipPath id="clip0_8366_23860">
<rect width="24" height="24" fill="white"/>
</clipPath>
</defs>
</svg>
