<svg width="24" height="24" viewBox="0 0 24 24" fill="none" xmlns="http://www.w3.org/2000/svg">
<path fill-rule="evenodd" clip-rule="evenodd" d="M6.05146 2.00958C3.10208 2.16675 0.645418 4.21467 0.105644 6.96609C-0.0454982 7.73655 -0.0342998 8.55116 0.138184 9.33086C0.342751 10.2555 0.791956 11.1439 1.43583 11.8973C1.61363 12.1054 1.52316 12.0157 6.90465 17.3171C10.4241 20.7841 11.55 21.8802 11.6326 21.9195C11.8721 22.0336 12.185 22.0256 12.3816 21.9005C12.4298 21.8699 14.5166 19.8279 17.019 17.3627C22.6072 11.8578 22.3369 12.1261 22.5603 11.863C23.0921 11.2368 23.5022 10.485 23.7327 9.71348C23.8501 9.32034 23.952 8.76699 23.952 8.52271C23.952 8.46072 23.9628 8.41002 23.976 8.41002C23.991 8.41002 24 8.26856 24 8.03136C24 7.8231 23.9907 7.65815 23.9794 7.66483C23.9681 7.67151 23.9514 7.58365 23.9424 7.46961C23.9225 7.2182 23.8327 6.75376 23.7479 6.463C23.2546 4.77328 22.0433 3.39424 20.3671 2.61415C19.4721 2.19766 18.5735 2.00285 17.5496 2.0034C16.5477 2.00393 15.6662 2.19373 14.7799 2.59979C14.0086 2.95319 13.7109 3.16254 12.6072 4.12804C12.2729 4.42045 11.9931 4.65972 11.9854 4.65972C11.9777 4.65972 11.6699 4.39628 11.3015 4.07433C10.5299 3.40014 10.3504 3.25735 9.97645 3.02042C8.82774 2.29261 7.44119 1.93553 6.05146 2.00958ZM6.11141 3.43915C5.53989 3.47826 4.87523 3.63417 4.40365 3.83973C3.00839 4.44796 2.02051 5.56345 1.63895 6.96163C1.46714 7.59118 1.4623 8.40591 1.6262 9.10234C1.78132 9.76153 2.13087 10.4474 2.57281 10.9598C2.71148 11.1205 11.9616 20.2441 11.9859 20.2441C12.0099 20.2441 21.2196 11.1592 21.3787 10.9785C21.9482 10.3319 22.3112 9.51366 22.4404 8.5856C22.4772 8.32118 22.4708 7.7175 22.4281 7.42548C22.1468 5.502 20.5664 3.91588 18.5447 3.52783C17.3673 3.30185 16.1506 3.48729 15.1045 4.05214C14.7527 4.24213 14.4571 4.46182 13.9152 4.9361C12.8559 5.86318 12.4822 6.18323 12.389 6.2431C12.267 6.32151 12.1552 6.35168 11.9864 6.35168C11.8176 6.35168 11.7058 6.32154 11.5834 6.2431C11.5296 6.20862 11.0789 5.8254 10.5818 5.39148C10.0848 4.95757 9.60127 4.54273 9.50737 4.46959C8.85604 3.96234 7.99664 3.60467 7.13934 3.48402C6.87914 3.44741 6.33689 3.42374 6.11141 3.43915ZM13.1588 7.57247C12.892 7.66229 12.653 7.85322 12.5354 8.07046C12.5058 8.12516 12.0153 9.28089 11.4454 10.6387L10.4092 13.1076L9.67709 11.7124C8.8851 10.2032 8.86127 10.1658 8.59186 10.0114C8.31799 9.85433 8.3078 9.85348 6.67011 9.85201C5.66324 9.8511 5.16284 9.85881 5.07599 9.87657C4.51115 9.9921 4.30112 10.6803 4.71133 11.0715C4.7626 11.1204 4.86389 11.1873 4.93643 11.2202L5.06831 11.2799L6.42353 11.2865L7.77874 11.2931L8.64759 12.9496C9.46595 14.5097 9.52449 14.6138 9.65436 14.7396C9.99424 15.069 10.5105 15.1517 10.9472 14.9466C11.1231 14.864 11.3263 14.6874 11.4166 14.5386C11.451 14.482 11.9449 13.3243 12.5143 11.966C13.0836 10.6076 13.5527 9.49304 13.5567 9.48913C13.5607 9.48522 13.7242 9.78222 13.9201 10.1491C14.3111 10.8812 14.3951 10.9944 14.657 11.1417C14.928 11.2941 14.9233 11.2938 17.022 11.2865L18.9044 11.2799L19.0363 11.2202C19.3162 11.0933 19.4732 10.8601 19.4732 10.571C19.4732 10.282 19.3162 10.0487 19.0363 9.92188L18.9044 9.86212L17.1779 9.8557L15.4514 9.84925L14.9655 8.92544C14.4437 7.93305 14.3776 7.83561 14.1202 7.67805C13.8488 7.51196 13.464 7.46972 13.1588 7.57247ZM0.00648902 8.05557C0.00646504 8.26939 0.0100619 8.35994 0.0144981 8.25679C0.0189343 8.15365 0.0189583 7.97871 0.0145461 7.86803C0.0101579 7.75738 0.006513 7.84176 0.00648902 8.05557Z" fill="#4E50D1"/>
</svg>
