<svg width="24" height="24" viewBox="0 0 24 24" fill="none" xmlns="http://www.w3.org/2000/svg">
<g clip-path="url(#clip0_8366_23708)">
<path fill-rule="evenodd" clip-rule="evenodd" d="M10.7075 0.0218485C6.76543 0.196841 3.26955 1.19184 1.46636 2.65209C0.628036 3.33098 0.168662 4.03654 0.0373434 4.84692C-0.0138127 5.16259 -0.0117511 18.8584 0.0394769 19.1749C0.261289 20.545 1.5452 21.7441 3.73916 22.6301C5.52908 23.3529 7.6779 23.791 10.312 23.9701C10.899 24.01 13.0811 24.01 13.6681 23.9701C17.5466 23.7064 20.5969 22.8223 22.4179 21.434C23.2775 20.7787 23.857 19.9139 23.9422 19.1596C23.9511 19.0808 23.9677 19.0106 23.9792 19.0035C23.9909 18.9962 24 15.9178 24 11.9774C24 7.98805 23.991 4.96987 23.9791 4.97724C23.9676 4.98435 23.9509 4.92618 23.9421 4.84795C23.9192 4.64496 23.8187 4.31404 23.7121 4.09046C23.1984 3.01265 21.9871 2.07363 20.1885 1.35884C18.2634 0.593805 15.8848 0.138766 13.1886 0.019759C12.5728 -0.00742899 11.3439 -0.00639623 10.7075 0.0218485ZM10.7795 1.52374C8.24853 1.65442 6.09043 2.06976 4.33154 2.76469C3.92495 2.92532 3.14557 3.31587 2.85673 3.50371C2.37876 3.81457 1.91111 4.24746 1.73353 4.54346C1.56126 4.83061 1.52624 4.95125 1.52682 5.25532C1.52732 5.51082 1.53295 5.54451 1.60209 5.70488C2.1015 6.86344 4.21055 7.95123 7.08153 8.53101C8.676 8.85302 10.124 8.98776 11.99 8.98776C13.5737 8.98776 14.7615 8.89776 16.1132 8.67538C19.3986 8.13484 21.8444 6.96828 22.3886 5.68225C22.4451 5.54864 22.4524 5.50015 22.4527 5.25532C22.453 5.01087 22.4458 4.96177 22.39 4.82831C22.2893 4.58741 22.18 4.42426 21.9674 4.19722C21.592 3.79651 21.159 3.49064 20.4761 3.14376C18.8293 2.30725 16.6817 1.79149 13.9078 1.56638C13.4669 1.53059 11.2357 1.50018 10.7795 1.52374ZM0.0158885 12.0043C0.0158885 15.8681 0.0186693 17.4488 0.0220493 15.5169C0.0254294 13.5849 0.0254294 10.4236 0.0220493 8.49169C0.0186693 6.55979 0.0158885 8.14044 0.0158885 12.0043ZM1.5143 10.0285C1.5143 12.3964 1.50848 12.3023 1.67408 12.6047C2.038 13.2692 3.01569 13.9656 4.30704 14.4801C7.74634 15.8505 13.0108 16.1472 17.2519 15.2098C19.5237 14.7077 21.2933 13.875 22.0757 12.94C22.2487 12.7334 22.402 12.4492 22.4399 12.2649C22.4583 12.1754 22.4645 11.4937 22.4601 10.0203L22.4538 7.90434L22.2122 8.07593C19.4149 10.0625 13.7023 10.9693 8.37028 10.2732C5.54356 9.90415 3.16374 9.09718 1.65214 7.99511L1.5143 7.89462V10.0285ZM1.51979 16.8354L1.52629 19.0294L1.5897 19.1802C1.69143 19.4221 1.80046 19.5847 2.01345 19.8121C2.35538 20.1771 2.76391 20.4768 3.33711 20.7832C4.81776 21.5747 6.94987 22.1399 9.35313 22.3779C10.3584 22.4775 10.6092 22.4879 11.99 22.4879C13.3709 22.4879 13.6217 22.4775 14.627 22.3779C17.0324 22.1396 19.1831 21.5689 20.648 20.7802C21.2278 20.468 21.6263 20.1754 21.9666 19.8121C22.1796 19.5847 22.2887 19.4221 22.3904 19.1802L22.4538 19.0294L22.4603 16.8383L22.4668 14.6471L22.2565 14.7977C21.4978 15.3413 20.5819 15.7872 19.4333 16.1723C18.1405 16.6057 16.6232 16.9249 15.0465 17.095C12.6956 17.3486 10.2289 17.3064 7.99872 16.9745C5.73087 16.6369 3.83354 16.0464 2.39134 15.2294C2.18065 15.11 1.74829 14.8263 1.6037 14.7125L1.51332 14.6414L1.51979 16.8354Z" fill="#4E50D1"/>
</g>
<defs>
<clipPath id="clip0_8366_23708">
<rect width="24" height="24" fill="white"/>
</clipPath>
</defs>
</svg>
