<svg width="24" height="24" viewBox="0 0 24 24" fill="none" xmlns="http://www.w3.org/2000/svg">
<g clip-path="url(#clip0_8366_23869)">
<path d="M16.7898 0.24828L4.31979 11.2483C4.21508 11.3473 4.13168 11.4667 4.07468 11.5991C4.01768 11.7315 3.98828 11.8741 3.98828 12.0183C3.98828 12.1624 4.01768 12.3051 4.07468 12.4374C4.13168 12.5698 4.21508 12.6892 4.31979 12.7883L16.7898 23.7883C16.8888 23.8762 17.0044 23.9436 17.1297 23.9865C17.255 24.0294 17.3876 24.047 17.5198 24.0383C17.653 24.0274 17.7827 23.99 17.9012 23.9282C18.0198 23.8663 18.1247 23.7814 18.2098 23.6783L19.7598 21.8283C19.8472 21.7272 19.9135 21.6097 19.9547 21.4826C19.9959 21.3555 20.0113 21.2214 19.9998 21.0883C19.9902 20.9558 19.9543 20.8265 19.8942 20.7081C19.8341 20.5896 19.751 20.4843 19.6498 20.3983L10.1998 12.1883C10.1497 12.1377 10.1216 12.0694 10.1216 11.9983C10.1216 11.9271 10.1497 11.8588 10.1998 11.8083L19.6498 3.63828C19.8429 3.47663 19.9679 3.24807 19.9998 2.99828C20.0126 2.86584 19.9989 2.73216 19.9594 2.6051C19.9199 2.47803 19.8554 2.36012 19.7698 2.25828L18.2098 0.35828C18.1247 0.255202 18.0198 0.170235 17.9012 0.108401C17.7827 0.046567 17.653 0.00912227 17.5198 -0.00171977C17.3876 -0.0104744 17.255 0.00711755 17.1297 0.0500343C17.0044 0.0929511 16.8888 0.160337 16.7898 0.24828Z" fill="#4E50D1"/>
</g>
<defs>
<clipPath id="clip0_8366_23869">
<rect width="24" height="24" fill="white"/>
</clipPath>
</defs>
</svg>
