<svg width="24" height="24" viewBox="0 0 24 24" fill="none" xmlns="http://www.w3.org/2000/svg">
<g clip-path="url(#clip0_8366_23388)">
<path fill-rule="evenodd" clip-rule="evenodd" d="M9.56678 1.52575C9.50018 1.54228 9.39427 1.59122 9.33141 1.63447C8.84983 1.96579 8.91477 2.69258 9.44784 2.93774L9.56784 2.99292L12.9758 3.00664C16.6445 3.02143 16.4974 3.01641 17.1309 3.14812C18.0734 3.34408 19.0276 3.7745 19.7902 4.34772C20.9764 5.23927 21.8308 6.47973 22.2415 7.9068C22.5575 9.00463 22.5783 10.2662 22.2987 11.3809C22.0743 12.2753 21.6909 13.0768 21.1277 13.8289C20.8556 14.1923 20.1905 14.8571 19.8258 15.1304C18.9142 15.8135 17.9333 16.2279 16.7558 16.4272C16.4559 16.478 16.4545 16.478 9.52012 16.4859L2.58439 16.4938L4.24308 14.8313C5.83243 13.2384 5.904 13.1629 5.95516 13.0249C6.02481 12.8371 6.01471 12.596 5.93011 12.4266C5.85211 12.2704 5.65142 12.0913 5.49703 12.04C5.33174 11.9851 5.07216 12.0011 4.92384 12.0754C4.84624 12.1143 4.1554 12.7892 2.47104 14.4719C-0.176091 17.1162 -0.00941121 16.9261 0.00794079 17.2813C0.0143488 17.4127 0.0328768 17.4964 0.0730528 17.5757C0.149781 17.7272 4.79522 22.3689 4.93584 22.4346C4.99677 22.4631 5.10362 22.4828 5.22842 22.4886C5.39918 22.4965 5.44233 22.4898 5.55688 22.4374C5.72937 22.3584 5.8936 22.1854 5.95802 22.0148C6.02431 21.8392 6.01303 21.5946 5.93071 21.4233C5.88619 21.3306 5.51673 20.9466 4.23 19.6553L2.58616 18.0058L9.50901 17.9987C17.1814 17.9909 16.5875 18.0031 17.4077 17.8358C19.0306 17.5048 20.5212 16.6866 21.6771 15.4926C22.8344 14.2969 23.6056 12.7882 23.8828 11.1769C24.0264 10.3423 24.0398 9.37898 23.919 8.55628C23.6198 6.51686 22.5731 4.67128 20.973 3.36194C19.7301 2.3448 18.2943 1.74429 16.6118 1.53799C16.2684 1.49589 9.73274 1.48452 9.56678 1.52575Z" fill="#4E50D1"/>
</g>
<defs>
<clipPath id="clip0_8366_23388">
<rect width="24" height="24" fill="white"/>
</clipPath>
</defs>
</svg>
