<svg width="24" height="24" viewBox="0 0 24 24" fill="none" xmlns="http://www.w3.org/2000/svg">
<g clip-path="url(#clip0_8366_23446)">
<path fill-rule="evenodd" clip-rule="evenodd" d="M21.1764 0.00989611C20.8738 0.0523652 20.5144 0.17658 20.2378 0.334284C20.0196 0.458619 1.24438 11.8688 1.07016 11.9829C0.385293 12.4315 -0.0493127 13.29 0.00448498 14.0881C0.0651248 14.9874 0.591147 15.7524 1.41597 16.1411C1.70213 16.2759 1.94231 16.339 2.28049 16.3683C2.43652 16.3818 3.65372 16.3919 5.13957 16.392L7.72695 16.3922V18.6938C7.72695 21.1605 7.72977 21.2241 7.85345 21.5658C8.16665 22.4309 8.88872 23.027 9.81687 23.1866C10.0671 23.2296 10.5971 23.2049 10.8505 23.1383C11.2252 23.0398 11.3995 22.9387 12.8472 21.9801C13.6215 21.4674 14.2641 21.051 14.2753 21.0548C14.2864 21.0586 14.6526 21.5262 15.089 22.094C15.5253 22.6618 15.9565 23.2 16.047 23.2901C16.6907 23.9305 17.6934 24.1648 18.5763 23.881C18.9908 23.7478 19.3042 23.5538 19.6064 23.2435C19.9108 22.931 20.1105 22.5857 20.2088 22.202C20.2662 21.9782 23.952 2.88675 23.9832 2.65172C24.0847 1.88747 23.7195 1.03007 23.0809 0.533498C22.8412 0.34708 22.412 0.132934 22.1397 0.0638648C21.9473 0.0150577 21.37 -0.0172803 21.1764 0.00989611ZM11.4796 7.42679C6.22988 10.6163 1.8921 13.2659 1.84003 13.3146C1.58302 13.5554 1.49319 13.9018 1.60135 14.235C1.68741 14.5002 1.88133 14.7014 2.16499 14.8196C2.27888 14.8671 2.33928 14.8678 6.48249 14.8742L10.6845 14.8806L15.5385 8.66824C18.2082 5.25146 20.5384 2.26955 20.7167 2.04179C20.895 1.81403 21.0372 1.62766 21.0327 1.62766C21.0282 1.62766 16.7293 4.23727 11.4796 7.42679ZM17.249 8.96869C14.3961 12.6197 12.0594 15.6135 12.0563 15.6215C12.0467 15.6463 17.0339 22.1112 17.1544 22.2301C17.2176 22.2925 17.3354 22.3726 17.4192 22.4102C17.5511 22.4693 17.5997 22.4779 17.8048 22.478C18.0101 22.4781 18.0579 22.4697 18.1876 22.4109C18.3633 22.3312 18.5521 22.1605 18.632 22.0091C18.6636 21.9493 18.7127 21.7926 18.7411 21.661C18.9025 20.9145 22.4491 2.46722 22.4432 2.40519C22.4369 2.3384 21.8839 3.03711 17.249 8.96869ZM9.28879 18.7149L9.29544 21.0376L9.36114 21.1739C9.58446 21.6369 10.1581 21.8385 10.6175 21.6155C10.6993 21.5758 13.2791 19.8844 13.3292 19.8376C13.3333 19.8338 12.7417 19.057 12.0144 18.1114L10.6922 16.3922H9.98715H9.28212L9.28879 18.7149Z" fill="#4E50D1"/>
</g>
<defs>
<clipPath id="clip0_8366_23446">
<rect width="24" height="24" fill="white"/>
</clipPath>
</defs>
</svg>
