<svg width="24" height="24" viewBox="0 0 24 24" fill="none" xmlns="http://www.w3.org/2000/svg">
<path fill-rule="evenodd" clip-rule="evenodd" d="M18.6185 1.00723C18.1973 1.04574 17.9173 1.10419 17.5566 1.22891C16.4666 1.60571 15.5542 2.52296 15.1996 3.59827C14.9391 4.38855 14.9389 5.21342 15.1992 5.97803C15.6379 7.26699 16.7316 8.21451 18.114 8.50332C18.4568 8.57493 19.0821 8.59204 19.4234 8.53915C19.9954 8.4505 20.4403 8.29537 20.9024 8.0235L21.0447 7.9398L21.9337 8.80646C22.9313 9.77893 22.9493 9.7924 23.2483 9.79282C23.4648 9.79312 23.6382 9.72768 23.7783 9.59273C23.9476 9.42977 24 9.30505 24 9.06563C24 8.74254 24.0086 8.75378 22.9974 7.76065L22.1106 6.88976L22.2123 6.72818C22.6992 5.95496 22.8752 4.92147 22.6773 3.99718C22.3848 2.6309 21.2801 1.49385 19.8918 1.13024C19.5375 1.03743 18.9301 0.978746 18.6185 1.00723ZM1.79223 2.5082C1.23534 2.62621 0.764034 2.91694 0.446048 3.33865C0.241145 3.6104 0.142981 3.81089 0.0431363 4.16143C0.00407277 4.29859 -0.000275638 4.42387 1.26542e-05 5.40508C0.000300946 6.46444 0.00188655 6.50168 0.0543076 6.68393C0.0840017 6.78718 0.15187 6.96065 0.205108 7.06941C0.51125 7.69492 1.06004 8.12349 1.76035 8.28401C1.93635 8.32435 2.22181 8.32648 7.43523 8.32648H12.9248L13.0569 8.26517C13.3374 8.13503 13.4947 7.89569 13.4947 7.59907C13.4947 7.30244 13.3374 7.0631 13.0569 6.93296L12.9248 6.87165L7.48328 6.85992L2.04177 6.84818L1.92816 6.79353C1.76616 6.71561 1.6077 6.54947 1.54886 6.39589C1.50187 6.2732 1.49992 6.22613 1.50643 5.36106C1.51316 4.46319 1.51376 4.45376 1.56938 4.34915C1.68823 4.12567 1.8767 3.99108 2.12585 3.95177C2.23146 3.93511 4.00417 3.92702 7.6034 3.92673L12.9248 3.92631L13.0465 3.87098C13.2915 3.75952 13.4469 3.5684 13.4849 3.3315C13.5417 2.97778 13.3786 2.67881 13.0465 2.52775L12.9248 2.47242L7.43523 2.47403C2.85146 2.4754 1.92035 2.48105 1.79223 2.5082ZM18.4609 2.50829C17.7276 2.63801 17.099 3.09964 16.7688 3.75079C16.5702 4.14264 16.5283 4.32484 16.5289 4.79499C16.5294 5.22058 16.561 5.37979 16.7126 5.72071C16.9188 6.18445 17.3554 6.63348 17.8261 6.86602C18.1701 7.0359 18.6594 7.12294 19.0903 7.09084C19.7526 7.04154 20.4162 6.67445 20.8077 6.14076C20.945 5.95374 21.116 5.59958 21.1817 5.36646C21.2541 5.10975 21.2593 4.51597 21.1914 4.25529C20.8771 3.04823 19.6927 2.2904 18.4609 2.50829ZM2.41414 10.5465C1.96157 10.6222 1.5749 11.0109 1.50206 11.4632C1.41718 11.9904 1.75153 12.5248 2.26282 12.679C2.76259 12.8298 3.30206 12.6389 3.57654 12.2143C3.69731 12.0274 3.74137 11.8473 3.72976 11.5881C3.71691 11.3017 3.6623 11.1502 3.50096 10.9536C3.23828 10.6334 2.82345 10.478 2.41414 10.5465ZM5.76213 11.2969C5.56011 11.3543 5.32757 11.5902 5.27073 11.7955C5.23119 11.9384 5.25495 12.2017 5.31828 12.3224C5.38499 12.4495 5.52909 12.5911 5.66245 12.6607L5.76554 12.7145H11.9998H18.2342L18.3372 12.6607C18.469 12.592 18.6133 12.451 18.6836 12.3224C18.7298 12.2378 18.7385 12.1861 18.7385 11.9988C18.7385 11.8114 18.7298 11.7598 18.6836 11.6752C18.6133 11.5466 18.469 11.4056 18.3372 11.3368L18.2342 11.2831L12.0359 11.2792C8.34983 11.277 5.80703 11.2841 5.76213 11.2969ZM2.33126 15.697C2.15708 15.7381 2.00852 15.8207 1.85298 15.9627C1.60376 16.1903 1.49538 16.4318 1.49404 16.7626C1.49303 17.0096 1.54466 17.1807 1.68006 17.3788C1.99069 17.8334 2.62253 17.9941 3.12848 17.7471C3.32445 17.6515 3.52693 17.4458 3.63489 17.2326C3.72277 17.0592 3.72347 17.0554 3.72345 16.7633C3.72342 16.4779 3.72097 16.464 3.64419 16.3106C3.39806 15.8188 2.86671 15.5705 2.33126 15.697ZM5.85378 16.413C5.40162 16.4865 5.13089 16.9683 5.29745 17.4031C5.35544 17.5545 5.51499 17.7212 5.67595 17.7987L5.78956 17.8533H11.9998H18.2101L18.3237 17.7987C18.4847 17.7212 18.6443 17.5545 18.7023 17.4031C18.8732 16.9568 18.5989 16.4868 18.1237 16.4115C17.9306 16.3809 6.04244 16.3824 5.85378 16.413ZM2.32057 20.8353C1.77433 20.9788 1.41346 21.5169 1.50168 22.0564C1.54797 22.3395 1.64698 22.5159 1.87225 22.717C2.42885 23.2139 3.30309 23.0341 3.64419 22.3526C3.72097 22.1992 3.72342 22.1853 3.72345 21.8999C3.72347 21.6078 3.72277 21.6041 3.63489 21.4306C3.53401 21.2314 3.33822 21.0248 3.16118 20.9307C2.92065 20.8028 2.58791 20.7651 2.32057 20.8353ZM5.81921 21.551C5.59141 21.6037 5.35931 21.8044 5.28726 22.0109C5.2382 22.1516 5.23835 22.3783 5.2876 22.5195C5.34011 22.67 5.52798 22.8661 5.68698 22.9363L5.81359 22.9922H11.9998H18.1861L18.3086 22.938C18.4524 22.8744 18.6039 22.7299 18.6823 22.5815C18.7567 22.4407 18.7716 22.1859 18.7152 22.0199C18.6609 21.8604 18.4775 21.666 18.3127 21.5932L18.1861 21.5373L12.0479 21.5337C8.52026 21.5316 5.87122 21.539 5.81921 21.551Z" fill="#4E50D1"/>
</svg>
