<svg width="24" height="24" viewBox="0 0 24 24" fill="none" xmlns="http://www.w3.org/2000/svg">
<g clip-path="url(#clip0_8366_23597)">
<path fill-rule="evenodd" clip-rule="evenodd" d="M11.04 0.0367778C9.44695 0.171634 8.01281 0.573682 6.612 1.27808C2.5519 3.31971 0 7.45818 0 12.0009C0 14.28 0.628848 16.4594 1.84555 18.3969C2.78832 19.8982 4.1027 21.2126 5.604 22.1553C7.5415 23.372 9.72086 24.0009 12 24.0009C13.8891 24.0009 15.7033 23.5708 17.388 22.7237C19.5077 21.6578 21.268 19.9844 22.4446 17.9169C23.3045 16.4059 23.867 14.5496 23.9666 12.8942C23.9756 12.7453 23.9922 12.6177 24.0035 12.6107C24.0148 12.6038 24.0238 12.3152 24.0236 11.9695C24.0234 11.6237 24.0143 11.3551 24.0032 11.3724C23.9915 11.391 23.9765 11.2872 23.967 11.1204C23.8722 9.46955 23.3071 7.6005 22.4446 6.08487C21.4668 4.36676 20.0538 2.8875 18.396 1.84643C16.9278 0.924418 15.313 0.336466 13.62 0.107458C12.8491 0.00317782 11.7821 -0.0260542 11.04 0.0367778ZM11.256 1.52799C9.80256 1.65637 8.6532 1.96453 7.4279 2.5544C5.32169 3.56833 3.56746 5.32256 2.55353 7.42878C2.02798 8.52049 1.71852 9.58583 1.56706 10.8249C1.50641 11.321 1.50641 12.6807 1.56706 13.1769C1.84735 15.4699 2.7642 17.462 4.31201 19.1413C5.84964 20.8095 7.93925 21.9454 10.2 22.342C10.8417 22.4546 11.1335 22.4764 12 22.4764C12.8665 22.4764 13.1583 22.4546 13.8 22.342C16.0608 21.9454 18.1504 20.8095 19.688 19.1413C21.2366 17.4612 22.1481 15.4803 22.4325 13.1769C22.4939 12.6797 22.4939 11.322 22.4325 10.8249C22.2986 9.73991 22.0559 8.82738 21.6453 7.86483C20.6071 5.43078 18.6276 3.43813 16.1996 2.38273C15.2321 1.9622 14.2682 1.70139 13.2 1.57112C12.8914 1.53347 11.5347 1.50339 11.256 1.52799ZM11.388 5.30233C10.4963 5.46783 9.81007 5.84187 9.23155 6.47773C8.59486 7.17752 8.22334 8.13923 8.26049 8.99139C8.27232 9.26286 8.31538 9.37225 8.472 9.52887C8.63628 9.69315 8.73881 9.73273 9 9.73273C9.26119 9.73273 9.36372 9.69315 9.528 9.52887C9.68501 9.37187 9.72072 9.27373 9.75859 8.89518C9.77722 8.70911 9.81451 8.47635 9.84149 8.37795C9.97908 7.87616 10.3467 7.3899 10.8152 7.08985C11.4149 6.70587 12.2714 6.65235 12.9239 6.95811C13.6192 7.28396 14.0512 7.83668 14.2109 8.60487C14.2595 8.83897 14.2487 9.26634 14.1878 9.51392C14.0641 10.0171 13.7548 10.4943 13.3598 10.7912C13.1901 10.9188 13.0226 11.007 12.684 11.1472C12.03 11.418 11.562 11.9136 11.3566 12.5529C11.2694 12.8242 11.256 12.9763 11.256 13.6964C11.256 14.5097 11.2678 14.5716 11.4609 14.7674C11.6276 14.9365 11.7551 14.9889 12 14.9889C12.2409 14.9889 12.3692 14.9377 12.5304 14.7774C12.7228 14.5859 12.7301 14.5519 12.7461 13.7769C12.7625 12.9789 12.7726 12.932 12.9697 12.7323C13.069 12.6317 13.1393 12.5889 13.344 12.5044C14.4397 12.0521 15.2008 11.2511 15.5611 10.171C15.7003 9.75407 15.7298 9.55273 15.731 9.01287C15.732 8.52306 15.7161 8.38225 15.6187 8.01915C15.2889 6.78963 14.3124 5.78286 13.092 5.41419C12.7172 5.30099 12.5564 5.27756 12.084 5.26751C11.7115 5.25956 11.5841 5.26595 11.388 5.30233ZM0.010488 12.0009C0.010488 12.3507 0.013848 12.4938 0.017928 12.3189C0.022032 12.144 0.022032 11.8578 0.017928 11.6829C0.013848 11.508 0.010488 11.6511 0.010488 12.0009ZM11.82 16.513C11.5668 16.5538 11.3832 16.6511 11.1913 16.8461C10.647 17.3991 10.8254 18.3161 11.544 18.6585C11.6926 18.7294 11.7141 18.7329 12 18.7329C12.2859 18.7329 12.3074 18.7294 12.456 18.6585C13.1746 18.3161 13.353 17.3991 12.8087 16.8461C12.6668 16.7019 12.5393 16.6184 12.3745 16.5618C12.2213 16.5091 11.9771 16.4876 11.82 16.513Z" fill="#4E50D1"/>
</g>
<defs>
<clipPath id="clip0_8366_23597">
<rect width="24" height="24" fill="white"/>
</clipPath>
</defs>
</svg>
