<svg width="24" height="24" viewBox="0 0 24 24" fill="none" xmlns="http://www.w3.org/2000/svg">
<g clip-path="url(#clip0_8366_23932)">
<path fill-rule="evenodd" clip-rule="evenodd" d="M11.0291 0.0328757C9.43765 0.167749 8.00492 0.569848 6.60549 1.27434C2.54938 3.31623 0 7.45521 0 11.9985C0 14.2779 0.628229 16.4576 1.84374 18.3953C2.78558 19.8968 4.09867 21.2113 5.59848 22.1542C7.53407 23.3711 9.7113 24 11.9882 24C13.8754 24 15.6878 23.5699 17.3709 22.7226C19.4885 21.6566 21.2471 19.983 22.4225 17.9152C23.2815 16.404 23.8435 14.5475 23.943 12.8919C23.952 12.743 23.9686 12.6154 23.9798 12.6084C23.9911 12.6014 24.0002 12.3128 24 11.9671C23.9998 11.6213 23.9906 11.3526 23.9796 11.37C23.9679 11.3885 23.9529 11.2847 23.9434 11.1179C23.8487 9.46684 23.2842 7.59755 22.4225 6.08174C21.4457 4.36341 20.0341 2.88396 18.3779 1.84275C16.9111 0.920628 15.2979 0.332602 13.6066 0.103565C12.8365 -0.00072852 11.7705 -0.0299642 11.0291 0.0328757ZM11.2449 1.52428C9.79291 1.65267 8.64468 1.96087 7.42059 2.55082C5.31645 3.56487 3.56395 5.31933 2.55101 7.42581C2.02598 8.51766 1.71683 9.58313 1.56551 10.8223C1.50493 11.3185 1.50493 12.6784 1.56551 13.1746C1.84553 15.4679 2.76148 17.4603 4.30776 19.1398C5.84388 20.8082 7.93143 21.9443 10.19 22.3409C10.8311 22.4535 11.1225 22.4753 11.9882 22.4753C12.8539 22.4753 13.1453 22.4535 13.7864 22.3409C16.0449 21.9443 18.1325 20.8082 19.6686 19.1398C21.2157 17.4595 22.1263 15.4783 22.4104 13.1746C22.4718 12.6774 22.4718 11.3196 22.4104 10.8223C22.2766 9.73723 22.0342 8.82459 21.624 7.86192C20.5868 5.42756 18.6093 3.43466 16.1837 2.37912C15.2171 1.95854 14.2542 1.6977 13.187 1.56741C12.8787 1.52975 11.5233 1.49968 11.2449 1.52428ZM11.8485 4.51302C11.6123 4.55123 11.4144 4.7102 11.3019 4.95203L11.2454 5.07361L11.2452 9.35988C11.2449 14.1932 11.2272 13.7686 11.4388 14.0004C11.5965 14.1732 11.7496 14.2399 11.9882 14.2399C12.2268 14.2399 12.3799 14.1732 12.5376 14.0004C12.7492 13.7686 12.7315 14.1932 12.7312 9.35988L12.731 5.07361L12.6744 4.95203C12.6028 4.79791 12.4939 4.67345 12.3641 4.59732C12.2743 4.54465 12.2198 4.529 12.0242 4.49955C11.9978 4.49559 11.9187 4.50164 11.8485 4.51302ZM0.0104777 11.9985C0.0104777 12.3483 0.0138344 12.4915 0.0179104 12.3165C0.0220103 12.1416 0.0220103 11.8554 0.0179104 11.6804C0.0138344 11.5055 0.0104777 11.6486 0.0104777 11.9985ZM11.7484 15.7677C11.4662 15.827 11.1365 16.0759 10.9997 16.3328C10.7618 16.7796 10.839 17.3091 11.1936 17.6634C11.4278 17.8974 11.6687 17.9992 11.9882 17.9992C12.3077 17.9992 12.5485 17.8974 12.7827 17.6634C13.2654 17.1812 13.2109 16.3917 12.6666 15.9794C12.5855 15.918 12.4569 15.8444 12.3806 15.8158C12.222 15.7564 11.9138 15.733 11.7484 15.7677Z" fill="#4E50D1"/>
</g>
<defs>
<clipPath id="clip0_8366_23932">
<rect width="24" height="24" fill="white"/>
</clipPath>
</defs>
</svg>
