<svg width="25" height="24" viewBox="0 0 25 24" fill="none" xmlns="http://www.w3.org/2000/svg">
<path fill-rule="evenodd" clip-rule="evenodd" d="M7.33194 0.762868C7.11068 0.8209 6.91602 0.980764 6.81673 1.18601C6.77027 1.28206 6.75865 1.34434 6.75846 1.49801C6.75822 1.68831 6.77893 1.75803 6.8894 1.93844C6.90839 1.96949 7.77582 2.72549 8.81701 3.61844L10.7101 5.24201L6.96901 5.25581C4.42403 5.26517 3.18956 5.27789 3.10794 5.29558C2.28755 5.47325 1.70365 5.77301 1.15535 6.29801C0.597778 6.83189 0.251362 7.45877 0.0678578 8.26601L0.0132818 8.50601L0.00548178 14.086C-6.2221e-05 18.049 0.00536178 19.7356 0.0242018 19.906C0.220474 21.6815 1.61903 23.0565 3.40559 23.2303C3.71435 23.2604 20.2855 23.2604 20.5943 23.2303C22.0576 23.088 23.2772 22.1426 23.7819 20.7597C23.87 20.5182 23.9461 20.1939 23.9667 19.9712C23.9757 19.8751 23.9922 19.7908 24.0035 19.7838C24.0147 19.7769 24.0239 17.271 24.0239 14.2152C24.0239 10.5173 24.0159 8.66415 23.9999 8.67401C23.9856 8.68287 23.9759 8.65352 23.9759 8.6012C23.9759 8.45868 23.8838 8.04473 23.792 7.77401C23.3958 6.60737 22.3992 5.682 21.2039 5.3712C20.7545 5.25435 20.7718 5.2549 17.5683 5.25444L14.5567 5.25401L16.2275 3.58001C17.8127 1.99181 17.901 1.89888 17.9492 1.7671C18.1539 1.20723 17.6768 0.646252 17.0981 0.766396C17.0213 0.782332 16.9147 0.822364 16.8612 0.85534C16.8077 0.88834 15.8509 1.82705 14.7349 2.94137L12.7059 4.96743L10.3135 2.91713C8.99579 1.78786 7.87374 0.843916 7.81568 0.815812C7.70055 0.760084 7.44795 0.732436 7.33194 0.762868ZM3.52794 6.76596C2.72658 6.84425 1.99988 7.37648 1.68949 8.11246C1.50781 8.54321 1.52394 7.94508 1.52394 14.254V19.906L1.59015 20.1171C1.84424 20.9272 2.39562 21.4518 3.23994 21.6866C3.38907 21.7281 3.77387 21.73 11.9999 21.73C20.226 21.73 20.6108 21.7281 20.7599 21.6866C21.6043 21.4518 22.1556 20.9272 22.4097 20.1171L22.4759 19.906V14.254C22.4759 8.92172 22.4735 8.59359 22.4335 8.4529C22.316 8.04008 22.122 7.70408 21.836 7.418C21.5358 7.11785 21.2211 6.93807 20.7842 6.81718L20.5559 6.75401L12.1319 6.7512C7.49874 6.74964 3.62694 6.75629 3.52794 6.76596ZM8.27994 8.27988C7.05704 8.34557 5.28126 8.57753 4.6131 8.75888C3.87687 8.95868 3.25743 9.60836 3.0579 10.39C3.01359 10.5635 3.01194 10.7035 3.01194 14.254V17.938L3.06479 18.136C3.2655 18.888 3.84555 19.5002 4.56877 19.7233C4.86793 19.8156 6.19023 20.0302 6.94794 20.1094C9.20641 20.3455 11.6856 20.2845 13.8109 19.9408C14.8867 19.7668 15.1928 19.676 15.5395 19.428C15.9416 19.1405 16.2851 18.6593 16.4168 18.1991C16.5099 17.8738 16.5151 17.6336 16.5057 14.05C16.4958 10.2707 16.5047 10.5069 16.357 10.1146C16.145 9.55114 15.6438 9.04275 15.0899 8.82915C14.5522 8.62179 12.6911 8.36026 11.1719 8.27864C10.6551 8.25084 8.80561 8.25166 8.27994 8.27988ZM0.0117458 14.242C0.0117458 17.3044 0.0145298 18.5536 0.0179378 17.0181C0.0213458 15.4825 0.0213458 12.9769 0.0179378 11.4501C0.0145298 9.92324 0.0117458 11.1796 0.0117458 14.242ZM8.78394 9.76568C7.69619 9.80465 6.58729 9.92261 5.51012 10.1139C5.25651 10.159 4.99899 10.2173 4.93787 10.2435C4.81057 10.298 4.65164 10.4515 4.57585 10.5931L4.52394 10.69V14.242V17.794L4.58881 17.917C4.67036 18.0716 4.84211 18.2244 4.98783 18.2721C5.19517 18.3398 6.13885 18.4955 6.88794 18.5855C8.46051 18.7744 10.5401 18.793 12.1679 18.6327C13.1972 18.5314 14.4023 18.3348 14.5942 18.2369C14.7239 18.1707 14.8527 18.0311 14.9253 17.878L14.9879 17.746V14.242V10.738L14.9367 10.6271C14.8647 10.4714 14.729 10.3299 14.5838 10.2589C14.3595 10.1493 13.1084 9.94904 12.0359 9.85102C11.0982 9.76534 9.76811 9.73042 8.78394 9.76568ZM19.3079 10.5123C18.9779 10.5611 18.6374 10.821 18.4781 11.1455C18.3977 11.3094 18.3959 11.3195 18.3964 11.6135C18.397 11.9706 18.4366 12.0972 18.6178 12.3211C18.8464 12.6035 19.1368 12.742 19.5003 12.742C19.9204 12.742 20.2696 12.5417 20.4824 12.1785C20.5848 12.0038 20.6221 11.8246 20.6121 11.5555C20.6041 11.339 20.5943 11.2934 20.5259 11.1544C20.2939 10.6833 19.8245 10.4358 19.3079 10.5123ZM19.2719 14.6402C18.9534 14.702 18.6182 14.9719 18.4706 15.2855C18.4059 15.423 18.396 15.4727 18.3886 15.694C18.382 15.8934 18.3899 15.9766 18.4265 16.0925C18.5218 16.3945 18.7384 16.6322 19.0559 16.7836C19.2035 16.854 19.2275 16.858 19.4999 16.858C19.7724 16.858 19.7963 16.854 19.9439 16.7836C20.2615 16.6322 20.4781 16.3945 20.5734 16.0925C20.61 15.9766 20.6179 15.8934 20.6113 15.694C20.6038 15.47 20.5944 15.4238 20.5258 15.2782C20.4243 15.0625 20.196 14.8316 19.9876 14.7341C19.7474 14.6217 19.5208 14.592 19.2719 14.6402Z" fill="#4E50D1"/>
</svg>
