<svg width="24" height="24" viewBox="0 0 24 24" fill="none" xmlns="http://www.w3.org/2000/svg">
<g clip-path="url(#clip0_8366_23440)">
<path d="M0.678984 14.6371C0.762534 14.8435 0.908922 15.0183 1.09739 15.1367C1.28585 15.2552 1.50683 15.3113 1.72898 15.2971C1.84898 15.2971 8.04898 13.4971 8.04898 13.4971C8.16947 13.462 8.27234 13.3829 8.33717 13.2754C8.40201 13.168 8.42408 13.0401 8.39898 12.9171L7.61898 8.91714C7.60159 8.83213 7.56319 8.75283 7.5073 8.68646C7.45141 8.62008 7.37979 8.56875 7.29898 8.53714C7.21894 8.50752 7.13254 8.49931 7.04835 8.51334C6.96416 8.52738 6.8851 8.56316 6.81898 8.61714C4.72899 10.2671 1.49898 12.8271 1.10898 13.1671C0.90329 13.3447 0.753276 13.5779 0.676991 13.8387C0.600705 14.0995 0.601397 14.3767 0.678984 14.6371Z" fill="#4E50D1"/>
<path d="M16.049 13.4971C16.049 13.4971 22.249 15.2971 22.369 15.2971C22.5825 15.2995 22.7918 15.2379 22.97 15.1202C23.1482 15.0026 23.2872 14.8344 23.369 14.6371C23.45 14.3657 23.4486 14.0764 23.3649 13.8057C23.2812 13.5351 23.1191 13.2955 22.899 13.1171C22.499 12.7771 19.279 10.2171 17.189 8.57714C17.1229 8.52316 17.0438 8.48738 16.9596 8.47334C16.8754 8.45931 16.789 8.46752 16.709 8.49714C16.6294 8.52783 16.5586 8.57764 16.5028 8.64216C16.447 8.70669 16.4079 8.78395 16.389 8.86714L15.609 12.8671C15.5897 12.9379 15.5861 13.012 15.5986 13.0842C15.6111 13.1565 15.6394 13.2251 15.6814 13.2852C15.7234 13.3453 15.7781 13.3955 15.8416 13.4321C15.9051 13.4687 15.9759 13.4909 16.049 13.4971Z" fill="#4E50D1"/>
<path d="M10.028 17.8219C10.0433 17.9057 10.0448 17.9925 10.0326 18.0771C10.0203 18.1617 9.99441 18.2424 9.9565 18.3144L8.34181 20.5878C8.19852 20.7682 8.1023 20.9975 8.0656 21.2461C8.0289 21.4948 8.05341 21.7513 8.13596 21.9826C8.21851 22.2138 8.3553 22.4091 8.52864 22.5432C8.70198 22.6774 8.9039 22.7441 9.10828 22.7349H10.304C10.3931 22.7356 10.4806 22.7651 10.5577 22.8205C10.6348 22.8758 10.6988 22.9552 10.7434 23.0507C10.8778 23.3392 11.0714 23.5789 11.3046 23.7456C11.5379 23.9122 11.8025 24 12.0719 24C12.3414 24 12.606 23.9122 12.8393 23.7456C13.0725 23.5789 13.2661 23.3392 13.4005 23.0507C13.4443 22.9543 13.5081 22.8743 13.5854 22.8187C13.6626 22.7632 13.7505 22.7343 13.8399 22.7349H15.0254C15.222 22.7344 15.4143 22.6638 15.5792 22.5317C15.7442 22.3995 15.8748 22.2113 15.9554 21.9897C16.0372 21.77 16.0663 21.5258 16.0391 21.2863C16.0119 21.0467 15.9297 20.8218 15.8021 20.6383L14.1874 18.3144C14.1329 18.243 14.0932 18.1562 14.0719 18.0616C14.0505 17.967 14.0481 17.8674 14.0648 17.7714C14.2385 16.7231 15.986 5.68457 15.986 5.68457C16.0779 4.98385 16.0456 4.26682 15.8912 3.58309C15.7368 2.89935 15.464 2.26524 15.0918 1.72462C14.7195 1.184 14.2567 0.749777 13.7353 0.452C13.2139 0.154223 12.6463 0 12.0719 0C11.4976 0 10.93 0.154223 10.4086 0.452C9.8872 0.749777 9.42437 1.184 9.05212 1.72462C8.67988 2.26524 8.40712 2.89935 8.25272 3.58309C8.09831 4.26682 8.06595 4.98385 8.15786 5.68457C8.15786 5.68457 8.1272 5.54564 10.028 17.8219ZM10.7945 4.42158H13.3494C13.5527 4.42158 13.7476 4.52138 13.8914 4.69902C14.0351 4.87666 14.1159 5.1176 14.1159 5.36882C14.1159 5.62004 14.0351 5.86098 13.8914 6.03862C13.7476 6.21626 13.5527 6.31606 13.3494 6.31606H10.7945C10.5912 6.31606 10.3963 6.21626 10.2525 6.03862C10.1088 5.86098 10.028 5.62004 10.028 5.36882C10.028 5.1176 10.1088 4.87666 10.2525 4.69902C10.3963 4.52138 10.5912 4.42158 10.7945 4.42158Z" fill="#4E50D1"/>
</g>
<defs>
<clipPath id="clip0_8366_23440">
<rect width="24" height="24" fill="white" transform="matrix(1 0 0 -1 0 24)"/>
</clipPath>
</defs>
</svg>
