<svg width="24" height="24" viewBox="0 0 24 24" fill="none" xmlns="http://www.w3.org/2000/svg">
<g clip-path="url(#clip0_8366_23281)">
<path d="M12.0059 8.00426e-08C14.6273 0.00130277 17.1762 0.860802 19.263 2.44734C21.3498 4.03412 22.8598 6.26113 23.5617 8.78699C24.2637 11.313 24.1195 13.9997 23.1504 16.4358C22.1814 18.8718 20.4413 20.9235 18.1961 22.2772C15.9509 23.6308 13.3239 24.2114 10.7173 23.9312C8.11054 23.6509 5.66727 22.5247 3.76108 20.7247C1.85498 18.9248 0.59091 16.5503 0.161853 13.964C-0.267204 11.3777 0.162253 8.72217 1.38504 6.40315C1.57833 6.03659 2.0326 5.89625 2.39916 6.08953C2.76524 6.28291 2.90573 6.73633 2.71277 7.10267C1.64284 9.13173 1.26658 11.4559 1.64199 13.7188C2.01745 15.9816 3.12313 18.0596 4.79083 19.6344C6.45862 21.2093 8.59677 22.1941 10.8775 22.4393C13.1582 22.6846 15.4569 22.1758 17.4214 20.9915C19.3856 19.8071 20.9084 18.0121 21.7563 15.8809C22.604 13.7496 22.7298 11.3994 22.1158 9.1895C21.5016 6.97944 20.1813 5.03059 18.3554 3.64219C16.5294 2.25382 14.2987 1.50174 12.0049 1.50065C11.5906 1.50046 11.2546 1.16456 11.2546 0.750323C11.2548 0.335931 11.5915 -0.000189365 12.0059 8.00426e-08ZM0.969823 0.970144C1.26284 0.677125 1.73781 0.677125 2.03083 0.970144L12.5354 11.4747C12.8284 11.7677 12.8284 12.2427 12.5354 12.5357C12.2424 12.8287 11.7674 12.8287 11.4744 12.5357L0.969823 2.03115C0.676802 1.73813 0.676802 1.26316 0.969823 0.970144ZM9.00361 1.87581C9.00361 2.1743 8.88544 2.46098 8.67436 2.67205C8.46329 2.88312 8.17662 3.00129 7.87812 3.00129C7.57962 3.00129 7.29294 2.88312 7.08187 2.67205C6.8708 2.46098 6.75263 2.17431 6.75263 1.87581C6.75263 1.57731 6.8708 1.29063 7.08187 1.07957C7.29294 0.868497 7.57962 0.750323 7.87812 0.750323C8.1393 0.750323 8.39104 0.841218 8.59132 1.00532L8.67436 1.07957L8.74862 1.16261C8.91271 1.36289 9.00361 1.61462 9.00361 1.87581Z" fill="#4E50D1"/>
</g>
<defs>
<clipPath id="clip0_8366_23281">
<rect width="24" height="24" fill="white"/>
</clipPath>
</defs>
</svg>
