<svg width="24" height="24" viewBox="0 0 24 24" fill="none" xmlns="http://www.w3.org/2000/svg">
<path d="M9.3311 2.184C9.83072 1.68438 9.83072 0.874336 9.3311 0.374716C8.83148 -0.124905 8.02143 -0.124905 7.52181 0.374715L0.383862 7.51266C0.146974 7.74486 0 8.06845 0 8.42636C0 8.42639 0 8.42633 0 8.42636C0 8.43038 1.88747e-05 8.43448 5.65751e-05 8.43849C0.00274822 8.72828 0.101789 8.99504 0.266691 9.20829C0.299866 9.25126 0.335916 9.2923 0.374715 9.33109L7.52181 16.4782C8.02143 16.9778 8.83148 16.9778 9.3311 16.4782C9.83072 15.9786 9.83072 15.1685 9.3311 14.6689L4.36791 9.70572H13.1912C15.3793 9.70572 17.4777 10.5749 19.0248 12.1221C20.5721 13.6693 21.4413 15.7677 21.4413 17.9558V22.7205C21.4413 23.4271 22.0141 23.9999 22.7206 23.9999C23.4272 23.9999 24 23.4271 24 22.7205V17.9558C24 15.0892 22.8613 12.3399 20.8341 10.3128C18.8072 8.28582 16.0579 7.147 13.1912 7.147H4.36809L9.3311 2.184Z" fill="#4E50D1"/>
</svg>
