<svg width="24" height="24" viewBox="0 0 24 24" fill="none" xmlns="http://www.w3.org/2000/svg">
<path fill-rule="evenodd" clip-rule="evenodd" d="M11.5752 1.02814C11.2878 1.08304 11.0144 1.19599 10.74 1.37317C10.6553 1.42783 8.73582 3.34163 5.37316 6.72411C1.32089 10.8003 0.124281 12.0172 0.0764442 12.1107C-0.00532154 12.2703 -0.0237368 12.504 0.0320845 12.6732C0.179431 13.1199 0.681367 13.3244 1.10631 13.111C1.17788 13.075 2.7715 11.4874 6.4119 7.82548C11.2174 2.99148 11.6242 2.5884 11.7333 2.55223C11.8842 2.50225 12.0895 2.50225 12.2403 2.55223C12.3495 2.5884 12.7562 2.99148 17.5618 7.82548C21.2022 11.4874 22.7958 13.075 22.8674 13.111C23.202 13.2791 23.6008 13.1917 23.8204 12.9021C23.865 12.8433 23.9141 12.7553 23.9296 12.7065C23.9451 12.6576 23.9672 12.6074 23.9788 12.5948C24.0088 12.5621 24.0061 12.2609 23.9759 12.2797C23.9628 12.2879 23.952 12.2773 23.952 12.2562C23.952 12.1217 23.8017 11.9561 22.407 10.5534L20.9787 9.11684V5.85209V2.58732L20.9275 2.44955C20.8625 2.27459 20.7233 2.12217 20.5505 2.03669L20.4152 1.96981H18.3531H16.2909L16.1783 2.02221C16.0341 2.08928 15.8581 2.26658 15.7915 2.41176C15.7429 2.51761 15.7389 2.56827 15.7317 3.17471L15.7239 3.82428L14.5447 2.64162C13.8242 1.91891 13.3114 1.42363 13.2263 1.3681C13.0307 1.24047 12.7734 1.12496 12.5496 1.06433C12.2984 0.996266 11.8326 0.978954 11.5752 1.02814ZM17.2381 4.41458V5.35029L18.3531 6.47283L19.468 7.59538V5.53712V3.47887H18.3531H17.2381V4.41458ZM0.00558855 12.4487C0.00570844 12.5416 0.0100245 12.5767 0.0152278 12.5266C0.0204071 12.4765 0.0203352 12.4005 0.015036 12.3576C0.00973678 12.3147 0.00549264 12.3557 0.00558855 12.4487ZM3.62992 13.2113C3.37906 13.2436 3.13408 13.4404 3.04442 13.6817C2.99519 13.8142 2.995 13.8315 2.995 18.0986V22.3825L3.0462 22.5203C3.1112 22.6952 3.25042 22.8476 3.4232 22.9331L3.55849 23H6.74759H9.9367L10.0537 22.9399C10.2156 22.8566 10.3495 22.7184 10.4246 22.5571L10.4882 22.4205L10.5002 19.2093L10.5122 15.998L10.576 15.8773C10.6934 15.6551 10.8834 15.5203 11.1384 15.4783C11.3206 15.4482 12.6515 15.448 12.8333 15.478C13.094 15.5209 13.2803 15.6563 13.4065 15.8943L13.4615 15.998L13.4735 19.2093L13.4855 22.4205L13.549 22.5571C13.6242 22.7184 13.758 22.8566 13.92 22.9399L14.037 23H17.2261H20.4152L20.5505 22.9331C20.7233 22.8476 20.8625 22.6952 20.9275 22.5203L20.9787 22.3825V18.0986C20.9787 13.8681 20.9781 13.8131 20.9305 13.6851C20.8692 13.52 20.7028 13.3439 20.5355 13.2667C20.3914 13.2003 20.1705 13.186 20.0008 13.232C19.8143 13.2825 19.5785 13.5133 19.5113 13.7109C19.4872 13.7819 19.4793 14.6075 19.474 17.6459L19.4672 21.4909H17.2263H14.9854L14.9779 18.66C14.9704 15.873 14.9695 15.8263 14.9203 15.66C14.8051 15.2701 14.6782 15.0278 14.4398 14.7425C14.1725 14.4228 13.7411 14.1469 13.3176 14.025C13.1299 13.971 13.1015 13.9698 11.9868 13.9698C10.8757 13.9698 10.8433 13.9711 10.6611 14.0243C10.1643 14.1693 9.7283 14.4651 9.44958 14.8461C9.24363 15.1277 9.164 15.2915 9.05389 15.66C9.00399 15.827 9.0033 15.8622 8.99582 18.66L8.98824 21.4909H6.74692H4.50563V17.7288C4.50563 15.1458 4.49753 13.9217 4.47981 13.8234C4.46559 13.7445 4.42842 13.6357 4.3972 13.5815C4.33392 13.4716 4.18586 13.3279 4.0781 13.2717C3.98 13.2206 3.77348 13.1928 3.62992 13.2113Z" fill="#4E50D1"/>
</svg>
