<svg width="24" height="24" viewBox="0 0 24 24" fill="none" xmlns="http://www.w3.org/2000/svg">
<g clip-path="url(#clip0_8366_23810)">
<path d="M5.5 5.50164C6.09765 5.49899 6.66993 5.25972 7.0916 4.83618C7.51327 4.41263 7.75001 3.8393 7.75 3.24164C7.56853 2.21948 7.13167 1.25976 6.48 0.451639C6.35903 0.303193 6.20652 0.183542 6.03356 0.101369C5.86059 0.0191961 5.6715 -0.0234375 5.48 -0.0234375C5.2885 -0.0234375 5.09941 0.0191961 4.92644 0.101369C4.75348 0.183542 4.60097 0.303193 4.48 0.451639C3.84267 1.26387 3.41972 2.22326 3.25 3.24164C3.24999 3.8393 3.48673 4.41263 3.9084 4.83618C4.33007 5.25972 4.90235 5.49899 5.5 5.50164Z" fill="#4E50D1"/>
<path d="M18.5 5.50164C19.0977 5.49899 19.6699 5.25972 20.0916 4.83618C20.5133 4.41263 20.75 3.8393 20.75 3.24164C20.5685 2.21948 20.1317 1.25976 19.48 0.451639C19.359 0.303193 19.2065 0.183542 19.0336 0.101369C18.8606 0.0191961 18.6715 -0.0234375 18.48 -0.0234375C18.2885 -0.0234375 18.0994 0.0191961 17.9264 0.101369C17.7535 0.183542 17.601 0.303193 17.48 0.451639C16.8283 1.25976 16.3915 2.21948 16.21 3.24164C16.21 3.54097 16.2694 3.83732 16.3849 4.11349C16.5003 4.38966 16.6695 4.64014 16.8825 4.8504C17.0956 5.06066 17.3483 5.2265 17.6259 5.33829C17.9036 5.45009 18.2007 5.50561 18.5 5.50164Z" fill="#4E50D1"/>
<path d="M12 5.50164C12.5977 5.49899 13.1699 5.25972 13.5916 4.83618C14.0133 4.41263 14.25 3.8393 14.25 3.24164C14.0744 2.22138 13.6445 1.26182 13 0.451639C12.879 0.303193 12.7265 0.183542 12.5536 0.101369C12.3806 0.0191961 12.1915 -0.0234375 12 -0.0234375C11.8085 -0.0234375 11.6194 0.0191961 11.4464 0.101369C11.2735 0.183542 11.121 0.303193 11 0.451639C10.3555 1.26182 9.9256 2.22138 9.75 3.24164C9.74999 3.8393 9.98673 4.41263 10.4084 4.83618C10.8301 5.25972 11.4023 5.49899 12 5.50164Z" fill="#4E50D1"/>
<path d="M20.5 11.0016C20.3674 11.0016 20.2402 10.949 20.1464 10.8552C20.0527 10.7614 20 10.6342 20 10.5016V7.50164C20 7.23642 19.8946 6.98207 19.7071 6.79453C19.5196 6.607 19.2652 6.50164 19 6.50164H18C17.7348 6.50164 17.4804 6.607 17.2929 6.79453C17.1054 6.98207 17 7.23642 17 7.50164V10.5016C17 10.6342 16.9473 10.7614 16.8536 10.8552C16.7598 10.949 16.6326 11.0016 16.5 11.0016H14C13.8674 11.0016 13.7402 10.949 13.6464 10.8552C13.5527 10.7614 13.5 10.6342 13.5 10.5016V7.50164C13.5 7.23642 13.3946 6.98207 13.2071 6.79453C13.0196 6.607 12.7652 6.50164 12.5 6.50164H11.5C11.2348 6.50164 10.9804 6.607 10.7929 6.79453C10.6054 6.98207 10.5 7.23642 10.5 7.50164V10.5016C10.5 10.6342 10.4473 10.7614 10.3536 10.8552C10.2598 10.949 10.1326 11.0016 10 11.0016H7.5C7.36739 11.0016 7.24021 10.949 7.14645 10.8552C7.05268 10.7614 7 10.6342 7 10.5016V7.50164C7 7.23642 6.89464 6.98207 6.70711 6.79453C6.51957 6.607 6.26522 6.50164 6 6.50164H5C4.73478 6.50164 4.48043 6.607 4.29289 6.79453C4.10536 6.98207 4 7.23642 4 7.50164V10.5016C4 10.6342 3.94732 10.7614 3.85355 10.8552C3.75979 10.949 3.63261 11.0016 3.5 11.0016C2.83696 11.0016 2.20107 11.265 1.73223 11.7339C1.26339 12.2027 1 12.8386 1 13.5016V13.8616C1.01097 14.3426 1.19496 14.8035 1.51822 15.1599C1.84148 15.5162 2.28235 15.744 2.76 15.8016C3.16942 15.8428 3.58231 15.7715 3.95415 15.5952C4.32599 15.419 4.64266 15.1446 4.87 14.8016C4.98929 14.6183 5.15227 14.4675 5.34427 14.3628C5.53627 14.2581 5.75129 14.2027 5.97 14.2016C6.20256 14.1996 6.43201 14.2552 6.63789 14.3634C6.84377 14.4716 7.0197 14.629 7.15 14.8216C7.35704 15.1207 7.6335 15.3652 7.95571 15.534C8.27791 15.7028 8.63624 15.791 9 15.791C9.36376 15.791 9.72209 15.7028 10.0443 15.534C10.3665 15.3652 10.643 15.1207 10.85 14.8216C10.9854 14.6453 11.1595 14.5025 11.3589 14.4042C11.5584 14.3059 11.7777 14.2548 12 14.2548C12.2223 14.2548 12.4416 14.3059 12.6411 14.4042C12.8405 14.5025 13.0146 14.6453 13.15 14.8216C13.357 15.1207 13.6335 15.3652 13.9557 15.534C14.2779 15.7028 14.6362 15.791 15 15.791C15.3638 15.791 15.7221 15.7028 16.0443 15.534C16.3665 15.3652 16.643 15.1207 16.85 14.8216C16.9797 14.6369 17.1518 14.486 17.3519 14.3815C17.552 14.2771 17.7743 14.2223 18 14.2216C18.2187 14.2227 18.4337 14.2781 18.6257 14.3828C18.8177 14.4875 18.9807 14.6383 19.1 14.8216C19.3273 15.1646 19.644 15.439 20.0159 15.6152C20.3877 15.7915 20.8006 15.8628 21.21 15.8216C21.6964 15.7703 22.1472 15.5426 22.477 15.1814C22.8069 14.8202 22.9929 14.3507 23 13.8616V13.5016C23 12.8386 22.7366 12.2027 22.2678 11.7339C21.7989 11.265 21.163 11.0016 20.5 11.0016Z" fill="#4E50D1"/>
<path d="M22.32 17.0716C22.0211 17.1859 21.7084 17.2598 21.39 17.2916C20.8333 17.35 20.2706 17.2833 19.7429 17.0965C19.2152 16.9096 18.7359 16.6073 18.34 16.2116C18.295 16.1622 18.2402 16.1227 18.1791 16.0957C18.1179 16.0687 18.0518 16.0547 17.985 16.0547C17.9182 16.0547 17.8521 16.0687 17.7909 16.0957C17.7298 16.1227 17.675 16.1622 17.63 16.2116C17.2872 16.5611 16.8778 16.8385 16.4262 17.0274C15.9745 17.2164 15.4896 17.313 15 17.3116C14.0111 17.3086 13.063 16.9172 12.36 16.2216C12.2665 16.13 12.1409 16.0787 12.01 16.0787C11.8791 16.0787 11.7535 16.13 11.66 16.2216C10.9543 16.919 10.0022 17.3101 9.01 17.3101C8.01785 17.3101 7.06569 16.919 6.36 16.2216C6.31511 16.1738 6.26089 16.1357 6.20069 16.1096C6.1405 16.0836 6.0756 16.0701 6.01 16.0701C5.9444 16.0701 5.8795 16.0836 5.81931 16.1096C5.75911 16.1357 5.70489 16.1738 5.66 16.2216C5.26715 16.6064 4.79547 16.9014 4.27752 17.0861C3.75957 17.2709 3.20769 17.341 2.66 17.2916C2.34162 17.2598 2.02888 17.1859 1.73 17.0716C1.65497 17.0423 1.57396 17.0315 1.49387 17.0402C1.41378 17.0489 1.33697 17.0769 1.27 17.1216C1.20222 17.1664 1.14663 17.2273 1.10823 17.2989C1.06983 17.3704 1.04982 17.4504 1.05 17.5316V21.5316C1.05766 22.1809 1.31763 22.8017 1.77489 23.2627C2.23215 23.7237 2.85082 23.9887 3.5 24.0016H20.5C20.8283 24.0016 21.1534 23.937 21.4567 23.8113C21.76 23.6857 22.0356 23.5016 22.2678 23.2694C22.4999 23.0373 22.6841 22.7617 22.8097 22.4583C22.9353 22.155 23 21.8299 23 21.5016V17.5016C23.0002 17.4204 22.9802 17.3404 22.9418 17.2689C22.9034 17.1973 22.8478 17.1364 22.78 17.0916C22.7105 17.0517 22.6325 17.029 22.5524 17.0255C22.4724 17.0221 22.3927 17.0379 22.32 17.0716Z" fill="#4E50D1"/>
</g>
<defs>
<clipPath id="clip0_8366_23810">
<rect width="24" height="24" fill="white"/>
</clipPath>
</defs>
</svg>
