<svg width="24" height="24" viewBox="0 0 24 24" fill="none" xmlns="http://www.w3.org/2000/svg">
<g clip-path="url(#clip0_8366_23837)">
<path d="M6 20.25C6 19.6533 5.76278 19.0811 5.34082 18.6592C4.91886 18.2372 4.34674 18 3.75 18C3.15326 18 2.58114 18.2372 2.15918 18.6592C1.73722 19.0811 1.5 19.6533 1.5 20.25C1.5 20.8467 1.73722 21.4189 2.15918 21.8408C2.58114 22.2628 3.15326 22.5 3.75 22.5C4.34674 22.5 4.91886 22.2628 5.34082 21.8408C5.76278 21.4189 6 20.8467 6 20.25ZM7.5 20.25C7.5 21.0663 7.23323 21.8546 6.74902 22.5H21.75C21.9489 22.5 22.1396 22.4209 22.2803 22.2803C22.4209 22.1396 22.5 21.9489 22.5 21.75V6C22.5 5.80109 22.4209 5.61038 22.2803 5.46973C22.1396 5.32907 21.9489 5.25 21.75 5.25H7.5V20.25ZM6 3.75C6 3.15326 5.76278 2.58114 5.34082 2.15918C4.91886 1.73722 4.34674 1.5 3.75 1.5C3.15326 1.5 2.58114 1.73722 2.15918 2.15918C1.73722 2.58114 1.5 3.15326 1.5 3.75V17.25C2.1453 16.766 2.93393 16.5 3.75 16.5C4.56607 16.5 5.3547 16.766 6 17.25V3.75ZM21.75 3.75C22.3467 3.75 22.9189 3.98722 23.3408 4.40918C23.7628 4.83114 24 5.40326 24 6V21.75C24 22.3467 23.7628 22.9189 23.3408 23.3408C22.9189 23.7628 22.3467 24 21.75 24H3.75C2.75544 24 1.80189 23.6046 1.09863 22.9014C0.395372 22.1981 0 21.2446 0 20.25V3.75C0 2.75544 0.395371 1.80189 1.09863 1.09863C1.80189 0.395371 2.75544 0 3.75 0C4.74456 0 5.69811 0.395371 6.40137 1.09863C7.10463 1.80189 7.5 2.75544 7.5 3.75H21.75Z" fill="#4E50D1"/>
</g>
<defs>
<clipPath id="clip0_8366_23837">
<rect width="24" height="24" fill="white"/>
</clipPath>
</defs>
</svg>
