<svg width="24" height="24" viewBox="0 0 24 24" fill="none" xmlns="http://www.w3.org/2000/svg">
<path fill-rule="evenodd" clip-rule="evenodd" d="M1.99399 4.0064C1.60675 4.05393 1.19375 4.21041 0.900901 4.42057C0.759183 4.52228 0.516877 4.76339 0.406751 4.9123C0.26448 5.10467 0.119495 5.40562 0.0541982 5.64414L0 5.84207V10.5459V15.2496L0.0541982 15.4476C0.084012 15.5564 0.152 15.7338 0.205285 15.8418C0.511904 16.4628 1.06037 16.8878 1.76062 17.0471C1.93763 17.0874 2.32913 17.0892 10.4985 17.0892C18.6679 17.0892 19.0594 17.0874 19.2364 17.0471C19.6782 16.9466 20.0139 16.7686 20.3329 16.4658C20.6231 16.1904 20.8374 15.8326 20.9428 15.4476L20.997 15.2496V10.5459V5.84207L20.9428 5.64414C20.8374 5.25917 20.6231 4.90138 20.3329 4.62588C20.0228 4.33148 19.7154 4.16559 19.2553 4.04448C19.1075 4.00559 18.641 4.00321 10.5826 4.00047C5.8985 3.99886 2.03363 4.00154 1.99399 4.0064ZM1.99789 5.49385C1.82441 5.55563 1.65624 5.7024 1.55894 5.877C1.51488 5.95603 1.51332 6.09656 1.50727 10.5036C1.50107 15.0189 1.50133 15.0496 1.54972 15.1748C1.60795 15.3257 1.76716 15.491 1.92843 15.568L2.04204 15.6222H10.4985H18.955L19.0686 15.568C19.2295 15.4911 19.3891 15.3257 19.4471 15.1755C19.495 15.0512 19.4955 15.0052 19.4955 10.5459C19.4955 6.08653 19.495 6.04049 19.4471 5.91626C19.3891 5.76602 19.2295 5.60057 19.0686 5.52372L18.955 5.46949L10.5225 5.46525C3.31868 5.46164 2.07666 5.46581 1.99789 5.49385ZM3.88247 6.92678C3.48613 7.00223 3.10777 7.35862 3.01646 7.74256C2.98078 7.89257 2.98583 8.12988 3.02804 8.28804C3.12279 8.64292 3.45175 8.96168 3.81886 9.05434C4.21886 9.1553 4.62443 9.04782 4.91832 8.76296C5.3533 8.34134 5.35195 7.65179 4.91534 7.23055C4.63793 6.9629 4.26652 6.85366 3.88247 6.92678ZM10.1273 6.92687C8.87253 7.044 7.74515 7.78708 7.16281 8.8809C6.6967 9.75641 6.61886 10.7851 6.94784 11.7218C7.61415 13.6188 9.7502 14.6347 11.7117 13.9874C13.6683 13.3419 14.7168 11.2708 14.0492 9.36991C13.6765 8.3089 12.8063 7.46543 11.7117 7.10427C11.4051 7.00311 11.1827 6.95787 10.8348 6.9259C10.5413 6.89893 10.425 6.89909 10.1273 6.92687ZM10.1288 8.39334C10.0577 8.40563 9.90092 8.44766 9.78049 8.48669C9.07959 8.71394 8.55668 9.24754 8.33314 9.9637C8.27366 10.1542 8.26772 10.2071 8.26772 10.5459C8.26772 10.8846 8.27366 10.9375 8.33314 11.128C8.56805 11.8806 9.12149 12.417 9.8979 12.6447C10.0945 12.7024 10.149 12.7081 10.4985 12.7081C10.8489 12.7081 10.9019 12.7025 11.0983 12.6444C11.8803 12.4131 12.4249 11.8852 12.6635 11.1273C12.7235 10.9369 12.7293 10.8855 12.7293 10.5459C12.7293 10.2062 12.7235 10.1548 12.6635 9.96445C12.4249 9.20649 11.8683 8.66734 11.0991 8.44906C10.927 8.40021 10.8192 8.386 10.5706 8.37932C10.3988 8.37471 10.2 8.38102 10.1288 8.39334ZM22.9654 8.42398C22.7205 8.53454 22.5715 8.71615 22.5248 8.96128C22.5064 9.05787 22.4985 10.423 22.4985 13.5299C22.4985 17.9158 22.498 17.962 22.4501 18.0862C22.3921 18.2365 22.2325 18.4019 22.0716 18.4787L21.958 18.533L13.5135 18.545C8.59546 18.552 5.04399 18.5657 5.00901 18.5779C4.82546 18.6421 4.64442 18.805 4.55885 18.9832C4.51236 19.0799 4.49917 19.1451 4.49917 19.2781C4.49917 19.5725 4.65646 19.81 4.93694 19.9392L5.06907 20H13.5616C21.673 20 22.0624 19.9981 22.2394 19.9579C22.6812 19.8573 23.0169 19.6794 23.3359 19.3766C23.6261 19.1011 23.8404 18.7433 23.9458 18.3583L24 18.1604V13.5265V8.89254L23.944 8.78242C23.7663 8.43264 23.3136 8.26682 22.9654 8.42398ZM16.5886 12.0329C16.4016 12.0822 16.2469 12.1711 16.091 12.3185C15.4332 12.9408 15.7893 14.0224 16.7008 14.1709C17.3775 14.2812 18.0045 13.7641 18.0057 13.0947C18.0065 12.7011 17.7889 12.3387 17.4294 12.1348C17.2115 12.0112 16.8409 11.9663 16.5886 12.0329Z" fill="#4E50D1"/>
</svg>
