<svg width="24" height="24" viewBox="0 0 24 24" fill="none" xmlns="http://www.w3.org/2000/svg">
<path fill-rule="evenodd" clip-rule="evenodd" d="M13.8515 5.04575C13.4642 5.1227 13.2518 5.21027 11.9565 5.82705L10.667 6.44111L10.4499 6.31623C9.73507 5.90501 8.84216 5.81858 8.04272 6.08325C7.9504 6.1138 7.12494 6.42432 6.20837 6.77328C5.29179 7.12224 4.52467 7.41242 4.50367 7.41814C4.47451 7.42606 4.44972 7.3862 4.39905 7.25005C4.24367 6.83238 3.91219 6.48347 3.48597 6.28893C3.17476 6.14688 3.1064 6.14139 1.73996 6.14865C0.534034 6.15503 0.511854 6.15597 0.416348 6.20477C0.283315 6.27273 0.131987 6.42205 0.0653992 6.5511C-0.0141373 6.70516 -0.0139455 7.00124 0.0657829 7.15572C0.144912 7.30902 0.315279 7.46097 0.469988 7.51621C0.592374 7.55989 0.655221 7.56234 1.65937 7.56247C2.32949 7.56254 2.75305 7.57149 2.81067 7.58675C2.87193 7.60297 2.91713 7.63485 2.94845 7.68386C2.99401 7.75516 2.99509 7.826 2.99516 10.7722C2.99525 14.0174 2.99972 13.9011 2.87308 13.9629C2.83048 13.9836 2.52408 13.9926 1.70042 13.9972L0.58542 14.0034L0.448263 14.0647C-0.135229 14.3257 -0.152877 15.0711 0.417571 15.3611L0.537463 15.422L1.70042 15.4293C2.49852 15.4342 2.91979 15.4282 3.04321 15.41C3.38488 15.3596 3.72964 15.1893 3.987 14.9437L4.12121 14.8157L4.95497 14.8166L5.78874 14.8175L7.44326 16.5924C8.35324 17.5686 9.15172 18.4142 9.21766 18.4714C9.61261 18.8141 10.1712 19.021 10.6403 18.9983C10.9018 18.9857 10.9357 18.9692 11.4654 18.5972C12.5607 17.8278 13.6199 17.0155 14.5741 16.2128C14.777 16.0422 14.9712 15.8809 15.0057 15.8545C15.0564 15.8157 15.5323 15.7186 17.4894 15.3481L19.9104 14.8899L20.0587 15.0099C20.2613 15.1739 20.4522 15.2807 20.6796 15.3574L20.8712 15.422H22.154H23.4369L23.5577 15.3611C23.7065 15.2862 23.8543 15.1355 23.9131 14.9987C23.9374 14.9421 23.967 14.8779 23.9789 14.856C24.0054 14.8071 24.0077 14.5341 23.9814 14.5496C23.971 14.5557 23.9439 14.5108 23.9212 14.4497C23.8674 14.3054 23.7006 14.1428 23.5261 14.0647L23.3889 14.0034L22.2739 13.9972C21.4685 13.9927 21.1434 13.9834 21.1029 13.9637C20.9732 13.9004 20.9791 14.0526 20.9791 10.7912C20.9791 8.92734 20.9879 7.74923 21.002 7.71374C21.0146 7.68212 21.0546 7.63771 21.0908 7.61501C21.1513 7.57719 21.2508 7.57284 22.2968 7.56234C23.3906 7.55135 23.4413 7.54895 23.5448 7.50294C23.6847 7.44077 23.8401 7.29042 23.9047 7.15494C23.9328 7.09586 23.9659 7.02964 23.9781 7.00779C24.0071 6.95596 24.0074 6.66315 23.9783 6.68027C23.9662 6.68741 23.9494 6.66322 23.941 6.62654C23.9218 6.54337 23.7979 6.37581 23.6943 6.29309C23.6512 6.2587 23.5621 6.21102 23.4962 6.18713C23.3844 6.14656 23.2976 6.14373 22.1838 6.14409C20.8767 6.14453 20.7948 6.15114 20.5081 6.27916C20.3255 6.36071 20.1927 6.44608 20.0262 6.58888L19.9013 6.69599L17.6647 5.9191C16.4346 5.4918 15.3687 5.12606 15.2962 5.10632C14.8785 4.99267 14.251 4.96635 13.8515 5.04575ZM14.2531 6.44061C14.0161 6.46715 13.8528 6.52445 13.4437 6.72461C13.2295 6.82941 12.4282 7.21463 11.6632 7.58069C10.138 8.31037 10.1029 8.33135 9.97694 8.58773C9.92107 8.7015 9.91304 8.7466 9.91304 8.94665C9.91304 9.15297 9.91992 9.18882 9.98286 9.31133C10.0718 9.48436 10.2259 9.63146 10.3999 9.70928C10.5168 9.76159 10.5675 9.77026 10.7523 9.76964L10.9681 9.76891L12.7545 9.19921C14.4764 8.65009 14.5478 8.62947 14.7327 8.62791C14.896 8.62654 14.9447 8.63579 15.0603 8.68992C15.2167 8.76323 15.3514 8.89517 15.4246 9.04682C15.4964 9.19562 15.4944 9.47649 15.4204 9.62235C15.3136 9.83281 15.1867 9.93086 14.8692 10.0481C14.8168 10.0674 14.8645 10.131 15.7425 11.2123C16.2533 11.8413 16.7195 12.4229 16.7786 12.5047C16.9186 12.6987 17.0597 12.9819 17.109 13.1682C17.1604 13.3621 17.1446 13.6791 17.075 13.8511L17.0256 13.9733L17.0781 13.9612C17.1069 13.9545 17.6323 13.8551 18.2456 13.7403C18.8588 13.6255 19.3848 13.5259 19.4145 13.519L19.4685 13.5065V10.7901V8.07378L17.2341 7.29751C16.0051 6.87057 14.9342 6.50472 14.8542 6.48452C14.667 6.43722 14.4349 6.42029 14.2531 6.44061ZM0.0060046 6.85302C0.0060046 6.94741 0.0102488 6.98603 0.0154042 6.93882C0.0205835 6.89164 0.0205835 6.81442 0.0154042 6.76722C0.0102488 6.72004 0.0060046 6.75864 0.0060046 6.85302ZM8.72517 7.38755C8.65211 7.40256 7.67288 7.76406 6.54913 8.19086L4.5059 8.96688V11.169V13.3712L5.3991 13.3784L6.29229 13.3856L6.42417 13.4449C6.49757 13.4779 6.61202 13.5591 6.68228 13.628C6.7517 13.696 7.57715 14.5751 8.51663 15.5815C9.45611 16.5878 10.2698 17.4413 10.3248 17.478L10.4249 17.5448L10.6486 17.389C11.7565 16.617 13.1279 15.5399 14.2771 14.5389C14.8279 14.0592 15.5468 13.3986 15.555 13.3646C15.5621 13.3351 13.3109 10.5457 13.2845 10.5515C13.2765 10.5532 12.8222 10.6938 12.2749 10.8639C11.7276 11.034 11.1961 11.1859 11.0937 11.2015C10.844 11.2393 10.4225 11.218 10.1768 11.155C9.94905 11.0966 9.60278 10.9446 9.40654 10.817C8.88269 10.4761 8.515 9.90697 8.41441 9.28133C8.37398 9.02969 8.39556 8.61531 8.46167 8.37462C8.53013 8.12533 8.74323 7.72132 8.90484 7.53435C8.97798 7.44974 9.03783 7.37508 9.03783 7.36846C9.03783 7.34819 8.86547 7.35869 8.72517 7.38755ZM0.00581278 14.7127C0.00593267 14.8008 0.0102488 14.834 0.0154521 14.7866C0.0206315 14.7391 0.0205595 14.667 0.0152603 14.6264C0.00996105 14.5858 0.00571686 14.6246 0.00581278 14.7127Z" fill="#4E50D1"/>
</svg>
