<svg width="24" height="24" viewBox="0 0 24 24" fill="none" xmlns="http://www.w3.org/2000/svg">
<path d="M17.9996 6.25C17.9996 4.6587 17.3674 3.13258 16.2422 2.00736C15.117 0.882141 13.5909 0.25 11.9996 0.25C10.4083 0.25 8.88213 0.882141 7.75691 2.00736C6.6317 3.13258 5.99955 4.6587 5.99955 6.25V11C5.99955 11.1326 6.05223 11.2598 6.146 11.3536C6.23977 11.4473 6.36695 11.5 6.49955 11.5H17.4996C17.6322 11.5 17.7593 11.4473 17.8531 11.3536C17.9469 11.2598 17.9996 11.1326 17.9996 11V6.25Z" fill="#4E50D1"/>
<path d="M11.9996 18C13.3046 17.9997 14.574 17.5738 15.6153 16.787C16.6565 16.0002 17.4128 14.8954 17.7696 13.64C17.7891 13.5653 17.7921 13.4872 17.7782 13.4111C17.7644 13.3351 17.7342 13.2631 17.6896 13.2C17.6435 13.1373 17.5833 13.0865 17.5137 13.0517C17.4441 13.0169 17.3673 12.9992 17.2896 13H6.70955C6.63179 12.9992 6.55496 13.0169 6.48541 13.0517C6.41585 13.0865 6.35557 13.1373 6.30955 13.2C6.26496 13.2631 6.23469 13.3351 6.22087 13.4111C6.20705 13.4872 6.21002 13.5653 6.22955 13.64C6.58628 14.8954 7.34259 16.0002 8.38384 16.787C9.42508 17.5738 10.6945 17.9997 11.9996 18Z" fill="#4E50D1"/>
<path d="M20.9996 8.25C20.7343 8.25 20.48 8.35536 20.2924 8.54289C20.1049 8.73043 19.9996 8.98478 19.9996 9.25V11.5C20.0116 12.5539 19.8129 13.5996 19.4152 14.5757C19.0174 15.5517 18.4286 16.4384 17.6833 17.1837C16.938 17.929 16.0513 18.5178 15.0752 18.9156C14.0992 19.3134 13.0535 19.5121 11.9996 19.5C10.9456 19.5121 9.89993 19.3134 8.92387 18.9156C7.94782 18.5178 7.06111 17.929 6.31582 17.1837C5.57054 16.4384 4.98172 15.5517 4.58395 14.5757C4.18618 13.5996 3.98749 12.5539 3.99955 11.5V9.25C3.99955 8.98478 3.8942 8.73043 3.70666 8.54289C3.51912 8.35536 3.26477 8.25 2.99955 8.25C2.73434 8.25 2.47998 8.35536 2.29245 8.54289C2.10491 8.73043 1.99955 8.98478 1.99955 9.25V11.5C1.9742 13.9484 2.85798 16.3192 4.47988 18.1535C6.10178 19.9878 8.34647 21.1553 10.7796 21.43C10.8414 21.4351 10.8989 21.464 10.94 21.5106C10.981 21.5573 11.0024 21.618 10.9996 21.68V22.75C10.9996 23.0152 11.1049 23.2696 11.2924 23.4571C11.48 23.6446 11.7343 23.75 11.9996 23.75C12.2648 23.75 12.5191 23.6446 12.7067 23.4571C12.8942 23.2696 12.9996 23.0152 12.9996 22.75V21.68C12.9968 21.618 13.0181 21.5573 13.0591 21.5106C13.1002 21.464 13.1577 21.4351 13.2196 21.43C15.6526 21.1553 17.8973 19.9878 19.5192 18.1535C21.1411 16.3192 22.0249 13.9484 21.9996 11.5V9.25C21.9996 8.98478 21.8942 8.73043 21.7067 8.54289C21.5191 8.35536 21.2648 8.25 20.9996 8.25Z" fill="#4E50D1"/>
</svg>
