<svg width="24" height="24" viewBox="0 0 24 24" fill="none" xmlns="http://www.w3.org/2000/svg">
<g clip-path="url(#clip0_8366_23864)">
<path d="M23.7502 16.7898L12.7502 4.31979C12.6512 4.21508 12.5318 4.13168 12.3994 4.07468C12.267 4.01768 12.1244 3.98828 11.9802 3.98828C11.8361 3.98828 11.6935 4.01768 11.5611 4.07468C11.4287 4.13168 11.3093 4.21508 11.2102 4.31979L0.250233 16.7898C0.162291 16.8888 0.0949042 17.0044 0.0519875 17.1297C0.00907067 17.255 -0.00852123 17.3876 0.000233356 17.5198C0.0110754 17.653 0.0485202 17.7827 0.110354 17.9012C0.172188 18.0198 0.257155 18.1247 0.360233 18.2098L2.21023 19.7598C2.31724 19.8537 2.44307 19.9237 2.57931 19.9651C2.71555 20.0065 2.85906 20.0183 3.00023 19.9998C3.13273 19.9902 3.26198 19.9543 3.38045 19.8942C3.49892 19.8341 3.60423 19.751 3.69023 19.6498L11.8602 10.1998C11.9108 10.1497 11.9791 10.1216 12.0502 10.1216C12.1214 10.1216 12.1897 10.1497 12.2402 10.1998L20.4102 19.6498C20.4962 19.751 20.6015 19.8341 20.72 19.8942C20.8385 19.9543 20.9677 19.9902 21.1002 19.9998C21.2327 20.0126 21.3663 19.9989 21.4934 19.9594C21.6205 19.9199 21.7384 19.8554 21.8402 19.7698L23.6902 18.2098C23.7933 18.1247 23.8783 18.0198 23.9401 17.9012C24.0019 17.7827 24.0394 17.653 24.0502 17.5198C24.0524 17.3841 24.0269 17.2494 23.9753 17.1239C23.9237 16.9984 23.8471 16.8848 23.7502 16.7898Z" fill="#4E50D1"/>
</g>
<defs>
<clipPath id="clip0_8366_23864">
<rect width="24" height="24" fill="white"/>
</clipPath>
</defs>
</svg>
