<svg width="24" height="24" viewBox="0 0 24 24" fill="none" xmlns="http://www.w3.org/2000/svg">
<g clip-path="url(#clip0_8366_23332)">
<path fill-rule="evenodd" clip-rule="evenodd" d="M11.6758 0.0375946C11.3551 0.100763 10.9999 0.319859 10.7728 0.594563C10.6793 0.707699 10.3109 1.42527 8.37964 5.25639L7.44182 7.1168L4.43483 7.41287C2.78097 7.57571 1.34683 7.72439 1.24783 7.74323C0.664937 7.85427 0.158297 8.35453 0.0358009 8.93999C-0.0603671 9.39971 0.0685609 9.91767 0.364409 10.26C0.421433 10.326 1.58879 11.4912 2.95854 12.8493C4.68486 14.561 5.44547 15.3304 5.43753 15.3573C5.35715 15.6294 3.59803 22.0546 3.57856 22.1472C3.51451 22.4518 3.57129 22.8475 3.72155 23.1431C4.0973 23.8825 4.99521 24.1988 5.75983 23.861C5.81923 23.8348 7.24367 23.1317 8.92523 22.2987C10.6068 21.4656 11.9904 20.784 11.9999 20.784C12.0094 20.784 13.4254 21.4813 15.1465 22.3336C16.8676 23.1859 18.3406 23.9056 18.4198 23.9329C18.7424 24.0441 19.2267 24.0117 19.5539 23.8569C19.9867 23.6523 20.3247 23.2286 20.4224 22.7684C20.4587 22.5969 20.4598 22.2762 20.4246 22.1191C20.4014 22.0161 18.589 15.413 18.5653 15.3454C18.5602 15.3308 19.6845 14.2022 21.0637 12.8374C22.443 11.4726 23.6204 10.2914 23.6801 10.2123C23.8306 10.0133 23.8961 9.87476 23.9648 9.61057C24.0252 9.37815 24.0457 9.04799 23.9998 9.04799C23.9866 9.04799 23.9757 9.0237 23.9756 8.99399C23.975 8.88304 23.8773 8.62746 23.7622 8.43587C23.6802 8.29947 23.4573 8.07359 23.3113 7.97907C23.1228 7.85708 23.0194 7.81002 22.8443 7.76658C22.7212 7.73603 16.7812 7.12825 16.6038 7.12803C16.5748 7.12801 16.2844 6.57359 15.551 5.11799C13.7184 1.48093 13.3222 0.710027 13.2263 0.593987C12.9928 0.311411 12.6431 0.0997066 12.3037 0.0355546C12.0773 -0.00726138 11.9006 -0.00668538 11.6758 0.0375946ZM10.2682 4.86599C8.67784 8.02527 8.57214 8.22779 8.44758 8.35415C8.35446 8.44863 8.27994 8.50002 8.19558 8.52791C8.11518 8.5545 7.00039 8.67404 4.80287 8.89175C3.00275 9.07009 1.5251 9.21599 1.51919 9.21599C1.44955 9.21599 1.90751 9.68399 4.21619 11.9721C6.48347 14.2192 6.91862 14.6611 6.97238 14.771C7.10222 15.0363 7.14962 14.8282 6.05164 18.8129C5.50835 20.7846 5.06383 22.4181 5.06383 22.4429C5.06383 22.4688 5.08067 22.488 5.10352 22.488C5.12534 22.488 6.58605 21.7735 8.34952 20.9003C10.113 20.027 11.6152 19.2857 11.6878 19.2528C11.7904 19.2064 11.8606 19.1928 12.0024 19.1921L12.1851 19.1912L12.9024 19.5424C13.297 19.7356 14.8078 20.4823 16.2598 21.2017C18.3335 22.2292 18.9061 22.5035 18.9292 22.4807C18.9523 22.4577 18.747 21.6843 17.9625 18.8398C17.0294 15.4565 16.9668 15.2174 16.9733 15.06C16.9868 14.733 16.8265 14.9085 19.7988 11.9661C21.2778 10.502 22.4878 9.28938 22.4878 9.27133C22.4878 9.25326 22.4742 9.23327 22.4576 9.22688C22.441 9.2205 20.9641 9.06992 19.1756 8.89225C17.3871 8.7146 15.8836 8.55771 15.8344 8.54365C15.7276 8.51307 15.5693 8.39588 15.4784 8.27999C15.4422 8.23379 14.6544 6.69207 13.7278 4.85399C12.4256 2.27065 12.0333 1.51199 11.9998 1.51199C11.9663 1.51199 11.5737 2.27243 10.2682 4.86599ZM0.00820094 9.26399C0.00820094 9.37619 0.0123529 9.42207 0.0173929 9.36599C0.0224569 9.3099 0.0224569 9.21807 0.0173929 9.16199C0.0123529 9.1059 0.00820094 9.15179 0.00820094 9.26399Z" fill="#4E50D1"/>
</g>
<defs>
<clipPath id="clip0_8366_23332">
<rect width="24" height="24" fill="white"/>
</clipPath>
</defs>
</svg>
