<svg width="24" height="24" viewBox="0 0 24 24" fill="none" xmlns="http://www.w3.org/2000/svg">
<g clip-path="url(#clip0_8366_23328)">
<path fill-rule="evenodd" clip-rule="evenodd" d="M18.2005 0.524878C18.0642 0.569181 18.0041 0.603963 17.8931 0.702785C17.7662 0.815791 17.7009 0.948127 17.607 1.28243C17.5017 1.65736 17.3297 2.15501 17.2165 2.41231C16.6214 3.76502 15.8141 4.39417 13.7412 5.1207C13.5082 5.20239 13.3417 5.34171 13.2455 5.53555C13.1495 5.72903 13.1499 5.97399 13.2467 6.16249C13.3776 6.4176 13.4775 6.48522 13.9902 6.66598C15.1215 7.06478 15.7971 7.44001 16.3339 7.96754C16.9064 8.53028 17.2339 9.15076 17.5835 10.3347C17.7105 10.7649 17.7755 10.9018 17.9027 11.008C18.2018 11.2573 18.6279 11.2517 18.9251 10.9944C19.0446 10.891 19.112 10.7549 19.2057 10.4277C19.7296 8.59956 20.3247 7.81432 21.705 7.13004C22.0294 6.96921 22.4949 6.77838 22.9309 6.62758C23.0768 6.57711 23.2457 6.50295 23.3062 6.46278C23.621 6.25387 23.7291 5.86864 23.5666 5.53447C23.4471 5.28865 23.3332 5.20703 22.8961 5.05403C21.3727 4.52066 20.5828 4.00761 20.0242 3.18865C19.6847 2.69091 19.4998 2.24711 19.1489 1.08773C19.0736 0.838828 18.941 0.67537 18.7333 0.575209C18.5762 0.499425 18.3458 0.477656 18.2005 0.524878ZM18.3706 3.50628C18.3426 3.5935 18.052 4.04701 17.8787 4.27425C17.4418 4.84693 16.8322 5.35724 16.1317 5.73661C16.035 5.78902 15.956 5.83902 15.9564 5.84768C15.9567 5.85636 16.0354 5.90653 16.1314 5.95916C16.421 6.11802 16.8842 6.43121 17.1151 6.62433C17.5543 6.99172 17.9127 7.41535 18.2412 7.95558L18.4156 8.24238L18.5093 8.07222C18.9828 7.21204 19.6453 6.55811 20.6038 6.00497L20.8808 5.84512L20.669 5.72628C19.931 5.312 19.3672 4.83844 18.9367 4.27104C18.748 4.0223 18.431 3.52554 18.431 3.47856C18.431 3.43973 18.3853 3.46073 18.3706 3.50628ZM8.49371 4.68738C8.34047 4.73752 8.24801 4.79208 8.15264 4.8887C8.03422 5.00862 7.98857 5.10266 7.91133 5.38582C7.07417 8.4548 6.08701 10.0165 4.22273 11.2213C3.81138 11.4872 3.60213 11.6056 3.14603 11.8306C2.51094 12.1439 1.765 12.4516 0.970958 12.7278C0.402335 12.9256 0.381271 12.9349 0.254064 13.0465C0.042917 13.2318 -0.0454632 13.5076 0.0225328 13.7692C0.101085 14.0715 0.285805 14.2387 0.685312 14.369C1.76014 14.7197 3.09968 15.299 3.8306 15.7292C5.06025 16.4528 5.87531 17.2406 6.56184 18.3688C6.72686 18.64 7.08499 19.3719 7.2312 19.7368C7.40345 20.1666 7.65657 20.9225 7.81244 21.4725C8.00345 22.1465 8.00808 22.1576 8.16429 22.3115C8.32695 22.4718 8.46331 22.525 8.71168 22.525C8.91397 22.525 9.08811 22.4534 9.23291 22.3107C9.35693 22.1884 9.38242 22.1247 9.5839 21.4328C10.7418 17.4571 12.2299 15.943 16.4359 14.4609C16.9956 14.2637 17.0613 14.2323 17.1758 14.1073C17.4309 13.829 17.4544 13.464 17.2372 13.1529C17.1402 13.0139 17.0081 12.9347 16.6909 12.8255C14.1129 11.9374 12.6343 11.0822 11.5779 9.8678C11.1482 9.37383 10.8613 8.93602 10.5212 8.25566C10.1172 7.44743 9.83951 6.69117 9.49771 5.46876C9.44437 5.27798 9.37453 5.07761 9.3425 5.0235C9.2696 4.90038 9.13409 4.78175 8.99912 4.72288C8.86335 4.66367 8.61869 4.64649 8.49371 4.68738ZM8.557 8.22838C8.09668 9.33422 7.46678 10.327 6.74105 11.0904C6.22004 11.6385 5.79785 11.9877 5.10847 12.4407C4.46935 12.8607 3.82024 13.2043 2.97298 13.5711C2.91513 13.5961 2.92078 13.601 3.09432 13.6766C3.19442 13.7202 3.50018 13.8651 3.77379 13.9986C6.17806 15.1716 7.62255 16.6897 8.60155 19.0724L8.6917 19.2918L8.796 19.0365C8.85337 18.8961 9.00722 18.566 9.13788 18.3028C10.1136 16.338 11.4767 15.034 13.6626 13.9743C13.9695 13.8255 14.2725 13.6835 14.3359 13.6589C14.3992 13.6343 14.4511 13.6076 14.4511 13.5996C14.4512 13.5916 14.3448 13.5391 14.2146 13.4828C13.0811 12.9925 12.0477 12.3614 11.2447 11.6692C10.2305 10.795 9.44937 9.68336 8.82944 8.23216C8.7565 8.06134 8.69479 7.91989 8.69231 7.91783C8.68986 7.91575 8.62898 8.0555 8.557 8.22838ZM19.7757 15.3507C19.629 15.3847 19.4267 15.5137 19.3363 15.631C19.2875 15.6942 19.2328 15.8144 19.1947 15.942C19.0825 16.3172 18.9363 16.7203 18.8328 16.9394C18.4488 17.7526 17.8198 18.2227 16.5412 18.6522C16.1532 18.7825 15.9906 18.9239 15.9034 19.2071C15.8219 19.4715 15.8812 19.7172 16.0771 19.9267C16.1926 20.0502 16.2581 20.0827 16.7323 20.2516C17.1632 20.405 17.6499 20.6343 17.9093 20.8058C18.4782 21.1822 18.8381 21.7355 19.1245 22.674C19.1857 22.875 19.2619 23.0836 19.2936 23.1377C19.4094 23.3352 19.6204 23.4675 19.8647 23.4957C20.1871 23.533 20.5315 23.3216 20.647 23.0154C20.6669 22.9628 20.7345 22.7583 20.7972 22.5609C20.9397 22.1124 21.102 21.7507 21.2768 21.4916C21.4363 21.2553 21.7584 20.942 22.0006 20.7875C22.2456 20.6313 22.8053 20.3713 23.1752 20.2418C23.6153 20.0878 23.6651 20.0641 23.7799 19.9541C23.9425 19.7983 24.0003 19.6567 24 19.4152C23.9998 19.2477 23.9896 19.1929 23.9421 19.1042C23.8034 18.8452 23.7289 18.7948 23.1995 18.602C22.4161 18.3167 21.9382 18.0545 21.6005 17.7246C21.2176 17.3507 20.9962 16.9341 20.7475 16.1201C20.6325 15.7436 20.5885 15.6584 20.4416 15.5275C20.2635 15.369 19.9994 15.2988 19.7757 15.3507ZM19.8126 18.2612C19.521 18.6668 19.1218 19.0437 18.7042 19.3075C18.6209 19.3602 18.5527 19.4102 18.5526 19.4188C18.5525 19.4274 18.5931 19.4581 18.6428 19.487C19.0739 19.7377 19.6219 20.2641 19.8953 20.6902L19.9383 20.7572L20.0845 20.5546C20.3636 20.1678 20.7027 19.8461 21.1428 19.5509L21.3429 19.4166L21.1549 19.2924C20.6987 18.9912 20.2912 18.597 20.0268 18.2013L19.9444 18.0778L19.8126 18.2612Z" fill="#4E50D1"/>
</g>
<defs>
<clipPath id="clip0_8366_23328">
<rect width="24" height="24" fill="white"/>
</clipPath>
</defs>
</svg>
