<svg width="24" height="24" viewBox="0 0 24 24" fill="none" xmlns="http://www.w3.org/2000/svg">
<path fill-rule="evenodd" clip-rule="evenodd" d="M3.62187 1.02278C3.28515 1.0824 2.99934 1.42158 2.99934 1.76161C2.99934 1.82165 3.12904 2.8159 3.28755 3.97111C3.44606 5.12628 3.57576 6.0864 3.57576 6.10469C3.57576 6.12298 3.49883 6.23893 3.4048 6.36238C2.90068 7.02418 2.44385 7.83925 2.15692 8.58888L2.05403 8.85765L1.29581 8.86521L0.537588 8.87277L0.417502 8.93969C0.273567 9.01988 0.14289 9.15837 0.0657951 9.31238L0.00921068 9.42543L0.00287016 12.7457C-0.00347037 16.0529 -0.00330225 16.0666 0.0463652 16.2054C0.10965 16.3824 0.267851 16.5547 0.448244 16.6431L0.585622 16.7104L1.70859 16.7183L2.83154 16.7261L2.86559 16.795C2.92064 16.9064 3.27777 17.4175 3.49974 17.7027C3.61265 17.8478 3.8813 18.1511 4.09671 18.3767L4.48841 18.7869L4.48882 20.1854C4.48915 21.3125 4.49602 21.6174 4.52419 21.7565C4.62309 22.2447 4.99277 22.6948 5.45159 22.8857C5.7006 22.9892 5.96717 23.0095 6.90552 22.9965C7.77724 22.9844 7.84833 22.9763 8.10299 22.8607C8.39095 22.7299 8.70807 22.412 8.84872 22.113C8.95149 21.8946 9.00267 21.6497 9.00322 21.3738L9.00363 21.1637L9.06968 21.1758C9.10599 21.1825 9.29243 21.217 9.48397 21.2525C10.7001 21.4779 11.9414 21.4704 13.1554 21.2303C13.3319 21.1954 13.4786 21.1702 13.4815 21.1744C13.4843 21.1785 13.4979 21.3176 13.5117 21.4834C13.551 21.9541 13.6656 22.2251 13.9522 22.5248C14.2142 22.7989 14.481 22.9335 14.8584 22.9817C14.9827 22.9976 15.3951 23.0034 15.9062 22.9964C16.7843 22.9844 16.8542 22.9765 17.1094 22.8607C17.3974 22.7299 17.7145 22.412 17.8551 22.113C18.0044 21.7957 18.009 21.7387 18.0108 20.1897L18.0124 18.7955L18.2334 18.5832C19.4711 17.3947 20.3688 15.7915 20.7733 14.0476C20.8512 13.7122 20.9327 13.2292 20.9535 12.98C20.9763 12.7069 20.9714 12.7155 21.1258 12.6803C21.3654 12.6258 21.6873 12.5011 21.9542 12.3595C23.1835 11.7071 23.988 10.3851 23.9994 8.99837C24.0021 8.6774 23.9975 8.63631 23.9464 8.52789C23.6854 7.97355 22.9402 7.92474 22.6283 8.44152C22.5447 8.58014 22.528 8.65236 22.5009 8.99458C22.4736 9.33964 22.4356 9.50928 22.3236 9.78711C22.1156 10.3028 21.6856 10.7634 21.1945 10.9963C21.108 11.0373 21.0222 11.0708 21.0038 11.0708C20.9798 11.0708 20.9656 11.0192 20.9536 10.8887C20.9271 10.601 20.8274 10.0236 20.7499 9.70944C20.3159 7.949 19.4262 6.47436 18.0461 5.22787C17.0409 4.32003 15.5362 3.50991 14.1313 3.12014C12.2475 2.59755 10.302 2.56585 8.49377 3.02827L8.21205 3.10032L8.17122 3.03511C8.09511 2.91365 7.67173 2.47419 7.47854 2.31613C6.73017 1.70388 5.75341 1.28344 4.64999 1.09857C4.39258 1.05547 3.82316 0.993066 3.75588 1.00063C3.74267 1.00211 3.68237 1.01208 3.62187 1.02278ZM4.6457 2.77471C4.6523 2.81269 4.76621 3.63509 4.89884 4.60224C5.07017 5.85155 5.13555 6.39343 5.12469 6.47374C5.0996 6.65903 5.01042 6.82425 4.79931 7.07663C4.16924 7.82986 3.73228 8.62264 3.41145 9.59446C3.26101 10.0502 3.24631 10.0801 3.10747 10.214C2.89492 10.4189 2.8568 10.4278 2.14073 10.4384L1.51028 10.4477V12.794V15.1404H2.43112C3.14366 15.1404 3.37682 15.1482 3.46179 15.175C3.64192 15.2317 3.77373 15.3502 3.91519 15.5825C4.21985 16.0829 4.36088 16.2987 4.54494 16.5461C4.74765 16.8185 5.35084 17.4705 5.66525 17.757C5.8612 17.9356 5.93839 18.065 5.97745 18.2803C5.99181 18.3596 6.00149 19.0181 6.00149 19.9168V21.4206H6.74386H7.48623L7.49439 20.6858C7.50256 19.9515 7.50261 19.9509 7.56623 19.809C7.64243 19.639 7.79871 19.4723 7.94649 19.4034C8.13735 19.3143 8.32899 19.3186 8.63136 19.4186C9.40901 19.6758 10.1518 19.8041 11.0091 19.8295C11.9873 19.8585 12.7768 19.7512 13.7578 19.4557C14.1159 19.3479 14.1975 19.3314 14.3176 19.3428C14.5798 19.3677 14.8079 19.5324 14.9408 19.7929C14.9942 19.8975 14.9961 19.9239 15.0032 20.6607L15.0105 21.4206H15.7537H16.497L16.4971 19.9447C16.4972 19.132 16.5075 18.4034 16.5201 18.3231C16.5549 18.1007 16.6323 17.9655 16.8305 17.7804C16.9281 17.6893 17.0956 17.5327 17.2028 17.4324C18.1867 16.5112 18.9618 15.1362 19.2957 13.7198C19.4286 13.156 19.477 12.7658 19.4922 12.1369C19.5063 11.5498 19.4851 11.2144 19.4003 10.6815C19.0867 8.71267 18.0286 7.0388 16.3649 5.87953C15.1608 5.0405 13.806 4.5424 12.1619 4.33425C11.7438 4.2813 10.3765 4.28896 9.95231 4.34659C9.3818 4.42411 8.85237 4.54647 8.19905 4.75183C8.0275 4.80574 7.95394 4.8168 7.84257 4.80534C7.55374 4.77567 7.40522 4.66218 7.18224 4.30079C6.99063 3.99022 6.59812 3.57038 6.32572 3.38464C5.94923 3.1279 5.4783 2.91727 4.97312 2.77965C4.63446 2.68741 4.63054 2.68736 4.6457 2.77471ZM9.8082 6.52966C9.67474 6.56638 9.47804 6.70744 9.40407 6.81947C9.29808 6.98002 9.2609 7.10226 9.2609 7.29016C9.2609 7.56757 9.37359 7.79069 9.58909 7.93993C9.79744 8.0842 9.81855 8.08566 11.5855 8.07689C13.1687 8.06903 13.1964 8.06805 13.3027 8.01547C13.4659 7.93479 13.6044 7.79499 13.6795 7.63492C13.7364 7.51369 13.747 7.4596 13.747 7.29016C13.747 7.12072 13.7364 7.06664 13.6795 6.9454C13.6044 6.78533 13.4659 6.64554 13.3027 6.56485C13.196 6.51212 13.1733 6.51137 11.5494 6.50732C10.4625 6.50461 9.87168 6.51217 9.8082 6.52966ZM6.03751 9.6744C5.48406 9.81806 5.11485 10.4039 5.20287 10.9987C5.34243 11.9418 6.4612 12.3274 7.10486 11.6541C7.63943 11.095 7.52336 10.1853 6.8661 9.78307C6.64697 9.64898 6.30715 9.60441 6.03751 9.6744Z" fill="#4E50D1"/>
</svg>
