<svg width="24" height="24" viewBox="0 0 24 24" fill="none" xmlns="http://www.w3.org/2000/svg">
<g clip-path="url(#clip0_8366_23806)">
<path fill-rule="evenodd" clip-rule="evenodd" d="M6.54763 0.0228111C6.34784 0.0838728 6.16635 0.237811 6.06449 0.43257L6.00798 0.540622L6.00117 1.77023L5.99433 2.99985L3.90252 3.00743C1.50912 3.01613 1.66233 3.00285 1.18372 3.24265C0.646797 3.51166 0.25851 4.01304 0.0778099 4.67063L0.0118282 4.91074L0.0049926 13.4109C0.000291613 19.2665 0.00602393 21.9716 0.0234368 22.1058C0.0626516 22.408 0.109446 22.5632 0.240785 22.8268C0.528049 23.4032 1.05168 23.7868 1.79868 23.968C1.9075 23.9944 3.70018 24 12.0401 24H22.1496L22.3535 23.9464C22.6102 23.8789 22.9916 23.6889 23.1873 23.5311C23.5387 23.2478 23.8254 22.7529 23.9248 22.2582C23.9473 22.1465 23.9755 22.0334 23.9875 22.007C24.0005 21.9784 24.0063 18.5357 24.002 13.4709C23.9952 5.52189 23.9921 4.97003 23.9531 4.78202C23.7826 3.96024 23.2684 3.38384 22.4734 3.12334C22.1118 3.00484 22.0489 3.00182 19.9525 3.00182H17.9896L17.9829 1.77122L17.9763 0.540622L17.9203 0.43257C17.7346 0.074004 17.3367 -0.0880987 16.9756 0.0477112C16.8023 0.112927 16.6388 0.269243 16.5536 0.451299L16.4893 0.588646L16.4818 1.79523L16.4744 3.00182H11.9907H7.50702V1.87769C7.50702 1.18651 7.49716 0.698667 7.48143 0.611072C7.41828 0.259302 7.10113 -0.00290533 6.74524 0.00242525C6.66955 0.0035538 6.58061 0.0127262 6.54763 0.0228111ZM1.93556 4.55326C1.78585 4.59933 1.65748 4.72941 1.58222 4.91134L1.52286 5.05481L1.51631 7.02977L1.50979 9.00473H11.9916H22.4734V7.02804C22.4734 4.81806 22.4798 4.90512 22.3049 4.72998C22.2555 4.68057 22.1518 4.61456 22.0744 4.58334L21.9338 4.52656L19.961 4.52L17.9883 4.51347V5.3295C17.9883 6.26632 17.9807 6.31052 17.7859 6.51407C17.6341 6.67267 17.5104 6.72931 17.2863 6.74271C16.993 6.76024 16.7715 6.64974 16.6106 6.40551C16.4937 6.22814 16.4776 6.08796 16.4775 5.2409L16.4773 4.51455H11.9938H7.51035L7.50268 5.34895C7.49404 6.29153 7.49296 6.29756 7.2949 6.51268C7.13662 6.68458 7.00912 6.73567 6.73951 6.73531C6.5532 6.73507 6.49417 6.72566 6.41572 6.68376C6.2868 6.61487 6.13625 6.45863 6.06576 6.32054C6.00841 6.20819 6.00793 6.20118 6.00083 5.36096L5.99371 4.51455L4.0221 4.51623C2.35704 4.51762 2.03265 4.52339 1.93556 4.55326ZM0.0116843 13.5309C0.0116843 18.206 0.0144425 20.1221 0.0178244 17.7889C0.0212062 15.4558 0.0212062 11.6307 0.0178244 9.28881C0.0144425 6.94691 0.0116843 8.85586 0.0116843 13.5309ZM1.51667 16.2743L1.52286 22.031L1.58001 22.1473C1.65058 22.2908 1.78026 22.3882 1.98504 22.4515C2.13818 22.4989 2.22508 22.4993 12.0263 22.4993C20.9004 22.4993 21.9259 22.4955 22.0387 22.4619C22.1999 22.414 22.33 22.2853 22.4047 22.0998L22.4614 21.959L22.4676 16.2382L22.4738 10.5175H11.9921H1.51048L1.51667 16.2743Z" fill="#4E50D1"/>
</g>
<defs>
<clipPath id="clip0_8366_23806">
<rect width="24" height="24" fill="white"/>
</clipPath>
</defs>
</svg>
