<svg width="24" height="24" viewBox="0 0 24 24" fill="none" xmlns="http://www.w3.org/2000/svg">
<g clip-path="url(#clip0_8366_23466)">
<path fill-rule="evenodd" clip-rule="evenodd" d="M19.2682 0.00652475C19.2285 0.0118555 19.1042 0.0282078 18.9918 0.0428553C18.2119 0.144523 17.4009 0.512366 16.7693 1.05096C16.6635 1.1411 13.2716 4.51926 9.23162 8.55798C2.78594 15.0016 1.87872 15.9173 1.82528 16.0331C1.79176 16.1058 1.76425 16.1768 1.76413 16.191C1.76398 16.2051 1.36728 17.7557 0.882547 19.6367C0.0687008 22.7947 0.00111055 23.0724 7.7356e-05 23.2608C-0.000907785 23.4422 0.00673307 23.4791 0.0687969 23.5919C0.220004 23.8669 0.488587 24.0204 0.778747 23.9978C0.870149 23.9907 2.35396 23.6212 4.35606 23.107C6.23768 22.6237 7.78927 22.2282 7.80405 22.2281C7.81883 22.2279 7.89038 22.2004 7.96307 22.167C8.07902 22.1135 8.99528 21.2069 15.4431 14.7654C19.4844 10.7281 22.8644 7.33832 22.9541 7.23267C23.496 6.59452 23.8376 5.84716 23.9693 5.01154C24.0104 4.75091 24.0102 3.981 23.969 3.72688C23.7092 2.12414 22.6701 0.835979 21.1876 0.279064C20.91 0.174778 20.6322 0.0996922 20.3374 0.0492185C20.1405 0.0155293 19.4162 -0.0133814 19.2682 0.00652475ZM19.1263 1.54434C18.6975 1.62173 18.2187 1.83321 17.8766 2.09638C17.7764 2.17351 17.6943 2.24238 17.6943 2.24944C17.6943 2.25647 18.6072 3.17441 19.7228 4.2893L21.7513 6.31634L21.8192 6.23691C22.5535 5.37861 22.7099 4.12078 22.2084 3.10545C22.0594 2.80361 21.9059 2.59084 21.66 2.3451C21.2271 1.9125 20.715 1.64802 20.1041 1.54155C19.8501 1.4973 19.3796 1.49862 19.1263 1.54434ZM16.0903 3.84106L15.58 4.35147L17.6165 6.38645L19.6529 8.42144L20.1692 7.90501L20.6855 7.38858L18.6554 5.35964C17.5388 4.24372 16.6197 3.33068 16.6129 3.33068C16.6062 3.33068 16.371 3.56036 16.0903 3.84106ZM9.04429 10.8826L3.57804 16.3453L5.61437 18.3803L7.6507 20.4154L13.1171 14.9526L18.5834 9.48977L16.547 7.45476L14.5106 5.41977L9.04429 10.8826ZM2.34731 20.0121C2.04047 21.2098 1.79236 22.1927 1.79596 22.1963C1.80341 22.2038 6.14305 21.0963 6.15995 21.0827C6.17155 21.0733 2.93801 17.834 2.9173 17.8342C2.91064 17.8343 2.65417 18.8143 2.34731 20.0121Z" fill="#4E50D1"/>
</g>
<defs>
<clipPath id="clip0_8366_23466">
<rect width="24" height="24" fill="white"/>
</clipPath>
</defs>
</svg>
