<svg width="24" height="24" viewBox="0 0 24 24" fill="none" xmlns="http://www.w3.org/2000/svg">
<g clip-path="url(#clip0_8366_23712)">
<path fill-rule="evenodd" clip-rule="evenodd" d="M4.78898 0.0139838C4.34172 0.0528025 3.78477 0.18287 3.36785 0.345827C1.9707 0.891953 0.890688 1.97098 0.348483 3.36242C0.137355 3.90418 0.0279003 4.44356 0.00578372 5.05095C-0.0484152 6.54087 0.492181 7.9152 1.54537 8.96492C1.81416 9.23281 2.21684 9.55886 2.42944 9.68072C2.47888 9.70905 2.51939 9.73908 2.51949 9.74744C2.51961 9.75577 2.44687 9.80978 2.3579 9.86747C1.96799 10.1202 1.44908 10.5927 1.14869 10.9686C-0.0311975 12.445 -0.325245 14.4315 0.374034 16.202C0.990441 17.7627 2.36458 18.9543 4.01045 19.3554C4.60304 19.4998 4.64996 19.5025 6.61447 19.5027L8.41596 19.5029L8.57863 19.4229C8.86811 19.2805 9.02055 19.0165 8.99769 18.6972C8.97865 18.431 8.83089 18.2104 8.58314 18.0785L8.46307 18.0145L6.65004 18.0005C4.78069 17.9861 4.75161 17.9846 4.33272 17.88C2.95798 17.5368 1.88486 16.4172 1.5824 15.0107C1.51692 14.7061 1.49293 14.1032 1.53394 13.7939C1.73782 12.2568 2.83409 11.0061 4.30736 10.6297C4.77603 10.51 4.64722 10.5133 8.82486 10.5129C11.5164 10.5126 12.7852 10.5044 12.8832 10.4866C13.2496 10.4201 13.4982 10.125 13.5006 9.75375C13.5016 9.60383 13.4907 9.55615 13.4246 9.422C13.3357 9.24147 13.1992 9.1163 13.0147 9.04625C12.8965 9.00133 12.7848 9.00004 9.03313 9.00001C6.5803 9.00001 5.0769 8.99101 4.90904 8.97536C3.27069 8.82246 1.93051 7.6271 1.5824 6.00819C1.51692 5.70367 1.49293 5.10074 1.53394 4.79142C1.76128 3.07759 3.0645 1.76882 4.77697 1.53461C4.92914 1.5138 6.6127 1.50878 11.3927 1.51488L17.8044 1.52309L18.0205 1.57357C18.5247 1.69137 18.9388 1.86931 19.3597 2.14903C19.6791 2.3613 20.1509 2.82775 20.36 3.13808C20.9295 3.98287 21.1401 5.06574 20.9235 6.03522C20.7187 6.95204 20.207 7.73011 19.4344 8.29957C19.0537 8.58019 18.9517 8.75131 18.9746 9.07086C18.9941 9.3436 19.1543 9.58131 19.4004 9.70252C19.5472 9.77488 19.8975 9.77968 20.0257 9.71109C20.3243 9.55123 20.9245 9.03939 21.2393 8.67595C22.1304 7.64746 22.6004 6.24367 22.4997 4.91162C22.427 3.94886 22.1455 3.11576 21.6302 2.33821C20.8899 1.22099 19.6931 0.401762 18.391 0.120861C17.7967 -0.00735807 18.0736 -0.0027488 11.2254 0.00159639C7.73817 0.00382901 4.84181 0.00939854 4.78898 0.0139838ZM4.9162 4.17306C4.72006 4.23574 4.59192 4.31779 4.43778 4.47938C4.22425 4.70322 4.12814 4.94052 4.12918 5.24137C4.13033 5.56933 4.22703 5.80699 4.45278 6.03669C4.93935 6.53173 5.7319 6.47891 6.15115 5.9235C6.27754 5.75605 6.3337 5.62195 6.36694 5.40815C6.44902 4.88043 6.10798 4.33162 5.60061 4.17498C5.40029 4.11311 5.10627 4.11229 4.9162 4.17306ZM10.3702 4.51078C10.1371 4.55082 9.93079 4.71383 9.8234 4.94292C9.7332 5.13536 9.73481 5.38296 9.82751 5.57238C9.90992 5.74076 10.069 5.88513 10.2443 5.95072C10.3747 5.9995 10.3999 5.99979 13.9219 5.99352L17.4682 5.98721L17.5883 5.92326C17.836 5.79134 17.9838 5.57077 18.0028 5.30449C18.0257 4.98527 17.8733 4.72129 17.5838 4.57884L17.4212 4.4988L13.9507 4.49534C12.042 4.49345 10.4307 4.50038 10.3702 4.51078ZM16.9759 10.5042C15.257 10.5865 13.6807 11.2798 12.485 12.4795C11.3993 13.5689 10.7411 14.9217 10.5512 16.4541C10.5008 16.8601 10.5001 17.6236 10.5496 18.0409C10.7249 19.5187 11.3661 20.8686 12.3981 21.9326C13.7612 23.3381 15.5359 24.0587 17.4802 23.9963C19.2213 23.9404 20.7965 23.2575 22.0308 22.0236C23.0957 20.959 23.7257 19.6952 23.9576 18.1586C24.009 17.8179 24.0152 16.7543 23.9677 16.4181C23.7918 15.1721 23.3315 14.0592 22.6024 13.1172C21.7456 12.0101 20.4818 11.1507 19.1472 10.7676C18.4636 10.5714 17.6454 10.4721 16.9759 10.5042ZM16.7478 12.0262C15.4842 12.1572 14.316 12.7314 13.4481 13.6481C12.2727 14.8897 11.779 16.6096 12.1154 18.2906C12.2726 19.0758 12.6474 19.8839 13.1455 20.5112C13.4418 20.8844 13.9562 21.3592 14.3508 21.6237C15.0051 22.0621 15.8751 22.3778 16.6758 22.4672C16.9985 22.5033 17.6051 22.4967 17.9403 22.4536C18.5138 22.3798 19.142 22.1832 19.6691 21.9126C20.1531 21.664 20.5408 21.3788 20.9524 20.9686C21.4126 20.5098 21.6903 20.1261 21.9608 19.5749C22.3337 18.8151 22.4996 18.0947 22.4986 17.2391C22.4979 16.6154 22.4165 16.1218 22.2193 15.5455C21.5893 13.7038 19.9673 12.3542 18.0325 12.0618C17.7225 12.015 17.039 11.996 16.7478 12.0262ZM4.9162 13.1755C4.72006 13.2382 4.59192 13.3203 4.43778 13.4819C4.22425 13.7057 4.12814 13.943 4.12918 14.2438C4.13033 14.5718 4.22703 14.8095 4.45278 15.0392C4.93935 15.5342 5.7319 15.4814 6.15115 14.926C6.27754 14.7585 6.3337 14.6244 6.36694 14.4106C6.44902 13.8829 6.10798 13.3341 5.60061 13.1775C5.40029 13.1156 5.10627 13.1148 4.9162 13.1755ZM19.7133 14.784C19.6069 14.8164 19.5044 14.8783 19.4236 14.959C19.3802 15.0023 18.6969 15.9019 17.9051 16.9582C17.1132 18.0145 16.4559 18.8891 16.4443 18.9018C16.4315 18.9157 16.1059 18.6091 15.613 18.1186C14.8642 17.3737 14.7921 17.3086 14.6637 17.2614C14.2055 17.093 13.7194 17.3828 13.6511 17.8651C13.6303 18.012 13.6744 18.2244 13.7515 18.3493C13.823 18.465 15.2678 19.924 15.4751 20.0897C15.7892 20.3409 16.0864 20.4376 16.4957 20.4218C16.8713 20.4073 17.1566 20.2922 17.446 20.0383C17.5204 19.9731 20.4489 16.0973 20.5846 15.8846C20.696 15.7099 20.7105 15.4089 20.6179 15.1937C20.5578 15.0541 20.418 14.9135 20.2615 14.8353C20.1364 14.7728 20.0882 14.7619 19.9438 14.7637C19.8502 14.7648 19.7464 14.774 19.7133 14.784Z" fill="#4E50D1"/>
</g>
<defs>
<clipPath id="clip0_8366_23712">
<rect width="24" height="24" fill="white"/>
</clipPath>
</defs>
</svg>
