<svg width="24" height="24" viewBox="0 0 24 24" fill="none" xmlns="http://www.w3.org/2000/svg">
<g clip-path="url(#clip0_8366_23416)">
<path d="M0 21.1735V4.72813C0 3.16708 1.26549 1.90159 2.82655 1.90159H13.6188C14.0446 1.90159 14.3897 2.24672 14.3897 2.67247C14.3897 3.09821 14.0446 3.44334 13.6188 3.44334H2.82655C2.11698 3.44334 1.54176 4.01856 1.54176 4.72813V21.1735C1.54176 21.883 2.11698 22.4583 2.82655 22.4583H19.2719C19.9815 22.4583 20.5567 21.883 20.5567 21.1735V10.3812C20.5567 9.95547 20.9019 9.61034 21.3276 9.61034C21.7534 9.61034 22.0985 9.95547 22.0985 10.3812V21.1735C22.0985 22.7345 20.833 24 19.2719 24H2.82655C1.26549 24 0 22.7345 0 21.1735Z" fill="#4E50D1"/>
<path d="M17.2624 10.8951C17.6882 10.8951 18.0333 11.2403 18.0333 11.666C18.0333 12.0917 17.6882 12.4369 17.2624 12.4369H4.9284C4.50266 12.4369 4.15752 12.0917 4.15752 11.666C4.15752 11.2403 4.50266 10.8951 4.9284 10.8951H17.2624Z" fill="#4E50D1"/>
<path d="M11.0954 15.5204C11.5212 15.5204 11.8663 15.8655 11.8663 16.2913C11.8663 16.717 11.5212 17.0621 11.0954 17.0621H4.9284C4.50266 17.0621 4.15752 16.717 4.15752 16.2913C4.15752 15.8655 4.50266 15.5204 4.9284 15.5204H11.0954Z" fill="#4E50D1"/>
<path d="M22.4582 4.11133C22.4582 2.69219 21.3078 1.54175 19.8887 1.54175C18.4695 1.54175 17.3191 2.69219 17.3191 4.11133C17.3191 5.53047 18.4695 6.68091 19.8887 6.68091V8.22266C17.618 8.22266 15.7773 6.38196 15.7773 4.11133C15.7773 1.84071 17.618 0 19.8887 0C22.1593 0 24 1.84071 24 4.11133C24 6.38196 22.1593 8.22266 19.8887 8.22266V6.68091C21.3078 6.68091 22.4582 5.53047 22.4582 4.11133Z" fill="#4E50D1"/>
</g>
<defs>
<clipPath id="clip0_8366_23416">
<rect width="24" height="24" fill="white"/>
</clipPath>
</defs>
</svg>
