<svg width="24" height="24" viewBox="0 0 24 24" fill="none" xmlns="http://www.w3.org/2000/svg">
<path fill-rule="evenodd" clip-rule="evenodd" d="M19.7379 5.00634L16.2561 5.01878L16.1481 5.08517C15.8856 5.24638 15.755 5.47586 15.7538 5.77768C15.7528 6.02369 15.8199 6.18264 15.9943 6.34783C16.2218 6.56326 16.0165 6.54903 18.8957 6.54908L21.4427 6.54913L18.069 10.0426C15.721 12.474 14.6642 13.5522 14.5929 13.589C14.3818 13.6979 14.1025 13.7016 13.9034 13.5981C13.8635 13.5773 13.0637 12.7686 12.1261 11.801C11.026 10.6657 10.3702 10.0072 10.2775 9.94475C9.8223 9.63803 9.41364 9.51882 8.8982 9.54239C8.33418 9.56816 7.90461 9.74988 7.47299 10.1452C7.36446 10.2447 5.66443 11.9983 3.69516 14.0422C0.798423 17.0487 0.103732 17.7821 0.0573407 17.8828C0.0108054 17.9838 0 18.0471 0 18.2187C0 18.4681 0.0513857 18.602 0.210369 18.7668C0.359652 18.9214 0.472508 18.972 0.697501 18.9847C1.06618 19.0057 0.691282 19.3603 4.85043 15.0574C7.43654 12.3819 8.58076 11.2142 8.65633 11.1734C8.74755 11.1241 8.79994 11.115 8.9925 11.115C9.18546 11.115 9.23725 11.124 9.32866 11.1736C9.40188 11.2133 9.9863 11.7995 11.1416 12.9919C12.1673 14.0506 12.899 14.7867 12.9785 14.8397C13.4362 15.1454 13.8062 15.2488 14.3592 15.2258C14.6976 15.2117 14.9032 15.1636 15.179 15.034C15.5572 14.8563 15.5217 14.8912 19.0828 11.2055L22.4858 7.6836L22.4925 10.3199L22.4992 12.9562L22.5544 13.0806C22.6619 13.3229 22.8808 13.5007 23.1203 13.5403C23.4824 13.6001 23.825 13.3956 23.9545 13.0422C23.9984 12.9227 24 12.7893 24 9.27428C24 5.65524 23.9997 5.62931 23.9505 5.49321C23.8581 5.23737 23.5877 5.02453 23.3277 5.00288C23.2682 4.99796 21.6528 4.9995 19.7379 5.00634Z" fill="#4E50D1"/>
</svg>
