<svg width="24" height="24" viewBox="0 0 24 24" fill="none" xmlns="http://www.w3.org/2000/svg">
<path fill-rule="evenodd" clip-rule="evenodd" d="M3.888 0.0390418C2.91996 0.170034 2.02558 0.61677 1.32118 1.32119C0.465648 2.1767 0 3.29711 0 4.50002C0 5.70196 0.466344 6.82403 1.32118 7.67884C1.71874 8.0764 2.19338 8.40391 2.67758 8.61472C2.80872 8.67182 2.92073 8.7227 2.92651 8.72779C2.9323 8.73287 2.39678 9.27952 1.73647 9.94252C1.05773 10.6241 0.487464 11.2168 0.424464 11.3063C0.156696 11.6868 0.026544 12.0681 0.007488 12.528C-0.011832 12.994 0.073176 13.3381 0.314232 13.7695C0.407328 13.9361 0.547656 14.086 1.63121 15.1759C2.5117 16.0616 2.87688 16.4134 2.964 16.4597C3.06835 16.5152 3.11218 16.5236 3.3 16.5236C3.48751 16.5236 3.53203 16.5151 3.63751 16.4597C3.80938 16.3693 3.91562 16.2399 4.06318 15.9415C4.24274 15.5783 4.36392 15.4087 4.64234 15.1309C4.90423 14.8695 5.11596 14.7174 5.4426 14.5561C5.87302 14.3435 6.25162 14.256 6.74114 14.2561C7.44103 14.2563 8.09201 14.4785 8.61264 14.8951C9.34872 15.484 9.74359 16.3133 9.7439 17.2709C9.74407 17.7457 9.64812 18.15 9.43361 18.5786C9.27629 18.8929 9.1261 19.1002 8.86915 19.3577C8.58893 19.6385 8.43281 19.7495 8.04146 19.9462C7.7137 20.111 7.59442 20.2213 7.51524 20.4329C7.44986 20.6076 7.4497 20.791 7.51474 20.9691C7.56238 21.0995 7.63603 21.1789 8.72074 22.268C9.35614 22.9059 9.9354 23.4738 10.008 23.53C10.8071 24.1482 11.9015 24.1509 12.7435 23.5367C12.8164 23.4836 13.4131 22.9053 14.0696 22.2516C14.7261 21.598 15.2673 21.0679 15.2723 21.0736C15.2774 21.0793 15.3282 21.1913 15.3853 21.3224C15.9209 22.5526 17.0565 23.5181 18.3639 23.8549C18.7909 23.9649 18.98 23.9868 19.5 23.9868C20.02 23.9868 20.2091 23.9649 20.6361 23.8549C21.4085 23.6559 22.0997 23.258 22.6788 22.6788C23.2579 22.0997 23.6559 21.4085 23.8548 20.6361C23.9648 20.2091 23.9868 20.02 23.9868 19.5C23.9868 18.98 23.9648 18.791 23.8548 18.3639C23.6559 17.5915 23.2579 16.9003 22.6788 16.3212C22.2813 15.9236 21.8066 15.5961 21.3224 15.3853C21.1913 15.3282 21.0793 15.2774 21.0736 15.2723C21.0678 15.2673 21.6087 14.7153 22.2754 14.0456C23.2711 13.0455 23.5112 12.7916 23.6198 12.624C23.871 12.236 23.9735 11.9161 23.9927 11.46C24.0117 11.0069 23.9246 10.6579 23.6858 10.2305C23.5927 10.0639 23.4523 9.91401 22.3688 8.8241C21.4883 7.93845 21.1231 7.58668 21.036 7.54034C20.9316 7.4848 20.8878 7.47645 20.7 7.47645C20.5125 7.47645 20.468 7.4849 20.3625 7.54039C20.1906 7.63077 20.0844 7.76011 19.9368 8.05855C19.7573 8.42174 19.6361 8.59135 19.3577 8.86917C18.7828 9.44284 18.0639 9.74419 17.2709 9.74392C16.4214 9.74363 15.7184 9.45611 15.1311 8.86888C14.5462 8.28395 14.2563 7.57903 14.2561 6.74116C14.256 6.25163 14.3434 5.87303 14.556 5.44262C14.7174 5.11598 14.8695 4.90425 15.1308 4.64236C15.4111 4.36154 15.5672 4.25054 15.9585 4.05383C16.2881 3.88819 16.4054 3.77903 16.4869 3.56207C16.5275 3.45412 16.5382 3.38246 16.5317 3.26356C16.5151 2.96337 16.5206 2.96995 15.175 1.63123C14.0852 0.547002 13.9362 0.407394 13.7695 0.31425C13.3381 0.0731938 12.994 -0.0118142 12.528 0.0075058C12.0681 0.0265618 11.6868 0.156714 11.3063 0.424482C11.2168 0.487482 10.624 1.05775 9.9425 1.73649C9.2795 2.3968 8.73286 2.93231 8.72777 2.92653C8.72268 2.92075 8.6718 2.80874 8.6147 2.6776C8.2129 1.75478 7.4279 0.931194 6.51379 0.473418C5.7222 0.0769858 4.77082 -0.0804062 3.888 0.0390418ZM3.972 1.55188C3.04658 1.71887 2.2375 2.32775 1.82143 3.1703C1.61165 3.59517 1.51214 4.02287 1.51214 4.50002C1.51214 5.64086 2.15098 6.67627 3.16217 7.17434C3.56398 7.37227 3.87922 7.45411 4.37842 7.49013C4.62084 7.50763 4.71545 7.52491 4.81042 7.56899C5.07499 7.69183 5.24076 7.95059 5.24282 8.24402C5.24518 8.57877 5.35178 8.45342 3.39547 10.416C2.15755 11.6579 1.62098 12.212 1.58258 12.288C1.50115 12.4493 1.49138 12.7125 1.5599 12.9C1.60942 13.0355 1.65698 13.0881 2.36914 13.794C2.78527 14.2065 3.13255 14.5434 3.14088 14.5427C3.14918 14.5419 3.23441 14.4456 3.33026 14.3287C3.50954 14.1099 3.79082 13.8432 4.044 13.652C5.2416 12.7473 6.82188 12.5032 8.256 13.0013C8.93282 13.2364 9.6852 13.7464 10.14 14.2784C10.8242 15.0787 11.2023 16.021 11.248 17.04C11.3148 18.5297 10.6576 19.9277 9.45708 20.8495C9.45106 20.8541 9.78461 21.1965 10.1983 21.6103C10.7077 22.1199 10.9862 22.381 11.0612 22.4193C11.221 22.501 11.5289 22.5005 11.7 22.4184C11.795 22.3728 12.1878 21.9943 13.584 20.6035C15.5465 18.6486 15.4215 18.7548 15.756 18.7572C16.0309 18.7591 16.2956 18.9178 16.4162 19.1528C16.47 19.2576 16.512 19.4775 16.5121 19.6544C16.5122 19.8453 16.5758 20.1861 16.6564 20.4279C16.9631 21.348 17.652 22.0369 18.5721 22.3437C19.1534 22.5374 19.8466 22.5374 20.4279 22.3437C21.348 22.0369 22.0369 21.348 22.3436 20.4279C22.5374 19.8466 22.5374 19.1534 22.3436 18.5721C22.0858 17.7987 21.5488 17.1759 20.8378 16.8257C20.436 16.6278 20.1208 16.5459 19.6216 16.5099C19.3792 16.4924 19.2846 16.4751 19.1896 16.431C18.9242 16.3078 18.7568 16.0471 18.7563 15.756C18.7557 15.4205 18.6492 15.5456 20.6045 13.584C21.8424 12.3421 22.379 11.7881 22.4174 11.712C22.4988 11.5508 22.5086 11.2876 22.4401 11.1C22.3906 10.9644 22.3433 10.9122 21.6305 10.206C21.2141 9.79353 20.8668 9.45664 20.8587 9.45739C20.8506 9.45815 20.7656 9.55444 20.6697 9.67137C20.4905 9.89011 20.2092 10.1568 19.956 10.3481C18.7572 11.2537 17.1795 11.4974 15.744 10.9987C15.0672 10.7636 14.3148 10.2536 13.86 9.72165C12.9187 8.6207 12.5547 7.22644 12.8428 5.82592C13.0398 4.86796 13.5996 3.92788 14.3286 3.33028C14.4456 3.23443 14.5419 3.14961 14.5426 3.14176C14.5434 3.13391 14.2065 2.78661 13.794 2.36997C13.0876 1.65647 13.0356 1.60941 12.9 1.5599C12.7124 1.49143 12.4492 1.50119 12.288 1.5826C12.212 1.621 11.6579 2.15757 10.416 3.39549C8.4534 5.3518 8.57875 5.24519 8.244 5.24284C7.96906 5.2409 7.70436 5.08228 7.58383 4.84725C7.53005 4.74239 7.48802 4.52253 7.48793 4.3456C7.48769 3.91574 7.27498 3.26536 6.99888 2.85019C6.79025 2.53643 6.46358 2.20977 6.14983 2.00114C5.838 1.79375 5.38702 1.61606 5.004 1.54963C4.73726 1.50338 4.23478 1.50448 3.972 1.55188Z" fill="#4E50D1"/>
</svg>
