<?xml version="1.0" encoding="UTF-8"?><svg id="Layer_1" xmlns="http://www.w3.org/2000/svg" xmlns:xlink="http://www.w3.org/1999/xlink" viewBox="0 0 500 500"><defs><style>.cls-1{fill:none;}.cls-2{fill:#051b2c;}.cls-3{fill:#fff;}.cls-4{clip-path:url(#clippath);}</style><clipPath id="clippath"><rect class="cls-1" width="500" height="500"/></clipPath></defs><g class="cls-4"><path class="cls-2" d="M500,0H0v500h500V0Z"/><path class="cls-3" d="M249.6,51c-110.34.21-200.23,90.81-199.6,201.16.55,103.06,79.14,187.66,179.68,197.81.32.03.64,0,.95-.11s.59-.27.83-.48c.24-.22.43-.48.56-.78.13-.3.2-.61.19-.94v-196.67h-15.49c-.61,0-1.19-.24-1.63-.67s-.67-1.01-.67-1.62v-31c0-.61.24-1.19.67-1.62s1.02-.67,1.63-.67h48.78c.61,0,1.19.24,1.62.67s.67,1.02.67,1.62v229.97c0,.32.06.64.19.93.13.29.32.56.56.77.24.22.52.38.82.48.3.1.63.14.95.11,100.91-10.18,179.68-95.37,179.68-198.96,0-110.59-89.76-200.21-200.4-200ZM306.49,405.4c-.35.12-.72.16-1.08.11-.36-.05-.71-.19-1.01-.4-.3-.21-.55-.49-.71-.82-.17-.33-.26-.69-.26-1.06v-32.83c0-.65.19-1.29.54-1.84.35-.55.85-.99,1.44-1.27,21.96-10.48,40.51-26.97,53.5-47.55,12.99-20.58,19.89-44.41,19.91-68.75,0-71.7-58.88-129.9-130.82-128.8-68.43,1.04-124.56,56.21-126.74,124.6-.8,25.04,5.71,49.77,18.74,71.17,13.03,21.4,32.01,38.54,54.62,49.32.59.28,1.09.72,1.44,1.27.35.55.54,1.19.54,1.84v32.84c0,.37-.09.73-.26,1.06-.17.33-.41.61-.71.82-.3.21-.65.35-1.01.4-.36.05-.74.01-1.08-.11-63.36-23.24-108.58-84.45-107.93-155.95.8-89.31,73.76-162.17,163.1-162.86,91.24-.71,165.69,73.32,165.69,164.4,0,70.83-45.02,131.33-107.91,154.4Z"/></g></svg>