<svg width="300" height="230" viewBox="0 0 300 230" fill="none" xmlns="http://www.w3.org/2000/svg">
<g clip-path="url(#clip0_2219_11233)">
<path d="M39.2605 210.094C34.7916 214.541 29.3531 216.765 22.945 216.765C16.5368 216.765 11.1089 214.541 6.6611 210.094C2.22037 205.642 0 200.193 0 193.746C0 187.3 2.22388 181.854 6.67164 177.41C11.1194 172.962 16.5474 170.738 22.9555 170.738C29.3637 170.738 34.7986 172.959 39.2605 177.399C43.7293 181.847 45.9637 187.293 45.9637 193.736C45.9637 200.179 43.7293 205.632 39.2605 210.094ZM12.7741 204.149C15.5145 206.868 18.9083 208.228 22.9555 208.228C27.0028 208.228 30.3966 206.868 33.1369 204.149C35.8772 201.43 37.2474 197.962 37.2474 193.746C37.2474 189.53 35.8772 186.052 33.1369 183.312C30.3966 180.572 27.0028 179.202 22.9555 179.202C18.9083 179.202 15.5145 180.572 12.7741 183.312C10.0338 186.052 8.66365 189.53 8.66365 193.746C8.66365 197.962 10.0338 201.43 12.7741 204.149Z" fill="white"/>
<path d="M69.2987 183.375C72.7557 183.375 75.612 184.535 77.8675 186.853C80.123 189.172 81.2507 192.376 81.2507 196.466V215.353C81.2507 215.493 81.1952 215.627 81.0964 215.725C80.9975 215.824 80.8635 215.88 80.7237 215.88H73.6094C73.4696 215.88 73.3356 215.824 73.2368 215.725C73.1379 215.627 73.0824 215.493 73.0824 215.353V197.477C73.0824 195.37 72.5133 193.757 71.375 192.64C70.2367 191.523 68.719 190.964 66.8218 190.964C64.7139 190.964 63.0275 191.617 61.7628 192.924C60.498 194.231 59.8656 196.192 59.8656 198.805V215.353C59.8656 215.493 59.8101 215.627 59.7113 215.725C59.6124 215.824 59.4784 215.88 59.3386 215.88H52.2243C52.0846 215.88 51.9505 215.824 51.8517 215.725C51.7529 215.627 51.6973 215.493 51.6973 215.353V184.788C51.6973 184.648 51.7529 184.514 51.8517 184.415C51.9505 184.316 52.0846 184.261 52.2243 184.261H59.3386C59.4784 184.261 59.6124 184.316 59.7113 184.415C59.8101 184.514 59.8656 184.648 59.8656 184.788V187.802C61.8611 184.851 65.0055 183.375 69.2987 183.375Z" fill="white"/>
<path d="M95.121 203.417C96.2171 207.38 99.1893 209.361 104.038 209.361C106.987 209.361 109.258 208.419 110.852 206.534C110.932 206.442 111.041 206.381 111.161 206.361C111.281 206.341 111.405 206.363 111.51 206.423L117.194 209.701C117.257 209.738 117.313 209.788 117.356 209.847C117.399 209.907 117.43 209.975 117.445 210.047C117.46 210.119 117.461 210.193 117.445 210.265C117.43 210.337 117.4 210.405 117.357 210.465C114.248 214.663 109.769 216.762 103.919 216.76C98.6913 216.76 94.4965 215.179 91.3346 212.017C88.1727 208.855 86.5917 204.871 86.5917 200.065C86.5917 195.301 88.1516 191.328 91.2714 188.145C94.3911 184.962 98.3962 183.37 103.287 183.37C107.924 183.37 111.75 184.972 114.764 188.176C117.779 191.38 119.286 195.343 119.286 200.065C119.281 201.036 119.199 202.005 119.044 202.963C119.023 203.088 118.959 203.201 118.862 203.283C118.766 203.364 118.643 203.408 118.517 203.406L95.121 203.417ZM111.12 197.093C110.655 194.943 109.696 193.341 108.243 192.287C106.802 191.237 105.061 190.682 103.279 190.706C101.086 190.706 99.2736 191.264 97.8402 192.382C96.4068 193.499 95.4547 195.069 94.984 197.093H111.12Z" fill="white"/>
<path d="M139.188 216.765C134.796 216.765 131.107 215.785 128.121 213.825C125.31 212.018 123.15 209.361 121.955 206.241C121.911 206.125 121.909 205.996 121.95 205.878C121.992 205.76 122.074 205.661 122.182 205.598L128.735 201.767C128.799 201.73 128.871 201.706 128.945 201.698C129.018 201.691 129.093 201.699 129.164 201.722C129.235 201.745 129.3 201.783 129.355 201.833C129.41 201.883 129.453 201.944 129.483 202.012C131.271 206.158 134.59 208.23 139.441 208.228C141.886 208.228 143.677 207.789 144.816 206.911C145.348 206.53 145.782 206.027 146.079 205.443C146.376 204.86 146.528 204.214 146.523 203.559C146.523 201.999 145.828 200.787 144.436 199.923C143.045 199.058 140.558 198.115 136.974 197.093C135.266 196.6 133.587 196.009 131.947 195.322C130.494 194.684 129.116 193.889 127.836 192.951C126.487 191.986 125.409 190.69 124.706 189.188C123.958 187.519 123.59 185.704 123.631 183.876C123.631 179.871 125.054 176.677 127.9 174.295C130.745 171.913 134.171 170.722 138.176 170.722C141.759 170.722 144.911 171.601 147.63 173.357C150.247 175.054 152.364 177.419 153.761 180.208C153.822 180.328 153.834 180.467 153.795 180.596C153.756 180.725 153.67 180.834 153.553 180.901L147.137 184.608C147.076 184.644 147.007 184.666 146.937 184.675C146.866 184.683 146.795 184.677 146.727 184.657C146.659 184.637 146.595 184.604 146.54 184.559C146.485 184.514 146.44 184.458 146.407 184.395C144.626 180.931 141.882 179.2 138.176 179.202C136.363 179.202 134.94 179.613 133.907 180.435C133.414 180.806 133.017 181.289 132.747 181.845C132.478 182.4 132.345 183.011 132.358 183.628C132.347 184.292 132.499 184.948 132.803 185.538C133.106 186.128 133.551 186.634 134.097 187.012C135.256 187.876 137.48 188.814 140.769 189.826C142.118 190.247 143.14 190.574 143.836 190.806C144.531 191.038 145.48 191.396 146.681 191.881C147.648 192.249 148.579 192.704 149.464 193.24C150.248 193.761 150.998 194.331 151.709 194.948C152.472 195.572 153.124 196.32 153.638 197.161C154.707 199.072 155.262 201.227 155.25 203.417C155.25 207.506 153.764 210.756 150.792 213.166C147.82 215.576 143.952 216.776 139.188 216.765Z" fill="white"/>
<path d="M164.609 180.466C163.287 180.449 162.024 179.915 161.089 178.98C160.154 178.045 159.621 176.782 159.603 175.46C159.599 174.8 159.729 174.146 159.984 173.537C160.239 172.929 160.615 172.378 161.089 171.919C161.537 171.436 162.08 171.052 162.684 170.79C163.288 170.529 163.941 170.396 164.599 170.401C165.267 170.393 165.93 170.523 166.545 170.785C167.16 171.046 167.714 171.432 168.172 171.919C168.645 172.379 169.02 172.93 169.275 173.538C169.53 174.147 169.661 174.8 169.658 175.46C169.662 176.115 169.533 176.765 169.277 177.368C169.022 177.972 168.646 178.517 168.172 178.97C167.711 179.449 167.158 179.829 166.545 180.086C165.933 180.343 165.274 180.473 164.609 180.466ZM160.562 215.353V184.788C160.562 184.648 160.618 184.514 160.716 184.415C160.815 184.316 160.949 184.261 161.089 184.261H168.203C168.343 184.261 168.477 184.316 168.576 184.415C168.675 184.514 168.73 184.648 168.73 184.788V215.353C168.73 215.493 168.675 215.627 168.576 215.725C168.477 215.824 168.343 215.88 168.203 215.88H161.089C160.949 215.88 160.815 215.824 160.716 215.725C160.618 215.627 160.562 215.493 160.562 215.353Z" fill="white"/>
<path d="M200.929 184.261H207.843C207.983 184.261 208.117 184.316 208.216 184.415C208.315 184.514 208.37 184.648 208.37 184.788V214.362C208.37 219.253 206.758 222.984 203.533 225.555C200.307 228.127 196.417 229.413 191.862 229.413C188.448 229.413 185.445 228.759 182.854 227.452C180.476 226.277 178.49 224.436 177.138 222.154C177.104 222.094 177.082 222.027 177.073 221.959C177.064 221.89 177.069 221.82 177.087 221.754C177.105 221.687 177.136 221.624 177.178 221.569C177.221 221.515 177.273 221.469 177.333 221.434L183.391 217.972C183.509 217.905 183.649 217.886 183.78 217.92C183.912 217.953 184.025 218.036 184.097 218.151C185.731 220.811 188.408 222.14 192.129 222.14C194.7 222.14 196.72 221.466 198.189 220.117C199.657 218.768 200.396 216.849 200.405 214.362V210.937C198.002 214.141 194.628 215.743 190.284 215.743C185.815 215.743 182.075 214.172 179.062 211.032C176.049 207.891 174.541 204.068 174.538 199.564C174.538 195.095 176.055 191.28 179.091 188.118C182.126 184.956 185.857 183.375 190.281 183.375C194.624 183.375 197.997 184.977 200.402 188.181V184.788C200.402 184.648 200.458 184.514 200.557 184.415C200.655 184.316 200.789 184.261 200.929 184.261ZM185.193 205.788C186.855 207.411 188.974 208.223 191.549 208.223C194.124 208.223 196.242 207.411 197.902 205.788C199.567 204.165 200.4 202.089 200.402 199.559C200.402 197.072 199.569 195.016 197.902 193.393C196.235 191.77 194.121 190.96 191.559 190.964C188.986 190.964 186.867 191.775 185.204 193.399C183.54 195.022 182.707 197.077 182.703 199.564C182.696 202.094 183.526 204.168 185.193 205.788Z" fill="white"/>
<path d="M233.347 183.375C236.804 183.375 239.66 184.535 241.916 186.853C244.171 189.172 245.303 192.376 245.312 196.466V215.353C245.312 215.493 245.256 215.627 245.158 215.725C245.059 215.824 244.925 215.88 244.785 215.88H237.671C237.531 215.88 237.397 215.824 237.298 215.725C237.199 215.627 237.144 215.493 237.144 215.353V197.477C237.144 195.37 236.575 193.757 235.436 192.64C234.298 191.523 232.78 190.964 230.883 190.964C228.775 190.964 227.089 191.617 225.824 192.924C224.559 194.231 223.927 196.192 223.927 198.805V215.353C223.927 215.493 223.871 215.627 223.773 215.725C223.674 215.824 223.54 215.88 223.4 215.88H216.286C216.146 215.88 216.012 215.824 215.913 215.725C215.814 215.627 215.759 215.493 215.759 215.353V184.788C215.759 184.648 215.814 184.514 215.913 184.415C216.012 184.316 216.146 184.261 216.286 184.261H223.4C223.54 184.261 223.674 184.316 223.773 184.415C223.871 184.514 223.927 184.648 223.927 184.788V187.802C225.907 184.851 229.047 183.375 233.347 183.375Z" fill="white"/>
<path d="M276.813 184.261H283.927C284.067 184.261 284.201 184.316 284.3 184.415C284.398 184.514 284.454 184.648 284.454 184.788V215.353C284.454 215.493 284.398 215.627 284.3 215.725C284.201 215.824 284.067 215.88 283.927 215.88H276.813C276.673 215.88 276.539 215.824 276.44 215.725C276.341 215.627 276.286 215.493 276.286 215.353V212.149C273.84 215.226 270.404 216.765 265.978 216.765C261.762 216.765 258.147 215.153 255.132 211.927C252.118 208.702 250.611 204.75 250.611 200.07C250.611 195.391 252.118 191.438 255.132 188.213C258.147 184.988 261.762 183.375 265.978 183.375C270.404 183.375 273.84 184.914 276.286 187.992V184.788C276.286 184.648 276.341 184.514 276.44 184.415C276.539 184.316 276.673 184.261 276.813 184.261ZM261.235 206.489C262.879 208.154 264.966 208.987 267.495 208.987C270.025 208.987 272.122 208.154 273.788 206.489C275.453 204.824 276.286 202.684 276.286 200.07C276.286 197.456 275.453 195.317 273.788 193.652C272.122 191.986 270.025 191.154 267.495 191.154C264.966 191.154 262.879 191.986 261.235 193.652C259.591 195.317 258.769 197.456 258.769 200.07C258.769 202.684 259.591 204.824 261.235 206.489Z" fill="white"/>
<path d="M291.842 215.353V170.243C291.842 170.103 291.898 169.969 291.997 169.87C292.095 169.771 292.229 169.716 292.369 169.716H299.484C299.623 169.716 299.757 169.771 299.856 169.87C299.955 169.969 300.01 170.103 300.01 170.243V215.353C300.01 215.493 299.955 215.627 299.856 215.725C299.757 215.824 299.623 215.88 299.484 215.88H292.369C292.229 215.88 292.095 215.824 291.997 215.725C291.898 215.627 291.842 215.493 291.842 215.353Z" fill="white"/>
<path d="M149.864 1.01211e-05C111.921 0.0737882 81.0136 31.2266 81.2296 69.1696C81.4194 104.607 108.443 133.699 143.013 137.188C143.124 137.199 143.235 137.186 143.34 137.152C143.446 137.117 143.542 137.061 143.624 136.986C143.706 136.911 143.772 136.821 143.816 136.719C143.861 136.618 143.884 136.508 143.883 136.397V68.7717H138.555C138.346 68.7717 138.144 68.6884 137.996 68.5402C137.848 68.3919 137.765 68.1908 137.765 67.9812V57.3203C137.765 57.1106 137.848 56.9096 137.996 56.7613C138.144 56.6131 138.346 56.5298 138.555 56.5298H155.329C155.539 56.5298 155.74 56.6131 155.888 56.7613C156.036 56.9096 156.12 57.1106 156.12 57.3203V136.397C156.119 136.508 156.142 136.617 156.186 136.718C156.231 136.82 156.296 136.91 156.377 136.985C156.459 137.059 156.556 137.116 156.661 137.151C156.765 137.186 156.876 137.198 156.987 137.188C191.686 133.686 218.773 104.393 218.773 68.7717C218.773 30.7444 187.907 -0.0737679 149.864 1.01211e-05ZM169.426 121.866C169.307 121.908 169.179 121.921 169.054 121.903C168.929 121.886 168.809 121.839 168.706 121.766C168.603 121.692 168.519 121.596 168.46 121.483C168.402 121.371 168.372 121.246 168.372 121.12V109.832C168.373 109.607 168.437 109.388 168.557 109.198C168.677 109.009 168.849 108.858 169.052 108.762C176.604 105.157 182.982 99.4886 187.448 92.4122C191.915 85.3358 194.289 77.1399 194.295 68.7717C194.295 44.1166 174.048 24.1043 149.311 24.4838C125.781 24.8421 106.48 43.811 105.729 67.3304C105.455 75.9405 107.694 84.4441 112.174 91.802C116.654 99.1598 123.181 105.053 130.956 108.762C131.159 108.858 131.331 109.009 131.452 109.198C131.573 109.388 131.637 109.607 131.638 109.832V121.122C131.639 121.249 131.608 121.374 131.55 121.486C131.492 121.598 131.408 121.695 131.305 121.768C131.201 121.841 131.082 121.888 130.957 121.906C130.831 121.923 130.704 121.91 130.585 121.868C108.796 113.876 93.2476 92.8286 93.4715 68.2447C93.7482 37.5346 118.835 12.479 149.556 12.2419C180.93 11.9995 206.531 37.4529 206.531 68.7717C206.531 93.1263 191.051 113.932 169.426 121.866Z" fill="white"/>
</g>
<defs>
<clipPath id="clip0_2219_11233">
<rect width="300" height="229.413" fill="white"/>
</clipPath>
</defs>
</svg>
